<?xml version="1.0" encoding="UTF-8"?>
<svg xmlns="http://www.w3.org/2000/svg" xmlns:xlink="http://www.w3.org/1999/xlink" version="1.2" >
<font id="GAPZuidVG-Regular" horiz-adv-x="491">
<font-face  font-family="GAP Zuid VG" units-per-em="1000" ascent="620" descent="-220" font-style="normal" font-weight="400" font-stretch="normal" cap-height="620" x-height="440" underline-position="-100" underline-thickness="50" />
<missing-glyph horiz-adv-x="561" d="M164 48 L164 592 L397 592 L397 48 L164 48 Z M426 0 C441 0 460 9 460 25 L460 618 C460 632 445 640 431 640 L135 640 C120 640 101 630 101 614 L101 22 C101 8 116 0 130 0 L426 0 Z " />
<glyph glyph-name="NULL" horiz-adv-x="460" d="M376 0 C391 0 410 9 410 25 L410 618 C410 632 394 640 380 640 L84 640 C69 640 51 630 51 614 L51 22 C51 8 66 0 80 0 L376 0 Z M238 160 L238 121 C238 107 253 99 267 99 C282 99 301 108 301 124 L301 164 C301 178 286 186 272 186 C257 186 238 176 238 160 L238 160 Z M238 237 C238 210 244 198 265 198 C284 198 301 207 301 239 L301 240 C301 253 306 269 327 292 C335 300 341 309 347 317 L347 48 L114 48 L114 461 C118 459 122 458 127 458 C138 458 147 464 158 471 C173 481 193 493 218 493 C268 493 310 447 310 392 C310 357 293 338 276 319 C257 297 238 275 238 237 L238 237 Z M114 504 L114 592 L347 592 L347 479 C321 516 279 541 234 541 C190 541 139 524 114 504 L114 504 Z " />
<glyph glyph-name="CR" unicode="&#xd;" horiz-adv-x="250" >
</glyph>
<glyph glyph-name="space" unicode="&#x20;" horiz-adv-x="300" />
<glyph glyph-name="uni000D" horiz-adv-x="250" />
<glyph glyph-name="exclam" unicode="&#x21;" horiz-adv-x="265" d="M101 222 C101 208 116 200 130 200 C145 200 163 211 164 226 L164 618 C164 632 149 640 135 640 C120 640 102 629 101 614 L101 222 Z M101 61 L101 22 C101 8 117 0 131 0 C146 0 164 9 164 25 L164 65 C164 79 149 87 135 87 C120 87 101 77 101 61 L101 61 Z " />
<glyph glyph-name="quotedbl" unicode="&#x22;" horiz-adv-x="362" d="M75 614 L75 466 C75 452 91 444 105 444 C120 444 138 454 138 470 L138 618 C138 632 123 640 109 640 C94 640 75 630 75 614 L75 614 Z M223 614 L223 466 C223 452 239 444 253 444 C268 444 286 454 286 470 L286 618 C286 632 271 640 257 640 C242 640 223 630 223 614 L223 614 Z " />
<glyph glyph-name="numbersign" unicode="&#x23;" horiz-adv-x="559" d="M125 22 C125 8 140 0 154 0 C168 0 184 7 187 20 L231 197 L291 197 L249 27 C249 9 257 0 277 0 C291 0 307 7 310 20 L354 197 L425 197 C440 197 459 207 459 223 C459 237 444 245 430 245 L366 245 L379 296 L450 296 C465 296 484 306 484 322 C484 336 469 344 455 344 L391 344 L434 514 L434 519 C434 533 419 541 405 541 C391 541 375 534 372 521 L328 344 L268 344 L310 514 C310 532 302 541 282 541 C268 541 252 534 249 521 L205 344 L134 344 C119 344 100 334 100 318 C100 304 115 296 129 296 L193 296 L180 245 L109 245 C94 245 75 235 75 219 C75 205 91 197 105 197 L168 197 L125 27 L125 22 Z M243 245 L256 296 L316 296 L303 245 L243 245 Z " />
<glyph glyph-name="dollar" unicode="&#x24;" horiz-adv-x="431" d="M169 516 L169 443 C109 431 65 384 65 332 C65 270 127 244 135 241 C266 187 293 160 293 118 C293 70 258 42 201 42 C170 42 145 51 109 76 L107 78 C95 86 88 89 80 89 C65 89 50 76 50 64 C50 40 108 9 169 -2 L169 -77 C169 -91 184 -99 198 -99 C213 -99 232 -89 232 -73 L232 -4 C303 5 356 54 356 124 C356 181 321 219 174 282 C150 294 129 312 129 340 C129 374 160 399 200 399 C217 399 233 394 264 381 C272 378 282 374 292 374 C307 374 323 386 323 397 C323 416 277 436 232 443 L232 519 C232 533 217 541 203 541 C188 541 169 532 169 516 L169 516 Z " />
<glyph glyph-name="percent" unicode="&#x25;" horiz-adv-x="757" d="M336 421 C336 488 279 542 208 542 C135 542 75 485 75 417 L75 368 C75 301 132 247 203 247 C276 247 336 303 336 371 L336 421 Z M681 174 C681 241 624 295 553 295 C480 295 421 238 421 170 L421 121 C421 54 478 0 549 0 C622 0 681 57 681 125 L681 174 Z M223 15 C223 11 236 0 253 0 C267 0 279 6 284 16 L290 27 C330 107 533 517 533 529 C533 533 515 541 502 541 C487 541 474 532 468 516 C433 454 223 24 223 15 L223 15 Z M618 121 C618 81 589 48 553 48 C515 48 484 83 484 125 L484 174 C484 214 513 247 549 247 C587 247 618 212 618 170 L618 121 Z M273 368 C273 328 244 295 208 295 C170 295 138 330 138 372 L138 421 C138 461 167 494 203 494 C241 494 273 459 273 417 L273 368 Z " />
<glyph glyph-name="ampersand" unicode="&#x26;" horiz-adv-x="584" d="M258 43 C190 43 139 100 139 175 C139 242 180 288 250 297 L253 297 C274 300 286 308 286 321 C286 334 274 342 252 344 C211 349 188 376 188 418 C188 465 217 498 257 498 C267 498 276 496 294 484 C303 477 309 474 318 474 C336 474 352 486 352 498 C352 521 294 546 249 546 C179 546 124 488 124 419 C124 380 141 345 170 323 C111 294 75 235 75 168 C75 71 152 -5 252 -5 C344 -5 421 61 432 148 L474 148 C492 148 508 160 508 174 C508 187 495 196 478 196 L306 196 C287 196 272 185 272 171 C272 158 285 148 302 148 L369 148 C361 84 316 43 258 43 L258 43 Z " />
<glyph glyph-name="quotesingle" unicode="&#x27;" horiz-adv-x="214" d="M75 614 L75 466 C75 452 91 444 105 444 C120 444 138 454 138 470 L138 618 C138 632 123 640 109 640 C94 640 75 630 75 614 L75 614 Z " />
<glyph glyph-name="parenleft" unicode="&#x28;" horiz-adv-x="288" d="M76 322 C76 210 108 85 160 -9 C178 -42 187 -50 203 -50 C220 -50 237 -39 237 -29 C237 -14 208 36 195 58 C156 123 139 216 139 313 C139 429 163 514 233 655 C235 659 237 663 237 668 C237 680 224 689 208 689 C182 689 169 663 161 647 C104 533 76 426 76 322 L76 322 Z " />
<glyph glyph-name="parenright" unicode="&#x29;" horiz-adv-x="288" d="M149 317 C149 202 121 105 54 -16 C51 -21 51 -24 51 -24 C51 -39 64 -50 79 -50 C98 -50 115 -32 133 5 C186 113 212 216 212 324 C212 435 185 537 119 665 C116 671 106 689 84 689 C66 689 51 677 51 663 L86 591 C128 507 149 417 149 317 L149 317 Z " />
<glyph glyph-name="asterisk" unicode="&#x2a;" horiz-adv-x="312" d="M155 450 L177 408 C181 399 192 395 203 395 C218 395 237 405 237 415 C237 423 221 459 195 509 L264 544 C278 551 286 558 286 568 C286 582 271 591 260 591 C246 591 214 575 188 561 L188 618 C188 632 172 640 158 640 C143 640 125 630 125 614 L125 563 C99 576 69 591 56 591 C45 591 26 581 26 565 C26 556 32 551 40 546 L118 507 C102 477 75 423 75 412 C75 402 91 395 105 395 C118 395 131 401 136 411 L155 450 Z " />
<glyph glyph-name="plus" unicode="&#x2b;" horiz-adv-x="411" d="M105 247 L174 247 L174 170 C174 156 189 148 203 148 C218 148 237 158 237 174 L237 247 L302 247 C317 247 336 256 336 272 C336 286 320 294 306 294 L237 294 L237 371 C237 385 222 393 208 393 C193 393 174 383 174 367 L174 294 L109 294 C94 294 75 285 75 269 C75 255 91 247 105 247 L105 247 Z " />
<glyph glyph-name="comma" unicode="&#x2c;" horiz-adv-x="263" d="M188 26 C188 41 172 47 158 47 L109 47 C94 47 75 38 75 21 C75 0 103 0 120 0 L124 0 C124 -42 116 -76 105 -109 C103 -114 100 -123 100 -126 L100 -129 C100 -141 115 -148 128 -148 C182 -148 188 -5 188 26 L188 26 Z " />
<glyph glyph-name="hyphen" unicode="&#x2d;" horiz-adv-x="411" d="M105 247 L302 247 C317 247 336 256 336 272 C336 286 320 295 306 295 L109 295 C94 295 75 285 75 269 C75 255 91 247 105 247 L105 247 Z " />
<glyph glyph-name="period" unicode="&#x2e;" horiz-adv-x="214" d="M75 61 L75 22 C75 8 91 0 105 0 C120 0 138 9 138 25 L138 65 C138 79 123 87 109 87 C94 87 75 77 75 61 L75 61 Z " />
<glyph glyph-name="slash" unicode="&#x2f;" horiz-adv-x="361" d="M336 675 C336 681 319 689 305 689 C292 689 286 682 285 681 C269 669 26 -30 26 -38 C26 -41 42 -49 57 -49 C72 -49 81 -42 86 -33 L336 675 Z " />
<glyph glyph-name="zero" unicode="0" horiz-adv-x="510" d="M371 165 C371 97 320 43 257 43 C192 43 138 100 138 169 L138 381 C138 449 190 503 253 503 C318 503 371 446 371 377 L371 165 Z M434 381 C434 475 355 551 257 551 C157 551 75 473 75 377 L75 165 C75 71 155 -5 253 -5 C353 -5 434 73 434 169 L434 381 Z " />
<glyph glyph-name="one" unicode="1" horiz-adv-x="338" d="M237 25 L237 519 C237 533 222 541 208 541 L84 541 C69 541 51 532 51 516 C51 502 66 493 80 493 L174 493 L174 22 C174 8 189 0 203 0 C218 0 237 9 237 25 L237 25 Z " />
<glyph glyph-name="two" unicode="2" horiz-adv-x="436" d="M156 47 L332 320 C350 348 360 380 360 409 C360 487 291 551 207 551 C162 551 121 533 88 498 C84 494 75 485 75 476 C75 464 89 454 106 454 C117 454 124 458 142 476 C153 487 170 503 201 503 C252 503 297 460 297 411 C297 376 275 336 227 262 L79 33 C76 29 75 26 75 22 C75 10 89 -1 105 -1 L327 -1 C345 -1 360 11 360 25 C360 37 347 47 331 47 L156 47 Z " />
<glyph glyph-name="three" unicode="3" horiz-adv-x="474" d="M397 169 C397 263 325 338 233 343 L355 506 C358 510 361 515 361 520 C361 531 348 541 331 541 L109 541 C91 541 75 529 75 515 C75 503 88 494 105 494 L276 494 L154 331 C151 326 149 322 149 317 C149 303 162 296 186 296 L205 296 C281 296 335 244 335 170 C335 98 283 43 215 43 C188 43 170 52 132 83 C125 89 120 91 111 91 C92 91 76 79 76 65 C76 58 80 54 91 43 C124 12 167 -5 216 -5 C318 -5 397 71 397 169 L397 169 Z " />
<glyph glyph-name="four" unicode="4" horiz-adv-x="461" d="M26 121 C26 107 41 98 55 98 L322 98 L322 22 C322 8 337 0 351 0 C366 0 385 9 385 25 L385 223 C385 237 370 245 356 245 C341 245 322 235 322 219 L322 146 L102 146 L286 529 C286 543 271 551 255 551 C242 551 231 546 226 535 L26 121 Z " />
<glyph glyph-name="five" unicode="5" horiz-adv-x="473" d="M215 -5 C318 -5 397 73 397 174 C397 276 318 344 202 344 L154 344 L173 494 L314 494 C332 494 348 505 348 519 C348 532 336 541 319 541 L146 541 C128 541 115 531 113 518 L88 316 C88 301 100 296 133 296 L186 296 C282 296 334 250 334 175 C334 99 281 43 219 43 C194 43 172 52 140 76 C124 88 116 92 107 92 C91 92 75 79 75 66 C75 59 79 53 91 42 C127 10 168 -5 215 -5 L215 -5 Z " />
<glyph glyph-name="six" unicode="6" horiz-adv-x="510" d="M371 173 C371 100 321 43 257 43 C192 43 138 100 138 169 L138 322 C138 427 211 493 327 493 C345 493 360 505 360 520 C360 534 348 541 325 541 C180 541 75 448 75 318 L75 165 C75 70 155 -5 254 -5 C354 -5 434 73 434 171 C434 267 356 344 257 344 L208 344 C190 344 174 332 174 318 C174 303 188 296 219 296 L246 296 C320 296 371 246 371 173 L371 173 Z " />
<glyph glyph-name="seven" unicode="7" horiz-adv-x="411" d="M359 523 C359 537 338 541 331 541 L84 541 C69 541 51 532 51 516 C51 502 66 493 80 493 L287 493 L106 14 C106 5 130 0 141 0 C162 0 167 12 172 26 L359 523 Z " />
<glyph glyph-name="eight" unicode="8" horiz-adv-x="510" d="M434 170 C434 236 397 295 338 325 C367 350 385 387 385 426 C385 497 328 551 254 551 C179 551 125 495 125 422 C125 381 142 347 171 323 C113 292 75 232 75 167 C75 71 154 -5 254 -5 C355 -5 434 73 434 170 L434 170 Z M256 43 C191 43 138 101 138 171 C138 241 190 296 254 296 C319 296 371 238 371 167 C371 98 320 43 256 43 L256 43 Z M255 344 C216 344 188 378 188 424 C188 470 216 503 254 503 C293 503 322 468 322 422 C322 376 293 344 255 344 L255 344 Z " />
<glyph glyph-name="nine" unicode="9" horiz-adv-x="510" d="M139 372 C139 446 188 503 253 503 C317 503 371 446 371 377 L371 170 C371 103 320 47 257 47 C226 47 206 61 191 71 C175 81 167 85 157 85 C141 85 125 72 125 61 C125 36 202 0 262 0 C352 0 435 78 435 174 L435 381 C435 476 355 551 254 551 C153 551 75 474 75 375 C75 275 154 197 253 197 L302 197 C320 197 336 209 336 224 C336 238 323 245 294 245 L268 245 C192 245 139 297 139 372 L139 372 Z " />
<glyph glyph-name="colon" unicode="&#x3a;" horiz-adv-x="213" d="M75 61 L75 22 C75 8 91 0 105 0 C120 0 138 9 138 25 L138 65 C138 79 123 87 109 87 C94 87 75 77 75 61 L75 61 Z M75 389 L75 350 C75 336 91 328 105 328 C120 328 138 337 138 353 L138 393 C138 407 123 415 109 415 C94 415 75 405 75 389 L75 389 Z " />
<glyph glyph-name="semicolon" unicode="&#x3b;" horiz-adv-x="263" d="M188 26 C188 41 172 47 158 47 L109 47 C94 47 75 38 75 21 C75 0 103 0 120 0 L124 0 C124 -42 116 -76 105 -109 C103 -114 100 -123 100 -126 L100 -129 C100 -141 115 -148 128 -148 C182 -148 188 -5 188 26 L188 26 Z M106 390 L106 351 C106 337 122 329 136 329 C151 329 169 338 169 354 L169 394 C169 408 154 416 140 416 C125 416 106 406 106 390 L106 390 Z " />
<glyph glyph-name="less" unicode="&#x3c;" horiz-adv-x="337" d="M75 269 C75 264 78 258 82 254 L206 131 C211 126 220 123 228 123 C243 123 262 133 262 149 C262 154 259 159 255 163 L146 272 L254 380 C259 385 262 391 262 396 C262 410 246 418 232 418 C222 418 212 414 206 408 L83 285 C78 280 75 274 75 269 L75 269 Z " />
<glyph glyph-name="equal" unicode="&#x3d;" horiz-adv-x="411" d="M112 292 L306 292 C324 292 347 304 347 321 C347 338 327 348 310 348 L116 348 C98 348 75 336 75 319 C75 302 95 292 112 292 L112 292 Z M112 193 L306 193 C324 193 347 205 347 223 C347 240 327 249 310 249 L116 249 C98 249 75 238 75 220 C75 203 95 193 112 193 L112 193 Z " />
<glyph glyph-name="greater" unicode="&#x3e;" horiz-adv-x="337" d="M191 269 L83 161 C78 156 75 150 75 145 C75 131 91 123 105 123 C115 123 124 127 130 133 L254 256 C259 261 262 267 262 272 C262 277 259 283 255 287 L131 410 C126 415 117 418 109 418 C94 418 75 408 75 392 C75 387 78 382 82 378 L191 269 Z " />
<glyph glyph-name="question" unicode="&#x3f;" horiz-adv-x="427" d="M150 61 L150 22 C150 8 166 0 180 0 C195 0 213 9 213 25 L213 65 C213 79 198 87 184 87 C169 87 150 77 150 61 L150 61 Z M180 592 C239 592 288 550 288 482 C288 438 269 405 233 366 C183 313 148 252 148 170 C148 155 164 148 181 148 C210 148 212 170 213 195 C218 271 257 314 307 367 C336 398 351 437 351 478 C351 570 273 640 181 640 C139 640 99 626 67 598 L65 597 C58 591 50 584 50 575 C50 560 65 552 79 552 C89 552 96 555 115 569 C126 578 145 592 180 592 L180 592 Z " />
<glyph glyph-name="at" unicode="&#x40;" horiz-adv-x="609" d="M521 174 L521 430 C521 553 419 650 295 650 C170 650 63 552 63 427 L63 219 C63 96 166 0 290 0 L389 0 C404 0 423 9 423 25 C423 38 408 47 395 47 L324 47 C217 47 126 103 126 223 L126 430 C126 523 198 602 290 602 C381 602 450 530 457 442 L319 442 C262 442 211 400 211 343 L211 244 C211 189 259 148 315 148 L389 148 C404 148 423 158 423 174 C423 187 409 195 393 195 L335 195 C301 195 275 209 275 248 L275 346 C275 380 294 395 325 395 L458 395 L458 170 C458 156 474 148 488 148 C503 148 521 158 521 174 L521 174 Z " />
<glyph glyph-name="A" unicode="A" horiz-adv-x="559" d="M51 16 C51 8 67 0 80 0 C94 0 110 10 114 20 L139 98 L419 98 L441 23 C445 9 457 0 472 0 C489 0 508 14 508 24 C508 49 351 515 316 618 C308 642 298 650 280 650 C262 650 253 640 244 615 C177 425 51 32 51 16 L51 16 Z M279 527 L404 146 L154 146 L279 527 Z " />
<glyph glyph-name="B" unicode="B" horiz-adv-x="634" d="M445 374 C486 402 509 446 509 494 C509 575 442 640 357 640 L135 640 C117 640 101 628 101 614 L101 22 C101 10 114 0 130 0 L352 0 C465 0 559 89 559 198 C559 276 517 345 445 374 L445 374 Z M496 198 C496 115 433 48 357 48 L164 48 L164 345 L351 345 C433 345 496 281 496 198 L496 198 Z M164 393 L164 592 L352 592 C404 592 446 546 446 490 C446 436 406 393 356 393 L164 393 Z " />
<glyph glyph-name="C" unicode="C" horiz-adv-x="536" d="M313 43 C216 43 139 120 139 218 L139 430 C139 526 212 602 306 602 C339 602 366 592 401 568 C413 560 418 559 426 559 C444 559 459 571 459 585 C459 617 379 650 306 650 C178 650 75 548 75 426 L75 214 C75 94 175 -5 301 -5 C376 -5 459 30 459 63 C459 76 446 87 430 87 C418 87 411 82 402 75 L400 74 C368 51 345 43 313 43 L313 43 Z " />
<glyph glyph-name="D" unicode="D" horiz-adv-x="635" d="M164 47 L164 592 L279 592 C398 592 496 491 496 367 L496 269 C496 147 400 47 282 47 L164 47 Z M279 0 C434 0 559 122 559 272 L559 371 C559 519 435 640 282 640 L134 640 C116 640 101 628 101 614 L101 22 C101 10 114 0 130 0 L279 0 Z " />
<glyph glyph-name="E" unicode="E" horiz-adv-x="585" d="M480 640 L134 640 C119 640 101 630 101 614 L101 71 C101 29 138 0 180 0 L476 0 C491 0 510 10 510 26 C510 41 494 47 480 47 L194 47 C174 47 164 55 164 75 L164 346 L303 346 C318 346 337 355 337 371 C337 386 321 393 307 393 L164 393 L164 592 L476 592 C491 592 510 602 510 618 C510 633 494 640 480 640 L480 640 Z " />
<glyph glyph-name="F" unicode="F" horiz-adv-x="511" d="M164 592 L427 592 C442 592 460 602 460 618 C460 633 445 640 431 640 L134 640 C119 640 101 630 101 614 L101 22 C101 7 116 0 130 0 C145 0 164 10 164 26 L164 345 L303 345 C318 345 337 355 337 371 C337 386 321 393 307 393 L164 393 L164 592 Z " />
<glyph glyph-name="G" unicode="G" horiz-adv-x="609" d="M470 345 L470 214 C470 120 396 43 306 43 C215 43 139 122 139 218 L139 421 C139 508 223 592 310 592 L401 592 C419 592 435 604 435 617 C435 630 421 640 405 640 L306 640 C179 640 75 540 75 417 L75 214 C75 93 176 -5 302 -5 C429 -5 533 95 533 218 L533 371 C533 383 520 393 504 393 L306 393 C288 393 272 381 272 368 C272 355 286 345 302 345 L470 345 Z " />
<glyph glyph-name="H" unicode="H" horiz-adv-x="660" d="M164 26 L164 345 L496 345 L496 22 C496 7 511 0 525 0 C540 0 559 10 559 26 L559 618 C559 633 543 640 529 640 C514 640 496 630 496 614 L496 393 L164 393 L164 618 C164 633 148 640 134 640 C119 640 101 630 101 614 L101 22 C101 7 116 0 130 0 C145 0 164 10 164 26 L164 26 Z " />
<glyph glyph-name="I" unicode="I" horiz-adv-x="265" d="M164 26 L164 618 C164 633 148 640 134 640 C119 640 101 630 101 614 L101 22 C101 7 116 0 130 0 C145 0 164 10 164 26 L164 26 Z " />
<glyph glyph-name="J" unicode="J" horiz-adv-x="413" d="M154 -5 C240 -5 311 62 311 144 L311 618 C311 630 298 640 281 640 C263 640 248 628 248 614 L248 142 C248 85 208 43 156 43 C130 43 107 54 88 76 C78 88 70 92 59 92 C40 92 26 80 26 64 C26 30 91 -5 154 -5 L154 -5 Z " />
<glyph glyph-name="K" unicode="K" horiz-adv-x="635" d="M164 26 L164 335 L267 406 L498 12 C503 4 515 0 524 0 C540 0 559 13 559 29 L318 441 L546 598 C552 603 559 610 559 618 C559 633 543 640 529 640 C521 640 515 637 509 634 L164 397 L164 618 C164 633 148 640 134 640 C119 640 101 630 101 614 L101 22 C101 7 116 0 130 0 C145 0 164 10 164 26 L164 26 Z " />
<glyph glyph-name="L" unicode="L" horiz-adv-x="486" d="M164 47 L164 618 C164 633 148 640 134 640 C119 640 101 630 101 614 L101 22 C101 7 116 0 130 0 L427 0 C442 0 460 10 460 26 C460 41 445 47 431 47 L164 47 Z " />
<glyph glyph-name="M" unicode="M" horiz-adv-x="857" d="M756 25 L756 618 C756 632 741 640 727 640 C716 640 704 636 698 628 L430 269 L159 630 C154 637 145 640 136 640 C120 640 101 630 101 614 L101 22 C101 8 116 0 130 0 C145 0 164 9 164 25 L164 524 L402 207 C407 200 416 197 426 197 C437 197 449 202 455 210 L693 527 L693 22 C693 8 708 0 722 0 C737 0 756 9 756 25 L756 25 Z " />
<glyph glyph-name="N" unicode="N" horiz-adv-x="659" d="M135 640 C120 640 101 630 101 614 L101 22 C101 8 116 0 130 0 C145 0 164 9 164 25 L164 551 L496 260 L496 22 C496 8 511 0 525 0 C540 0 559 9 559 25 L559 618 C559 632 544 640 530 640 C515 640 496 630 496 614 L496 336 L156 633 C151 638 143 640 135 640 L135 640 Z " />
<glyph glyph-name="O" unicode="O" horiz-adv-x="609" d="M533 218 L533 430 C533 551 431 650 306 650 C179 650 75 549 75 427 L75 214 C75 93 177 -5 302 -5 C429 -5 533 96 533 218 L533 218 Z M306 43 C216 43 138 124 138 218 L138 430 C138 524 212 602 302 602 C394 602 470 523 470 427 L470 214 C470 120 396 43 306 43 L306 43 Z " />
<glyph glyph-name="P" unicode="P" horiz-adv-x="560" d="M254 345 L352 345 C439 345 509 412 509 494 C509 575 441 640 357 640 L135 640 C117 640 101 628 101 614 L101 22 C101 10 113 0 130 0 C148 0 164 11 164 25 L164 592 L352 592 C403 592 446 546 446 489 C446 431 401 393 331 393 L264 393 C241 393 224 383 224 368 C224 355 238 345 254 345 L254 345 Z " />
<glyph glyph-name="Q" unicode="Q" horiz-adv-x="608" d="M533 218 L533 430 C533 551 431 650 306 650 C179 650 75 549 75 427 L75 214 C75 93 177 -5 302 -5 C355 -5 404 12 443 42 L477 7 C482 2 491 0 499 0 C514 0 533 9 533 25 C533 30 530 36 526 40 L484 82 C515 120 533 167 533 218 L533 218 Z M306 43 C216 43 138 124 138 218 L138 430 C138 524 212 602 302 602 C394 602 470 523 470 427 L470 214 C470 180 460 149 444 122 L329 237 C324 242 314 245 306 245 C291 245 273 235 273 220 C273 214 276 209 280 205 L406 79 C378 56 343 43 306 43 L306 43 Z " />
<glyph glyph-name="R" unicode="R" horiz-adv-x="585" d="M330 345 L341 345 C439 345 510 407 510 492 C510 575 442 640 357 640 L134 640 C117 640 101 628 101 614 L101 22 C101 10 113 0 130 0 C147 0 164 12 164 26 L164 592 L353 592 C405 592 446 546 446 488 C446 427 398 393 313 393 L281 393 C264 393 253 383 253 370 C253 365 254 360 258 354 L447 13 C452 3 460 0 470 0 C488 0 510 17 510 31 L330 345 Z " />
<glyph glyph-name="S" unicode="S" horiz-adv-x="577" d="M279 -5 C412 -5 502 68 502 181 C502 303 399 339 305 372 C198 410 164 437 164 485 C164 548 220 597 289 597 C333 597 364 591 399 574 C412 568 419 566 426 566 C445 566 460 577 460 590 C460 618 383 645 309 645 C189 645 101 574 101 479 C101 412 144 373 274 327 C356 298 438 270 438 173 C438 92 380 43 284 43 C235 43 196 56 138 95 L136 97 C121 107 113 111 106 111 C92 111 76 98 76 86 C76 78 81 70 95 58 L98 55 C143 16 207 -5 279 -5 L279 -5 Z " />
<glyph glyph-name="T" unicode="T" horiz-adv-x="461" d="M56 592 L194 592 L194 22 C194 7 209 0 223 0 C238 0 257 10 257 26 L257 592 L402 592 C417 592 436 602 436 618 C436 633 420 640 406 640 L232 640 C230 640 229 640 227 640 C225 640 224 640 222 640 L60 640 C45 640 26 630 26 614 C26 599 42 592 56 592 L56 592 Z " />
<glyph glyph-name="U" unicode="U" horiz-adv-x="609" d="M75 614 L75 214 C75 92 176 -5 302 -5 C429 -5 533 95 533 218 L533 618 C533 630 521 640 504 640 C486 640 470 628 470 614 L470 218 C470 121 396 43 305 43 C212 43 138 125 138 229 L138 618 C138 630 126 640 109 640 C91 640 75 628 75 614 L75 614 Z " />
<glyph glyph-name="V" unicode="V" horiz-adv-x="559" d="M280 117 L112 624 C108 635 96 640 86 640 C76 640 52 636 51 620 C51 604 235 37 251 7 C255 -1 264 -5 277 -5 C297 -5 307 5 317 34 L508 623 C508 635 488 640 478 640 C466 640 451 633 447 621 L280 117 Z " />
<glyph glyph-name="W" unicode="W" horiz-adv-x="855" d="M575 112 L458 428 C454 438 441 443 430 443 C417 443 402 436 398 424 L282 112 L112 624 C108 635 96 640 84 640 C69 640 51 629 51 626 C51 619 218 68 249 11 C255 0 263 -5 277 -5 C290 -5 305 1 309 13 L427 330 L546 10 C550 0 562 -5 572 -5 C593 -5 606 11 613 33 L805 624 C805 632 788 640 775 640 C761 640 747 633 743 621 L575 112 Z " />
<glyph glyph-name="X" unicode="X" horiz-adv-x="559" d="M75 17 C75 3 91 -5 105 -5 C117 -5 129 0 135 10 L279 260 L424 7 C429 -1 440 -5 450 -5 C465 -5 484 5 484 21 C484 24 483 27 481 31 L314 322 L481 612 C483 616 484 620 484 623 C484 637 469 645 455 645 C443 645 430 640 424 630 L280 380 L135 633 C130 641 119 645 109 645 C94 645 75 635 75 619 C75 616 76 613 78 609 L245 318 L78 28 C76 24 75 20 75 17 L75 17 Z " />
<glyph glyph-name="Y" unicode="Y" horiz-adv-x="559" d="M281 395 L109 635 C104 642 94 645 85 645 C69 645 51 635 51 619 C51 615 52 611 55 607 L248 337 L248 22 C248 8 263 0 277 0 C292 0 311 9 311 25 L311 340 L503 609 C506 613 508 619 508 623 C508 637 493 645 479 645 C468 645 457 640 451 632 L281 395 Z " />
<glyph glyph-name="Z" unicode="Z" horiz-adv-x="609" d="M157 48 L529 605 C532 609 533 614 533 618 C533 632 518 640 504 640 L109 640 C94 640 75 630 75 614 C75 600 91 592 105 592 L451 592 L80 34 C77 30 75 26 75 22 C75 8 91 0 105 0 L499 0 C514 0 533 9 533 25 C533 39 518 48 504 48 L157 48 Z " />
<glyph glyph-name="bracketleft" unicode="&#x5b;" horiz-adv-x="338" d="M258 689 L135 689 C120 689 101 680 101 664 L101 -27 C101 -41 116 -50 130 -50 L254 -50 C269 -50 287 -40 287 -24 C287 -10 272 -2 258 -2 L164 -2 L164 641 L254 641 C269 641 287 651 287 667 C287 681 272 689 258 689 L258 689 Z " />
<glyph glyph-name="backslash" unicode="&#x5c;" horiz-adv-x="360" d="M299 -50 C316 -50 335 -40 335 -24 L87 674 C83 686 72 689 63 689 C44 689 25 674 25 661 L273 -34 C277 -46 287 -50 299 -50 L299 -50 Z " />
<glyph glyph-name="bracketright" unicode="&#x5d;" horiz-adv-x="338" d="M174 641 L174 -2 L84 -2 C69 -2 51 -11 51 -27 C51 -41 66 -50 80 -50 L203 -50 C218 -50 237 -40 237 -24 L237 667 C237 681 222 689 208 689 L84 689 C69 689 51 680 51 664 C51 650 66 641 80 641 L174 641 Z " />
<glyph glyph-name="asciicircum" unicode="&#x5e;" horiz-adv-x="361" d="M180 571 L278 453 C283 447 293 444 302 444 C317 444 336 454 336 468 C336 474 333 479 330 483 L207 631 C202 637 192 640 183 640 C172 640 161 636 155 629 L32 480 C28 476 26 471 26 466 C26 452 41 444 55 444 C66 444 77 448 83 455 L180 571 Z " />
<glyph glyph-name="underscore" unicode="&#x5f;" horiz-adv-x="510" d="M105 -99 L401 -99 C416 -99 434 -89 434 -73 C434 -59 419 -51 405 -51 L109 -51 C94 -51 75 -61 75 -77 C75 -91 91 -99 105 -99 L105 -99 Z " />
<glyph glyph-name="grave" unicode="&#x60;" horiz-adv-x="189" d="M129 529 C144 529 163 539 163 555 C163 560 160 565 156 569 L82 643 C77 648 68 651 60 651 C45 651 26 641 26 625 C26 620 29 615 33 611 L107 537 C112 532 121 529 129 529 L129 529 Z " />
<glyph glyph-name="a" unicode="a" horiz-adv-x="483" d="M182 244 C109 244 50 188 50 120 C50 54 108 0 178 0 L276 0 C294 0 310 11 310 25 C310 38 297 47 280 47 L200 47 C145 47 113 76 113 125 C113 173 143 196 202 196 L345 196 L345 22 C345 10 357 0 374 0 C392 0 408 12 408 26 L408 296 C408 376 340 440 256 440 L157 440 C139 440 124 429 124 415 C124 402 136 393 153 393 L228 393 C299 393 345 354 345 294 L345 244 L182 244 Z " />
<glyph glyph-name="b" unicode="b" horiz-adv-x="533" d="M395 208 C395 113 339 47 257 47 L163 47 L163 615 C163 627 151 636 134 636 C116 636 100 625 100 611 L100 22 C100 10 113 0 130 0 L253 0 C377 0 458 86 458 217 L458 225 C458 360 378 440 244 440 C214 440 198 431 198 414 C198 399 209 393 235 393 L244 393 C335 393 395 329 395 234 L395 208 Z " />
<glyph glyph-name="c" unicode="c" horiz-adv-x="443" d="M75 164 C75 70 154 -5 246 -5 C302 -5 366 23 366 47 C366 58 354 67 338 67 C329 67 319 63 310 59 C292 50 272 42 251 42 C191 42 138 101 138 168 L138 281 C138 347 188 403 245 403 C264 403 284 396 301 386 C316 379 325 376 334 376 C352 376 368 388 368 399 C368 421 303 450 248 450 C156 450 75 372 75 277 L75 164 Z " />
<glyph glyph-name="d" unicode="d" horiz-adv-x="534" d="M370 611 L370 440 L281 440 C168 440 76 352 76 243 L76 194 C76 83 165 0 282 0 C319 0 335 7 335 25 C335 40 318 47 291 47 C203 47 139 110 139 197 L139 246 C139 319 192 383 260 393 L370 393 L370 22 C370 10 384 0 400 0 C418 0 433 11 433 25 L433 614 C433 626 420 637 404 637 C386 637 370 625 370 611 L370 611 Z " />
<glyph glyph-name="e" unicode="e" horiz-adv-x="507" d="M135 196 L396 196 C410 196 429 205 429 222 L429 281 C429 383 342 450 245 450 C132 450 72 361 72 255 L72 170 C72 67 150 0 250 0 L307 0 C322 0 357 0 357 22 C357 47 322 49 300 49 C199 49 135 81 135 196 L135 196 Z M135 244 C135 320 157 403 251 403 C342 403 366 318 366 244 L135 244 Z " />
<glyph glyph-name="f" unicode="f" horiz-adv-x="409" d="M174 469 L174 440 L134 440 C116 440 100 429 100 415 C100 403 113 392 129 392 L174 392 L174 22 C174 10 187 0 203 0 C221 0 237 11 237 25 L237 392 L351 392 C363 392 374 397 379 405 C382 409 384 413 384 418 C384 430 371 440 355 440 L237 440 L237 450 C237 522 269 594 352 594 C370 594 384 606 384 619 C384 631 371 642 355 642 C256 642 174 564 174 469 L174 469 Z " />
<glyph glyph-name="g" unicode="g" horiz-adv-x="557" d="M281 440 C195 440 125 373 125 291 C125 254 139 220 165 193 C113 185 76 146 76 97 C76 58 100 22 138 7 C114 -17 100 -48 100 -79 C100 -144 157 -197 228 -197 L326 -197 C399 -197 458 -142 458 -74 C458 -8 399 48 330 48 L191 48 C157 48 139 67 139 100 C139 131 157 147 188 147 L278 147 C363 147 433 214 433 295 C433 331 419 365 394 392 L473 392 C491 392 507 404 507 418 C507 430 494 440 478 440 L281 440 Z M233 -149 C196 -149 163 -116 163 -76 C163 -37 194 0 228 0 L326 0 C363 0 395 -36 395 -77 C395 -117 366 -149 330 -149 L233 -149 Z M370 292 C370 238 330 195 280 195 C229 195 188 239 188 294 C188 348 228 392 277 392 C328 392 370 347 370 292 L370 292 Z " />
<glyph glyph-name="h" unicode="h" horiz-adv-x="533" d="M458 26 L458 271 C458 365 379 440 281 440 L163 440 L163 614 C163 626 150 637 134 637 C116 637 100 625 100 611 L100 22 C100 10 114 0 130 0 C148 0 163 12 163 26 L163 393 L267 393 C349 393 395 338 395 238 L395 22 C395 10 408 0 424 0 C442 0 458 12 458 26 L458 26 Z " />
<glyph glyph-name="i" unicode="i" horiz-adv-x="264" d="M163 565 L163 614 C163 626 150 637 134 637 C116 637 100 625 100 611 L100 562 C100 550 114 540 130 540 C148 540 163 551 163 565 L163 565 Z M100 415 L100 22 C100 8 116 0 130 0 C145 0 163 9 163 25 L163 418 C163 432 148 440 134 440 C119 440 100 431 100 415 L100 415 Z " />
<glyph glyph-name="j" unicode="j" horiz-adv-x="311" d="M210 566 L210 615 C210 627 197 638 181 638 C163 638 147 626 147 612 L147 563 C147 551 161 541 177 541 C195 541 210 552 210 566 L210 566 Z M0 -174 C0 -186 13 -197 29 -197 C128 -197 210 -119 210 -24 L210 418 C210 430 197 440 181 440 C163 440 149 429 148 415 L148 -15 C149 -95 105 -144 32 -149 C14 -150 0 -161 0 -174 L0 -174 Z " />
<glyph glyph-name="k" unicode="k" horiz-adv-x="533" d="M163 25 L163 257 L254 302 L396 15 C401 4 409 -1 421 -1 C438 -1 458 16 458 29 C458 32 457 35 455 39 L308 329 L441 396 C451 401 458 410 458 418 C458 430 445 440 429 440 C423 440 417 438 412 436 L163 312 L163 614 C163 626 150 636 134 636 C116 636 100 625 100 611 L100 22 C100 10 114 -1 130 -1 C148 -1 163 11 163 25 L163 25 Z " />
<glyph glyph-name="l" unicode="l" horiz-adv-x="264" d="M100 611 L100 22 C100 8 116 0 130 0 C145 0 163 9 163 25 L163 614 C163 628 148 637 134 637 C119 637 100 627 100 611 L100 611 Z " />
<glyph glyph-name="m" unicode="m" horiz-adv-x="829" d="M163 393 L277 393 C348 393 395 334 395 247 L395 22 C395 9 406 0 423 0 C441 0 458 12 458 26 L458 271 C458 365 379 440 281 440 L134 440 C116 440 100 428 100 414 L100 22 C100 10 113 0 130 0 C148 0 163 12 163 26 L163 393 Z M753 271 C753 365 674 440 576 440 L527 440 C509 440 494 427 493 414 C494 401 505 393 524 393 L561 393 C638 393 689 335 689 249 L689 22 C689 10 702 0 718 0 C736 1 753 13 753 26 L753 271 Z " />
<glyph glyph-name="n" unicode="n" horiz-adv-x="534" d="M163 393 L277 393 C348 393 395 334 395 247 L395 22 C395 9 406 0 423 0 C441 0 458 12 458 26 L458 271 C458 365 379 440 281 440 L134 440 C116 440 100 428 100 414 L100 22 C100 10 113 0 130 0 C148 0 163 12 163 26 L163 393 Z " />
<glyph glyph-name="o" unicode="o" horiz-adv-x="509" d="M139 281 C139 348 190 402 253 402 C318 402 370 345 370 277 L370 164 C370 97 320 43 257 43 C193 43 139 101 139 168 L139 281 Z M76 164 C76 70 154 -5 252 -5 C352 -5 433 73 433 168 L433 281 C433 375 355 450 257 450 C157 450 76 372 76 277 L76 164 Z " />
<glyph glyph-name="p" unicode="p" horiz-adv-x="534" d="M458 222 L458 228 C458 355 378 440 257 440 L134 440 C116 440 100 428 100 414 L100 -175 C100 -187 113 -196 130 -196 C148 -196 163 -185 163 -171 L163 393 L252 393 C334 393 395 325 395 233 L395 199 C395 103 336 47 235 47 C215 47 199 36 198 21 C198 7 212 0 236 0 C373 0 458 84 458 222 L458 222 Z " />
<glyph glyph-name="q" unicode="q" horiz-adv-x="533" d="M432 -171 L432 418 C432 430 420 440 403 440 L280 440 C158 440 75 351 75 221 L75 210 C75 80 158 0 288 0 C318 0 334 9 334 26 C334 41 324 47 297 47 L286 47 C199 47 138 114 138 212 L138 240 C138 328 196 393 276 393 L369 393 L369 -175 C369 -187 382 -196 399 -196 C417 -196 432 -185 432 -171 L432 -171 Z " />
<glyph glyph-name="r" unicode="r" horiz-adv-x="312" d="M76 277 L76 22 C76 10 89 0 105 0 C123 0 139 11 139 25 L139 248 C139 336 182 400 242 400 C269 401 286 412 286 428 C286 440 273 450 257 450 C158 450 76 372 76 277 L76 277 Z " />
<glyph glyph-name="s" unicode="s" horiz-adv-x="431" d="M356 124 C356 181 321 219 174 282 C150 294 129 312 129 340 C129 374 160 399 200 399 C217 399 233 394 264 381 C272 378 282 374 292 374 C307 374 323 386 323 397 C323 421 252 446 200 446 C124 446 65 393 65 332 C65 270 127 244 135 241 C266 187 293 160 293 118 C293 70 258 42 201 42 C170 42 145 51 109 76 L107 78 C95 86 88 89 80 89 C65 89 50 76 50 64 C50 35 136 -5 208 -5 C291 -5 356 46 356 124 L356 124 Z " />
<glyph glyph-name="t" unicode="t" horiz-adv-x="409" d="M158 538 C140 538 124 527 124 513 L124 440 L84 440 C66 440 50 429 50 415 C50 403 63 392 79 392 L124 392 L124 164 C124 70 202 -5 300 -5 C318 -5 334 6 334 20 C334 34 320 43 296 43 C237 43 187 102 187 171 L187 392 L349 392 C367 392 383 404 383 418 C383 430 370 440 354 440 L187 440 L187 516 C187 528 174 538 158 538 L158 538 Z " />
<glyph glyph-name="u" unicode="u" horiz-adv-x="534" d="M76 415 L76 169 C76 75 154 0 252 0 L400 0 C418 0 433 11 433 25 L433 418 C433 430 420 440 404 440 C386 440 370 429 370 415 L370 48 L257 48 C188 48 139 108 139 193 L139 418 C138 431 127 440 111 440 C93 440 76 429 76 415 L76 415 Z " />
<glyph glyph-name="v" unicode="v" horiz-adv-x="458" d="M227 0 C243 0 252 6 255 11 C267 32 408 417 408 418 C408 432 393 440 379 440 C366 440 350 434 346 422 L230 111 L112 425 C108 435 95 440 84 440 C69 440 50 431 50 415 C50 414 191 30 202 10 C205 5 213 0 227 0 L227 0 Z " />
<glyph glyph-name="w" unicode="w" horiz-adv-x="704" d="M492 105 L381 329 C376 338 365 342 354 342 C341 342 328 336 323 326 L212 104 L112 424 C108 435 96 440 84 440 C69 440 50 429 50 423 C50 410 166 36 175 14 C179 5 189 0 202 0 C215 0 228 6 233 16 L351 251 L470 13 C475 4 486 0 497 0 C512 0 525 7 533 26 L653 413 C653 432 638 440 624 440 C610 440 595 434 591 421 L492 105 Z " />
<glyph glyph-name="x" unicode="x" horiz-adv-x="460" d="M109 440 C94 440 76 430 76 414 C76 410 78 407 79 404 L195 218 C181 195 76 36 76 22 C76 7 92 0 105 0 C116 0 129 4 135 14 L229 164 L324 12 C329 3 341 0 351 0 C366 0 384 10 384 26 C384 30 382 33 381 36 L265 222 C279 245 384 404 384 418 C384 433 368 440 355 440 C344 440 331 436 325 426 L231 276 L136 428 C131 437 119 440 109 440 L109 440 Z " />
<glyph glyph-name="y" unicode="y" horiz-adv-x="483" d="M109 445 C90 445 75 433 75 419 C87 386 192 93 221 22 L199 -37 C167 -122 146 -143 100 -147 C63 -151 50 -161 50 -174 C50 -187 62 -197 94 -197 C153 -197 211 -160 237 -102 C262 -46 432 415 432 427 C432 432 415 440 402 440 C388 440 375 433 371 422 L254 111 L133 436 C130 442 120 445 109 445 L109 445 Z " />
<glyph glyph-name="z" unicode="z" horiz-adv-x="509" d="M160 48 L428 405 C431 409 433 414 433 418 C433 432 418 440 404 440 L110 440 C95 440 76 431 76 415 C76 401 91 392 105 392 L349 392 L81 35 C78 31 76 26 76 22 C76 8 91 0 105 0 L400 0 C415 0 433 9 433 25 C433 39 418 48 404 48 L160 48 Z " />
<glyph glyph-name="braceleft" unicode="&#x7b;" horiz-adv-x="411" d="M174 425 L83 334 C78 329 75 323 75 318 C75 313 77 309 82 304 L174 212 L174 96 C174 15 243 -50 327 -50 C345 -50 360 -38 360 -24 C360 -11 349 -3 329 -2 C281 2 238 46 238 88 L238 222 C238 229 234 233 231 236 L146 321 L229 404 C234 409 237 415 237 421 L237 517 C237 590 270 641 321 641 C343 641 360 651 360 667 C360 681 347 689 320 689 C244 689 174 625 174 554 L174 425 Z " />
<glyph glyph-name="bar" unicode="&#x7c;" horiz-adv-x="265" d="M101 664 L101 -27 C101 -41 116 -50 130 -50 C145 -50 164 -40 164 -24 L164 667 C164 681 149 689 135 689 C120 689 101 680 101 664 L101 664 Z " />
<glyph glyph-name="braceright" unicode="&#x7d;" horiz-adv-x="411" d="M265 319 L182 236 C178 232 174 224 174 219 L174 73 C174 33 136 -2 90 -2 C66 -2 50 -12 50 -27 C50 -40 63 -49 80 -49 C166 -49 237 9 237 80 L237 214 L328 305 C332 309 336 317 336 322 C336 326 333 333 329 337 L237 428 L237 568 C237 634 168 689 84 689 C66 689 50 677 50 663 C50 649 63 642 82 642 C127 642 174 600 174 562 L174 417 C174 412 177 406 181 402 L265 319 Z " />
<glyph glyph-name="asciitilde" unicode="&#x7e;" horiz-adv-x="411" d="M258 270 C247 270 239 279 228 289 C204 311 186 320 161 320 C115 320 75 288 75 252 C75 233 87 222 108 222 C127 222 135 230 139 252 C141 266 145 272 151 272 C159 272 166 267 181 253 C196 239 214 222 250 222 C296 222 335 253 335 289 C335 308 324 319 303 319 C287 319 275 311 273 298 C269 275 265 270 258 270 L258 270 Z " />
<glyph glyph-name="uni00A0" unicode="&#xa0;" horiz-adv-x="250" />
<glyph glyph-name="exclamdown" unicode="&#xa1;" horiz-adv-x="214" d="M75 417 L75 343 C75 329 91 321 105 321 C120 321 138 330 138 346 L138 420 C138 434 123 443 109 443 C94 443 75 433 75 417 L75 417 Z M75 219 L75 -175 C75 -189 91 -198 105 -198 C120 -198 138 -188 138 -172 L138 223 C138 237 123 245 109 245 C94 245 75 235 75 219 L75 219 Z " />
<glyph glyph-name="cent" unicode="&#xa2;" horiz-adv-x="445" d="M223 516 L223 442 C154 420 101 354 101 277 L101 164 C101 87 154 23 223 2 L223 -77 C223 -91 239 -99 253 -99 C268 -99 286 -89 286 -73 L286 -4 C338 0 392 25 392 47 C392 58 380 67 364 67 C355 67 345 63 336 59 C318 50 298 42 277 42 C217 42 164 101 164 168 L164 281 C164 347 214 403 271 403 C290 403 310 396 327 386 C342 379 351 376 360 376 C378 376 394 388 394 399 C394 419 338 446 286 450 L286 519 C286 533 271 541 257 541 C242 541 223 532 223 516 L223 516 Z " />
<glyph glyph-name="sterling" unicode="&#xa3;" horiz-adv-x="560" d="M298 541 C206 541 124 463 124 367 L124 344 L84 344 C66 344 50 332 50 318 C50 306 63 296 80 296 L124 296 L124 47 L84 47 C66 47 50 36 50 22 C50 10 63 0 80 0 L450 0 C468 0 484 12 484 26 C484 38 471 47 454 47 L188 47 L188 296 L302 296 C320 296 336 308 336 322 C336 334 323 344 306 344 L188 344 L188 351 C188 436 232 494 298 494 C322 494 344 486 376 466 C385 460 392 456 402 456 C419 456 435 468 435 480 C435 506 359 541 298 541 L298 541 Z " />
<glyph glyph-name="currency" unicode="&#xa4;" horiz-adv-x="510" d="M257 393 C232 393 209 387 190 376 L131 435 C126 440 117 443 109 443 C94 443 75 433 75 417 C75 412 78 406 82 402 L147 337 C133 316 125 292 125 267 C125 242 133 219 147 200 L83 137 C78 132 75 126 75 121 C75 107 91 98 105 98 C115 98 124 102 130 108 L187 165 C206 154 229 148 253 148 C278 148 301 154 320 165 L378 106 C383 101 393 98 401 98 C416 98 434 108 434 123 C434 129 431 135 427 139 L363 204 C377 225 385 249 385 274 C385 299 377 322 363 341 L427 404 C432 409 434 415 434 420 C434 434 419 443 405 443 C395 443 385 439 379 433 L322 376 C303 387 281 393 257 393 L257 393 Z M322 268 C322 230 294 196 257 196 C218 196 188 232 188 272 C188 310 216 345 253 345 C293 345 322 308 322 268 L322 268 Z " />
<glyph glyph-name="yen" unicode="&#xa5;" horiz-adv-x="461" d="M262 25 L262 227 L348 227 C363 227 382 237 382 253 C382 267 366 275 352 275 L262 275 L262 325 L348 325 C363 325 382 335 382 351 C382 365 366 373 352 373 L262 373 L262 387 L377 503 C382 508 385 514 385 519 C385 533 370 541 356 541 C346 541 336 538 330 532 L232 433 L131 534 C126 539 117 541 109 541 C94 541 75 532 75 516 C75 511 78 505 82 501 L199 385 L199 373 L108 373 C93 373 74 363 74 347 C74 333 90 325 104 325 L199 325 L199 275 L108 275 C93 275 74 266 74 250 C74 236 90 227 104 227 L199 227 L199 22 C199 8 214 0 228 0 C243 0 262 9 262 25 L262 25 Z " />
<glyph glyph-name="brokenbar" unicode="&#xa6;" horiz-adv-x="265" d="M101 614 L101 417 C101 403 116 395 130 395 C145 395 164 404 164 420 L164 618 C164 632 149 640 135 640 C120 640 101 630 101 614 L101 614 Z M101 219 L101 22 C101 8 116 0 130 0 C145 0 164 9 164 25 L164 223 C164 237 149 245 135 245 C120 245 101 235 101 219 L101 219 Z " />
<glyph glyph-name="section" unicode="&#xa7;" horiz-adv-x="411" d="M138 526 C138 573 167 592 235 592 L252 592 C297 592 311 598 311 615 C311 630 299 640 282 640 L208 640 C135 640 75 585 75 516 C75 477 94 441 128 418 C94 394 75 355 75 315 C75 253 124 204 188 198 C240 194 273 162 273 118 C273 76 244 43 208 43 C197 43 186 46 167 58 C158 64 152 67 143 67 C125 67 109 55 109 43 C109 21 163 -5 209 -5 C276 -5 336 51 336 120 C336 160 316 197 281 221 C315 245 336 284 336 325 C336 387 286 436 220 442 C167 446 138 477 138 526 L138 526 Z M273 318 C273 278 244 245 208 245 C170 245 138 281 138 322 C138 362 167 395 203 395 C241 395 273 360 273 318 L273 318 Z " />
<glyph glyph-name="dieresis" unicode="&#xa8;" horiz-adv-x="213" d="M0 630 L0 556 C0 541 16 534 30 534 C45 534 63 544 63 560 L63 634 C63 649 47 655 34 655 C19 655 0 646 0 630 L0 630 Z M149 630 L149 556 C149 541 165 534 179 534 C194 534 212 544 212 560 L212 634 C212 649 198 655 184 655 C169 655 149 646 149 630 L149 630 Z " />
<glyph glyph-name="copyright" unicode="&#xa9;" horiz-adv-x="609" d="M470 219 C470 125 396 48 306 48 C214 48 138 127 138 223 C138 317 212 395 302 395 C394 395 470 315 470 219 L470 219 Z M533 223 C533 344 431 443 306 443 C179 443 75 341 75 219 C75 98 177 0 302 0 C429 0 533 101 533 223 L533 223 Z M301 356 C246 356 199 308 199 256 L199 182 C199 131 242 86 296 86 C337 86 391 113 391 137 C391 149 378 159 360 159 C350 159 343 155 335 148 C325 139 316 134 306 134 C283 134 262 157 262 186 L262 260 C262 287 281 308 304 308 C313 308 320 305 333 294 C340 288 347 283 357 283 C375 283 391 295 391 309 C391 331 341 356 301 356 L301 356 Z " />
<glyph glyph-name="ordfeminine" unicode="&#xaa;" horiz-adv-x="311" d="M227 294 C245 294 261 305 261 319 L261 466 C261 506 226 538 182 538 L121 538 C102 538 87 526 87 510 C87 491 102 491 121 491 L175 491 C188 491 197 482 197 470 L197 440 L133 440 C85 440 50 410 50 367 C50 326 84 295 129 295 L153 295 C171 295 187 308 187 323 C187 338 177 342 150 342 C123 342 113 349 113 367 C113 386 124 393 155 393 L197 393 L197 316 C197 303 211 294 227 294 L227 294 Z " />
<glyph glyph-name="guillemotleft" unicode="&#xab;" horiz-adv-x="461" d="M75 269 C75 264 78 258 82 254 L206 131 C211 126 220 123 228 123 C243 123 262 133 262 149 C262 154 259 159 255 163 L146 272 L254 380 C259 385 262 391 262 396 C262 410 246 418 232 418 C222 418 212 414 206 408 L83 285 C78 280 75 274 75 269 L75 269 Z M250 269 C250 264 253 258 257 254 L381 131 C386 126 395 123 403 123 C418 123 437 133 437 149 C437 154 434 159 430 163 L321 272 L429 380 C434 385 437 391 437 396 C437 410 421 418 407 418 C397 418 387 414 381 408 L258 285 C253 280 250 274 250 269 L250 269 Z " />
<glyph glyph-name="logicalnot" unicode="&#xac;" horiz-adv-x="411" d="M273 247 L273 190 C273 176 288 168 302 168 C317 168 336 177 336 193 L336 272 C336 286 320 295 306 295 L109 295 C94 295 75 285 75 269 C75 255 91 247 105 247 L273 247 Z " />
<glyph glyph-name="registered" unicode="&#xae;" horiz-adv-x="609" d="M533 421 C533 542 431 640 306 640 C179 640 75 539 75 417 C75 296 177 197 302 197 C429 197 533 299 533 421 L533 421 Z M470 417 C470 323 396 245 306 245 C214 245 139 325 139 421 C139 515 212 592 302 592 C394 592 470 513 470 417 L470 417 Z M267 494 L331 494 C343 494 351 480 351 463 C351 448 342 442 324 442 L311 442 C287 442 277 436 277 421 C277 414 280 406 286 399 L356 306 C360 300 370 296 381 296 C399 296 415 307 415 320 C415 326 411 334 402 346 L360 399 C393 411 415 439 415 470 C415 510 380 541 336 541 L237 541 C219 541 203 529 203 515 L203 318 C203 306 216 296 233 296 C251 296 267 308 267 322 L267 494 Z " />
<glyph glyph-name="macron" unicode="&#xaf;" horiz-adv-x="263" d="M55 543 L203 543 C218 543 237 553 237 569 C237 583 221 590 207 590 L59 590 C45 590 26 580 26 565 C26 550 42 543 55 543 L55 543 Z " />
<glyph glyph-name="degree" unicode="&#xb0;" horiz-adv-x="213" d="M26 466 C26 426 61 395 105 395 C151 395 188 429 188 470 C188 510 153 541 109 541 C63 541 26 507 26 466 L26 466 Z M109 443 C98 443 89 455 89 470 C89 483 96 493 106 493 C116 492 124 481 124 466 C123 453 118 443 109 443 L109 443 Z " />
<glyph glyph-name="plusminus" unicode="&#xb1;" horiz-adv-x="411" d="M105 247 L174 247 L174 170 C174 156 189 148 203 148 C218 148 237 158 237 174 L237 247 L302 247 C317 247 336 256 336 272 C336 286 320 294 306 294 L237 294 L237 371 C237 385 222 393 208 393 C193 393 174 383 174 367 L174 294 L109 294 C94 294 75 285 75 269 C75 255 91 247 105 247 L105 247 Z M111 -3 L306 -3 C324 -3 347 8 347 26 C347 43 328 52 311 52 L116 52 C98 52 75 41 75 23 C75 6 94 -3 111 -3 L111 -3 Z " />
<glyph glyph-name="twosuperior" unicode="&#xb2;" horiz-adv-x="312" d="M154 597 C178 597 199 574 199 547 C199 531 191 515 165 479 L56 331 C53 326 51 322 51 318 C51 306 64 296 80 296 L228 296 C246 296 262 308 262 322 C262 334 248 344 232 344 L134 344 L242 491 C255 509 262 530 262 549 C262 602 216 645 158 645 C115 645 69 620 69 596 C69 583 82 572 99 572 C110 572 116 575 133 589 C135 591 142 597 154 597 L154 597 Z " />
<glyph glyph-name="threesuperior" unicode="&#xb3;" horiz-adv-x="334" d="M165 592 L154 581 C125 553 122 549 122 542 C122 529 129 522 150 519 C193 512 220 477 220 425 C220 374 195 339 157 339 C144 339 131 344 120 352 C102 366 95 368 85 368 C67 368 52 356 52 344 C52 321 109 291 159 291 C230 291 283 349 283 435 C283 494 256 535 205 556 L243 595 C254 606 259 614 259 620 C259 631 245 640 229 640 L106 640 C88 640 72 628 72 614 C72 601 86 592 106 592 L165 592 Z " />
<glyph glyph-name="acute" unicode="&#xb4;" horiz-adv-x="189" d="M26 548 C26 534 41 526 55 526 C65 526 75 530 81 536 L155 610 C160 615 163 621 163 626 C163 640 148 648 134 648 C124 648 114 644 108 638 L34 564 C29 559 26 553 26 548 L26 548 Z " />
<glyph glyph-name="uni00B5" unicode="&#xb5;" horiz-adv-x="532" d="M76 415 L76 222 C75 220 75 218 75 216 L75 -177 C75 -191 91 -199 105 -199 C120 -199 138 -190 138 -174 L138 40 C169 15 208 0 252 0 L400 0 C418 0 433 11 433 25 L433 418 C433 430 420 440 404 440 C386 440 370 429 370 415 L370 48 L257 48 C188 48 139 108 139 193 L139 418 C138 431 127 440 111 440 C93 440 76 429 76 415 L76 415 Z " />
<glyph glyph-name="paragraph" unicode="&#xb6;" horiz-adv-x="586" d="M484 25 L484 617 C484 630 471 640 455 640 L233 640 C146 640 75 573 75 490 C75 410 143 345 228 345 L238 345 C270 345 287 354 287 371 C287 385 276 393 258 393 L230 393 C181 393 139 441 139 496 C139 549 178 592 228 592 L322 592 L322 22 C322 10 335 0 352 0 C370 0 385 12 385 26 L385 592 L421 592 L421 22 C421 9 433 -1 450 -1 C468 -1 484 11 484 25 L484 25 Z " />
<glyph glyph-name="periodcentered" unicode="&#xb7;" horiz-adv-x="214" d="M108 319 C80 319 51 299 51 269 C51 241 77 222 105 222 C134 222 163 243 163 270 C163 295 138 319 108 319 L108 319 Z " />
<glyph glyph-name="cedilla" unicode="&#xb8;" horiz-adv-x="242" d="M112 -148 C169 -148 216 -101 216 -48 C216 5 170 47 113 47 L88 47 C70 47 54 36 54 21 C54 7 66 0 92 0 L101 0 C130 0 152 -22 152 -51 C152 -79 134 -101 111 -101 C103 -101 98 -98 91 -92 C77 -81 70 -79 62 -79 C42 -79 27 -91 27 -104 C27 -126 73 -148 112 -148 L112 -148 Z " />
<glyph glyph-name="onesuperior" unicode="&#xb9;" horiz-adv-x="238" d="M125 592 L125 318 C125 304 140 296 154 296 C169 296 188 306 188 322 L188 618 C188 632 172 640 158 640 L84 640 C69 640 51 630 51 614 C51 600 66 592 80 592 L125 592 Z " />
<glyph glyph-name="ordmasculine" unicode="&#xba;" horiz-adv-x="311" d="M198 385 C198 359 180 337 158 337 C134 337 113 361 113 389 L113 546 C113 572 131 594 153 594 C177 594 198 570 198 542 L198 385 Z M260 546 C260 599 215 642 158 642 C99 642 50 596 50 542 L50 385 C50 332 96 289 153 289 C212 289 260 335 260 389 L260 546 Z " />
<glyph glyph-name="guillemotright" unicode="&#xbb;" horiz-adv-x="460" d="M191 269 L83 161 C78 156 75 150 75 145 C75 131 91 123 105 123 C115 123 124 127 130 133 L254 256 C259 261 262 267 262 272 C262 277 259 283 255 287 L131 410 C126 415 117 418 109 418 C94 418 75 408 75 392 C75 387 78 382 82 378 L191 269 Z M366 269 L258 161 C253 156 250 150 250 145 C250 131 266 123 280 123 C290 123 299 127 305 133 L429 256 C434 261 437 267 437 272 C437 277 434 283 430 287 L306 410 C301 415 292 418 284 418 C269 418 250 408 250 392 C250 387 253 382 257 378 L366 269 Z " />
<glyph glyph-name="onequarter" unicode="&#xbc;" horiz-adv-x="608" d="M470 670 C470 678 449 688 432 688 C415 688 408 681 405 677 C403 676 403 674 404 672 C372 606 150 -25 150 -33 C150 -37 170 -49 188 -49 C207 -49 217 -39 224 -29 L470 670 Z M346 73 C347 60 363 49 376 49 L495 49 L495 22 C495 8 510 0 524 0 C539 0 558 9 558 25 L558 124 C558 138 543 146 529 146 C514 146 495 137 495 121 L495 97 L417 97 L476 281 C480 295 484 305 484 315 C484 337 468 344 453 344 C438 344 427 336 423 326 C415 307 346 85 346 73 L346 73 Z M124 584 L124 318 C124 301 143 292 160 292 C178 292 200 303 200 321 L200 614 C200 631 181 640 164 640 L91 640 C73 640 51 628 51 610 C51 593 70 584 87 584 L124 584 Z " />
<glyph glyph-name="onehalf" unicode="&#xbd;" horiz-adv-x="632" d="M465 681 C465 689 443 699 424 699 C411 699 400 694 400 688 C387 659 144 -17 144 -23 C144 -28 171 -38 184 -38 C198 -38 210 -31 218 -18 L465 681 Z M481 301 C505 301 526 278 526 251 C526 235 518 219 492 183 L383 35 C380 30 378 26 378 22 C378 10 391 0 407 0 L555 0 C573 0 589 12 589 26 C589 38 575 48 559 48 L461 48 L569 195 C582 213 589 234 589 253 C589 306 543 349 485 349 C442 349 396 324 396 300 C396 287 409 276 426 276 C437 276 443 279 460 293 C462 295 469 301 481 301 L481 301 Z M125 592 L125 318 C125 304 140 296 154 296 C169 296 188 306 188 322 L188 618 C188 632 172 640 158 640 L84 640 C69 640 51 630 51 614 C51 600 66 592 80 592 L125 592 Z " />
<glyph glyph-name="threequarters" unicode="&#xbe;" horiz-adv-x="638" d="M512 683 C512 691 490 701 471 701 C458 701 447 696 447 690 C434 661 191 -15 191 -21 C191 -26 218 -36 231 -36 C245 -36 257 -29 265 -16 L512 683 Z M377 73 C377 58 392 50 406 50 L525 50 L525 22 C525 7 540 0 554 0 C569 0 589 10 589 26 L589 125 C589 139 572 146 558 146 C543 146 525 137 525 121 L525 97 L447 97 L508 296 C512 307 514 314 514 320 C514 337 498 344 483 344 C468 344 456 337 453 326 L383 104 C379 88 377 78 377 73 L377 73 Z M165 592 L154 581 C125 553 122 549 122 542 C122 529 129 522 150 519 C193 512 220 477 220 425 C220 374 195 339 157 339 C144 339 131 344 120 352 C102 366 95 368 85 368 C67 368 52 356 52 344 C52 321 109 291 159 291 C230 291 283 349 283 435 C283 494 256 535 205 556 L243 595 C254 606 259 614 259 620 C259 631 245 640 229 640 L106 640 C88 640 72 628 72 614 C72 601 86 592 106 592 L165 592 Z " />
<glyph glyph-name="questiondown" unicode="&#xbf;" horiz-adv-x="404" d="M184 -142 C155 -142 136 -129 123 -118 C112 -110 102 -103 86 -103 C69 -103 50 -112 50 -129 C50 -136 54 -142 68 -154 L70 -156 C102 -184 143 -198 188 -198 C282 -198 362 -126 362 -33 C362 8 347 47 317 79 C269 130 230 172 226 247 C224 273 222 296 184 296 C167 296 147 287 147 270 C147 189 182 128 238 68 C278 23 286 7 286 -30 C286 -88 239 -139 184 -142 L184 -142 Z M154 355 C154 341 170 333 184 333 C199 333 217 342 217 358 L217 398 C217 412 202 420 188 420 C173 420 154 410 154 394 L154 355 Z " />
<glyph glyph-name="Agrave" unicode="&#xc0;" horiz-adv-x="559" d="M51 16 C51 8 67 0 80 0 C94 0 110 10 114 20 L139 98 L419 98 L441 23 C445 9 457 0 472 0 C489 0 508 14 508 24 C508 49 351 515 316 618 C308 642 298 650 280 650 C262 650 253 640 244 615 C177 425 51 32 51 16 L51 16 Z M279 527 L404 146 L154 146 L279 527 Z M271 710 C286 710 305 720 305 736 C305 741 302 746 298 750 L224 824 C219 829 210 832 202 832 C187 832 168 822 168 806 C168 801 171 796 175 792 L249 718 C254 713 263 710 271 710 L271 710 Z " />
<glyph glyph-name="Aacute" unicode="&#xc1;" horiz-adv-x="559" d="M51 16 C51 8 67 0 80 0 C94 0 110 10 114 20 L139 98 L419 98 L441 23 C445 9 457 0 472 0 C489 0 508 14 508 24 C508 49 351 515 316 618 C308 642 298 650 280 650 C262 650 253 640 244 615 C177 425 51 32 51 16 L51 16 Z M279 527 L404 146 L154 146 L279 527 Z M258 747 C258 733 273 725 287 725 C297 725 307 729 313 735 L387 809 C392 814 395 820 395 825 C395 839 380 847 366 847 C356 847 346 843 340 837 L266 763 C261 758 258 752 258 747 L258 747 Z " />
<glyph glyph-name="Acircumflex" unicode="&#xc2;" horiz-adv-x="559" d="M51 16 C51 8 67 0 80 0 C94 0 110 10 114 20 L139 98 L419 98 L441 23 C445 9 457 0 472 0 C489 0 508 14 508 24 C508 49 351 515 316 618 C308 642 298 650 280 650 C262 650 253 640 244 615 C177 425 51 32 51 16 L51 16 Z M279 527 L404 146 L154 146 L279 527 Z M276 789 L327 738 C332 733 341 730 349 730 C364 730 383 740 383 756 C383 761 380 767 376 771 L302 845 C297 850 288 852 280 852 C270 852 260 849 254 843 L180 769 C175 764 172 758 172 753 C172 739 187 730 201 730 C211 730 221 734 227 740 L276 789 Z " />
<glyph glyph-name="Atilde" unicode="&#xc3;" horiz-adv-x="559" d="M51 16 C51 8 67 0 80 0 C94 0 110 10 114 20 L139 98 L419 98 L441 23 C445 9 457 0 472 0 C489 0 508 14 508 24 C508 49 351 515 316 618 C308 642 298 650 280 650 C262 650 253 640 244 615 C177 425 51 32 51 16 L51 16 Z M279 527 L404 146 L154 146 L279 527 Z M330 792 C319 792 311 801 300 811 C276 833 258 842 233 842 C187 842 147 810 147 774 C147 755 159 744 180 744 C199 744 207 752 211 774 C213 788 217 794 223 794 C231 794 238 789 253 775 C268 761 286 744 322 744 C368 744 407 775 407 811 C407 830 396 841 375 841 C359 841 347 833 345 820 C341 797 337 792 330 792 L330 792 Z " />
<glyph glyph-name="Adieresis" unicode="&#xc4;" horiz-adv-x="559" d="M51 16 C51 8 67 0 80 0 C94 0 110 10 114 20 L139 98 L419 98 L441 23 C445 9 457 0 472 0 C489 0 508 14 508 24 C508 49 351 515 316 618 C308 642 298 650 280 650 C262 650 253 640 244 615 C177 425 51 32 51 16 L51 16 Z M176 832 L176 758 C176 743 192 736 206 736 C221 736 239 746 239 762 L239 836 C239 851 223 857 210 857 C195 857 176 848 176 832 L176 832 Z M325 832 L325 758 C325 743 341 736 355 736 C370 736 388 746 388 762 L388 836 C388 851 374 857 360 857 C345 857 325 848 325 832 L325 832 Z M279 527 L404 146 L154 146 L279 527 Z " />
<glyph glyph-name="Aring" unicode="&#xc5;" horiz-adv-x="559" d="M392 720 C392 775 343 816 288 816 C231 816 181 773 181 716 C181 673 210 639 248 626 C247 623 245 619 244 615 C177 425 51 32 51 16 C51 8 67 0 80 0 C94 0 110 10 114 20 L139 98 L419 98 L441 23 C445 9 457 0 472 0 C489 0 508 14 508 24 C508 49 351 515 316 618 C315 620 315 622 314 624 C358 636 392 673 392 720 L392 720 Z M279 527 L404 146 L154 146 L279 527 Z M329 716 C329 691 312 667 288 667 C263 667 244 693 244 720 C244 744 261 768 284 768 C310 768 329 743 329 716 L329 716 Z " />
<glyph glyph-name="AE" unicode="&#xc6;" horiz-adv-x="781" d="M25 22 C25 10 39 0 55 0 C69 0 81 6 86 16 L127 98 L415 98 L421 69 C428 30 464 1 507 1 L696 1 C714 1 730 12 730 26 C730 38 718 47 701 47 L521 47 C498 47 485 68 475 122 L434 346 L621 346 C639 346 655 357 655 371 C655 383 642 394 626 394 L425 394 L389 592 L696 592 C714 592 730 603 730 617 C730 629 717 639 701 639 L354 639 C339 639 326 632 322 622 L28 32 C26 29 25 25 25 22 L25 22 Z M151 146 L337 520 L406 146 L151 146 Z " />
<glyph glyph-name="Ccedilla" unicode="&#xc7;" horiz-adv-x="536" d="M316 -153 C373 -153 420 -106 420 -53 C420 -28 410 -6 393 11 C431 24 459 44 459 63 C459 76 446 87 430 87 C418 87 411 82 402 75 L400 74 C368 51 345 43 313 43 C216 43 139 120 139 218 L139 430 C139 526 212 602 306 602 C339 602 366 592 401 568 C413 560 418 559 426 559 C444 559 459 571 459 585 C459 617 379 650 306 650 C178 650 75 548 75 426 L75 214 C75 100 166 4 284 -4 C287 -5 291 -5 296 -5 L305 -5 C334 -5 356 -27 356 -56 C356 -84 338 -106 315 -106 C307 -106 302 -103 295 -97 C281 -86 274 -84 266 -84 C246 -84 231 -96 231 -109 C231 -131 277 -153 316 -153 L316 -153 Z " />
<glyph glyph-name="Egrave" unicode="&#xc8;" horiz-adv-x="584" d="M480 640 L134 640 C119 640 101 630 101 614 L101 71 C101 29 138 0 180 0 L476 0 C491 0 510 10 510 26 C510 41 494 47 480 47 L194 47 C174 47 164 55 164 75 L164 346 L303 346 C318 346 337 355 337 371 C337 386 321 393 307 393 L164 393 L164 592 L476 592 C491 592 510 602 510 618 C510 633 494 640 480 640 L480 640 Z M344 710 C359 710 378 720 378 736 C378 741 375 746 371 750 L297 824 C292 829 283 832 275 832 C260 832 241 822 241 806 C241 801 244 796 248 792 L322 718 C327 713 336 710 344 710 L344 710 Z " />
<glyph glyph-name="Eacute" unicode="&#xc9;" horiz-adv-x="585" d="M480 640 L134 640 C119 640 101 630 101 614 L101 71 C101 29 138 0 180 0 L476 0 C491 0 510 10 510 26 C510 41 494 47 480 47 L194 47 C174 47 164 55 164 75 L164 346 L303 346 C318 346 337 355 337 371 C337 386 321 393 307 393 L164 393 L164 592 L476 592 C491 592 510 602 510 618 C510 633 494 640 480 640 L480 640 Z M284 747 C284 733 299 725 313 725 C323 725 333 729 339 735 L413 809 C418 814 421 820 421 825 C421 839 406 847 392 847 C382 847 372 843 366 837 L292 763 C287 758 284 752 284 747 L284 747 Z " />
<glyph glyph-name="Ecircumflex" unicode="&#xca;" horiz-adv-x="585" d="M480 640 L134 640 C119 640 101 630 101 614 L101 71 C101 29 138 0 180 0 L476 0 C491 0 510 10 510 26 C510 41 494 47 480 47 L194 47 C174 47 164 55 164 75 L164 346 L303 346 C318 346 337 355 337 371 C337 386 321 393 307 393 L164 393 L164 592 L476 592 C491 592 510 602 510 618 C510 633 494 640 480 640 L480 640 Z M302 789 L353 738 C358 733 367 730 375 730 C390 730 409 740 409 756 C409 761 406 767 402 771 L328 845 C323 850 314 852 306 852 C296 852 286 849 280 843 L206 769 C201 764 198 758 198 753 C198 739 213 730 227 730 C237 730 247 734 253 740 L302 789 Z " />
<glyph glyph-name="Edieresis" unicode="&#xcb;" horiz-adv-x="585" d="M480 640 L134 640 C119 640 101 630 101 614 L101 71 C101 29 138 0 180 0 L476 0 C491 0 510 10 510 26 C510 41 494 47 480 47 L194 47 C174 47 164 55 164 75 L164 346 L303 346 C318 346 337 355 337 371 C337 386 321 393 307 393 L164 393 L164 592 L476 592 C491 592 510 602 510 618 C510 633 494 640 480 640 L480 640 Z M202 832 L202 758 C202 743 218 736 232 736 C247 736 265 746 265 762 L265 836 C265 851 249 857 236 857 C221 857 202 848 202 832 L202 832 Z M351 832 L351 758 C351 743 367 736 381 736 C396 736 414 746 414 762 L414 836 C414 851 400 857 386 857 C371 857 351 848 351 832 L351 832 Z " />
<glyph glyph-name="Igrave" unicode="&#xcc;" horiz-adv-x="265" d="M164 26 L164 618 C164 633 148 640 134 640 C119 640 101 630 101 614 L101 22 C101 7 116 0 130 0 C145 0 164 10 164 26 L164 26 Z M129 740 C144 740 163 750 163 766 C163 771 160 776 156 780 L82 854 C77 859 68 862 60 862 C45 862 26 852 26 836 C26 831 29 826 33 822 L107 748 C112 743 121 740 129 740 L129 740 Z " />
<glyph glyph-name="Iacute" unicode="&#xcd;" horiz-adv-x="265" d="M164 26 L164 618 C164 633 148 640 134 640 C119 640 101 630 101 614 L101 22 C101 7 116 0 130 0 C145 0 164 10 164 26 L164 26 Z M109 747 C109 733 124 725 138 725 C148 725 158 729 164 735 L238 809 C243 814 246 820 246 825 C246 839 231 847 217 847 C207 847 197 843 191 837 L117 763 C112 758 109 752 109 747 L109 747 Z " />
<glyph glyph-name="Icircumflex" unicode="&#xce;" horiz-adv-x="265" d="M164 26 L164 618 C164 633 148 640 134 640 C119 640 101 630 101 614 L101 22 C101 7 116 0 130 0 C145 0 164 10 164 26 L164 26 Z M127 789 L178 738 C183 733 192 730 200 730 C215 730 234 740 234 756 C234 761 231 767 227 771 L153 845 C148 850 139 852 131 852 C121 852 111 849 105 843 L31 769 C26 764 23 758 23 753 C23 739 38 730 52 730 C62 730 72 734 78 740 L127 789 Z " />
<glyph glyph-name="Idieresis" unicode="&#xcf;" horiz-adv-x="265" d="M164 26 L164 618 C164 633 148 640 134 640 C119 640 101 630 101 614 L101 22 C101 7 116 0 130 0 C145 0 164 10 164 26 L164 26 Z M27 832 L27 758 C27 743 43 736 57 736 C72 736 90 746 90 762 L90 836 C90 851 74 857 61 857 C46 857 27 848 27 832 L27 832 Z M176 832 L176 758 C176 743 192 736 206 736 C221 736 239 746 239 762 L239 836 C239 851 225 857 211 857 C196 857 176 848 176 832 L176 832 Z " />
<glyph glyph-name="Eth" unicode="&#xd0;" horiz-adv-x="682" d="M81 347 L101 347 L101 22 C101 10 114 0 130 0 L279 0 C434 0 559 122 559 272 L559 371 C559 519 435 640 282 640 L134 640 C116 640 101 628 101 614 L101 395 L85 395 C70 395 51 385 51 369 C51 355 67 347 81 347 L81 347 Z M164 47 L164 347 L296 347 C311 347 330 357 330 373 C330 387 314 395 300 395 L164 395 L164 592 L279 592 C398 592 496 491 496 367 L496 269 C496 147 400 47 282 47 L164 47 Z " />
<glyph glyph-name="Ntilde" unicode="&#xd1;" horiz-adv-x="659" d="M135 640 C120 640 101 630 101 614 L101 22 C101 8 116 0 130 0 C145 0 164 9 164 25 L164 551 L496 260 L496 22 C496 8 511 0 525 0 C540 0 559 9 559 25 L559 618 C559 632 544 640 530 640 C515 640 496 630 496 614 L496 336 L156 633 C151 638 143 640 135 640 L135 640 Z M381 792 C370 792 362 801 351 811 C327 833 309 842 284 842 C238 842 198 810 198 774 C198 755 210 744 231 744 C250 744 258 752 262 774 C264 788 268 794 274 794 C282 794 289 789 304 775 C319 761 337 744 373 744 C419 744 458 775 458 811 C458 830 447 841 426 841 C410 841 398 833 396 820 C392 797 388 792 381 792 L381 792 Z " />
<glyph glyph-name="Ograve" unicode="&#xd2;" horiz-adv-x="609" d="M533 218 L533 430 C533 551 431 650 306 650 C179 650 75 549 75 427 L75 214 C75 93 177 -5 302 -5 C429 -5 533 96 533 218 L533 218 Z M306 43 C216 43 138 124 138 218 L138 430 C138 524 212 602 302 602 C394 602 470 523 470 427 L470 214 C470 120 396 43 306 43 L306 43 Z M303 740 C318 740 337 750 337 766 C337 771 334 776 330 780 L256 854 C251 859 242 862 234 862 C219 862 200 852 200 836 C200 831 203 826 207 822 L281 748 C286 743 295 740 303 740 L303 740 Z " />
<glyph glyph-name="Oacute" unicode="&#xd3;" horiz-adv-x="609" d="M533 218 L533 430 C533 551 431 650 306 650 C179 650 75 549 75 427 L75 214 C75 93 177 -5 302 -5 C429 -5 533 96 533 218 L533 218 Z M306 43 C216 43 138 124 138 218 L138 430 C138 524 212 602 302 602 C394 602 470 523 470 427 L470 214 C470 120 396 43 306 43 L306 43 Z M283 747 C283 733 298 725 312 725 C322 725 332 729 338 735 L412 809 C417 814 420 820 420 825 C420 839 405 847 391 847 C381 847 371 843 365 837 L291 763 C286 758 283 752 283 747 L283 747 Z " />
<glyph glyph-name="Ocircumflex" unicode="&#xd4;" horiz-adv-x="609" d="M533 218 L533 430 C533 551 431 650 306 650 C179 650 75 549 75 427 L75 214 C75 93 177 -5 302 -5 C429 -5 533 96 533 218 L533 218 Z M306 43 C216 43 138 124 138 218 L138 430 C138 524 212 602 302 602 C394 602 470 523 470 427 L470 214 C470 120 396 43 306 43 L306 43 Z M301 789 L352 738 C357 733 366 730 374 730 C389 730 408 740 408 756 C408 761 405 767 401 771 L327 845 C322 850 313 852 305 852 C295 852 285 849 279 843 L205 769 C200 764 197 758 197 753 C197 739 212 730 226 730 C236 730 246 734 252 740 L301 789 Z " />
<glyph glyph-name="Otilde" unicode="&#xd5;" horiz-adv-x="609" d="M533 218 L533 430 C533 551 431 650 306 650 C179 650 75 549 75 427 L75 214 C75 93 177 -5 302 -5 C429 -5 533 96 533 218 L533 218 Z M306 43 C216 43 138 124 138 218 L138 430 C138 524 212 602 302 602 C394 602 470 523 470 427 L470 214 C470 120 396 43 306 43 L306 43 Z M355 792 C344 792 336 801 325 811 C301 833 283 842 258 842 C212 842 172 810 172 774 C172 755 184 744 205 744 C224 744 232 752 236 774 C238 788 242 794 248 794 C256 794 263 789 278 775 C293 761 311 744 347 744 C393 744 432 775 432 811 C432 830 421 841 400 841 C384 841 372 833 370 820 C366 797 362 792 355 792 L355 792 Z " />
<glyph glyph-name="Odieresis" unicode="&#xd6;" horiz-adv-x="609" d="M533 218 L533 430 C533 551 431 650 306 650 C179 650 75 549 75 427 L75 214 C75 93 177 -5 302 -5 C429 -5 533 96 533 218 L533 218 Z M201 832 L201 758 C201 743 217 736 231 736 C246 736 264 746 264 762 L264 836 C264 851 248 857 235 857 C220 857 201 848 201 832 L201 832 Z M350 832 L350 758 C350 743 366 736 380 736 C395 736 413 746 413 762 L413 836 C413 851 399 857 385 857 C370 857 350 848 350 832 L350 832 Z M306 43 C216 43 138 124 138 218 L138 430 C138 524 212 602 302 602 C394 602 470 523 470 427 L470 214 C470 120 396 43 306 43 L306 43 Z " />
<glyph glyph-name="multiply" unicode="&#xd7;" horiz-adv-x="411" d="M336 371 C336 385 320 393 306 393 C296 393 287 390 281 384 L207 310 L131 386 C126 391 117 393 109 393 C94 393 75 383 75 367 C75 362 78 357 82 353 L166 269 L83 186 C78 181 75 175 75 170 C75 156 91 148 105 148 C115 148 124 152 130 158 L204 231 L280 155 C285 150 294 148 302 148 C317 148 336 158 336 174 C336 179 333 184 329 188 L245 272 L328 355 C333 360 336 366 336 371 L336 371 Z " />
<glyph glyph-name="Oslash" unicode="&#xd8;" horiz-adv-x="608" d="M533 218 L533 430 C533 501 497 565 442 606 L467 675 C467 681 450 689 436 689 C423 689 417 682 416 681 C414 679 406 661 395 633 C367 644 337 650 306 650 C179 650 75 549 75 427 L75 214 C75 137 117 69 179 30 C166 -11 157 -37 157 -38 C157 -41 173 -49 188 -49 C203 -49 212 -42 217 -33 L231 6 C253 -1 277 -5 302 -5 C429 -5 533 96 533 218 L533 218 Z M138 218 L138 430 C138 524 212 602 302 602 C328 602 354 595 376 584 C327 455 247 227 198 85 C162 118 138 166 138 218 L138 218 Z M306 43 C286 43 266 47 248 55 L422 549 C452 517 470 474 470 427 L470 214 C470 120 396 43 306 43 L306 43 Z " />
<glyph glyph-name="Ugrave" unicode="&#xd9;" horiz-adv-x="609" d="M75 614 L75 214 C75 92 176 -5 302 -5 C429 -5 533 95 533 218 L533 618 C533 630 521 640 504 640 C486 640 470 628 470 614 L470 218 C470 121 396 43 305 43 C212 43 138 125 138 229 L138 618 C138 630 126 640 109 640 C91 640 75 628 75 614 L75 614 Z M303 740 C318 740 337 750 337 766 C337 771 334 776 330 780 L256 854 C251 859 242 862 234 862 C219 862 200 852 200 836 C200 831 203 826 207 822 L281 748 C286 743 295 740 303 740 L303 740 Z " />
<glyph glyph-name="Uacute" unicode="&#xda;" horiz-adv-x="609" d="M75 614 L75 214 C75 92 176 -5 302 -5 C429 -5 533 95 533 218 L533 618 C533 630 521 640 504 640 C486 640 470 628 470 614 L470 218 C470 121 396 43 305 43 C212 43 138 125 138 229 L138 618 C138 630 126 640 109 640 C91 640 75 628 75 614 L75 614 Z M236 717 C236 703 251 695 265 695 C275 695 285 699 291 705 L365 779 C370 784 373 790 373 795 C373 809 358 817 344 817 C334 817 324 813 318 807 L244 733 C239 728 236 722 236 717 L236 717 Z " />
<glyph glyph-name="Ucircumflex" unicode="&#xdb;" horiz-adv-x="609" d="M75 614 L75 214 C75 92 176 -5 302 -5 C429 -5 533 95 533 218 L533 618 C533 630 521 640 504 640 C486 640 470 628 470 614 L470 218 C470 121 396 43 305 43 C212 43 138 125 138 229 L138 618 C138 630 126 640 109 640 C91 640 75 628 75 614 L75 614 Z M301 789 L352 738 C357 733 366 730 374 730 C389 730 408 740 408 756 C408 761 405 767 401 771 L327 845 C322 850 313 852 305 852 C295 852 285 849 279 843 L205 769 C200 764 197 758 197 753 C197 739 212 730 226 730 C236 730 246 734 252 740 L301 789 Z " />
<glyph glyph-name="Udieresis" unicode="&#xdc;" horiz-adv-x="609" d="M75 614 L75 214 C75 92 176 -5 302 -5 C429 -5 533 95 533 218 L533 618 C533 630 521 640 504 640 C486 640 470 628 470 614 L470 218 C470 121 396 43 305 43 C212 43 138 125 138 229 L138 618 C138 630 126 640 109 640 C91 640 75 628 75 614 L75 614 Z M201 832 L201 758 C201 743 217 736 231 736 C246 736 264 746 264 762 L264 836 C264 851 248 857 235 857 C220 857 201 848 201 832 L201 832 Z M350 832 L350 758 C350 743 366 736 380 736 C395 736 413 746 413 762 L413 836 C413 851 399 857 385 857 C370 857 350 848 350 832 L350 832 Z " />
<glyph glyph-name="Yacute" unicode="&#xdd;" horiz-adv-x="559" d="M281 395 L109 635 C104 642 94 645 85 645 C69 645 51 635 51 619 C51 615 52 611 55 607 L248 337 L248 22 C248 8 263 0 277 0 C292 0 311 9 311 25 L311 340 L503 609 C506 613 508 619 508 623 C508 637 493 645 479 645 C468 645 457 640 451 632 L281 395 Z M256 747 C256 733 271 725 285 725 C295 725 305 729 311 735 L385 809 C390 814 393 820 393 825 C393 839 378 847 364 847 C354 847 344 843 338 837 L264 763 C259 758 256 752 256 747 L256 747 Z " />
<glyph glyph-name="Thorn" unicode="&#xde;" horiz-adv-x="634" d="M101 614 L101 22 C101 10 114 0 131 0 C149 0 164 11 164 25 L164 99 L333 99 C457 99 559 200 559 320 C559 441 456 541 332 541 L164 541 L164 618 C164 630 151 640 135 640 C117 640 101 628 101 614 L101 614 Z M164 493 L328 493 C420 493 496 412 496 316 C496 219 419 146 317 146 L164 146 L164 493 Z " />
<glyph glyph-name="germandbls" unicode="&#xdf;" horiz-adv-x="655" d="M276 589 L397 589 L284 438 C275 426 271 417 271 410 C271 397 284 393 316 393 L355 393 C465 393 516 349 516 258 L516 210 C516 106 461 47 363 47 L256 47 C238 47 222 36 222 22 C222 10 235 0 252 0 L374 0 C491 0 580 85 580 198 L580 266 C580 370 498 440 378 440 L355 440 L475 605 C478 610 481 615 481 619 C481 630 469 636 452 636 L280 636 C194 636 124 569 124 488 L124 440 L84 440 C66 440 50 428 50 414 C50 402 63 393 80 393 L124 393 L124 22 C124 10 136 0 153 0 C171 0 187 12 187 26 L187 479 C187 544 223 589 276 589 L276 589 Z " />
<glyph glyph-name="agrave" unicode="&#xe0;" horiz-adv-x="483" d="M182 244 C109 244 50 188 50 120 C50 54 108 0 178 0 L276 0 C294 0 310 11 310 25 C310 38 297 47 280 47 L200 47 C145 47 113 76 113 125 C113 173 143 196 202 196 L345 196 L345 22 C345 10 357 0 374 0 C392 0 408 12 408 26 L408 296 C408 376 340 440 256 440 L157 440 C139 440 124 429 124 415 C124 402 136 393 153 393 L228 393 C299 393 345 354 345 294 L345 244 L182 244 Z M229 549 C244 549 263 559 263 575 C263 580 260 585 256 589 L182 663 C177 668 168 671 160 671 C145 671 126 661 126 645 C126 640 129 635 133 631 L207 557 C212 552 221 549 229 549 L229 549 Z " />
<glyph glyph-name="aacute" unicode="&#xe1;" horiz-adv-x="483" d="M182 244 C109 244 50 188 50 120 C50 54 108 0 178 0 L276 0 C294 0 310 11 310 25 C310 38 297 47 280 47 L200 47 C145 47 113 76 113 125 C113 173 143 196 202 196 L345 196 L345 22 C345 10 357 0 374 0 C392 0 408 12 408 26 L408 296 C408 376 340 440 256 440 L157 440 C139 440 124 429 124 415 C124 402 136 393 153 393 L228 393 C299 393 345 354 345 294 L345 244 L182 244 Z M201 578 C201 564 216 556 230 556 C240 556 250 560 256 566 L330 640 C335 645 338 651 338 656 C338 670 323 678 309 678 C299 678 289 674 283 668 L209 594 C204 589 201 583 201 578 L201 578 Z " />
<glyph glyph-name="acircumflex" unicode="&#xe2;" horiz-adv-x="483" d="M182 244 C109 244 50 188 50 120 C50 54 108 0 178 0 L276 0 C294 0 310 11 310 25 C310 38 297 47 280 47 L200 47 C145 47 113 76 113 125 C113 173 143 196 202 196 L345 196 L345 22 C345 10 357 0 374 0 C392 0 408 12 408 26 L408 296 C408 376 340 440 256 440 L157 440 C139 440 124 429 124 415 C124 402 136 393 153 393 L228 393 C299 393 345 354 345 294 L345 244 L182 244 Z M240 586 L291 535 C296 530 305 527 313 527 C328 527 347 537 347 553 C347 558 344 564 340 568 L266 642 C261 647 252 649 244 649 C234 649 224 646 218 640 L144 566 C139 561 136 555 136 550 C136 536 151 527 165 527 C175 527 185 531 191 537 L240 586 Z " />
<glyph glyph-name="atilde" unicode="&#xe3;" horiz-adv-x="483" d="M182 244 C109 244 50 188 50 120 C50 54 108 0 178 0 L276 0 C294 0 310 11 310 25 C310 38 297 47 280 47 L200 47 C145 47 113 76 113 125 C113 173 143 196 202 196 L345 196 L345 22 C345 10 357 0 374 0 C392 0 408 12 408 26 L408 296 C408 376 340 440 256 440 L157 440 C139 440 124 429 124 415 C124 402 136 393 153 393 L228 393 C299 393 345 354 345 294 L345 244 L182 244 Z M288 605 C277 605 269 614 258 624 C234 646 216 655 191 655 C145 655 105 623 105 587 C105 568 117 557 138 557 C157 557 165 565 169 587 C171 601 175 607 181 607 C189 607 196 602 211 588 C226 574 244 557 280 557 C326 557 365 588 365 624 C365 643 354 654 333 654 C317 654 305 646 303 633 C299 610 295 605 288 605 L288 605 Z " />
<glyph glyph-name="adieresis" unicode="&#xe4;" horiz-adv-x="483" d="M182 244 C109 244 50 188 50 120 C50 54 108 0 178 0 L276 0 C294 0 310 11 310 25 C310 38 297 47 280 47 L200 47 C145 47 113 76 113 125 C113 173 143 196 202 196 L345 196 L345 22 C345 10 357 0 374 0 C392 0 408 12 408 26 L408 296 C408 376 340 440 256 440 L157 440 C139 440 124 429 124 415 C124 402 136 393 153 393 L228 393 C299 393 345 354 345 294 L345 244 L182 244 Z M125 660 L125 586 C125 571 141 564 155 564 C170 564 188 574 188 590 L188 664 C188 679 172 685 159 685 C144 685 125 676 125 660 L125 660 Z M274 660 L274 586 C274 571 290 564 304 564 C319 564 337 574 337 590 L337 664 C337 679 323 685 309 685 C294 685 274 676 274 660 L274 660 Z " />
<glyph glyph-name="aring" unicode="&#xe5;" horiz-adv-x="483" d="M182 244 C109 244 50 188 50 120 C50 54 108 0 178 0 L276 0 C294 0 310 11 310 25 C310 38 297 47 280 47 L200 47 C145 47 113 76 113 125 C113 173 143 196 202 196 L345 196 L345 22 C345 10 357 0 374 0 C392 0 408 12 408 26 L408 296 C408 376 340 440 256 440 L157 440 C139 440 124 429 124 415 C124 402 136 393 153 393 L228 393 C299 393 345 354 345 294 L345 244 L182 244 Z M347 555 C347 610 298 651 243 651 C186 651 136 608 136 551 C136 496 184 455 239 455 C297 455 347 499 347 555 L347 555 Z M284 551 C284 526 267 502 243 502 C218 502 199 528 199 555 C199 579 216 603 239 603 C265 603 284 578 284 551 L284 551 Z " />
<glyph glyph-name="ae" unicode="&#xe6;" horiz-adv-x="777" d="M404 186 L665 186 C679 186 698 195 698 212 L698 271 C698 373 611 440 514 440 C455 440 410 415 381 377 C354 415 307 440 255 440 L157 440 C139 440 123 428 123 414 C123 402 136 393 153 393 L220 393 C305 393 339 364 343 282 C342 270 341 257 341 245 L341 244 L181 244 C108 244 50 189 50 120 C50 54 106 0 177 0 L276 0 C295 0 309 11 309 25 C309 38 297 47 281 47 L199 47 C144 47 113 75 113 124 C113 173 142 196 201 196 L341 196 L341 160 C341 57 419 -10 519 -10 L576 -10 C591 -10 626 -10 626 12 C626 37 591 39 569 39 C468 39 404 71 404 186 L404 186 Z M520 393 C611 393 635 308 635 234 L407 234 L407 279 C416 340 445 393 520 393 L520 393 Z " />
<glyph glyph-name="ccedilla" unicode="&#xe7;" horiz-adv-x="444" d="M263 -153 C320 -153 367 -106 367 -53 C367 -26 355 -2 336 16 C354 25 367 36 367 47 C367 58 355 67 339 67 C330 67 320 63 311 59 C293 50 273 42 252 42 C192 42 139 101 139 168 L139 281 C139 347 189 403 246 403 C265 403 285 396 302 386 C317 379 326 376 335 376 C353 376 369 388 369 399 C369 421 304 450 249 450 C157 450 76 372 76 277 L76 164 C76 77 143 7 226 -4 C231 -5 237 -5 243 -5 L252 -5 C281 -5 303 -27 303 -56 C303 -84 285 -106 262 -106 C254 -106 249 -103 242 -97 C228 -86 221 -84 213 -84 C193 -84 178 -96 178 -109 C178 -131 224 -153 263 -153 L263 -153 Z " />
<glyph glyph-name="egrave" unicode="&#xe8;" horiz-adv-x="510" d="M136 196 L397 196 C411 196 430 205 430 222 L430 281 C430 383 343 450 246 450 C133 450 73 361 73 255 L73 170 C73 67 151 0 251 0 L308 0 C323 0 358 0 358 22 C358 47 323 49 301 49 C200 49 136 81 136 196 L136 196 Z M136 244 C136 320 158 403 252 403 C343 403 367 318 367 244 L136 244 Z M256 549 C271 549 290 559 290 575 C290 580 287 585 283 589 L209 663 C204 668 195 671 187 671 C172 671 153 661 153 645 C153 640 156 635 160 631 L234 557 C239 552 248 549 256 549 L256 549 Z " />
<glyph glyph-name="eacute" unicode="&#xe9;" horiz-adv-x="510" d="M136 196 L397 196 C411 196 430 205 430 222 L430 281 C430 383 343 450 246 450 C133 450 73 361 73 255 L73 170 C73 67 151 0 251 0 L308 0 C323 0 358 0 358 22 C358 47 323 49 301 49 C200 49 136 81 136 196 L136 196 Z M136 244 C136 320 158 403 252 403 C343 403 367 318 367 244 L136 244 Z M228 580 C228 566 243 558 257 558 C267 558 277 562 283 568 L357 642 C362 647 365 653 365 658 C365 672 350 680 336 680 C326 680 316 676 310 670 L236 596 C231 591 228 585 228 580 L228 580 Z " />
<glyph glyph-name="ecircumflex" unicode="&#xea;" horiz-adv-x="507" d="M135 196 L396 196 C410 196 429 205 429 222 L429 281 C429 383 342 450 245 450 C132 450 72 361 72 255 L72 170 C72 67 150 0 250 0 L307 0 C322 0 357 0 357 22 C357 47 322 49 300 49 C199 49 135 81 135 196 L135 196 Z M135 244 C135 320 157 403 251 403 C342 403 366 318 366 244 L135 244 Z M252 586 L303 535 C308 530 317 527 325 527 C340 527 359 537 359 553 C359 558 356 564 352 568 L278 642 C273 647 264 649 256 649 C246 649 236 646 230 640 L156 566 C151 561 148 555 148 550 C148 536 163 527 177 527 C187 527 197 531 203 537 L252 586 Z " />
<glyph glyph-name="edieresis" unicode="&#xeb;" horiz-adv-x="510" d="M136 196 L397 196 C411 196 430 205 430 222 L430 281 C430 383 343 450 246 450 C133 450 73 361 73 255 L73 170 C73 67 151 0 251 0 L308 0 C323 0 358 0 358 22 C358 47 323 49 301 49 C200 49 136 81 136 196 L136 196 Z M149 651 L149 577 C149 562 165 555 179 555 C194 555 212 565 212 581 L212 655 C212 670 196 676 183 676 C168 676 149 667 149 651 L149 651 Z M298 651 L298 577 C298 562 314 555 328 555 C343 555 361 565 361 581 L361 655 C361 670 347 676 333 676 C318 676 298 667 298 651 L298 651 Z M136 244 C136 320 158 403 252 403 C343 403 367 318 367 244 L136 244 Z " />
<glyph glyph-name="igrave" unicode="&#xec;" horiz-adv-x="264" d="M100 415 L100 22 C100 8 116 0 130 0 C145 0 163 9 163 25 L163 418 C163 432 148 440 134 440 C119 440 100 431 100 415 L100 415 Z M122 533 C137 533 156 543 156 559 C156 564 153 569 149 573 L75 647 C70 652 61 655 53 655 C38 655 19 645 19 629 C19 624 22 619 26 615 L100 541 C105 536 114 533 122 533 L122 533 Z " />
<glyph glyph-name="iacute" unicode="&#xed;" horiz-adv-x="264" d="M100 415 L100 22 C100 8 116 0 130 0 C145 0 163 9 163 25 L163 418 C163 432 148 440 134 440 C119 440 100 431 100 415 L100 415 Z M108 547 C108 533 123 525 137 525 C147 525 157 529 163 535 L237 609 C242 614 245 620 245 625 C245 639 230 647 216 647 C206 647 196 643 190 637 L116 563 C111 558 108 552 108 547 L108 547 Z " />
<glyph glyph-name="icircumflex" unicode="&#xee;" horiz-adv-x="264" d="M100 415 L100 22 C100 8 116 0 130 0 C145 0 163 9 163 25 L163 418 C163 432 148 440 134 440 C119 440 100 431 100 415 L100 415 Z M131 586 L182 535 C187 530 196 527 204 527 C219 527 238 537 238 553 C238 558 235 564 231 568 L157 642 C152 647 143 649 135 649 C125 649 115 646 109 640 L35 566 C30 561 27 555 27 550 C27 536 42 527 56 527 C66 527 76 531 82 537 L131 586 Z " />
<glyph glyph-name="idieresis" unicode="&#xef;" horiz-adv-x="264" d="M100 415 L100 22 C100 8 116 0 130 0 C145 0 163 9 163 25 L163 418 C163 432 148 440 134 440 C119 440 100 431 100 415 L100 415 Z M26 630 L26 556 C26 541 42 534 56 534 C71 534 89 544 89 560 L89 634 C89 649 73 655 60 655 C45 655 26 646 26 630 L26 630 Z M175 630 L175 556 C175 541 191 534 205 534 C220 534 238 544 238 560 L238 634 C238 649 224 655 210 655 C195 655 175 646 175 630 L175 630 Z " />
<glyph glyph-name="eth" unicode="&#xf0;" horiz-adv-x="509" d="M370 341 L370 164 C370 97 319 43 257 43 C193 43 139 100 139 168 L139 271 C139 348 190 392 277 392 C295 392 311 405 311 419 C311 433 299 440 264 440 C158 440 76 368 76 267 L76 164 C76 70 154 -5 252 -5 C351 -5 433 73 433 168 L433 344 C433 423 413 482 362 543 L410 564 C426 571 433 580 433 590 C433 602 422 612 408 612 C403 612 395 610 389 608 L324 582 C288 613 244 638 224 638 C208 638 190 626 190 614 C190 606 199 597 213 592 C225 587 252 570 266 558 L229 542 C208 533 199 524 199 513 C199 501 211 491 225 491 C230 491 236 492 245 496 L305 519 C350 470 370 415 370 341 L370 341 Z " />
<glyph glyph-name="ntilde" unicode="&#xf1;" horiz-adv-x="534" d="M163 393 L277 393 C348 393 395 334 395 247 L395 22 C395 9 406 0 423 0 C441 0 458 12 458 26 L458 271 C458 365 379 440 281 440 L134 440 C116 440 100 428 100 414 L100 22 C100 10 113 0 130 0 C148 0 163 12 163 26 L163 393 Z M320 599 C309 599 301 608 290 618 C266 640 248 649 223 649 C177 649 137 617 137 581 C137 562 149 551 170 551 C189 551 197 559 201 581 C203 595 207 601 213 601 C221 601 228 596 243 582 C258 568 276 551 312 551 C358 551 397 582 397 618 C397 637 386 648 365 648 C349 648 337 640 335 627 C331 604 327 599 320 599 L320 599 Z " />
<glyph glyph-name="ograve" unicode="&#xf2;" horiz-adv-x="509" d="M139 281 C139 348 190 402 253 402 C318 402 370 345 370 277 L370 164 C370 97 320 43 257 43 C193 43 139 101 139 168 L139 281 Z M76 164 C76 70 154 -5 252 -5 C352 -5 433 73 433 168 L433 281 C433 375 355 450 257 450 C157 450 76 372 76 277 L76 164 Z M255 549 C270 549 289 559 289 575 C289 580 286 585 282 589 L208 663 C203 668 194 671 186 671 C171 671 152 661 152 645 C152 640 155 635 159 631 L233 557 C238 552 247 549 255 549 L255 549 Z " />
<glyph glyph-name="oacute" unicode="&#xf3;" horiz-adv-x="509" d="M139 281 C139 348 190 402 253 402 C318 402 370 345 370 277 L370 164 C370 97 320 43 257 43 C193 43 139 101 139 168 L139 281 Z M76 164 C76 70 154 -5 252 -5 C352 -5 433 73 433 168 L433 281 C433 375 355 450 257 450 C157 450 76 372 76 277 L76 164 Z M227 579 C227 565 242 557 256 557 C266 557 276 561 282 567 L356 641 C361 646 364 652 364 657 C364 671 349 679 335 679 C325 679 315 675 309 669 L235 595 C230 590 227 584 227 579 L227 579 Z " />
<glyph glyph-name="ocircumflex" unicode="&#xf4;" horiz-adv-x="507" d="M139 281 C139 348 190 402 253 402 C318 402 370 345 370 277 L370 164 C370 97 320 43 257 43 C193 43 139 101 139 168 L139 281 Z M76 164 C76 70 154 -5 252 -5 C352 -5 433 73 433 168 L433 281 C433 375 355 450 257 450 C157 450 76 372 76 277 L76 164 Z M252 586 L303 535 C308 530 317 527 325 527 C340 527 359 537 359 553 C359 558 356 564 352 568 L278 642 C273 647 264 649 256 649 C246 649 236 646 230 640 L156 566 C151 561 148 555 148 550 C148 536 163 527 177 527 C187 527 197 531 203 537 L252 586 Z " />
<glyph glyph-name="otilde" unicode="&#xf5;" horiz-adv-x="509" d="M139 281 C139 348 190 402 253 402 C318 402 370 345 370 277 L370 164 C370 97 320 43 257 43 C193 43 139 101 139 168 L139 281 Z M76 164 C76 70 154 -5 252 -5 C352 -5 433 73 433 168 L433 281 C433 375 355 450 257 450 C157 450 76 372 76 277 L76 164 Z M308 599 C297 599 289 608 278 618 C254 640 236 649 211 649 C165 649 125 617 125 581 C125 562 137 551 158 551 C177 551 185 559 189 581 C191 595 195 601 201 601 C209 601 216 596 231 582 C246 568 264 551 300 551 C346 551 385 582 385 618 C385 637 374 648 353 648 C337 648 325 640 323 627 C319 604 315 599 308 599 L308 599 Z " />
<glyph glyph-name="odieresis" unicode="&#xf6;" horiz-adv-x="509" d="M76 164 C76 70 154 -5 252 -5 C352 -5 433 73 433 168 L433 281 C433 375 355 450 257 450 C157 450 76 372 76 277 L76 164 Z M148 651 L148 577 C148 562 164 555 178 555 C193 555 211 565 211 581 L211 655 C211 670 195 676 182 676 C167 676 148 667 148 651 L148 651 Z M297 651 L297 577 C297 562 313 555 327 555 C342 555 360 565 360 581 L360 655 C360 670 346 676 332 676 C317 676 297 667 297 651 L297 651 Z M139 281 C139 348 190 402 253 402 C318 402 370 345 370 277 L370 164 C370 97 320 43 257 43 C193 43 139 101 139 168 L139 281 Z " />
<glyph glyph-name="divide" unicode="&#xf7;" horiz-adv-x="411" d="M174 417 L174 343 C174 329 189 321 203 321 C218 321 237 330 237 346 L237 420 C237 434 222 443 208 443 C193 443 174 433 174 417 L174 417 Z M237 124 L237 198 C237 212 222 220 208 220 C193 220 174 211 174 195 L174 121 C174 107 189 98 203 98 C218 98 237 108 237 124 L237 124 Z M111 243 L306 243 C324 243 347 255 347 273 C347 290 328 299 311 299 L116 299 C98 299 75 287 75 269 C75 252 94 243 111 243 L111 243 Z " />
<glyph glyph-name="oslash" unicode="&#xf8;" horiz-adv-x="507" d="M76 164 C76 109 102 61 144 30 L127 -12 C126 -16 123 -25 123 -30 C123 -42 139 -49 154 -49 C168 -49 180 -43 185 -31 L198 3 C215 -2 233 -5 252 -5 C352 -5 433 73 433 168 L433 281 C433 337 405 386 362 417 L382 467 C382 482 366 489 351 489 C337 489 326 483 321 471 L310 442 C293 447 275 450 257 450 C157 450 76 372 76 277 L76 164 Z M139 281 C139 348 190 402 253 402 C266 402 279 400 291 395 L167 88 C150 110 139 138 139 168 L139 281 Z M370 277 L370 164 C370 97 320 43 257 43 C243 43 230 46 217 51 L340 360 C359 338 370 309 370 277 L370 277 Z " />
<glyph glyph-name="ugrave" unicode="&#xf9;" horiz-adv-x="534" d="M76 415 L76 169 C76 75 154 0 252 0 L400 0 C418 0 433 11 433 25 L433 418 C433 430 420 440 404 440 C386 440 370 429 370 415 L370 48 L257 48 C188 48 139 108 139 193 L139 418 C138 431 127 440 111 440 C93 440 76 429 76 415 L76 415 Z M280 549 C295 549 314 559 314 575 C314 580 311 585 307 589 L233 663 C228 668 219 671 211 671 C196 671 177 661 177 645 C177 640 180 635 184 631 L258 557 C263 552 272 549 280 549 L280 549 Z " />
<glyph glyph-name="uacute" unicode="&#xfa;" horiz-adv-x="534" d="M76 415 L76 169 C76 75 154 0 252 0 L400 0 C418 0 433 11 433 25 L433 418 C433 430 420 440 404 440 C386 440 370 429 370 415 L370 48 L257 48 C188 48 139 108 139 193 L139 418 C138 431 127 440 111 440 C93 440 76 429 76 415 L76 415 Z M252 578 C252 564 267 556 281 556 C291 556 301 560 307 566 L381 640 C386 645 389 651 389 656 C389 670 374 678 360 678 C350 678 340 674 334 668 L260 594 C255 589 252 583 252 578 L252 578 Z " />
<glyph glyph-name="ucircumflex" unicode="&#xfb;" horiz-adv-x="534" d="M76 415 L76 169 C76 75 154 0 252 0 L400 0 C418 0 433 11 433 25 L433 418 C433 430 420 440 404 440 C386 440 370 429 370 415 L370 48 L257 48 C188 48 139 108 139 193 L139 418 C138 431 127 440 111 440 C93 440 76 429 76 415 L76 415 Z M266 586 L317 535 C322 530 331 527 339 527 C354 527 373 537 373 553 C373 558 370 564 366 568 L292 642 C287 647 278 649 270 649 C260 649 250 646 244 640 L170 566 C165 561 162 555 162 550 C162 536 177 527 191 527 C201 527 211 531 217 537 L266 586 Z " />
<glyph glyph-name="udieresis" unicode="&#xfc;" horiz-adv-x="534" d="M76 415 L76 169 C76 75 154 0 252 0 L400 0 C418 0 433 11 433 25 L433 418 C433 430 420 440 404 440 C386 440 370 429 370 415 L370 48 L257 48 C188 48 139 108 139 193 L139 418 C138 431 127 440 111 440 C93 440 76 429 76 415 L76 415 Z M161 651 L161 577 C161 562 177 555 191 555 C206 555 224 565 224 581 L224 655 C224 670 208 676 195 676 C180 676 161 667 161 651 L161 651 Z M310 651 L310 577 C310 562 326 555 340 555 C355 555 373 565 373 581 L373 655 C373 670 359 676 345 676 C330 676 310 667 310 651 L310 651 Z " />
<glyph glyph-name="yacute" unicode="&#xfd;" horiz-adv-x="483" d="M109 445 C90 445 75 433 75 419 C87 386 192 93 221 22 L199 -37 C167 -122 146 -143 100 -147 C63 -151 50 -161 50 -174 C50 -187 62 -197 94 -197 C153 -197 211 -160 237 -102 C262 -46 432 415 432 427 C432 432 415 440 402 440 C388 440 375 433 371 422 L254 111 L133 436 C130 442 120 445 109 445 L109 445 Z M226 578 C226 564 241 556 255 556 C265 556 275 560 281 566 L355 640 C360 645 363 651 363 656 C363 670 348 678 334 678 C324 678 314 674 308 668 L234 594 C229 589 226 583 226 578 L226 578 Z " />
<glyph glyph-name="thorn" unicode="&#xfe;" horiz-adv-x="532" d="M458 222 L458 228 C458 355 378 440 257 440 L164 440 L164 614 C164 628 149 637 135 637 C120 637 101 627 101 611 L101 420 C100 418 100 416 100 414 L100 -175 C100 -187 113 -196 130 -196 C148 -196 163 -185 163 -171 L163 393 L252 393 C334 393 395 325 395 233 L395 199 C395 103 336 47 235 47 C215 47 199 36 198 21 C198 7 212 0 236 0 C373 0 458 84 458 222 L458 222 Z " />
<glyph glyph-name="ydieresis" unicode="&#xff;" horiz-adv-x="483" d="M109 445 C90 445 75 433 75 419 C87 386 192 93 221 22 L199 -37 C167 -122 146 -143 100 -147 C63 -151 50 -161 50 -174 C50 -187 62 -197 94 -197 C153 -197 211 -160 237 -102 C262 -46 432 415 432 427 C432 432 415 440 402 440 C388 440 375 433 371 422 L254 111 L133 436 C130 442 120 445 109 445 L109 445 Z M150 660 L150 586 C150 571 166 564 180 564 C195 564 213 574 213 590 L213 664 C213 679 197 685 184 685 C169 685 150 676 150 660 L150 660 Z M299 660 L299 586 C299 571 315 564 329 564 C344 564 362 574 362 590 L362 664 C362 679 348 685 334 685 C319 685 299 676 299 660 L299 660 Z " />
<glyph glyph-name="Amacron" unicode="&#x100;" horiz-adv-x="559" d="M51 16 C51 8 67 0 80 0 C94 0 110 10 114 20 L139 98 L419 98 L441 23 C445 9 457 0 472 0 C489 0 508 14 508 24 C508 49 351 515 316 618 C308 642 298 650 280 650 C262 650 253 640 244 615 C177 425 51 32 51 16 L51 16 Z M204 709 L350 709 C368 709 391 720 391 738 C391 754 372 764 355 764 L209 764 C191 764 169 752 169 735 C169 718 188 709 204 709 L204 709 Z M279 527 L404 146 L154 146 L279 527 Z " />
<glyph glyph-name="amacron" unicode="&#x101;" horiz-adv-x="483" d="M182 244 C109 244 50 188 50 120 C50 54 108 0 178 0 L276 0 C294 0 310 11 310 25 C310 38 297 47 280 47 L200 47 C145 47 113 76 113 125 C113 173 143 196 202 196 L345 196 L345 22 C345 10 357 0 374 0 C392 0 408 12 408 26 L408 296 C408 376 340 440 256 440 L157 440 C139 440 124 429 124 415 C124 402 136 393 153 393 L228 393 C299 393 345 354 345 294 L345 244 L182 244 Z M155 573 L303 573 C318 573 337 583 337 599 C337 613 321 620 307 620 L159 620 C145 620 126 610 126 595 C126 580 142 573 155 573 L155 573 Z " />
<glyph glyph-name="Abreve" unicode="&#x102;" horiz-adv-x="559" d="M51 16 C51 8 67 0 80 0 C94 0 110 10 114 20 L139 98 L419 98 L441 23 C445 9 457 0 472 0 C489 0 508 14 508 24 C508 49 351 515 316 618 C308 642 298 650 280 650 C262 650 253 640 244 615 C177 425 51 32 51 16 L51 16 Z M281 751 C253 752 241 777 237 804 C235 818 222 825 207 825 C193 825 174 815 174 799 C174 744 222 703 277 703 C335 703 385 746 385 803 C385 818 369 825 355 825 C340 825 324 817 322 801 C319 775 308 751 281 751 L281 751 Z M279 527 L404 146 L154 146 L279 527 Z " />
<glyph glyph-name="abreve" unicode="&#x103;" horiz-adv-x="483" d="M182 244 C109 244 50 188 50 120 C50 54 108 0 178 0 L276 0 C294 0 310 11 310 25 C310 38 297 47 280 47 L200 47 C145 47 113 76 113 125 C113 173 143 196 202 196 L345 196 L345 22 C345 10 357 0 374 0 C392 0 408 12 408 26 L408 296 C408 376 340 440 256 440 L157 440 C139 440 124 429 124 415 C124 402 136 393 153 393 L228 393 C299 393 345 354 345 294 L345 244 L182 244 Z M243 575 C215 576 203 601 199 628 C197 642 184 649 169 649 C155 649 136 639 136 623 C136 568 184 527 239 527 C297 527 347 570 347 627 C347 642 331 649 317 649 C302 649 286 641 284 625 C281 599 270 575 243 575 L243 575 Z " />
<glyph glyph-name="Aogonek" unicode="&#x104;" horiz-adv-x="559" d="M51 16 C51 8 67 0 80 0 C94 0 110 10 114 20 L139 98 L419 98 L435 45 C385 36 347 -4 347 -52 C347 -103 391 -148 446 -148 C487 -148 537 -123 537 -100 C537 -88 525 -79 508 -79 C497 -79 489 -82 475 -93 C468 -98 463 -101 455 -101 C430 -101 410 -77 410 -49 C410 -26 424 -5 443 -1 C445 0 449 0 452 0 L474 0 C494 0 509 11 509 26 C509 30 508 34 505 37 C485 118 348 523 316 618 C308 642 298 650 280 650 C262 650 253 640 244 615 C177 425 51 32 51 16 L51 16 Z M279 527 L404 146 L154 146 L279 527 Z " />
<glyph glyph-name="aogonek" unicode="&#x105;" horiz-adv-x="483" d="M282 47 L200 47 C145 47 113 76 113 125 C113 173 143 196 202 196 L345 196 L345 22 C345 10 357 0 374 0 C392 0 408 12 408 26 L408 296 C408 376 340 440 256 440 L157 440 C139 440 124 429 124 415 C124 402 136 393 153 393 L228 393 C299 393 345 354 345 294 L345 244 L182 244 C109 244 50 188 50 120 C50 58 101 6 166 1 C155 -15 149 -33 149 -52 C149 -103 193 -148 248 -148 C289 -148 339 -123 339 -100 C339 -88 327 -79 310 -79 C299 -79 291 -82 277 -93 C270 -98 265 -101 257 -101 C232 -101 212 -77 212 -49 C212 -26 226 -5 245 -1 C247 0 250 0 252 0 L276 0 C296 0 311 11 311 26 C311 39 299 47 282 47 L282 47 Z " />
<glyph glyph-name="Cacute" unicode="&#x106;" horiz-adv-x="536" d="M313 43 C216 43 139 120 139 218 L139 430 C139 526 212 602 306 602 C339 602 366 592 401 568 C413 560 418 559 426 559 C444 559 459 571 459 585 C459 617 379 650 306 650 C178 650 75 548 75 426 L75 214 C75 94 175 -5 301 -5 C376 -5 459 30 459 63 C459 76 446 87 430 87 C418 87 411 82 402 75 L400 74 C368 51 345 43 313 43 L313 43 Z M200 717 C200 703 215 695 229 695 C239 695 249 699 255 705 L329 779 C334 784 337 790 337 795 C337 809 322 817 308 817 C298 817 288 813 282 807 L208 733 C203 728 200 722 200 717 L200 717 Z " />
<glyph glyph-name="cacute" unicode="&#x107;" horiz-adv-x="443" d="M75 164 C75 70 154 -5 246 -5 C302 -5 366 23 366 47 C366 58 354 67 338 67 C329 67 319 63 310 59 C292 50 272 42 251 42 C191 42 138 101 138 168 L138 281 C138 347 188 403 245 403 C264 403 284 396 301 386 C316 379 325 376 334 376 C352 376 368 388 368 399 C368 421 303 450 248 450 C156 450 75 372 75 277 L75 164 Z M153 548 C153 534 168 526 182 526 C192 526 202 530 208 536 L282 610 C287 615 290 621 290 626 C290 640 275 648 261 648 C251 648 241 644 235 638 L161 564 C156 559 153 553 153 548 L153 548 Z " />
<glyph glyph-name="Ccircumflex" unicode="&#x108;" horiz-adv-x="536" d="M313 43 C216 43 139 120 139 218 L139 430 C139 526 212 602 306 602 C339 602 366 592 401 568 C413 560 418 559 426 559 C444 559 459 571 459 585 C459 617 379 650 306 650 C178 650 75 548 75 426 L75 214 C75 94 175 -5 301 -5 C376 -5 459 30 459 63 C459 76 446 87 430 87 C418 87 411 82 402 75 L400 74 C368 51 345 43 313 43 L313 43 Z M301 789 L352 738 C357 733 366 730 374 730 C389 730 408 740 408 756 C408 761 405 767 401 771 L327 845 C322 850 313 852 305 852 C295 852 285 849 279 843 L205 769 C200 764 197 758 197 753 C197 739 212 730 226 730 C236 730 246 734 252 740 L301 789 Z " />
<glyph glyph-name="ccircumflex" unicode="&#x109;" horiz-adv-x="444" d="M76 164 C76 70 155 -5 247 -5 C303 -5 367 23 367 47 C367 58 355 67 339 67 C330 67 320 63 311 59 C293 50 273 42 252 42 C192 42 139 101 139 168 L139 281 C139 347 189 403 246 403 C265 403 285 396 302 386 C317 379 326 376 335 376 C353 376 369 388 369 399 C369 421 304 450 249 450 C157 450 76 372 76 277 L76 164 Z M248 586 L299 535 C304 530 313 527 321 527 C336 527 355 537 355 553 C355 558 352 564 348 568 L274 642 C269 647 260 649 252 649 C242 649 232 646 226 640 L152 566 C147 561 144 555 144 550 C144 536 159 527 173 527 C183 527 193 531 199 537 L248 586 Z " />
<glyph glyph-name="Cdotaccent" unicode="&#x10a;" horiz-adv-x="536" d="M313 43 C216 43 139 120 139 218 L139 430 C139 526 212 602 306 602 C339 602 366 592 401 568 C413 560 418 559 426 559 C444 559 459 571 459 585 C459 617 379 650 306 650 C178 650 75 548 75 426 L75 214 C75 94 175 -5 301 -5 C376 -5 459 30 459 63 C459 76 446 87 430 87 C418 87 411 82 402 75 L400 74 C368 51 345 43 313 43 L313 43 Z M236 819 L236 745 C236 730 252 723 266 723 C281 723 300 733 300 749 L300 823 C300 837 284 844 270 844 C255 844 236 834 236 819 L236 819 Z " />
<glyph glyph-name="cdotaccent" unicode="&#x10b;" horiz-adv-x="443" d="M75 164 C75 70 154 -5 246 -5 C302 -5 366 23 366 47 C366 58 354 67 338 67 C329 67 319 63 310 59 C292 50 272 42 251 42 C191 42 138 101 138 168 L138 281 C138 347 188 403 245 403 C264 403 284 396 301 386 C316 379 325 376 334 376 C352 376 368 388 368 399 C368 421 303 450 248 450 C156 450 75 372 75 277 L75 164 Z M189 647 L189 573 C189 558 205 551 219 551 C234 551 253 561 253 577 L253 651 C253 665 237 672 223 672 C208 672 189 662 189 647 L189 647 Z " />
<glyph glyph-name="Ccaron" unicode="&#x10c;" horiz-adv-x="536" d="M313 43 C216 43 139 120 139 218 L139 430 C139 526 212 602 306 602 C339 602 366 592 401 568 C413 560 418 559 426 559 C444 559 459 571 459 585 C459 617 379 650 306 650 C178 650 75 548 75 426 L75 214 C75 94 175 -5 301 -5 C376 -5 459 30 459 63 C459 76 446 87 430 87 C418 87 411 82 402 75 L400 74 C368 51 345 43 313 43 L313 43 Z M300 697 C310 697 320 701 326 707 L400 781 C405 786 408 792 408 797 C408 811 393 819 379 819 C369 819 359 816 353 810 L304 761 L253 812 C248 817 239 819 231 819 C216 819 197 810 197 794 C197 789 200 783 204 779 L278 705 C283 700 292 697 300 697 L300 697 Z " />
<glyph glyph-name="ccaron" unicode="&#x10d;" horiz-adv-x="444" d="M76 164 C76 70 155 -5 247 -5 C303 -5 367 23 367 47 C367 58 355 67 339 67 C330 67 320 63 311 59 C293 50 273 42 252 42 C192 42 139 101 139 168 L139 281 C139 347 189 403 246 403 C265 403 285 396 302 386 C317 379 326 376 335 376 C353 376 369 388 369 399 C369 421 304 450 249 450 C157 450 76 372 76 277 L76 164 Z M255 523 C265 523 275 527 281 533 L355 607 C360 612 363 618 363 623 C363 637 348 645 334 645 C324 645 314 642 308 636 L259 587 L208 638 C203 643 194 645 186 645 C171 645 152 636 152 620 C152 615 155 609 159 605 L233 531 C238 526 247 523 255 523 L255 523 Z " />
<glyph glyph-name="Dcaron" unicode="&#x10e;" horiz-adv-x="635" d="M164 47 L164 592 L279 592 C398 592 496 491 496 367 L496 269 C496 147 400 47 282 47 L164 47 Z M279 0 C434 0 559 122 559 272 L559 371 C559 519 435 640 282 640 L134 640 C116 640 101 628 101 614 L101 22 C101 10 114 0 130 0 L279 0 Z M274 703 C284 703 294 707 300 713 L374 787 C379 792 382 798 382 803 C382 817 367 825 353 825 C343 825 333 822 327 816 L278 767 L227 818 C222 823 213 825 205 825 C190 825 171 816 171 800 C171 795 174 789 178 785 L252 711 C257 706 266 703 274 703 L274 703 Z " />
<glyph glyph-name="dcaron" unicode="&#x10f;" horiz-adv-x="530" d="M370 611 L370 440 L281 440 C168 440 76 352 76 243 L76 194 C76 83 165 0 282 0 C319 0 335 7 335 25 C335 40 318 47 291 47 C203 47 139 110 139 197 L139 246 C139 319 192 383 260 393 L370 393 L370 22 C370 10 384 0 400 0 C418 0 433 11 433 25 L433 614 C433 626 420 637 404 637 C386 637 370 625 370 611 L370 611 Z M280 742 C290 742 300 746 306 752 L380 826 C385 831 388 837 388 842 C388 856 373 864 359 864 C349 864 339 861 333 855 L284 806 L233 857 C228 862 219 864 211 864 C196 864 177 855 177 839 C177 834 180 828 184 824 L258 750 C263 745 272 742 280 742 L280 742 Z " />
<glyph glyph-name="Dcroat" unicode="&#x110;" horiz-adv-x="682" d="M81 347 L101 347 L101 22 C101 10 114 0 130 0 L279 0 C434 0 559 122 559 272 L559 371 C559 519 435 640 282 640 L134 640 C116 640 101 628 101 614 L101 395 L85 395 C70 395 51 385 51 369 C51 355 67 347 81 347 L81 347 Z M164 47 L164 347 L296 347 C311 347 330 357 330 373 C330 387 314 395 300 395 L164 395 L164 592 L279 592 C398 592 496 491 496 367 L496 269 C496 147 400 47 282 47 L164 47 Z " />
<glyph glyph-name="dcroat" unicode="&#x111;" horiz-adv-x="530" d="M246 590 L370 590 L370 440 L281 440 C168 440 76 352 76 243 L76 194 C76 83 165 0 282 0 C319 0 335 7 335 25 C335 40 318 47 291 47 C203 47 139 110 139 197 L139 246 C139 319 192 383 260 393 L370 393 L370 22 C370 10 384 0 400 0 C418 0 433 11 433 25 L433 616 C433 630 418 638 404 638 L251 638 C236 638 217 629 217 613 C217 599 232 590 246 590 L246 590 Z " />
<glyph glyph-name="Emacron" unicode="&#x112;" horiz-adv-x="585" d="M480 640 L134 640 C119 640 101 630 101 614 L101 71 C101 29 138 0 180 0 L476 0 C491 0 510 10 510 26 C510 41 494 47 480 47 L194 47 C174 47 164 55 164 75 L164 346 L303 346 C318 346 337 355 337 371 C337 386 321 393 307 393 L164 393 L164 592 L476 592 C491 592 510 602 510 618 C510 633 494 640 480 640 L480 640 Z M217 709 L363 709 C381 709 404 720 404 738 C404 754 385 764 368 764 L222 764 C204 764 182 752 182 735 C182 718 201 709 217 709 L217 709 Z " />
<glyph glyph-name="emacron" unicode="&#x113;" horiz-adv-x="507" d="M135 196 L396 196 C410 196 429 205 429 222 L429 281 C429 383 342 450 245 450 C132 450 72 361 72 255 L72 170 C72 67 150 0 250 0 L307 0 C322 0 357 0 357 22 C357 47 322 49 300 49 C199 49 135 81 135 196 L135 196 Z M181 573 L329 573 C344 573 363 583 363 599 C363 613 347 620 333 620 L185 620 C171 620 152 610 152 595 C152 580 168 573 181 573 L181 573 Z M135 244 C135 320 157 403 251 403 C342 403 366 318 366 244 L135 244 Z " />
<glyph glyph-name="Ebreve" unicode="&#x114;" horiz-adv-x="585" d="M480 640 L134 640 C119 640 101 630 101 614 L101 71 C101 29 138 0 180 0 L476 0 C491 0 510 10 510 26 C510 41 494 47 480 47 L194 47 C174 47 164 55 164 75 L164 346 L303 346 C318 346 337 355 337 371 C337 386 321 393 307 393 L164 393 L164 592 L476 592 C491 592 510 602 510 618 C510 633 494 640 480 640 L480 640 Z M294 751 C266 752 254 777 250 804 C248 818 235 825 220 825 C206 825 187 815 187 799 C187 744 235 703 290 703 C348 703 398 746 398 803 C398 818 382 825 368 825 C353 825 337 817 335 801 C332 775 321 751 294 751 L294 751 Z " />
<glyph glyph-name="ebreve" unicode="&#x115;" horiz-adv-x="507" d="M135 196 L396 196 C410 196 429 205 429 222 L429 281 C429 383 342 450 245 450 C132 450 72 361 72 255 L72 170 C72 67 150 0 250 0 L307 0 C322 0 357 0 357 22 C357 47 322 49 300 49 C199 49 135 81 135 196 L135 196 Z M259 575 C231 576 219 601 215 628 C213 642 200 649 185 649 C171 649 152 639 152 623 C152 568 200 527 255 527 C313 527 363 570 363 627 C363 642 347 649 333 649 C318 649 302 641 300 625 C297 599 286 575 259 575 L259 575 Z M135 244 C135 320 157 403 251 403 C342 403 366 318 366 244 L135 244 Z " />
<glyph glyph-name="Edotaccent" unicode="&#x116;" horiz-adv-x="585" d="M480 640 L134 640 C119 640 101 630 101 614 L101 71 C101 29 138 0 180 0 L476 0 C491 0 510 10 510 26 C510 41 494 47 480 47 L194 47 C174 47 164 55 164 75 L164 346 L303 346 C318 346 337 355 337 371 C337 386 321 393 307 393 L164 393 L164 592 L476 592 C491 592 510 602 510 618 C510 633 494 640 480 640 L480 640 Z M260 819 L260 745 C260 730 276 723 290 723 C305 723 324 733 324 749 L324 823 C324 837 308 844 294 844 C279 844 260 834 260 819 L260 819 Z " />
<glyph glyph-name="edotaccent" unicode="&#x117;" horiz-adv-x="507" d="M135 196 L396 196 C410 196 429 205 429 222 L429 281 C429 383 342 450 245 450 C132 450 72 361 72 255 L72 170 C72 67 150 0 250 0 L307 0 C322 0 357 0 357 22 C357 47 322 49 300 49 C199 49 135 81 135 196 L135 196 Z M221 647 L221 573 C221 558 237 551 251 551 C266 551 285 561 285 577 L285 651 C285 665 269 672 255 672 C240 672 221 662 221 647 L221 647 Z M135 244 C135 320 157 403 251 403 C342 403 366 318 366 244 L135 244 Z " />
<glyph glyph-name="Eogonek" unicode="&#x118;" horiz-adv-x="585" d="M480 640 L134 640 C119 640 101 630 101 614 L101 71 C101 29 138 0 180 0 L193 0 C183 -15 177 -33 177 -52 C177 -103 221 -148 276 -148 C317 -148 367 -123 367 -100 C367 -88 355 -79 338 -79 C327 -79 319 -82 305 -93 C298 -98 293 -101 285 -101 C260 -101 240 -77 240 -49 C240 -26 254 -5 273 -1 C275 0 279 0 282 0 L476 0 C491 0 510 10 510 26 C510 41 494 47 480 47 L194 47 C174 47 164 55 164 75 L164 346 L303 346 C318 346 337 355 337 371 C337 386 321 393 307 393 L164 393 L164 592 L476 592 C491 592 510 602 510 618 C510 633 494 640 480 640 L480 640 Z " />
<glyph glyph-name="eogonek" unicode="&#x119;" horiz-adv-x="510" d="M136 196 L397 196 C411 196 430 205 430 222 L430 281 C430 383 343 450 246 450 C133 450 73 361 73 255 L73 170 C73 78 135 15 219 2 C207 -13 200 -33 200 -53 C200 -104 244 -149 299 -149 C340 -149 390 -124 390 -101 C390 -89 378 -80 361 -80 C350 -80 342 -83 328 -94 C321 -99 316 -102 308 -102 C283 -102 263 -78 263 -50 C263 -27 277 -6 296 -2 C298 -1 302 -1 305 -1 L327 -1 C347 -1 362 10 362 25 C362 38 350 46 334 46 C323 49 311 49 301 49 C200 49 136 81 136 196 L136 196 Z M136 244 C136 320 158 403 252 403 C343 403 367 318 367 244 L136 244 Z " />
<glyph glyph-name="Ecaron" unicode="&#x11a;" horiz-adv-x="585" d="M480 640 L134 640 C119 640 101 630 101 614 L101 71 C101 29 138 0 180 0 L476 0 C491 0 510 10 510 26 C510 41 494 47 480 47 L194 47 C174 47 164 55 164 75 L164 346 L303 346 C318 346 337 355 337 371 C337 386 321 393 307 393 L164 393 L164 592 L476 592 C491 592 510 602 510 618 C510 633 494 640 480 640 L480 640 Z M299 733 C309 733 319 737 325 743 L399 817 C404 822 407 828 407 833 C407 847 392 855 378 855 C368 855 358 852 352 846 L303 797 L252 848 C247 853 238 855 230 855 C215 855 196 846 196 830 C196 825 199 819 203 815 L277 741 C282 736 291 733 299 733 L299 733 Z " />
<glyph glyph-name="ecaron" unicode="&#x11b;" horiz-adv-x="510" d="M136 196 L397 196 C411 196 430 205 430 222 L430 281 C430 383 343 450 246 450 C133 450 73 361 73 255 L73 170 C73 67 151 0 251 0 L308 0 C323 0 358 0 358 22 C358 47 323 49 301 49 C200 49 136 81 136 196 L136 196 Z M136 244 C136 320 158 403 252 403 C343 403 367 318 367 244 L136 244 Z M261 536 C271 536 281 540 287 546 L361 620 C366 625 369 631 369 636 C369 650 354 658 340 658 C330 658 320 655 314 649 L265 600 L214 651 C209 656 200 658 192 658 C177 658 158 649 158 633 C158 628 161 622 165 618 L239 544 C244 539 253 536 261 536 L261 536 Z " />
<glyph glyph-name="Gcircumflex" unicode="&#x11c;" horiz-adv-x="609" d="M470 345 L470 214 C470 120 396 43 306 43 C215 43 139 122 139 218 L139 421 C139 508 223 592 310 592 L401 592 C419 592 435 604 435 617 C435 630 421 640 405 640 L306 640 C179 640 75 540 75 417 L75 214 C75 93 176 -5 302 -5 C429 -5 533 95 533 218 L533 371 C533 383 520 393 504 393 L306 393 C288 393 272 381 272 368 C272 355 286 345 302 345 L470 345 Z M301 789 L352 738 C357 733 366 730 374 730 C389 730 408 740 408 756 C408 761 405 767 401 771 L327 845 C322 850 313 852 305 852 C295 852 285 849 279 843 L205 769 C200 764 197 758 197 753 C197 739 212 730 226 730 C236 730 246 734 252 740 L301 789 Z " />
<glyph glyph-name="gcircumflex" unicode="&#x11d;" horiz-adv-x="557" d="M281 440 C195 440 125 373 125 291 C125 254 139 220 165 193 C113 185 76 146 76 97 C76 58 100 22 138 7 C114 -17 100 -48 100 -79 C100 -144 157 -197 228 -197 L326 -197 C399 -197 458 -142 458 -74 C458 -8 399 48 330 48 L191 48 C157 48 139 67 139 100 C139 131 157 147 188 147 L278 147 C363 147 433 214 433 295 C433 331 419 365 394 392 L473 392 C491 392 507 404 507 418 C507 430 494 440 478 440 L281 440 Z M233 -149 C196 -149 163 -116 163 -76 C163 -37 194 0 228 0 L326 0 C363 0 395 -36 395 -77 C395 -117 366 -149 330 -149 L233 -149 Z M370 292 C370 238 330 195 280 195 C229 195 188 239 188 294 C188 348 228 392 277 392 C328 392 370 347 370 292 L370 292 Z M277 586 L328 535 C333 530 342 527 350 527 C365 527 384 537 384 553 C384 558 381 564 377 568 L303 642 C298 647 289 649 281 649 C271 649 261 646 255 640 L181 566 C176 561 173 555 173 550 C173 536 188 527 202 527 C212 527 222 531 228 537 L277 586 Z " />
<glyph glyph-name="Gbreve" unicode="&#x11e;" horiz-adv-x="609" d="M470 345 L470 214 C470 120 396 43 306 43 C215 43 139 122 139 218 L139 421 C139 508 223 592 310 592 L401 592 C419 592 435 604 435 617 C435 630 421 640 405 640 L306 640 C179 640 75 540 75 417 L75 214 C75 93 176 -5 302 -5 C429 -5 533 95 533 218 L533 371 C533 383 520 393 504 393 L306 393 C288 393 272 381 272 368 C272 355 286 345 302 345 L470 345 Z M306 751 C278 752 266 777 262 804 C260 818 247 825 232 825 C218 825 199 815 199 799 C199 744 247 703 302 703 C360 703 410 746 410 803 C410 818 394 825 380 825 C365 825 349 817 347 801 C344 775 333 751 306 751 L306 751 Z " />
<glyph glyph-name="gbreve" unicode="&#x11f;" horiz-adv-x="557" d="M281 440 C195 440 125 373 125 291 C125 254 139 220 165 193 C113 185 76 146 76 97 C76 58 100 22 138 7 C114 -17 100 -48 100 -79 C100 -144 157 -197 228 -197 L326 -197 C399 -197 458 -142 458 -74 C458 -8 399 48 330 48 L191 48 C157 48 139 67 139 100 C139 131 157 147 188 147 L278 147 C363 147 433 214 433 295 C433 331 419 365 394 392 L473 392 C491 392 507 404 507 418 C507 430 494 440 478 440 L281 440 Z M284 575 C256 576 244 601 240 628 C238 642 225 649 210 649 C196 649 177 639 177 623 C177 568 225 527 280 527 C338 527 388 570 388 627 C388 642 372 649 358 649 C343 649 327 641 325 625 C322 599 311 575 284 575 L284 575 Z M370 292 C370 238 330 195 280 195 C229 195 188 239 188 294 C188 348 228 392 277 392 C328 392 370 347 370 292 L370 292 Z M233 -149 C196 -149 163 -116 163 -76 C163 -37 194 0 228 0 L326 0 C363 0 395 -36 395 -77 C395 -117 366 -149 330 -149 L233 -149 Z " />
<glyph glyph-name="Gdotaccent" unicode="&#x120;" horiz-adv-x="609" d="M470 345 L470 214 C470 120 396 43 306 43 C215 43 139 122 139 218 L139 421 C139 508 223 592 310 592 L401 592 C419 592 435 604 435 617 C435 630 421 640 405 640 L306 640 C179 640 75 540 75 417 L75 214 C75 93 176 -5 302 -5 C429 -5 533 95 533 218 L533 371 C533 383 520 393 504 393 L306 393 C288 393 272 381 272 368 C272 355 286 345 302 345 L470 345 Z M272 819 L272 745 C272 730 288 723 302 723 C317 723 336 733 336 749 L336 823 C336 837 320 844 306 844 C291 844 272 834 272 819 L272 819 Z " />
<glyph glyph-name="gdotaccent" unicode="&#x121;" horiz-adv-x="557" d="M281 440 C195 440 125 373 125 291 C125 254 139 220 165 193 C113 185 76 146 76 97 C76 58 100 22 138 7 C114 -17 100 -48 100 -79 C100 -144 157 -197 228 -197 L326 -197 C399 -197 458 -142 458 -74 C458 -8 399 48 330 48 L191 48 C157 48 139 67 139 100 C139 131 157 147 188 147 L278 147 C363 147 433 214 433 295 C433 331 419 365 394 392 L473 392 C491 392 507 404 507 418 C507 430 494 440 478 440 L281 440 Z M246 647 L246 573 C246 558 262 551 276 551 C291 551 310 561 310 577 L310 651 C310 665 294 672 280 672 C265 672 246 662 246 647 L246 647 Z M370 292 C370 238 330 195 280 195 C229 195 188 239 188 294 C188 348 228 392 277 392 C328 392 370 347 370 292 L370 292 Z M233 -149 C196 -149 163 -116 163 -76 C163 -37 194 0 228 0 L326 0 C363 0 395 -36 395 -77 C395 -117 366 -149 330 -149 L233 -149 Z " />
<glyph glyph-name="uni0122" unicode="&#x122;" horiz-adv-x="609" d="M470 345 L470 214 C470 120 396 43 306 43 C215 43 139 122 139 218 L139 421 C139 508 223 592 310 592 L401 592 C419 592 435 604 435 617 C435 630 421 640 405 640 L306 640 C179 640 75 540 75 417 L75 214 C75 103 161 11 272 -3 C282 -6 293 -6 302 -6 L306 -6 C306 -48 298 -82 287 -115 C285 -120 282 -129 282 -132 L282 -135 C282 -147 297 -154 310 -154 C358 -154 368 -43 370 5 C464 33 533 118 533 218 L533 371 C533 383 520 393 504 393 L306 393 C288 393 272 381 272 368 C272 355 286 345 302 345 L470 345 Z " />
<glyph glyph-name="uni0123" unicode="&#x123;" horiz-adv-x="507" d="M281 440 C195 440 125 373 125 291 C125 254 139 220 165 193 C113 185 76 146 76 97 C76 58 100 22 138 7 C114 -17 100 -48 100 -79 C100 -144 157 -197 228 -197 L326 -197 C399 -197 458 -142 458 -74 C458 -8 399 48 330 48 L191 48 C157 48 139 67 139 100 C139 131 157 147 188 147 L278 147 C363 147 433 214 433 295 C433 331 419 365 394 392 L473 392 C491 392 507 404 507 418 C507 430 494 440 478 440 L281 440 Z M233 -149 C196 -149 163 -116 163 -76 C163 -37 194 0 228 0 L326 0 C363 0 395 -36 395 -77 C395 -117 366 -149 330 -149 L233 -149 Z M370 292 C370 238 330 195 280 195 C229 195 188 239 188 294 C188 348 228 392 277 392 C328 392 370 347 370 292 L370 292 Z M348 676 C348 691 332 697 318 697 L269 697 C254 697 235 688 235 671 C235 650 263 650 280 650 L284 650 C284 608 276 574 265 541 C263 536 260 527 260 524 L260 521 C260 509 275 502 288 502 C342 502 348 645 348 676 L348 676 Z " />
<glyph glyph-name="Hcircumflex" unicode="&#x124;" horiz-adv-x="660" d="M164 26 L164 345 L496 345 L496 22 C496 7 511 0 525 0 C540 0 559 10 559 26 L559 618 C559 633 543 640 529 640 C514 640 496 630 496 614 L496 393 L164 393 L164 618 C164 633 148 640 134 640 C119 640 101 630 101 614 L101 22 C101 7 116 0 130 0 C145 0 164 10 164 26 L164 26 Z M329 759 L380 708 C385 703 394 700 402 700 C417 700 436 710 436 726 C436 731 433 737 429 741 L355 815 C350 820 341 822 333 822 C323 822 313 819 307 813 L233 739 C228 734 225 728 225 723 C225 709 240 700 254 700 C264 700 274 704 280 710 L329 759 Z " />
<glyph glyph-name="hcircumflex" unicode="&#x125;" horiz-adv-x="533" d="M458 26 L458 271 C458 365 379 440 281 440 L163 440 L163 614 C163 626 150 637 134 637 C116 637 100 625 100 611 L100 22 C100 10 114 0 130 0 C148 0 163 12 163 26 L163 393 L267 393 C349 393 395 338 395 238 L395 22 C395 10 408 0 424 0 C442 0 458 12 458 26 L458 26 Z M262 714 L313 663 C318 658 327 655 335 655 C350 655 369 665 369 681 C369 686 366 692 362 696 L288 770 C283 775 274 777 266 777 C256 777 246 774 240 768 L166 694 C161 689 158 683 158 678 C158 664 173 655 187 655 C197 655 207 659 213 665 L262 714 Z " />
<glyph glyph-name="Hbar" unicode="&#x126;" horiz-adv-x="660" d="M164 26 L164 345 L496 345 L496 22 C496 7 511 0 525 0 C540 0 559 10 559 26 L559 618 C559 633 543 640 529 640 C514 640 496 630 496 614 L496 393 L164 393 L164 618 C164 633 148 640 134 640 C119 640 101 630 101 614 L101 22 C101 7 116 0 130 0 C145 0 164 10 164 26 L164 26 Z M256 773 L404 773 C419 773 438 783 438 799 C438 813 422 820 408 820 L260 820 C246 820 227 810 227 795 C227 780 243 773 256 773 L256 773 Z " />
<glyph glyph-name="hbar" unicode="&#x127;" horiz-adv-x="533" d="M458 26 L458 271 C458 365 379 440 281 440 L163 440 L163 565 L228 565 C243 565 262 575 262 591 C262 605 246 612 232 612 L163 612 L163 614 C163 626 150 637 134 637 C117 637 101 626 100 612 L84 612 C70 612 51 602 51 587 C51 572 67 565 80 565 L100 565 L100 22 C100 10 114 0 130 0 C148 0 163 12 163 26 L163 393 L267 393 C349 393 395 338 395 238 L395 22 C395 10 408 0 424 0 C442 0 458 12 458 26 L458 26 Z " />
<glyph glyph-name="Itilde" unicode="&#x128;" horiz-adv-x="265" d="M164 26 L164 618 C164 633 148 640 134 640 C119 640 101 630 101 614 L101 22 C101 7 116 0 130 0 C145 0 164 10 164 26 L164 26 Z M185 762 C174 762 166 771 155 781 C131 803 113 812 88 812 C42 812 2 780 2 744 C2 725 14 714 35 714 C54 714 62 722 66 744 C68 758 72 764 78 764 C86 764 93 759 108 745 C123 731 141 714 177 714 C223 714 262 745 262 781 C262 800 251 811 230 811 C214 811 202 803 200 790 C196 767 192 762 185 762 L185 762 Z " />
<glyph glyph-name="itilde" unicode="&#x129;" horiz-adv-x="264" d="M100 415 L100 22 C100 8 116 0 130 0 C145 0 163 9 163 25 L163 418 C163 432 148 440 134 440 C119 440 100 431 100 415 L100 415 Z M186 599 C175 599 167 608 156 618 C132 640 114 649 89 649 C43 649 3 617 3 581 C3 562 15 551 36 551 C55 551 63 559 67 581 C69 595 73 601 79 601 C87 601 94 596 109 582 C124 568 142 551 178 551 C224 551 263 582 263 618 C263 637 252 648 231 648 C215 648 203 640 201 627 C197 604 193 599 186 599 L186 599 Z " />
<glyph glyph-name="Imacron" unicode="&#x12a;" horiz-adv-x="265" d="M164 26 L164 618 C164 633 148 640 134 640 C119 640 101 630 101 614 L101 22 C101 7 116 0 130 0 C145 0 164 10 164 26 L164 26 Z M57 709 L203 709 C221 709 244 720 244 738 C244 754 225 764 208 764 L62 764 C44 764 22 752 22 735 C22 718 41 709 57 709 L57 709 Z " />
<glyph glyph-name="imacron" unicode="&#x12b;" horiz-adv-x="264" d="M100 415 L100 22 C100 8 116 0 130 0 C145 0 163 9 163 25 L163 418 C163 432 148 440 134 440 C119 440 100 431 100 415 L100 415 Z M56 543 L204 543 C219 543 238 553 238 569 C238 583 222 590 208 590 L60 590 C46 590 27 580 27 565 C27 550 43 543 56 543 L56 543 Z " />
<glyph glyph-name="Ibreve" unicode="&#x12c;" horiz-adv-x="265" d="M164 26 L164 618 C164 633 148 640 134 640 C119 640 101 630 101 614 L101 22 C101 7 116 0 130 0 C145 0 164 10 164 26 L164 26 Z M134 751 C106 752 94 777 90 804 C88 818 75 825 60 825 C46 825 27 815 27 799 C27 744 75 703 130 703 C188 703 238 746 238 803 C238 818 222 825 208 825 C193 825 177 817 175 801 C172 775 161 751 134 751 L134 751 Z " />
<glyph glyph-name="ibreve" unicode="&#x12d;" horiz-adv-x="264" d="M100 415 L100 22 C100 8 116 0 130 0 C145 0 163 9 163 25 L163 418 C163 432 148 440 134 440 C119 440 100 431 100 415 L100 415 Z M134 545 C106 546 94 571 90 598 C88 612 75 619 60 619 C46 619 27 609 27 593 C27 538 75 497 130 497 C188 497 238 540 238 597 C238 612 222 619 208 619 C193 619 177 611 175 595 C172 569 161 545 134 545 L134 545 Z " />
<glyph glyph-name="Iogonek" unicode="&#x12e;" horiz-adv-x="265" d="M164 26 L164 618 C164 633 148 640 134 640 C119 640 101 630 101 614 L101 47 C46 42 2 -1 2 -52 C2 -103 46 -148 101 -148 C142 -148 192 -123 192 -100 C192 -88 180 -79 163 -79 C152 -79 144 -82 130 -93 C123 -98 118 -101 110 -101 C85 -101 65 -77 65 -49 C65 -26 79 -5 98 -1 C100 0 104 0 107 0 L129 0 C131 0 133 0 134 0 C152 2 164 12 164 26 L164 26 Z " />
<glyph glyph-name="iogonek" unicode="&#x12f;" horiz-adv-x="264" d="M100 415 L100 38 C63 22 37 -13 37 -52 C37 -103 81 -148 136 -148 C177 -148 227 -123 227 -100 C227 -88 215 -79 198 -79 C187 -79 179 -82 165 -93 C158 -98 153 -101 145 -101 C120 -101 100 -77 100 -49 C100 -26 114 -5 133 -1 C135 0 139 0 142 0 L164 0 C184 0 199 11 199 26 C199 39 187 47 170 47 L163 47 L163 418 C163 432 148 440 134 440 C119 440 100 431 100 415 L100 415 Z M163 565 L163 614 C163 626 150 637 134 637 C116 637 100 625 100 611 L100 562 C100 550 114 540 130 540 C148 540 163 551 163 565 L163 565 Z " />
<glyph glyph-name="Idotaccent" unicode="&#x130;" horiz-adv-x="265" d="M164 26 L164 618 C164 633 148 640 134 640 C119 640 101 630 101 614 L101 22 C101 7 116 0 130 0 C145 0 164 10 164 26 L164 26 Z M99 849 L99 775 C99 760 115 753 129 753 C144 753 163 763 163 779 L163 853 C163 867 147 874 133 874 C118 874 99 864 99 849 L99 849 Z " />
<glyph glyph-name="dotlessi" unicode="&#x131;" horiz-adv-x="264" d="M100 415 L100 22 C100 8 116 0 130 0 C145 0 163 9 163 25 L163 418 C163 432 148 440 134 440 C119 440 100 431 100 415 L100 415 Z " />
<glyph glyph-name="IJ" unicode="&#x132;" horiz-adv-x="660" d="M101 614 L101 269 C101 257 113 247 130 247 C148 247 164 258 164 272 L164 618 C164 630 151 640 135 640 C116 640 101 628 101 614 L101 614 Z M336 46 C299 46 265 60 225 88 C206 101 197 105 188 105 C173 105 159 93 159 80 C159 71 165 62 184 47 C225 15 271 -1 324 -1 C454 -1 559 99 559 222 L559 618 C559 630 546 640 529 640 C511 640 496 628 496 614 L496 221 C496 124 424 46 336 46 L336 46 Z " />
<glyph glyph-name="ij" unicode="&#x133;" horiz-adv-x="558" d="M100 415 L100 120 C100 108 114 98 130 98 C148 98 163 110 163 124 L163 418 C163 430 150 440 134 440 C116 440 100 429 100 415 L100 415 Z M395 611 L395 537 C395 525 408 515 424 515 C442 515 458 527 458 541 L458 614 C458 626 445 637 429 637 C411 637 395 625 395 611 L395 611 Z M100 611 L100 537 C100 525 114 515 130 515 C148 515 163 527 163 541 L163 614 C163 626 150 637 134 637 C116 637 100 625 100 611 L100 611 Z M285 -149 C253 -149 228 -134 206 -119 C194 -111 186 -105 175 -105 C159 -105 143 -118 143 -131 C143 -157 223 -197 286 -197 C376 -197 458 -119 458 -24 L458 418 C458 430 445 440 429 440 C411 440 396 428 395 415 L395 -16 C395 -92 347 -149 285 -149 L285 -149 Z " />
<glyph glyph-name="Jcircumflex" unicode="&#x134;" horiz-adv-x="413" d="M154 -5 C240 -5 311 62 311 144 L311 618 C311 630 298 640 281 640 C263 640 248 628 248 614 L248 142 C248 85 208 43 156 43 C130 43 107 54 88 76 C78 88 70 92 59 92 C40 92 26 80 26 64 C26 30 91 -5 154 -5 L154 -5 Z M205 759 L256 708 C261 703 270 700 278 700 C293 700 312 710 312 726 C312 731 309 737 305 741 L231 815 C226 820 217 822 209 822 C199 822 189 819 183 813 L109 739 C104 734 101 728 101 723 C101 709 116 700 130 700 C140 700 150 704 156 710 L205 759 Z " />
<glyph glyph-name="jcircumflex" unicode="&#x135;" horiz-adv-x="286" d="M-24 -174 C-24 -188 -9 -197 5 -197 C102 -197 186 -121 186 -24 L186 418 C186 432 171 440 157 440 C142 440 123 431 123 415 L123 -15 C123 -92 84 -144 8 -149 C-7 -150 -24 -158 -24 -174 L-24 -174 Z M142 586 L193 535 C198 530 207 527 215 527 C230 527 249 537 249 553 C249 558 246 564 242 568 L168 642 C163 647 154 649 146 649 C136 649 126 646 120 640 L46 566 C41 561 38 555 38 550 C38 536 53 527 67 527 C77 527 87 531 93 537 L142 586 Z " />
<glyph glyph-name="uni0136" unicode="&#x136;" horiz-adv-x="635" d="M164 26 L164 335 L267 406 L498 12 C503 4 515 0 524 0 C540 0 559 13 559 29 L318 441 L546 598 C552 603 559 610 559 618 C559 633 543 640 529 640 C521 640 515 637 509 634 L164 397 L164 618 C164 633 148 640 134 640 C119 640 101 630 101 614 L101 22 C101 7 116 0 130 0 C145 0 164 10 164 26 L164 26 Z M371 25 C371 40 355 46 341 46 L292 46 C277 46 258 37 258 20 C258 -1 286 -1 303 -1 L307 -1 C307 -43 299 -77 288 -110 C286 -115 283 -124 283 -127 L283 -130 C283 -142 298 -149 311 -149 C365 -149 371 -6 371 25 L371 25 Z " />
<glyph glyph-name="uni0137" unicode="&#x137;" horiz-adv-x="533" d="M163 25 L163 257 L254 302 L396 15 C401 4 409 -1 421 -1 C438 -1 458 16 458 29 C458 32 457 35 455 39 L308 329 L441 396 C451 401 458 410 458 418 C458 430 445 440 429 440 C423 440 417 438 412 436 L163 312 L163 614 C163 626 150 636 134 636 C116 636 100 625 100 611 L100 22 C100 10 114 -1 130 -1 C148 -1 163 11 163 25 L163 25 Z M321 19 C321 34 305 40 291 40 L242 40 C227 40 208 31 208 14 C208 -7 236 -7 253 -7 L257 -7 C257 -49 249 -83 238 -116 C236 -121 233 -130 233 -133 L233 -136 C233 -148 248 -155 261 -155 C315 -155 321 -12 321 19 L321 19 Z " />
<glyph glyph-name="kgreenlandic" unicode="&#x138;" horiz-adv-x="533" d="M163 25 L163 257 L237 294 L398 12 C403 4 414 0 424 0 C439 0 458 9 458 25 C458 28 457 32 455 36 L291 321 L441 396 C450 401 458 409 458 418 C458 432 443 440 429 440 C423 440 417 439 412 437 L163 312 L163 418 C163 432 148 440 134 440 C119 440 100 431 100 415 L100 22 C100 8 116 0 130 0 C145 0 163 9 163 25 L163 25 Z " />
<glyph glyph-name="Lacute" unicode="&#x139;" horiz-adv-x="486" d="M164 47 L164 618 C164 633 148 640 134 640 C119 640 101 630 101 614 L101 22 C101 7 116 0 130 0 L427 0 C442 0 460 10 460 26 C460 41 445 47 431 47 L164 47 Z M175 717 C175 703 190 695 204 695 C214 695 224 699 230 705 L304 779 C309 784 312 790 312 795 C312 809 297 817 283 817 C273 817 263 813 257 807 L183 733 C178 728 175 722 175 717 L175 717 Z " />
<glyph glyph-name="lacute" unicode="&#x13a;" horiz-adv-x="264" d="M100 611 L100 592 L72 564 C67 559 64 553 64 548 C64 534 79 526 93 526 C95 526 98 526 100 527 L100 22 C100 8 116 0 130 0 C145 0 163 9 163 25 L163 580 L193 610 C198 615 201 621 201 626 C201 640 186 648 172 648 C162 648 152 644 146 638 L144 636 C140 637 137 637 134 637 C119 637 100 627 100 611 L100 611 Z " />
<glyph glyph-name="uni013B" unicode="&#x13b;" horiz-adv-x="486" d="M164 47 L164 618 C164 633 148 640 134 640 C119 640 101 630 101 614 L101 22 C101 7 116 0 130 0 L240 0 C249 -7 266 -7 278 -7 L282 -7 C282 -49 274 -83 263 -116 C261 -121 258 -130 258 -133 L258 -136 C258 -148 273 -155 286 -155 C332 -155 343 -49 346 0 L427 0 C442 0 460 10 460 26 C460 41 445 47 431 47 L164 47 Z " />
<glyph glyph-name="uni013C" unicode="&#x13c;" horiz-adv-x="264" d="M100 611 L100 40 C88 37 76 28 76 15 C76 -6 104 -6 121 -6 L125 -6 C125 -48 117 -82 106 -115 C104 -120 101 -129 101 -132 L101 -135 C101 -147 116 -154 129 -154 C183 -154 189 -11 189 20 C189 34 176 40 163 41 L163 614 C163 628 148 637 134 637 C119 637 100 627 100 611 L100 611 Z " />
<glyph glyph-name="Lcaron" unicode="&#x13d;" horiz-adv-x="459" d="M164 47 L164 618 C164 633 148 640 134 640 C119 640 101 630 101 614 L101 22 C101 7 116 0 130 0 L427 0 C442 0 460 10 460 26 C460 41 445 47 431 47 L164 47 Z M227 703 C237 703 247 707 253 713 L327 787 C332 792 335 798 335 803 C335 817 320 825 306 825 C296 825 286 822 280 816 L231 767 L180 818 C175 823 166 825 158 825 C143 825 124 816 124 800 C124 795 127 789 131 785 L205 711 C210 706 219 703 227 703 L227 703 Z " />
<glyph glyph-name="lcaron" unicode="&#x13e;" horiz-adv-x="262" d="M164 26 L164 618 C164 633 148 640 134 640 C119 640 101 630 101 614 L101 22 C101 7 116 0 130 0 C145 0 164 10 164 26 L164 26 Z M130 703 C140 703 150 707 156 713 L230 787 C235 792 238 798 238 803 C238 817 223 825 209 825 C199 825 189 822 183 816 L134 767 L83 818 C78 823 69 825 61 825 C46 825 27 816 27 800 C27 795 30 789 34 785 L108 711 C113 706 122 703 130 703 L130 703 Z " />
<glyph glyph-name="Ldot" unicode="&#x13f;" horiz-adv-x="459" d="M164 47 L164 618 C164 633 148 640 134 640 C119 640 101 630 101 614 L101 22 C101 7 116 0 130 0 L427 0 C442 0 460 10 460 26 C460 41 445 47 431 47 L164 47 Z M201 646 L201 572 C201 557 217 550 231 550 C246 550 265 560 265 576 L265 650 C265 664 249 671 235 671 C220 671 201 661 201 646 L201 646 Z " />
<glyph glyph-name="ldot" unicode="&#x140;" horiz-adv-x="361" d="M100 611 L100 22 C100 8 116 0 130 0 C145 0 163 9 163 25 L163 614 C163 628 148 637 134 637 C119 637 100 627 100 611 L100 611 Z M194 447 L194 373 C194 358 210 351 224 351 C239 351 258 361 258 377 L258 451 C258 465 242 472 228 472 C213 472 194 462 194 447 L194 447 Z " />
<glyph glyph-name="Lslash" unicode="&#x141;" horiz-adv-x="534" d="M164 47 L164 294 L249 351 C256 356 262 363 262 371 C262 385 247 393 233 393 C225 393 218 391 212 387 L164 355 L164 618 C164 633 148 640 134 640 C119 640 101 630 101 614 L101 314 L64 289 C57 284 51 277 51 269 C51 255 66 247 80 247 C88 247 95 248 101 252 L101 22 C101 7 116 0 130 0 L427 0 C442 0 460 10 460 26 C460 41 445 47 431 47 L164 47 Z " />
<glyph glyph-name="lslash" unicode="&#x142;" horiz-adv-x="411" d="M100 611 L100 311 L65 287 C58 282 52 274 52 267 C52 253 68 245 82 245 C89 245 95 246 100 249 L100 22 C100 8 116 0 130 0 C145 0 163 9 163 25 L163 292 L250 351 C257 356 263 364 263 371 C263 385 247 393 233 393 C225 393 218 391 212 387 L163 354 L163 614 C163 628 148 637 134 637 C119 637 100 627 100 611 L100 611 Z " />
<glyph glyph-name="Nacute" unicode="&#x143;" horiz-adv-x="659" d="M135 640 C120 640 101 630 101 614 L101 22 C101 8 116 0 130 0 C145 0 164 9 164 25 L164 551 L496 260 L496 22 C496 8 511 0 525 0 C540 0 559 9 559 25 L559 618 C559 632 544 640 530 640 C515 640 496 630 496 614 L496 336 L156 633 C151 638 143 640 135 640 L135 640 Z M261 717 C261 703 276 695 290 695 C300 695 310 699 316 705 L390 779 C395 784 398 790 398 795 C398 809 383 817 369 817 C359 817 349 813 343 807 L269 733 C264 728 261 722 261 717 L261 717 Z " />
<glyph glyph-name="nacute" unicode="&#x144;" horiz-adv-x="534" d="M163 393 L277 393 C348 393 395 334 395 247 L395 22 C395 9 406 0 423 0 C441 0 458 12 458 26 L458 271 C458 365 379 440 281 440 L134 440 C116 440 100 428 100 414 L100 22 C100 10 113 0 130 0 C148 0 163 12 163 26 L163 393 Z M199 548 C199 534 214 526 228 526 C238 526 248 530 254 536 L328 610 C333 615 336 621 336 626 C336 640 321 648 307 648 C297 648 287 644 281 638 L207 564 C202 559 199 553 199 548 L199 548 Z " />
<glyph glyph-name="uni0145" unicode="&#x145;" horiz-adv-x="659" d="M135 640 C120 640 101 630 101 614 L101 22 C101 8 116 0 130 0 C145 0 164 9 164 25 L164 551 L496 260 L496 22 C496 8 511 0 525 0 C540 0 559 9 559 25 L559 618 C559 632 544 640 530 640 C515 640 496 630 496 614 L496 336 L156 633 C151 638 143 640 135 640 L135 640 Z M396 25 C396 40 380 46 366 46 L317 46 C302 46 283 37 283 20 C283 -1 311 -1 328 -1 L332 -1 C332 -43 324 -77 313 -110 C311 -115 308 -124 308 -127 L308 -130 C308 -142 323 -149 336 -149 C390 -149 396 -6 396 25 L396 25 Z " />
<glyph glyph-name="uni0146" unicode="&#x146;" horiz-adv-x="534" d="M163 393 L277 393 C348 393 395 334 395 247 L395 22 C395 9 406 0 423 0 C441 0 458 12 458 26 L458 271 C458 365 379 440 281 440 L134 440 C116 440 100 428 100 414 L100 22 C100 10 113 0 130 0 C148 0 163 12 163 26 L163 393 Z M332 25 C332 40 316 46 302 46 L253 46 C238 46 219 37 219 20 C219 -1 247 -1 264 -1 L268 -1 C268 -43 260 -77 249 -110 C247 -115 244 -124 244 -127 L244 -130 C244 -142 259 -149 272 -149 C326 -149 332 -6 332 25 L332 25 Z " />
<glyph glyph-name="Ncaron" unicode="&#x147;" horiz-adv-x="659" d="M135 640 C120 640 101 630 101 614 L101 22 C101 8 116 0 130 0 C145 0 164 9 164 25 L164 551 L496 260 L496 22 C496 8 511 0 525 0 C540 0 559 9 559 25 L559 618 C559 632 544 640 530 640 C515 640 496 630 496 614 L496 336 L156 633 C151 638 143 640 135 640 L135 640 Z M327 703 C337 703 347 707 353 713 L427 787 C432 792 435 798 435 803 C435 817 420 825 406 825 C396 825 386 822 380 816 L331 767 L280 818 C275 823 266 825 258 825 C243 825 224 816 224 800 C224 795 227 789 231 785 L305 711 C310 706 319 703 327 703 L327 703 Z " />
<glyph glyph-name="ncaron" unicode="&#x148;" horiz-adv-x="534" d="M163 393 L277 393 C348 393 395 334 395 247 L395 22 C395 9 406 0 423 0 C441 0 458 12 458 26 L458 271 C458 365 379 440 281 440 L134 440 C116 440 100 428 100 414 L100 22 C100 10 113 0 130 0 C148 0 163 12 163 26 L163 393 Z M265 528 C275 528 285 532 291 538 L365 612 C370 617 373 623 373 628 C373 642 358 650 344 650 C334 650 324 647 318 641 L269 592 L218 643 C213 648 204 650 196 650 C181 650 162 641 162 625 C162 620 165 614 169 610 L243 536 C248 531 257 528 265 528 L265 528 Z " />
<glyph glyph-name="napostrophe" unicode="&#x149;" horiz-adv-x="533" d="M163 393 L277 393 C348 393 395 334 395 247 L395 22 C395 9 406 0 423 0 C441 0 458 12 458 26 L458 271 C458 365 379 440 281 440 L134 440 C116 440 100 428 100 414 L100 22 C100 10 113 0 130 0 C148 0 163 12 163 26 L163 393 Z M114 627 C114 642 98 648 84 648 L35 648 C20 648 1 639 1 622 C1 601 29 601 46 601 L50 601 C50 559 42 525 31 492 C29 487 26 478 26 475 L26 472 C26 460 41 453 54 453 C108 453 114 596 114 627 L114 627 Z " />
<glyph glyph-name="Eng" unicode="&#x14a;" horiz-adv-x="659" d="M558 -26 L558 19 C559 21 559 23 559 25 L559 618 C559 632 544 640 530 640 C515 640 496 630 496 614 L496 336 L156 633 C151 638 143 640 135 640 C120 640 101 630 101 614 L101 22 C101 8 116 0 130 0 C145 0 164 9 164 25 L164 551 L496 260 L496 33 C495 30 495 26 495 22 L495 -15 C495 -105 457 -150 380 -150 C362 -150 347 -162 347 -176 C347 -188 360 -197 377 -197 C487 -197 558 -130 558 -26 L558 -26 Z " />
<glyph glyph-name="eng" unicode="&#x14b;" horiz-adv-x="509" d="M433 -25 L433 270 C433 363 354 440 257 440 L109 440 C91 440 76 428 76 414 L76 22 C76 10 88 0 105 0 C123 0 139 12 139 26 L139 393 L251 393 C319 393 370 339 370 267 L370 -28 C370 -98 325 -149 263 -149 L258 -149 C237 -149 223 -159 223 -174 C223 -187 237 -196 253 -196 C352 -196 433 -119 433 -25 L433 -25 Z " />
<glyph glyph-name="Omacron" unicode="&#x14c;" horiz-adv-x="609" d="M533 218 L533 430 C533 551 431 650 306 650 C179 650 75 549 75 427 L75 214 C75 93 177 -5 302 -5 C429 -5 533 96 533 218 L533 218 Z M229 709 L375 709 C393 709 416 720 416 738 C416 754 397 764 380 764 L234 764 C216 764 194 752 194 735 C194 718 213 709 229 709 L229 709 Z M306 43 C216 43 138 124 138 218 L138 430 C138 524 212 602 302 602 C394 602 470 523 470 427 L470 214 C470 120 396 43 306 43 L306 43 Z " />
<glyph glyph-name="omacron" unicode="&#x14d;" horiz-adv-x="509" d="M76 164 C76 70 154 -5 252 -5 C352 -5 433 73 433 168 L433 281 C433 375 355 450 257 450 C157 450 76 372 76 277 L76 164 Z M181 573 L329 573 C344 573 363 583 363 599 C363 613 347 620 333 620 L185 620 C171 620 152 610 152 595 C152 580 168 573 181 573 L181 573 Z M139 281 C139 348 190 402 253 402 C318 402 370 345 370 277 L370 164 C370 97 320 43 257 43 C193 43 139 101 139 168 L139 281 Z " />
<glyph glyph-name="Obreve" unicode="&#x14e;" horiz-adv-x="609" d="M533 218 L533 430 C533 551 431 650 306 650 C179 650 75 549 75 427 L75 214 C75 93 177 -5 302 -5 C429 -5 533 96 533 218 L533 218 Z M314 781 C286 782 274 807 270 834 C268 848 255 855 240 855 C226 855 207 845 207 829 C207 774 255 733 310 733 C368 733 418 776 418 833 C418 848 402 855 388 855 C373 855 357 847 355 831 C352 805 341 781 314 781 L314 781 Z M306 43 C216 43 138 124 138 218 L138 430 C138 524 212 602 302 602 C394 602 470 523 470 427 L470 214 C470 120 396 43 306 43 L306 43 Z " />
<glyph glyph-name="obreve" unicode="&#x14f;" horiz-adv-x="509" d="M76 164 C76 70 154 -5 252 -5 C352 -5 433 73 433 168 L433 281 C433 375 355 450 257 450 C157 450 76 372 76 277 L76 164 Z M259 575 C231 576 219 601 215 628 C213 642 200 649 185 649 C171 649 152 639 152 623 C152 568 200 527 255 527 C313 527 363 570 363 627 C363 642 347 649 333 649 C318 649 302 641 300 625 C297 599 286 575 259 575 L259 575 Z M139 281 C139 348 190 402 253 402 C318 402 370 345 370 277 L370 164 C370 97 320 43 257 43 C193 43 139 101 139 168 L139 281 Z " />
<glyph glyph-name="Ohungarumlaut" unicode="&#x150;" horiz-adv-x="609" d="M533 218 L533 430 C533 551 431 650 306 650 C179 650 75 549 75 427 L75 214 C75 93 177 -5 302 -5 C429 -5 533 96 533 218 L533 218 Z M306 43 C216 43 138 124 138 218 L138 430 C138 524 212 602 302 602 C394 602 470 523 470 427 L470 214 C470 120 396 43 306 43 L306 43 Z M209 747 C209 733 224 725 238 725 C248 725 258 729 264 735 L338 809 C343 814 346 820 346 825 C346 839 331 847 317 847 C307 847 297 843 291 837 L217 763 C212 758 209 752 209 747 L209 747 Z M361 747 C361 733 376 725 390 725 C400 725 410 729 416 735 L490 809 C495 814 498 820 498 825 C498 839 483 847 469 847 C459 847 449 843 443 837 L369 763 C364 758 361 752 361 747 L361 747 Z " />
<glyph glyph-name="ohungarumlaut" unicode="&#x151;" horiz-adv-x="509" d="M76 164 C76 70 154 -5 252 -5 C352 -5 433 73 433 168 L433 281 C433 375 355 450 257 450 C157 450 76 372 76 277 L76 164 Z M148 552 C148 535 167 526 183 526 C195 526 207 530 214 537 L287 610 C293 616 297 623 297 629 C297 646 278 655 261 655 C248 655 238 651 231 644 L158 571 C152 565 148 558 148 552 L148 552 Z M296 552 C296 535 315 526 331 526 C343 526 355 530 362 537 L435 610 C441 616 445 623 445 629 C445 646 426 655 409 655 C397 655 386 651 379 644 L306 571 C300 565 296 558 296 552 L296 552 Z M139 281 C139 348 190 402 253 402 C318 402 370 345 370 277 L370 164 C370 97 320 43 257 43 C193 43 139 101 139 168 L139 281 Z " />
<glyph glyph-name="OE" unicode="&#x152;" horiz-adv-x="953" d="M851 640 L505 640 C490 640 472 630 472 614 L472 580 C431 623 371 650 306 650 C179 650 75 549 75 427 L75 214 C75 93 177 -5 302 -5 C369 -5 430 23 472 68 C474 28 510 0 551 0 L847 0 C862 0 881 10 881 26 C881 41 865 47 851 47 L565 47 C545 47 535 55 535 75 L535 346 L674 346 C689 346 708 355 708 371 C708 386 692 393 678 393 L535 393 L535 592 L847 592 C862 592 881 602 881 618 C881 633 865 640 851 640 L851 640 Z M306 43 C216 43 138 124 138 218 L138 430 C138 524 212 602 302 602 C394 602 470 523 470 427 L470 214 C470 120 396 43 306 43 L306 43 Z " />
<glyph glyph-name="oe" unicode="&#x153;" horiz-adv-x="802" d="M76 164 C76 70 154 -5 252 -5 C313 -5 367 24 400 68 C432 25 485 0 546 0 L603 0 C618 0 653 0 653 22 C653 47 618 49 596 49 C505 49 444 75 433 164 C433 165 433 167 433 168 L433 196 L692 196 C706 196 725 205 725 222 L725 281 C725 383 638 450 541 450 C477 450 430 422 402 378 C370 422 317 450 257 450 C157 450 76 372 76 277 L76 164 Z M139 281 C139 348 190 402 253 402 C315 402 366 350 370 286 C369 276 368 265 368 255 L368 170 C368 163 368 156 369 149 C362 89 315 43 257 43 C193 43 139 101 139 168 L139 281 Z M433 244 L433 281 C440 345 468 403 547 403 C638 403 662 318 662 244 L433 244 Z " />
<glyph glyph-name="Racute" unicode="&#x154;" horiz-adv-x="585" d="M330 345 L341 345 C439 345 510 407 510 492 C510 575 442 640 357 640 L134 640 C117 640 101 628 101 614 L101 22 C101 10 113 0 130 0 C147 0 164 12 164 26 L164 592 L353 592 C405 592 446 546 446 488 C446 427 398 393 313 393 L281 393 C264 393 253 383 253 370 C253 365 254 360 258 354 L447 13 C452 3 460 0 470 0 C488 0 510 17 510 31 L330 345 Z M224 717 C224 703 239 695 253 695 C263 695 273 699 279 705 L353 779 C358 784 361 790 361 795 C361 809 346 817 332 817 C322 817 312 813 306 807 L232 733 C227 728 224 722 224 717 L224 717 Z " />
<glyph glyph-name="racute" unicode="&#x155;" horiz-adv-x="312" d="M76 277 L76 22 C76 10 89 0 105 0 C123 0 139 11 139 25 L139 248 C139 336 182 400 242 400 C269 401 286 412 286 428 C286 440 273 450 257 450 C158 450 76 372 76 277 L76 277 Z M88 548 C88 534 103 526 117 526 C127 526 137 530 143 536 L217 610 C222 615 225 621 225 626 C225 640 210 648 196 648 C186 648 176 644 170 638 L96 564 C91 559 88 553 88 548 L88 548 Z " />
<glyph glyph-name="uni0156" unicode="&#x156;" horiz-adv-x="585" d="M330 345 L341 345 C439 345 510 407 510 492 C510 575 442 640 357 640 L134 640 C117 640 101 628 101 614 L101 22 C101 10 113 0 130 0 C147 0 164 12 164 26 L164 592 L353 592 C405 592 446 546 446 488 C446 427 398 393 313 393 L281 393 C264 393 253 383 253 370 C253 365 254 360 258 354 L447 13 C452 3 460 0 470 0 C488 0 510 17 510 31 L330 345 Z M346 25 C346 40 330 46 316 46 L267 46 C252 46 233 37 233 20 C233 -1 261 -1 278 -1 L282 -1 C282 -43 274 -77 263 -110 C261 -115 258 -124 258 -127 L258 -130 C258 -142 273 -149 286 -149 C340 -149 346 -6 346 25 L346 25 Z " />
<glyph glyph-name="uni0157" unicode="&#x157;" horiz-adv-x="312" d="M76 277 L76 43 C66 39 58 31 58 20 C58 -1 86 -1 103 -1 L107 -1 C107 -43 99 -77 88 -110 C86 -115 83 -124 83 -127 L83 -130 C83 -142 98 -149 111 -149 C165 -149 171 -6 171 25 C171 40 155 46 141 46 L139 46 L139 248 C139 336 182 400 242 400 C269 401 286 412 286 428 C286 440 273 450 257 450 C158 450 76 372 76 277 L76 277 Z " />
<glyph glyph-name="Rcaron" unicode="&#x158;" horiz-adv-x="585" d="M330 345 L341 345 C439 345 510 407 510 492 C510 575 442 640 357 640 L134 640 C117 640 101 628 101 614 L101 22 C101 10 113 0 130 0 C147 0 164 12 164 26 L164 592 L353 592 C405 592 446 546 446 488 C446 427 398 393 313 393 L281 393 C264 393 253 383 253 370 C253 365 254 360 258 354 L447 13 C452 3 460 0 470 0 C488 0 510 17 510 31 L330 345 Z M290 703 C300 703 310 707 316 713 L390 787 C395 792 398 798 398 803 C398 817 383 825 369 825 C359 825 349 822 343 816 L294 767 L243 818 C238 823 229 825 221 825 C206 825 187 816 187 800 C187 795 190 789 194 785 L268 711 C273 706 282 703 290 703 L290 703 Z " />
<glyph glyph-name="rcaron" unicode="&#x159;" horiz-adv-x="312" d="M76 277 L76 22 C76 10 89 0 105 0 C123 0 139 11 139 25 L139 248 C139 336 182 400 242 400 C269 401 286 412 286 428 C286 440 273 450 257 450 C158 450 76 372 76 277 L76 277 Z M154 528 C164 528 174 532 180 538 L254 612 C259 617 262 623 262 628 C262 642 247 650 233 650 C223 650 213 647 207 641 L158 592 L107 643 C102 648 93 650 85 650 C70 650 51 641 51 625 C51 620 54 614 58 610 L132 536 C137 531 146 528 154 528 L154 528 Z " />
<glyph glyph-name="Sacute" unicode="&#x15a;" horiz-adv-x="577" d="M279 -5 C412 -5 502 68 502 181 C502 303 399 339 305 372 C198 410 164 437 164 485 C164 548 220 597 289 597 C333 597 364 591 399 574 C412 568 419 566 426 566 C445 566 460 577 460 590 C460 618 383 645 309 645 C189 645 101 574 101 479 C101 412 144 373 274 327 C356 298 438 270 438 173 C438 92 380 43 284 43 C235 43 196 56 138 95 L136 97 C121 107 113 111 106 111 C92 111 76 98 76 86 C76 78 81 70 95 58 L98 55 C143 16 207 -5 279 -5 L279 -5 Z M220 717 C220 703 235 695 249 695 C259 695 269 699 275 705 L349 779 C354 784 357 790 357 795 C357 809 342 817 328 817 C318 817 308 813 302 807 L228 733 C223 728 220 722 220 717 L220 717 Z " />
<glyph glyph-name="sacute" unicode="&#x15b;" horiz-adv-x="431" d="M356 124 C356 181 321 219 174 282 C150 294 129 312 129 340 C129 374 160 399 200 399 C217 399 233 394 264 381 C272 378 282 374 292 374 C307 374 323 386 323 397 C323 421 252 446 200 446 C124 446 65 393 65 332 C65 270 127 244 135 241 C266 187 293 160 293 118 C293 70 258 42 201 42 C170 42 145 51 109 76 L107 78 C95 86 88 89 80 89 C65 89 50 76 50 64 C50 35 136 -5 208 -5 C291 -5 356 46 356 124 L356 124 Z M147 548 C147 534 162 526 176 526 C186 526 196 530 202 536 L276 610 C281 615 284 621 284 626 C284 640 269 648 255 648 C245 648 235 644 229 638 L155 564 C150 559 147 553 147 548 L147 548 Z " />
<glyph glyph-name="Scircumflex" unicode="&#x15c;" horiz-adv-x="577" d="M279 -5 C412 -5 502 68 502 181 C502 303 399 339 305 372 C198 410 164 437 164 485 C164 548 220 597 289 597 C333 597 364 591 399 574 C412 568 419 566 426 566 C445 566 460 577 460 590 C460 618 383 645 309 645 C189 645 101 574 101 479 C101 412 144 373 274 327 C356 298 438 270 438 173 C438 92 380 43 284 43 C235 43 196 56 138 95 L136 97 C121 107 113 111 106 111 C92 111 76 98 76 86 C76 78 81 70 95 58 L98 55 C143 16 207 -5 279 -5 L279 -5 Z M287 759 L338 708 C343 703 352 700 360 700 C375 700 394 710 394 726 C394 731 391 737 387 741 L313 815 C308 820 299 822 291 822 C281 822 271 819 265 813 L191 739 C186 734 183 728 183 723 C183 709 198 700 212 700 C222 700 232 704 238 710 L287 759 Z " />
<glyph glyph-name="scircumflex" unicode="&#x15d;" horiz-adv-x="431" d="M356 124 C356 181 321 219 174 282 C150 294 129 312 129 340 C129 374 160 399 200 399 C217 399 233 394 264 381 C272 378 282 374 292 374 C307 374 323 386 323 397 C323 421 252 446 200 446 C124 446 65 393 65 332 C65 270 127 244 135 241 C266 187 293 160 293 118 C293 70 258 42 201 42 C170 42 145 51 109 76 L107 78 C95 86 88 89 80 89 C65 89 50 76 50 64 C50 35 136 -5 208 -5 C291 -5 356 46 356 124 L356 124 Z M214 586 L265 535 C270 530 279 527 287 527 C302 527 321 537 321 553 C321 558 318 564 314 568 L240 642 C235 647 226 649 218 649 C208 649 198 646 192 640 L118 566 C113 561 110 555 110 550 C110 536 125 527 139 527 C149 527 159 531 165 537 L214 586 Z " />
<glyph glyph-name="Scedilla" unicode="&#x15e;" horiz-adv-x="577" d="M279 -148 C336 -148 383 -101 383 -48 C383 -28 376 -9 365 7 C449 31 502 94 502 181 C502 303 399 339 305 372 C198 410 164 437 164 485 C164 548 220 597 289 597 C333 597 364 591 399 574 C412 568 419 566 426 566 C445 566 460 577 460 590 C460 618 383 645 309 645 C189 645 101 574 101 479 C101 412 144 373 274 327 C356 298 438 270 438 173 C438 98 389 51 306 44 C298 46 289 47 280 47 L255 47 C252 47 249 47 246 46 C213 52 180 66 138 95 L136 97 C121 107 113 111 106 111 C92 111 76 98 76 86 C76 78 81 70 95 58 L98 55 C152 8 221 -5 290 -5 C308 -13 319 -30 319 -51 C319 -79 301 -101 278 -101 C270 -101 265 -98 258 -92 C244 -81 237 -79 229 -79 C209 -79 194 -91 194 -104 C194 -126 240 -148 279 -148 L279 -148 Z " />
<glyph glyph-name="scedilla" unicode="&#x15f;" horiz-adv-x="431" d="M222 -153 C279 -153 326 -106 326 -53 C326 -25 314 -1 293 16 C332 38 356 76 356 124 C356 181 321 219 174 282 C150 294 129 312 129 340 C129 374 160 399 200 399 C217 399 233 394 264 381 C272 378 282 374 292 374 C307 374 323 386 323 397 C323 421 252 446 200 446 C124 446 65 393 65 332 C65 270 127 244 135 241 C266 187 293 160 293 118 C293 70 258 42 201 42 C170 42 145 51 109 76 L107 78 C95 86 88 89 80 89 C65 89 50 76 50 64 C50 38 120 3 186 -4 C190 -5 196 -5 202 -5 L211 -5 C240 -5 262 -27 262 -56 C262 -84 244 -106 221 -106 C213 -106 208 -103 201 -97 C187 -86 180 -84 172 -84 C152 -84 137 -96 137 -109 C137 -131 183 -153 222 -153 L222 -153 Z " />
<glyph glyph-name="Scaron" unicode="&#x160;" horiz-adv-x="577" d="M279 -5 C412 -5 502 68 502 181 C502 303 399 339 305 372 C198 410 164 437 164 485 C164 548 220 597 289 597 C333 597 364 591 399 574 C412 568 419 566 426 566 C445 566 460 577 460 590 C460 618 383 645 309 645 C189 645 101 574 101 479 C101 412 144 373 274 327 C356 298 438 270 438 173 C438 92 380 43 284 43 C235 43 196 56 138 95 L136 97 C121 107 113 111 106 111 C92 111 76 98 76 86 C76 78 81 70 95 58 L98 55 C143 16 207 -5 279 -5 L279 -5 Z M286 703 C296 703 306 707 312 713 L386 787 C391 792 394 798 394 803 C394 817 379 825 365 825 C355 825 345 822 339 816 L290 767 L239 818 C234 823 225 825 217 825 C202 825 183 816 183 800 C183 795 186 789 190 785 L264 711 C269 706 278 703 286 703 L286 703 Z " />
<glyph glyph-name="scaron" unicode="&#x161;" horiz-adv-x="431" d="M356 124 C356 181 321 219 174 282 C150 294 129 312 129 340 C129 374 160 399 200 399 C217 399 233 394 264 381 C272 378 282 374 292 374 C307 374 323 386 323 397 C323 421 252 446 200 446 C124 446 65 393 65 332 C65 270 127 244 135 241 C266 187 293 160 293 118 C293 70 258 42 201 42 C170 42 145 51 109 76 L107 78 C95 86 88 89 80 89 C65 89 50 76 50 64 C50 35 136 -5 208 -5 C291 -5 356 46 356 124 L356 124 Z M213 528 C223 528 233 532 239 538 L313 612 C318 617 321 623 321 628 C321 642 306 650 292 650 C282 650 272 647 266 641 L217 592 L166 643 C161 648 152 650 144 650 C129 650 110 641 110 625 C110 620 113 614 117 610 L191 536 C196 531 205 528 213 528 L213 528 Z " />
<glyph glyph-name="uni0162" unicode="&#x162;" horiz-adv-x="461" d="M56 592 L194 592 L194 27 C193 25 193 23 193 21 C193 12 198 6 209 3 C214 0 220 0 226 0 C227 0 229 0 231 0 L240 0 C269 0 291 -22 291 -51 C291 -79 273 -101 250 -101 C242 -101 237 -98 230 -92 C216 -81 209 -79 201 -79 C181 -79 166 -91 166 -104 C166 -126 212 -148 251 -148 C308 -148 355 -101 355 -48 C355 3 312 45 257 47 L257 592 L402 592 C417 592 436 602 436 618 C436 633 420 640 406 640 L232 640 C230 640 229 640 227 640 C225 640 224 640 222 640 L60 640 C45 640 26 630 26 614 C26 599 42 592 56 592 L56 592 Z " />
<glyph glyph-name="uni0163" unicode="&#x163;" horiz-adv-x="409" d="M306 -152 C363 -152 410 -105 410 -52 C410 1 364 43 307 43 L296 43 C237 43 187 102 187 171 L187 392 L349 392 C367 392 383 404 383 418 C383 430 370 440 354 440 L187 440 L187 516 C187 528 174 538 158 538 C140 538 124 527 124 513 L124 440 L84 440 C66 440 50 429 50 415 C50 403 63 392 79 392 L124 392 L124 164 C124 82 184 14 264 -2 C275 -5 289 -5 300 -5 C301 -5 303 -5 304 -5 C329 -9 346 -29 346 -55 C346 -83 328 -105 305 -105 C297 -105 292 -102 285 -96 C271 -85 264 -83 256 -83 C236 -83 221 -95 221 -108 C221 -130 267 -152 306 -152 L306 -152 Z " />
<glyph glyph-name="Tcaron" unicode="&#x164;" horiz-adv-x="461" d="M56 592 L194 592 L194 22 C194 7 209 0 223 0 C238 0 257 10 257 26 L257 592 L402 592 C417 592 436 602 436 618 C436 633 420 640 406 640 L232 640 C230 640 229 640 227 640 C225 640 224 640 222 640 L60 640 C45 640 26 630 26 614 C26 599 42 592 56 592 L56 592 Z M229 758 C239 758 249 762 255 768 L329 842 C334 847 337 853 337 858 C337 872 322 880 308 880 C298 880 288 877 282 871 L233 822 L182 873 C177 878 168 880 160 880 C145 880 126 871 126 855 C126 850 129 844 133 840 L207 766 C212 761 221 758 229 758 L229 758 Z " />
<glyph glyph-name="tcaron" unicode="&#x165;" horiz-adv-x="408" d="M158 538 C140 538 124 527 124 513 L124 440 L84 440 C66 440 50 429 50 415 C50 403 63 392 79 392 L124 392 L124 164 C124 70 202 -5 300 -5 C318 -5 334 6 334 20 C334 34 320 43 296 43 C237 43 187 102 187 171 L187 392 L349 392 C367 392 383 404 383 418 C383 430 370 440 354 440 L187 440 L187 516 C187 528 174 538 158 538 L158 538 Z M223 573 C233 573 243 577 249 583 L323 657 C328 662 331 668 331 673 C331 687 316 695 302 695 C292 695 282 692 276 686 L227 637 L176 688 C171 693 162 695 154 695 C139 695 120 686 120 670 C120 665 123 659 127 655 L201 581 C206 576 215 573 223 573 L223 573 Z " />
<glyph glyph-name="Tbar" unicode="&#x166;" horiz-adv-x="461" d="M56 592 L194 592 L194 22 C194 7 209 0 223 0 C238 0 257 10 257 26 L257 592 L402 592 C417 592 436 602 436 618 C436 633 420 640 406 640 L232 640 C230 640 229 640 227 640 C225 640 224 640 222 640 L60 640 C45 640 26 630 26 614 C26 599 42 592 56 592 L56 592 Z M162 739 L308 739 C326 739 349 750 349 768 C349 784 330 794 313 794 L167 794 C149 794 127 782 127 765 C127 748 146 739 162 739 L162 739 Z " />
<glyph glyph-name="tbar" unicode="&#x167;" horiz-adv-x="408" d="M106 491 L124 491 L124 440 L84 440 C66 440 50 429 50 415 C50 403 63 392 79 392 L124 392 L124 164 C124 70 202 -5 300 -5 C318 -5 334 6 334 20 C334 34 320 43 296 43 C237 43 187 102 187 171 L187 392 L349 392 C367 392 383 404 383 418 C383 430 370 440 354 440 L187 440 L187 491 L254 491 C269 491 288 501 288 517 C288 531 272 538 258 538 L110 538 C96 538 77 528 77 513 C77 498 93 491 106 491 L106 491 Z " />
<glyph glyph-name="Utilde" unicode="&#x168;" horiz-adv-x="609" d="M75 614 L75 214 C75 92 176 -5 302 -5 C429 -5 533 95 533 218 L533 618 C533 630 521 640 504 640 C486 640 470 628 470 614 L470 218 C470 121 396 43 305 43 C212 43 138 125 138 229 L138 618 C138 630 126 640 109 640 C91 640 75 628 75 614 L75 614 Z M358 762 C347 762 339 771 328 781 C304 803 286 812 261 812 C215 812 175 780 175 744 C175 725 187 714 208 714 C227 714 235 722 239 744 C241 758 245 764 251 764 C259 764 266 759 281 745 C296 731 314 714 350 714 C396 714 435 745 435 781 C435 800 424 811 403 811 C387 811 375 803 373 790 C369 767 365 762 358 762 L358 762 Z " />
<glyph glyph-name="utilde" unicode="&#x169;" horiz-adv-x="534" d="M76 415 L76 169 C76 75 154 0 252 0 L400 0 C418 0 433 11 433 25 L433 418 C433 430 420 440 404 440 C386 440 370 429 370 415 L370 48 L257 48 C188 48 139 108 139 193 L139 418 C138 431 127 440 111 440 C93 440 76 429 76 415 L76 415 Z M320 599 C309 599 301 608 290 618 C266 640 248 649 223 649 C177 649 137 617 137 581 C137 562 149 551 170 551 C189 551 197 559 201 581 C203 595 207 601 213 601 C221 601 228 596 243 582 C258 568 276 551 312 551 C358 551 397 582 397 618 C397 637 386 648 365 648 C349 648 337 640 335 627 C331 604 327 599 320 599 L320 599 Z " />
<glyph glyph-name="Umacron" unicode="&#x16a;" horiz-adv-x="609" d="M75 614 L75 214 C75 92 176 -5 302 -5 C429 -5 533 95 533 218 L533 618 C533 630 521 640 504 640 C486 640 470 628 470 614 L470 218 C470 121 396 43 305 43 C212 43 138 125 138 229 L138 618 C138 630 126 640 109 640 C91 640 75 628 75 614 L75 614 Z M229 709 L375 709 C393 709 416 720 416 738 C416 754 397 764 380 764 L234 764 C216 764 194 752 194 735 C194 718 213 709 229 709 L229 709 Z " />
<glyph glyph-name="umacron" unicode="&#x16b;" horiz-adv-x="534" d="M76 415 L76 169 C76 75 154 0 252 0 L400 0 C418 0 433 11 433 25 L433 418 C433 430 420 440 404 440 C386 440 370 429 370 415 L370 48 L257 48 C188 48 139 108 139 193 L139 418 C138 431 127 440 111 440 C93 440 76 429 76 415 L76 415 Z M206 573 L354 573 C369 573 388 583 388 599 C388 613 372 620 358 620 L210 620 C196 620 177 610 177 595 C177 580 193 573 206 573 L206 573 Z " />
<glyph glyph-name="Ubreve" unicode="&#x16c;" horiz-adv-x="609" d="M75 614 L75 214 C75 92 176 -5 302 -5 C429 -5 533 95 533 218 L533 618 C533 630 521 640 504 640 C486 640 470 628 470 614 L470 218 C470 121 396 43 305 43 C212 43 138 125 138 229 L138 618 C138 630 126 640 109 640 C91 640 75 628 75 614 L75 614 Z M306 751 C278 752 266 777 262 804 C260 818 247 825 232 825 C218 825 199 815 199 799 C199 744 247 703 302 703 C360 703 410 746 410 803 C410 818 394 825 380 825 C365 825 349 817 347 801 C344 775 333 751 306 751 L306 751 Z " />
<glyph glyph-name="ubreve" unicode="&#x16d;" horiz-adv-x="534" d="M76 415 L76 169 C76 75 154 0 252 0 L400 0 C418 0 433 11 433 25 L433 418 C433 430 420 440 404 440 C386 440 370 429 370 415 L370 48 L257 48 C188 48 139 108 139 193 L139 418 C138 431 127 440 111 440 C93 440 76 429 76 415 L76 415 Z M284 575 C256 576 244 601 240 628 C238 642 225 649 210 649 C196 649 177 639 177 623 C177 568 225 527 280 527 C338 527 388 570 388 627 C388 642 372 649 358 649 C343 649 327 641 325 625 C322 599 311 575 284 575 L284 575 Z " />
<glyph glyph-name="Uring" unicode="&#x16e;" horiz-adv-x="609" d="M75 614 L75 214 C75 92 176 -5 302 -5 C429 -5 533 95 533 218 L533 618 C533 630 521 640 504 640 C486 640 470 628 470 614 L470 218 C470 121 396 43 305 43 C212 43 138 125 138 229 L138 618 C138 630 126 640 109 640 C91 640 75 628 75 614 L75 614 Z M410 690 C410 745 361 786 306 786 C249 786 199 743 199 686 C199 631 247 590 302 590 C360 590 410 634 410 690 L410 690 Z M347 686 C347 661 330 637 306 637 C281 637 262 663 262 690 C262 714 279 738 302 738 C328 738 347 713 347 686 L347 686 Z " />
<glyph glyph-name="uring" unicode="&#x16f;" horiz-adv-x="534" d="M76 415 L76 169 C76 75 154 0 252 0 L400 0 C418 0 433 11 433 25 L433 418 C433 430 420 440 404 440 C386 440 370 429 370 415 L370 48 L257 48 C188 48 139 108 139 193 L139 418 C138 431 127 440 111 440 C93 440 76 429 76 415 L76 415 Z M373 555 C373 610 324 651 269 651 C212 651 162 608 162 551 C162 496 210 455 265 455 C323 455 373 499 373 555 L373 555 Z M310 551 C310 526 293 502 269 502 C244 502 225 528 225 555 C225 579 242 603 265 603 C291 603 310 578 310 551 L310 551 Z " />
<glyph glyph-name="Uhungarumlaut" unicode="&#x170;" horiz-adv-x="609" d="M75 614 L75 214 C75 92 176 -5 302 -5 C429 -5 533 95 533 218 L533 618 C533 630 521 640 504 640 C486 640 470 628 470 614 L470 218 C470 121 396 43 305 43 C212 43 138 125 138 229 L138 618 C138 630 126 640 109 640 C91 640 75 628 75 614 L75 614 Z M209 747 C209 733 224 725 238 725 C248 725 258 729 264 735 L338 809 C343 814 346 820 346 825 C346 839 331 847 317 847 C307 847 297 843 291 837 L217 763 C212 758 209 752 209 747 L209 747 Z M361 747 C361 733 376 725 390 725 C400 725 410 729 416 735 L490 809 C495 814 498 820 498 825 C498 839 483 847 469 847 C459 847 449 843 443 837 L369 763 C364 758 361 752 361 747 L361 747 Z " />
<glyph glyph-name="uhungarumlaut" unicode="&#x171;" horiz-adv-x="534" d="M76 415 L76 169 C76 75 154 0 252 0 L400 0 C418 0 433 11 433 25 L433 418 C433 430 420 440 404 440 C386 440 370 429 370 415 L370 48 L257 48 C188 48 139 108 139 193 L139 418 C138 431 127 440 111 440 C93 440 76 429 76 415 L76 415 Z M119 552 C119 535 138 526 154 526 C166 526 178 530 185 537 L258 610 C264 616 268 623 268 629 C268 646 249 655 232 655 C219 655 209 651 202 644 L129 571 C123 565 119 558 119 552 L119 552 Z M267 552 C267 535 286 526 302 526 C314 526 326 530 333 537 L406 610 C412 616 416 623 416 629 C416 646 397 655 380 655 C368 655 357 651 350 644 L277 571 C271 565 267 558 267 552 L267 552 Z " />
<glyph glyph-name="Uogonek" unicode="&#x172;" horiz-adv-x="609" d="M75 614 L75 214 C75 120 135 40 221 9 C204 -9 193 -32 193 -57 C193 -108 237 -153 292 -153 C333 -153 383 -128 383 -105 C383 -93 371 -84 354 -84 C343 -84 335 -87 321 -98 C314 -103 309 -106 301 -106 C276 -106 256 -82 256 -54 C256 -31 270 -10 289 -6 C291 -5 295 -5 298 -5 L320 -5 C325 -5 330 -4 335 -3 C447 13 533 106 533 218 L533 618 C533 630 521 640 504 640 C486 640 470 628 470 614 L470 218 C470 121 396 43 305 43 C212 43 138 125 138 229 L138 618 C138 630 126 640 109 640 C91 640 75 628 75 614 L75 614 Z " />
<glyph glyph-name="uogonek" unicode="&#x173;" horiz-adv-x="534" d="M76 415 L76 169 C76 75 154 0 252 0 L259 0 C249 -15 243 -33 243 -52 C243 -103 287 -148 342 -148 C383 -148 433 -123 433 -100 C433 -88 421 -79 404 -79 C393 -79 385 -82 371 -93 C364 -98 359 -101 351 -101 C326 -101 306 -77 306 -49 C306 -26 320 -5 339 -1 C341 0 344 0 346 0 L400 0 C418 0 433 11 433 25 L433 418 C433 430 420 440 404 440 C386 440 370 429 370 415 L370 48 L257 48 C188 48 139 108 139 193 L139 418 C138 431 127 440 111 440 C93 440 76 429 76 415 L76 415 Z " />
<glyph glyph-name="Wcircumflex" unicode="&#x174;" horiz-adv-x="855" d="M575 112 L458 428 C454 438 441 443 430 443 C417 443 402 436 398 424 L282 112 L112 624 C108 635 96 640 84 640 C69 640 51 629 51 626 C51 619 218 68 249 11 C255 0 263 -5 277 -5 C290 -5 305 1 309 13 L427 330 L546 10 C550 0 562 -5 572 -5 C593 -5 606 11 613 33 L805 624 C805 632 788 640 775 640 C761 640 747 633 743 621 L575 112 Z M426 759 L477 708 C482 703 491 700 499 700 C514 700 533 710 533 726 C533 731 530 737 526 741 L452 815 C447 820 438 822 430 822 C420 822 410 819 404 813 L330 739 C325 734 322 728 322 723 C322 709 337 700 351 700 C361 700 371 704 377 710 L426 759 Z " />
<glyph glyph-name="wcircumflex" unicode="&#x175;" horiz-adv-x="704" d="M492 105 L381 329 C376 338 365 342 354 342 C341 342 328 336 323 326 L212 104 L112 424 C108 435 96 440 84 440 C69 440 50 429 50 423 C50 410 166 36 175 14 C179 5 189 0 202 0 C215 0 228 6 233 16 L351 251 L470 13 C475 4 486 0 497 0 C512 0 525 7 533 26 L653 413 C653 432 638 440 624 440 C610 440 595 434 591 421 L492 105 Z M351 586 L402 535 C407 530 416 527 424 527 C439 527 458 537 458 553 C458 558 455 564 451 568 L377 642 C372 647 363 649 355 649 C345 649 335 646 329 640 L255 566 C250 561 247 555 247 550 C247 536 262 527 276 527 C286 527 296 531 302 537 L351 586 Z " />
<glyph glyph-name="Ycircumflex" unicode="&#x176;" horiz-adv-x="559" d="M281 395 L109 635 C104 642 94 645 85 645 C69 645 51 635 51 619 C51 615 52 611 55 607 L248 337 L248 22 C248 8 263 0 277 0 C292 0 311 9 311 25 L311 340 L503 609 C506 613 508 619 508 623 C508 637 493 645 479 645 C468 645 457 640 451 632 L281 395 Z M278 759 L329 708 C334 703 343 700 351 700 C366 700 385 710 385 726 C385 731 382 737 378 741 L304 815 C299 820 290 822 282 822 C272 822 262 819 256 813 L182 739 C177 734 174 728 174 723 C174 709 189 700 203 700 C213 700 223 704 229 710 L278 759 Z " />
<glyph glyph-name="ycircumflex" unicode="&#x177;" horiz-adv-x="483" d="M109 445 C90 445 75 433 75 419 C87 386 192 93 221 22 L199 -37 C167 -122 146 -143 100 -147 C63 -151 50 -161 50 -174 C50 -187 62 -197 94 -197 C153 -197 211 -160 237 -102 C262 -46 432 415 432 427 C432 432 415 440 402 440 C388 440 375 433 371 422 L254 111 L133 436 C130 442 120 445 109 445 L109 445 Z M240 586 L291 535 C296 530 305 527 313 527 C328 527 347 537 347 553 C347 558 344 564 340 568 L266 642 C261 647 252 649 244 649 C234 649 224 646 218 640 L144 566 C139 561 136 555 136 550 C136 536 151 527 165 527 C175 527 185 531 191 537 L240 586 Z " />
<glyph glyph-name="Ydieresis" unicode="&#x178;" horiz-adv-x="559" d="M281 395 L109 635 C104 642 94 645 85 645 C69 645 51 635 51 619 C51 615 52 611 55 607 L248 337 L248 22 C248 8 263 0 277 0 C292 0 311 9 311 25 L311 340 L503 609 C506 613 508 619 508 623 C508 637 493 645 479 645 C468 645 457 640 451 632 L281 395 Z M173 802 L173 728 C173 713 189 706 203 706 C218 706 236 716 236 732 L236 806 C236 821 220 827 207 827 C192 827 173 818 173 802 L173 802 Z M322 802 L322 728 C322 713 338 706 352 706 C367 706 385 716 385 732 L385 806 C385 821 371 827 357 827 C342 827 322 818 322 802 L322 802 Z " />
<glyph glyph-name="Zacute" unicode="&#x179;" horiz-adv-x="609" d="M157 48 L529 605 C532 609 533 614 533 618 C533 632 518 640 504 640 L109 640 C94 640 75 630 75 614 C75 600 91 592 105 592 L451 592 L80 34 C77 30 75 26 75 22 C75 8 91 0 105 0 L499 0 C514 0 533 9 533 25 C533 39 518 48 504 48 L157 48 Z M236 717 C236 703 251 695 265 695 C275 695 285 699 291 705 L365 779 C370 784 373 790 373 795 C373 809 358 817 344 817 C334 817 324 813 318 807 L244 733 C239 728 236 722 236 717 L236 717 Z " />
<glyph glyph-name="zacute" unicode="&#x17a;" horiz-adv-x="509" d="M160 48 L428 405 C431 409 433 414 433 418 C433 432 418 440 404 440 L110 440 C95 440 76 431 76 415 C76 401 91 392 105 392 L349 392 L81 35 C78 31 76 26 76 22 C76 8 91 0 105 0 L400 0 C415 0 433 9 433 25 C433 39 418 48 404 48 L160 48 Z M186 548 C186 534 201 526 215 526 C225 526 235 530 241 536 L315 610 C320 615 323 621 323 626 C323 640 308 648 294 648 C284 648 274 644 268 638 L194 564 C189 559 186 553 186 548 L186 548 Z " />
<glyph glyph-name="Zdotaccent" unicode="&#x17b;" horiz-adv-x="609" d="M157 48 L529 605 C532 609 533 614 533 618 C533 632 518 640 504 640 L109 640 C94 640 75 630 75 614 C75 600 91 592 105 592 L451 592 L80 34 C77 30 75 26 75 22 C75 8 91 0 105 0 L499 0 C514 0 533 9 533 25 C533 39 518 48 504 48 L157 48 Z M272 819 L272 745 C272 730 288 723 302 723 C317 723 336 733 336 749 L336 823 C336 837 320 844 306 844 C291 844 272 834 272 819 L272 819 Z " />
<glyph glyph-name="zdotaccent" unicode="&#x17c;" horiz-adv-x="509" d="M160 48 L428 405 C431 409 433 414 433 418 C433 432 418 440 404 440 L110 440 C95 440 76 431 76 415 C76 401 91 392 105 392 L349 392 L81 35 C78 31 76 26 76 22 C76 8 91 0 105 0 L400 0 C415 0 433 9 433 25 C433 39 418 48 404 48 L160 48 Z M222 647 L222 573 C222 558 238 551 252 551 C267 551 286 561 286 577 L286 651 C286 665 270 672 256 672 C241 672 222 662 222 647 L222 647 Z " />
<glyph glyph-name="Zcaron" unicode="&#x17d;" horiz-adv-x="609" d="M157 48 L529 605 C532 609 533 614 533 618 C533 632 518 640 504 640 L109 640 C94 640 75 630 75 614 C75 600 91 592 105 592 L451 592 L80 34 C77 30 75 26 75 22 C75 8 91 0 105 0 L499 0 C514 0 533 9 533 25 C533 39 518 48 504 48 L157 48 Z M302 703 C312 703 322 707 328 713 L402 787 C407 792 410 798 410 803 C410 817 395 825 381 825 C371 825 361 822 355 816 L306 767 L255 818 C250 823 241 825 233 825 C218 825 199 816 199 800 C199 795 202 789 206 785 L280 711 C285 706 294 703 302 703 L302 703 Z " />
<glyph glyph-name="zcaron" unicode="&#x17e;" horiz-adv-x="509" d="M160 48 L428 405 C431 409 433 414 433 418 C433 432 418 440 404 440 L110 440 C95 440 76 431 76 415 C76 401 91 392 105 392 L349 392 L81 35 C78 31 76 26 76 22 C76 8 91 0 105 0 L400 0 C415 0 433 9 433 25 C433 39 418 48 404 48 L160 48 Z M252 528 C262 528 272 532 278 538 L352 612 C357 617 360 623 360 628 C360 642 345 650 331 650 C321 650 311 647 305 641 L256 592 L205 643 C200 648 191 650 183 650 C168 650 149 641 149 625 C149 620 152 614 156 610 L230 536 C235 531 244 528 252 528 L252 528 Z " />
<glyph glyph-name="longs" unicode="&#x17f;" horiz-adv-x="362" d="M76 464 L76 22 C76 9 89 0 105 0 C123 0 139 12 139 26 L139 456 C139 534 187 590 254 590 C271 590 286 601 286 615 C286 628 273 637 257 637 C153 637 76 562 76 464 L76 464 Z " />
<glyph glyph-name="circumflex" unicode="&#x2c6;" horiz-adv-x="263" d="M130 586 L181 535 C186 530 195 527 203 527 C218 527 237 537 237 553 C237 558 234 564 230 568 L156 642 C151 647 142 649 134 649 C124 649 114 646 108 640 L34 566 C29 561 26 555 26 550 C26 536 41 527 55 527 C65 527 75 531 81 537 L130 586 Z " />
<glyph glyph-name="caron" unicode="&#x2c7;" horiz-adv-x="263" d="M129 528 C139 528 149 532 155 538 L229 612 C234 617 237 623 237 628 C237 642 222 650 208 650 C198 650 188 647 182 641 L133 592 L82 643 C77 648 68 650 60 650 C45 650 26 641 26 625 C26 620 29 614 33 610 L107 536 C112 531 121 528 129 528 L129 528 Z " />
<glyph glyph-name="uni02C9" unicode="&#x2c9;" horiz-adv-x="213" d="M55 559 L154 559 C169 559 188 568 188 584 C188 598 172 607 158 607 L60 607 C45 607 26 597 26 581 C26 567 41 559 55 559 L55 559 Z " />
<glyph glyph-name="breve" unicode="&#x2d8;" horiz-adv-x="263" d="M133 575 C105 576 93 601 89 628 C87 642 74 649 59 649 C45 649 26 639 26 623 C26 568 74 527 129 527 C187 527 237 570 237 627 C237 642 221 649 207 649 C192 649 176 641 174 625 C171 599 160 575 133 575 L133 575 Z " />
<glyph glyph-name="dotaccent" unicode="&#x2d9;" horiz-adv-x="114" d="M22 647 L22 573 C22 558 38 551 52 551 C67 551 86 561 86 577 L86 651 C86 665 70 672 56 672 C41 672 22 662 22 647 L22 647 Z " />
<glyph glyph-name="ring" unicode="&#x2da;" horiz-adv-x="263" d="M237 555 C237 610 188 651 133 651 C76 651 26 608 26 551 C26 496 74 455 129 455 C187 455 237 499 237 555 L237 555 Z M174 551 C174 526 157 502 133 502 C108 502 89 528 89 555 C89 579 106 603 129 603 C155 603 174 578 174 551 L174 551 Z " />
<glyph glyph-name="ogonek" unicode="&#x2db;" horiz-adv-x="242" d="M159 47 L134 47 C75 47 26 2 26 -52 C26 -103 70 -148 125 -148 C166 -148 216 -123 216 -100 C216 -88 204 -79 187 -79 C176 -79 168 -82 154 -93 C147 -98 142 -101 134 -101 C109 -101 89 -77 89 -49 C89 -26 103 -5 122 -1 C124 0 128 0 131 0 L153 0 C173 0 188 11 188 26 C188 39 176 47 159 47 L159 47 Z " />
<glyph glyph-name="tilde" unicode="&#x2dc;" horiz-adv-x="311" d="M204 599 C193 599 185 608 174 618 C150 640 132 649 107 649 C61 649 21 617 21 581 C21 562 33 551 54 551 C73 551 81 559 85 581 C87 595 91 601 97 601 C105 601 112 596 127 582 C142 568 160 551 196 551 C242 551 281 582 281 618 C281 637 270 648 249 648 C233 648 221 640 219 627 C215 604 211 599 204 599 L204 599 Z " />
<glyph glyph-name="hungarumlaut" unicode="&#x2dd;" horiz-adv-x="187" d="M26 552 C26 535 45 526 61 526 C73 526 85 530 92 537 L165 610 C171 616 175 623 175 629 C175 646 156 655 139 655 C126 655 116 651 109 644 L36 571 C30 565 26 558 26 552 L26 552 Z M174 552 C174 535 193 526 209 526 C221 526 233 530 240 537 L313 610 C319 616 323 623 323 629 C323 646 304 655 287 655 C275 655 264 651 257 644 L184 571 C178 565 174 558 174 552 L174 552 Z " />
<glyph glyph-name="gravecomb" unicode="&#x300;" horiz-adv-x="187" d="M128 529 C143 529 162 539 162 555 C162 560 159 565 155 569 L81 643 C76 648 67 651 59 651 C44 651 25 641 25 625 C25 620 28 615 32 611 L106 537 C111 532 120 529 128 529 L128 529 Z " />
<glyph glyph-name="acutecomb" unicode="&#x301;" horiz-adv-x="187" d="M25 548 C25 534 40 526 54 526 C64 526 74 530 80 536 L154 610 C159 615 162 621 162 626 C162 640 147 648 133 648 C123 648 113 644 107 638 L33 564 C28 559 25 553 25 548 L25 548 Z " />
<glyph glyph-name="uni0302" unicode="&#x302;" horiz-adv-x="261" d="M125 586 L176 535 C181 530 190 527 198 527 C213 527 232 537 232 553 C232 558 229 564 225 568 L151 642 C146 647 137 649 129 649 C119 649 109 646 103 640 L29 566 C24 561 21 555 21 550 C21 536 36 527 50 527 C60 527 70 531 76 537 L125 586 Z " />
<glyph glyph-name="tildecomb" unicode="&#x303;" horiz-adv-x="311" d="M209 599 C198 599 190 608 179 618 C155 640 137 649 112 649 C66 649 26 617 26 581 C26 562 38 551 59 551 C78 551 86 559 90 581 C92 595 96 601 102 601 C110 601 117 596 132 582 C147 568 165 551 201 551 C247 551 286 582 286 618 C286 637 275 648 254 648 C238 648 226 640 224 627 C220 604 216 599 209 599 L209 599 Z " />
<glyph glyph-name="uni0304" unicode="&#x304;" horiz-adv-x="261" d="M54 568 L202 568 C217 568 236 578 236 594 C236 608 220 615 206 615 L58 615 C44 615 25 605 25 590 C25 575 41 568 54 568 L54 568 Z " />
<glyph glyph-name="uni0306" unicode="&#x306;" horiz-adv-x="261" d="M132 575 C104 576 92 601 88 628 C86 642 73 649 58 649 C44 649 25 639 25 623 C25 568 73 527 128 527 C186 527 236 570 236 627 C236 642 220 649 206 649 C191 649 175 641 173 625 C170 599 159 575 132 575 L132 575 Z " />
<glyph glyph-name="uni0307" unicode="&#x307;" horiz-adv-x="113" d="M26 585 L26 512 C26 495 45 486 61 486 C79 486 102 498 102 516 L102 589 C102 606 83 615 66 615 C48 615 26 603 26 585 L26 585 Z " />
<glyph glyph-name="uni0308" unicode="&#x308;" horiz-adv-x="212" d="M14 651 L14 577 C14 562 30 555 44 555 C59 555 77 565 77 581 L77 655 C77 670 61 676 48 676 C33 676 14 667 14 651 L14 651 Z M163 651 L163 577 C163 562 179 555 193 555 C208 555 226 565 226 581 L226 655 C226 670 212 676 198 676 C183 676 163 667 163 651 L163 651 Z " />
<glyph glyph-name="uni030A" unicode="&#x30a;" horiz-adv-x="261" d="M236 555 C236 610 187 651 132 651 C75 651 25 608 25 551 C25 496 73 455 128 455 C186 455 236 499 236 555 L236 555 Z M173 551 C173 526 156 502 132 502 C107 502 88 528 88 555 C88 579 105 603 128 603 C154 603 173 578 173 551 L173 551 Z " />
<glyph glyph-name="uni030B" unicode="&#x30b;" horiz-adv-x="333" d="M18 552 C18 535 37 526 53 526 C65 526 77 530 84 537 L157 610 C163 616 167 623 167 629 C167 646 148 655 131 655 C118 655 108 651 101 644 L28 571 C22 565 18 558 18 552 L18 552 Z M166 552 C166 535 185 526 201 526 C213 526 225 530 232 537 L305 610 C311 616 315 623 315 629 C315 646 296 655 279 655 C267 655 256 651 249 644 L176 571 C170 565 166 558 166 552 L166 552 Z " />
<glyph glyph-name="uni030C" unicode="&#x30c;" horiz-adv-x="261" d="M128 528 C138 528 148 532 154 538 L228 612 C233 617 236 623 236 628 C236 642 221 650 207 650 C197 650 187 647 181 641 L132 592 L81 643 C76 648 67 650 59 650 C44 650 25 641 25 625 C25 620 28 614 32 610 L106 536 C111 531 120 528 128 528 L128 528 Z " />
<glyph glyph-name="uni0312" unicode="&#x312;" horiz-adv-x="162" d="M151 627 C151 642 135 648 121 648 L72 648 C57 648 38 639 38 622 C38 601 66 601 83 601 L87 601 C87 559 79 525 68 492 C66 487 63 478 63 475 L63 472 C63 460 78 453 91 453 C145 453 151 596 151 627 L151 627 Z " />
<glyph glyph-name="uni0315" unicode="&#x315;" horiz-adv-x="162" d="M138 627 C138 642 122 648 108 648 L59 648 C44 648 25 639 25 622 C25 601 53 601 70 601 L74 601 C74 559 66 525 55 492 C53 487 50 478 50 475 L50 472 C50 460 65 453 78 453 C132 453 138 596 138 627 L138 627 Z " />
<glyph glyph-name="uni0326" unicode="&#x326;" horiz-adv-x="164" d="M145 25 C145 40 129 46 115 46 L66 46 C51 46 32 37 32 20 C32 -1 60 -1 77 -1 L81 -1 C81 -43 73 -77 62 -110 C60 -115 57 -124 57 -127 L57 -130 C57 -142 72 -149 85 -149 C139 -149 145 -6 145 25 L145 25 Z " />
<glyph glyph-name="uni0327" unicode="&#x327;" horiz-adv-x="240" d="M110 -148 C167 -148 214 -101 214 -48 C214 5 168 47 111 47 L86 47 C68 47 52 36 52 21 C52 7 64 0 90 0 L99 0 C128 0 150 -22 150 -51 C150 -79 132 -101 109 -101 C101 -101 96 -98 89 -92 C75 -81 68 -79 60 -79 C40 -79 25 -91 25 -104 C25 -126 71 -148 110 -148 L110 -148 Z " />
<glyph glyph-name="uni0328" unicode="&#x328;" horiz-adv-x="240" d="M158 47 L133 47 C74 47 25 2 25 -52 C25 -103 69 -148 124 -148 C165 -148 215 -123 215 -100 C215 -88 203 -79 186 -79 C175 -79 167 -82 153 -93 C146 -98 141 -101 133 -101 C108 -101 88 -77 88 -49 C88 -26 102 -5 121 -1 C123 0 127 0 130 0 L152 0 C172 0 187 11 187 26 C187 39 175 47 158 47 L158 47 Z " />
<glyph glyph-name="uni0344" unicode="&#x344;" horiz-adv-x="312" d="M37 630 L37 556 C37 541 53 534 67 534 C82 534 100 544 100 560 L100 634 C100 649 84 655 71 655 C56 655 37 646 37 630 L37 630 Z M121 713 C121 699 136 691 150 691 C160 691 170 695 176 701 L250 775 C255 780 258 786 258 791 C258 805 243 813 229 813 C219 813 209 809 203 803 L129 729 C124 724 121 718 121 713 L121 713 Z M186 630 L186 556 C186 541 202 534 216 534 C231 534 249 544 249 560 L249 634 C249 649 235 655 221 655 C206 655 186 646 186 630 L186 630 Z " />
<glyph glyph-name="uni0374" unicode="&#x374;" horiz-adv-x="187" d="M26 537 C26 520 45 511 62 511 C74 511 85 516 92 522 L165 595 C171 601 175 608 175 614 C175 631 156 640 139 640 C127 640 115 636 108 629 L35 556 C29 550 26 543 26 537 L26 537 Z " />
<glyph glyph-name="uni0375" unicode="&#x375;" horiz-adv-x="262" d="M188 26 C188 41 172 47 158 47 L109 47 C94 47 75 38 75 21 C75 0 103 0 120 0 L124 0 C124 -42 116 -76 105 -109 C103 -114 100 -123 100 -126 L100 -129 C100 -141 115 -148 128 -148 C182 -148 188 -5 188 26 L188 26 Z " />
<glyph glyph-name="uni037E" unicode="&#x37e;" horiz-adv-x="263" d="M188 26 C188 41 172 47 158 47 L109 47 C94 47 75 38 75 21 C75 0 103 0 120 0 L124 0 C124 -42 116 -76 105 -109 C103 -114 100 -123 100 -126 L100 -129 C100 -141 115 -148 128 -148 C182 -148 188 -5 188 26 L188 26 Z M112 385 L112 346 C112 332 128 324 142 324 C157 324 175 333 175 349 L175 389 C175 403 160 411 146 411 C131 411 112 401 112 385 L112 385 Z " />
<glyph glyph-name="tonos" unicode="&#x384;" horiz-adv-x="187" d="M23 571 C23 557 38 549 52 549 C62 549 72 553 78 559 L152 633 C157 638 160 644 160 649 C160 663 145 671 131 671 C121 671 111 667 105 661 L31 587 C26 582 23 576 23 571 L23 571 Z " />
<glyph glyph-name="dieresistonos" unicode="&#x385;" horiz-adv-x="312" d="M37 630 L37 556 C37 541 53 534 67 534 C82 534 100 544 100 560 L100 634 C100 649 84 655 71 655 C56 655 37 646 37 630 L37 630 Z M116 703 C116 689 131 681 145 681 C155 681 165 685 171 691 L245 765 C250 770 253 776 253 781 C253 795 238 803 224 803 C214 803 204 799 198 793 L124 719 C119 714 116 708 116 703 L116 703 Z M186 630 L186 556 C186 541 202 534 216 534 C231 534 249 544 249 560 L249 634 C249 649 235 655 221 655 C206 655 186 646 186 630 L186 630 Z " />
<glyph glyph-name="Alphatonos" unicode="&#x386;" horiz-adv-x="608" d="M51 16 C51 8 67 0 80 0 C94 0 110 10 114 20 L139 98 L419 98 L441 23 C445 9 457 0 472 0 C489 0 508 14 508 24 C508 49 351 515 316 618 C308 642 298 650 280 650 C262 650 253 640 244 615 C177 425 51 32 51 16 L51 16 Z M279 527 L404 146 L154 146 L279 527 Z M236 717 C236 703 251 695 265 695 C275 695 285 699 291 705 L365 779 C370 784 373 790 373 795 C373 809 358 817 344 817 C334 817 324 813 318 807 L244 733 C239 728 236 722 236 717 L236 717 Z " />
<glyph glyph-name="anoteleia" unicode="&#x387;" horiz-adv-x="237" d="M139 323 C108 323 76 301 76 269 C76 239 104 219 136 219 C169 219 201 242 201 271 C201 298 172 323 139 323 L139 323 Z " />
<glyph glyph-name="Epsilontonos" unicode="&#x388;" horiz-adv-x="534" d="M480 640 L134 640 C119 640 101 630 101 614 L101 71 C101 29 138 0 180 0 L476 0 C491 0 510 10 510 26 C510 41 494 47 480 47 L194 47 C174 47 164 55 164 75 L164 346 L303 346 C318 346 337 355 337 371 C337 386 321 393 307 393 L164 393 L164 592 L476 592 C491 592 510 602 510 618 C510 633 494 640 480 640 L480 640 Z M284 747 C284 733 299 725 313 725 C323 725 333 729 339 735 L413 809 C418 814 421 820 421 825 C421 839 406 847 392 847 C382 847 372 843 366 837 L292 763 C287 758 284 752 284 747 L284 747 Z " />
<glyph glyph-name="Etatonos" unicode="&#x389;" horiz-adv-x="658" d="M164 26 L164 345 L496 345 L496 22 C496 7 511 0 525 0 C540 0 559 10 559 26 L559 618 C559 633 543 640 529 640 C514 640 496 630 496 614 L496 393 L164 393 L164 618 C164 633 148 640 134 640 C119 640 101 630 101 614 L101 22 C101 7 116 0 130 0 C145 0 164 10 164 26 L164 26 Z M292 741 C292 727 307 719 321 719 C331 719 341 723 347 729 L421 803 C426 808 429 814 429 819 C429 833 414 841 400 841 C390 841 380 837 374 831 L300 757 C295 752 292 746 292 741 L292 741 Z " />
<glyph glyph-name="Iotatonos" unicode="&#x38a;" horiz-adv-x="263" d="M164 26 L164 618 C164 633 148 640 134 640 C119 640 101 630 101 614 L101 22 C101 7 116 0 130 0 C145 0 164 10 164 26 L164 26 Z M99 752 C99 738 114 730 128 730 C138 730 148 734 154 740 L228 814 C233 819 236 825 236 830 C236 844 221 852 207 852 C197 852 187 848 181 842 L107 768 C102 763 99 757 99 752 L99 752 Z " />
<glyph glyph-name="Omicrontonos" unicode="&#x38c;" horiz-adv-x="608" d="M533 218 L533 430 C533 551 431 650 306 650 C179 650 75 549 75 427 L75 214 C75 93 177 -5 302 -5 C429 -5 533 96 533 218 L533 218 Z M306 43 C216 43 138 124 138 218 L138 430 C138 524 212 602 302 602 C394 602 470 523 470 427 L470 214 C470 120 396 43 306 43 L306 43 Z M272 749 C272 735 287 727 301 727 C311 727 321 731 327 737 L401 811 C406 816 409 822 409 827 C409 841 394 849 380 849 C370 849 360 845 354 839 L280 765 C275 760 272 754 272 749 L272 749 Z " />
<glyph glyph-name="Upsilontonos" unicode="&#x38e;" horiz-adv-x="559" d="M258 747 C258 733 273 725 287 725 C297 725 307 729 313 735 L387 809 C392 814 395 820 395 825 C395 839 380 847 366 847 C356 847 346 843 340 837 L266 763 C261 758 258 752 258 747 L258 747 Z M281 395 L109 635 C104 642 94 645 85 645 C69 645 51 635 51 619 C51 615 52 611 55 607 L248 337 L248 22 C248 8 263 0 277 0 C292 0 311 9 311 25 L311 340 L503 609 C506 613 508 619 508 623 C508 637 493 645 479 645 C468 645 457 640 451 632 L281 395 Z " />
<glyph glyph-name="Omegatonos" unicode="&#x38f;" horiz-adv-x="610" d="M105 0 L204 0 C222 0 237 12 237 26 L237 29 L228 55 C168 227 139 345 139 410 C139 514 214 602 303 602 C396 602 470 509 470 391 C470 331 452 262 374 29 C373 26 371 24 371 21 C371 10 385 0 401 0 L500 0 C518 0 533 12 533 25 C533 37 520 47 504 47 L444 47 C508 221 533 319 533 393 C533 536 433 650 306 650 C178 650 75 534 75 389 C75 318 99 225 163 47 L109 47 C91 47 75 35 75 22 C75 10 88 0 105 0 L105 0 Z M237 717 C237 703 252 695 266 695 C276 695 286 699 292 705 L366 779 C371 784 374 790 374 795 C374 809 359 817 345 817 C335 817 325 813 319 807 L245 733 C240 728 237 722 237 717 L237 717 Z " />
<glyph glyph-name="iotadieresistonos" unicode="&#x390;" horiz-adv-x="337" d="M135 441 C117 441 101 429 101 415 L101 121 C101 54 157 0 228 0 C246 0 262 12 262 27 C262 42 247 49 231 49 C199 49 164 81 164 109 L164 419 C164 431 151 441 135 441 L135 441 Z M26 614 L26 540 C26 525 42 518 56 518 C71 518 89 528 89 544 L89 618 C89 633 73 639 60 639 C45 639 26 630 26 614 L26 614 Z M110 697 C110 683 125 675 139 675 C149 675 159 679 165 685 L239 759 C244 764 247 770 247 775 C247 789 232 797 218 797 C208 797 198 793 192 787 L118 713 C113 708 110 702 110 697 L110 697 Z M175 614 L175 540 C175 525 191 518 205 518 C220 518 238 528 238 544 L238 618 C238 633 224 639 210 639 C195 639 175 630 175 614 L175 614 Z " />
<glyph glyph-name="Alpha" unicode="&#x391;" horiz-adv-x="608" d="M51 16 C51 8 67 0 80 0 C94 0 110 10 114 20 L139 98 L419 98 L441 23 C445 9 457 0 472 0 C489 0 508 14 508 24 C508 49 351 515 316 618 C308 642 298 650 280 650 C262 650 253 640 244 615 C177 425 51 32 51 16 L51 16 Z M279 527 L404 146 L154 146 L279 527 Z " />
<glyph glyph-name="Beta" unicode="&#x392;" horiz-adv-x="633" d="M445 374 C486 402 509 446 509 494 C509 575 442 640 357 640 L135 640 C117 640 101 628 101 614 L101 22 C101 10 114 0 130 0 L352 0 C465 0 559 89 559 198 C559 276 517 345 445 374 L445 374 Z M496 198 C496 115 433 48 357 48 L164 48 L164 345 L351 345 C433 345 496 281 496 198 L496 198 Z M164 393 L164 592 L352 592 C404 592 446 546 446 490 C446 436 406 393 356 393 L164 393 Z " />
<glyph glyph-name="Gamma" unicode="&#x393;" horiz-adv-x="461" d="M164 592 L402 592 C417 592 435 602 435 618 C435 632 420 640 406 640 L135 640 C120 640 101 630 101 614 L101 22 C101 8 116 0 130 0 C145 0 163 10 164 25 L164 592 Z " />
<glyph glyph-name="uni0394" unicode="&#x394;" horiz-adv-x="609" d="M500 0 C519 0 533 13 533 28 C533 35 531 47 526 61 L335 634 C332 644 321 650 305 650 C285 650 276 640 267 612 L78 38 C76 31 75 26 75 22 C75 10 89 0 105 0 L500 0 Z M461 47 L147 47 L303 527 L461 47 Z " />
<glyph glyph-name="Epsilon" unicode="&#x395;" horiz-adv-x="534" d="M480 640 L134 640 C119 640 101 630 101 614 L101 71 C101 29 138 0 180 0 L476 0 C491 0 510 10 510 26 C510 41 494 47 480 47 L194 47 C174 47 164 55 164 75 L164 346 L303 346 C318 346 337 355 337 371 C337 386 321 393 307 393 L164 393 L164 592 L476 592 C491 592 510 602 510 618 C510 633 494 640 480 640 L480 640 Z " />
<glyph glyph-name="Zeta" unicode="&#x396;" horiz-adv-x="558" d="M141 48 L513 605 C516 609 517 614 517 618 C517 632 502 640 488 640 L93 640 C78 640 59 630 59 614 C59 600 75 592 89 592 L435 592 L64 34 C61 30 59 26 59 22 C59 8 75 0 89 0 L483 0 C498 0 517 9 517 25 C517 39 502 48 488 48 L141 48 Z " />
<glyph glyph-name="Eta" unicode="&#x397;" horiz-adv-x="658" d="M164 26 L164 345 L496 345 L496 22 C496 7 511 0 525 0 C540 0 559 10 559 26 L559 618 C559 633 543 640 529 640 C514 640 496 630 496 614 L496 393 L164 393 L164 618 C164 633 148 640 134 640 C119 640 101 630 101 614 L101 22 C101 7 116 0 130 0 C145 0 164 10 164 26 L164 26 Z " />
<glyph glyph-name="Theta" unicode="&#x398;" horiz-adv-x="608" d="M533 218 L533 430 C533 551 431 650 306 650 C179 650 75 549 75 427 L75 214 C75 93 177 -5 302 -5 C429 -5 533 96 533 218 L533 218 Z M306 43 C216 43 138 124 138 218 L138 430 C138 524 212 602 302 602 C394 602 470 523 470 427 L470 214 C470 120 396 43 306 43 L306 43 Z M204 293 L399 293 C417 293 439 304 439 322 C439 339 420 348 403 348 L208 348 C190 348 168 337 168 319 C168 302 187 293 204 293 L204 293 Z " />
<glyph glyph-name="Iota" unicode="&#x399;" horiz-adv-x="263" d="M164 26 L164 618 C164 633 148 640 134 640 C119 640 101 630 101 614 L101 22 C101 7 116 0 130 0 C145 0 164 10 164 26 L164 26 Z " />
<glyph glyph-name="Kappa" unicode="&#x39a;" horiz-adv-x="583" d="M164 26 L164 335 L267 406 L498 12 C503 4 515 0 524 0 C540 0 559 13 559 29 L318 441 L546 598 C552 603 559 610 559 618 C559 633 543 640 529 640 C521 640 515 637 509 634 L164 397 L164 618 C164 633 148 640 134 640 C119 640 101 630 101 614 L101 22 C101 7 116 0 130 0 C145 0 164 10 164 26 L164 26 Z " />
<glyph glyph-name="Lambda" unicode="&#x39b;" horiz-adv-x="609" d="M306 650 C285 650 276 639 267 612 L80 42 C78 34 75 24 75 20 C75 9 89 0 105 0 C121 0 133 8 137 19 L303 527 L471 16 C474 7 486 0 500 0 C519 0 533 12 533 27 C533 34 530 45 526 57 L335 634 C332 644 320 650 306 650 L306 650 Z " />
<glyph glyph-name="Mu" unicode="&#x39c;" horiz-adv-x="855" d="M756 25 L756 618 C756 632 741 640 727 640 C716 640 704 636 698 628 L430 269 L159 630 C154 637 145 640 136 640 C120 640 101 630 101 614 L101 22 C101 8 116 0 130 0 C145 0 164 9 164 25 L164 524 L402 207 C407 200 416 197 426 197 C437 197 449 202 455 210 L693 527 L693 22 C693 8 708 0 722 0 C737 0 756 9 756 25 L756 25 Z " />
<glyph glyph-name="Nu" unicode="&#x39d;" horiz-adv-x="658" d="M135 640 C120 640 101 630 101 614 L101 22 C101 8 116 0 130 0 C145 0 164 9 164 25 L164 551 L496 260 L496 22 C496 8 511 0 525 0 C540 0 559 9 559 25 L559 618 C559 632 544 640 530 640 C515 640 496 630 496 614 L496 336 L156 633 C151 638 143 640 135 640 L135 640 Z " />
<glyph glyph-name="Xi" unicode="&#x39e;" horiz-adv-x="559" d="M167 345 L376 345 C391 345 410 355 410 371 C410 385 394 393 380 393 L171 393 C156 393 137 383 137 367 C137 353 153 345 167 345 L167 345 Z M105 592 L450 592 C465 592 484 602 484 618 C484 632 469 640 455 640 L109 640 C94 640 75 630 75 614 C75 600 91 592 105 592 L105 592 Z M105 0 L450 0 C465 0 484 9 484 25 C484 39 469 48 455 48 L109 48 C94 48 75 38 75 22 C75 8 91 0 105 0 L105 0 Z " />
<glyph glyph-name="Omicron" unicode="&#x39f;" horiz-adv-x="608" d="M533 218 L533 430 C533 551 431 650 306 650 C179 650 75 549 75 427 L75 214 C75 93 177 -5 302 -5 C429 -5 533 96 533 218 L533 218 Z M306 43 C216 43 138 124 138 218 L138 430 C138 524 212 602 302 602 C394 602 470 523 470 427 L470 214 C470 120 396 43 306 43 L306 43 Z " />
<glyph glyph-name="Pi" unicode="&#x3a0;" horiz-adv-x="659" d="M164 592 L496 592 L496 22 C496 8 511 0 525 0 C540 0 559 9 559 25 L559 618 C559 632 544 640 530 640 L135 640 C120 640 101 630 101 614 L101 22 C101 8 116 0 130 0 C145 0 164 9 164 25 L164 592 Z " />
<glyph glyph-name="Rho" unicode="&#x3a1;" horiz-adv-x="534" d="M254 345 L352 345 C439 345 509 412 509 494 C509 575 441 640 357 640 L135 640 C117 640 101 628 101 614 L101 22 C101 10 113 0 130 0 C148 0 164 11 164 25 L164 592 L352 592 C403 592 446 546 446 489 C446 431 401 393 331 393 L264 393 C241 393 224 383 224 368 C224 355 238 345 254 345 L254 345 Z " />
<glyph glyph-name="Sigma" unicode="&#x3a3;" horiz-adv-x="559" d="M479 640 L109 640 C91 640 75 628 75 614 C75 611 76 608 78 604 L221 366 L80 45 C77 38 75 30 75 24 C75 8 85 0 105 0 L475 0 C493 0 508 11 508 25 C508 37 495 48 479 48 L149 48 L284 358 C285 361 287 366 287 370 C287 374 286 378 284 381 L157 592 L475 592 C493 592 508 604 508 618 C508 630 495 640 479 640 L479 640 Z " />
<glyph glyph-name="Tau" unicode="&#x3a4;" horiz-adv-x="459" d="M56 592 L194 592 L194 22 C194 7 209 0 223 0 C238 0 257 10 257 26 L257 592 L402 592 C417 592 436 602 436 618 C436 633 420 640 406 640 L232 640 C230 640 229 640 227 640 C225 640 224 640 222 640 L60 640 C45 640 26 630 26 614 C26 599 42 592 56 592 L56 592 Z " />
<glyph glyph-name="Upsilon" unicode="&#x3a5;" horiz-adv-x="559" d="M281 395 L109 635 C104 642 94 645 85 645 C69 645 51 635 51 619 C51 615 52 611 55 607 L248 337 L248 22 C248 8 263 0 277 0 C292 0 311 9 311 25 L311 340 L503 609 C506 613 508 619 508 623 C508 637 493 645 479 645 C468 645 457 640 451 632 L281 395 Z " />
<glyph glyph-name="Phi" unicode="&#x3a6;" horiz-adv-x="609" d="M272 614 L272 573 C159 557 75 463 75 353 L75 293 C75 182 159 90 272 76 L272 22 C272 10 285 0 302 0 C320 0 336 12 336 26 L336 76 C449 92 533 187 533 297 L533 356 C533 467 449 560 336 574 L336 618 C336 630 323 640 306 640 C288 640 272 628 272 614 L272 614 Z M138 297 L138 356 C138 439 195 511 272 525 L272 125 C195 141 138 214 138 297 L138 297 Z M336 124 L336 524 C413 508 470 436 470 353 L470 293 C470 207 417 135 336 124 L336 124 Z " />
<glyph glyph-name="Chi" unicode="&#x3a7;" horiz-adv-x="559" d="M75 17 C75 3 91 -5 105 -5 C117 -5 129 0 135 10 L279 260 L424 7 C429 -1 440 -5 450 -5 C465 -5 484 5 484 21 C484 24 483 27 481 31 L314 322 L481 612 C483 616 484 620 484 623 C484 637 469 645 455 645 C443 645 430 640 424 630 L280 380 L135 633 C130 641 119 645 109 645 C94 645 75 635 75 619 C75 616 76 613 78 609 L245 318 L78 28 C76 24 75 20 75 17 L75 17 Z " />
<glyph glyph-name="Psi" unicode="&#x3a8;" horiz-adv-x="559" d="M50 619 L50 515 C50 403 135 314 248 298 L248 22 C248 8 264 -1 278 -1 C293 -1 311 9 311 25 L311 297 C429 309 509 403 509 519 L509 623 C509 638 492 645 478 645 C460 645 445 633 445 616 L445 530 C445 426 399 357 311 346 L311 623 C311 638 296 645 282 645 C267 645 248 635 248 619 L248 348 C162 365 114 442 114 532 L114 623 C113 637 98 645 85 645 C70 645 50 635 50 619 L50 619 Z " />
<glyph glyph-name="uni03A9" unicode="&#x3a9;" horiz-adv-x="610" d="M105 0 L204 0 C222 0 237 12 237 26 L237 29 L228 55 C168 227 139 345 139 410 C139 514 214 602 303 602 C396 602 470 509 470 391 C470 331 452 262 374 29 C373 26 371 24 371 21 C371 10 385 0 401 0 L500 0 C518 0 533 12 533 25 C533 37 520 47 504 47 L444 47 C508 221 533 319 533 393 C533 536 433 650 306 650 C178 650 75 534 75 389 C75 318 99 225 163 47 L109 47 C91 47 75 35 75 22 C75 10 88 0 105 0 L105 0 Z " />
<glyph glyph-name="Iotadieresis" unicode="&#x3aa;" horiz-adv-x="263" d="M164 26 L164 618 C164 633 148 640 134 640 C119 640 101 630 101 614 L101 22 C101 7 116 0 130 0 C145 0 164 10 164 26 L164 26 Z M26 832 L26 758 C26 743 42 736 56 736 C71 736 89 746 89 762 L89 836 C89 851 73 857 60 857 C45 857 26 848 26 832 L26 832 Z M175 832 L175 758 C175 743 191 736 205 736 C220 736 238 746 238 762 L238 836 C238 851 224 857 210 857 C195 857 175 848 175 832 L175 832 Z " />
<glyph glyph-name="Upsilondieresis" unicode="&#x3ab;" horiz-adv-x="559" d="M281 395 L109 635 C104 642 94 645 85 645 C69 645 51 635 51 619 C51 615 52 611 55 607 L248 337 L248 22 C248 8 263 0 277 0 C292 0 311 9 311 25 L311 340 L503 609 C506 613 508 619 508 623 C508 637 493 645 479 645 C468 645 457 640 451 632 L281 395 Z M176 832 L176 758 C176 743 192 736 206 736 C221 736 239 746 239 762 L239 836 C239 851 223 857 210 857 C195 857 176 848 176 832 L176 832 Z M325 832 L325 758 C325 743 341 736 355 736 C370 736 388 746 388 762 L388 836 C388 851 374 857 360 857 C345 857 325 848 325 832 L325 832 Z " />
<glyph glyph-name="alphatonos" unicode="&#x3ac;" horiz-adv-x="534" d="M433 26 L433 321 C433 404 383 450 292 450 C168 450 76 366 76 253 L76 194 C76 83 166 0 279 0 C318 0 335 9 335 26 C335 39 321 48 300 48 C210 48 139 113 139 197 L139 256 C139 341 199 402 282 402 C342 402 370 367 370 294 L370 23 C370 10 384 0 400 0 C417 0 433 12 433 26 L433 26 Z M245 544 C245 530 260 522 274 522 C284 522 294 526 300 532 L374 606 C379 611 382 617 382 622 C382 636 367 644 353 644 C343 644 333 640 327 634 L253 560 C248 555 245 549 245 544 L245 544 Z " />
<glyph glyph-name="epsilontonos" unicode="&#x3ad;" horiz-adv-x="425" d="M233 42 C179 42 139 88 139 147 C139 201 172 240 221 245 C247 248 262 257 262 271 C262 283 251 291 230 293 C204 296 188 315 188 342 C188 371 206 393 230 393 L302 393 C320 393 335 403 335 417 C335 430 323 440 306 440 L240 440 C177 440 125 400 125 341 C125 315 136 290 155 273 C105 244 76 197 76 143 C76 60 143 -5 222 -5 C250 -5 348 16 348 56 C348 69 334 79 318 79 C305 79 297 73 287 65 C268 50 254 42 233 42 L233 42 Z M219 542 C219 528 234 520 248 520 C258 520 268 524 274 530 L348 604 C353 609 356 615 356 620 C356 634 341 642 327 642 C317 642 307 638 301 632 L227 558 C222 553 219 547 219 542 L219 542 Z " />
<glyph glyph-name="etatonos" unicode="&#x3ae;" horiz-adv-x="533" d="M163 393 L277 393 C348 393 395 334 395 247 L395 -174 C395 -188 410 -197 424 -197 C439 -197 458 -187 458 -171 L458 25 C458 25 458 25 458 26 L458 271 C458 365 379 440 281 440 L134 440 C116 440 100 428 100 414 L100 22 C100 10 113 0 130 0 C148 0 163 12 163 26 L163 393 Z M191 548 C191 534 206 526 220 526 C230 526 240 530 246 536 L320 610 C325 615 328 621 328 626 C328 640 313 648 299 648 C289 648 279 644 273 638 L199 564 C194 559 191 553 191 548 L191 548 Z " />
<glyph glyph-name="iotatonos" unicode="&#x3af;" horiz-adv-x="337" d="M135 441 C117 441 101 429 101 415 L101 121 C101 54 157 0 228 0 C246 0 262 12 262 27 C262 42 247 49 231 49 C199 49 164 81 164 109 L164 419 C164 431 151 441 135 441 L135 441 Z M98 541 C98 527 113 519 127 519 C137 519 147 523 153 529 L227 603 C232 608 235 614 235 619 C235 633 220 641 206 641 C196 641 186 637 180 631 L106 557 C101 552 98 546 98 541 L98 541 Z " />
<glyph glyph-name="upsilondieresistonos" unicode="&#x3b0;" horiz-adv-x="507" d="M370 277 L370 169 C370 104 321 48 257 48 L184 48 C151 48 139 64 139 106 L139 418 C139 432 123 440 109 440 C94 440 76 431 76 415 L76 96 C76 41 124 0 179 0 L252 0 C349 0 433 76 433 173 L433 281 C433 377 352 450 271 450 C240 450 223 440 223 424 C223 409 227 403 249 403 L267 403 C329 403 370 331 370 277 L370 277 Z M101 612 L101 538 C101 523 117 516 131 516 C146 516 164 526 164 542 L164 616 C164 631 148 637 135 637 C120 637 101 628 101 612 L101 612 Z M185 695 C185 681 200 673 214 673 C224 673 234 677 240 683 L314 757 C319 762 322 768 322 773 C322 787 307 795 293 795 C283 795 273 791 267 785 L193 711 C188 706 185 700 185 695 L185 695 Z M250 612 L250 538 C250 523 266 516 280 516 C295 516 313 526 313 542 L313 616 C313 631 299 637 285 637 C270 637 250 628 250 612 L250 612 Z " />
<glyph glyph-name="alpha" unicode="&#x3b1;" horiz-adv-x="534" d="M433 26 L433 321 C433 404 383 450 292 450 C168 450 76 366 76 253 L76 194 C76 83 166 0 279 0 C318 0 335 9 335 26 C335 39 321 48 300 48 C210 48 139 113 139 197 L139 256 C139 341 199 402 282 402 C342 402 370 367 370 294 L370 23 C370 10 384 0 400 0 C417 0 433 12 433 26 L433 26 Z " />
<glyph glyph-name="beta" unicode="&#x3b2;" horiz-adv-x="509" d="M433 252 C433 345 366 409 298 430 C321 451 335 484 335 520 C335 592 279 646 207 646 C135 646 76 590 76 522 L76 -77 C76 -89 89 -98 102 -98 C120 -98 139 -78 139 -48 L139 534 C139 570 176 599 208 599 C244 599 272 561 272 516 C272 475 249 443 212 440 C188 438 174 428 174 413 C174 394 195 393 211 393 C312 393 370 323 370 265 L370 176 C370 109 295 47 221 47 C191 47 174 37 174 20 C174 5 186 0 214 0 C314 0 433 76 433 182 L433 252 Z " />
<glyph glyph-name="gamma" unicode="&#x3b3;" horiz-adv-x="458" d="M155 -122 C155 -168 177 -197 225 -197 C275 -197 301 -166 301 -118 C301 -78 283 -27 267 10 C265 15 263 20 261 25 C291 97 408 417 408 418 C408 432 393 440 379 440 C366 440 350 434 346 422 L230 111 L112 425 C108 435 95 440 84 440 C69 440 50 431 50 415 C50 414 168 94 196 23 C177 -21 155 -75 155 -122 L155 -122 Z M244 -126 C244 -135 244 -150 231 -150 C213 -150 212 -131 212 -118 C212 -98 220 -70 228 -46 C237 -72 244 -100 244 -126 L244 -126 Z " />
<glyph glyph-name="delta" unicode="&#x3b4;" horiz-adv-x="509" d="M76 267 L76 164 C76 70 155 -5 253 -5 C353 -5 433 73 433 168 L433 222 C433 316 355 391 257 391 L239 391 C210 391 188 412 188 440 C188 468 209 491 234 491 L302 491 C320 491 335 502 335 516 C335 529 323 538 306 538 L232 538 C173 538 125 493 125 439 C125 386 171 344 228 344 L255 344 C318 344 370 286 370 218 L370 164 C370 98 320 42 259 42 C199 42 139 97 139 153 L139 271 C139 283 126 293 109 293 C91 293 76 281 76 267 L76 267 Z " />
<glyph glyph-name="epsilon" unicode="&#x3b5;" horiz-adv-x="425" d="M233 42 C179 42 139 88 139 147 C139 201 172 240 221 245 C247 248 262 257 262 271 C262 283 251 291 230 293 C204 296 188 315 188 342 C188 371 206 393 230 393 L302 393 C320 393 335 403 335 417 C335 430 323 440 306 440 L240 440 C177 440 125 400 125 341 C125 315 136 290 155 273 C105 244 76 197 76 143 C76 60 143 -5 222 -5 C250 -5 348 16 348 56 C348 69 334 79 318 79 C305 79 297 73 287 65 C268 50 254 42 233 42 L233 42 Z " />
<glyph glyph-name="zeta" unicode="&#x3b6;" horiz-adv-x="510" d="M357 589 L139 174 C130 157 125 137 125 118 C125 53 181 2 246 -1 C288 -3 321 -29 321 -77 C321 -119 294 -146 261 -149 C240 -151 223 -159 223 -175 C223 -189 238 -197 252 -197 C324 -197 384 -143 384 -74 C384 -8 328 48 263 48 C221 48 188 75 188 118 C188 145 201 169 214 192 C217 197 219 201 221 206 L431 605 C433 608 433 612 433 615 C433 629 418 637 404 637 L110 637 C95 637 76 627 76 611 C76 597 91 589 105 589 L357 589 Z " />
<glyph glyph-name="eta" unicode="&#x3b7;" horiz-adv-x="532" d="M163 393 L277 393 C348 393 395 334 395 247 L395 -174 C395 -188 410 -197 424 -197 C439 -197 458 -187 458 -171 L458 25 C458 25 458 25 458 26 L458 271 C458 365 379 440 281 440 L134 440 C116 440 100 428 100 414 L100 22 C100 10 113 0 130 0 C148 0 163 12 163 26 L163 393 Z " />
<glyph glyph-name="theta" unicode="&#x3b8;" horiz-adv-x="508" d="M434 381 C434 475 355 551 257 551 C157 551 75 473 75 377 L75 165 C75 71 155 -5 253 -5 C353 -5 434 73 434 169 L434 381 Z M371 165 C371 97 320 43 257 43 C192 43 138 100 138 169 L138 245 L371 245 L371 165 Z M138 293 L138 381 C138 449 190 503 253 503 C318 503 371 446 371 377 L371 293 L138 293 Z " />
<glyph glyph-name="iota" unicode="&#x3b9;" horiz-adv-x="337" d="M135 441 C117 441 101 429 101 415 L101 121 C101 54 157 0 228 0 C246 0 262 12 262 27 C262 42 247 49 231 49 C199 49 164 81 164 109 L164 419 C164 431 151 441 135 441 L135 441 Z " />
<glyph glyph-name="kappa" unicode="&#x3ba;" horiz-adv-x="533" d="M163 25 L163 257 L237 294 L398 12 C403 4 414 0 424 0 C439 0 458 9 458 25 C458 28 457 32 455 36 L291 321 L441 396 C450 401 458 409 458 418 C458 432 443 440 429 440 C423 440 417 439 412 437 L163 312 L163 418 C163 432 148 440 134 440 C119 440 100 431 100 415 L100 22 C100 8 116 0 130 0 C145 0 163 9 163 25 L163 25 Z " />
<glyph glyph-name="lambda" unicode="&#x3bb;" horiz-adv-x="459" d="M99 637 C73 637 56 626 56 610 C56 598 66 587 94 587 C111 587 122 580 134 564 C158 530 183 455 196 414 L50 22 C50 9 64 0 81 0 C93 0 105 4 108 12 L228 329 L346 14 C349 5 361 -1 374 -1 C387 -1 408 10 408 15 C408 27 234 497 207 561 C188 606 143 637 99 637 L99 637 Z " />
<glyph glyph-name="uni03BC" unicode="&#x3bc;" horiz-adv-x="533" d="M76 415 L76 222 C75 220 75 218 75 216 L75 -177 C75 -191 91 -199 105 -199 C120 -199 138 -190 138 -174 L138 40 C169 15 208 0 252 0 L400 0 C418 0 433 11 433 25 L433 418 C433 430 420 440 404 440 C386 440 370 429 370 415 L370 48 L257 48 C188 48 139 108 139 193 L139 418 C138 431 127 440 111 440 C93 440 76 429 76 415 L76 415 Z " />
<glyph glyph-name="nu" unicode="&#x3bd;" horiz-adv-x="507" d="M173 -125 C173 -170 204 -197 250 -197 C295 -197 334 -168 334 -125 C334 -87 303 -12 287 25 L457 426 C457 432 441 440 428 440 C416 440 403 436 401 431 L255 99 L113 423 C107 437 96 440 84 440 C69 440 50 431 50 415 C50 413 51 409 52 406 L221 23 C201 -19 173 -83 173 -125 L173 -125 Z M236 -121 C236 -103 243 -79 252 -55 C263 -85 271 -112 271 -126 C271 -139 266 -149 254 -149 C240 -149 236 -136 236 -121 L236 -121 Z " />
<glyph glyph-name="xi" unicode="&#x3be;" horiz-adv-x="435" d="M384 31 C384 95 337 140 265 145 C189 150 139 202 139 275 C139 339 177 381 245 391 C273 395 286 403 286 416 C286 430 271 435 253 441 C224 451 188 463 188 519 C188 569 216 589 287 589 L351 589 C368 589 384 601 384 615 C384 627 372 636 355 636 L167 636 C147 636 139 644 139 662 C139 677 130 685 113 685 C90 685 76 673 76 652 C76 619 112 589 153 589 C135 566 125 540 125 513 C125 476 143 441 171 420 C113 390 76 330 76 267 C76 179 148 105 242 98 C295 94 321 71 321 27 C321 -17 293 -51 257 -51 C237 -51 223 -62 223 -76 C223 -90 237 -98 261 -98 C328 -98 384 -39 384 31 L384 31 Z " />
<glyph glyph-name="omicron" unicode="&#x3bf;" horiz-adv-x="507" d="M139 281 C139 348 190 402 253 402 C318 402 370 345 370 277 L370 164 C370 97 320 43 257 43 C193 43 139 101 139 168 L139 281 Z M76 164 C76 70 154 -5 252 -5 C352 -5 433 73 433 168 L433 281 C433 375 355 450 257 450 C157 450 76 372 76 277 L76 164 Z " />
<glyph glyph-name="pi" unicode="&#x3c0;" horiz-adv-x="558" d="M483 418 C483 430 470 440 453 440 L193 440 C124 440 76 399 76 341 L76 22 C76 10 88 0 105 0 C123 0 139 12 139 26 L139 321 C139 375 157 393 214 393 L346 393 L346 91 C346 38 384 0 438 0 C466 0 483 10 483 25 C483 39 469 47 453 47 C428 47 409 67 409 89 L409 393 L449 393 C467 393 483 404 483 418 L483 418 Z " />
<glyph glyph-name="rho" unicode="&#x3c1;" horiz-adv-x="509" d="M139 281 C139 348 190 403 253 403 C317 403 370 346 370 277 L370 169 C370 101 323 47 255 47 L219 47 C191 47 174 37 174 22 C174 10 186 0 203 0 L253 0 C352 0 433 79 433 173 L433 281 C433 375 355 450 257 450 C158 450 76 371 76 277 L76 -175 C76 -187 88 -196 105 -196 C122 -196 139 -185 139 -171 L139 281 Z " />
<glyph glyph-name="uni03C2" unicode="&#x3c2;" horiz-adv-x="443" d="M253 450 C156 450 76 368 76 277 L76 169 C76 72 151 0 251 0 C283 0 297 -8 297 -25 C297 -43 280 -51 243 -51 L183 -51 C165 -51 149 -62 149 -76 C149 -88 163 -98 179 -98 L277 -98 C323 -98 360 -63 360 -20 C360 22 324 47 267 47 C192 47 139 101 139 173 L139 281 C139 347 190 402 249 402 C271 402 289 395 309 386 C320 381 329 378 337 378 C353 378 368 390 368 403 C368 426 305 450 253 450 L253 450 Z " />
<glyph glyph-name="sigma" unicode="&#x3c3;" horiz-adv-x="509" d="M76 267 L76 164 C76 70 155 -5 253 -5 C352 -5 433 74 433 168 L433 222 C433 277 394 348 362 348 C346 348 328 337 328 326 C328 320 334 312 341 301 C353 282 370 255 370 218 L370 164 C370 97 320 42 257 42 C193 42 139 99 139 168 L139 271 C139 324 173 393 249 393 L324 393 C388 393 433 420 433 460 C433 478 421 489 402 489 C386 489 370 482 370 458 C370 444 358 440 331 440 L257 440 C159 440 76 361 76 267 L76 267 Z " />
<glyph glyph-name="tau" unicode="&#x3c4;" horiz-adv-x="311" d="M256 440 L59 440 C41 440 26 428 26 414 C26 402 38 393 55 393 L75 393 L75 169 C75 75 154 0 252 0 C270 0 285 12 285 26 C285 38 272 47 256 47 L236 47 C187 47 138 105 138 163 L138 393 L252 393 C270 393 285 404 285 418 C285 430 273 440 256 440 L256 440 Z " />
<glyph glyph-name="upsilon" unicode="&#x3c5;" horiz-adv-x="509" d="M370 277 L370 169 C370 104 321 48 257 48 L184 48 C151 48 139 64 139 106 L139 418 C139 432 123 440 109 440 C94 440 76 431 76 415 L76 96 C76 41 124 0 179 0 L252 0 C349 0 433 76 433 173 L433 281 C433 377 352 450 271 450 C240 450 223 440 223 424 C223 409 227 403 249 403 L267 403 C329 403 370 331 370 277 L370 277 Z " />
<glyph glyph-name="phi" unicode="&#x3c6;" horiz-adv-x="607" d="M76 326 L76 218 C76 105 163 16 272 2 L272 -175 C272 -189 288 -196 302 -196 C317 -196 335 -187 335 -171 L335 2 C445 17 532 109 532 222 L532 330 C532 398 473 450 404 450 C334 450 272 396 272 326 L272 51 C196 68 139 140 139 222 L139 330 C139 386 172 403 199 403 C223 403 237 412 237 427 C237 443 223 450 199 450 C139 450 76 396 76 326 L76 326 Z M335 50 L335 314 C335 359 352 403 397 403 C439 403 468 366 468 326 L468 218 C468 136 412 65 335 50 L335 50 Z " />
<glyph glyph-name="chi" unicode="&#x3c7;" horiz-adv-x="556" d="M108 393 L245 120 L102 -165 C100 -168 99 -171 99 -174 C99 -188 115 -197 129 -197 C142 -197 155 -190 160 -180 L277 55 L396 -184 C400 -193 412 -197 423 -197 L472 -197 C487 -197 506 -187 506 -169 C506 -154 495 -149 476 -149 L448 -149 L312 124 L454 409 C456 412 457 415 457 418 C457 432 442 440 428 440 C415 440 402 434 397 424 L279 189 L160 427 C156 436 144 440 133 440 L84 440 C69 440 51 430 50 413 C50 403 57 393 76 393 L108 393 Z " />
<glyph glyph-name="psi" unicode="&#x3c8;" horiz-adv-x="607" d="M272 611 L272 47 C198 64 139 133 139 214 L139 418 C139 432 122 440 109 440 C94 440 76 430 76 414 L76 213 C76 100 163 11 272 -3 L272 -175 C272 -189 288 -196 302 -196 C317 -196 335 -187 335 -171 L335 -2 C445 13 532 104 532 217 L532 330 C532 398 473 450 404 450 C389 450 370 441 370 423 C370 409 382 403 399 403 C438 403 468 375 468 326 L468 213 C468 130 411 58 335 45 L335 615 C335 629 320 636 306 636 C291 636 272 627 272 611 L272 611 Z " />
<glyph glyph-name="omega" unicode="&#x3c9;" horiz-adv-x="705" d="M567 277 L567 164 C567 97 516 43 453 43 C405 43 395 75 387 102 C381 123 376 141 352 141 C328 141 323 123 318 102 C311 75 303 43 256 43 C192 43 139 100 139 168 L139 281 C139 338 191 403 237 403 L257 403 C274 403 286 412 286 426 C286 442 272 450 243 450 C154 450 76 369 76 277 L76 164 C76 72 153 -5 244 -5 C287 -5 329 11 352 37 C376 11 415 -5 457 -5 C550 -5 630 75 630 168 L630 281 C630 368 562 450 490 450 L465 450 C439 450 419 438 419 423 C419 411 432 403 450 403 L475 403 C522 403 567 340 567 277 L567 277 Z " />
<glyph glyph-name="iotadieresis" unicode="&#x3ca;" horiz-adv-x="337" d="M135 441 C117 441 101 429 101 415 L101 121 C101 54 157 0 228 0 C246 0 262 12 262 27 C262 42 247 49 231 49 C199 49 164 81 164 109 L164 419 C164 431 151 441 135 441 L135 441 Z M28 633 L28 559 C28 544 44 537 58 537 C73 537 91 547 91 563 L91 637 C91 652 75 658 62 658 C47 658 28 649 28 633 L28 633 Z M177 633 L177 559 C177 544 193 537 207 537 C222 537 240 547 240 563 L240 637 C240 652 226 658 212 658 C197 658 177 649 177 633 L177 633 Z " />
<glyph glyph-name="upsilondieresis" unicode="&#x3cb;" horiz-adv-x="509" d="M370 277 L370 169 C370 104 321 48 257 48 L184 48 C151 48 139 64 139 106 L139 418 C139 432 123 440 109 440 C94 440 76 431 76 415 L76 96 C76 41 124 0 179 0 L252 0 C349 0 433 76 433 173 L433 281 C433 377 352 450 271 450 C240 450 223 440 223 424 C223 409 227 403 249 403 L267 403 C329 403 370 331 370 277 L370 277 Z M98 626 L98 552 C98 537 114 530 128 530 C143 530 161 540 161 556 L161 630 C161 645 145 651 132 651 C117 651 98 642 98 626 L98 626 Z M247 626 L247 552 C247 537 263 530 277 530 C292 530 310 540 310 556 L310 630 C310 645 296 651 282 651 C267 651 247 642 247 626 L247 626 Z " />
<glyph glyph-name="omicrontonos" unicode="&#x3cc;" horiz-adv-x="507" d="M139 281 C139 348 190 402 253 402 C318 402 370 345 370 277 L370 164 C370 97 320 43 257 43 C193 43 139 101 139 168 L139 281 Z M76 164 C76 70 154 -5 252 -5 C352 -5 433 73 433 168 L433 281 C433 375 355 450 257 450 C157 450 76 372 76 277 L76 164 Z M222 541 C222 527 237 519 251 519 C261 519 271 523 277 529 L351 603 C356 608 359 614 359 619 C359 633 344 641 330 641 C320 641 310 637 304 631 L230 557 C225 552 222 546 222 541 L222 541 Z " />
<glyph glyph-name="upsilontonos" unicode="&#x3cd;" horiz-adv-x="507" d="M370 277 L370 169 C370 104 321 48 257 48 L184 48 C151 48 139 64 139 106 L139 418 C139 432 123 440 109 440 C94 440 76 431 76 415 L76 96 C76 41 124 0 179 0 L252 0 C349 0 433 76 433 173 L433 281 C433 377 352 450 271 450 C240 450 223 440 223 424 C223 409 227 403 249 403 L267 403 C329 403 370 331 370 277 L370 277 Z M172 541 C172 527 187 519 201 519 C211 519 221 523 227 529 L301 603 C306 608 309 614 309 619 C309 633 294 641 280 641 C270 641 260 637 254 631 L180 557 C175 552 172 546 172 541 L172 541 Z " />
<glyph glyph-name="omegatonos" unicode="&#x3ce;" horiz-adv-x="705" d="M567 277 L567 164 C567 97 516 43 453 43 C405 43 395 75 387 102 C381 123 376 141 352 141 C328 141 323 123 318 102 C311 75 303 43 256 43 C192 43 139 100 139 168 L139 281 C139 338 191 403 237 403 L257 403 C274 403 286 412 286 426 C286 442 272 450 243 450 C154 450 76 369 76 277 L76 164 C76 72 153 -5 244 -5 C287 -5 329 11 352 37 C376 11 415 -5 457 -5 C550 -5 630 75 630 168 L630 281 C630 368 562 450 490 450 L465 450 C439 450 419 438 419 423 C419 411 432 403 450 403 L475 403 C522 403 567 340 567 277 L567 277 Z M325 548 C325 534 340 526 354 526 C364 526 374 530 380 536 L454 610 C459 615 462 621 462 626 C462 640 447 648 433 648 C423 648 413 644 407 638 L333 564 C328 559 325 553 325 548 L325 548 Z " />
<glyph glyph-name="uni0400" unicode="&#x400;" horiz-adv-x="534" d="M480 640 L134 640 C119 640 101 630 101 614 L101 71 C101 29 138 0 180 0 L476 0 C491 0 510 10 510 26 C510 41 494 47 480 47 L194 47 C174 47 164 55 164 75 L164 346 L303 346 C318 346 337 355 337 371 C337 386 321 393 307 393 L164 393 L164 592 L476 592 C491 592 510 602 510 618 C510 633 494 640 480 640 L480 640 Z M344 710 C359 710 378 720 378 736 C378 741 375 746 371 750 L297 824 C292 829 283 832 275 832 C260 832 241 822 241 806 C241 801 244 796 248 792 L322 718 C327 713 336 710 344 710 L344 710 Z " />
<glyph glyph-name="uni0401" unicode="&#x401;" horiz-adv-x="534" d="M480 640 L134 640 C119 640 101 630 101 614 L101 71 C101 29 138 0 180 0 L476 0 C491 0 510 10 510 26 C510 41 494 47 480 47 L194 47 C174 47 164 55 164 75 L164 346 L303 346 C318 346 337 355 337 371 C337 386 321 393 307 393 L164 393 L164 592 L476 592 C491 592 510 602 510 618 C510 633 494 640 480 640 L480 640 Z M202 832 L202 758 C202 743 218 736 232 736 C247 736 265 746 265 762 L265 836 C265 851 249 857 236 857 C221 857 202 848 202 832 L202 832 Z M351 832 L351 758 C351 743 367 736 381 736 C396 736 414 746 414 762 L414 836 C414 851 400 857 386 857 C371 857 351 848 351 832 L351 832 Z " />
<glyph glyph-name="uni0402" unicode="&#x402;" horiz-adv-x="658" d="M519 213 C519 125 448 48 356 48 L188 48 L188 592 L332 592 C347 592 365 602 365 618 C365 632 350 640 336 640 L84 640 C69 640 51 630 51 614 C51 600 66 592 80 592 L125 592 L125 22 C125 8 140 0 154 0 L351 0 C474 0 583 96 583 223 C583 345 482 443 356 443 L257 443 C242 443 223 433 223 417 C223 400 244 395 266 395 L356 395 C451 395 519 318 519 213 L519 213 Z " />
<glyph glyph-name="uni0403" unicode="&#x403;" horiz-adv-x="500" d="M164 592 L426 592 C441 592 460 602 460 618 C460 632 445 640 431 640 L135 640 C120 640 101 630 101 614 L101 22 C101 8 116 0 130 0 C145 0 164 9 164 25 L164 592 Z M251 713 C251 696 270 687 287 687 C299 687 310 691 317 697 L390 770 C396 776 400 783 400 789 C400 806 381 815 364 815 C352 815 340 811 333 804 L260 731 C254 725 251 719 251 713 L251 713 Z " />
<glyph glyph-name="uni0404" unicode="&#x404;" horiz-adv-x="535" d="M282 393 L139 393 L139 430 C139 526 212 602 306 602 C339 602 366 592 401 568 C413 560 418 559 426 559 C444 559 459 571 459 585 C459 617 379 650 306 650 C178 650 75 548 75 426 L75 214 C75 94 175 -5 301 -5 C376 -5 459 30 459 63 C459 76 446 87 430 87 C418 87 411 82 402 75 L400 74 C368 51 345 43 313 43 C216 43 139 120 139 218 L139 345 L277 345 C292 345 311 355 311 371 C311 385 296 393 282 393 L282 393 Z " />
<glyph glyph-name="uni0405" unicode="&#x405;" horiz-adv-x="577" d="M279 -5 C412 -5 502 68 502 181 C502 303 399 339 305 372 C198 410 164 437 164 485 C164 548 220 597 289 597 C333 597 364 591 399 574 C412 568 419 566 426 566 C445 566 460 577 460 590 C460 618 383 645 309 645 C189 645 101 574 101 479 C101 412 144 373 274 327 C356 298 438 270 438 173 C438 92 380 43 284 43 C235 43 196 56 138 95 L136 97 C121 107 113 111 106 111 C92 111 76 98 76 86 C76 78 81 70 95 58 L98 55 C143 16 207 -5 279 -5 L279 -5 Z " />
<glyph glyph-name="uni0406" unicode="&#x406;" horiz-adv-x="263" d="M164 26 L164 618 C164 633 148 640 134 640 C119 640 101 630 101 614 L101 22 C101 7 116 0 130 0 C145 0 164 10 164 26 L164 26 Z " />
<glyph glyph-name="uni0407" unicode="&#x407;" horiz-adv-x="300" d="M164 26 L164 618 C164 633 148 640 134 640 C119 640 101 630 101 614 L101 22 C101 7 116 0 130 0 C145 0 164 10 164 26 L164 26 Z M27 832 L27 758 C27 743 43 736 57 736 C72 736 90 746 90 762 L90 836 C90 851 74 857 61 857 C46 857 27 848 27 832 L27 832 Z M176 832 L176 758 C176 743 192 736 206 736 C221 736 239 746 239 762 L239 836 C239 851 225 857 211 857 C196 857 176 848 176 832 L176 832 Z " />
</font>
</svg>
