<?xml version="1.0" encoding="UTF-8"?>
<svg xmlns="http://www.w3.org/2000/svg" xmlns:xlink="http://www.w3.org/1999/xlink" version="1.2" >
<font id="GAPZuidVG-BoldItalic" horiz-adv-x="476">
<font-face  font-family="GAP Zuid VG" units-per-em="1000" ascent="620" descent="-220" font-style="italic" font-weight="700" font-stretch="normal" slope="-12" cap-height="620" x-height="440" underline-position="-100" underline-thickness="50" />
<missing-glyph horiz-adv-x="549" d="M423 0 C437 0 452 10 454 22 L582 622 C584 632 576 640 563 640 L263 640 C249 640 234 630 232 618 L104 18 C102 8 110 0 123 0 L423 0 Z M158 40 L277 600 L528 600 L409 40 L158 40 Z " />
<glyph glyph-name="NULL" horiz-adv-x="0" >
</glyph>
<glyph glyph-name="CR" unicode="&#xd;" horiz-adv-x="250" >
</glyph>
<glyph glyph-name="space" unicode="&#x20;" horiz-adv-x="299" />
<glyph glyph-name="uni0000" horiz-adv-x="449" d="M370 0 C384 0 399 10 401 22 L529 622 C531 632 523 640 510 640 L210 640 C196 640 181 630 179 618 L51 18 C49 8 57 0 70 0 L370 0 Z M105 40 L224 600 L475 600 L356 40 L105 40 Z M309 291 C303 263 315 247 342 247 C368 247 388 262 398 290 C419 345 476 344 489 410 C505 482 449 540 366 540 C303 540 224 509 219 481 C215 464 233 446 255 446 C284 446 306 474 344 474 C383 474 409 444 402 409 C391 358 321 348 309 291 L309 291 Z M322 180 L312 132 C308 114 323 100 346 100 C371 100 396 117 400 136 L410 183 C414 202 399 216 375 216 C351 216 326 199 322 180 L322 180 Z " />
<glyph glyph-name="uni000D" horiz-adv-x="249" />
<glyph glyph-name="exclam" unicode="&#x21;" horiz-adv-x="250" d="M91 175 C87 157 102 143 125 143 C149 143 175 160 179 178 L271 607 C275 625 259 639 236 639 C212 639 187 622 182 603 L91 175 Z M127 80 L117 32 C113 14 129 0 152 0 C177 0 202 17 206 36 L216 83 C220 102 205 116 181 116 C157 116 132 99 127 80 L127 80 Z " />
<glyph glyph-name="quotedbl" unicode="&#x22;" horiz-adv-x="349" d="M188 603 L158 461 C154 442 169 428 192 428 C217 428 242 445 246 464 L276 607 C280 625 265 639 242 639 C217 639 192 622 188 603 L188 603 Z M331 603 L300 461 C296 442 312 428 335 428 C360 428 385 445 389 464 L419 607 C423 625 408 639 384 639 C360 639 335 622 331 603 L331 603 Z " />
<glyph glyph-name="numbersign" unicode="&#x23;" horiz-adv-x="601" d="M120 32 C116 14 132 0 155 0 C176 0 199 12 206 28 L281 190 L359 190 L290 40 C288 37 287 34 287 32 C283 14 298 0 322 0 C343 0 365 12 372 28 L447 190 L507 190 C531 190 556 207 560 226 C564 244 549 259 526 259 L479 259 L492 285 L551 285 C575 285 600 302 604 321 C608 339 593 354 570 354 L523 354 L593 504 C594 507 595 509 595 512 C599 530 584 544 561 544 C539 544 517 532 510 516 L435 354 L357 354 L426 504 C427 507 428 509 429 512 C433 530 417 544 394 544 C373 544 350 532 343 516 L268 354 L211 354 C186 354 161 337 157 318 C153 300 169 285 192 285 L236 285 L224 259 L167 259 C142 259 117 242 113 223 C109 204 124 190 148 190 L192 190 L123 40 C122 37 121 34 120 32 L120 32 Z M313 259 L325 285 L403 285 L391 259 L313 259 Z " />
<glyph glyph-name="dollar" unicode="&#x24;" horiz-adv-x="398" d="M274 518 L253 418 C250 408 259 400 271 400 C286 400 301 410 303 422 L324 522 C326 532 318 540 306 540 C291 540 276 530 274 518 L274 518 Z M168 18 L146 -82 C144 -92 152 -100 165 -100 C179 -100 194 -90 197 -78 L218 22 C220 32 212 40 199 40 C185 40 170 30 168 18 L168 18 Z M395 126 C409 194 375 235 263 281 L258 284 C217 301 202 314 206 332 C211 353 240 368 274 368 C296 368 314 363 341 350 C347 347 354 345 361 345 C386 345 412 364 416 385 C422 411 352 445 292 445 C210 445 130 392 117 328 C106 277 134 241 206 212 C255 193 315 170 305 123 C299 92 263 72 213 72 C177 72 155 80 129 104 C121 111 113 114 102 114 C77 114 51 95 46 74 C44 61 47 52 60 40 L62 39 C93 11 139 -5 190 -5 C295 -5 379 49 395 126 L395 126 Z " />
<glyph glyph-name="percent" unicode="&#x25;" horiz-adv-x="749" d="M719 179 C734 250 685 307 609 307 C532 307 455 247 440 175 L430 128 C415 57 464 0 540 0 C617 0 694 59 709 131 L719 179 Z M436 417 C452 488 403 545 327 545 C249 545 173 485 158 413 L147 366 C132 295 181 238 257 238 C335 238 411 297 426 369 L436 417 Z M219 32 C215 14 231 0 254 0 C273 0 292 8 301 22 L304 26 C309 34 319 47 336 71 C452 232 537 352 589 426 L637 493 C639 495 640 497 640 500 C645 507 647 511 647 512 C651 530 636 544 612 544 C593 544 575 535 565 522 L562 518 C562 518 562 518 562 518 L262 96 C260 94 258 91 255 88 C244 72 235 59 229 50 C228 49 227 48 227 47 C222 40 220 35 219 32 L219 32 Z M620 128 C613 95 586 69 559 69 C530 69 511 97 519 131 L529 179 C536 212 563 238 590 238 C619 238 638 210 630 175 L620 128 Z M338 366 C331 333 303 307 276 307 C247 307 229 335 236 369 L246 417 C253 449 281 476 308 476 C337 476 355 447 348 413 L338 366 Z " />
<glyph glyph-name="ampersand" unicode="&#x26;" horiz-adv-x="574" d="M268 64 C210 64 177 113 191 178 C204 237 248 278 306 284 L312 285 C340 288 359 302 364 321 C367 339 356 350 332 353 L327 354 C295 357 282 382 290 421 C297 454 325 480 352 480 C364 480 372 474 379 469 C390 460 397 457 409 457 C434 457 459 474 463 493 C469 519 419 549 371 549 C290 549 217 490 200 412 C194 380 201 348 219 324 C159 291 115 233 101 169 C81 72 146 -5 249 -5 C342 -5 432 59 466 143 L493 143 C518 142 543 159 547 178 C551 197 536 211 512 211 L347 211 C322 211 297 194 293 175 C289 157 304 143 328 143 L376 143 C355 96 312 64 268 64 L268 64 Z " />
<glyph glyph-name="quotesingle" unicode="&#x27;" horiz-adv-x="199" d="M185 603 L155 461 C151 442 166 428 189 428 C214 428 239 445 243 464 L273 607 C277 625 262 639 239 639 C214 639 189 622 185 603 L185 603 Z " />
<glyph glyph-name="parenleft" unicode="&#x28;" horiz-adv-x="274" d="M114 318 C90 207 95 115 131 -11 C136 -28 142 -48 172 -48 C197 -48 222 -31 226 -12 C227 -7 227 -2 224 4 C185 110 178 209 202 321 C226 433 275 533 359 638 C364 644 367 649 368 654 C372 672 356 687 333 687 C309 687 289 673 263 637 C183 523 136 425 114 318 L114 318 Z " />
<glyph glyph-name="parenright" unicode="&#x29;" horiz-adv-x="274" d="M208 318 C184 207 133 104 52 1 C47 -5 44 -10 43 -15 C39 -33 54 -48 77 -48 C102 -48 123 -32 150 6 C229 118 275 216 297 321 C320 431 316 523 279 650 C274 667 269 687 238 687 C213 687 188 670 184 651 C183 646 184 641 186 635 C225 528 232 429 208 318 L208 318 Z " />
<glyph glyph-name="asterisk" unicode="&#x2a;" horiz-adv-x="299" d="M237 416 L242 399 C245 388 258 380 275 380 C300 380 325 397 329 416 C330 420 319 463 309 497 C333 507 359 519 377 528 C395 537 405 547 407 559 C411 577 396 592 372 592 C361 592 338 583 315 572 L322 607 C326 625 311 639 287 639 C263 639 238 622 233 603 L226 571 C215 576 201 583 182 592 C157 592 132 575 128 556 C126 545 130 536 142 528 C154 520 178 507 201 495 C179 465 147 421 145 413 C142 395 157 380 180 380 C199 380 218 389 227 402 L237 416 Z " />
<glyph glyph-name="plus" unicode="&#x2b;" horiz-adv-x="399" d="M153 238 L207 238 L193 175 C189 157 205 143 228 143 C253 143 278 159 282 178 L294 238 L344 238 C368 238 393 254 397 274 C401 292 386 306 362 306 L309 306 L322 369 C326 387 311 401 287 401 C263 401 238 385 234 365 L221 306 L172 306 C148 306 122 289 118 270 C114 252 130 238 153 238 L153 238 Z " />
<glyph glyph-name="comma" unicode="&#x2c;" horiz-adv-x="249" d="M200 36 C204 54 189 68 166 68 L118 68 C93 68 68 51 64 32 C60 11 73 0 104 -1 C95 -35 83 -63 62 -99 C60 -104 58 -107 58 -110 C54 -129 69 -143 92 -143 C129 -143 139 -124 151 -102 C175 -59 188 -23 200 36 L200 36 Z " />
<glyph glyph-name="hyphen" unicode="&#x2d;" horiz-adv-x="399" d="M152 238 L343 238 C367 238 392 254 396 274 C400 292 385 306 362 306 L171 306 C147 306 122 289 117 270 C114 252 129 238 152 238 L152 238 Z " />
<glyph glyph-name="period" unicode="&#x2e;" horiz-adv-x="199" d="M73 80 L63 32 C59 14 75 0 98 0 C123 0 148 17 152 36 L162 83 C166 102 150 116 127 116 C102 116 77 99 73 80 L73 80 Z " />
<glyph glyph-name="slash" unicode="&#x2f;" horiz-adv-x="349" d="M478 654 C482 672 466 687 443 687 C423 687 407 679 395 664 C389 655 383 646 374 627 C371 622 368 617 366 613 L300 498 C213 346 162 256 114 172 L108 162 C86 123 11 -9 10 -15 C6 -33 21 -48 45 -48 C65 -48 80 -40 92 -25 C99 -16 104 -7 114 12 C117 17 119 22 122 26 L187 141 C274 293 325 383 374 468 L379 477 C401 516 476 648 478 654 L478 654 Z " />
<glyph glyph-name="zero" unicode="0" horiz-adv-x="499" d="M518 378 C538 476 473 554 370 554 C266 554 164 473 143 375 L100 170 C79 73 145 -5 247 -5 C351 -5 453 75 474 174 L518 378 Z M385 170 C373 111 319 64 266 64 C211 64 176 113 189 174 L232 378 C245 437 298 485 351 485 C407 485 442 435 429 375 L385 170 Z " />
<glyph glyph-name="one" unicode="1" horiz-adv-x="324" d="M274 36 L376 512 C379 530 364 544 341 544 L222 544 C197 544 172 527 168 508 C164 490 179 476 203 476 L280 476 L186 32 C182 14 197 0 221 0 C245 0 270 17 274 36 L274 36 Z " />
<glyph glyph-name="two" unicode="2" horiz-adv-x="424" d="M190 68 L401 314 C426 343 443 375 449 405 C466 486 408 554 321 554 C273 554 225 535 186 501 C176 493 164 483 162 470 C158 452 173 438 196 438 C217 438 229 447 244 459 C258 471 276 485 302 485 C344 485 370 446 360 399 C355 374 331 340 275 278 C267 269 259 260 253 253 L78 49 C73 43 70 37 68 32 C65 14 80 -1 103 -1 L317 -1 C342 -1 367 16 371 35 C375 53 360 68 336 68 L190 68 Z " />
<glyph glyph-name="three" unicode="3" horiz-adv-x="462" d="M438 178 C456 263 409 336 326 351 L461 492 C468 499 472 506 473 512 C477 530 462 544 439 544 L224 544 C200 544 175 527 171 508 C167 490 182 476 206 476 L347 476 L214 337 C207 331 203 324 202 318 C197 296 211 285 245 285 C248 285 252 285 256 285 C259 285 261 286 263 286 C329 286 363 239 349 169 C336 111 282 63 229 63 C203 63 187 72 161 100 C154 107 146 110 133 110 C108 110 83 93 79 74 C76 62 84 53 91 45 L91 44 C119 12 161 -5 207 -5 C317 -5 416 73 438 178 L438 178 Z " />
<glyph glyph-name="four" unicode="4" horiz-adv-x="449" d="M65 128 C61 109 77 95 100 95 L344 95 L330 32 C327 14 342 0 365 0 C390 0 415 17 419 36 L460 226 C463 244 448 259 425 259 C400 259 375 242 371 223 L358 163 L180 163 C184 170 189 176 427 521 C431 539 416 554 392 554 C373 554 360 548 347 534 C337 522 322 500 310 482 C305 475 301 469 298 465 L292 456 C250 396 67 137 65 128 L65 128 Z " />
<glyph glyph-name="five" unicode="5" horiz-adv-x="461" d="M210 -5 C316 -5 416 76 438 179 C460 281 391 355 275 355 C268 355 261 355 248 354 C246 354 244 354 242 354 L283 476 L408 476 C432 476 457 492 462 512 C465 530 450 544 427 544 L260 544 C237 544 214 530 207 512 L142 319 C138 300 154 285 177 285 C185 285 194 286 211 286 C222 286 233 286 244 286 L246 286 C267 286 279 285 289 284 C337 274 361 229 348 171 C336 112 282 64 229 64 C203 64 186 73 161 100 C154 108 146 111 132 111 C108 111 83 94 79 75 C76 62 84 54 90 46 L91 45 C120 12 160 -5 210 -5 L210 -5 Z " />
<glyph glyph-name="six" unicode="6" horiz-adv-x="499" d="M385 170 C373 111 319 64 266 64 C211 64 176 113 189 174 L220 321 C235 392 293 454 359 471 C374 474 389 476 417 476 L421 476 C445 476 470 492 474 512 C479 534 465 544 430 544 C397 544 370 541 345 534 C241 506 152 416 131 318 L100 170 C79 73 145 -5 247 -5 C353 -5 453 75 475 178 C496 276 430 354 328 354 L280 354 C256 354 231 337 226 318 C222 296 237 285 272 285 C276 285 282 285 289 285 C292 286 294 286 297 286 C365 286 400 240 385 170 L385 170 Z " />
<glyph glyph-name="seven" unicode="7" horiz-adv-x="399" d="M472 512 C476 530 461 544 438 544 L200 544 C175 544 150 527 146 508 C142 490 157 476 181 476 L362 476 C357 466 356 465 338 436 C262 309 100 42 98 32 C94 14 110 0 133 0 C161 0 177 12 197 49 C199 53 201 56 203 60 L264 161 C318 251 372 340 426 430 L428 433 C437 448 471 507 472 512 L472 512 Z " />
<glyph glyph-name="eight" unicode="8" horiz-adv-x="499" d="M475 178 C488 240 465 295 421 326 C450 351 471 385 480 426 C495 496 446 554 370 554 C287 554 217 495 199 413 C192 378 199 347 218 324 C159 292 114 236 100 170 C79 73 145 -5 247 -5 C353 -5 453 76 475 178 L475 178 Z M266 64 C209 64 176 114 190 178 C202 237 256 285 309 285 C365 285 399 234 385 170 C373 112 319 64 266 64 L266 64 Z M328 354 C296 354 281 383 290 426 C297 459 324 485 351 485 C383 485 398 455 389 413 C382 380 355 354 328 354 L328 354 Z " />
<glyph glyph-name="nine" unicode="9" horiz-adv-x="499" d="M232 378 C246 437 299 485 351 485 C407 485 442 435 429 375 L386 175 C374 116 320 68 267 68 C249 68 233 74 213 90 C199 101 192 104 180 104 C156 104 131 87 126 68 C124 58 128 50 141 38 L142 37 C168 13 205 0 248 0 C352 0 454 80 475 178 L518 378 C538 476 473 554 370 554 C261 554 164 474 141 365 C121 268 187 190 289 190 L336 190 C361 190 386 207 390 226 C395 248 379 259 344 259 C340 259 335 259 328 258 C324 258 322 258 320 258 C251 258 216 305 232 378 L232 378 Z " />
<glyph glyph-name="colon" unicode="&#x3a;" horiz-adv-x="199" d="M143 405 L132 357 C129 339 144 325 167 325 C192 325 217 342 221 361 L231 408 C235 427 220 441 196 441 C172 441 147 424 143 405 L143 405 Z M73 80 L63 32 C59 14 75 0 98 0 C123 0 148 17 152 36 L162 83 C166 102 151 116 127 116 C103 116 78 99 73 80 L73 80 Z " />
<glyph glyph-name="semicolon" unicode="&#x3b;" horiz-adv-x="249" d="M201 36 C205 54 189 68 166 68 L118 68 C94 68 69 51 64 32 C60 11 73 0 104 -1 C96 -35 84 -63 63 -99 C60 -104 59 -107 58 -110 C54 -129 69 -143 93 -143 C129 -143 139 -124 151 -102 C175 -59 188 -23 201 36 L201 36 Z M163 405 L152 357 C149 339 164 325 187 325 C212 325 237 342 241 361 L251 408 C255 427 240 441 216 441 C192 441 167 424 163 405 L163 405 Z " />
<glyph glyph-name="less" unicode="&#x3c;" horiz-adv-x="324" d="M117 270 C115 263 118 255 123 248 L217 129 C222 123 232 119 245 119 C270 119 295 136 299 155 C301 162 298 170 293 177 L217 273 L333 369 C342 377 348 385 350 393 C354 411 338 425 315 425 C301 425 287 421 278 413 L133 294 C125 287 118 277 117 270 L117 270 Z " />
<glyph glyph-name="equal" unicode="&#x3d;" horiz-adv-x="399" d="M142 188 L332 188 C356 188 382 204 386 224 C390 242 374 256 351 256 L161 256 C136 256 111 239 107 220 C103 202 118 188 142 188 L142 188 Z M163 288 L353 288 C378 288 403 304 407 324 C411 342 395 356 372 356 L182 356 C157 356 132 339 128 320 C124 302 140 288 163 288 L163 288 Z " />
<glyph glyph-name="greater" unicode="&#x3e;" horiz-adv-x="324" d="M224 271 L108 175 C99 167 93 159 92 151 C88 133 103 119 126 119 C140 119 154 123 164 131 L308 250 C317 258 323 266 324 274 C326 281 324 289 318 296 L225 415 C219 421 209 425 196 425 C171 425 146 408 142 389 C141 382 143 374 148 367 L224 271 Z " />
<glyph glyph-name="question" unicode="&#x3f;" horiz-adv-x="417" d="M308 571 C359 570 392 523 380 468 C371 425 349 407 315 378 C239 311 198 249 182 175 C178 157 194 142 217 142 C250 142 266 157 277 198 C292 252 320 290 398 357 C435 389 460 430 468 471 C488 565 425 639 327 639 C281 639 235 624 198 597 L197 595 C186 588 173 578 170 565 C167 546 182 532 205 532 C223 532 234 539 248 548 C273 565 289 571 308 571 L308 571 Z M220 80 L210 32 C206 14 222 0 245 0 C270 0 295 17 299 36 L309 83 C313 102 298 116 274 116 C250 116 225 99 220 80 L220 80 Z " />
<glyph glyph-name="at" unicode="&#x40;" horiz-adv-x="599" d="M572 178 L625 426 C651 549 569 649 440 649 C310 649 182 547 155 423 L113 223 C87 99 169 0 298 0 L393 0 C417 0 442 16 447 36 C450 54 435 68 412 68 C403 68 394 68 378 68 C367 68 356 67 345 67 C318 67 304 68 291 71 C223 84 185 150 202 226 L244 426 C262 511 341 580 421 580 C495 580 544 520 539 449 C537 449 534 449 532 449 C477 449 449 449 421 449 C357 449 294 401 281 342 L261 246 C248 189 289 142 352 142 L423 142 C448 142 473 159 477 178 C481 197 465 211 442 211 C436 211 429 211 417 211 C408 210 400 210 392 210 L386 210 C355 210 344 222 349 250 L370 345 C375 370 388 381 413 381 L417 381 C446 381 474 381 502 380 C512 380 520 380 528 380 C526 372 524 364 522 355 C518 339 517 331 515 324 L483 175 C480 157 495 142 518 142 C543 142 568 159 572 178 L572 178 Z " />
<glyph glyph-name="A" unicode="A" horiz-adv-x="480" d="M4 37 C0 16 15 0 38 0 C58 0 79 12 88 29 L124 93 L394 93 L403 26 C406 10 420 0 438 0 C462 0 488 19 493 40 C494 46 489 87 480 151 L479 158 C468 243 456 329 432 498 L418 594 C418 596 418 598 418 602 C414 636 404 648 380 648 C354 648 336 634 318 599 C316 595 315 593 314 591 L259 494 C163 326 115 240 67 155 L63 148 C27 84 5 42 4 37 L4 37 Z M341 478 L383 171 L168 171 L341 478 Z " />
<glyph glyph-name="B" unicode="B" horiz-adv-x="557" d="M506 376 C542 405 568 445 576 486 C594 571 535 639 442 639 L217 639 C192 639 167 620 162 598 L43 37 C39 16 54 0 77 0 L302 0 C424 0 543 92 567 205 C584 285 547 359 476 389 L506 376 Z M478 200 C463 133 393 78 323 78 L140 78 L193 327 L370 327 C375 327 380 326 385 326 C449 323 492 265 478 200 L478 200 Z M209 405 L242 561 L421 561 C467 561 497 525 487 480 C479 440 444 411 396 406 L391 405 L209 405 Z " />
<glyph glyph-name="C" unicode="C" horiz-adv-x="525" d="M318 73 C231 73 174 141 191 223 L234 424 C251 505 334 570 419 570 C455 570 479 562 512 538 C519 532 527 530 536 530 C561 530 586 549 591 570 C595 590 584 598 575 605 L574 606 C537 634 491 648 440 648 C305 648 172 546 146 421 L103 219 C76 95 163 -5 297 -5 C348 -5 402 11 452 40 L454 40 C474 52 483 62 486 77 C490 98 475 114 452 114 C436 114 422 106 409 99 C383 82 350 73 318 73 L318 73 Z " />
<glyph glyph-name="D" unicode="D" horiz-adv-x="624" d="M260 0 C423 0 582 123 614 274 L634 368 C666 518 562 639 400 639 L250 639 C225 639 200 620 195 598 L76 37 C72 16 87 0 110 0 L260 0 Z M173 78 L275 561 L379 561 C494 561 569 473 546 364 L526 271 C504 167 393 80 281 78 L173 78 Z " />
<glyph glyph-name="E" unicode="E" horiz-adv-x="542" d="M600 639 L250 639 C226 639 200 620 195 598 L86 84 C76 37 109 0 160 0 L460 0 C484 0 510 19 515 40 C519 61 505 77 481 77 L181 77 C176 79 174 83 175 88 L225 327 L354 327 C379 327 405 346 409 368 C414 389 399 405 375 405 L242 405 L275 561 L579 561 C603 561 629 580 634 602 C638 623 624 639 600 639 L600 639 Z " />
<glyph glyph-name="F" unicode="F" horiz-adv-x="454" d="M263 561 L517 561 C542 561 567 580 572 602 C576 623 562 639 538 639 L238 639 C214 639 188 620 183 598 L64 37 C60 16 74 0 98 0 C122 0 148 19 153 40 L214 327 L342 327 C367 327 393 346 397 368 C402 389 387 405 363 405 L230 405 L263 561 Z " />
<glyph glyph-name="G" unicode="G" horiz-adv-x="599" d="M526 327 L503 219 C486 139 403 73 318 73 C231 73 174 141 191 223 L232 415 C247 485 314 546 389 559 C404 561 422 562 444 562 C453 562 462 562 480 562 C498 561 508 561 517 561 C542 561 567 580 572 602 C576 622 561 639 538 639 L438 639 C303 639 170 536 144 411 L103 219 C76 95 163 -5 297 -5 C432 -5 565 98 591 223 L622 368 C627 389 612 405 588 405 L388 405 C364 405 338 386 334 364 C329 344 344 328 367 327 L526 327 Z " />
<glyph glyph-name="H" unicode="H" horiz-adv-x="649" d="M178 40 L239 327 L551 327 L489 37 C485 16 499 0 523 0 C547 0 573 19 578 40 L697 602 C701 623 687 639 663 639 C639 639 613 620 608 598 L567 405 L255 405 L297 602 C301 623 287 639 263 639 C239 639 213 620 208 598 L89 37 C85 16 99 0 123 0 C147 0 173 19 178 40 L178 40 Z " />
<glyph glyph-name="I" unicode="I" horiz-adv-x="249" d="M178 40 L297 602 C301 623 287 639 263 639 C239 639 213 620 208 598 L89 37 C85 16 99 0 123 0 C147 0 173 19 178 40 L178 40 Z " />
<glyph glyph-name="J" unicode="J" horiz-adv-x="400" d="M185 -5 C279 -5 371 66 389 153 L485 602 C489 623 475 639 451 639 C427 639 401 620 396 598 L331 293 C328 276 324 260 318 227 C313 205 308 183 304 161 C292 107 254 73 206 73 C180 73 163 82 145 105 C138 115 128 119 115 119 C91 119 65 100 60 79 C57 63 64 54 70 47 C97 13 137 -5 185 -5 L185 -5 Z " />
<glyph glyph-name="K" unicode="K" horiz-adv-x="624" d="M165 40 L225 324 L326 381 L477 19 C482 7 495 0 510 0 C534 0 560 19 565 40 C566 47 566 53 563 58 L409 428 L659 570 C672 577 681 589 684 602 C688 623 674 639 650 639 C641 639 630 636 620 630 L245 418 L284 602 C288 623 274 639 250 639 C226 639 200 620 195 598 L76 37 C72 16 86 0 110 0 C134 0 160 19 165 40 L165 40 Z " />
<glyph glyph-name="L" unicode="L" horiz-adv-x="474" d="M148 78 L259 602 C263 623 249 639 225 639 C201 639 175 620 170 598 L51 37 C47 16 61 0 85 0 L385 0 C409 0 435 19 440 40 C444 61 429 78 406 78 L148 78 Z " />
<glyph glyph-name="M" unicode="M" horiz-adv-x="849" d="M778 40 L897 602 C901 623 887 639 863 639 C848 639 832 632 821 621 L489 293 L294 623 C288 633 277 639 263 639 C239 639 213 620 208 598 L89 37 C85 16 99 0 123 0 C147 0 173 19 178 40 L270 476 L431 203 C437 193 449 187 463 187 C477 187 493 194 505 205 L783 479 L689 37 C685 16 699 0 723 0 C747 0 773 19 778 40 L778 40 Z " />
<glyph glyph-name="N" unicode="N" horiz-adv-x="649" d="M263 639 C239 639 213 620 208 598 L89 37 C85 16 99 0 123 0 C147 0 173 19 178 40 L277 510 L535 254 L489 37 C485 16 499 0 523 0 C547 0 573 19 578 40 L697 602 C701 623 687 639 663 639 C639 639 613 620 608 598 L558 363 L290 628 C284 635 274 639 263 639 L263 639 Z " />
<glyph glyph-name="O" unicode="O" horiz-adv-x="599" d="M591 223 L634 424 C660 548 574 648 440 648 C305 648 172 546 146 421 L103 219 C77 96 163 -5 297 -5 C432 -5 565 98 591 223 L591 223 Z M318 73 C231 73 174 141 191 223 L234 424 C251 504 335 570 419 570 C506 570 563 502 546 421 L503 219 C486 139 402 73 318 73 L318 73 Z " />
<glyph glyph-name="P" unicode="P" horiz-adv-x="549" d="M292 327 L392 327 C487 327 578 397 597 485 C615 570 556 639 463 639 L238 639 C214 639 188 620 183 598 L64 37 C60 16 74 0 98 0 C122 0 148 19 153 40 L263 561 L442 561 C487 561 518 525 509 483 C495 417 439 405 384 405 L313 405 C289 405 263 386 259 364 C254 344 269 327 292 327 L292 327 Z " />
<glyph glyph-name="Q" unicode="Q" horiz-adv-x="599" d="M359 265 C334 265 308 246 304 224 C302 214 304 205 309 199 L469 12 C476 4 487 0 498 0 C522 0 548 19 553 40 C555 50 553 59 547 66 L387 253 C381 260 370 265 359 265 L359 265 Z M592 223 L634 424 C661 548 574 648 440 648 C305 648 172 546 146 421 L103 219 C77 96 164 -5 297 -5 C432 -5 565 98 592 223 L592 223 Z M318 73 C232 73 174 141 192 223 L234 424 C251 504 335 570 419 570 C506 570 563 502 546 421 L503 219 C486 139 403 73 318 73 L318 73 Z " />
<glyph glyph-name="R" unicode="R" horiz-adv-x="574" d="M76 37 C72 16 86 0 110 0 C134 0 160 19 165 40 L275 561 L454 561 C498 561 529 525 521 483 L520 481 C507 430 467 404 405 404 C396 404 387 404 378 404 C365 405 357 405 350 405 C326 405 300 386 296 364 C294 358 295 352 297 347 L427 19 C432 7 445 0 460 0 C484 0 510 19 515 40 C517 49 484 136 426 277 C423 285 420 291 419 294 L415 302 C413 309 409 318 405 327 C506 332 590 396 609 485 C627 570 568 639 475 639 L250 639 C226 639 200 620 195 598 L76 37 Z " />
<glyph glyph-name="S" unicode="S" horiz-adv-x="567" d="M274 -5 C415 -5 526 68 549 177 C567 263 526 331 436 365 L361 392 C357 394 352 395 346 398 C288 418 264 445 272 483 C281 528 342 566 405 566 C451 566 482 559 517 541 C523 537 530 536 537 536 C562 536 587 555 592 576 C599 611 520 644 426 644 C313 644 202 569 183 479 C170 417 205 358 269 335 L350 305 C410 282 478 254 460 174 C447 111 384 73 295 73 C236 73 199 88 159 126 C151 134 143 137 131 137 C107 137 81 118 77 96 C73 77 84 67 92 60 L94 58 C139 17 201 -5 274 -5 L274 -5 Z " />
<glyph glyph-name="T" unicode="T" horiz-adv-x="450" d="M167 561 L518 561 C543 561 568 580 573 602 C577 623 563 639 539 639 L188 639 C164 639 138 620 133 598 C129 577 144 561 167 561 L167 561 Z M307 582 L191 37 C186 16 201 0 225 0 C250 0 276 19 280 40 L396 585 C401 606 385 622 362 622 C337 622 311 603 307 582 L307 582 Z " />
<glyph glyph-name="U" unicode="U" horiz-adv-x="599" d="M183 598 L103 219 C76 95 163 -5 297 -5 C432 -5 565 97 591 223 L672 602 C676 623 662 639 638 639 C614 639 588 620 583 598 C574 552 564 507 545 415 C525 323 516 277 506 231 C486 139 408 73 318 73 C226 73 174 141 194 235 C195 241 196 247 197 252 C199 261 200 266 201 270 L272 602 C276 623 262 639 238 639 C214 639 188 620 183 598 L183 598 Z " />
<glyph glyph-name="V" unicode="V" horiz-adv-x="549" d="M311 164 L247 613 C245 628 231 639 213 639 C188 639 163 620 158 598 C157 590 167 513 171 488 L172 482 C184 397 196 312 220 144 L233 49 C234 47 234 45 234 41 C238 7 248 -5 272 -5 C298 -5 316 9 334 44 C336 49 337 50 338 53 L392 147 C488 315 536 400 584 485 L588 492 C624 555 646 596 647 602 C651 622 636 639 613 639 C593 639 572 627 563 610 L311 164 Z " />
<glyph glyph-name="W" unicode="W" horiz-adv-x="849" d="M607 158 L557 427 C555 442 541 452 523 452 C504 452 484 440 474 424 L312 158 L247 613 C245 628 231 639 213 639 C189 639 163 620 158 598 C157 590 167 513 171 488 L172 482 C184 397 196 312 220 144 L233 49 C234 47 234 45 234 41 C238 7 248 -5 272 -5 C291 -5 312 7 322 23 L487 295 L538 20 C540 5 554 -5 572 -5 C598 -5 616 9 634 44 C636 49 637 50 638 53 L692 147 C788 315 836 400 884 485 L888 492 C924 555 946 596 947 602 C951 622 936 639 913 639 C893 639 872 627 863 610 L607 158 Z " />
<glyph glyph-name="X" unicode="X" horiz-adv-x="549" d="M64 32 C59 11 74 -5 97 -5 C114 -5 132 4 143 18 L325 238 L415 15 C419 3 432 -5 447 -5 C472 -5 498 14 502 36 C503 42 503 48 501 53 L394 321 L615 588 C619 593 622 600 623 606 C628 627 613 644 590 644 C573 644 555 635 544 621 L362 401 L272 624 C268 636 255 644 240 644 C215 644 189 625 185 603 C183 597 184 590 186 585 L293 318 L72 50 C68 45 65 39 64 32 L64 32 Z " />
<glyph glyph-name="Y" unicode="Y" horiz-adv-x="549" d="M364 412 L246 627 C240 637 229 644 215 644 C190 644 164 625 160 603 C158 595 159 588 162 582 L302 329 L240 37 C235 16 250 0 273 0 C298 0 323 19 328 40 L390 332 L636 584 C642 591 647 598 648 606 C653 627 638 644 615 644 C600 644 583 636 572 625 L364 412 Z " />
<glyph glyph-name="Z" unicode="Z" horiz-adv-x="599" d="M195 78 L661 581 C666 587 670 594 672 602 C676 623 662 639 638 639 L238 639 C214 639 188 620 183 598 C179 577 194 561 217 561 L541 561 L75 58 C69 52 66 45 64 37 C60 16 74 0 98 0 L498 0 C522 0 548 19 553 40 C557 61 542 78 519 78 L195 78 Z " />
<glyph glyph-name="bracketleft" unicode="&#x5b;" horiz-adv-x="324" d="M370 687 L251 687 C227 687 202 670 198 651 L56 -15 C52 -33 68 -48 91 -48 L210 -48 C234 -48 260 -31 264 -12 C268 6 252 21 229 21 L152 21 L279 618 L352 618 C376 618 401 635 405 654 C409 673 394 687 370 687 L370 687 Z " />
<glyph glyph-name="backslash" unicode="&#x5c;" horiz-adv-x="349" d="M283 -48 C307 -48 332 -31 336 -12 C337 -8 328 59 313 165 L311 175 C299 259 286 349 264 501 L247 615 C247 620 246 625 246 631 C244 642 243 653 239 666 C235 681 225 687 205 687 C180 687 155 670 151 651 C150 647 159 580 175 474 L176 464 C188 380 201 290 224 138 L240 24 C241 19 241 14 242 8 C243 -3 244 -14 248 -27 C252 -42 263 -48 283 -48 L283 -48 Z " />
<glyph glyph-name="bracketright" unicode="&#x5d;" horiz-adv-x="324" d="M310 618 L183 21 L110 21 C86 21 61 4 57 -15 C53 -33 68 -48 91 -48 L210 -48 C235 -48 260 -31 264 -12 L406 654 C410 673 394 687 371 687 L252 687 C227 687 202 670 198 651 C194 633 210 618 233 618 L310 618 Z " />
<glyph glyph-name="asciicircum" unicode="&#x5e;" horiz-adv-x="349" d="M110 461 C106 442 121 428 145 428 C160 428 175 433 185 443 C199 456 214 471 237 493 C254 510 271 527 289 543 L352 441 C357 433 368 428 383 428 C407 428 432 445 436 464 C438 470 436 477 432 484 L344 626 C339 634 327 639 313 639 C298 639 283 634 273 624 L123 481 C116 475 111 467 110 461 L110 461 Z " />
<glyph glyph-name="underscore" unicode="&#x5f;" horiz-adv-x="499" d="M85 -95 L370 -95 C395 -95 420 -79 424 -59 C428 -41 413 -27 389 -27 L104 -27 C79 -27 54 -44 50 -63 C46 -81 61 -95 85 -95 L85 -95 Z " />
<glyph glyph-name="grave" unicode="&#x60;" horiz-adv-x="174" d="M226 499 C251 499 276 516 280 535 C282 542 279 550 274 557 L218 629 C212 635 202 639 189 639 C164 639 139 622 135 603 C134 596 136 588 141 581 L198 510 C203 503 213 499 226 499 L226 499 Z " />
<glyph glyph-name="a" unicode="a" horiz-adv-x="475" d="M183 198 L193 245 C208 315 272 372 337 372 L412 372 L341 32 C337 14 352 0 375 0 C399 0 425 16 429 35 L507 408 C510 426 495 440 473 440 L356 440 C241 440 129 351 106 242 L96 195 C71 79 152 0 262 0 C308 0 330 11 335 35 C339 57 326 67 291 67 L288 67 C209 67 167 120 183 198 L183 198 Z " />
<glyph glyph-name="b" unicode="b" horiz-adv-x="524" d="M412 209 C395 130 331 76 255 76 L173 76 L281 585 C285 606 270 622 246 622 C221 622 196 603 191 582 L75 36 C71 16 86 0 110 0 L235 0 C369 0 475 86 503 218 L504 225 C533 360 464 440 319 440 C280 440 258 427 252 400 C247 375 260 364 294 364 L303 364 C388 364 433 311 417 233 L412 209 Z " />
<glyph glyph-name="c" unicode="c" horiz-adv-x="412" d="M337 449 C229 449 123 370 103 273 L80 168 C60 72 130 -5 236 -5 C293 -5 372 31 378 58 C383 79 369 95 344 95 C338 95 325 91 316 88 L317 88 C283 75 271 72 255 72 C197 72 159 118 170 172 L193 276 C204 329 259 373 313 373 C330 373 343 369 371 355 C379 351 389 348 396 348 C419 348 446 368 450 387 C456 413 390 449 337 449 L337 449 Z " />
<glyph glyph-name="d" unicode="d" horiz-adv-x="524" d="M492 582 L462 440 L384 440 C262 440 143 351 120 241 L110 196 C91 108 140 30 227 7 C247 2 270 0 302 0 C336 0 360 15 365 40 C371 65 357 77 321 77 L319 77 C233 77 184 127 200 199 L209 244 C224 314 293 364 373 364 C377 364 382 364 386 364 C393 363 397 363 401 363 L446 363 L376 37 C372 16 387 0 411 0 C435 0 461 19 466 40 L582 585 C586 606 571 622 547 622 C523 622 497 603 492 582 L492 582 Z " />
<glyph glyph-name="e" unicode="e" horiz-adv-x="430" d="M240 63 C187 63 153 112 165 171 L188 278 C201 338 255 382 318 382 C357 382 371 364 362 324 C355 290 319 246 276 247 L246 247 C218 248 194 232 190 210 C185 189 202 178 236 179 L253 179 C354 182 435 248 452 329 C470 414 418 450 339 450 C224 450 121 374 100 275 L77 168 C58 74 120 -5 213 -4 C283 -4 376 38 383 73 C387 90 371 104 350 104 C336 104 322 98 302 85 C278 70 260 63 240 63 L240 63 Z " />
<glyph glyph-name="f" unicode="f" horiz-adv-x="350" d="M190 450 L188 440 L159 440 C134 440 109 421 104 400 C100 380 115 363 138 363 L171 363 L102 37 C97 16 112 0 136 0 C161 0 187 18 191 40 L251 320 C253 332 256 344 260 363 L364 363 C388 363 414 382 419 403 C423 424 408 440 384 440 L276 440 L277 442 C290 506 337 546 405 550 C431 551 454 569 458 590 C463 610 447 627 424 627 C316 627 210 547 190 450 L190 450 Z " />
<glyph glyph-name="g" unicode="g" horiz-adv-x="507" d="M179 198 L189 245 C205 320 269 374 343 373 L357 373 C363 373 367 372 371 372 L450 372 C474 372 499 389 503 408 C507 426 492 440 469 440 L352 440 C237 440 124 351 101 242 L91 195 C66 73 153 0 266 0 C304 0 326 12 331 35 C336 57 322 67 287 67 L284 67 C206 67 163 121 179 198 L179 198 Z M157 -156 C153 -174 168 -188 191 -188 C292 -188 394 -107 415 -9 L504 408 C508 426 492 440 469 440 C445 440 420 424 416 405 L330 -1 C315 -72 269 -117 208 -121 C183 -122 161 -138 157 -156 L157 -156 Z " />
<glyph glyph-name="h" unicode="h" horiz-adv-x="524" d="M466 40 L514 267 C534 363 465 440 359 440 L251 440 L282 585 C286 606 271 622 247 622 C223 622 197 603 192 582 L76 37 C72 16 87 0 111 0 C135 0 161 19 166 40 L235 363 C241 364 249 364 257 364 C281 364 304 364 327 364 C411 364 436 318 419 237 L376 37 C372 16 387 0 411 0 C435 0 461 19 466 40 L466 40 Z " />
<glyph glyph-name="i" unicode="i" horiz-adv-x="249" d="M178 40 L255 403 C259 424 244 440 221 440 C196 440 170 421 166 400 L88 37 C84 16 99 0 123 0 C147 0 173 18 178 40 L178 40 Z M284 540 L294 585 C298 606 283 622 259 622 C235 622 209 603 204 582 L195 537 C190 516 205 500 229 500 C254 500 280 519 284 540 L284 540 Z " />
<glyph glyph-name="j" unicode="j" horiz-adv-x="261" d="M-76 -145 C-81 -166 -66 -182 -42 -182 C66 -182 171 -103 192 -6 L279 403 C283 424 268 440 245 440 C220 440 194 421 189 400 L131 123 C127 108 124 93 118 62 C114 42 109 22 105 2 C92 -62 45 -101 -24 -105 C-49 -107 -72 -124 -76 -145 L-76 -145 Z M308 541 L318 586 C322 607 307 623 283 623 C259 623 233 604 228 583 L219 537 C214 517 229 501 253 501 C278 501 304 519 308 541 L308 541 Z " />
<glyph glyph-name="k" unicode="k" horiz-adv-x="493" d="M166 40 L209 243 L291 277 C305 231 330 155 366 52 C371 36 375 25 377 20 C381 8 394 0 411 0 C435 0 461 18 466 40 C468 48 437 144 378 313 L511 368 C528 375 540 389 543 403 C547 424 532 440 509 440 C501 440 493 438 485 435 L227 328 L282 585 C286 606 271 622 247 622 C223 622 197 603 192 582 L76 36 C72 16 87 0 111 0 C135 0 161 18 166 40 L166 40 Z " />
<glyph glyph-name="l" unicode="l" horiz-adv-x="179" d="M169 582 L53 37 C49 16 64 0 88 0 C112 0 138 19 143 40 L259 585 C263 606 248 622 224 622 C200 622 174 603 169 582 L169 582 Z " />
<glyph glyph-name="m" unicode="m" horiz-adv-x="825" d="M235 363 L338 363 C414 363 436 308 422 241 C419 230 417 220 414 209 C410 194 408 185 406 177 L377 37 C372 16 387 0 411 0 C436 0 462 19 466 40 L514 267 C535 363 466 440 359 440 L209 440 C184 440 158 421 154 400 L77 37 C72 16 87 0 111 0 C136 0 162 18 166 40 L235 363 Z M814 267 C835 363 766 440 659 440 L609 440 C584 440 558 421 554 400 C549 375 564 363 600 363 C604 363 609 363 617 364 C621 364 623 364 625 364 C703 364 738 322 722 247 C721 240 719 232 717 225 C714 213 713 207 712 201 L677 37 C672 16 687 0 711 0 C736 0 762 19 766 40 L814 267 Z " />
<glyph glyph-name="n" unicode="n" horiz-adv-x="524" d="M466 40 L514 267 C535 363 466 440 359 440 L209 440 C184 440 158 421 154 400 L77 37 C72 16 87 0 111 0 C136 0 161 18 166 40 L235 363 L338 363 C414 363 436 308 422 241 C419 230 417 220 414 209 C410 193 408 185 406 177 L377 37 C372 16 387 0 411 0 C436 0 462 19 466 40 L466 40 Z " />
<glyph glyph-name="o" unicode="o" horiz-adv-x="454" d="M70 168 C51 73 121 -5 225 -5 C333 -5 439 75 459 172 L481 276 C502 372 433 449 326 449 C218 449 113 370 92 273 L70 168 Z M181 276 C193 329 248 373 305 373 C364 373 403 327 392 273 L370 168 C358 115 303 72 246 72 C188 72 149 117 159 172 L181 276 Z " />
<glyph glyph-name="p" unicode="p" horiz-adv-x="524" d="M507 231 C513 260 515 276 513 292 C506 381 434 440 334 440 L209 440 C184 440 158 421 154 400 L38 -145 C34 -166 49 -182 72 -182 C97 -182 123 -163 127 -142 L235 363 L313 363 C396 363 434 309 415 218 L413 206 C396 126 333 76 248 77 L232 77 C207 77 181 58 177 37 C171 12 185 0 221 0 C322 0 433 46 484 153 C492 170 497 187 504 219 L507 231 Z " />
<glyph glyph-name="q" unicode="q" horiz-adv-x="524" d="M427 -142 L543 403 C548 424 533 440 509 440 L384 440 C287 440 188 382 142 299 C130 278 123 257 115 216 C85 77 162 0 298 0 C338 0 360 14 366 40 C372 67 359 77 317 77 C224 77 186 130 204 220 L207 232 C223 310 286 363 363 363 L446 363 L338 -145 C334 -166 349 -182 372 -182 C397 -182 423 -163 427 -142 L427 -142 Z " />
<glyph glyph-name="r" unicode="r" horiz-adv-x="287" d="M89 273 L39 37 C34 16 49 0 73 0 C98 0 124 19 128 40 C134 66 139 92 150 145 C157 180 164 215 172 250 L172 252 C189 330 229 367 302 372 L305 373 C331 375 353 392 357 413 C362 433 347 449 323 449 C215 449 109 370 89 273 L89 273 Z " />
<glyph glyph-name="s" unicode="s" horiz-adv-x="417" d="M405 126 C420 194 385 235 274 281 L268 284 C227 301 213 314 216 332 C221 353 250 368 284 368 C306 368 324 363 351 350 C357 347 364 345 371 345 C396 345 422 364 426 385 C432 411 362 445 303 445 C220 445 140 392 127 328 C116 277 144 241 217 212 C265 193 326 170 316 123 C309 92 273 72 223 72 C187 72 166 80 140 104 C131 111 123 114 112 114 C87 114 61 95 57 74 C54 61 58 52 70 40 L72 39 C103 11 150 -5 200 -5 C305 -5 389 49 405 126 L405 126 Z " />
<glyph glyph-name="t" unicode="t" horiz-adv-x="376" d="M241 531 C216 531 190 512 186 491 L175 440 L146 440 C122 440 96 421 91 400 C87 380 102 363 126 363 L158 363 L117 168 C97 72 166 -5 272 -5 C297 -5 323 14 327 35 C332 56 319 70 296 72 C226 76 194 116 208 180 C209 183 209 186 210 190 C211 195 212 198 213 201 L247 363 L401 363 C425 363 451 382 456 403 C460 424 445 440 421 440 L264 440 L275 494 C279 515 264 531 241 531 L241 531 Z " />
<glyph glyph-name="u" unicode="u" horiz-adv-x="487" d="M135 400 L87 173 C66 77 135 0 242 0 L392 0 C417 0 443 18 447 40 L524 403 C529 424 514 440 490 440 C465 440 439 421 435 400 L366 77 L263 77 C187 77 165 132 179 199 C182 210 184 220 187 231 C191 246 193 255 194 263 L224 403 C229 424 214 440 190 440 C165 440 139 421 135 400 L135 400 Z " />
<glyph glyph-name="v" unicode="v" horiz-adv-x="449" d="M223 0 C241 0 256 7 271 24 C288 46 505 403 505 403 C510 424 495 440 471 440 C452 440 431 429 421 413 L258 153 L206 416 C203 430 189 440 171 440 C146 440 120 421 116 400 C116 399 183 35 189 21 C196 6 205 0 223 0 L223 0 Z " />
<glyph glyph-name="w" unicode="w" horiz-adv-x="699" d="M522 145 L460 328 C456 341 443 349 427 349 C409 349 390 340 379 325 L241 145 L206 414 C204 429 190 440 171 440 C146 440 120 422 116 400 C114 394 159 38 163 24 C168 8 179 0 198 0 C216 0 235 9 246 24 L396 221 L464 21 C468 8 482 0 498 0 C518 0 536 10 548 27 C555 38 563 52 579 82 C586 95 593 108 608 134 C650 209 752 389 755 403 C760 424 745 440 721 440 C701 440 679 428 670 411 L522 145 Z " />
<glyph glyph-name="x" unicode="x" horiz-adv-x="449" d="M196 440 C171 440 145 421 141 400 C139 393 140 387 142 382 L220 218 L74 56 C69 50 65 44 64 37 C59 16 74 0 98 0 C114 0 132 8 143 21 L255 145 L315 18 C320 7 333 0 348 0 C373 0 399 18 403 40 C405 47 404 53 402 58 L324 221 L470 384 C475 390 479 396 480 403 C485 424 470 440 446 440 C430 440 412 432 401 419 L289 295 L229 422 C223 433 211 440 196 440 L196 440 Z " />
<glyph glyph-name="y" unicode="y" horiz-adv-x="474" d="M197 445 C172 445 146 426 141 405 C141 404 195 108 210 36 L189 2 C185 -3 182 -9 178 -15 C136 -85 115 -100 52 -105 C26 -108 4 -124 -1 -145 C-5 -166 10 -182 34 -182 C113 -182 183 -145 231 -78 C251 -49 529 397 530 403 C534 424 519 440 496 440 C476 440 456 429 445 413 L282 152 C262 262 234 415 230 423 C224 439 214 445 197 445 L197 445 Z " />
<glyph glyph-name="z" unicode="z" horiz-adv-x="499" d="M202 77 L518 381 C524 387 529 395 530 403 C535 424 520 440 496 440 L196 440 C171 440 145 421 141 400 C136 380 152 363 175 363 L392 363 L76 59 C70 53 65 45 64 37 C59 16 74 0 98 0 L398 0 C423 0 449 19 453 40 C457 60 442 77 419 77 L202 77 Z " />
<glyph glyph-name="braceleft" unicode="&#x7b;" horiz-adv-x="399" d="M234 425 L133 341 C124 334 118 325 116 318 C115 311 117 303 122 296 L189 211 L166 104 C148 19 205 -48 294 -48 C319 -48 344 -31 348 -12 C352 6 339 19 316 21 C260 25 243 62 260 142 C263 158 267 174 271 190 C276 209 278 218 280 226 C281 233 279 241 274 248 L216 321 L304 393 C312 400 319 409 320 416 C322 426 324 436 328 456 C331 472 335 489 338 505 L340 516 C353 580 387 615 438 618 C463 620 486 636 490 654 C494 673 478 687 455 687 C374 687 292 631 264 557 C259 543 254 524 248 498 C246 487 244 476 240 454 C238 443 236 433 234 425 L234 425 Z " />
<glyph glyph-name="bar" unicode="&#x7c;" horiz-adv-x="249" d="M220 651 L78 -15 C74 -33 90 -48 113 -48 C138 -48 163 -31 167 -12 L308 654 C312 673 297 687 273 687 C249 687 224 670 220 651 L220 651 Z " />
<glyph glyph-name="braceright" unicode="&#x7d;" horiz-adv-x="399" d="M319 318 L232 246 C223 239 217 230 215 223 C213 213 211 203 207 183 C205 170 202 157 199 144 C199 141 198 139 197 134 C196 130 196 127 195 123 C181 59 148 24 97 21 C72 19 49 3 46 -15 C42 -33 57 -48 80 -48 C161 -48 243 8 271 82 C276 96 281 115 287 141 C289 152 291 163 296 185 C298 200 300 208 301 214 L403 298 C411 305 417 314 419 321 C421 328 418 336 413 343 L346 428 L369 535 C387 620 330 687 241 687 C216 687 191 670 187 651 C183 633 196 620 219 618 C275 614 292 577 275 497 C272 481 268 465 264 449 C259 430 257 421 256 413 C254 406 256 398 262 391 L319 318 Z " />
<glyph glyph-name="asciitilde" unicode="&#x7e;" horiz-adv-x="399" d="M114 247 C110 229 125 214 149 214 C177 214 201 231 207 262 C208 262 214 256 219 249 C240 223 260 214 291 214 C344 214 392 250 402 297 C406 315 391 330 367 330 C338 330 316 314 310 284 C309 283 309 283 310 283 C307 283 301 289 295 297 C282 312 267 330 226 330 C174 330 124 293 114 247 L114 247 Z " />
<glyph glyph-name="uni00A0" unicode="&#xa0;" horiz-adv-x="249" />
<glyph glyph-name="exclamdown" unicode="&#xa1;" horiz-adv-x="199" d="M104 223 L23 -158 C19 -176 35 -191 58 -191 C83 -191 108 -174 112 -155 L193 226 C197 244 181 259 158 259 C133 259 108 242 104 223 L104 223 Z M145 413 L129 342 C126 323 141 309 164 309 C189 309 214 326 218 345 L233 416 C237 435 222 449 198 449 C174 449 149 432 145 413 L145 413 Z " />
<glyph glyph-name="cent" unicode="&#xa2;" horiz-adv-x="433" d="M311 508 L294 425 C290 407 305 393 329 393 C353 393 378 409 382 429 L400 512 C404 530 389 544 365 544 C341 544 316 527 311 508 L311 508 Z M209 25 L190 -63 C186 -81 202 -95 225 -95 C250 -95 275 -79 279 -59 L297 28 C301 46 286 61 262 61 C238 61 213 44 209 25 L209 25 Z M347 449 C239 449 134 370 113 273 L91 168 C71 72 140 -5 247 -5 C304 -5 383 31 389 58 C393 79 379 95 355 95 C349 95 335 91 327 88 L327 88 C293 75 281 72 265 72 C208 72 170 118 181 172 L203 276 C214 329 269 373 324 373 C341 373 354 369 382 355 C390 351 400 348 407 348 C430 348 457 368 461 387 C466 413 401 449 347 449 L347 449 Z " />
<glyph glyph-name="sterling" unicode="&#xa3;" horiz-adv-x="549" d="M429 544 C325 544 223 464 202 365 L200 354 L174 354 C150 354 125 337 120 318 C117 300 132 285 155 285 L185 285 L139 68 L114 68 C89 68 64 51 60 32 C56 14 71 0 95 0 L452 0 C476 0 501 17 505 36 C509 54 494 68 470 68 L227 68 C233 97 240 132 251 186 C258 219 265 252 272 285 L369 285 C394 285 419 302 423 321 C427 339 412 354 388 354 L287 354 C293 379 298 395 305 407 C329 448 371 476 410 476 C436 476 452 463 464 453 C474 446 482 439 497 439 C522 439 547 456 551 475 C554 489 545 498 537 505 L536 506 C510 531 472 544 429 544 L429 544 Z " />
<glyph glyph-name="currency" unicode="&#xa4;" horiz-adv-x="499" d="M338 401 C316 401 294 397 274 388 L234 438 C229 445 218 449 205 449 C181 449 156 432 152 413 C150 406 152 398 158 391 L202 335 C185 315 174 292 168 267 C163 245 166 224 174 206 L107 151 C99 144 93 135 91 128 C87 109 102 95 126 95 C140 95 153 100 163 108 L221 156 C238 147 257 142 279 142 C301 142 323 147 343 156 L383 106 C388 99 398 95 411 95 C436 95 461 112 465 131 C467 138 464 146 459 153 L415 209 C431 228 443 252 448 276 C453 299 451 320 443 338 L509 393 C518 400 524 409 526 416 C530 435 514 449 491 449 C477 449 463 444 454 436 L395 388 C379 397 359 401 338 401 L338 401 Z M359 270 C352 238 324 211 298 211 C269 211 250 240 257 274 C264 306 292 333 319 333 C348 333 366 304 359 270 L359 270 Z " />
<glyph glyph-name="yen" unicode="&#xa5;" horiz-adv-x="449" d="M277 36 L351 381 L481 488 C490 495 496 504 497 512 C501 530 486 544 462 544 C448 544 435 539 425 531 L322 446 L253 533 C248 540 237 544 224 544 C200 544 175 527 171 508 C169 501 171 493 177 486 L262 378 L189 32 C185 14 200 0 223 0 C248 0 273 17 277 36 L277 36 Z M192 188 L382 188 C406 188 432 204 436 224 C440 242 424 256 401 256 L211 256 C186 256 161 239 157 220 C153 202 168 188 192 188 L192 188 Z M213 288 L403 288 C428 288 453 304 457 324 C461 342 445 356 422 356 L232 356 C207 356 182 339 178 320 C174 302 190 288 213 288 L213 288 Z " />
<glyph glyph-name="brokenbar" unicode="&#xa6;" horiz-adv-x="249" d="M129 223 L88 32 C84 14 100 0 123 0 C148 0 173 17 177 36 L217 226 C221 244 206 259 182 259 C158 259 133 242 129 223 L129 223 Z M210 603 L169 413 C165 395 181 380 204 380 C229 380 254 397 258 416 L298 607 C302 625 287 639 263 639 C239 639 214 622 210 603 L210 603 Z " />
<glyph glyph-name="section" unicode="&#xa7;" horiz-adv-x="399" d="M257 512 C266 552 292 571 341 571 L390 571 C415 571 440 588 444 607 C448 625 433 639 409 639 L338 639 C259 639 184 580 168 505 C160 469 171 437 193 414 C161 389 136 354 128 315 C113 248 162 191 235 190 C268 187 285 159 277 123 C270 90 242 64 215 64 C207 64 199 67 188 75 C177 84 170 87 158 87 C133 87 108 70 104 51 C98 26 149 -5 196 -5 C276 -5 350 54 366 129 C374 166 363 200 340 224 C374 249 399 284 408 324 C422 391 373 448 300 449 C266 452 250 477 257 512 L257 512 Z M318 317 C312 286 283 259 257 259 C228 259 210 287 217 321 C224 354 251 380 278 380 C308 380 326 352 318 317 L318 317 Z " />
<glyph glyph-name="dieresis" unicode="&#xa8;" horiz-adv-x="334" d="M178 603 L163 532 C159 514 175 499 198 499 C222 499 248 516 252 535 L267 607 C271 625 255 639 232 639 C207 639 182 622 178 603 L178 603 Z M323 603 L308 532 C304 514 320 499 343 499 C368 499 393 516 397 535 L412 607 C416 625 401 639 377 639 C353 639 327 622 323 603 L323 603 Z " />
<glyph glyph-name="copyright" unicode="&#xa9;" horiz-adv-x="599" d="M379 359 C317 358 257 311 245 257 L229 184 C218 129 256 85 316 85 C348 85 381 97 403 116 C415 126 420 132 421 138 C424 152 411 163 392 163 C379 163 371 160 358 150 C346 142 340 139 332 139 C311 139 298 161 303 187 L319 260 C324 285 344 305 363 305 C373 305 379 299 385 293 C394 284 400 281 412 281 C433 281 454 294 457 309 C464 339 402 359 379 359 L379 359 Z M580 224 C606 345 524 444 397 444 C268 444 141 343 115 220 C89 99 171 0 298 0 C426 0 554 101 580 224 L580 224 Z M506 220 C487 129 400 53 314 53 C226 53 169 131 189 224 C208 316 295 391 381 391 C469 391 526 313 506 220 L506 220 Z " />
<glyph glyph-name="ordfeminine" unicode="&#xaa;" horiz-adv-x="299" d="M277 279 C301 279 326 296 330 315 L360 454 C369 498 337 533 288 533 L230 533 C206 534 181 517 177 498 C172 476 187 465 221 465 C224 465 228 465 233 466 C235 466 237 466 239 466 L244 466 C258 466 268 465 270 465 C274 462 271 445 270 440 C254 440 238 440 221 440 C171 440 122 403 112 358 C103 314 134 279 184 279 L207 279 C221 279 235 285 245 293 C251 284 262 279 277 279 L277 279 Z M200 361 C202 369 207 373 216 373 C220 373 223 373 227 373 C233 372 236 372 239 372 L256 372 C254 362 252 353 249 343 C241 346 229 347 217 347 C207 347 197 347 200 361 L200 361 Z " />
<glyph glyph-name="guillemotleft" unicode="&#xab;" horiz-adv-x="523" d="M323 270 C322 263 324 255 329 248 L404 153 C410 146 420 142 433 142 C457 142 483 159 487 178 C488 186 486 194 481 200 L423 273 L511 345 C519 353 526 361 527 369 C531 387 516 401 492 401 C478 401 465 397 455 389 L340 294 C331 286 325 278 323 270 L323 270 Z M133 270 C132 263 134 255 139 248 L233 129 C238 123 249 119 262 119 C286 119 311 136 315 155 C317 162 315 170 309 177 L233 273 L350 369 C358 377 364 385 366 393 C370 411 355 425 331 425 C317 425 304 421 294 413 L150 294 C141 287 135 277 133 270 L133 270 Z " />
<glyph glyph-name="logicalnot" unicode="&#xac;" horiz-adv-x="399" d="M301 238 L292 194 C288 176 303 162 326 162 C351 162 376 178 380 197 L396 274 C400 292 385 306 362 306 L171 306 C147 306 122 289 117 270 C114 252 129 238 152 238 L301 238 Z " />
<glyph glyph-name="registered" unicode="&#xae;" horiz-adv-x="599" d="M367 488 L426 488 C434 488 439 477 436 465 C433 450 425 444 409 444 L397 444 C377 444 356 431 352 416 C351 409 367 376 400 318 C403 312 406 307 408 304 C411 297 421 293 434 293 C454 293 475 306 479 321 C481 331 457 372 444 394 L442 398 C478 412 503 438 510 468 C518 509 489 542 442 542 L345 542 C324 542 303 529 300 514 L258 318 C255 304 268 293 287 293 C307 293 328 307 332 321 L367 488 Z M621 419 C647 541 565 640 439 640 C310 640 183 539 157 416 C131 294 213 195 340 195 C468 195 595 296 621 419 L621 419 Z M548 416 C528 324 442 249 356 249 C268 249 211 326 230 419 C250 511 337 586 423 586 C511 586 568 509 548 416 L548 416 Z " />
<glyph glyph-name="macron" unicode="&#xaf;" horiz-adv-x="249" d="M162 523 L305 523 C329 523 355 540 359 559 C362 577 347 592 324 592 L181 592 C156 592 131 575 127 556 C123 537 139 523 162 523 L162 523 Z " />
<glyph glyph-name="degree" unicode="&#xb0;" horiz-adv-x="199" d="M106 461 C96 416 128 380 178 380 C230 380 280 418 290 464 C299 509 268 544 217 544 C166 544 116 507 106 461 L106 461 Z M195 464 C196 469 198 476 199 476 C200 476 200 472 201 463 C201 462 201 461 200 460 C199 456 198 453 197 451 C197 450 198 449 197 449 C194 449 193 456 195 464 L195 464 Z " />
<glyph glyph-name="plusminus" unicode="&#xb1;" horiz-adv-x="399" d="M149 238 L202 238 L189 175 C185 157 201 143 224 143 C249 143 274 159 278 178 L290 238 L339 238 C364 238 389 254 393 274 C397 292 382 306 358 306 L305 306 L318 369 C322 387 307 401 283 401 C259 401 234 385 230 365 L217 306 L168 306 C143 306 118 289 114 270 C110 252 126 238 149 238 L149 238 Z M105 -12 L296 -12 C320 -12 345 4 349 24 C353 42 337 56 314 56 L124 56 C99 56 74 39 70 20 C66 2 82 -12 105 -12 L105 -12 Z " />
<glyph glyph-name="twosuperior" unicode="&#xb2;" horiz-adv-x="299" d="M270 575 C285 575 295 557 291 537 C287 517 264 495 245 476 C240 471 234 465 229 460 L114 337 C107 330 103 324 102 318 C98 300 113 285 137 285 L279 285 C304 285 329 302 333 321 C337 339 322 354 298 354 L228 354 L345 478 C363 497 375 519 380 540 C392 598 352 644 289 644 C260 644 185 621 177 584 C173 566 188 552 212 552 C227 552 236 555 251 566 C257 571 264 575 270 575 L270 575 Z " />
<glyph glyph-name="threesuperior" unicode="&#xb3;" horiz-adv-x="321" d="M119 314 C140 292 170 280 205 280 C288 280 359 340 377 426 C389 485 376 526 336 550 C372 579 389 597 392 607 C395 625 380 639 357 639 L238 639 C213 639 188 622 184 603 C180 585 195 571 219 571 L250 571 C234 557 219 542 216 532 C213 514 226 501 249 499 C283 497 299 471 290 431 C279 379 255 349 224 349 C214 349 206 353 195 363 C183 374 175 377 162 377 C138 377 112 361 108 341 C106 332 109 325 119 314 L119 314 Z " />
<glyph glyph-name="acute" unicode="&#xb4;" horiz-adv-x="174" d="M120 532 C116 514 132 499 155 499 C169 499 183 504 192 512 L279 583 C288 591 294 599 295 607 C299 625 284 639 260 639 C246 639 233 635 223 627 L137 555 C128 548 122 539 120 532 L120 532 Z " />
<glyph glyph-name="uni00B5" unicode="&#xb5;" horiz-adv-x="524" d="M123 -151 L202 221 C206 239 190 253 167 253 C143 253 118 237 114 218 L35 -154 C31 -172 46 -187 69 -187 C94 -187 119 -170 123 -151 L123 -151 Z M153 400 L105 173 C84 77 153 0 260 0 L410 0 C435 0 461 18 465 40 L542 403 C547 424 532 440 508 440 C483 440 457 421 453 400 L384 77 L281 77 C205 77 183 132 197 199 C200 210 202 220 205 231 C209 246 211 255 213 263 L242 403 C247 424 232 440 208 440 C183 440 157 421 153 400 L153 400 Z " />
<glyph glyph-name="paragraph" unicode="&#xb6;" horiz-adv-x="600" d="M542 35 L663 606 C667 624 652 639 629 639 L493 639 C490 639 488 639 486 639 C483 639 481 639 478 639 L367 639 C276 639 187 569 168 483 C151 400 208 333 297 332 L307 332 C346 332 370 345 375 369 C379 391 366 401 333 401 C331 401 327 401 323 401 C320 401 318 401 316 401 C274 401 247 440 257 486 C267 533 307 570 348 570 L425 570 L310 32 C307 14 322 0 345 0 C370 0 395 17 399 36 L513 570 L568 570 L454 32 C450 14 465 -1 488 -1 C513 -1 538 16 542 35 L542 35 Z " />
<glyph glyph-name="periodcentered" unicode="&#xb7;" horiz-adv-x="199" d="M108 268 C103 244 119 225 146 225 C174 225 203 246 208 272 C213 296 196 315 170 315 C141 315 113 294 108 268 L108 268 Z " />
<glyph glyph-name="cedilla" unicode="&#xb8;" horiz-adv-x="228" d="M71 -143 C136 -143 199 -95 211 -36 C223 22 182 68 120 68 L96 68 C72 68 47 51 43 32 C38 10 51 0 84 0 C85 0 88 0 90 0 L95 0 C116 0 127 -17 122 -39 C118 -59 104 -74 90 -74 C84 -74 79 -70 75 -66 C65 -56 57 -53 44 -53 C19 -53 -6 -70 -10 -89 C-15 -113 30 -143 71 -143 L71 -143 Z " />
<glyph glyph-name="onesuperior" unicode="&#xb9;" horiz-adv-x="224" d="M226 571 L172 318 C168 300 183 285 207 285 C231 285 256 302 260 321 L321 607 C325 625 310 639 286 639 L215 639 C190 639 165 622 161 603 C157 585 173 571 196 571 L226 571 Z " />
<glyph glyph-name="ordmasculine" unicode="&#xba;" horiz-adv-x="299" d="M376 529 C388 586 348 631 286 631 C223 631 161 584 148 526 L117 377 C105 320 145 275 206 275 C270 275 332 322 344 380 L376 529 Z M257 377 C253 358 238 342 225 342 C210 342 200 360 205 380 L236 529 C240 548 255 564 268 564 C283 564 293 546 288 526 L257 377 Z " />
<glyph glyph-name="guillemotright" unicode="&#xbb;" horiz-adv-x="528" d="M215 271 L127 198 C118 191 112 183 111 175 C107 157 122 142 145 142 C159 142 173 147 183 155 L298 250 C307 258 313 266 315 274 C316 281 314 289 308 296 L234 391 C228 397 217 401 205 401 C180 401 155 385 151 365 C150 358 152 350 157 343 L215 271 Z M414 271 L297 175 C289 167 282 159 281 151 C277 133 292 119 316 119 C330 119 343 123 353 131 L497 250 C506 258 512 266 514 274 C515 281 513 289 508 296 L414 415 C409 421 398 425 385 425 C361 425 336 408 331 389 C330 382 332 374 338 367 L414 271 Z " />
<glyph glyph-name="onequarter" unicode="&#xbc;" horiz-adv-x="599" d="M570 654 C574 672 558 687 535 687 C515 687 499 679 487 664 C481 655 475 646 466 627 C463 622 460 617 458 613 L392 498 C305 346 254 256 206 172 L200 162 C178 123 103 -9 102 -15 C98 -33 113 -48 137 -48 C157 -48 172 -40 184 -25 C191 -16 196 -7 206 12 C209 17 211 22 214 26 L279 141 C366 293 417 383 466 468 L471 477 C493 516 568 648 570 654 L570 654 Z M201 571 L148 318 C144 300 159 285 182 285 C207 285 232 302 236 321 L297 607 C301 625 285 639 262 639 L191 639 C166 639 141 622 137 603 C133 585 148 571 172 571 L201 571 Z M379 81 C375 62 390 48 414 48 L515 48 L511 33 C508 15 523 0 546 0 C571 0 596 17 600 36 L620 132 C624 150 609 164 585 164 C561 164 536 147 532 128 L529 117 L485 117 C489 123 486 118 495 135 C528 199 587 310 589 322 C593 340 578 354 554 354 C533 354 516 345 505 328 C496 314 380 87 379 81 L379 81 Z " />
<glyph glyph-name="onehalf" unicode="&#xbd;" horiz-adv-x="624" d="M597 654 C601 672 585 687 562 687 C542 687 526 679 514 664 C508 655 502 646 493 627 C490 622 487 617 485 613 L419 498 C332 346 281 256 233 172 L227 162 C205 123 130 -9 129 -15 C125 -33 140 -48 164 -48 C184 -48 199 -40 211 -25 C218 -16 223 -7 233 12 C236 17 238 22 241 26 L306 141 C393 293 444 383 493 468 L498 477 C520 516 595 648 597 654 L597 654 Z M531 275 C547 274 557 256 553 236 C548 217 526 194 507 176 C501 170 495 165 491 160 L375 37 C369 30 365 23 363 17 C359 -1 375 -15 398 -15 L541 -15 C565 -15 591 2 595 21 C599 39 583 53 560 53 L489 53 L606 178 C624 197 637 219 641 240 C653 297 613 344 550 344 C521 344 446 321 438 284 C434 266 450 251 473 251 C488 251 498 255 513 266 C519 270 525 275 531 275 L531 275 Z M228 571 L175 318 C171 300 186 285 209 285 C234 285 259 302 263 321 L324 607 C328 625 312 639 289 639 L218 639 C193 639 168 622 164 603 C160 585 175 571 199 571 L228 571 Z " />
<glyph glyph-name="threequarters" unicode="&#xbe;" horiz-adv-x="630" d="M607 654 C611 672 595 687 572 687 C552 687 536 679 524 664 C518 655 512 646 503 627 C500 622 497 617 495 613 L429 498 C342 346 291 256 243 172 L237 162 C215 123 140 -9 139 -15 C135 -33 150 -48 174 -48 C194 -48 209 -40 221 -25 C228 -16 233 -7 243 12 C246 17 248 22 251 26 L316 141 C403 293 454 383 503 468 L508 477 C530 516 605 648 607 654 L607 654 Z M99 314 C119 292 149 280 184 280 C267 280 338 340 356 426 C369 485 355 526 315 550 C351 579 369 597 371 607 C375 625 359 639 336 639 L217 639 C192 639 167 622 163 603 C159 585 175 571 198 571 L230 571 C214 557 198 542 196 532 C192 514 205 501 228 499 C262 497 278 471 269 431 C258 379 234 349 203 349 C193 349 185 353 174 363 C162 374 155 377 141 377 C117 377 92 360 88 341 C86 332 89 325 99 314 L99 314 Z M404 85 C400 66 415 52 439 52 L539 52 L536 37 C532 19 548 4 571 4 C596 4 621 21 625 40 L645 136 C649 154 634 168 610 168 C586 168 561 151 556 132 L554 121 L510 121 C514 127 511 122 520 139 C553 203 612 314 614 326 C618 344 603 358 579 358 C558 358 541 349 530 332 C520 318 405 91 404 85 L404 85 Z " />
<glyph glyph-name="questiondown" unicode="&#xbf;" horiz-adv-x="392" d="M147 -131 C128 -131 114 -125 96 -108 C86 -99 78 -92 60 -92 C37 -92 15 -106 11 -125 C8 -138 17 -148 25 -155 L26 -157 C51 -184 91 -199 136 -199 C235 -199 329 -125 349 -31 C358 10 350 51 327 83 C278 150 265 188 274 242 C280 283 270 298 238 298 C214 298 193 283 189 265 C173 191 187 129 236 62 C257 33 271 15 262 -28 C250 -83 198 -130 147 -131 L147 -131 Z M267 360 C263 341 281 324 306 324 C329 324 351 338 355 357 L365 404 C369 423 351 440 326 440 C303 440 281 426 278 408 L267 360 Z " />
<glyph glyph-name="Agrave" unicode="&#xc0;" horiz-adv-x="549" d="M39 37 C35 16 50 0 73 0 C93 0 114 12 124 29 L160 93 L429 93 L439 26 C441 10 455 0 473 0 C498 0 523 19 528 40 C529 46 524 87 515 151 L514 158 C503 243 491 329 467 498 L454 594 C453 596 453 598 453 602 C450 636 440 648 415 648 C389 648 371 634 353 599 C351 595 350 593 349 591 L294 494 C199 326 151 240 103 155 L99 148 C62 84 40 42 39 37 L39 37 Z M376 478 L419 171 L204 171 L376 478 Z M407 674 C431 674 456 691 460 710 C462 717 460 725 454 732 L398 804 C393 810 382 814 369 814 C345 814 320 797 316 778 C314 771 316 763 322 756 L378 685 C383 678 394 674 407 674 L407 674 Z " />
<glyph glyph-name="Aacute" unicode="&#xc1;" horiz-adv-x="480" d="M4 37 C0 16 15 0 38 0 C58 0 79 12 88 29 L124 93 L394 93 L403 26 C406 10 420 0 438 0 C462 0 488 19 493 40 C494 46 489 87 480 151 L479 158 C468 243 456 329 432 498 L418 594 C418 596 418 598 418 602 C414 636 404 648 380 648 C354 648 336 634 318 599 C316 595 315 593 314 591 L259 494 C163 326 115 240 67 155 L63 148 C27 84 5 42 4 37 L4 37 Z M341 478 L383 171 L168 171 L341 478 Z M383 707 C379 689 394 674 418 674 C432 674 445 679 455 687 L542 758 C550 766 557 774 558 782 C562 800 547 814 523 814 C509 814 496 810 486 802 L399 730 C391 723 385 714 383 707 L383 707 Z " />
<glyph glyph-name="Acircumflex" unicode="&#xc2;" horiz-adv-x="480" d="M4 37 C0 16 15 0 38 0 C58 0 79 12 88 29 L124 93 L394 93 L403 26 C406 10 420 0 438 0 C462 0 488 19 493 40 C494 46 489 87 480 151 L479 158 C468 243 456 329 432 498 L418 594 C418 596 418 598 418 602 C414 636 404 648 380 648 C354 648 336 634 318 599 C316 595 315 593 314 591 L259 494 C163 326 115 240 67 155 L63 148 C27 84 5 42 4 37 L4 37 Z M341 478 L383 171 L168 171 L341 478 Z M429 726 L460 686 C466 679 476 676 489 676 C514 676 539 692 543 712 C544 719 542 727 537 733 L480 805 C475 812 465 815 452 815 C438 815 424 811 414 803 L328 731 C319 724 313 716 311 708 C308 690 323 676 346 676 C360 676 374 680 384 688 L429 726 Z " />
<glyph glyph-name="Atilde" unicode="&#xc3;" horiz-adv-x="480" d="M4 37 C0 16 15 0 38 0 C58 0 79 12 88 29 L124 93 L394 93 L403 26 C406 10 420 0 438 0 C462 0 488 19 493 40 C494 46 489 87 480 151 L479 158 C468 243 456 329 432 498 L418 594 C418 596 418 598 418 602 C414 636 404 648 380 648 C354 648 336 634 318 599 C316 595 315 593 314 591 L259 494 C163 326 115 240 67 155 L63 148 C27 84 5 42 4 37 L4 37 Z M341 478 L383 171 L168 171 L341 478 Z M333 733 C329 715 344 701 368 701 C396 701 420 717 426 748 C427 748 432 742 438 735 C459 710 479 700 510 700 C562 700 611 737 621 783 C625 801 610 816 586 816 C557 816 535 800 528 770 C528 769 528 769 529 769 C526 769 520 776 514 783 C501 799 486 817 444 817 C392 817 342 779 333 733 L333 733 Z " />
<glyph glyph-name="Adieresis" unicode="&#xc4;" horiz-adv-x="480" d="M4 37 C0 16 15 0 38 0 C58 0 79 12 88 29 L124 93 L394 93 L403 26 C406 10 420 0 438 0 C462 0 488 19 493 40 C494 46 489 87 480 151 L479 158 C468 243 456 329 432 498 L418 594 C418 596 418 598 418 602 C414 636 404 648 380 648 C354 648 336 634 318 599 C316 595 315 593 314 591 L259 494 C163 326 115 240 67 155 L63 148 C27 84 5 42 4 37 L4 37 Z M341 478 L383 171 L168 171 L341 478 Z M348 778 L333 707 C329 689 344 674 368 674 C392 674 417 691 422 710 L437 782 C441 800 425 814 402 814 C377 814 352 797 348 778 L348 778 Z M493 778 L478 707 C474 689 490 674 513 674 C538 674 563 691 567 710 L582 782 C586 800 570 814 547 814 C523 814 497 797 493 778 L493 778 Z " />
<glyph glyph-name="Aring" unicode="&#xc5;" horiz-adv-x="480" d="M4 37 C0 16 15 0 38 0 C58 0 79 12 88 29 L124 93 L394 93 L403 26 C406 10 420 0 438 0 C462 0 488 19 493 40 C494 46 489 87 480 151 L479 158 C468 243 456 329 432 498 L418 594 C418 596 418 598 418 602 C414 636 404 648 380 648 C354 648 336 634 318 599 C316 595 315 593 314 591 L259 494 C163 326 115 240 67 155 L63 148 C27 84 5 42 4 37 L4 37 Z M341 478 L383 171 L168 171 L341 478 Z M533 687 C545 744 504 790 442 790 C377 790 314 742 301 683 C289 625 330 579 392 579 C457 579 520 628 533 687 L533 687 Z M444 683 C440 664 425 648 411 648 C395 648 386 666 390 687 C394 706 409 722 423 722 C439 722 449 704 444 683 L444 683 Z " />
<glyph glyph-name="AE" unicode="&#xc6;" horiz-adv-x="775" d="M712 402 L531 402 L535 570 L816 570 C841 570 866 587 870 606 C874 624 858 639 835 639 L501 639 C481 638 463 630 454 617 L49 47 C45 42 42 37 42 33 C38 15 53 0 76 0 C95 0 114 9 123 22 L175 95 L433 95 L432 75 C431 32 465 0 513 0 L695 0 C720 0 745 17 749 36 C753 55 737 69 714 69 C693 69 673 69 632 69 C605 68 578 68 550 68 C542 68 536 69 531 69 C522 70 519 87 522 126 C523 132 523 138 523 141 L529 333 L693 333 C718 333 743 350 747 369 C751 387 736 402 712 402 L712 402 Z M224 163 L443 472 L435 163 L224 163 Z " />
<glyph glyph-name="Ccedilla" unicode="&#xc7;" horiz-adv-x="525" d="M318 73 C231 73 174 141 191 223 L234 424 C251 505 334 570 419 570 C455 570 479 562 512 538 C519 532 527 530 536 530 C561 530 586 549 591 570 C595 590 584 598 575 605 L574 606 C537 634 491 648 440 648 C305 648 172 546 146 421 L103 219 C76 95 163 -5 297 -5 C348 -5 402 11 452 40 L454 40 C474 52 483 62 486 77 C490 98 475 114 452 114 C436 114 422 106 409 99 C383 82 350 73 318 73 L318 73 Z M307 -148 C372 -148 435 -100 448 -41 C460 17 419 63 356 63 L333 63 C308 63 283 46 279 27 C274 5 287 -5 320 -5 C322 -5 324 -5 327 -5 L331 -5 C352 -5 364 -22 359 -44 C355 -64 340 -79 326 -79 C320 -79 315 -75 311 -71 C301 -61 294 -58 280 -58 C256 -58 231 -75 226 -94 C221 -118 267 -148 307 -148 L307 -148 Z " />
<glyph glyph-name="Egrave" unicode="&#xc8;" horiz-adv-x="574" d="M600 639 L250 639 C226 639 200 620 196 598 L86 84 C76 37 109 0 160 0 L460 0 C484 0 510 19 515 40 C519 61 505 77 481 77 L181 77 C176 79 174 83 175 88 L226 327 L355 327 C379 327 405 346 409 368 C414 389 399 405 376 405 L242 405 L275 561 L579 561 C604 561 629 580 634 602 C639 623 624 639 600 639 L600 639 Z M418 674 C442 674 467 691 471 710 C473 717 471 725 465 732 L409 804 C404 810 393 814 380 814 C356 814 331 797 327 778 C325 771 327 763 333 756 L389 685 C394 678 405 674 418 674 L418 674 Z " />
<glyph glyph-name="Eacute" unicode="&#xc9;" horiz-adv-x="542" d="M600 639 L250 639 C226 639 200 620 195 598 L86 84 C76 37 109 0 160 0 L460 0 C484 0 510 19 515 40 C519 61 505 77 481 77 L181 77 C176 79 174 83 175 88 L225 327 L354 327 C379 327 405 346 409 368 C414 389 399 405 375 405 L242 405 L275 561 L579 561 C603 561 629 580 634 602 C638 623 624 639 600 639 L600 639 Z M436 737 C432 719 448 704 471 704 C485 704 499 709 508 717 L595 788 C604 796 610 804 611 812 C615 830 600 844 577 844 C563 844 549 840 539 832 L453 760 C444 753 438 744 436 737 L436 737 Z " />
<glyph glyph-name="Ecircumflex" unicode="&#xca;" horiz-adv-x="542" d="M600 639 L250 639 C226 639 200 620 195 598 L86 84 C76 37 109 0 160 0 L460 0 C484 0 510 19 515 40 C519 61 505 77 481 77 L181 77 C176 79 174 83 175 88 L225 327 L354 327 C379 327 405 346 409 368 C414 389 399 405 375 405 L242 405 L275 561 L579 561 C603 561 629 580 634 602 C638 623 624 639 600 639 L600 639 Z M482 756 L514 716 C519 709 529 706 542 706 C567 706 592 722 596 742 C598 749 595 757 590 763 L534 835 C528 842 518 845 505 845 C491 845 478 841 468 833 L381 761 C372 754 366 746 365 738 C361 720 376 706 400 706 C414 706 427 710 437 718 L482 756 Z " />
<glyph glyph-name="Edieresis" unicode="&#xcb;" horiz-adv-x="542" d="M600 639 L250 639 C226 639 200 620 195 598 L86 84 C76 37 109 0 160 0 L460 0 C484 0 510 19 515 40 C519 61 505 77 481 77 L181 77 C176 79 174 83 175 88 L225 327 L354 327 C379 327 405 346 409 368 C414 389 399 405 375 405 L242 405 L275 561 L579 561 C603 561 629 580 634 602 C638 623 624 639 600 639 L600 639 Z M402 808 L386 737 C383 719 398 704 421 704 C446 704 471 721 475 740 L490 812 C494 830 479 844 455 844 C431 844 405 827 402 808 L402 808 Z M547 808 L532 737 C528 719 543 704 566 704 C591 704 616 721 620 740 L635 812 C639 830 624 844 600 844 C576 844 551 827 547 808 L547 808 Z " />
<glyph glyph-name="Igrave" unicode="&#xcc;" horiz-adv-x="249" d="M178 40 L297 602 C301 623 287 639 263 639 C239 639 213 620 208 598 L89 37 C85 16 99 0 123 0 C147 0 173 19 178 40 L178 40 Z M274 674 C299 674 324 691 328 710 C329 717 327 725 322 732 L266 804 C260 810 250 814 237 814 C212 814 187 797 183 778 C182 771 184 763 189 756 L245 685 C251 678 261 674 274 674 L274 674 Z " />
<glyph glyph-name="Iacute" unicode="&#xcd;" horiz-adv-x="249" d="M178 40 L297 602 C301 623 287 639 263 639 C239 639 213 620 208 598 L89 37 C85 16 99 0 123 0 C147 0 173 19 178 40 L178 40 Z M268 707 C264 689 279 674 303 674 C317 674 330 679 340 687 L427 758 C435 766 442 774 443 782 C447 800 432 814 408 814 C394 814 381 810 371 802 L284 730 C276 723 270 714 268 707 L268 707 Z " />
<glyph glyph-name="Icircumflex" unicode="&#xce;" horiz-adv-x="249" d="M178 40 L297 602 C301 623 287 639 263 639 C239 639 213 620 208 598 L89 37 C85 16 99 0 123 0 C147 0 173 19 178 40 L178 40 Z M314 726 L345 686 C351 679 361 676 374 676 C399 676 424 692 428 712 C429 719 427 727 422 733 L365 805 C360 812 350 815 337 815 C323 815 309 811 299 803 L213 731 C204 724 198 716 196 708 C193 690 208 676 231 676 C245 676 259 680 269 688 L314 726 Z " />
<glyph glyph-name="Idieresis" unicode="&#xcf;" horiz-adv-x="249" d="M178 40 L297 602 C301 623 287 639 263 639 C239 639 213 620 208 598 L89 37 C85 16 99 0 123 0 C147 0 173 19 178 40 L178 40 Z M233 778 L218 707 C214 689 229 674 253 674 C277 674 302 691 307 710 L322 782 C326 800 310 814 287 814 C262 814 237 797 233 778 L233 778 Z M378 778 L363 707 C359 689 375 674 398 674 C423 674 448 691 452 710 L467 782 C471 800 455 814 432 814 C408 814 382 797 378 778 L378 778 Z " />
<glyph glyph-name="Eth" unicode="&#xd0;" horiz-adv-x="674" d="M195 338 L385 338 C409 338 435 354 439 374 C443 392 427 406 404 406 L213 406 C189 406 164 389 160 370 C156 352 171 338 195 338 L195 338 Z M297 0 C460 0 619 123 651 274 L671 368 C703 518 599 639 437 639 L287 639 C263 639 237 620 233 598 L113 37 C109 16 124 0 147 0 L297 0 Z M210 78 L312 561 L416 561 C531 561 606 473 583 364 L563 271 C541 167 431 80 318 78 L210 78 Z " />
<glyph glyph-name="Ntilde" unicode="&#xd1;" horiz-adv-x="649" d="M263 639 C239 639 213 620 208 598 L89 37 C85 16 99 0 123 0 C147 0 173 19 178 40 L277 510 L535 254 L489 37 C485 16 499 0 523 0 C547 0 573 19 578 40 L697 602 C701 623 687 639 663 639 C639 639 613 620 608 598 L558 363 L290 628 C284 635 274 639 263 639 L263 639 Z M418 733 C414 715 429 701 453 701 C481 701 505 717 511 748 C512 748 517 742 523 735 C544 710 564 700 595 700 C647 700 696 737 706 783 C710 801 695 816 671 816 C642 816 620 800 613 770 C613 769 613 769 614 769 C611 769 605 776 599 783 C586 799 571 817 529 817 C477 817 427 779 418 733 L418 733 Z " />
<glyph glyph-name="Ograve" unicode="&#xd2;" horiz-adv-x="599" d="M591 223 L634 424 C660 548 574 648 440 648 C305 648 172 546 146 421 L103 219 C77 96 163 -5 297 -5 C432 -5 565 98 591 223 L591 223 Z M318 73 C231 73 174 141 191 223 L234 424 C251 504 335 570 419 570 C506 570 563 502 546 421 L503 219 C486 139 402 73 318 73 L318 73 Z M449 674 C474 674 499 691 503 710 C504 717 502 725 497 732 L441 804 C435 810 425 814 412 814 C387 814 362 797 358 778 C357 771 359 763 364 756 L420 685 C426 678 436 674 449 674 L449 674 Z " />
<glyph glyph-name="Oacute" unicode="&#xd3;" horiz-adv-x="599" d="M591 223 L634 424 C660 548 574 648 440 648 C305 648 172 546 146 421 L103 219 C77 96 163 -5 297 -5 C432 -5 565 98 591 223 L591 223 Z M318 73 C231 73 174 141 191 223 L234 424 C251 504 335 570 419 570 C506 570 563 502 546 421 L503 219 C486 139 402 73 318 73 L318 73 Z M443 707 C439 689 454 674 478 674 C492 674 505 679 515 687 L602 758 C610 766 617 774 618 782 C622 800 607 814 583 814 C569 814 556 810 546 802 L459 730 C451 723 445 714 443 707 L443 707 Z " />
<glyph glyph-name="Ocircumflex" unicode="&#xd4;" horiz-adv-x="599" d="M591 223 L634 424 C660 548 574 648 440 648 C305 648 172 546 146 421 L103 219 C77 96 163 -5 297 -5 C432 -5 565 98 591 223 L591 223 Z M318 73 C231 73 174 141 191 223 L234 424 C251 504 335 570 419 570 C506 570 563 502 546 421 L503 219 C486 139 402 73 318 73 L318 73 Z M489 726 L520 686 C526 679 536 676 549 676 C574 676 599 692 603 712 C604 719 602 727 597 733 L540 805 C535 812 525 815 512 815 C498 815 484 811 474 803 L388 731 C379 724 373 716 371 708 C368 690 383 676 406 676 C420 676 434 680 444 688 L489 726 Z " />
<glyph glyph-name="Otilde" unicode="&#xd5;" horiz-adv-x="599" d="M591 223 L634 424 C660 548 574 648 440 648 C305 648 172 546 146 421 L103 219 C77 96 163 -5 297 -5 C432 -5 565 98 591 223 L591 223 Z M318 73 C231 73 174 141 191 223 L234 424 C251 504 335 570 419 570 C506 570 563 502 546 421 L503 219 C486 139 402 73 318 73 L318 73 Z M393 733 C389 715 404 701 428 701 C456 701 480 717 486 748 C487 748 492 742 498 735 C519 710 539 700 570 700 C622 700 671 737 681 783 C685 801 670 816 646 816 C617 816 595 800 588 770 C588 769 588 769 589 769 C586 769 580 776 574 783 C561 799 546 817 504 817 C452 817 402 779 393 733 L393 733 Z " />
<glyph glyph-name="Odieresis" unicode="&#xd6;" horiz-adv-x="599" d="M591 223 L634 424 C660 548 574 648 440 648 C305 648 172 546 146 421 L103 219 C77 96 163 -5 297 -5 C432 -5 565 98 591 223 L591 223 Z M318 73 C231 73 174 141 191 223 L234 424 C251 504 335 570 419 570 C506 570 563 502 546 421 L503 219 C486 139 402 73 318 73 L318 73 Z M408 778 L393 707 C389 689 404 674 428 674 C452 674 477 691 482 710 L497 782 C501 800 485 814 462 814 C437 814 412 797 408 778 L408 778 Z M553 778 L538 707 C534 689 550 674 573 674 C598 674 623 691 627 710 L642 782 C646 800 630 814 607 814 C583 814 557 797 553 778 L553 778 Z " />
<glyph glyph-name="multiply" unicode="&#xd7;" horiz-adv-x="399" d="M417 369 C421 387 406 401 383 401 C369 401 355 397 345 389 L271 327 L221 391 C216 397 205 401 192 401 C168 401 143 385 139 365 C137 358 139 350 145 343 L202 271 L115 198 C106 191 100 183 98 175 C94 157 110 142 133 142 C147 142 161 147 170 155 L245 216 L295 153 C300 146 310 142 323 142 C348 142 373 159 377 178 C379 186 376 194 371 200 L314 273 L401 345 C410 353 416 361 417 369 L417 369 Z " />
<glyph glyph-name="Oslash" unicode="&#xd8;" horiz-adv-x="599" d="M592 223 L634 424 C661 548 574 648 440 648 C305 648 172 546 146 421 L103 219 C77 96 164 -5 297 -5 C432 -5 565 98 592 223 L592 223 Z M318 73 C232 73 174 141 192 223 L234 424 C251 504 335 570 419 570 C506 570 563 502 546 421 L503 219 C486 139 403 73 318 73 L318 73 Z M613 654 C617 672 601 687 578 687 C558 687 542 679 530 664 C524 655 518 646 509 627 C506 622 503 617 501 613 L435 498 C348 346 297 256 249 172 L243 162 C221 123 146 -9 145 -15 C141 -33 156 -48 180 -48 C200 -48 215 -40 227 -25 C234 -16 239 -7 249 12 C252 17 254 22 257 26 L322 141 C409 293 460 383 509 468 L514 477 C536 516 611 648 613 654 L613 654 Z " />
<glyph glyph-name="Ugrave" unicode="&#xd9;" horiz-adv-x="599" d="M183 598 L103 219 C76 95 163 -5 297 -5 C432 -5 565 97 591 223 L672 602 C676 623 662 639 638 639 C614 639 588 620 583 598 C574 552 564 507 545 415 C525 323 516 277 506 231 C486 139 408 73 318 73 C226 73 174 141 194 235 C195 241 196 247 197 252 C199 261 200 266 201 270 L272 602 C276 623 262 639 238 639 C214 639 188 620 183 598 L183 598 Z M449 674 C474 674 499 691 503 710 C504 717 502 725 497 732 L441 804 C435 810 425 814 412 814 C387 814 362 797 358 778 C357 771 359 763 364 756 L420 685 C426 678 436 674 449 674 L449 674 Z " />
<glyph glyph-name="Uacute" unicode="&#xda;" horiz-adv-x="599" d="M183 598 L103 219 C76 95 163 -5 297 -5 C432 -5 565 97 591 223 L672 602 C676 623 662 639 638 639 C614 639 588 620 583 598 C574 552 564 507 545 415 C525 323 516 277 506 231 C486 139 408 73 318 73 C226 73 174 141 194 235 C195 241 196 247 197 252 C199 261 200 266 201 270 L272 602 C276 623 262 639 238 639 C214 639 188 620 183 598 L183 598 Z M443 707 C439 689 454 674 478 674 C492 674 505 679 515 687 L602 758 C610 766 617 774 618 782 C622 800 607 814 583 814 C569 814 556 810 546 802 L459 730 C451 723 445 714 443 707 L443 707 Z " />
<glyph glyph-name="Ucircumflex" unicode="&#xdb;" horiz-adv-x="599" d="M183 598 L103 219 C76 95 163 -5 297 -5 C432 -5 565 97 591 223 L672 602 C676 623 662 639 638 639 C614 639 588 620 583 598 C574 552 564 507 545 415 C525 323 516 277 506 231 C486 139 408 73 318 73 C226 73 174 141 194 235 C195 241 196 247 197 252 C199 261 200 266 201 270 L272 602 C276 623 262 639 238 639 C214 639 188 620 183 598 L183 598 Z M489 726 L520 686 C526 679 536 676 549 676 C574 676 599 692 603 712 C604 719 602 727 597 733 L540 805 C535 812 525 815 512 815 C498 815 484 811 474 803 L388 731 C379 724 373 716 371 708 C368 690 383 676 406 676 C420 676 434 680 444 688 L489 726 Z " />
<glyph glyph-name="Udieresis" unicode="&#xdc;" horiz-adv-x="599" d="M183 598 L103 219 C76 95 163 -5 297 -5 C432 -5 565 97 591 223 L672 602 C676 623 662 639 638 639 C614 639 588 620 583 598 C574 552 564 507 545 415 C525 323 516 277 506 231 C486 139 408 73 318 73 C226 73 174 141 194 235 C195 241 196 247 197 252 C199 261 200 266 201 270 L272 602 C276 623 262 639 238 639 C214 639 188 620 183 598 L183 598 Z M408 778 L393 707 C389 689 404 674 428 674 C452 674 477 691 482 710 L497 782 C501 800 485 814 462 814 C437 814 412 797 408 778 L408 778 Z M553 778 L538 707 C534 689 550 674 573 674 C598 674 623 691 627 710 L642 782 C646 800 630 814 607 814 C583 814 557 797 553 778 L553 778 Z " />
<glyph glyph-name="Yacute" unicode="&#xdd;" horiz-adv-x="549" d="M364 412 L246 627 C240 637 229 644 215 644 C190 644 164 625 160 603 C158 595 159 588 162 582 L302 329 L240 37 C235 16 250 0 273 0 C298 0 323 19 328 40 L390 332 L636 584 C642 591 647 598 648 606 C653 627 638 644 615 644 C600 644 583 636 572 625 L364 412 Z M416 707 C413 689 428 674 451 674 C465 674 479 679 489 687 L575 758 C584 766 590 774 592 782 C595 800 580 814 557 814 C543 814 529 810 520 802 L433 730 C424 723 418 714 416 707 L416 707 Z " />
<glyph glyph-name="Thorn" unicode="&#xde;" horiz-adv-x="624" d="M207 603 L85 32 C81 14 97 0 120 0 C145 0 170 17 174 36 L186 95 L277 95 C301 95 319 95 336 95 C465 98 589 199 615 321 C642 445 559 544 431 544 L282 544 L295 607 C299 625 284 639 260 639 C236 639 211 622 207 603 L207 603 Z M267 476 L412 476 C492 474 545 402 527 318 C507 226 429 163 335 163 C310 163 286 163 262 163 C232 163 215 163 201 163 L267 476 Z " />
<glyph glyph-name="germandbls" unicode="&#xdf;" horiz-adv-x="649" d="M407 559 L497 559 L368 424 C361 417 357 411 356 405 C352 387 367 372 391 372 C397 372 404 373 417 373 C425 373 433 373 442 373 C538 373 571 321 547 206 C529 122 468 67 392 67 C388 67 384 67 379 67 C373 67 369 67 366 67 L283 67 C259 68 234 51 230 32 C226 14 241 0 265 0 L381 0 C473 0 568 57 611 141 C622 163 629 184 638 224 C665 354 606 433 481 440 L611 575 C618 582 622 589 623 594 C627 612 612 627 589 627 L425 627 C336 627 249 558 231 475 L224 440 L199 440 C175 440 150 424 146 405 C142 387 158 372 181 372 L209 372 L137 32 C133 14 148 0 172 0 C196 0 221 16 225 35 L289 337 C292 353 296 369 302 401 C303 403 303 404 303 405 C303 406 304 407 304 408 C304 409 304 410 305 412 C308 430 312 448 316 466 C328 521 365 559 407 559 L407 559 Z " />
<glyph glyph-name="agrave" unicode="&#xe0;" horiz-adv-x="475" d="M183 198 L193 245 C208 315 272 372 337 372 L412 372 L341 32 C337 14 352 0 375 0 C399 0 425 16 429 35 L507 408 C510 426 495 440 473 440 L356 440 C241 440 129 351 106 242 L96 195 C71 79 152 0 262 0 C308 0 330 11 335 35 C339 57 326 67 291 67 L288 67 C209 67 167 120 183 198 L183 198 Z M401 549 C425 549 451 566 455 585 C456 592 454 600 449 607 L392 679 C387 685 377 689 364 689 C339 689 314 672 310 653 C308 646 311 638 316 631 L372 560 C378 553 388 549 401 549 L401 549 Z " />
<glyph glyph-name="aacute" unicode="&#xe1;" horiz-adv-x="475" d="M183 198 L193 245 C208 315 272 372 337 372 L412 372 L341 32 C337 14 352 0 375 0 C399 0 425 16 429 35 L507 408 C510 426 495 440 473 440 L356 440 C241 440 129 351 106 242 L96 195 C71 79 152 0 262 0 C308 0 330 11 335 35 C339 57 326 67 291 67 L288 67 C209 67 167 120 183 198 L183 198 Z M362 557 C358 539 373 524 397 524 C411 524 424 529 434 537 L520 608 C529 616 535 624 537 632 C541 650 525 664 502 664 C488 664 474 660 465 652 L378 580 C369 573 363 564 362 557 L362 557 Z " />
<glyph glyph-name="acircumflex" unicode="&#xe2;" horiz-adv-x="475" d="M183 198 L193 245 C208 315 272 372 337 372 L412 372 L341 32 C337 14 352 0 375 0 C399 0 425 16 429 35 L507 408 C510 426 495 440 473 440 L356 440 C241 440 129 351 106 242 L96 195 C71 79 152 0 262 0 C308 0 330 11 335 35 C339 57 326 67 291 67 L288 67 C209 67 167 120 183 198 L183 198 Z M407 576 L438 536 C444 529 454 526 467 526 C492 526 517 542 521 562 C522 569 520 577 515 583 L459 655 C453 662 443 665 430 665 C416 665 402 661 393 653 L306 581 C297 574 291 566 290 558 C286 540 301 526 324 526 C338 526 352 530 362 538 L407 576 Z " />
<glyph glyph-name="atilde" unicode="&#xe3;" horiz-adv-x="475" d="M183 198 L193 245 C208 315 272 372 337 372 L412 372 L341 32 C337 14 352 0 375 0 C399 0 425 16 429 35 L507 408 C510 426 495 440 473 440 L356 440 C241 440 129 351 106 242 L96 195 C71 79 152 0 262 0 C308 0 330 11 335 35 C339 57 326 67 291 67 L288 67 C209 67 167 120 183 198 L183 198 Z M311 583 C308 565 323 551 346 551 C375 551 398 567 404 598 C406 598 411 592 417 585 C438 560 458 550 489 550 C541 550 590 587 600 633 C604 651 588 666 565 666 C536 666 513 650 507 620 C507 619 507 619 507 619 C504 619 499 626 492 633 C480 649 464 667 423 667 C371 667 321 629 311 583 L311 583 Z " />
<glyph glyph-name="adieresis" unicode="&#xe4;" horiz-adv-x="475" d="M183 198 L193 245 C208 315 272 372 337 372 L412 372 L341 32 C337 14 352 0 375 0 C399 0 425 16 429 35 L507 408 C510 426 495 440 473 440 L356 440 C241 440 129 351 106 242 L96 195 C71 79 152 0 262 0 C308 0 330 11 335 35 C339 57 326 67 291 67 L288 67 C209 67 167 120 183 198 L183 198 Z M298 653 L283 582 C279 564 294 549 318 549 C342 549 367 566 371 585 L386 657 C390 675 375 689 352 689 C327 689 302 672 298 653 L298 653 Z M443 653 L428 582 C424 564 439 549 463 549 C487 549 512 566 516 585 L532 657 C536 675 520 689 497 689 C472 689 447 672 443 653 L443 653 Z " />
<glyph glyph-name="aring" unicode="&#xe5;" horiz-adv-x="475" d="M183 198 L193 245 C208 315 272 372 337 372 L412 372 L341 32 C337 14 352 0 375 0 C399 0 425 16 429 35 L507 408 C510 426 495 440 473 440 L356 440 C241 440 129 351 106 242 L96 195 C71 79 152 0 262 0 C308 0 330 11 335 35 C339 57 326 67 291 67 L288 67 C209 67 167 120 183 198 L183 198 Z M521 562 C533 619 492 665 430 665 C366 665 302 617 290 558 C277 500 318 454 381 454 C446 454 508 503 521 562 L521 562 Z M432 558 C428 539 413 523 400 523 C384 523 374 541 378 562 C382 581 397 597 411 597 C427 597 437 579 432 558 L432 558 Z " />
<glyph glyph-name="ae" unicode="&#xe6;" horiz-adv-x="820" d="M451 186 C475 186 500 202 504 221 L519 292 C537 374 480 440 393 440 L300 440 C275 440 250 424 246 405 C242 387 258 372 281 372 L347 372 C421 372 444 344 428 268 C427 264 426 259 425 254 L283 254 C205 254 132 196 116 122 C102 56 152 -1 225 -1 L318 -1 C343 -1 368 16 372 35 C376 53 360 67 337 67 L260 67 C217 67 197 89 205 129 C213 168 240 186 287 186 L444 186 C446 186 448 186 451 186 L451 186 Z M586 63 C533 63 499 112 511 171 L534 278 C547 338 601 382 664 382 C703 382 716 364 708 324 C701 290 664 246 621 247 L592 247 C564 248 540 232 535 210 C531 189 548 178 582 179 L599 179 C699 182 781 248 798 329 C816 414 764 450 685 450 C570 450 467 374 446 275 L423 168 C403 74 465 -5 559 -4 C629 -4 721 38 729 73 C732 90 717 104 695 104 C682 104 668 98 648 85 C624 70 606 63 586 63 L586 63 Z " />
<glyph glyph-name="ccedilla" unicode="&#xe7;" horiz-adv-x="412" d="M337 449 C229 449 123 370 103 273 L80 168 C60 72 130 -5 236 -5 C293 -5 372 31 378 58 C383 79 369 95 344 95 C338 95 325 91 316 88 L317 88 C283 75 271 72 255 72 C197 72 159 118 170 172 L193 276 C204 329 259 373 313 373 C330 373 343 369 371 355 C379 351 389 348 396 348 C419 348 446 368 450 387 C456 413 390 449 337 449 L337 449 Z M246 -148 C311 -148 374 -100 387 -41 C399 17 358 63 296 63 L272 63 C247 63 222 46 218 27 C213 5 227 -5 259 -5 C261 -5 263 -5 266 -5 L270 -5 C291 -5 303 -22 298 -44 C294 -64 279 -79 265 -79 C259 -79 254 -75 250 -71 C240 -61 233 -58 219 -58 C195 -58 170 -75 166 -94 C161 -118 206 -148 246 -148 L246 -148 Z " />
<glyph glyph-name="egrave" unicode="&#xe8;" horiz-adv-x="430" d="M240 63 C187 63 153 112 165 171 L188 278 C201 338 255 382 318 382 C357 382 371 364 362 324 C355 290 319 246 276 247 L246 247 C218 248 194 232 190 210 C185 189 202 178 236 179 L253 179 C354 182 435 248 452 329 C470 414 418 450 339 450 C224 450 121 374 100 275 L77 168 C58 74 120 -5 213 -4 C283 -4 376 38 383 73 C387 90 371 104 350 104 C336 104 322 98 302 85 C278 70 260 63 240 63 L240 63 Z M351 549 C376 549 401 566 405 585 C406 592 404 600 399 607 L343 679 C337 685 327 689 314 689 C289 689 264 672 260 653 C259 646 261 638 266 631 L322 560 C328 553 338 549 351 549 L351 549 Z " />
<glyph glyph-name="eacute" unicode="&#xe9;" horiz-adv-x="430" d="M240 63 C187 63 153 112 165 171 L188 278 C201 338 255 382 318 382 C357 382 371 364 362 324 C355 290 319 246 276 247 L246 247 C218 248 194 232 190 210 C185 189 202 178 236 179 L253 179 C354 182 435 248 452 329 C470 414 418 450 339 450 C224 450 121 374 100 275 L77 168 C58 74 120 -5 213 -4 C283 -4 376 38 383 73 C387 90 371 104 350 104 C336 104 322 98 302 85 C278 70 260 63 240 63 L240 63 Z M312 557 C308 539 323 524 347 524 C361 524 374 529 384 537 L471 608 C479 616 486 624 487 632 C491 650 476 664 452 664 C438 664 425 660 415 652 L328 580 C320 573 314 564 312 557 L312 557 Z " />
<glyph glyph-name="ecircumflex" unicode="&#xea;" horiz-adv-x="430" d="M240 63 C187 63 153 112 165 171 L188 278 C201 338 255 382 318 382 C357 382 371 364 362 324 C355 290 319 246 276 247 L246 247 C218 248 194 232 190 210 C185 189 202 178 236 179 L253 179 C354 182 435 248 452 329 C470 414 418 450 339 450 C224 450 121 374 100 275 L77 168 C58 74 120 -5 213 -4 C283 -4 376 38 383 73 C387 90 371 104 350 104 C336 104 322 98 302 85 C278 70 260 63 240 63 L240 63 Z M358 576 L389 536 C394 529 405 526 417 526 C442 526 467 542 471 562 C473 569 471 577 465 583 L409 655 C404 662 393 665 380 665 C366 665 353 661 343 653 L256 581 C248 574 241 566 240 558 C236 540 251 526 275 526 C289 526 302 530 312 538 L358 576 Z " />
<glyph glyph-name="edieresis" unicode="&#xeb;" horiz-adv-x="430" d="M240 63 C187 63 153 112 165 171 L188 278 C201 338 255 382 318 382 C357 382 371 364 362 324 C355 290 319 246 276 247 L246 247 C218 248 194 232 190 210 C185 189 202 178 236 179 L253 179 C354 182 435 248 452 329 C470 414 418 450 339 450 C224 450 121 374 100 275 L77 168 C58 74 120 -5 213 -4 C283 -4 376 38 383 73 C387 90 371 104 350 104 C336 104 322 98 302 85 C278 70 260 63 240 63 L240 63 Z M248 653 L233 582 C229 564 244 549 268 549 C292 549 317 566 322 585 L337 657 C341 675 325 689 302 689 C277 689 252 672 248 653 L248 653 Z M393 653 L378 582 C374 564 390 549 413 549 C437 549 463 566 467 585 L482 657 C486 675 470 689 447 689 C422 689 397 672 393 653 L393 653 Z " />
<glyph glyph-name="igrave" unicode="&#xec;" horiz-adv-x="249" d="M168 405 L88 32 C85 14 100 0 123 0 C147 0 172 16 176 35 L256 408 C259 426 244 440 221 440 C197 440 172 424 168 405 L168 405 Z M232 499 C256 499 281 516 285 535 C287 542 285 550 279 557 L223 629 C218 635 207 639 194 639 C170 639 145 622 140 603 C139 596 141 588 147 581 L203 510 C208 503 219 499 232 499 L232 499 Z " />
<glyph glyph-name="iacute" unicode="&#xed;" horiz-adv-x="249" d="M168 405 L88 32 C85 14 100 0 123 0 C147 0 172 16 176 35 L256 408 C259 426 244 440 221 440 C197 440 172 424 168 405 L168 405 Z M192 507 C188 489 204 474 227 474 C241 474 255 479 264 487 L351 558 C360 566 366 574 367 582 C371 600 356 614 333 614 C319 614 305 610 295 602 L209 530 C200 523 194 514 192 507 L192 507 Z " />
<glyph glyph-name="icircumflex" unicode="&#xee;" horiz-adv-x="249" d="M168 405 L88 32 C85 14 100 0 123 0 C147 0 172 16 176 35 L256 408 C259 426 244 440 221 440 C197 440 172 424 168 405 L168 405 Z M238 526 L269 486 C274 479 285 476 298 476 C322 476 347 492 352 512 C353 519 351 527 345 533 L289 605 C284 612 273 615 260 615 C247 615 233 611 223 603 L137 531 C128 524 122 516 120 508 C116 490 132 476 155 476 C169 476 183 480 192 488 L238 526 Z " />
<glyph glyph-name="idieresis" unicode="&#xef;" horiz-adv-x="249" d="M168 405 L88 32 C85 14 100 0 123 0 C147 0 172 16 176 35 L256 408 C259 426 244 440 221 440 C197 440 172 424 168 405 L168 405 Z M128 603 L113 532 C109 514 125 499 148 499 C173 499 198 516 202 535 L217 607 C221 625 206 639 182 639 C158 639 132 622 128 603 L128 603 Z M274 603 L258 532 C255 514 270 499 293 499 C318 499 343 516 347 535 L362 607 C366 625 351 639 327 639 C303 639 278 622 274 603 L274 603 Z " />
<glyph glyph-name="eth" unicode="&#xf0;" horiz-adv-x="499" d="M417 335 L381 167 C369 110 317 63 265 63 C211 63 177 112 190 170 L211 268 C225 336 274 372 350 372 C374 372 399 389 403 408 C408 430 394 440 360 440 C332 440 311 438 291 433 C210 412 139 341 123 265 L102 167 C82 72 146 -5 247 -5 C349 -5 449 74 469 170 L505 338 C519 405 510 470 482 523 C501 530 516 536 524 540 C542 548 552 559 554 571 C558 589 543 603 520 603 C516 603 481 591 441 577 C423 595 381 628 354 628 C330 628 305 611 301 592 C299 581 304 572 317 564 C328 557 339 550 349 542 C336 536 325 532 320 529 C302 521 291 510 289 498 C285 480 300 466 323 466 C327 466 359 477 396 490 C422 449 431 399 417 335 L417 335 Z " />
<glyph glyph-name="ntilde" unicode="&#xf1;" horiz-adv-x="524" d="M466 40 L514 267 C535 363 466 440 359 440 L209 440 C184 440 158 421 154 400 L77 37 C72 16 87 0 111 0 C136 0 161 18 166 40 L235 363 L338 363 C414 363 436 308 422 241 C419 230 417 220 414 209 C410 193 408 185 406 177 L377 37 C372 16 387 0 411 0 C436 0 462 19 466 40 L466 40 Z M303 583 C299 565 314 551 337 551 C366 551 389 567 396 598 C397 598 402 592 408 585 C429 560 449 550 480 550 C532 550 581 587 591 633 C595 651 580 666 556 666 C527 666 505 650 498 620 C498 619 498 619 499 619 C496 619 490 626 484 633 C471 649 456 667 414 667 C362 667 312 629 303 583 L303 583 Z " />
<glyph glyph-name="ograve" unicode="&#xf2;" horiz-adv-x="454" d="M70 168 C51 73 121 -5 225 -5 C333 -5 439 75 459 172 L481 276 C502 372 433 449 326 449 C218 449 113 370 92 273 L70 168 Z M181 276 C193 329 248 373 305 373 C364 373 403 327 392 273 L370 168 C358 115 303 72 246 72 C188 72 149 117 159 172 L181 276 Z M357 549 C382 549 407 566 411 585 C412 592 410 600 405 607 L349 679 C343 685 333 689 320 689 C295 689 270 672 266 653 C265 646 267 638 272 631 L328 560 C334 553 344 549 357 549 L357 549 Z " />
<glyph glyph-name="oacute" unicode="&#xf3;" horiz-adv-x="454" d="M70 168 C51 73 121 -5 225 -5 C333 -5 439 75 459 172 L481 276 C502 372 433 449 326 449 C218 449 113 370 92 273 L70 168 Z M181 276 C193 329 248 373 305 373 C364 373 403 327 392 273 L370 168 C358 115 303 72 246 72 C188 72 149 117 159 172 L181 276 Z M318 557 C314 539 329 524 353 524 C367 524 380 529 390 537 L477 608 C485 616 492 624 493 632 C497 650 482 664 458 664 C444 664 431 660 421 652 L334 580 C326 573 320 564 318 557 L318 557 Z " />
<glyph glyph-name="ocircumflex" unicode="&#xf4;" horiz-adv-x="499" d="M91 168 C73 73 143 -5 247 -5 C355 -5 460 75 481 172 L503 276 C524 372 455 449 348 449 C240 449 134 370 114 273 L91 168 Z M203 276 C214 329 270 373 327 373 C386 373 425 327 414 273 L391 168 C380 115 325 72 268 72 C210 72 171 117 181 172 L203 276 Z M364 558 L395 518 C400 512 411 508 424 508 C448 508 473 525 477 544 C479 551 477 559 471 566 L415 637 C410 644 399 648 386 648 C372 648 359 643 349 635 L263 564 C254 556 248 548 246 540 C242 522 258 508 281 508 C295 508 308 512 318 520 L364 558 Z " />
<glyph glyph-name="otilde" unicode="&#xf5;" horiz-adv-x="454" d="M70 168 C51 73 121 -5 225 -5 C333 -5 439 75 459 172 L481 276 C502 372 433 449 326 449 C218 449 113 370 92 273 L70 168 Z M181 276 C193 329 248 373 305 373 C364 373 403 327 392 273 L370 168 C358 115 303 72 246 72 C188 72 149 117 159 172 L181 276 Z M268 583 C264 565 279 551 303 551 C331 551 355 567 361 598 C362 598 367 592 373 585 C394 560 414 550 445 550 C497 550 546 587 556 633 C560 651 545 666 521 666 C492 666 470 650 463 620 C463 619 463 619 464 619 C461 619 455 626 449 633 C436 649 421 667 379 667 C327 667 278 629 268 583 L268 583 Z " />
<glyph glyph-name="odieresis" unicode="&#xf6;" horiz-adv-x="454" d="M70 168 C51 73 121 -5 225 -5 C333 -5 439 75 459 172 L481 276 C502 372 433 449 326 449 C218 449 113 370 92 273 L70 168 Z M181 276 C193 329 248 373 305 373 C364 373 403 327 392 273 L370 168 C358 115 303 72 246 72 C188 72 149 117 159 172 L181 276 Z M254 653 L239 582 C235 564 250 549 274 549 C298 549 323 566 328 585 L343 657 C347 675 331 689 308 689 C283 689 258 672 254 653 L254 653 Z M399 653 L384 582 C380 564 396 549 419 549 C443 549 469 566 473 585 L488 657 C492 675 476 689 453 689 C428 689 403 672 399 653 L399 653 Z " />
<glyph glyph-name="divide" unicode="&#xf7;" horiz-adv-x="399" d="M152 238 L343 238 C367 238 392 254 396 274 C400 292 385 306 362 306 L171 306 C147 306 122 289 117 270 C114 252 129 238 152 238 L152 238 Z M225 122 L241 197 C243 207 235 215 222 215 C208 215 193 205 190 193 L175 118 C172 108 181 100 193 100 C208 100 222 110 225 122 L225 122 Z M238 418 L222 343 C220 333 228 325 241 325 C255 325 270 335 273 347 L289 422 C291 432 283 440 270 440 C256 440 241 430 238 418 L238 418 Z " />
<glyph glyph-name="oslash" unicode="&#xf8;" horiz-adv-x="499" d="M481 455 C485 473 470 487 447 487 C413 487 399 466 383 439 C381 435 379 431 377 428 L319 333 C264 244 209 155 155 65 L153 63 C145 50 109 -10 108 -15 C104 -33 119 -47 143 -47 C177 -47 190 -26 206 1 C208 5 210 9 212 12 L271 108 C326 197 380 286 435 375 L436 378 C446 393 480 450 481 455 L481 455 Z M91 168 C73 73 143 -5 247 -5 C355 -5 460 75 481 172 L503 276 C524 372 455 449 348 449 C240 449 134 370 114 273 L91 168 Z M203 276 C214 329 270 373 327 373 C386 373 425 327 414 273 L391 168 C380 115 325 72 268 72 C210 72 171 117 181 172 L203 276 Z " />
<glyph glyph-name="ugrave" unicode="&#xf9;" horiz-adv-x="487" d="M135 400 L87 173 C66 77 135 0 242 0 L392 0 C417 0 443 18 447 40 L524 403 C529 424 514 440 490 440 C465 440 439 421 435 400 L366 77 L263 77 C187 77 165 132 179 199 C182 210 184 220 187 231 C191 246 193 255 194 263 L224 403 C229 424 214 440 190 440 C165 440 139 421 135 400 L135 400 Z M398 549 C423 549 448 566 452 585 C453 592 451 600 446 607 L390 679 C384 685 374 689 361 689 C336 689 311 672 307 653 C306 646 308 638 313 631 L369 560 C375 553 385 549 398 549 L398 549 Z " />
<glyph glyph-name="uacute" unicode="&#xfa;" horiz-adv-x="487" d="M135 400 L87 173 C66 77 135 0 242 0 L392 0 C417 0 443 18 447 40 L524 403 C529 424 514 440 490 440 C465 440 439 421 435 400 L366 77 L263 77 C187 77 165 132 179 199 C182 210 184 220 187 231 C191 246 193 255 194 263 L224 403 C229 424 214 440 190 440 C165 440 139 421 135 400 L135 400 Z M359 557 C355 539 370 524 394 524 C408 524 421 529 431 537 L518 608 C526 616 533 624 534 632 C538 650 523 664 499 664 C485 664 472 660 462 652 L375 580 C367 573 361 564 359 557 L359 557 Z " />
<glyph glyph-name="ucircumflex" unicode="&#xfb;" horiz-adv-x="487" d="M135 400 L87 173 C66 77 135 0 242 0 L392 0 C417 0 443 18 447 40 L524 403 C529 424 514 440 490 440 C465 440 439 421 435 400 L366 77 L263 77 C187 77 165 132 179 199 C182 210 184 220 187 231 C191 246 193 255 194 263 L224 403 C229 424 214 440 190 440 C165 440 139 421 135 400 L135 400 Z M405 576 L436 536 C441 529 451 526 464 526 C489 526 514 542 518 562 C520 569 517 577 512 583 L456 655 C451 662 440 665 427 665 C413 665 400 661 390 653 L303 581 C294 574 288 566 287 558 C283 540 298 526 322 526 C336 526 349 530 359 538 L405 576 Z " />
<glyph glyph-name="udieresis" unicode="&#xfc;" horiz-adv-x="487" d="M135 400 L87 173 C66 77 135 0 242 0 L392 0 C417 0 443 18 447 40 L524 403 C529 424 514 440 490 440 C465 440 439 421 435 400 L366 77 L263 77 C187 77 165 132 179 199 C182 210 184 220 187 231 C191 246 193 255 194 263 L224 403 C229 424 214 440 190 440 C165 440 139 421 135 400 L135 400 Z M295 653 L280 582 C276 564 291 549 315 549 C339 549 364 566 368 585 L384 657 C388 675 372 689 349 689 C324 689 299 672 295 653 L295 653 Z M440 653 L425 582 C421 564 436 549 460 549 C484 549 510 566 514 585 L529 657 C533 675 517 689 494 689 C469 689 444 672 440 653 L440 653 Z " />
<glyph glyph-name="yacute" unicode="&#xfd;" horiz-adv-x="474" d="M197 445 C172 445 146 426 141 405 C141 404 195 108 210 36 L189 2 C185 -3 182 -9 178 -15 C136 -85 115 -100 52 -105 C26 -108 4 -124 -1 -145 C-5 -166 10 -182 34 -182 C113 -182 183 -145 231 -78 C251 -49 529 397 530 403 C534 424 519 440 496 440 C476 440 456 429 445 413 L282 152 C262 262 234 415 230 423 C224 439 214 445 197 445 L197 445 Z M339 557 C336 539 351 524 374 524 C388 524 402 529 412 537 L498 608 C507 616 513 624 515 632 C518 650 503 664 480 664 C466 664 452 660 443 652 L356 580 C347 573 341 564 339 557 L339 557 Z " />
<glyph glyph-name="thorn" unicode="&#xfe;" horiz-adv-x="519" d="M181 591 L142 405 C138 387 153 372 176 372 C201 372 226 389 230 408 L269 594 C273 612 258 627 235 627 C210 627 185 610 181 591 L181 591 Z M514 231 C520 260 521 276 520 292 C512 381 441 440 341 440 L216 440 C191 440 165 421 161 400 L45 -145 C40 -166 55 -182 79 -182 C104 -182 130 -163 134 -142 L242 363 L320 363 C403 363 441 309 422 218 L420 206 C403 126 340 76 255 77 L239 77 C214 77 188 58 183 37 C178 12 192 0 228 0 C329 0 440 46 491 153 C499 170 504 187 511 219 L514 231 Z " />
<glyph glyph-name="ydieresis" unicode="&#xff;" horiz-adv-x="474" d="M197 445 C172 445 146 426 141 405 C141 404 195 108 210 36 L189 2 C185 -3 182 -9 178 -15 C136 -85 115 -100 52 -105 C26 -108 4 -124 -1 -145 C-5 -166 10 -182 34 -182 C113 -182 183 -145 231 -78 C251 -49 529 397 530 403 C534 424 519 440 496 440 C476 440 456 429 445 413 L282 152 C262 262 234 415 230 423 C224 439 214 445 197 445 L197 445 Z M276 653 L260 582 C257 564 272 549 295 549 C320 549 345 566 349 585 L364 657 C368 675 353 689 329 689 C305 689 280 672 276 653 L276 653 Z M421 653 L406 582 C402 564 417 549 440 549 C465 549 490 566 494 585 L509 657 C513 675 498 689 474 689 C450 689 425 672 421 653 L421 653 Z " />
<glyph glyph-name="Amacron" unicode="&#x100;" horiz-adv-x="480" d="M4 37 C0 16 15 0 38 0 C58 0 79 12 88 29 L124 93 L394 93 L403 26 C406 10 420 0 438 0 C462 0 488 19 493 40 C494 46 489 87 480 151 L479 158 C468 243 456 329 432 498 L418 594 C418 596 418 598 418 602 C414 636 404 648 380 648 C354 648 336 634 318 599 C316 595 315 593 314 591 L259 494 C163 326 115 240 67 155 L63 148 C27 84 5 42 4 37 L4 37 Z M341 478 L383 171 L168 171 L341 478 Z M348 698 L491 698 C515 698 540 715 544 734 C548 752 533 767 510 767 L367 767 C342 767 317 750 313 731 C309 712 325 698 348 698 L348 698 Z " />
<glyph glyph-name="amacron" unicode="&#x101;" horiz-adv-x="475" d="M183 198 L193 245 C208 315 272 372 337 372 L412 372 L341 32 C337 14 352 0 375 0 C399 0 425 16 429 35 L507 408 C510 426 495 440 473 440 L356 440 C241 440 129 351 106 242 L96 195 C71 79 152 0 262 0 C308 0 330 11 335 35 C339 57 326 67 291 67 L288 67 C209 67 167 120 183 198 L183 198 Z M335 573 L477 573 C502 573 527 590 531 609 C535 627 520 642 496 642 L353 642 C329 642 304 625 300 606 C296 587 311 573 335 573 L335 573 Z " />
<glyph glyph-name="Abreve" unicode="&#x102;" horiz-adv-x="480" d="M4 37 C0 16 15 0 38 0 C58 0 79 12 88 29 L124 93 L394 93 L403 26 C406 10 420 0 438 0 C462 0 488 19 493 40 C494 46 489 87 480 151 L479 158 C468 243 456 329 432 498 L418 594 C418 596 418 598 418 602 C414 636 404 648 380 648 C354 648 336 634 318 599 C316 595 315 593 314 591 L259 494 C163 326 115 240 67 155 L63 148 C27 84 5 42 4 37 L4 37 Z M341 478 L383 171 L168 171 L341 478 Z M437 744 C421 745 414 760 416 786 C417 804 403 815 380 815 C356 815 331 799 327 780 C314 722 355 676 418 676 C482 676 545 724 558 783 C562 801 546 815 523 815 C499 815 476 801 470 782 C462 758 450 744 437 744 L437 744 Z " />
<glyph glyph-name="abreve" unicode="&#x103;" horiz-adv-x="475" d="M183 198 L193 245 C208 315 272 372 337 372 L412 372 L341 32 C337 14 352 0 375 0 C399 0 425 16 429 35 L507 408 C510 426 495 440 473 440 L356 440 C241 440 129 351 106 242 L96 195 C71 79 152 0 262 0 C308 0 330 11 335 35 C339 57 326 67 291 67 L288 67 C209 67 167 120 183 198 L183 198 Z M415 594 C400 595 392 610 394 636 C395 654 382 665 359 665 C334 665 309 649 305 630 C293 572 333 526 396 526 C460 526 524 574 536 633 C540 651 525 665 501 665 C477 665 455 651 448 632 C440 608 428 594 415 594 L415 594 Z " />
<glyph glyph-name="Aogonek" unicode="&#x104;" horiz-adv-x="480" d="M4 37 C0 16 15 0 38 0 C58 0 79 12 88 29 L124 93 L394 93 L403 26 C406 10 420 0 438 0 C462 0 488 19 493 40 C494 46 489 87 480 151 L479 158 C468 243 456 329 432 498 L418 594 C418 596 418 598 418 602 C414 636 404 648 380 648 C354 648 336 634 318 599 C316 595 315 593 314 591 L259 494 C163 326 115 240 67 155 L63 148 C27 84 5 42 4 37 L4 37 Z M341 478 L383 171 L168 171 L341 478 Z M470 68 L446 68 C382 68 318 19 306 -40 C294 -97 335 -143 397 -143 C439 -143 501 -111 506 -86 C510 -68 494 -53 471 -53 C457 -53 448 -56 433 -66 C427 -70 421 -74 416 -74 C400 -74 390 -57 395 -36 C399 -13 414 0 434 0 C437 0 439 0 442 0 C446 0 449 0 451 0 C476 0 501 17 505 36 C509 54 494 68 470 68 L470 68 Z " />
<glyph glyph-name="aogonek" unicode="&#x105;" horiz-adv-x="475" d="M183 198 L193 245 C208 315 272 372 337 372 L412 372 L341 32 C337 14 352 0 375 0 C399 0 425 16 429 35 L507 408 C510 426 495 440 473 440 L356 440 C241 440 129 351 106 242 L96 195 C71 79 152 0 262 0 C308 0 330 11 335 35 C339 57 326 67 291 67 L288 67 C209 67 167 120 183 198 L183 198 Z M246 68 L222 68 C158 68 94 19 81 -40 C69 -97 110 -143 173 -143 C215 -143 276 -111 281 -86 C285 -68 270 -53 247 -53 C233 -53 223 -56 209 -66 C203 -70 197 -74 192 -74 C176 -74 166 -57 170 -36 C175 -13 189 0 210 0 C212 0 215 0 218 0 C222 0 225 0 227 0 C251 0 277 17 281 36 C285 54 269 68 246 68 L246 68 Z " />
<glyph glyph-name="Cacute" unicode="&#x106;" horiz-adv-x="525" d="M318 73 C231 73 174 141 191 223 L234 424 C251 505 334 570 419 570 C455 570 479 562 512 538 C519 532 527 530 536 530 C561 530 586 549 591 570 C595 590 584 598 575 605 L574 606 C537 634 491 648 440 648 C305 648 172 546 146 421 L103 219 C76 95 163 -5 297 -5 C348 -5 402 11 452 40 L454 40 C474 52 483 62 486 77 C490 98 475 114 452 114 C436 114 422 106 409 99 C383 82 350 73 318 73 L318 73 Z M443 707 C439 689 454 674 478 674 C492 674 505 679 515 687 L602 758 C610 766 617 774 618 782 C622 800 607 814 583 814 C569 814 556 810 546 802 L459 730 C451 723 445 714 443 707 L443 707 Z " />
<glyph glyph-name="cacute" unicode="&#x107;" horiz-adv-x="412" d="M337 449 C229 449 123 370 103 273 L80 168 C60 72 130 -5 236 -5 C293 -5 372 31 378 58 C383 79 369 95 344 95 C338 95 325 91 316 88 L317 88 C283 75 271 72 255 72 C197 72 159 118 170 172 L193 276 C204 329 259 373 313 373 C330 373 343 369 371 355 C379 351 389 348 396 348 C419 348 446 368 450 387 C456 413 390 449 337 449 L337 449 Z M318 507 C314 489 330 474 353 474 C367 474 381 479 390 487 L477 558 C486 566 492 574 494 582 C497 600 482 614 459 614 C445 614 431 610 421 602 L335 530 C326 523 320 514 318 507 L318 507 Z " />
<glyph glyph-name="Ccircumflex" unicode="&#x108;" horiz-adv-x="525" d="M318 73 C231 73 174 141 191 223 L234 424 C251 505 334 570 419 570 C455 570 479 562 512 538 C519 532 527 530 536 530 C561 530 586 549 591 570 C595 590 584 598 575 605 L574 606 C537 634 491 648 440 648 C305 648 172 546 146 421 L103 219 C76 95 163 -5 297 -5 C348 -5 402 11 452 40 L454 40 C474 52 483 62 486 77 C490 98 475 114 452 114 C436 114 422 106 409 99 C383 82 350 73 318 73 L318 73 Z M489 726 L520 686 C526 679 536 676 549 676 C574 676 599 692 603 712 C604 719 602 727 597 733 L540 805 C535 812 525 815 512 815 C498 815 484 811 474 803 L388 731 C379 724 373 716 371 708 C368 690 383 676 406 676 C420 676 434 680 444 688 L489 726 Z " />
<glyph glyph-name="ccircumflex" unicode="&#x109;" horiz-adv-x="412" d="M337 449 C229 449 123 370 103 273 L80 168 C60 72 130 -5 236 -5 C293 -5 372 31 378 58 C383 79 369 95 344 95 C338 95 325 91 316 88 L317 88 C283 75 271 72 255 72 C197 72 159 118 170 172 L193 276 C204 329 259 373 313 373 C330 373 343 369 371 355 C379 351 389 348 396 348 C419 348 446 368 450 387 C456 413 390 449 337 449 L337 449 Z M364 526 L395 486 C400 479 411 476 424 476 C448 476 474 492 478 512 C479 519 477 527 472 533 L415 605 C410 612 400 615 387 615 C373 615 359 611 349 603 L263 531 C254 524 248 516 246 508 C242 490 258 476 281 476 C295 476 309 480 318 488 L364 526 Z " />
<glyph glyph-name="Cdotaccent" unicode="&#x10a;" horiz-adv-x="525" d="M318 73 C231 73 174 141 191 223 L234 424 C251 505 334 570 419 570 C455 570 479 562 512 538 C519 532 527 530 536 530 C561 530 586 549 591 570 C595 590 584 598 575 605 L574 606 C537 634 491 648 440 648 C305 648 172 546 146 421 L103 219 C76 95 163 -5 297 -5 C348 -5 402 11 452 40 L454 40 C474 52 483 62 486 77 C490 98 475 114 452 114 C436 114 422 106 409 99 C383 82 350 73 318 73 L318 73 Z M458 778 L443 707 C439 689 454 674 478 674 C502 674 528 691 532 710 L547 782 C551 800 535 814 512 814 C487 814 462 797 458 778 L458 778 Z " />
<glyph glyph-name="cdotaccent" unicode="&#x10b;" horiz-adv-x="412" d="M337 449 C229 449 123 370 103 273 L80 168 C60 72 130 -5 236 -5 C293 -5 372 31 378 58 C383 79 369 95 344 95 C338 95 325 91 316 88 L317 88 C283 75 271 72 255 72 C197 72 159 118 170 172 L193 276 C204 329 259 373 313 373 C330 373 343 369 371 355 C379 351 389 348 396 348 C419 348 446 368 450 387 C456 413 390 449 337 449 L337 449 Z M341 603 L326 532 C322 514 338 499 361 499 C386 499 411 516 415 535 L430 607 C434 625 419 639 395 639 C371 639 346 622 341 603 L341 603 Z " />
<glyph glyph-name="Ccaron" unicode="&#x10c;" horiz-adv-x="525" d="M318 73 C231 73 174 141 191 223 L234 424 C251 505 334 570 419 570 C455 570 479 562 512 538 C519 532 527 530 536 530 C561 530 586 549 591 570 C595 590 584 598 575 605 L574 606 C537 634 491 648 440 648 C305 648 172 546 146 421 L103 219 C76 95 163 -5 297 -5 C348 -5 402 11 452 40 L454 40 C474 52 483 62 486 77 C490 98 475 114 452 114 C436 114 422 106 409 99 C383 82 350 73 318 73 L318 73 Z M478 676 C492 676 505 680 515 688 L601 760 C610 767 616 775 618 783 C622 801 606 815 583 815 C569 815 556 811 546 803 L500 765 L469 805 C464 812 453 815 440 815 C416 815 391 799 387 780 C385 772 387 764 393 758 L449 686 C454 679 465 676 478 676 L478 676 Z " />
<glyph glyph-name="ccaron" unicode="&#x10d;" horiz-adv-x="412" d="M337 449 C229 449 123 370 103 273 L80 168 C60 72 130 -5 236 -5 C293 -5 372 31 378 58 C383 79 369 95 344 95 C338 95 325 91 316 88 L317 88 C283 75 271 72 255 72 C197 72 159 118 170 172 L193 276 C204 329 259 373 313 373 C330 373 343 369 371 355 C379 351 389 348 396 348 C419 348 446 368 450 387 C456 413 390 449 337 449 L337 449 Z M352 476 C366 476 380 480 390 488 L476 560 C485 567 491 575 493 583 C497 601 481 615 458 615 C444 615 430 611 421 603 L375 565 L344 605 C339 612 328 615 315 615 C291 615 265 599 261 580 C260 572 262 564 268 558 L324 486 C329 479 340 476 352 476 L352 476 Z " />
<glyph glyph-name="Dcaron" unicode="&#x10e;" horiz-adv-x="624" d="M260 0 C423 0 582 123 614 274 L634 368 C666 518 562 639 400 639 L250 639 C225 639 200 620 195 598 L76 37 C72 16 87 0 110 0 L260 0 Z M173 78 L275 561 L379 561 C494 561 569 473 546 364 L526 271 C504 167 393 80 281 78 L173 78 Z M440 676 C454 676 467 680 477 688 L563 760 C572 767 578 775 580 783 C584 801 568 815 545 815 C531 815 518 811 508 803 L462 765 L431 805 C426 812 415 815 402 815 C378 815 353 799 349 780 C347 772 349 764 355 758 L411 686 C416 679 427 676 440 676 L440 676 Z " />
<glyph glyph-name="dcaron" unicode="&#x10f;" horiz-adv-x="522" d="M492 582 L462 440 L383 440 C261 440 143 351 119 241 L110 196 C91 108 139 30 227 7 C247 2 270 0 301 0 C336 0 359 15 365 40 C370 65 356 77 321 77 L318 77 C233 77 184 127 199 199 L209 244 C223 314 292 364 372 364 C377 364 381 364 386 364 C393 363 397 363 400 363 L445 363 L376 37 C371 16 386 0 410 0 C435 0 461 19 465 40 L581 585 C586 606 570 622 547 622 C522 622 496 603 492 582 L492 582 Z M447 700 C461 700 475 705 484 713 L571 784 C580 792 586 800 588 808 C591 826 576 840 553 840 C539 840 525 836 515 828 L470 790 L439 830 C433 836 423 840 410 840 C385 840 360 823 356 804 C355 797 357 789 362 782 L418 711 C424 704 434 700 447 700 L447 700 Z " />
<glyph glyph-name="Dcroat" unicode="&#x110;" horiz-adv-x="674" d="M195 338 L385 338 C409 338 435 354 439 374 C443 392 427 406 404 406 L213 406 C189 406 164 389 160 370 C156 352 171 338 195 338 L195 338 Z M297 0 C460 0 619 123 651 274 L671 368 C703 518 599 639 437 639 L287 639 C263 639 237 620 233 598 L113 37 C109 16 124 0 147 0 L297 0 Z M210 78 L312 561 L416 561 C531 561 606 473 583 364 L563 271 C541 167 431 80 318 78 L210 78 Z " />
<glyph glyph-name="dcroat" unicode="&#x111;" horiz-adv-x="522" d="M492 582 L462 440 L383 440 C261 440 143 351 119 241 L110 196 C91 108 139 30 227 7 C247 2 270 0 301 0 C336 0 359 15 365 40 C370 65 356 77 321 77 L318 77 C233 77 184 127 199 199 L209 244 C223 314 292 364 372 364 C377 364 381 364 386 364 C393 363 397 363 400 363 L445 363 L376 37 C371 16 386 0 410 0 C435 0 461 19 465 40 L581 585 C586 606 570 622 547 622 C522 622 496 603 492 582 L492 582 Z M401 573 L544 573 C568 573 593 590 597 609 C601 627 586 642 562 642 L420 642 C395 642 370 625 366 606 C362 587 377 573 401 573 L401 573 Z " />
<glyph glyph-name="Emacron" unicode="&#x112;" horiz-adv-x="542" d="M600 639 L250 639 C226 639 200 620 195 598 L86 84 C76 37 109 0 160 0 L460 0 C484 0 510 19 515 40 C519 61 505 77 481 77 L181 77 C176 79 174 83 175 88 L225 327 L354 327 C379 327 405 346 409 368 C414 389 399 405 375 405 L242 405 L275 561 L579 561 C603 561 629 580 634 602 C638 623 624 639 600 639 L600 639 Z M401 728 L544 728 C569 728 594 745 598 764 C602 782 586 797 563 797 L420 797 C396 797 371 780 366 761 C363 742 378 728 401 728 L401 728 Z " />
<glyph glyph-name="emacron" unicode="&#x113;" horiz-adv-x="430" d="M240 63 C187 63 153 112 165 171 L188 278 C201 338 255 382 318 382 C357 382 371 364 362 324 C355 290 319 246 276 247 L246 247 C218 248 194 232 190 210 C185 189 202 178 236 179 L253 179 C354 182 435 248 452 329 C470 414 418 450 339 450 C224 450 121 374 100 275 L77 168 C58 74 120 -5 213 -4 C283 -4 376 38 383 73 C387 90 371 104 350 104 C336 104 322 98 302 85 C278 70 260 63 240 63 L240 63 Z M285 573 L428 573 C452 573 477 590 481 609 C485 627 470 642 446 642 L304 642 C279 642 254 625 250 606 C246 587 261 573 285 573 L285 573 Z " />
<glyph glyph-name="Ebreve" unicode="&#x114;" horiz-adv-x="542" d="M600 639 L250 639 C226 639 200 620 195 598 L86 84 C76 37 109 0 160 0 L460 0 C484 0 510 19 515 40 C519 61 505 77 481 77 L181 77 C176 79 174 83 175 88 L225 327 L354 327 C379 327 405 346 409 368 C414 389 399 405 375 405 L242 405 L275 561 L579 561 C603 561 629 580 634 602 C638 623 624 639 600 639 L600 639 Z M490 774 C475 775 467 790 469 816 C470 834 457 845 434 845 C409 845 384 829 380 810 C368 752 408 706 471 706 C535 706 599 754 611 813 C615 831 600 845 576 845 C552 845 530 831 523 812 C515 788 503 774 490 774 L490 774 Z " />
<glyph glyph-name="ebreve" unicode="&#x115;" horiz-adv-x="430" d="M240 63 C187 63 153 112 165 171 L188 278 C201 338 255 382 318 382 C357 382 371 364 362 324 C355 290 319 246 276 247 L246 247 C218 248 194 232 190 210 C185 189 202 178 236 179 L253 179 C354 182 435 248 452 329 C470 414 418 450 339 450 C224 450 121 374 100 275 L77 168 C58 74 120 -5 213 -4 C283 -4 376 38 383 73 C387 90 371 104 350 104 C336 104 322 98 302 85 C278 70 260 63 240 63 L240 63 Z M365 594 C350 595 342 610 344 636 C345 654 332 665 309 665 C284 665 259 649 255 630 C243 572 283 526 346 526 C410 526 474 574 486 633 C490 651 475 665 452 665 C427 665 405 651 399 632 C390 608 378 594 365 594 L365 594 Z " />
<glyph glyph-name="Edotaccent" unicode="&#x116;" horiz-adv-x="542" d="M600 639 L250 639 C226 639 200 620 195 598 L86 84 C76 37 109 0 160 0 L460 0 C484 0 510 19 515 40 C519 61 505 77 481 77 L181 77 C176 79 174 83 175 88 L225 327 L354 327 C379 327 405 346 409 368 C414 389 399 405 375 405 L242 405 L275 561 L579 561 C603 561 629 580 634 602 C638 623 624 639 600 639 L600 639 Z M452 808 L436 737 C432 719 448 704 471 704 C496 704 521 721 525 740 L540 812 C544 830 529 844 505 844 C481 844 456 827 452 808 L452 808 Z " />
<glyph glyph-name="edotaccent" unicode="&#x117;" horiz-adv-x="430" d="M240 63 C187 63 153 112 165 171 L188 278 C201 338 255 382 318 382 C357 382 371 364 362 324 C355 290 319 246 276 247 L246 247 C218 248 194 232 190 210 C185 189 202 178 236 179 L253 179 C354 182 435 248 452 329 C470 414 418 450 339 450 C224 450 121 374 100 275 L77 168 C58 74 120 -5 213 -4 C283 -4 376 38 383 73 C387 90 371 104 350 104 C336 104 322 98 302 85 C278 70 260 63 240 63 L240 63 Z M335 653 L320 582 C316 564 331 549 355 549 C379 549 404 566 409 585 L424 657 C428 675 412 689 389 689 C364 689 339 672 335 653 L335 653 Z " />
<glyph glyph-name="Eogonek" unicode="&#x118;" horiz-adv-x="542" d="M600 639 L250 639 C226 639 200 620 195 598 L86 84 C76 37 109 0 160 0 L460 0 C484 0 510 19 515 40 C519 61 505 77 481 77 L181 77 C176 79 174 83 175 88 L225 327 L354 327 C379 327 405 346 409 368 C414 389 399 405 375 405 L242 405 L275 561 L579 561 C603 561 629 580 634 602 C638 623 624 639 600 639 L600 639 Z M317 68 L293 68 C229 68 165 19 153 -40 C141 -97 181 -143 244 -143 C286 -143 348 -111 353 -86 C357 -68 341 -53 318 -53 C304 -53 295 -56 280 -66 C274 -70 268 -74 263 -74 C247 -74 237 -57 242 -36 C246 -13 261 0 281 0 C284 0 286 0 289 0 C293 0 296 0 298 0 C323 0 348 17 352 36 C356 54 341 68 317 68 L317 68 Z " />
<glyph glyph-name="eogonek" unicode="&#x119;" horiz-adv-x="430" d="M240 63 C187 63 153 112 165 171 L188 278 C201 338 255 382 318 382 C357 382 371 364 362 324 C355 290 319 246 276 247 L246 247 C218 248 194 232 190 210 C185 189 202 178 236 179 L253 179 C354 182 435 248 452 329 C470 414 418 450 339 450 C224 450 121 374 100 275 L77 168 C58 74 120 -5 213 -4 C283 -4 376 38 383 73 C387 90 371 104 350 104 C336 104 322 98 302 85 C278 70 260 63 240 63 L240 63 Z M326 68 L303 68 C238 68 175 19 162 -40 C150 -97 191 -143 253 -143 C295 -143 357 -111 362 -86 C366 -68 351 -53 327 -53 C313 -53 304 -56 289 -66 C284 -70 277 -74 272 -74 C256 -74 246 -57 251 -36 C256 -13 270 0 290 0 C293 0 295 0 298 0 C302 0 305 0 307 0 C332 0 357 17 361 36 C365 54 350 68 326 68 L326 68 Z " />
<glyph glyph-name="Ecaron" unicode="&#x11a;" horiz-adv-x="542" d="M600 639 L250 639 C226 639 200 620 195 598 L86 84 C76 37 109 0 160 0 L460 0 C484 0 510 19 515 40 C519 61 505 77 481 77 L181 77 C176 79 174 83 175 88 L225 327 L354 327 C379 327 405 346 409 368 C414 389 399 405 375 405 L242 405 L275 561 L579 561 C603 561 629 580 634 602 C638 623 624 639 600 639 L600 639 Z M471 706 C485 706 499 710 508 718 L595 790 C604 797 610 805 611 813 C615 831 600 845 576 845 C563 845 549 841 539 833 L494 795 L462 835 C457 842 447 845 434 845 C409 845 384 829 380 810 C378 802 381 794 386 788 L442 716 C448 709 458 706 471 706 L471 706 Z " />
<glyph glyph-name="ecaron" unicode="&#x11b;" horiz-adv-x="430" d="M240 63 C187 63 153 112 165 171 L188 278 C201 338 255 382 318 382 C357 382 371 364 362 324 C355 290 319 246 276 247 L246 247 C218 248 194 232 190 210 C185 189 202 178 236 179 L253 179 C354 182 435 248 452 329 C470 414 418 450 339 450 C224 450 121 374 100 275 L77 168 C58 74 120 -5 213 -4 C283 -4 376 38 383 73 C387 90 371 104 350 104 C336 104 322 98 302 85 C278 70 260 63 240 63 L240 63 Z M346 526 C360 526 374 530 383 538 L470 610 C479 617 485 625 486 633 C490 651 475 665 452 665 C438 665 424 661 414 653 L369 615 L338 655 C332 662 322 665 309 665 C284 665 259 649 255 630 C254 622 256 614 261 608 L317 536 C323 529 333 526 346 526 L346 526 Z " />
<glyph glyph-name="Gcircumflex" unicode="&#x11c;" horiz-adv-x="599" d="M526 327 L503 219 C486 139 403 73 318 73 C231 73 174 141 191 223 L232 415 C247 485 314 546 389 559 C404 561 422 562 444 562 C453 562 462 562 480 562 C498 561 508 561 517 561 C542 561 567 580 572 602 C576 622 561 639 538 639 L438 639 C303 639 170 536 144 411 L103 219 C76 95 163 -5 297 -5 C432 -5 565 98 591 223 L622 368 C627 389 612 405 588 405 L388 405 C364 405 338 386 334 364 C329 344 344 328 367 327 L526 327 Z M489 726 L520 686 C526 679 536 676 549 676 C574 676 599 692 603 712 C604 719 602 727 597 733 L540 805 C535 812 525 815 512 815 C498 815 484 811 474 803 L388 731 C379 724 373 716 371 708 C368 690 383 676 406 676 C420 676 434 680 444 688 L489 726 Z " />
<glyph glyph-name="gcircumflex" unicode="&#x11d;" horiz-adv-x="507" d="M179 198 L189 245 C205 320 269 374 343 373 L357 373 C363 373 367 372 371 372 L450 372 C474 372 499 389 503 408 C507 426 492 440 469 440 L352 440 C237 440 124 351 101 242 L91 195 C66 73 153 0 266 0 C304 0 326 12 331 35 C336 57 322 67 287 67 L284 67 C206 67 163 121 179 198 L179 198 Z M157 -156 C153 -174 168 -188 191 -188 C292 -188 394 -107 415 -9 L504 408 C508 426 492 440 469 440 C445 440 420 424 416 405 L330 -1 C315 -72 269 -117 208 -121 C183 -122 161 -138 157 -156 L157 -156 Z M379 526 L410 486 C415 479 426 476 439 476 C463 476 488 492 493 512 C494 519 492 527 486 533 L430 605 C425 612 414 615 401 615 C388 615 374 611 364 603 L278 531 C269 524 263 516 261 508 C257 490 273 476 296 476 C310 476 324 480 333 488 L379 526 Z " />
<glyph glyph-name="Gbreve" unicode="&#x11e;" horiz-adv-x="599" d="M526 327 L503 219 C486 139 403 73 318 73 C231 73 174 141 191 223 L232 415 C247 485 314 546 389 559 C404 561 422 562 444 562 C453 562 462 562 480 562 C498 561 508 561 517 561 C542 561 567 580 572 602 C576 622 561 639 538 639 L438 639 C303 639 170 536 144 411 L103 219 C76 95 163 -5 297 -5 C432 -5 565 98 591 223 L622 368 C627 389 612 405 588 405 L388 405 C364 405 338 386 334 364 C329 344 344 328 367 327 L526 327 Z M497 744 C481 745 474 760 476 786 C477 804 463 815 440 815 C416 815 391 799 387 780 C374 722 415 676 478 676 C542 676 605 724 618 783 C622 801 606 815 583 815 C559 815 536 801 530 782 C522 758 510 744 497 744 L497 744 Z " />
<glyph glyph-name="gbreve" unicode="&#x11f;" horiz-adv-x="507" d="M179 198 L189 245 C205 320 269 374 343 373 L357 373 C363 373 367 372 371 372 L450 372 C474 372 499 389 503 408 C507 426 492 440 469 440 L352 440 C237 440 124 351 101 242 L91 195 C66 73 153 0 266 0 C304 0 326 12 331 35 C336 57 322 67 287 67 L284 67 C206 67 163 121 179 198 L179 198 Z M157 -156 C153 -174 168 -188 191 -188 C292 -188 394 -107 415 -9 L504 408 C508 426 492 440 469 440 C445 440 420 424 416 405 L330 -1 C315 -72 269 -117 208 -121 C183 -122 161 -138 157 -156 L157 -156 Z M386 544 C371 545 364 560 365 586 C367 604 353 615 330 615 C306 615 280 599 276 580 C264 522 305 476 367 476 C432 476 495 524 508 583 C512 601 496 615 473 615 C449 615 426 601 420 582 C412 558 400 544 386 544 L386 544 Z " />
<glyph glyph-name="Gdotaccent" unicode="&#x120;" horiz-adv-x="599" d="M526 327 L503 219 C486 139 403 73 318 73 C231 73 174 141 191 223 L232 415 C247 485 314 546 389 559 C404 561 422 562 444 562 C453 562 462 562 480 562 C498 561 508 561 517 561 C542 561 567 580 572 602 C576 622 561 639 538 639 L438 639 C303 639 170 536 144 411 L103 219 C76 95 163 -5 297 -5 C432 -5 565 98 591 223 L622 368 C627 389 612 405 588 405 L388 405 C364 405 338 386 334 364 C329 344 344 328 367 327 L526 327 Z M458 778 L443 707 C439 689 454 674 478 674 C502 674 528 691 532 710 L547 782 C551 800 535 814 512 814 C487 814 462 797 458 778 L458 778 Z " />
<glyph glyph-name="gdotaccent" unicode="&#x121;" horiz-adv-x="507" d="M179 198 L189 245 C205 320 269 374 343 373 L357 373 C363 373 367 372 371 372 L450 372 C474 372 499 389 503 408 C507 426 492 440 469 440 L352 440 C237 440 124 351 101 242 L91 195 C66 73 153 0 266 0 C304 0 326 12 331 35 C336 57 322 67 287 67 L284 67 C206 67 163 121 179 198 L179 198 Z M157 -156 C153 -174 168 -188 191 -188 C292 -188 394 -107 415 -9 L504 408 C508 426 492 440 469 440 C445 440 420 424 416 405 L330 -1 C315 -72 269 -117 208 -121 C183 -122 161 -138 157 -156 L157 -156 Z M356 603 L341 532 C337 514 353 499 376 499 C401 499 426 516 430 535 L445 607 C449 625 434 639 410 639 C386 639 360 622 356 603 L356 603 Z " />
<glyph glyph-name="uni0122" unicode="&#x122;" horiz-adv-x="599" d="M526 327 L503 219 C486 139 403 73 318 73 C231 73 174 141 191 223 L232 415 C247 485 314 546 389 559 C404 561 422 562 444 562 C453 562 462 562 480 562 C498 561 508 561 517 561 C542 561 567 580 572 602 C576 622 561 639 538 639 L438 639 C303 639 170 536 144 411 L103 219 C76 95 163 -5 297 -5 C432 -5 565 98 591 223 L622 368 C627 389 612 405 588 405 L388 405 C364 405 338 386 334 364 C329 344 344 328 367 327 L526 327 Z M389 31 C393 49 378 63 354 63 L307 63 C282 63 257 46 253 27 C248 6 262 -5 293 -6 C284 -40 272 -68 251 -104 C248 -109 247 -112 246 -115 C242 -134 258 -148 281 -148 C317 -148 327 -129 339 -107 C364 -64 376 -28 389 31 L389 31 Z " />
<glyph glyph-name="uni0123" unicode="&#x123;" horiz-adv-x="499" d="M196 198 L206 245 C222 320 286 374 360 373 L373 373 C380 373 384 372 387 372 L467 372 C491 372 516 389 520 408 C524 426 509 440 485 440 L369 440 C254 440 141 351 118 242 L108 195 C83 73 170 0 283 0 C321 0 343 12 348 35 C352 57 339 67 304 67 L301 67 C222 67 179 121 196 198 L196 198 Z M174 -156 C170 -174 185 -188 208 -188 C309 -188 411 -107 432 -9 L520 408 C524 426 509 440 486 440 C462 440 437 424 433 405 L347 -1 C332 -72 286 -117 224 -121 C200 -122 177 -138 174 -156 L174 -156 Z M583 661 C587 679 572 693 548 693 L501 693 C476 693 451 676 447 657 C443 636 456 625 487 624 C478 590 466 562 445 526 C443 521 441 518 441 515 C437 496 452 482 475 482 C512 482 522 501 534 523 C558 566 571 602 583 661 L583 661 Z " />
<glyph glyph-name="Hcircumflex" unicode="&#x124;" horiz-adv-x="649" d="M178 40 L239 327 L551 327 L489 37 C485 16 499 0 523 0 C547 0 573 19 578 40 L697 602 C701 623 687 639 663 639 C639 639 613 620 608 598 L567 405 L255 405 L297 602 C301 623 287 639 263 639 C239 639 213 620 208 598 L89 37 C85 16 99 0 123 0 C147 0 173 19 178 40 L178 40 Z M514 726 L545 686 C551 679 561 676 574 676 C599 676 624 692 628 712 C629 719 627 727 622 733 L565 805 C560 812 550 815 537 815 C523 815 509 811 499 803 L413 731 C404 724 398 716 396 708 C393 690 408 676 431 676 C445 676 459 680 469 688 L514 726 Z " />
<glyph glyph-name="hcircumflex" unicode="&#x125;" horiz-adv-x="524" d="M466 40 L514 267 C534 363 465 440 359 440 L251 440 L282 585 C286 606 271 622 247 622 C223 622 197 603 192 582 L76 37 C72 16 87 0 111 0 C135 0 161 19 166 40 L235 363 C241 364 249 364 257 364 C281 364 304 364 327 364 C411 364 436 318 419 237 L376 37 C372 16 387 0 411 0 C435 0 461 19 466 40 L466 40 Z M405 726 L436 686 C442 679 452 676 465 676 C490 676 515 692 519 712 C520 719 518 727 513 733 L456 805 C451 812 441 815 428 815 C414 815 400 811 390 803 L304 731 C295 724 289 716 287 708 C284 690 299 676 322 676 C336 676 350 680 359 688 L405 726 Z " />
<glyph glyph-name="Hbar" unicode="&#x126;" horiz-adv-x="649" d="M178 40 L239 327 L551 327 L489 37 C485 16 499 0 523 0 C547 0 573 19 578 40 L697 602 C701 623 687 639 663 639 C639 639 613 620 608 598 L567 405 L255 405 L297 602 C301 623 287 639 263 639 C239 639 213 620 208 598 L89 37 C85 16 99 0 123 0 C147 0 173 19 178 40 L178 40 Z M420 723 L562 723 C587 723 612 740 616 759 C620 777 605 792 581 792 L438 792 C414 792 389 775 385 756 C381 737 396 723 420 723 L420 723 Z " />
<glyph glyph-name="hbar" unicode="&#x127;" horiz-adv-x="524" d="M466 40 L515 267 C535 363 466 440 359 440 L251 440 L282 585 C287 606 271 622 248 622 C223 622 197 603 193 582 L77 37 C72 16 87 0 111 0 C136 0 162 19 166 40 L235 363 C242 364 249 364 258 364 C281 364 304 364 327 364 C411 364 437 318 419 237 L377 37 C372 16 387 0 411 0 C436 0 462 19 466 40 L466 40 Z M168 523 L311 523 C335 523 361 540 365 559 C369 577 353 592 330 592 L187 592 C163 592 137 575 133 556 C129 537 145 523 168 523 L168 523 Z " />
<glyph glyph-name="Itilde" unicode="&#x128;" horiz-adv-x="249" d="M178 40 L297 602 C301 623 287 639 263 639 C239 639 213 620 208 598 L89 37 C85 16 99 0 123 0 C147 0 173 19 178 40 L178 40 Z M218 733 C214 715 229 701 253 701 C281 701 305 717 311 748 C312 748 317 742 323 735 C344 710 364 700 395 700 C447 700 496 737 506 783 C510 801 495 816 471 816 C442 816 420 800 413 770 C413 769 413 769 414 769 C411 769 405 776 399 783 C386 799 371 817 329 817 C277 817 227 779 218 733 L218 733 Z " />
<glyph glyph-name="itilde" unicode="&#x129;" horiz-adv-x="249" d="M168 405 L88 32 C85 14 100 0 123 0 C147 0 172 16 176 35 L256 408 C259 426 244 440 221 440 C197 440 172 424 168 405 L168 405 Z M142 533 C138 515 153 501 177 501 C206 501 229 517 235 548 C237 548 242 542 248 535 C268 510 288 500 319 500 C372 500 420 537 430 583 C434 601 419 616 396 616 C366 616 344 600 338 570 C338 569 338 569 338 569 C335 569 329 576 323 583 C310 599 295 617 254 617 C202 617 152 579 142 533 L142 533 Z " />
<glyph glyph-name="Imacron" unicode="&#x12a;" horiz-adv-x="249" d="M178 40 L297 602 C301 623 287 639 263 639 C239 639 213 620 208 598 L89 37 C85 16 99 0 123 0 C147 0 173 19 178 40 L178 40 Z M233 698 L376 698 C400 698 425 715 429 734 C433 752 418 767 395 767 L252 767 C227 767 202 750 198 731 C194 712 210 698 233 698 L233 698 Z " />
<glyph glyph-name="imacron" unicode="&#x12b;" horiz-adv-x="249" d="M168 405 L88 32 C85 14 100 0 123 0 C147 0 172 16 176 35 L256 408 C259 426 244 440 221 440 C197 440 172 424 168 405 L168 405 Z M165 523 L308 523 C332 523 358 540 362 559 C366 577 350 592 327 592 L184 592 C160 592 134 575 130 556 C126 537 142 523 165 523 L165 523 Z " />
<glyph glyph-name="Ibreve" unicode="&#x12c;" horiz-adv-x="249" d="M178 40 L297 602 C301 623 287 639 263 639 C239 639 213 620 208 598 L89 37 C85 16 99 0 123 0 C147 0 173 19 178 40 L178 40 Z M322 744 C306 745 299 760 301 786 C302 804 288 815 265 815 C241 815 216 799 212 780 C199 722 240 676 303 676 C367 676 430 724 443 783 C447 801 431 815 408 815 C384 815 361 801 355 782 C347 758 335 744 322 744 L322 744 Z " />
<glyph glyph-name="ibreve" unicode="&#x12d;" horiz-adv-x="249" d="M168 405 L88 32 C85 14 100 0 123 0 C147 0 172 16 176 35 L256 408 C259 426 244 440 221 440 C197 440 172 424 168 405 L168 405 Z M245 544 C230 545 223 560 224 586 C226 604 212 615 189 615 C165 615 139 599 135 580 C123 522 164 476 226 476 C291 476 354 524 367 583 C371 601 355 615 332 615 C308 615 285 601 279 582 C271 558 259 544 245 544 L245 544 Z " />
<glyph glyph-name="Iogonek" unicode="&#x12e;" horiz-adv-x="249" d="M178 40 L297 602 C301 623 287 639 263 639 C239 639 213 620 208 598 L89 37 C85 16 99 0 123 0 C147 0 173 19 178 40 L178 40 Z M155 68 L131 68 C67 68 3 19 -9 -40 C-21 -97 19 -143 82 -143 C124 -143 186 -111 191 -86 C195 -68 179 -53 156 -53 C142 -53 133 -56 118 -66 C112 -70 106 -74 101 -74 C85 -74 75 -57 80 -36 C84 -13 99 0 119 0 C122 0 124 0 127 0 C131 0 134 0 136 0 C161 0 186 17 190 36 C194 54 179 68 155 68 L155 68 Z " />
<glyph glyph-name="iogonek" unicode="&#x12f;" horiz-adv-x="249" d="M178 40 L255 403 C259 424 244 440 221 440 C196 440 170 421 166 400 L88 37 C84 16 99 0 123 0 C147 0 173 18 178 40 L178 40 Z M284 540 L294 585 C298 606 283 622 259 622 C235 622 209 603 204 582 L195 537 C190 516 205 500 229 500 C254 500 280 519 284 540 L284 540 Z M155 68 L131 68 C67 68 3 19 -9 -40 C-21 -97 19 -143 82 -143 C124 -143 185 -111 191 -86 C194 -68 179 -53 156 -53 C142 -53 132 -56 118 -66 C112 -70 106 -74 101 -74 C85 -74 75 -57 79 -36 C84 -13 98 0 119 0 C122 0 124 0 127 0 C131 0 134 0 136 0 C161 0 186 17 190 36 C194 54 178 68 155 68 L155 68 Z " />
<glyph glyph-name="Idotaccent" unicode="&#x130;" horiz-adv-x="249" d="M178 40 L297 602 C301 623 287 639 263 639 C239 639 213 620 208 598 L89 37 C85 16 99 0 123 0 C147 0 173 19 178 40 L178 40 Z M283 778 L268 707 C264 689 279 674 303 674 C327 674 353 691 357 710 L372 782 C376 800 360 814 337 814 C312 814 287 797 283 778 L283 778 Z " />
<glyph glyph-name="dotlessi" unicode="&#x131;" horiz-adv-x="249" d="M168 405 L88 32 C85 14 100 0 123 0 C147 0 172 16 176 35 L256 408 C259 426 244 440 221 440 C197 440 172 424 168 405 L168 405 Z " />
<glyph glyph-name="IJ" unicode="&#x132;" horiz-adv-x="649" d="M219 603 L148 270 C144 252 160 238 183 238 C207 238 233 254 237 273 L308 607 C311 625 296 639 273 639 C248 639 223 622 219 603 L219 603 Z M341 67 C305 67 280 79 246 113 C239 120 231 123 218 123 C194 123 169 106 165 87 C162 77 167 68 180 55 L182 53 C218 17 265 -1 322 -1 C452 -1 580 100 607 225 L688 607 C692 625 676 639 653 639 C628 639 603 622 599 603 L550 370 C546 353 542 336 535 302 C531 279 526 256 521 233 C501 138 425 67 341 67 L341 67 Z " />
<glyph glyph-name="ij" unicode="&#x133;" horiz-adv-x="549" d="M178 405 L118 125 C115 107 130 93 153 93 C177 93 202 110 206 128 L266 408 C270 426 254 440 231 440 C207 440 182 424 178 405 L178 405 Z M252 -119 C232 -119 216 -112 196 -94 C182 -81 174 -78 162 -78 C137 -78 112 -94 108 -113 C105 -127 115 -136 122 -144 C151 -172 188 -187 233 -187 C335 -187 436 -108 456 -11 L545 408 C549 426 534 440 511 440 C486 440 461 424 457 405 L397 120 C394 105 390 89 384 59 C380 38 375 17 371 -3 C357 -71 307 -119 252 -119 L252 -119 Z M217 591 L203 521 C199 503 214 489 237 489 C262 489 286 506 290 524 L305 594 C309 612 294 627 271 627 C246 627 221 610 217 591 L217 591 Z M497 591 L482 521 C478 503 493 489 517 489 C541 489 566 506 570 524 L585 594 C589 612 573 627 550 627 C526 627 501 610 497 591 L497 591 Z " />
<glyph glyph-name="Jcircumflex" unicode="&#x134;" horiz-adv-x="400" d="M185 -5 C279 -5 371 66 389 153 L485 602 C489 623 475 639 451 639 C427 639 401 620 396 598 L331 293 C328 276 324 260 318 227 C313 205 308 183 304 161 C292 107 254 73 206 73 C180 73 163 82 145 105 C138 115 128 119 115 119 C91 119 65 100 60 79 C57 63 64 54 70 47 C97 13 137 -5 185 -5 L185 -5 Z M501 726 L532 686 C538 679 548 676 561 676 C586 676 611 692 615 712 C616 719 614 727 609 733 L552 805 C547 812 537 815 524 815 C510 815 496 811 486 803 L400 731 C391 724 385 716 383 708 C380 690 395 676 418 676 C432 676 446 680 456 688 L501 726 Z " />
<glyph glyph-name="jcircumflex" unicode="&#x135;" horiz-adv-x="274" d="M-8 -154 C-12 -172 3 -187 26 -187 C128 -187 229 -108 249 -11 L338 408 C342 426 327 440 304 440 C279 440 254 424 250 405 L190 120 C187 105 183 89 177 59 C173 38 168 17 164 -3 C149 -73 105 -115 43 -119 C18 -121 -4 -136 -8 -154 L-8 -154 Z M323 526 L354 486 C359 479 370 476 383 476 C407 476 432 492 436 512 C438 519 436 527 430 533 L374 605 C369 612 358 615 345 615 C332 615 318 611 308 603 L222 531 C213 524 207 516 205 508 C201 490 217 476 240 476 C254 476 268 480 277 488 L323 526 Z " />
<glyph glyph-name="uni0136" unicode="&#x136;" horiz-adv-x="624" d="M165 40 L225 324 L326 381 L477 19 C482 7 495 0 510 0 C534 0 560 19 565 40 C566 47 566 53 563 58 L409 428 L659 570 C672 577 681 589 684 602 C688 623 674 639 650 639 C641 639 630 636 620 630 L245 418 L284 602 C288 623 274 639 250 639 C226 639 200 620 195 598 L76 37 C72 16 86 0 110 0 C134 0 160 19 165 40 L165 40 Z M377 36 C381 54 366 68 342 68 L295 68 C270 68 245 51 241 32 C236 11 250 0 281 -1 C272 -35 260 -63 239 -99 C236 -104 235 -107 234 -110 C230 -129 246 -143 269 -143 C305 -143 315 -124 327 -102 C352 -59 364 -23 377 36 L377 36 Z " />
<glyph glyph-name="uni0137" unicode="&#x137;" horiz-adv-x="493" d="M166 40 L209 243 L291 277 C305 231 330 155 366 52 C371 36 375 25 377 20 C381 8 394 0 411 0 C435 0 461 18 466 40 C468 48 437 144 378 313 L511 368 C528 375 540 389 543 403 C547 424 532 440 509 440 C501 440 493 438 485 435 L227 328 L282 585 C286 606 271 622 247 622 C223 622 197 603 192 582 L76 36 C72 16 87 0 111 0 C135 0 161 18 166 40 L166 40 Z M328 36 C332 54 316 68 293 68 L245 68 C221 68 196 51 192 32 C187 11 200 0 232 -1 C223 -35 211 -63 190 -99 C187 -104 186 -107 185 -110 C181 -129 197 -143 220 -143 C256 -143 266 -124 278 -102 C302 -59 315 -23 328 36 L328 36 Z " />
<glyph glyph-name="kgreenlandic" unicode="&#x138;" horiz-adv-x="524" d="M174 35 L220 249 L275 274 L368 17 C371 6 384 0 401 0 C425 0 450 16 454 35 C455 40 454 45 452 51 L358 312 L503 377 C519 384 531 396 533 408 C537 426 522 440 498 440 C490 440 482 439 476 436 L236 328 L254 408 C257 426 242 440 219 440 C195 440 170 424 166 405 L86 32 C83 14 98 0 121 0 C145 0 170 16 174 35 L174 35 Z " />
<glyph glyph-name="Lacute" unicode="&#x139;" horiz-adv-x="474" d="M148 78 L259 602 C263 623 249 639 225 639 C201 639 175 620 170 598 L51 37 C47 16 61 0 85 0 L385 0 C409 0 435 19 440 40 C444 61 429 78 406 78 L148 78 Z M380 707 C376 689 391 674 415 674 C429 674 442 679 452 687 L539 758 C547 766 554 774 555 782 C559 800 544 814 520 814 C506 814 493 810 483 802 L396 730 C388 723 382 714 380 707 L380 707 Z " />
<glyph glyph-name="lacute" unicode="&#x13a;" horiz-adv-x="179" d="M169 582 L53 37 C49 16 64 0 88 0 C112 0 138 19 143 40 L259 585 C263 606 248 622 224 622 C200 622 174 603 169 582 L169 582 Z M211 707 C208 689 223 674 246 674 C260 674 274 679 284 687 L370 758 C379 766 385 774 387 782 C391 800 375 814 352 814 C338 814 324 810 315 802 L228 730 C219 723 213 714 211 707 L211 707 Z " />
<glyph glyph-name="uni013B" unicode="&#x13b;" horiz-adv-x="474" d="M148 78 L259 602 C263 623 249 639 225 639 C201 639 175 620 170 598 L51 37 C47 16 61 0 85 0 L385 0 C409 0 435 19 440 40 C444 61 429 78 406 78 L148 78 Z M327 36 C331 54 316 68 292 68 L245 68 C220 68 195 51 191 32 C186 11 200 0 231 -1 C222 -35 210 -63 189 -99 C186 -104 185 -107 184 -110 C180 -129 196 -143 219 -143 C255 -143 265 -124 277 -102 C302 -59 314 -23 327 36 L327 36 Z " />
<glyph glyph-name="uni013C" unicode="&#x13c;" horiz-adv-x="179" d="M169 582 L53 37 C49 16 64 0 88 0 C112 0 138 19 143 40 L259 585 C263 606 248 622 224 622 C200 622 174 603 169 582 L169 582 Z M180 36 C184 54 168 68 145 68 L97 68 C73 68 48 51 44 32 C39 11 52 0 84 -1 C75 -35 63 -63 42 -99 C39 -104 38 -107 37 -110 C33 -129 49 -143 72 -143 C108 -143 118 -124 130 -102 C154 -59 167 -23 180 36 L180 36 Z " />
<glyph glyph-name="Lcaron" unicode="&#x13d;" horiz-adv-x="449" d="M136 78 L247 602 C252 623 237 639 213 639 C189 639 163 620 159 598 L39 37 C35 16 50 0 73 0 L373 0 C398 0 423 19 428 40 C432 61 417 78 394 78 L136 78 Z " />
<glyph glyph-name="lcaron" unicode="&#x13e;" horiz-adv-x="249" d="M205 582 L89 37 C84 16 99 0 123 0 C148 0 174 19 178 40 L294 585 C299 606 283 622 260 622 C235 622 209 603 205 582 L205 582 Z M308 676 C322 676 335 680 345 688 L431 760 C440 767 446 775 448 783 C452 801 437 815 413 815 C399 815 386 811 376 803 L330 765 L299 805 C294 812 283 815 270 815 C246 815 221 799 217 780 C215 772 217 764 223 758 L279 686 C284 679 295 676 308 676 L308 676 Z " />
<glyph glyph-name="Ldot" unicode="&#x13f;" horiz-adv-x="449" d="M136 78 L247 602 C252 623 237 639 213 639 C189 639 163 620 159 598 L39 37 C35 16 50 0 73 0 L373 0 C398 0 423 19 428 40 C432 61 417 78 394 78 L136 78 Z M315 603 L300 532 C296 514 312 499 335 499 C360 499 385 516 389 535 L404 607 C408 625 392 639 369 639 C345 639 319 622 315 603 L315 603 Z " />
<glyph glyph-name="ldot" unicode="&#x140;" horiz-adv-x="349" d="M203 582 L87 37 C82 16 97 0 121 0 C146 0 172 19 176 40 L292 585 C297 606 281 622 258 622 C233 622 207 603 203 582 L203 582 Z M312 418 L296 343 C294 333 302 325 315 325 C329 325 344 335 346 347 L362 422 C365 432 356 440 344 440 C329 440 314 430 312 418 L312 418 Z " />
<glyph glyph-name="Lslash" unicode="&#x141;" horiz-adv-x="524" d="M348 369 C352 387 336 401 313 401 C302 401 292 399 283 394 L121 299 C108 291 98 280 96 270 C92 252 108 238 131 238 C142 238 152 240 160 245 L323 340 C336 348 346 359 348 369 L348 369 Z M203 78 L314 602 C319 623 304 639 280 639 C256 639 230 620 226 598 L106 37 C102 16 117 0 140 0 L440 0 C465 0 490 19 495 40 C499 61 484 78 461 78 L203 78 Z " />
<glyph glyph-name="lslash" unicode="&#x142;" horiz-adv-x="399" d="M390 363 C394 381 379 395 356 395 C345 395 335 393 327 388 L167 293 C154 285 145 275 143 265 C139 247 154 233 177 233 C188 233 198 235 206 240 L366 335 C379 343 388 354 390 363 L390 363 Z M281 582 L165 37 C160 16 175 0 199 0 C224 0 250 19 254 40 L370 585 C375 606 359 622 336 622 C311 622 285 603 281 582 L281 582 Z " />
<glyph glyph-name="Nacute" unicode="&#x143;" horiz-adv-x="649" d="M263 639 C239 639 213 620 208 598 L89 37 C85 16 99 0 123 0 C147 0 173 19 178 40 L277 510 L535 254 L489 37 C485 16 499 0 523 0 C547 0 573 19 578 40 L697 602 C701 623 687 639 663 639 C639 639 613 620 608 598 L558 363 L290 628 C284 635 274 639 263 639 L263 639 Z M468 707 C464 689 479 674 503 674 C517 674 530 679 540 687 L627 758 C635 766 642 774 643 782 C647 800 632 814 608 814 C594 814 581 810 571 802 L484 730 C476 723 470 714 468 707 L468 707 Z " />
<glyph glyph-name="nacute" unicode="&#x144;" horiz-adv-x="524" d="M466 40 L514 267 C535 363 466 440 359 440 L209 440 C184 440 158 421 154 400 L77 37 C72 16 87 0 111 0 C136 0 161 18 166 40 L235 363 L338 363 C414 363 436 308 422 241 C419 230 417 220 414 209 C410 193 408 185 406 177 L377 37 C372 16 387 0 411 0 C436 0 462 19 466 40 L466 40 Z M353 557 C349 539 364 524 388 524 C402 524 415 529 425 537 L512 608 C520 616 527 624 528 632 C532 650 517 664 493 664 C479 664 466 660 456 652 L369 580 C361 573 355 564 353 557 L353 557 Z " />
<glyph glyph-name="uni0145" unicode="&#x145;" horiz-adv-x="649" d="M263 639 C239 639 213 620 208 598 L89 37 C85 16 99 0 123 0 C147 0 173 19 178 40 L277 510 L535 254 L489 37 C485 16 499 0 523 0 C547 0 573 19 578 40 L697 602 C701 623 687 639 663 639 C639 639 613 620 608 598 L558 363 L290 628 C284 635 274 639 263 639 L263 639 Z M415 36 C419 54 404 68 380 68 L333 68 C308 68 283 51 279 32 C274 11 288 0 319 -1 C310 -35 298 -63 277 -99 C274 -104 273 -107 272 -110 C268 -129 284 -143 307 -143 C343 -143 353 -124 365 -102 C390 -59 402 -23 415 36 L415 36 Z " />
<glyph glyph-name="uni0146" unicode="&#x146;" horiz-adv-x="524" d="M466 40 L514 267 C535 363 466 440 359 440 L209 440 C184 440 158 421 154 400 L77 37 C72 16 87 0 111 0 C136 0 161 18 166 40 L235 363 L338 363 C414 363 436 308 422 241 C419 230 417 220 414 209 C410 193 408 185 406 177 L377 37 C372 16 387 0 411 0 C436 0 462 19 466 40 L466 40 Z M378 36 C382 54 367 68 343 68 L296 68 C271 68 246 51 242 32 C237 11 251 0 282 -1 C273 -35 261 -63 240 -99 C238 -104 236 -107 235 -110 C232 -129 247 -143 270 -143 C307 -143 316 -124 329 -102 C353 -59 366 -23 378 36 L378 36 Z " />
<glyph glyph-name="Ncaron" unicode="&#x147;" horiz-adv-x="649" d="M263 639 C239 639 213 620 208 598 L89 37 C85 16 99 0 123 0 C147 0 173 19 178 40 L277 510 L535 254 L489 37 C485 16 499 0 523 0 C547 0 573 19 578 40 L697 602 C701 623 687 639 663 639 C639 639 613 620 608 598 L558 363 L290 628 C284 635 274 639 263 639 L263 639 Z M503 676 C517 676 530 680 540 688 L626 760 C635 767 641 775 643 783 C647 801 631 815 608 815 C594 815 581 811 571 803 L525 765 L494 805 C489 812 478 815 465 815 C441 815 416 799 412 780 C410 772 412 764 418 758 L474 686 C479 679 490 676 503 676 L503 676 Z " />
<glyph glyph-name="ncaron" unicode="&#x148;" horiz-adv-x="524" d="M466 40 L514 267 C535 363 466 440 359 440 L209 440 C184 440 158 421 154 400 L77 37 C72 16 87 0 111 0 C136 0 161 18 166 40 L235 363 L338 363 C414 363 436 308 422 241 C419 230 417 220 414 209 C410 193 408 185 406 177 L377 37 C372 16 387 0 411 0 C436 0 462 19 466 40 L466 40 Z M387 526 C401 526 415 530 424 538 L511 610 C520 617 526 625 527 633 C531 651 516 665 492 665 C479 665 465 661 455 653 L410 615 L379 655 C373 662 363 665 350 665 C325 665 300 649 296 630 C294 622 297 614 302 608 L358 536 C364 529 374 526 387 526 L387 526 Z " />
<glyph glyph-name="napostrophe" unicode="&#x149;" horiz-adv-x="524" d="M466 40 L514 267 C535 363 466 440 359 440 L209 440 C184 440 158 421 154 400 L76 37 C72 16 87 0 111 0 C136 0 161 18 166 40 L235 363 L338 363 C414 363 436 308 421 241 C419 230 417 220 414 209 C410 193 408 185 406 177 L376 37 C372 16 387 0 411 0 C436 0 461 19 466 40 L466 40 Z M319 636 C323 654 307 668 284 668 L236 668 C212 668 187 651 183 632 C178 611 191 600 223 599 C214 565 202 537 181 501 C178 496 177 493 176 490 C172 471 188 457 211 457 C247 457 257 476 269 498 C293 541 306 577 319 636 L319 636 Z " />
<glyph glyph-name="Eng" unicode="&#x14a;" horiz-adv-x="599" d="M541 -14 L552 36 C556 54 540 68 517 68 C485 68 467 53 460 21 C460 17 459 13 458 6 C457 2 457 -1 456 -4 C441 -75 396 -117 331 -122 C306 -124 284 -139 280 -158 C276 -176 291 -191 315 -191 C418 -191 521 -111 541 -14 L541 -14 Z M237 639 C213 639 187 620 183 598 L63 37 C59 16 74 0 97 0 C122 0 147 19 152 40 L252 510 L509 254 L463 37 C459 16 474 0 497 0 C522 0 547 19 552 40 L671 602 C676 623 661 639 637 639 C613 639 587 620 583 598 L532 363 L265 628 C258 635 248 639 237 639 L237 639 Z " />
<glyph glyph-name="eng" unicode="&#x14b;" horiz-adv-x="499" d="M430 -13 L490 268 C510 363 446 440 345 440 L206 440 C182 440 157 423 152 405 L73 32 C69 14 84 0 108 0 C131 0 156 17 161 35 L233 372 C241 372 251 372 267 372 C283 373 300 373 317 373 C380 373 415 328 402 265 L342 -16 C330 -75 285 -114 224 -119 C199 -121 177 -136 173 -154 C169 -172 185 -186 208 -186 C309 -186 410 -108 430 -13 L430 -13 Z " />
<glyph glyph-name="Omacron" unicode="&#x14c;" horiz-adv-x="599" d="M591 223 L634 424 C660 548 574 648 440 648 C305 648 172 546 146 421 L103 219 C77 96 163 -5 297 -5 C432 -5 565 98 591 223 L591 223 Z M318 73 C231 73 174 141 191 223 L234 424 C251 504 335 570 419 570 C506 570 563 502 546 421 L503 219 C486 139 402 73 318 73 L318 73 Z M408 698 L551 698 C575 698 600 715 604 734 C608 752 593 767 570 767 L427 767 C402 767 377 750 373 731 C369 712 385 698 408 698 L408 698 Z " />
<glyph glyph-name="omacron" unicode="&#x14d;" horiz-adv-x="454" d="M70 168 C51 73 121 -5 225 -5 C333 -5 439 75 459 172 L481 276 C502 372 433 449 326 449 C218 449 113 370 92 273 L70 168 Z M181 276 C193 329 248 373 305 373 C364 373 403 327 392 273 L370 168 C358 115 303 72 246 72 C188 72 149 117 159 172 L181 276 Z M291 573 L434 573 C458 573 483 590 487 609 C491 627 476 642 452 642 L310 642 C285 642 260 625 256 606 C252 587 267 573 291 573 L291 573 Z " />
<glyph glyph-name="Obreve" unicode="&#x14e;" horiz-adv-x="599" d="M591 223 L634 424 C660 548 574 648 440 648 C305 648 172 546 146 421 L103 219 C77 96 163 -5 297 -5 C432 -5 565 98 591 223 L591 223 Z M318 73 C231 73 174 141 191 223 L234 424 C251 504 335 570 419 570 C506 570 563 502 546 421 L503 219 C486 139 402 73 318 73 L318 73 Z M497 744 C481 745 474 760 476 786 C477 804 463 815 440 815 C416 815 391 799 387 780 C374 722 415 676 478 676 C542 676 605 724 618 783 C622 801 606 815 583 815 C559 815 536 801 530 782 C522 758 510 744 497 744 L497 744 Z " />
<glyph glyph-name="obreve" unicode="&#x14f;" horiz-adv-x="454" d="M70 168 C51 73 121 -5 225 -5 C333 -5 439 75 459 172 L481 276 C502 372 433 449 326 449 C218 449 113 370 92 273 L70 168 Z M181 276 C193 329 248 373 305 373 C364 373 403 327 392 273 L370 168 C358 115 303 72 246 72 C188 72 149 117 159 172 L181 276 Z M371 594 C356 595 348 610 350 636 C351 654 338 665 315 665 C290 665 265 649 261 630 C249 572 289 526 352 526 C416 526 480 574 492 633 C496 651 481 665 458 665 C433 665 411 651 405 632 C396 608 384 594 371 594 L371 594 Z " />
<glyph glyph-name="Ohungarumlaut" unicode="&#x150;" horiz-adv-x="599" d="M591 223 L634 424 C660 548 574 648 440 648 C305 648 172 546 146 421 L103 219 C77 96 163 -5 297 -5 C432 -5 565 98 591 223 L591 223 Z M318 73 C231 73 174 141 191 223 L234 424 C251 504 335 570 419 570 C506 570 563 502 546 421 L503 219 C486 139 402 73 318 73 L318 73 Z M368 707 C364 689 379 674 403 674 C417 674 430 679 440 687 L527 758 C536 766 542 774 543 782 C547 800 532 814 508 814 C494 814 481 810 471 802 L385 730 C376 723 370 714 368 707 L368 707 Z M518 707 C514 689 529 674 553 674 C567 674 580 679 590 687 L677 758 C686 766 692 774 693 782 C697 800 682 814 658 814 C644 814 631 810 621 802 L535 730 C526 723 520 714 518 707 L518 707 Z " />
<glyph glyph-name="ohungarumlaut" unicode="&#x151;" horiz-adv-x="454" d="M70 168 C51 73 121 -5 225 -5 C333 -5 439 75 459 172 L481 276 C502 372 433 449 326 449 C218 449 113 370 92 273 L70 168 Z M181 276 C193 329 248 373 305 373 C364 373 403 327 392 273 L370 168 C358 115 303 72 246 72 C188 72 149 117 159 172 L181 276 Z M251 582 C247 564 262 549 286 549 C300 549 313 554 323 562 L410 633 C418 641 425 649 426 657 C430 675 415 689 391 689 C377 689 364 685 354 677 L267 605 C259 598 253 589 251 582 L251 582 Z M401 582 C397 564 412 549 436 549 C450 549 463 554 473 562 L560 633 C568 641 575 649 576 657 C580 675 565 689 541 689 C527 689 514 685 504 677 L417 605 C409 598 403 589 401 582 L401 582 Z " />
<glyph glyph-name="OE" unicode="&#x152;" horiz-adv-x="948" d="M591 223 L633 424 C660 548 573 648 439 648 C304 648 171 546 145 421 L102 219 C76 96 163 -5 296 -5 C431 -5 564 98 591 223 L591 223 Z M317 73 C231 73 173 141 191 223 L233 424 C250 504 334 570 418 570 C505 570 562 502 545 421 L502 219 C485 139 402 73 317 73 L317 73 Z M987 639 L637 639 C613 639 587 620 583 598 L473 84 C463 37 496 0 547 0 L847 0 C871 0 897 19 902 40 C906 61 892 77 868 77 L568 77 C563 79 561 83 562 88 L613 327 L742 327 C766 327 792 346 796 368 C801 389 786 405 763 405 L629 405 L662 561 L966 561 C991 561 1016 580 1021 602 C1026 623 1011 639 987 639 L987 639 Z " />
<glyph glyph-name="oe" unicode="&#x153;" horiz-adv-x="799" d="M107 168 C89 73 159 -5 263 -5 C371 -5 476 75 497 172 L519 276 C540 372 471 449 364 449 C256 449 150 370 130 273 L107 168 Z M219 276 C230 329 286 373 343 373 C402 373 441 327 430 273 L407 168 C396 115 341 72 284 72 C226 72 187 117 197 172 L219 276 Z M584 63 C531 63 497 112 509 171 L532 278 C545 338 599 382 662 382 C701 382 714 364 706 324 C699 290 662 246 619 247 L590 247 C562 248 538 232 533 210 C529 189 546 178 580 179 L597 179 C697 182 779 248 796 329 C814 414 762 450 683 450 C568 450 465 374 444 275 L421 168 C401 74 463 -5 557 -4 C627 -4 719 38 727 73 C730 90 715 104 693 104 C680 104 666 98 646 85 C622 70 604 63 584 63 L584 63 Z " />
<glyph glyph-name="Racute" unicode="&#x154;" horiz-adv-x="574" d="M76 37 C72 16 86 0 110 0 C134 0 160 19 165 40 L275 561 L454 561 C498 561 529 525 521 483 L520 481 C507 430 467 404 405 404 C396 404 387 404 378 404 C365 405 357 405 350 405 C326 405 300 386 296 364 C294 358 295 352 297 347 L427 19 C432 7 445 0 460 0 C484 0 510 19 515 40 C517 49 484 136 426 277 C423 285 420 291 419 294 L415 302 C413 309 409 318 405 327 C506 332 590 396 609 485 C627 570 568 639 475 639 L250 639 C226 639 200 620 195 598 L76 37 Z M405 707 C401 689 416 674 440 674 C454 674 467 679 477 687 L564 758 C572 766 579 774 580 782 C584 800 569 814 545 814 C531 814 518 810 508 802 L421 730 C413 723 407 714 405 707 L405 707 Z " />
<glyph glyph-name="racute" unicode="&#x155;" horiz-adv-x="287" d="M89 273 L39 37 C34 16 49 0 73 0 C98 0 124 19 128 40 C134 66 139 92 150 145 C157 180 164 215 172 250 L172 252 C189 330 229 367 302 372 L305 373 C331 375 353 392 357 413 C362 433 347 449 323 449 C215 449 109 370 89 273 L89 273 Z M265 557 C261 539 276 524 300 524 C314 524 327 529 337 537 L424 608 C432 616 439 624 440 632 C444 650 429 664 405 664 C391 664 378 660 368 652 L281 580 C273 573 267 564 265 557 L265 557 Z " />
<glyph glyph-name="uni0156" unicode="&#x156;" horiz-adv-x="574" d="M76 37 C72 16 86 0 110 0 C134 0 160 19 165 40 L275 561 L454 561 C498 561 529 525 521 483 L520 481 C507 430 467 404 405 404 C396 404 387 404 378 404 C365 405 357 405 350 405 C326 405 300 386 296 364 C294 358 295 352 297 347 L427 19 C432 7 445 0 460 0 C484 0 510 19 515 40 C517 49 484 136 426 277 C423 285 420 291 419 294 L415 302 C413 309 409 318 405 327 C506 332 590 396 609 485 C627 570 568 639 475 639 L250 639 C226 639 200 620 195 598 L76 37 Z M352 36 C356 54 341 68 317 68 L270 68 C245 68 220 51 216 32 C211 11 225 0 256 -1 C247 -35 235 -63 214 -99 C211 -104 210 -107 209 -110 C205 -129 221 -143 244 -143 C280 -143 290 -124 302 -102 C327 -59 339 -23 352 36 L352 36 Z " />
<glyph glyph-name="uni0157" unicode="&#x157;" horiz-adv-x="287" d="M89 273 L39 37 C34 16 49 0 73 0 C98 0 124 19 128 40 C134 66 139 92 150 145 C157 180 164 215 172 250 L172 252 C189 330 229 367 302 372 L305 373 C331 375 353 392 357 413 C362 433 347 449 323 449 C215 449 109 370 89 273 L89 273 Z M165 36 C169 54 154 68 130 68 L83 68 C58 68 33 51 29 32 C24 11 38 0 69 -1 C60 -35 48 -63 27 -99 C25 -104 23 -107 22 -110 C19 -129 34 -143 57 -143 C94 -143 104 -124 116 -102 C140 -59 153 -23 165 36 L165 36 Z " />
<glyph glyph-name="Rcaron" unicode="&#x158;" horiz-adv-x="574" d="M76 37 C72 16 86 0 110 0 C134 0 160 19 165 40 L275 561 L454 561 C498 561 529 525 521 483 L520 481 C507 430 467 404 405 404 C396 404 387 404 378 404 C365 405 357 405 350 405 C326 405 300 386 296 364 C294 358 295 352 297 347 L427 19 C432 7 445 0 460 0 C484 0 510 19 515 40 C517 49 484 136 426 277 C423 285 420 291 419 294 L415 302 C413 309 409 318 405 327 C506 332 590 396 609 485 C627 570 568 639 475 639 L250 639 C226 639 200 620 195 598 L76 37 Z M440 676 C454 676 467 680 477 688 L563 760 C572 767 578 775 580 783 C584 801 568 815 545 815 C531 815 518 811 508 803 L462 765 L431 805 C426 812 415 815 402 815 C378 815 353 799 349 780 C347 772 349 764 355 758 L411 686 C416 679 427 676 440 676 L440 676 Z " />
<glyph glyph-name="rcaron" unicode="&#x159;" horiz-adv-x="287" d="M89 273 L39 37 C34 16 49 0 73 0 C98 0 124 19 128 40 C134 66 139 92 150 145 C157 180 164 215 172 250 L172 252 C189 330 229 367 302 372 L305 373 C331 375 353 392 357 413 C362 433 347 449 323 449 C215 449 109 370 89 273 L89 273 Z M299 526 C313 526 327 530 336 538 L423 610 C432 617 438 625 439 633 C443 651 428 665 405 665 C391 665 377 661 367 653 L322 615 L291 655 C285 662 275 665 262 665 C237 665 212 649 208 630 C207 622 209 614 214 608 L270 536 C276 529 286 526 299 526 L299 526 Z " />
<glyph glyph-name="Sacute" unicode="&#x15a;" horiz-adv-x="567" d="M274 -5 C415 -5 526 68 549 177 C567 263 526 331 436 365 L361 392 C357 394 352 395 346 398 C288 418 264 445 272 483 C281 528 342 566 405 566 C451 566 482 559 517 541 C523 537 530 536 537 536 C562 536 587 555 592 576 C599 611 520 644 426 644 C313 644 202 569 183 479 C170 417 205 358 269 335 L350 305 C410 282 478 254 460 174 C447 111 384 73 295 73 C236 73 199 88 159 126 C151 134 143 137 131 137 C107 137 81 118 77 96 C73 77 84 67 92 60 L94 58 C139 17 201 -5 274 -5 L274 -5 Z M427 707 C424 689 439 674 462 674 C476 674 490 679 500 687 L586 758 C595 766 601 774 603 782 C606 800 591 814 568 814 C554 814 540 810 531 802 L444 730 C435 723 429 714 427 707 L427 707 Z " />
<glyph glyph-name="sacute" unicode="&#x15b;" horiz-adv-x="417" d="M405 126 C420 194 385 235 274 281 L268 284 C227 301 213 314 216 332 C221 353 250 368 284 368 C306 368 324 363 351 350 C357 347 364 345 371 345 C396 345 422 364 426 385 C432 411 362 445 303 445 C220 445 140 392 127 328 C116 277 144 241 217 212 C265 193 326 170 316 123 C309 92 273 72 223 72 C187 72 166 80 140 104 C131 111 123 114 112 114 C87 114 61 95 57 74 C54 61 58 52 70 40 L72 39 C103 11 150 -5 200 -5 C305 -5 389 49 405 126 L405 126 Z M289 507 C285 489 300 474 324 474 C338 474 351 479 361 487 L447 558 C456 566 462 574 464 582 C468 600 453 614 429 614 C415 614 402 610 392 602 L305 530 C296 523 290 514 289 507 L289 507 Z " />
<glyph glyph-name="Scircumflex" unicode="&#x15c;" horiz-adv-x="567" d="M274 -5 C415 -5 526 68 549 177 C567 263 526 331 436 365 L361 392 C357 394 352 395 346 398 C288 418 264 445 272 483 C281 528 342 566 405 566 C451 566 482 559 517 541 C523 537 530 536 537 536 C562 536 587 555 592 576 C599 611 520 644 426 644 C313 644 202 569 183 479 C170 417 205 358 269 335 L350 305 C410 282 478 254 460 174 C447 111 384 73 295 73 C236 73 199 88 159 126 C151 134 143 137 131 137 C107 137 81 118 77 96 C73 77 84 67 92 60 L94 58 C139 17 201 -5 274 -5 L274 -5 Z M474 726 L505 686 C510 679 521 676 534 676 C558 676 583 692 587 712 C589 719 587 727 581 733 L525 805 C520 812 509 815 496 815 C482 815 469 811 459 803 L372 731 C364 724 357 716 356 708 C352 690 367 676 391 676 C405 676 418 680 428 688 L474 726 Z " />
<glyph glyph-name="scircumflex" unicode="&#x15d;" horiz-adv-x="417" d="M405 126 C420 194 385 235 274 281 L268 284 C227 301 213 314 216 332 C221 353 250 368 284 368 C306 368 324 363 351 350 C357 347 364 345 371 345 C396 345 422 364 426 385 C432 411 362 445 303 445 C220 445 140 392 127 328 C116 277 144 241 217 212 C265 193 326 170 316 123 C309 92 273 72 223 72 C187 72 166 80 140 104 C131 111 123 114 112 114 C87 114 61 95 57 74 C54 61 58 52 70 40 L72 39 C103 11 150 -5 200 -5 C305 -5 389 49 405 126 L405 126 Z M334 526 L366 486 C371 479 381 476 394 476 C419 476 444 492 448 512 C450 519 447 527 442 533 L386 605 C380 612 370 615 357 615 C343 615 329 611 320 603 L233 531 C224 524 218 516 217 508 C213 490 228 476 252 476 C265 476 279 480 289 488 L334 526 Z " />
<glyph glyph-name="Scedilla" unicode="&#x15e;" horiz-adv-x="567" d="M274 -5 C415 -5 526 68 549 177 C567 263 526 331 436 365 L361 392 C357 394 352 395 346 398 C288 418 264 445 272 483 C281 528 342 566 405 566 C451 566 482 559 517 541 C523 537 530 536 537 536 C562 536 587 555 592 576 C599 611 520 644 426 644 C313 644 202 569 183 479 C170 417 205 358 269 335 L350 305 C410 282 478 254 460 174 C447 111 384 73 295 73 C236 73 199 88 159 126 C151 134 143 137 131 137 C107 137 81 118 77 96 C73 77 84 67 92 60 L94 58 C139 17 201 -5 274 -5 L274 -5 Z M291 -148 C355 -148 418 -100 431 -41 C443 17 402 63 340 63 L316 63 C292 63 266 46 262 27 C258 5 271 -5 303 -5 C305 -5 307 -5 310 -5 L315 -5 C335 -5 347 -22 342 -44 C338 -64 324 -79 310 -79 C303 -79 299 -75 294 -71 C285 -61 277 -58 264 -58 C239 -58 214 -75 210 -94 C205 -118 250 -148 291 -148 L291 -148 Z " />
<glyph glyph-name="scedilla" unicode="&#x15f;" horiz-adv-x="417" d="M405 126 C420 194 385 235 274 281 L268 284 C227 301 213 314 216 332 C221 353 250 368 284 368 C306 368 324 363 351 350 C357 347 364 345 371 345 C396 345 422 364 426 385 C432 411 362 445 303 445 C220 445 140 392 127 328 C116 277 144 241 217 212 C265 193 326 170 316 123 C309 92 273 72 223 72 C187 72 166 80 140 104 C131 111 123 114 112 114 C87 114 61 95 57 74 C54 61 58 52 70 40 L72 39 C103 11 150 -5 200 -5 C305 -5 389 49 405 126 L405 126 Z M217 -148 C282 -148 345 -100 357 -41 C369 17 328 63 266 63 L242 63 C218 63 193 46 189 27 C184 5 197 -5 230 -5 C231 -5 234 -5 236 -5 L241 -5 C262 -5 273 -22 268 -44 C264 -64 250 -79 236 -79 C230 -79 225 -75 221 -71 C211 -61 203 -58 190 -58 C165 -58 140 -75 136 -94 C131 -118 176 -148 217 -148 L217 -148 Z " />
<glyph glyph-name="Scaron" unicode="&#x160;" horiz-adv-x="567" d="M274 -5 C415 -5 526 68 549 177 C567 263 526 331 436 365 L361 392 C357 394 352 395 346 398 C288 418 264 445 272 483 C281 528 342 566 405 566 C451 566 482 559 517 541 C523 537 530 536 537 536 C562 536 587 555 592 576 C599 611 520 644 426 644 C313 644 202 569 183 479 C170 417 205 358 269 335 L350 305 C410 282 478 254 460 174 C447 111 384 73 295 73 C236 73 199 88 159 126 C151 134 143 137 131 137 C107 137 81 118 77 96 C73 77 84 67 92 60 L94 58 C139 17 201 -5 274 -5 L274 -5 Z M462 676 C476 676 490 680 499 688 L586 760 C595 767 601 775 602 783 C606 801 591 815 568 815 C554 815 540 811 530 803 L485 765 L454 805 C448 812 438 815 425 815 C400 815 375 799 371 780 C370 772 372 764 377 758 L433 686 C439 679 449 676 462 676 L462 676 Z " />
<glyph glyph-name="scaron" unicode="&#x161;" horiz-adv-x="417" d="M405 126 C420 194 385 235 274 281 L268 284 C227 301 213 314 216 332 C221 353 250 368 284 368 C306 368 324 363 351 350 C357 347 364 345 371 345 C396 345 422 364 426 385 C432 411 362 445 303 445 C220 445 140 392 127 328 C116 277 144 241 217 212 C265 193 326 170 316 123 C309 92 273 72 223 72 C187 72 166 80 140 104 C131 111 123 114 112 114 C87 114 61 95 57 74 C54 61 58 52 70 40 L72 39 C103 11 150 -5 200 -5 C305 -5 389 49 405 126 L405 126 Z M323 476 C337 476 350 480 360 488 L447 560 C456 567 462 575 463 583 C467 601 452 615 428 615 C414 615 401 611 391 603 L346 565 L314 605 C309 612 299 615 286 615 C261 615 236 599 232 580 C230 572 233 564 238 558 L294 486 C300 479 310 476 323 476 L323 476 Z " />
<glyph glyph-name="uni0162" unicode="&#x162;" horiz-adv-x="450" d="M167 561 L518 561 C543 561 568 580 573 602 C577 623 563 639 539 639 L188 639 C164 639 138 620 133 598 C129 577 144 561 167 561 L167 561 Z M307 582 L191 37 C186 16 201 0 225 0 C250 0 276 19 280 40 L396 585 C401 606 385 622 362 622 C337 622 311 603 307 582 L307 582 Z M316 36 C320 54 305 68 281 68 L234 68 C209 68 184 51 180 32 C175 11 189 0 220 -1 C211 -35 199 -63 178 -99 C175 -104 174 -107 173 -110 C169 -129 185 -143 208 -143 C244 -143 254 -124 266 -102 C291 -59 303 -23 316 36 L316 36 Z " />
<glyph glyph-name="uni0163" unicode="&#x163;" horiz-adv-x="376" d="M241 531 C216 531 190 512 186 491 L175 440 L146 440 C122 440 96 421 91 400 C87 380 102 363 126 363 L158 363 L117 168 C97 72 166 -5 272 -5 C297 -5 323 14 327 35 C332 56 319 70 296 72 C226 76 194 116 208 180 C209 183 209 186 210 190 C211 195 212 198 213 201 L247 363 L401 363 C425 363 451 382 456 403 C460 424 445 440 421 440 L264 440 L275 494 C279 515 264 531 241 531 L241 531 Z M390 36 C394 54 379 68 356 68 L308 68 C284 68 258 51 254 32 C250 11 263 0 294 -1 C285 -35 273 -63 252 -99 C250 -104 248 -107 248 -110 C244 -129 259 -143 283 -143 C319 -143 329 -124 341 -102 C365 -59 378 -23 390 36 L390 36 Z " />
<glyph glyph-name="Tcaron" unicode="&#x164;" horiz-adv-x="450" d="M167 561 L518 561 C543 561 568 580 573 602 C577 623 563 639 539 639 L188 639 C164 639 138 620 133 598 C129 577 144 561 167 561 L167 561 Z M307 582 L191 37 C186 16 201 0 225 0 C250 0 276 19 280 40 L396 585 C401 606 385 622 362 622 C337 622 311 603 307 582 L307 582 Z M403 676 C417 676 430 680 440 688 L526 760 C535 767 541 775 543 783 C547 801 531 815 508 815 C494 815 481 811 471 803 L425 765 L394 805 C389 812 378 815 365 815 C341 815 316 799 312 780 C310 772 312 764 318 758 L374 686 C379 679 390 676 403 676 L403 676 Z " />
<glyph glyph-name="tcaron" unicode="&#x165;" horiz-adv-x="399" d="M253 531 C228 531 202 512 198 491 L187 440 L159 440 C134 440 108 421 103 400 C99 380 114 363 138 363 L171 363 L129 168 C109 72 178 -5 284 -5 C309 -5 335 14 340 35 C344 56 331 70 308 72 C238 76 207 116 220 180 C221 183 222 186 222 190 C224 195 224 198 225 201 L259 363 L413 363 C437 363 463 382 468 403 C472 424 457 440 434 440 L276 440 L287 494 C292 515 276 531 253 531 L253 531 Z M621 711 C625 729 609 744 586 744 L538 744 C514 744 489 727 485 708 C480 686 493 675 525 675 C516 640 504 612 483 576 C480 572 479 568 478 565 C474 547 489 532 513 532 C549 532 559 551 571 573 C595 616 608 652 621 711 L621 711 Z " />
<glyph glyph-name="Tbar" unicode="&#x166;" horiz-adv-x="450" d="M167 561 L518 561 C543 561 568 580 573 602 C577 623 563 639 539 639 L188 639 C164 639 138 620 133 598 C129 577 144 561 167 561 L167 561 Z M307 582 L191 37 C186 16 201 0 225 0 C250 0 276 19 280 40 L396 585 C401 606 385 622 362 622 C337 622 311 603 307 582 L307 582 Z M320 723 L462 723 C487 723 512 740 516 759 C520 777 505 792 481 792 L338 792 C314 792 289 775 285 756 C281 737 296 723 320 723 L320 723 Z " />
<glyph glyph-name="tbar" unicode="&#x167;" horiz-adv-x="399" d="M253 531 C228 531 202 512 198 491 L187 440 L159 440 C134 440 108 421 103 400 C99 380 114 363 138 363 L171 363 L129 168 C109 72 178 -5 284 -5 C309 -5 335 14 340 35 C344 56 331 70 308 72 C238 76 207 116 220 180 C221 183 222 186 222 190 C224 195 224 198 225 201 L259 363 L413 363 C437 363 463 382 468 403 C472 424 457 440 434 440 L276 440 L287 494 C292 515 276 531 253 531 L253 531 Z M222 473 L364 473 C389 473 414 490 418 509 C422 527 407 542 383 542 L240 542 C216 542 191 525 187 506 C183 487 198 473 222 473 L222 473 Z " />
<glyph glyph-name="Utilde" unicode="&#x168;" horiz-adv-x="599" d="M183 598 L103 219 C76 95 163 -5 297 -5 C432 -5 565 97 591 223 L672 602 C676 623 662 639 638 639 C614 639 588 620 583 598 C574 552 564 507 545 415 C525 323 516 277 506 231 C486 139 408 73 318 73 C226 73 174 141 194 235 C195 241 196 247 197 252 C199 261 200 266 201 270 L272 602 C276 623 262 639 238 639 C214 639 188 620 183 598 L183 598 Z M393 733 C389 715 404 701 428 701 C456 701 480 717 486 748 C487 748 492 742 498 735 C519 710 539 700 570 700 C622 700 671 737 681 783 C685 801 670 816 646 816 C617 816 595 800 588 770 C588 769 588 769 589 769 C586 769 580 776 574 783 C561 799 546 817 504 817 C452 817 402 779 393 733 L393 733 Z " />
<glyph glyph-name="utilde" unicode="&#x169;" horiz-adv-x="487" d="M135 400 L87 173 C66 77 135 0 242 0 L392 0 C417 0 443 18 447 40 L524 403 C529 424 514 440 490 440 C465 440 439 421 435 400 L366 77 L263 77 C187 77 165 132 179 199 C182 210 184 220 187 231 C191 246 193 255 194 263 L224 403 C229 424 214 440 190 440 C165 440 139 421 135 400 L135 400 Z M309 583 C305 565 320 551 343 551 C372 551 395 567 402 598 C403 598 408 592 414 585 C435 560 455 550 486 550 C538 550 587 587 597 633 C601 651 586 666 562 666 C533 666 511 650 504 620 C504 619 504 619 505 619 C502 619 496 626 490 633 C477 649 462 667 420 667 C368 667 318 629 309 583 L309 583 Z " />
<glyph glyph-name="Umacron" unicode="&#x16a;" horiz-adv-x="599" d="M183 598 L103 219 C76 95 163 -5 297 -5 C432 -5 565 97 591 223 L672 602 C676 623 662 639 638 639 C614 639 588 620 583 598 C574 552 564 507 545 415 C525 323 516 277 506 231 C486 139 408 73 318 73 C226 73 174 141 194 235 C195 241 196 247 197 252 C199 261 200 266 201 270 L272 602 C276 623 262 639 238 639 C214 639 188 620 183 598 L183 598 Z M408 698 L551 698 C575 698 600 715 604 734 C608 752 593 767 570 767 L427 767 C402 767 377 750 373 731 C369 712 385 698 408 698 L408 698 Z " />
<glyph glyph-name="umacron" unicode="&#x16b;" horiz-adv-x="487" d="M135 400 L87 173 C66 77 135 0 242 0 L392 0 C417 0 443 18 447 40 L524 403 C529 424 514 440 490 440 C465 440 439 421 435 400 L366 77 L263 77 C187 77 165 132 179 199 C182 210 184 220 187 231 C191 246 193 255 194 263 L224 403 C229 424 214 440 190 440 C165 440 139 421 135 400 L135 400 Z M332 573 L475 573 C499 573 524 590 528 609 C532 627 517 642 493 642 L351 642 C326 642 301 625 297 606 C293 587 308 573 332 573 L332 573 Z " />
<glyph glyph-name="Ubreve" unicode="&#x16c;" horiz-adv-x="599" d="M183 598 L103 219 C76 95 163 -5 297 -5 C432 -5 565 97 591 223 L672 602 C676 623 662 639 638 639 C614 639 588 620 583 598 C574 552 564 507 545 415 C525 323 516 277 506 231 C486 139 408 73 318 73 C226 73 174 141 194 235 C195 241 196 247 197 252 C199 261 200 266 201 270 L272 602 C276 623 262 639 238 639 C214 639 188 620 183 598 L183 598 Z M497 744 C481 745 474 760 476 786 C477 804 463 815 440 815 C416 815 391 799 387 780 C374 722 415 676 478 676 C542 676 605 724 618 783 C622 801 606 815 583 815 C559 815 536 801 530 782 C522 758 510 744 497 744 L497 744 Z " />
<glyph glyph-name="ubreve" unicode="&#x16d;" horiz-adv-x="487" d="M135 400 L87 173 C66 77 135 0 242 0 L392 0 C417 0 443 18 447 40 L524 403 C529 424 514 440 490 440 C465 440 439 421 435 400 L366 77 L263 77 C187 77 165 132 179 199 C182 210 184 220 187 231 C191 246 193 255 194 263 L224 403 C229 424 214 440 190 440 C165 440 139 421 135 400 L135 400 Z M412 594 C397 595 389 610 391 636 C392 654 379 665 356 665 C331 665 306 649 302 630 C290 572 330 526 393 526 C457 526 521 574 533 633 C537 651 522 665 498 665 C474 665 452 651 445 632 C437 608 425 594 412 594 L412 594 Z " />
<glyph glyph-name="Uring" unicode="&#x16e;" horiz-adv-x="599" d="M183 598 L103 219 C76 95 163 -5 297 -5 C432 -5 565 97 591 223 L672 602 C676 623 662 639 638 639 C614 639 588 620 583 598 C574 552 564 507 545 415 C525 323 516 277 506 231 C486 139 408 73 318 73 C226 73 174 141 194 235 C195 241 196 247 197 252 C199 261 200 266 201 270 L272 602 C276 623 262 639 238 639 C214 639 188 620 183 598 L183 598 Z M593 687 C605 744 564 790 502 790 C437 790 374 742 361 683 C349 625 390 579 452 579 C517 579 580 628 593 687 L593 687 Z M504 683 C500 664 485 648 471 648 C455 648 446 666 450 687 C454 706 469 722 483 722 C499 722 509 704 504 683 L504 683 Z " />
<glyph glyph-name="uring" unicode="&#x16f;" horiz-adv-x="487" d="M135 400 L87 173 C66 77 135 0 242 0 L392 0 C417 0 443 18 447 40 L524 403 C529 424 514 440 490 440 C465 440 439 421 435 400 L366 77 L263 77 C187 77 165 132 179 199 C182 210 184 220 187 231 C191 246 193 255 194 263 L224 403 C229 424 214 440 190 440 C165 440 139 421 135 400 L135 400 Z M518 562 C530 619 490 665 427 665 C363 665 299 617 287 558 C275 500 315 454 378 454 C443 454 506 503 518 562 L518 562 Z M430 558 C425 539 411 523 397 523 C381 523 371 541 375 562 C380 581 394 597 408 597 C424 597 434 579 430 558 L430 558 Z " />
<glyph glyph-name="Uhungarumlaut" unicode="&#x170;" horiz-adv-x="599" d="M183 598 L103 219 C76 95 163 -5 297 -5 C432 -5 565 97 591 223 L672 602 C676 623 662 639 638 639 C614 639 588 620 583 598 C574 552 564 507 545 415 C525 323 516 277 506 231 C486 139 408 73 318 73 C226 73 174 141 194 235 C195 241 196 247 197 252 C199 261 200 266 201 270 L272 602 C276 623 262 639 238 639 C214 639 188 620 183 598 L183 598 Z M368 707 C364 689 379 674 403 674 C417 674 430 679 440 687 L527 758 C536 766 542 774 543 782 C547 800 532 814 508 814 C494 814 481 810 471 802 L385 730 C376 723 370 714 368 707 L368 707 Z M518 707 C514 689 529 674 553 674 C567 674 580 679 590 687 L677 758 C686 766 692 774 693 782 C697 800 682 814 658 814 C644 814 631 810 621 802 L535 730 C526 723 520 714 518 707 L518 707 Z " />
<glyph glyph-name="uhungarumlaut" unicode="&#x171;" horiz-adv-x="487" d="M135 400 L87 173 C66 77 135 0 242 0 L392 0 C417 0 443 18 447 40 L524 403 C529 424 514 440 490 440 C465 440 439 421 435 400 L366 77 L263 77 C187 77 165 132 179 199 C182 210 184 220 187 231 C191 246 193 255 194 263 L224 403 C229 424 214 440 190 440 C165 440 139 421 135 400 L135 400 Z M292 582 C288 564 303 549 327 549 C341 549 354 554 364 562 L451 633 C459 641 465 649 467 657 C471 675 456 689 432 689 C418 689 405 685 395 677 L308 605 C300 598 293 589 292 582 L292 582 Z M442 582 C438 564 453 549 477 549 C491 549 504 554 514 562 L601 633 C609 641 615 649 617 657 C621 675 606 689 582 689 C568 689 555 685 545 677 L458 605 C450 598 443 589 442 582 L442 582 Z " />
<glyph glyph-name="Uogonek" unicode="&#x172;" horiz-adv-x="599" d="M183 598 L103 219 C76 95 163 -5 297 -5 C432 -5 565 97 591 223 L672 602 C676 623 662 639 638 639 C614 639 588 620 583 598 C574 552 564 507 545 415 C525 323 516 277 506 231 C486 139 408 73 318 73 C226 73 174 141 194 235 C195 241 196 247 197 252 C199 261 200 266 201 270 L272 602 C276 623 262 639 238 639 C214 639 188 620 183 598 L183 598 Z M329 63 L305 63 C241 63 177 14 165 -45 C153 -102 193 -148 256 -148 C298 -148 359 -116 365 -91 C369 -73 353 -58 330 -58 C316 -58 307 -61 292 -71 C286 -75 280 -79 275 -79 C259 -79 249 -62 253 -41 C258 -18 273 -5 293 -5 C296 -5 298 -5 301 -5 C305 -5 308 -5 310 -5 C335 -5 360 12 364 31 C368 49 353 63 329 63 L329 63 Z " />
<glyph glyph-name="uogonek" unicode="&#x173;" horiz-adv-x="487" d="M135 400 L87 173 C66 77 135 0 242 0 L392 0 C417 0 443 18 447 40 L524 403 C529 424 514 440 490 440 C465 440 439 421 435 400 L366 77 L263 77 C187 77 165 132 179 199 C182 210 184 220 187 231 C191 246 193 255 194 263 L224 403 C229 424 214 440 190 440 C165 440 139 421 135 400 L135 400 Z M299 68 L276 68 C211 68 148 19 135 -40 C123 -97 164 -143 226 -143 C268 -143 330 -111 335 -86 C339 -68 324 -53 300 -53 C286 -53 277 -56 262 -66 C257 -70 250 -74 245 -74 C229 -74 219 -57 224 -36 C229 -13 243 0 263 0 C266 0 268 0 271 0 C275 0 278 0 280 0 C305 0 330 17 334 36 C338 54 323 68 299 68 L299 68 Z " />
<glyph glyph-name="Wcircumflex" unicode="&#x174;" horiz-adv-x="849" d="M607 158 L557 427 C555 442 541 452 523 452 C504 452 484 440 474 424 L312 158 L247 613 C245 628 231 639 213 639 C189 639 163 620 158 598 C157 590 167 513 171 488 L172 482 C184 397 196 312 220 144 L233 49 C234 47 234 45 234 41 C238 7 248 -5 272 -5 C291 -5 312 7 322 23 L487 295 L538 20 C540 5 554 -5 572 -5 C598 -5 616 9 634 44 C636 49 637 50 638 53 L692 147 C788 315 836 400 884 485 L888 492 C924 555 946 596 947 602 C951 622 936 639 913 639 C893 639 872 627 863 610 L607 158 Z M614 726 L645 686 C651 679 661 676 674 676 C699 676 724 692 728 712 C729 719 727 727 722 733 L665 805 C660 812 650 815 637 815 C623 815 609 811 599 803 L513 731 C504 724 498 716 496 708 C493 690 508 676 531 676 C545 676 559 680 569 688 L614 726 Z " />
<glyph glyph-name="wcircumflex" unicode="&#x175;" horiz-adv-x="699" d="M522 145 L460 328 C456 341 443 349 427 349 C409 349 390 340 379 325 L241 145 L206 414 C204 429 190 440 171 440 C146 440 120 422 116 400 C114 394 159 38 163 24 C168 8 179 0 198 0 C216 0 235 9 246 24 L396 221 L464 21 C468 8 482 0 498 0 C518 0 536 10 548 27 C555 38 563 52 579 82 C586 95 593 108 608 134 C650 209 752 389 755 403 C760 424 745 440 721 440 C701 440 679 428 670 411 L522 145 Z M475 526 L506 486 C511 479 522 476 535 476 C559 476 584 492 589 512 C590 519 588 527 582 533 L526 605 C521 612 510 615 497 615 C484 615 470 611 460 603 L374 531 C365 524 359 516 357 508 C353 490 369 476 392 476 C406 476 420 480 429 488 L475 526 Z " />
<glyph glyph-name="Ycircumflex" unicode="&#x176;" horiz-adv-x="549" d="M364 412 L246 627 C240 637 229 644 215 644 C190 644 164 625 160 603 C158 595 159 588 162 582 L302 329 L240 37 C235 16 250 0 273 0 C298 0 323 19 328 40 L390 332 L636 584 C642 591 647 598 648 606 C653 627 638 644 615 644 C600 644 583 636 572 625 L364 412 Z M463 726 L494 686 C499 679 510 676 523 676 C547 676 572 692 576 712 C578 719 576 727 570 733 L514 805 C509 812 498 815 485 815 C471 815 458 811 448 803 L361 731 C353 724 346 716 345 708 C341 690 356 676 380 676 C394 676 407 680 417 688 L463 726 Z " />
<glyph glyph-name="ycircumflex" unicode="&#x177;" horiz-adv-x="474" d="M197 445 C172 445 146 426 141 405 C141 404 195 108 210 36 L189 2 C185 -3 182 -9 178 -15 C136 -85 115 -100 52 -105 C26 -108 4 -124 -1 -145 C-5 -166 10 -182 34 -182 C113 -182 183 -145 231 -78 C251 -49 529 397 530 403 C534 424 519 440 496 440 C476 440 456 429 445 413 L282 152 C262 262 234 415 230 423 C224 439 214 445 197 445 L197 445 Z M385 576 L416 536 C422 529 432 526 445 526 C469 526 495 542 499 562 C500 569 498 577 493 583 L436 655 C431 662 421 665 408 665 C394 665 380 661 370 653 L284 581 C275 574 269 566 267 558 C263 540 279 526 302 526 C316 526 330 530 339 538 L385 576 Z " />
<glyph glyph-name="Ydieresis" unicode="&#x178;" horiz-adv-x="549" d="M364 412 L246 627 C240 637 229 644 215 644 C190 644 164 625 160 603 C158 595 159 588 162 582 L302 329 L240 37 C235 16 250 0 273 0 C298 0 323 19 328 40 L390 332 L636 584 C642 591 647 598 648 606 C653 627 638 644 615 644 C600 644 583 636 572 625 L364 412 Z M382 778 L366 707 C363 689 378 674 401 674 C426 674 451 691 455 710 L470 782 C474 800 459 814 435 814 C411 814 386 797 382 778 L382 778 Z M527 778 L512 707 C508 689 523 674 546 674 C571 674 596 691 600 710 L615 782 C619 800 604 814 581 814 C556 814 531 797 527 778 L527 778 Z " />
<glyph glyph-name="Zacute" unicode="&#x179;" horiz-adv-x="599" d="M195 78 L661 581 C666 587 670 594 672 602 C676 623 662 639 638 639 L238 639 C214 639 188 620 183 598 C179 577 194 561 217 561 L541 561 L75 58 C69 52 66 45 64 37 C60 16 74 0 98 0 L498 0 C522 0 548 19 553 40 C557 61 542 78 519 78 L195 78 Z M443 707 C439 689 454 674 478 674 C492 674 505 679 515 687 L602 758 C610 766 617 774 618 782 C622 800 607 814 583 814 C569 814 556 810 546 802 L459 730 C451 723 445 714 443 707 L443 707 Z " />
<glyph glyph-name="zacute" unicode="&#x17a;" horiz-adv-x="499" d="M202 77 L518 381 C524 387 529 395 530 403 C535 424 520 440 496 440 L196 440 C171 440 145 421 141 400 C136 380 152 363 175 363 L392 363 L76 59 C70 53 65 45 64 37 C59 16 74 0 98 0 L398 0 C423 0 449 19 453 40 C457 60 442 77 419 77 L202 77 Z M329 507 C325 489 341 474 364 474 C378 474 392 479 401 487 L488 558 C497 566 503 574 504 582 C508 600 493 614 470 614 C456 614 442 610 432 602 L346 530 C337 523 331 514 329 507 L329 507 Z " />
<glyph glyph-name="Zdotaccent" unicode="&#x17b;" horiz-adv-x="599" d="M195 78 L661 581 C666 587 670 594 672 602 C676 623 662 639 638 639 L238 639 C214 639 188 620 183 598 C179 577 194 561 217 561 L541 561 L75 58 C69 52 66 45 64 37 C60 16 74 0 98 0 L498 0 C522 0 548 19 553 40 C557 61 542 78 519 78 L195 78 Z M458 778 L443 707 C439 689 454 674 478 674 C502 674 528 691 532 710 L547 782 C551 800 535 814 512 814 C487 814 462 797 458 778 L458 778 Z " />
<glyph glyph-name="zdotaccent" unicode="&#x17c;" horiz-adv-x="499" d="M202 77 L518 381 C524 387 529 395 530 403 C535 424 520 440 496 440 L196 440 C171 440 145 421 141 400 C136 380 152 363 175 363 L392 363 L76 59 C70 53 65 45 64 37 C59 16 74 0 98 0 L398 0 C423 0 449 19 453 40 C457 60 442 77 419 77 L202 77 Z M352 603 L337 532 C333 514 349 499 372 499 C397 499 422 516 426 535 L441 607 C445 625 430 639 406 639 C382 639 356 622 352 603 L352 603 Z " />
<glyph glyph-name="Zcaron" unicode="&#x17d;" horiz-adv-x="599" d="M195 78 L661 581 C666 587 670 594 672 602 C676 623 662 639 638 639 L238 639 C214 639 188 620 183 598 C179 577 194 561 217 561 L541 561 L75 58 C69 52 66 45 64 37 C60 16 74 0 98 0 L498 0 C522 0 548 19 553 40 C557 61 542 78 519 78 L195 78 Z M478 676 C492 676 505 680 515 688 L601 760 C610 767 616 775 618 783 C622 801 606 815 583 815 C569 815 556 811 546 803 L500 765 L469 805 C464 812 453 815 440 815 C416 815 391 799 387 780 C385 772 387 764 393 758 L449 686 C454 679 465 676 478 676 L478 676 Z " />
<glyph glyph-name="zcaron" unicode="&#x17e;" horiz-adv-x="499" d="M202 77 L518 381 C524 387 529 395 530 403 C535 424 520 440 496 440 L196 440 C171 440 145 421 141 400 C136 380 152 363 175 363 L392 363 L76 59 C70 53 65 45 64 37 C59 16 74 0 98 0 L398 0 C423 0 449 19 453 40 C457 60 442 77 419 77 L202 77 Z M363 476 C377 476 391 480 401 488 L487 560 C496 567 502 575 504 583 C508 601 492 615 469 615 C455 615 441 611 432 603 L386 565 L355 605 C350 612 339 615 326 615 C302 615 276 599 272 580 C271 572 273 564 278 558 L335 486 C340 479 350 476 363 476 L363 476 Z " />
<glyph glyph-name="longs" unicode="&#x17f;" horiz-adv-x="349" d="M157 451 L68 32 C64 14 80 0 103 0 C127 0 152 16 156 35 L217 320 C220 335 223 351 230 381 C236 412 239 428 243 443 C257 513 302 555 364 559 C389 561 411 576 415 594 C419 612 403 627 380 627 C278 627 178 548 157 451 L157 451 Z " />
<glyph glyph-name="circumflex" unicode="&#x2c6;" horiz-adv-x="249" d="M235 526 L266 486 C272 479 282 476 295 476 C320 476 345 492 349 512 C350 519 348 527 343 533 L287 605 C281 612 271 615 258 615 C244 615 230 611 221 603 L134 531 C125 524 119 516 118 508 C114 490 129 476 152 476 C166 476 180 480 190 488 L235 526 Z " />
<glyph glyph-name="caron" unicode="&#x2c7;" horiz-adv-x="249" d="M224 476 C238 476 251 480 261 488 L348 560 C356 567 363 575 364 583 C368 601 353 615 329 615 C315 615 302 611 292 603 L246 565 L215 605 C210 612 199 615 187 615 C162 615 137 599 133 580 C131 572 133 564 139 558 L195 486 C200 479 211 476 224 476 L224 476 Z " />
<glyph glyph-name="uni02C9" unicode="&#x2c9;" horiz-adv-x="199" d="M161 523 L256 523 C281 523 306 540 310 559 C314 577 299 592 275 592 L180 592 C155 592 130 575 126 556 C122 537 138 523 161 523 L161 523 Z " />
<glyph glyph-name="breve" unicode="&#x2d8;" horiz-adv-x="249" d="M243 544 C228 545 220 560 222 586 C223 604 210 615 187 615 C162 615 137 599 133 580 C120 522 161 476 224 476 C288 476 352 524 364 583 C368 601 353 615 329 615 C305 615 283 601 276 582 C268 558 256 544 243 544 L243 544 Z " />
<glyph glyph-name="dotaccent" unicode="&#x2d9;" horiz-adv-x="99" d="M134 603 L119 532 C115 514 131 499 154 499 C178 499 204 516 208 535 L223 607 C227 625 211 639 188 639 C163 639 138 622 134 603 L134 603 Z " />
<glyph glyph-name="ring" unicode="&#x2da;" horiz-adv-x="249" d="M349 512 C361 569 320 615 258 615 C193 615 130 567 118 508 C105 450 146 404 209 404 C274 404 336 453 349 512 L349 512 Z M260 508 C256 489 241 473 228 473 C212 473 202 491 206 512 C210 531 225 547 239 547 C255 547 265 529 260 508 L260 508 Z " />
<glyph glyph-name="ogonek" unicode="&#x2db;" horiz-adv-x="228" d="M165 68 L141 68 C77 68 13 19 1 -40 C-12 -97 29 -143 92 -143 C134 -143 195 -111 200 -86 C204 -68 189 -53 166 -53 C152 -53 142 -56 128 -66 C122 -70 116 -74 111 -74 C95 -74 85 -57 89 -36 C94 -13 108 0 129 0 C131 0 134 0 137 0 C141 0 144 0 146 0 C171 0 196 17 200 36 C204 54 188 68 165 68 L165 68 Z " />
<glyph glyph-name="tilde" unicode="&#x2dc;" horiz-adv-x="299" d="M130 558 C126 540 142 526 165 526 C194 526 217 542 223 573 C225 573 230 567 236 560 C256 535 276 525 307 525 C360 525 409 562 418 608 C422 626 407 641 384 641 C354 641 332 625 326 595 C326 594 326 594 326 594 C323 594 317 601 311 608 C298 624 283 642 242 642 C190 642 140 604 130 558 L130 558 Z " />
<glyph glyph-name="hungarumlaut" unicode="&#x2dd;" horiz-adv-x="174" d="M120 532 C116 514 132 499 155 499 C169 499 183 504 192 512 L279 583 C288 591 294 599 295 607 C299 625 284 639 260 639 C247 639 233 635 223 627 L137 555 C128 548 122 539 120 532 L120 532 Z M270 532 C266 514 282 499 305 499 C319 499 333 504 342 512 L429 583 C438 591 444 599 445 607 C449 625 434 639 410 639 C397 639 383 635 373 627 L287 555 C278 548 272 539 270 532 L270 532 Z " />
<glyph glyph-name="gravecomb" unicode="&#x300;" horiz-adv-x="174" d="M226 499 C251 499 276 516 280 535 C282 542 279 550 274 557 L218 629 C212 635 202 639 189 639 C165 639 139 622 135 603 C134 596 136 588 141 581 L198 510 C203 503 213 499 226 499 L226 499 Z " />
<glyph glyph-name="acutecomb" unicode="&#x301;" horiz-adv-x="174" d="M115 507 C111 489 126 474 150 474 C164 474 177 479 187 487 L273 558 C282 566 288 574 290 582 C294 600 279 614 255 614 C241 614 228 610 218 602 L131 530 C122 523 116 514 115 507 L115 507 Z " />
<glyph glyph-name="uni0302" unicode="&#x302;" horiz-adv-x="249" d="M235 526 L266 486 C271 479 282 476 295 476 C319 476 344 492 348 512 C350 519 348 527 342 533 L286 605 C281 612 270 615 257 615 C244 615 230 611 220 603 L134 531 C125 524 119 516 117 508 C113 490 129 476 152 476 C166 476 180 480 189 488 L235 526 Z " />
<glyph glyph-name="tildecomb" unicode="&#x303;" horiz-adv-x="299" d="M125 533 C121 515 137 501 160 501 C189 501 212 517 218 548 C220 548 225 542 231 535 C252 510 271 500 303 500 C355 500 404 537 414 583 C417 601 402 616 379 616 C350 616 327 600 321 570 C321 569 321 569 321 569 C318 569 313 576 306 583 C293 599 278 617 237 617 C185 617 135 579 125 533 L125 533 Z " />
<glyph glyph-name="uni0304" unicode="&#x304;" horiz-adv-x="249" d="M162 523 L305 523 C329 523 355 540 359 559 C363 577 347 592 324 592 L181 592 C157 592 131 575 127 556 C123 537 139 523 162 523 L162 523 Z " />
<glyph glyph-name="uni0306" unicode="&#x306;" horiz-adv-x="249" d="M242 544 C227 545 220 560 221 586 C223 604 209 615 186 615 C162 615 136 599 132 580 C120 522 161 476 223 476 C288 476 351 524 364 583 C368 601 352 615 329 615 C305 615 282 601 276 582 C268 558 256 544 242 544 L242 544 Z " />
<glyph glyph-name="uni0307" unicode="&#x307;" horiz-adv-x="99" d="M129 578 L114 507 C110 489 125 474 149 474 C173 474 198 491 202 510 L218 582 C221 600 206 614 183 614 C158 614 133 597 129 578 L129 578 Z " />
<glyph glyph-name="uni0308" unicode="&#x308;" horiz-adv-x="199" d="M106 578 L91 507 C87 489 102 474 126 474 C150 474 175 491 179 510 L195 582 C198 600 183 614 160 614 C135 614 110 597 106 578 L106 578 Z M251 578 L236 507 C232 489 247 474 271 474 C295 474 320 491 325 510 L340 582 C344 600 328 614 305 614 C280 614 255 597 251 578 L251 578 Z " />
<glyph glyph-name="uni030A" unicode="&#x30a;" horiz-adv-x="249" d="M349 512 C361 569 320 615 257 615 C193 615 130 567 117 508 C105 450 145 404 208 404 C273 404 336 453 349 512 L349 512 Z M260 508 C256 489 241 473 227 473 C211 473 201 491 206 512 C210 531 225 547 239 547 C254 547 264 529 260 508 L260 508 Z " />
<glyph glyph-name="uni030B" unicode="&#x30b;" horiz-adv-x="174" d="M115 507 C111 489 126 474 150 474 C164 474 177 479 187 487 L274 558 C282 566 288 574 290 582 C294 600 279 614 255 614 C241 614 228 610 218 602 L131 530 C123 523 116 514 115 507 L115 507 Z M265 507 C261 489 276 474 300 474 C314 474 327 479 337 487 L424 558 C432 566 438 574 440 582 C444 600 429 614 405 614 C391 614 378 610 368 602 L281 530 C273 523 266 514 265 507 L265 507 Z " />
<glyph glyph-name="uni030C" unicode="&#x30c;" horiz-adv-x="249" d="M223 476 C237 476 251 480 261 488 L347 560 C356 567 362 575 364 583 C368 601 352 615 329 615 C315 615 301 611 292 603 L246 565 L215 605 C209 612 199 615 186 615 C162 615 136 599 132 580 C131 572 133 564 138 558 L195 486 C200 479 210 476 223 476 L223 476 Z " />
<glyph glyph-name="uni0312" unicode="&#x312;" horiz-adv-x="149" d="M278 636 C282 654 266 668 243 668 L195 668 C171 668 146 651 142 632 C137 611 150 600 182 599 C173 565 161 537 140 501 C137 496 136 493 135 490 C131 471 147 457 170 457 C206 457 216 476 228 498 C252 541 265 577 278 636 L278 636 Z " />
<glyph glyph-name="uni0315" unicode="&#x315;" horiz-adv-x="149" d="M278 636 C282 654 267 668 243 668 L196 668 C171 668 146 651 142 632 C137 611 151 600 182 599 C173 565 161 537 140 501 C137 496 136 493 135 490 C131 471 147 457 170 457 C206 457 216 476 228 498 C253 541 265 577 278 636 L278 636 Z " />
<glyph glyph-name="uni0326" unicode="&#x326;" horiz-adv-x="149" d="M151 36 C155 54 139 68 116 68 L68 68 C44 68 19 51 14 32 C10 11 23 0 54 -1 C46 -35 34 -63 13 -99 C10 -104 9 -107 8 -110 C4 -129 19 -143 43 -143 C79 -143 89 -124 101 -102 C125 -59 138 -23 151 36 L151 36 Z " />
<glyph glyph-name="uni0327" unicode="&#x327;" horiz-adv-x="228" d="M71 -143 C136 -143 199 -95 211 -36 C223 22 183 68 120 68 L96 68 C72 68 47 51 43 32 C38 10 51 0 84 0 C85 0 88 0 90 0 L95 0 C116 0 127 -17 123 -39 C118 -59 104 -74 90 -74 C84 -74 79 -70 75 -66 C65 -56 57 -53 44 -53 C19 -53 -6 -70 -10 -89 C-15 -113 30 -143 71 -143 L71 -143 Z " />
<glyph glyph-name="uni0328" unicode="&#x328;" horiz-adv-x="228" d="M165 68 L141 68 C77 68 13 19 1 -40 C-12 -97 29 -143 92 -143 C134 -143 195 -111 200 -86 C204 -68 189 -53 166 -53 C152 -53 142 -56 128 -66 C122 -70 116 -74 111 -74 C95 -74 85 -57 89 -36 C94 -13 108 0 129 0 C131 0 134 0 137 0 C141 0 144 0 146 0 C171 0 196 17 200 36 C204 54 188 68 165 68 L165 68 Z " />
<glyph glyph-name="uni0344" unicode="&#x344;" horiz-adv-x="299" d="M129 556 L118 507 C114 489 130 475 153 475 C178 475 203 491 207 511 L217 559 C221 577 206 592 182 592 C158 592 133 575 129 556 L129 556 Z M319 556 L309 508 C305 490 320 476 344 476 C368 476 393 492 397 512 L407 559 C411 577 396 592 373 592 C348 592 323 575 319 556 L319 556 Z M255 632 C252 614 267 599 290 599 C304 599 318 604 328 612 L414 683 C423 691 429 699 431 707 C434 725 419 739 396 739 C382 739 368 735 359 727 L272 655 C263 648 257 639 255 632 L255 632 Z " />
<glyph glyph-name="uni0374" unicode="&#x374;" horiz-adv-x="174" d="M120 532 C116 514 132 499 155 499 C169 499 183 504 192 512 L279 583 C288 591 294 599 295 607 C299 625 284 639 260 639 C247 639 233 635 223 627 L137 555 C128 548 122 539 120 532 L120 532 Z " />
<glyph glyph-name="uni0375" unicode="&#x375;" horiz-adv-x="249" d="M200 36 C204 54 189 68 165 68 L118 68 C93 68 68 51 64 32 C60 11 73 0 104 -1 C95 -35 83 -63 62 -99 C60 -104 58 -107 58 -110 C54 -129 69 -143 92 -143 C129 -143 139 -124 151 -102 C175 -59 188 -23 200 36 L200 36 Z " />
<glyph glyph-name="uni037E" unicode="&#x37e;" horiz-adv-x="249" d="M200 36 C204 54 189 68 165 68 L118 68 C93 68 68 51 64 32 C60 11 73 0 104 -1 C95 -35 83 -63 62 -99 C60 -104 58 -107 58 -110 C54 -129 69 -143 92 -143 C129 -143 139 -124 151 -102 C175 -59 188 -23 200 36 L200 36 Z M162 405 L152 357 C148 339 163 325 187 325 C211 325 237 342 241 361 L251 408 C255 427 239 441 216 441 C191 441 166 424 162 405 L162 405 Z " />
<glyph glyph-name="tonos" unicode="&#x384;" horiz-adv-x="174" d="M120 532 C116 514 132 499 155 499 C169 499 183 504 192 512 L279 583 C288 591 294 599 295 607 C299 625 284 639 260 639 C247 639 233 635 223 627 L137 555 C128 548 122 539 120 532 L120 532 Z " />
<glyph glyph-name="dieresistonos" unicode="&#x385;" horiz-adv-x="299" d="M129 556 L118 507 C114 489 130 475 153 475 C178 475 203 491 207 511 L217 559 C221 577 206 592 182 592 C158 592 133 575 129 556 L129 556 Z M319 556 L309 508 C305 490 320 476 344 476 C368 476 393 492 397 512 L407 559 C411 577 396 592 373 592 C348 592 323 575 319 556 L319 556 Z M255 632 C252 614 267 599 290 599 C304 599 318 604 328 612 L414 683 C423 691 429 699 431 707 C434 725 419 739 396 739 C382 739 368 735 359 727 L272 655 C263 648 257 639 255 632 L255 632 Z " />
<glyph glyph-name="Alphatonos" unicode="&#x386;" horiz-adv-x="599" d="M64 38 C60 17 75 1 98 1 C118 1 139 13 149 30 L185 94 L455 94 L464 27 C466 11 480 1 498 1 C523 1 548 20 553 41 C554 47 550 88 541 152 L540 159 C528 244 516 330 492 499 L479 595 C479 597 478 599 478 603 C475 637 465 649 441 649 C414 649 397 635 378 600 C376 596 375 594 374 592 L320 495 C224 327 176 241 128 156 L124 149 C88 85 66 43 64 38 L64 38 Z M402 479 L444 172 L229 172 L402 479 Z M443 707 C439 689 454 674 478 674 C492 674 505 679 515 687 L602 758 C610 766 616 774 618 782 C622 800 607 814 583 814 C569 814 556 810 546 802 L459 730 C451 723 444 714 443 707 L443 707 Z " />
<glyph glyph-name="anoteleia" unicode="&#x387;" horiz-adv-x="224" d="M102 270 C95 239 119 214 156 214 C194 214 231 241 238 274 C245 305 221 330 185 330 C146 330 109 303 102 270 L102 270 Z " />
<glyph glyph-name="Epsilontonos" unicode="&#x388;" horiz-adv-x="524" d="M575 639 L225 639 C201 639 175 620 171 598 L61 84 C51 37 84 0 135 0 L435 0 C459 0 485 19 490 40 C494 61 480 77 456 77 L156 77 C151 79 149 83 150 88 L201 327 L330 327 C354 327 380 346 384 368 C389 389 374 405 351 405 L217 405 L250 561 L554 561 C579 561 604 580 609 602 C614 623 599 639 575 639 L575 639 Z M405 707 C401 689 416 674 440 674 C454 674 467 679 477 687 L564 758 C572 766 579 774 580 782 C584 800 569 814 545 814 C531 814 518 810 508 802 L421 730 C413 723 407 714 405 707 L405 707 Z " />
<glyph glyph-name="Etatonos" unicode="&#x389;" horiz-adv-x="649" d="M178 40 L239 327 L551 327 L489 37 C485 16 500 0 523 0 C548 0 573 19 578 40 L697 602 C702 623 687 639 663 639 C639 639 613 620 609 598 L567 405 L255 405 L297 602 C302 623 287 639 263 639 C239 639 213 620 209 598 L89 37 C85 16 100 0 123 0 C148 0 173 19 178 40 L178 40 Z M493 707 C489 689 504 674 528 674 C542 674 555 679 565 687 L652 758 C660 766 667 774 668 782 C672 800 657 814 633 814 C619 814 606 810 596 802 L509 730 C501 723 495 714 493 707 L493 707 Z " />
<glyph glyph-name="Iotatonos" unicode="&#x38a;" horiz-adv-x="249" d="M178 40 L297 602 C302 623 287 639 263 639 C239 639 213 620 209 598 L89 37 C85 16 100 0 123 0 C148 0 173 19 178 40 L178 40 Z M343 707 C339 689 354 674 378 674 C392 674 405 679 415 687 L502 758 C510 766 517 774 518 782 C522 800 507 814 483 814 C469 814 456 810 446 802 L359 730 C351 723 345 714 343 707 L343 707 Z " />
<glyph glyph-name="Omicrontonos" unicode="&#x38c;" horiz-adv-x="599" d="M592 223 L634 424 C661 548 574 648 440 648 C305 648 172 546 146 421 L103 219 C77 96 164 -5 297 -5 C432 -5 565 98 592 223 L592 223 Z M318 73 C232 73 174 141 192 223 L234 424 C251 504 335 570 419 570 C506 570 563 502 546 421 L503 219 C486 139 403 73 318 73 L318 73 Z M443 707 C439 689 454 674 478 674 C492 674 505 679 515 687 L602 758 C610 766 617 774 618 782 C622 800 607 814 583 814 C569 814 556 810 546 802 L459 730 C451 723 445 714 443 707 L443 707 Z " />
<glyph glyph-name="Upsilontonos" unicode="&#x38e;" horiz-adv-x="549" d="M364 412 L246 627 C240 637 228 644 214 644 C190 644 164 625 160 603 C158 595 159 588 162 582 L301 329 L239 37 C235 16 250 0 273 0 C298 0 323 19 328 40 L390 332 L636 584 C642 591 646 598 648 606 C653 627 638 644 614 644 C599 644 583 636 572 625 L364 412 Z M417 707 C414 689 429 674 452 674 C466 674 480 679 490 687 L576 758 C585 766 591 774 593 782 C596 800 581 814 558 814 C544 814 530 810 521 802 L434 730 C425 723 419 714 417 707 L417 707 Z " />
<glyph glyph-name="Omegatonos" unicode="&#x38f;" horiz-adv-x="600" d="M108 0 L203 0 C228 0 253 16 257 36 C258 39 258 42 257 47 C239 169 217 294 245 426 C262 505 348 580 422 580 C499 580 555 504 537 423 C509 291 434 165 364 43 C361 39 360 35 359 32 C355 14 371 0 394 0 L489 0 C514 0 539 16 543 36 C547 54 531 68 508 68 L468 68 C560 227 605 329 626 426 C651 543 563 649 441 649 C318 649 181 541 156 423 C136 328 138 227 161 68 L127 68 C103 68 78 52 73 32 C70 14 85 0 108 0 L108 0 Z M438 707 C434 689 449 674 473 674 C487 674 500 679 510 687 L597 758 C605 766 611 774 613 782 C617 800 602 814 578 814 C564 814 551 810 541 802 L454 730 C446 723 439 714 438 707 L438 707 Z " />
<glyph glyph-name="iotadieresistonos" unicode="&#x390;" horiz-adv-x="325" d="M212 441 C188 441 163 424 159 405 L100 126 C85 56 133 0 208 0 C232 0 257 17 261 36 C266 60 249 64 226 68 C188 76 180 98 193 158 C195 169 198 181 200 191 C204 204 205 211 206 216 L247 408 C251 427 236 441 212 441 L212 441 Z M104 578 L89 507 C85 489 100 474 124 474 C148 474 173 491 177 510 L193 582 C197 600 181 614 158 614 C133 614 108 597 104 578 L104 578 Z M249 578 L234 507 C230 489 245 474 269 474 C293 474 319 491 323 510 L338 582 C342 600 326 614 303 614 C278 614 253 597 249 578 L249 578 Z M210 657 C206 639 221 624 245 624 C258 624 272 629 282 637 L368 708 C377 716 383 724 385 732 C389 750 373 764 350 764 C336 764 322 760 313 752 L226 680 C217 673 211 664 210 657 L210 657 Z " />
<glyph glyph-name="Alpha" unicode="&#x391;" horiz-adv-x="599" d="M64 38 C60 17 75 1 98 1 C118 1 139 13 149 30 L185 94 L455 94 L464 27 C466 11 480 1 498 1 C523 1 548 20 553 41 C554 47 550 88 541 152 L540 159 C528 244 516 330 492 499 L479 595 C479 597 478 599 478 603 C475 637 465 649 441 649 C414 649 397 635 378 600 C376 596 375 594 374 592 L320 495 C224 327 176 241 128 156 L124 149 C88 85 66 43 64 38 L64 38 Z M402 479 L444 172 L229 172 L402 479 Z " />
<glyph glyph-name="Beta" unicode="&#x392;" horiz-adv-x="624" d="M540 376 C576 405 601 445 609 486 C628 571 568 639 475 639 L250 639 C226 639 200 620 196 598 L76 37 C72 16 87 0 110 0 L335 0 C457 0 576 92 600 205 C617 285 580 359 509 389 L540 376 Z M511 200 C497 133 426 78 356 78 L173 78 L226 327 L403 327 C408 327 413 326 418 326 C482 323 525 265 511 200 L511 200 Z M242 405 L275 561 L454 561 C500 561 530 525 520 480 C512 440 477 411 429 406 L424 405 L242 405 Z " />
<glyph glyph-name="Gamma" unicode="&#x393;" horiz-adv-x="449" d="M260 571 L475 571 C500 571 525 588 529 607 C533 625 517 639 494 639 L232 639 C208 639 183 622 179 603 L57 32 C53 14 69 0 92 0 C117 0 142 17 146 36 L260 571 Z " />
<glyph glyph-name="uni0394" unicode="&#x394;" horiz-adv-x="599" d="M488 0 C513 0 538 16 542 36 C543 40 539 80 531 147 L530 154 C517 269 504 384 490 499 L478 597 C478 600 478 602 478 606 C475 638 466 649 440 649 C412 649 396 636 379 602 C377 599 376 596 374 594 L321 496 C259 381 196 266 134 150 L130 143 C116 117 74 39 72 32 C69 14 84 0 107 0 L488 0 Z M448 68 L180 68 L401 476 L448 68 Z " />
<glyph glyph-name="Epsilon" unicode="&#x395;" horiz-adv-x="524" d="M575 639 L225 639 C201 639 175 620 171 598 L61 84 C51 37 84 0 135 0 L435 0 C459 0 485 19 490 40 C494 61 480 77 456 77 L156 77 C151 79 149 83 150 88 L201 327 L330 327 C354 327 380 346 384 368 C389 389 374 405 351 405 L217 405 L250 561 L554 561 C579 561 604 580 609 602 C614 623 599 639 575 639 L575 639 Z " />
<glyph glyph-name="Zeta" unicode="&#x396;" horiz-adv-x="549" d="M170 78 L636 581 C642 587 645 594 647 602 C652 623 637 639 613 639 L213 639 C189 639 163 620 159 598 C154 577 169 561 192 561 L516 561 L50 58 C45 52 41 45 39 37 C35 16 50 0 73 0 L473 0 C498 0 523 19 528 40 C532 61 517 78 494 78 L170 78 Z " />
<glyph glyph-name="Eta" unicode="&#x397;" horiz-adv-x="649" d="M178 40 L239 327 L551 327 L489 37 C485 16 500 0 523 0 C548 0 573 19 578 40 L697 602 C702 623 687 639 663 639 C639 639 613 620 609 598 L567 405 L255 405 L297 602 C302 623 287 639 263 639 C239 639 213 620 209 598 L89 37 C85 16 100 0 123 0 C148 0 173 19 178 40 L178 40 Z " />
<glyph glyph-name="Theta" unicode="&#x398;" horiz-adv-x="599" d="M592 223 L634 424 C661 548 574 648 440 648 C305 648 172 546 146 421 L103 219 C77 96 164 -5 297 -5 C432 -5 565 98 592 223 L592 223 Z M318 73 C232 73 174 141 192 223 L234 424 C251 504 335 570 419 570 C506 570 563 502 546 421 L503 219 C486 139 403 73 318 73 L318 73 Z M313 288 L503 288 C528 288 553 304 557 324 C561 342 545 356 522 356 L332 356 C307 356 282 339 278 320 C274 302 290 288 313 288 L313 288 Z " />
<glyph glyph-name="Iota" unicode="&#x399;" horiz-adv-x="249" d="M178 40 L297 602 C302 623 287 639 263 639 C239 639 213 620 209 598 L89 37 C85 16 100 0 123 0 C148 0 173 19 178 40 L178 40 Z " />
<glyph glyph-name="Kappa" unicode="&#x39a;" horiz-adv-x="574" d="M140 40 L200 324 L302 381 L452 19 C457 7 470 0 485 0 C510 0 535 19 540 40 C541 47 541 53 539 58 L385 428 L634 570 C647 577 656 589 659 602 C664 623 649 639 625 639 C616 639 605 636 595 630 L220 418 L259 602 C264 623 249 639 225 639 C201 639 175 620 171 598 L51 37 C47 16 62 0 85 0 C110 0 135 19 140 40 L140 40 Z " />
<glyph glyph-name="Lambda" unicode="&#x39b;" horiz-adv-x="599" d="M440 649 C412 649 396 636 379 602 C377 599 376 596 374 594 L321 496 C259 381 196 266 134 150 L130 143 C116 117 74 39 72 32 C69 14 84 0 107 0 C128 0 149 11 157 26 L401 476 L453 23 C454 9 469 0 488 0 C513 0 538 16 542 36 C543 40 539 80 531 147 L530 154 C517 269 504 384 490 499 L478 597 C478 600 478 602 478 606 C475 638 466 649 440 649 L440 649 Z " />
<glyph glyph-name="Mu" unicode="&#x39c;" horiz-adv-x="849" d="M778 40 L897 602 C902 623 887 639 863 639 C849 639 832 632 821 621 L489 293 L294 623 C289 633 277 639 263 639 C239 639 213 620 209 598 L89 37 C85 16 100 0 123 0 C148 0 173 19 178 40 L270 476 L432 203 C438 193 449 187 463 187 C477 187 494 194 505 205 L783 479 L689 37 C685 16 700 0 723 0 C748 0 773 19 778 40 L778 40 Z " />
<glyph glyph-name="Nu" unicode="&#x39d;" horiz-adv-x="649" d="M263 639 C239 639 213 620 209 598 L89 37 C85 16 100 0 123 0 C148 0 173 19 178 40 L278 510 L535 254 L489 37 C485 16 500 0 523 0 C548 0 573 19 578 40 L697 602 C702 623 687 639 663 639 C639 639 613 620 609 598 L558 363 L291 628 C284 635 274 639 263 639 L263 639 Z " />
<glyph glyph-name="Xi" unicode="&#x39e;" horiz-adv-x="549" d="M106 0 L439 0 C464 0 489 17 493 36 C497 54 482 68 458 68 L125 68 C101 68 76 51 71 32 C68 14 83 0 106 0 L106 0 Z M237 333 L439 333 C463 333 489 350 493 369 C496 387 481 401 458 401 L256 401 C231 401 206 385 202 365 C198 347 214 333 237 333 L237 333 Z M228 571 L561 571 C585 571 610 588 615 607 C618 625 603 639 580 639 L247 639 C222 639 197 622 193 603 C189 585 204 571 228 571 L228 571 Z " />
<glyph glyph-name="Omicron" unicode="&#x39f;" horiz-adv-x="599" d="M592 223 L634 424 C661 548 574 648 440 648 C305 648 172 546 146 421 L103 219 C77 96 164 -5 297 -5 C432 -5 565 98 592 223 L592 223 Z M318 73 C232 73 174 141 192 223 L234 424 C251 504 335 570 419 570 C506 570 563 502 546 421 L503 219 C486 139 403 73 318 73 L318 73 Z " />
<glyph glyph-name="Pi" unicode="&#x3a0;" horiz-adv-x="649" d="M300 571 L592 571 L478 32 C474 14 489 0 513 0 C537 0 562 17 567 36 L688 607 C692 625 676 639 653 639 L272 639 C248 639 223 622 219 603 L97 32 C93 14 109 0 132 0 C157 0 182 17 186 36 L300 571 Z " />
<glyph glyph-name="Rho" unicode="&#x3a1;" horiz-adv-x="524" d="M280 327 L380 327 C474 327 566 397 584 485 C602 570 543 639 450 639 L225 639 C201 639 175 620 171 598 L51 37 C47 16 62 0 85 0 C110 0 135 19 140 40 L250 561 L429 561 C474 561 505 525 496 483 C482 417 426 405 371 405 L301 405 C276 405 250 386 246 364 C241 344 256 327 280 327 L280 327 Z " />
<glyph glyph-name="Sigma" unicode="&#x3a3;" horiz-adv-x="549" d="M591 639 L235 639 C210 639 185 622 181 603 C180 599 180 593 183 588 L269 363 C265 357 261 350 249 331 C190 241 61 41 59 32 C56 14 71 0 94 0 L451 0 C476 0 501 17 505 36 C509 54 494 68 470 68 L171 68 C175 74 171 69 182 84 C297 263 360 363 362 369 C363 376 338 446 288 570 L288 571 L573 571 C597 571 622 588 626 607 C630 625 615 639 591 639 L591 639 Z " />
<glyph glyph-name="Tau" unicode="&#x3a4;" horiz-adv-x="450" d="M167 561 L518 561 C543 561 568 580 573 602 C578 623 563 639 539 639 L188 639 C164 639 138 620 134 598 C129 577 144 561 167 561 L167 561 Z M307 582 L191 37 C187 16 202 0 225 0 C250 0 276 19 280 40 L396 585 C401 606 386 622 362 622 C337 622 311 603 307 582 L307 582 Z " />
<glyph glyph-name="Upsilon" unicode="&#x3a5;" horiz-adv-x="549" d="M364 412 L246 627 C240 637 228 644 214 644 C190 644 164 625 160 603 C158 595 159 588 162 582 L301 329 L239 37 C235 16 250 0 273 0 C298 0 323 19 328 40 L390 332 L636 584 C642 591 646 598 648 606 C653 627 638 644 614 644 C599 644 583 636 572 625 L364 412 Z " />
<glyph glyph-name="Phi" unicode="&#x3a6;" horiz-adv-x="599" d="M384 603 L376 563 C286 547 201 485 161 404 C149 380 141 356 132 312 C125 281 123 261 124 242 C127 155 186 90 272 75 L263 32 C259 14 274 0 298 0 C322 0 347 17 351 36 L360 76 C449 92 535 154 575 235 C587 260 595 284 604 327 C611 359 613 379 612 398 C609 485 550 549 464 564 L473 607 C477 625 461 639 438 639 C413 639 388 622 384 603 L384 603 Z M227 345 C242 415 297 474 361 493 L287 148 C233 169 202 229 217 298 L227 345 Z M375 146 L448 491 C503 471 534 411 519 342 L509 295 C494 225 438 166 375 146 L375 146 Z " />
<glyph glyph-name="Chi" unicode="&#x3a7;" horiz-adv-x="549" d="M63 32 C59 11 74 -5 97 -5 C114 -5 132 4 143 18 L325 238 L414 15 C419 3 432 -5 447 -5 C472 -5 497 14 502 36 C503 42 503 48 501 53 L394 321 L614 588 C619 593 622 600 623 606 C628 627 613 644 589 644 C573 644 555 635 543 621 L361 401 L272 624 C267 636 255 644 239 644 C215 644 189 625 185 603 C183 597 184 590 186 585 L293 318 L72 50 C68 45 65 39 63 32 L63 32 Z " />
<glyph glyph-name="Psi" unicode="&#x3a8;" horiz-adv-x="549" d="M170 608 L148 508 C125 398 188 308 292 289 L237 32 C234 14 249 -1 272 -1 C297 -1 322 16 326 35 L380 290 C493 310 594 402 618 512 L639 611 C643 630 627 644 604 644 C579 644 554 627 550 608 C548 599 547 590 543 573 C541 561 539 550 536 539 C530 508 526 493 520 478 C497 422 448 377 395 361 L448 611 C452 630 437 644 414 644 C389 644 364 627 360 608 L308 362 C262 380 232 425 233 482 C234 497 236 515 241 538 C244 550 247 562 250 575 C254 593 256 602 258 611 C262 630 247 644 223 644 C199 644 174 627 170 608 L170 608 Z " />
<glyph glyph-name="uni03A9" unicode="&#x3a9;" horiz-adv-x="600" d="M108 0 L203 0 C228 0 253 16 257 36 C258 39 258 42 257 47 C239 169 217 294 245 426 C262 505 348 580 422 580 C499 580 555 504 537 423 C509 291 434 165 364 43 C361 39 360 35 359 32 C355 14 371 0 394 0 L489 0 C514 0 539 16 543 36 C547 54 531 68 508 68 L468 68 C560 227 605 329 626 426 C651 543 563 649 441 649 C318 649 181 541 156 423 C136 328 138 227 161 68 L127 68 C103 68 78 52 73 32 C70 14 85 0 108 0 L108 0 Z " />
<glyph glyph-name="Iotadieresis" unicode="&#x3aa;" horiz-adv-x="249" d="M178 40 L297 602 C302 623 287 639 263 639 C239 639 213 620 209 598 L89 37 C85 16 100 0 123 0 C148 0 173 19 178 40 L178 40 Z M308 778 L293 707 C289 689 304 674 328 674 C352 674 377 691 382 710 L397 782 C401 800 385 814 362 814 C337 814 312 797 308 778 L308 778 Z M453 778 L438 707 C434 689 450 674 473 674 C498 674 523 691 527 710 L542 782 C546 800 530 814 507 814 C483 814 457 797 453 778 L453 778 Z " />
<glyph glyph-name="Upsilondieresis" unicode="&#x3ab;" horiz-adv-x="549" d="M364 412 L246 627 C240 637 228 644 214 644 C190 644 164 625 160 603 C158 595 159 588 162 582 L301 329 L239 37 C235 16 250 0 273 0 C298 0 323 19 328 40 L390 332 L636 584 C642 591 646 598 648 606 C653 627 638 644 614 644 C599 644 583 636 572 625 L364 412 Z M383 778 L367 707 C364 689 379 674 402 674 C427 674 452 691 456 710 L471 782 C475 800 460 814 436 814 C412 814 387 797 383 778 L383 778 Z M528 778 L513 707 C509 689 524 674 547 674 C572 674 597 691 601 710 L616 782 C620 800 605 814 582 814 C557 814 532 797 528 778 L528 778 Z " />
<glyph glyph-name="alphatonos" unicode="&#x3ac;" horiz-adv-x="524" d="M454 36 L515 324 C533 407 469 450 395 450 C365 450 343 447 324 442 C227 415 151 339 133 251 L121 195 C97 84 170 0 291 0 C331 0 356 13 361 36 C365 58 352 68 321 68 C318 68 314 68 309 68 C306 68 304 67 302 67 C236 67 193 127 209 198 L221 254 C237 331 299 382 377 382 C422 382 436 355 422 292 C420 281 418 271 415 261 C411 246 410 238 408 231 L366 33 C362 15 377 1 400 1 C425 1 450 17 454 36 L454 36 Z M370 537 C366 519 381 504 405 504 C418 504 432 509 442 517 L528 588 C537 596 543 604 545 612 C549 630 533 644 510 644 C496 644 482 640 473 632 L386 560 C377 553 371 544 370 537 L370 537 Z " />
<glyph glyph-name="epsilontonos" unicode="&#x3ad;" horiz-adv-x="413" d="M240 63 C197 63 173 101 184 152 C194 198 227 229 273 233 L275 233 C300 235 321 250 325 268 C329 286 317 297 294 300 C274 303 265 316 270 338 C275 360 288 373 306 373 C310 373 312 373 316 373 C320 372 323 372 326 372 L371 372 C395 372 421 389 424 408 C428 426 413 440 390 440 C382 440 374 440 367 440 C343 440 331 440 320 440 C256 440 194 393 182 334 C177 313 181 290 191 272 C140 242 106 198 95 143 C77 61 133 -5 221 -5 C261 -5 302 9 336 33 L337 34 C348 42 361 51 364 64 C368 83 352 97 329 97 C315 97 306 93 288 81 C267 68 254 63 240 63 L240 63 Z M305 537 C301 519 316 504 340 504 C353 504 367 509 377 517 L463 588 C472 596 478 604 480 612 C484 630 468 644 445 644 C431 644 417 640 408 632 L321 560 C312 553 306 544 305 537 L305 537 Z " />
<glyph glyph-name="etatonos" unicode="&#x3ae;" horiz-adv-x="524" d="M423 -151 L462 35 C466 53 451 67 428 67 C403 67 379 51 375 32 L335 -154 C331 -172 346 -187 370 -187 C394 -187 419 -170 423 -151 L423 -151 Z M466 40 L514 267 C534 363 465 440 358 440 L208 440 C183 440 158 421 153 400 L76 37 C72 16 87 0 110 0 C135 0 161 18 165 40 L234 363 L338 363 C414 363 435 308 421 241 C419 230 416 220 413 209 C410 193 408 185 406 177 L376 37 C372 16 387 0 410 0 C435 0 461 19 466 40 L466 40 Z M297 557 C293 539 308 524 332 524 C346 524 359 529 369 537 L456 608 C464 616 471 624 472 632 C476 650 461 664 437 664 C423 664 410 660 400 652 L313 580 C305 573 299 564 297 557 L297 557 Z " />
<glyph glyph-name="iotatonos" unicode="&#x3af;" horiz-adv-x="325" d="M212 441 C188 441 163 424 159 405 L100 126 C85 56 133 0 208 0 C232 0 257 17 261 36 C266 60 249 64 226 68 C188 76 180 98 193 158 C195 169 198 181 200 191 C204 204 205 211 206 216 L247 408 C251 427 236 441 212 441 L212 441 Z M205 537 C201 519 216 504 239 504 C253 504 267 509 277 517 L363 588 C372 596 378 604 380 612 C384 630 368 644 345 644 C331 644 317 640 308 632 L221 560 C212 553 206 544 205 537 L205 537 Z " />
<glyph glyph-name="upsilondieresistonos" unicode="&#x3b0;" horiz-adv-x="499" d="M404 274 L383 172 C370 114 318 68 266 68 L197 68 C187 68 178 77 175 91 C174 97 177 113 182 139 C185 153 189 167 192 180 C195 193 196 199 197 203 L241 408 C244 426 229 440 206 440 C182 440 157 424 153 405 L88 102 C76 45 116 0 178 0 L248 0 C350 0 450 79 471 175 L492 278 C513 373 448 450 348 450 C323 450 298 433 294 414 C291 396 302 384 326 382 L333 381 C388 375 417 332 404 274 L404 274 Z M183 556 L173 507 C169 489 184 475 207 475 C232 475 257 491 261 511 L272 559 C275 577 260 592 237 592 C212 592 187 575 183 556 L183 556 Z M373 556 L363 508 C359 490 375 476 398 476 C423 476 448 492 452 512 L462 559 C466 577 450 592 427 592 C402 592 377 575 373 556 L373 556 Z M310 632 C306 614 321 599 345 599 C359 599 372 604 382 612 L468 683 C477 691 483 699 485 707 C489 725 474 739 450 739 C436 739 423 735 413 727 L326 655 C318 648 311 639 310 632 L310 632 Z " />
<glyph glyph-name="alpha" unicode="&#x3b1;" horiz-adv-x="524" d="M454 36 L515 324 C533 407 469 450 395 450 C365 450 343 447 324 442 C227 415 151 339 133 251 L121 195 C97 84 170 0 291 0 C331 0 356 13 361 36 C365 58 352 68 321 68 C318 68 314 68 309 68 C306 68 304 67 302 67 C236 67 193 127 209 198 L221 254 C237 331 299 382 377 382 C422 382 436 355 422 292 C420 281 418 271 415 261 C411 246 410 238 408 231 L366 33 C362 15 377 1 400 1 C425 1 450 17 454 36 L454 36 Z " />
<glyph glyph-name="beta" unicode="&#x3b2;" horiz-adv-x="499" d="M481 224 C500 314 481 387 402 423 C425 446 441 475 449 510 C463 580 415 636 341 636 C264 636 189 578 174 507 L53 -61 C50 -79 65 -93 88 -93 C112 -93 137 -77 141 -58 C161 34 180 125 200 217 C219 309 238 400 258 492 L259 496 C268 540 292 568 322 568 C353 568 367 539 358 497 C352 465 328 443 296 440 C271 438 250 423 246 405 C241 382 255 373 294 373 C397 373 409 295 390 207 C372 121 312 67 235 67 L220 67 C196 68 170 51 166 32 C162 10 175 0 210 0 C241 0 260 1 277 6 C359 27 428 82 460 152 C468 170 473 188 480 219 L481 224 Z " />
<glyph glyph-name="gamma" unicode="&#x3b3;" horiz-adv-x="449" d="M223 0 C241 0 256 7 271 24 C288 46 505 403 505 403 C510 424 494 440 471 440 C452 440 431 429 421 413 L258 153 L205 416 C203 430 189 440 171 440 C146 440 120 421 116 400 C115 399 183 35 189 21 C195 6 205 0 223 0 L223 0 Z " />
<glyph glyph-name="delta" unicode="&#x3b4;" horiz-adv-x="499" d="M123 265 L102 167 C82 72 146 -5 247 -5 C349 -5 449 74 469 170 L480 222 C500 317 436 394 336 394 C333 394 330 394 326 393 C324 393 321 393 318 393 C298 393 287 409 292 431 C297 454 310 466 330 466 C333 466 335 466 338 466 C343 466 346 466 348 466 L393 466 C418 466 442 482 446 501 C450 519 435 533 412 533 L342 533 C279 533 216 486 204 428 C192 371 232 326 294 326 L308 326 C371 326 406 282 392 218 L381 167 C369 110 317 63 265 63 C209 63 177 112 191 179 C192 183 193 186 194 190 C195 196 196 199 196 201 L211 268 C214 286 199 300 176 300 C152 300 127 284 123 265 L123 265 Z " />
<glyph glyph-name="epsilon" unicode="&#x3b5;" horiz-adv-x="413" d="M240 63 C197 63 173 101 184 152 C194 198 227 229 273 233 L275 233 C300 235 321 250 325 268 C329 286 317 297 294 300 C274 303 265 316 270 338 C275 360 288 373 306 373 C310 373 312 373 316 373 C320 372 323 372 326 372 L371 372 C395 372 421 389 424 408 C428 426 413 440 390 440 C382 440 374 440 367 440 C343 440 331 440 320 440 C256 440 194 393 182 334 C177 313 181 290 191 272 C140 242 106 198 95 143 C77 61 133 -5 221 -5 C261 -5 302 9 336 33 L337 34 C348 42 361 51 364 64 C368 83 352 97 329 97 C315 97 306 93 288 81 C267 68 254 63 240 63 L240 63 Z " />
<glyph glyph-name="zeta" unicode="&#x3b6;" horiz-adv-x="500" d="M446 559 L268 317 C259 306 249 293 235 273 C212 243 189 212 167 181 C153 161 144 142 140 123 C126 57 171 2 242 -1 L244 -1 C278 -2 295 -26 287 -62 C280 -95 256 -117 225 -120 C200 -122 178 -137 174 -155 C171 -173 186 -187 209 -187 C287 -187 360 -129 376 -56 C390 8 343 64 274 67 L273 67 C238 68 221 91 228 127 C232 142 241 158 263 187 C267 192 271 197 274 201 L554 580 C557 585 560 590 561 595 C565 613 549 627 526 627 L247 627 C222 627 197 610 193 591 C190 574 205 559 228 559 L446 559 Z " />
</font>
</svg>
