<?xml version="1.0" encoding="UTF-8"?>
<svg xmlns="http://www.w3.org/2000/svg" xmlns:xlink="http://www.w3.org/1999/xlink" version="1.2" >
<font id="GAPCode-Italic" horiz-adv-x="598">
<font-face  font-family="GAP Code" units-per-em="1000" ascent="642" descent="-223" font-style="italic" font-weight="400" font-stretch="normal" slope="-12" cap-height="640" x-height="440" underline-position="-100" underline-thickness="50" />
<missing-glyph horiz-adv-x="600" d="M443 0 C457 0 478 9 481 26 L605 632 C607 646 594 654 581 654 L291 654 C277 654 256 644 253 628 L129 22 C127 8 140 0 153 0 L443 0 Z M197 49 L310 605 L538 605 L424 49 L197 49 Z " />
<glyph glyph-name="NULL" horiz-adv-x="0" >
</glyph>
<glyph glyph-name="CR" unicode="&#xd;" horiz-adv-x="250" >
</glyph>
<glyph glyph-name="space" unicode="&#x20;" horiz-adv-x="600" />
<glyph glyph-name="uni0000" horiz-adv-x="0" />
<glyph glyph-name="uni000D" horiz-adv-x="250" />
<glyph glyph-name="exclam" unicode="&#x21;" horiz-adv-x="600" d="M281 57 L273 17 C270 3 284 -5 298 -5 C313 -5 332 4 335 20 L344 61 C347 76 334 84 320 84 C305 84 285 74 281 57 L281 57 Z M316 227 C313 213 326 204 340 204 C354 204 374 216 378 231 L460 632 C463 646 450 654 436 654 C421 654 401 643 397 628 L316 227 Z " />
<glyph glyph-name="quotedbl" unicode="&#x22;" horiz-adv-x="600" d="M325 628 L294 476 C291 462 305 454 319 454 C334 454 353 464 357 481 L387 632 C390 646 377 654 364 654 C349 654 328 644 325 628 L325 628 Z M470 628 L439 476 C436 462 450 454 464 454 C478 454 498 464 501 481 L532 632 C535 646 522 654 508 654 C494 654 473 644 470 628 L470 628 Z " />
<glyph glyph-name="numbersign" unicode="&#x23;" horiz-adv-x="600" d="M153 17 C150 3 163 -5 177 -5 C190 -5 207 2 213 15 L293 196 L352 196 L275 22 C271 4 277 -5 297 -5 C311 -5 328 2 333 15 L413 196 L483 196 C499 196 522 209 522 227 C522 239 510 245 498 245 L435 245 L458 298 L528 298 C544 298 567 310 567 328 C567 340 555 347 543 347 L480 347 L557 520 L558 525 C561 540 548 548 535 548 C521 548 504 541 498 528 L418 347 L360 347 L436 520 C440 539 434 548 414 548 C401 548 384 541 378 528 L298 347 L229 347 C213 347 190 334 190 316 C190 304 201 298 214 298 L276 298 L253 245 L184 245 C168 245 145 233 145 215 C145 203 157 196 170 196 L231 196 L154 22 L153 17 Z M315 245 L338 298 L397 298 L373 245 L315 245 Z " />
<glyph glyph-name="dollar" unicode="&#x24;" horiz-adv-x="600" d="M377 528 L362 453 C301 441 234 387 234 321 C234 271 279 249 286 246 C387 198 416 171 416 137 C416 72 359 43 300 43 C267 43 246 52 226 78 C225 78 225 79 224 80 C219 87 214 89 209 90 C207 91 205 91 203 91 C188 91 165 79 165 62 C165 38 214 8 269 -2 L256 -68 C255 -71 254 -75 254 -79 C251 -93 264 -101 277 -101 C292 -101 313 -91 316 -75 L331 -3 C406 7 480 69 480 150 C480 196 444 232 332 288 C313 298 299 314 299 336 C299 379 342 408 382 408 C399 408 413 403 441 390 C448 386 457 382 467 382 C479 382 502 394 502 409 C502 427 464 446 423 453 L437 520 C438 523 438 527 439 531 C442 545 429 553 415 553 C401 553 380 544 377 528 L377 528 Z " />
<glyph glyph-name="percent" unicode="&#x25;" horiz-adv-x="600" d="M150 10 C150 5 161 -5 177 -5 C190 -5 203 1 210 11 L218 22 C255 66 558 525 561 536 C561 540 545 548 533 548 C511 548 499 530 488 514 C426 427 152 19 150 10 L150 10 Z M629 173 C630 181 631 189 631 197 C631 254 589 296 529 296 C457 296 388 238 373 169 L363 119 C362 110 361 102 361 94 C361 37 402 -5 463 -5 C535 -5 604 53 618 123 L629 173 Z M348 425 C350 434 351 442 351 450 C351 507 309 549 248 549 C177 549 106 491 92 421 L82 371 C80 363 79 354 79 346 C79 290 121 247 182 247 C253 247 324 305 338 374 L348 425 Z M556 119 C548 78 512 44 477 44 C440 44 417 80 426 123 L436 173 C444 214 479 247 515 247 C552 247 575 212 566 169 L556 119 Z M276 371 C267 330 232 296 197 296 C160 296 136 332 144 375 L155 425 C163 466 198 500 233 500 C271 500 295 464 286 421 L276 371 Z " />
<glyph glyph-name="ampersand" unicode="&#x26;" horiz-adv-x="600" d="M277 44 C220 44 184 86 184 146 C184 227 239 293 322 304 L325 304 C340 306 362 313 362 332 C362 343 352 350 333 352 C301 356 284 376 284 407 C284 454 319 509 370 509 C380 509 388 507 404 495 C411 488 416 485 425 485 C439 485 464 496 464 512 C464 535 415 558 372 558 C292 558 221 480 221 401 C221 372 231 347 249 330 C175 296 120 217 120 134 C120 54 176 -5 261 -5 C351 -5 440 62 469 151 L510 151 C526 151 549 164 549 182 C549 193 539 200 524 200 L355 200 C339 200 317 190 317 171 C317 160 327 151 342 151 L407 151 C386 86 333 44 277 44 L277 44 Z " />
<glyph glyph-name="quotesingle" unicode="&#x27;" horiz-adv-x="600" d="M397 628 L367 476 C364 462 378 454 391 454 C406 454 426 464 429 481 L460 632 C463 646 450 654 436 654 C421 654 401 644 397 628 L397 628 Z " />
<glyph glyph-name="parenleft" unicode="&#x28;" horiz-adv-x="600" d="M289 183 C289 148 300 -51 350 -51 C364 -51 388 -42 388 -25 C388 -6 372 39 365 59 C353 92 347 132 347 176 C347 366 421 515 526 670 C530 675 533 680 533 686 C533 697 523 704 509 704 C483 704 465 678 454 661 C353 513 289 364 289 183 L289 183 Z " />
<glyph glyph-name="parenright" unicode="&#x29;" horiz-adv-x="600" d="M204 -16 C200 -21 199 -25 199 -25 C196 -40 206 -51 221 -51 C225 -51 229 -50 233 -49 C248 -43 265 -25 285 5 C290 11 294 17 298 23 C383 155 443 306 443 464 C443 537 429 610 409 680 C407 686 401 704 380 704 C362 704 345 692 342 678 L361 604 C374 558 380 509 380 459 C380 278 309 128 204 -16 L204 -16 Z " />
<glyph glyph-name="asterisk" unicode="&#x2a;" horiz-adv-x="600" d="M394 465 L406 422 C408 413 418 409 429 409 C444 409 464 419 467 432 C467 444 459 479 445 525 L520 561 C531 567 547 575 547 590 C547 602 535 609 526 609 C523 609 520 609 517 608 C501 604 473 591 449 579 L461 637 C464 651 450 659 436 659 C421 659 402 649 398 633 L388 581 C367 593 344 607 330 609 L326 609 C311 609 291 595 291 579 C291 572 295 568 301 563 L369 523 C349 495 315 445 308 429 L307 426 C305 416 320 409 333 409 L340 409 C357 412 365 422 375 437 L394 465 Z " />
<glyph glyph-name="plus" unicode="&#x2b;" horiz-adv-x="600" d="M249 231 L317 231 L301 152 C298 138 311 130 324 130 C339 130 360 140 363 156 L378 231 L442 231 C458 231 481 242 481 260 C481 272 468 279 456 279 L388 279 L404 358 C407 372 394 380 380 380 C366 380 345 370 342 354 L326 279 L263 279 C247 279 224 268 224 250 C224 238 237 231 249 231 L249 231 Z " />
<glyph glyph-name="comma" unicode="&#x2c;" horiz-adv-x="600" d="M360 26 L360 30 C360 42 347 47 335 47 L287 47 C270 47 248 35 248 16 C248 -1 273 -1 288 -1 L292 -1 C283 -43 265 -80 247 -119 L242 -130 L242 -133 C241 -134 241 -135 241 -136 C242 -147 254 -152 265 -152 C318 -152 354 -6 360 26 L360 26 Z " />
<glyph glyph-name="hyphen" unicode="&#x2d;" horiz-adv-x="600" d="M249 230 L442 230 C456 230 477 239 480 256 C483 270 469 279 456 279 L263 279 C248 279 228 269 224 253 C221 238 235 230 249 230 L249 230 Z " />
<glyph glyph-name="period" unicode="&#x2e;" horiz-adv-x="600" d="M281 57 L273 17 L273 14 C273 2 286 -5 298 -5 C313 -5 332 4 335 20 L344 61 L344 65 C344 77 332 84 320 84 C305 84 285 74 281 57 L281 57 Z " />
<glyph glyph-name="slash" unicode="&#x2f;" horiz-adv-x="600" d="M591 693 C592 699 577 707 564 707 C556 707 544 705 540 697 C499 625 141 -28 139 -36 C139 -39 153 -47 167 -47 C182 -47 192 -40 199 -31 L591 693 Z " />
<glyph glyph-name="zero" unicode="0" horiz-adv-x="600" d="M351 402 L300 149 L300 145 C300 133 311 126 324 126 C338 126 359 136 362 152 L414 405 L414 409 C414 421 402 427 390 427 C375 427 355 418 351 402 L351 402 Z M555 390 C558 402 559 413 559 425 C559 504 501 563 417 563 C320 563 223 484 203 385 L159 169 C157 157 156 145 156 134 C156 55 214 -5 298 -5 C396 -5 491 75 511 173 L555 390 Z M449 169 C435 99 373 44 312 44 C257 44 219 88 219 145 C219 154 220 163 222 173 L266 390 C280 459 342 514 404 514 C458 514 496 471 496 414 C496 405 495 395 493 385 L449 169 Z " />
<glyph glyph-name="one" unicode="1" horiz-adv-x="600" d="M396 26 L499 531 L499 535 C499 546 487 553 475 553 L354 553 C338 553 316 542 316 524 C316 512 328 504 340 504 L432 504 L334 22 L334 18 C334 7 345 0 358 0 C372 0 393 9 396 26 L396 26 Z " />
<glyph glyph-name="two" unicode="2" horiz-adv-x="600" d="M250 48 L479 327 C506 360 528 402 528 446 C528 513 477 563 405 563 C361 563 317 545 277 509 L275 507 C270 502 262 494 260 487 L260 484 C259 473 270 464 286 464 C297 464 304 469 326 487 L334 494 C347 504 365 514 389 514 C433 514 465 480 465 437 C465 432 465 426 464 420 C456 384 427 344 364 268 L172 34 C168 29 165 25 165 19 C165 8 176 -1 190 -1 L407 -1 C423 -1 445 11 445 29 C445 40 435 48 421 48 L250 48 Z " />
<glyph glyph-name="three" unicode="3" horiz-adv-x="600" d="M497 211 C497 288 445 346 368 351 L522 517 C526 522 531 528 531 535 C531 545 521 553 505 553 L288 553 C273 553 249 541 249 523 C249 513 260 505 275 505 L442 505 L289 338 C284 333 280 327 280 320 C280 308 292 303 313 303 L331 303 C395 303 435 263 435 204 C435 125 370 44 288 44 C262 44 246 53 216 85 C210 91 205 93 197 93 C181 93 157 81 157 63 C157 58 160 53 167 44 C193 12 231 -5 279 -5 C393 -5 497 97 497 211 L497 211 Z " />
<glyph glyph-name="four" unicode="4" horiz-adv-x="600" d="M150 124 L150 120 C150 108 161 100 174 100 L435 100 L419 22 L419 18 C419 7 430 0 443 0 C457 0 478 9 481 26 L522 228 C523 229 523 231 523 232 C523 244 511 250 499 250 C484 250 463 240 460 224 L445 149 L230 149 L489 541 C489 542 489 542 490 545 C490 557 478 563 463 563 C451 563 439 558 432 547 L150 124 Z " />
<glyph glyph-name="five" unicode="5" horiz-adv-x="600" d="M277 -5 C394 -5 498 100 498 216 C498 299 437 352 338 352 L291 352 L341 505 L479 505 C495 505 518 516 518 535 C518 546 508 553 494 553 L324 553 C307 553 292 543 287 530 L221 321 C220 320 220 319 220 319 C220 307 232 303 261 303 L313 303 C394 303 435 268 435 209 C435 134 372 44 292 44 C268 44 248 53 222 78 C209 90 202 94 193 94 C178 94 156 80 156 64 C156 23 245 -5 277 -5 L277 -5 Z " />
<glyph glyph-name="six" unicode="6" horiz-adv-x="600" d="M312 44 C257 44 219 88 219 145 C219 154 220 163 222 173 L253 329 C275 437 360 504 474 504 C491 504 512 517 512 536 C512 547 502 553 482 553 C340 553 218 458 191 325 L159 169 C157 157 156 145 156 134 C156 54 214 -5 299 -5 C411 -5 515 99 515 212 C515 292 459 352 374 352 L327 352 C310 352 287 339 287 321 C287 308 300 303 327 303 L354 303 C416 303 454 265 454 207 C454 132 392 44 312 44 L312 44 Z " />
<glyph glyph-name="seven" unicode="7" horiz-adv-x="600" d="M559 535 C560 536 560 537 560 538 C560 550 542 553 536 553 L294 553 C278 553 256 542 256 524 C256 512 268 504 280 504 L483 504 L206 14 C204 5 227 0 239 0 C258 0 265 12 273 27 L559 535 Z " />
<glyph glyph-name="eight" unicode="8" horiz-adv-x="600" d="M515 211 C515 263 492 307 450 332 C490 363 520 412 520 463 C520 521 478 563 415 563 C330 563 258 486 258 402 C258 373 268 349 286 330 C214 294 156 217 156 134 C156 54 214 -5 299 -5 C411 -5 515 98 515 211 L515 211 Z M311 44 C256 44 219 88 219 146 C219 221 283 303 362 303 C416 303 452 259 452 201 C452 126 390 44 311 44 L311 44 Z M372 352 C341 352 321 376 321 411 C321 457 354 514 405 514 C437 514 457 489 457 453 C457 407 423 352 372 352 L372 352 Z " />
<glyph glyph-name="nine" unicode="9" horiz-adv-x="600" d="M402 509 C456 509 494 466 494 408 C494 399 493 390 491 380 L448 169 C434 100 372 43 311 43 C280 43 264 57 251 67 C238 78 231 82 221 82 C208 82 184 69 184 54 C184 29 249 -5 306 -5 C394 -5 491 75 511 173 L554 384 C557 396 558 408 558 420 C558 499 499 558 413 558 C298 558 197 453 197 339 C197 256 254 196 338 196 L386 196 C403 196 425 209 425 228 C425 240 414 245 388 245 L363 245 C299 245 260 285 260 344 C260 420 320 509 402 509 L402 509 Z " />
<glyph glyph-name="colon" unicode="&#x3a;" horiz-adv-x="600" d="M281 57 L273 17 C270 3 284 -5 298 -5 C313 -5 332 4 335 20 L344 61 C347 76 334 84 320 84 C305 84 285 74 281 57 L281 57 Z M354 415 L346 375 C343 361 357 353 371 353 C385 353 405 362 408 378 L417 419 C419 433 406 442 393 442 C378 442 357 431 354 415 L354 415 Z " />
<glyph glyph-name="semicolon" unicode="&#x3b;" horiz-adv-x="600" d="M379 415 L372 381 C371 379 371 377 370 375 C368 361 382 353 395 353 C410 353 429 362 433 378 L440 413 C440 415 441 417 441 419 C444 433 431 442 417 442 C403 442 382 431 379 415 L379 415 Z M361 26 C364 41 350 47 336 47 L288 47 C273 47 253 38 249 20 C249 19 249 17 249 16 C249 -1 274 -1 289 -1 L293 -1 C292 -6 291 -12 289 -17 C280 -53 267 -83 252 -112 C249 -118 244 -127 243 -130 C243 -131 243 -132 243 -133 C240 -145 253 -152 266 -152 C319 -152 355 -6 361 26 L361 26 Z " />
<glyph glyph-name="less" unicode="&#x3c;" horiz-adv-x="600" d="M280 249 C280 245 281 240 284 237 C300 216 363 132 379 111 C383 106 391 103 399 103 C414 103 438 115 438 133 C438 137 436 141 434 144 L350 256 L478 366 C484 371 490 378 490 386 C490 398 477 405 464 405 C455 405 444 401 437 395 L291 269 C286 264 280 257 280 249 L280 249 Z " />
<glyph glyph-name="equal" unicode="&#x3d;" horiz-adv-x="600" d="M236 167 L429 167 C445 167 468 178 468 196 C468 208 455 216 443 216 L250 216 C234 216 211 203 211 185 C211 173 224 167 236 167 L236 167 Z M262 292 L454 292 C470 292 493 303 493 322 C493 334 481 341 468 341 L276 341 C260 341 236 329 236 311 C236 299 249 292 262 292 L262 292 Z " />
<glyph glyph-name="greater" unicode="&#x3e;" horiz-adv-x="600" d="M351 256 L223 145 C217 140 211 133 211 125 C211 113 224 106 237 106 C246 106 256 110 263 117 L410 242 C416 247 421 254 421 262 C421 266 420 271 417 274 C401 295 338 379 322 400 C318 405 310 408 302 408 C287 408 263 396 263 378 C263 374 265 370 267 367 L351 256 Z " />
<glyph glyph-name="question" unicode="&#x3f;" horiz-adv-x="600" d="M281 57 L273 17 C270 3 284 -5 298 -5 C313 -5 332 4 335 20 L344 61 C347 76 334 84 320 84 C305 84 285 74 281 57 L281 57 Z M423 605 C473 605 509 573 509 520 C509 459 471 414 428 374 C368 320 321 258 304 174 C301 158 315 151 332 151 C360 151 367 174 373 199 C394 277 441 321 501 375 C541 412 570 466 570 522 C570 599 513 654 434 654 C393 654 351 640 314 611 L312 610 C303 604 292 595 292 583 C292 571 304 564 316 564 C326 564 333 567 356 583 C367 591 389 605 423 605 L423 605 Z " />
<glyph glyph-name="at" unicode="&#x40;" horiz-adv-x="600" d="M560 178 L613 440 C617 456 618 471 618 486 C618 589 544 665 438 665 C316 665 191 564 165 437 L122 224 C118 208 117 193 117 178 C117 75 192 0 298 0 L395 0 C410 0 434 11 434 29 C434 40 422 48 411 48 L341 48 C250 48 179 92 179 184 C179 198 181 212 184 228 L227 440 C246 535 333 615 423 615 C498 615 555 556 555 482 C555 472 554 462 553 452 L418 452 C363 452 304 409 292 351 L272 249 C270 243 269 236 269 230 C269 184 305 151 353 151 L426 151 C441 151 465 164 465 182 C465 193 453 199 439 199 L383 199 C349 199 327 214 335 254 L355 354 C362 388 384 404 414 404 L544 404 L498 174 C495 159 509 151 522 151 C537 151 557 162 560 178 L560 178 Z " />
<glyph glyph-name="A" unicode="A" horiz-adv-x="600" d="M526 26 L514 147 C497 308 480 465 459 628 C457 644 449 652 435 652 C417 652 407 642 398 627 L73 7 C81 0 93 -6 106 -3 C131 2 147 39 159 64 L166 78 L459 78 L465 21 C467 3 469 -6 482 -6 C502 -6 526 3 526 26 L526 26 Z M192 127 L407 533 L453 127 L192 127 Z " />
<glyph glyph-name="B" unicode="B" horiz-adv-x="600" d="M247 0 L321 0 C453 0 569 102 569 237 C569 305 532 352 475 372 C529 406 569 463 569 528 C569 613 489 651 410 651 L263 651 C249 651 228 641 224 624 L102 24 L102 19 C102 7 113 0 125 0 C140 0 160 10 164 28 L226 333 L375 333 C449 333 507 301 507 226 C507 119 428 51 323 51 L268 51 C250 51 224 41 224 19 C224 7 236 0 247 0 L247 0 Z M236 384 L280 600 L394 600 C450 600 507 577 507 519 C507 512 506 505 505 498 C485 400 406 384 327 384 L236 384 Z " />
<glyph glyph-name="C" unicode="C" horiz-adv-x="600" d="M341 44 C270 44 216 103 216 184 C216 196 217 209 220 223 L264 440 C284 538 371 615 463 615 C496 615 520 605 546 584 C559 573 564 571 570 571 C587 571 610 583 610 602 C610 634 542 665 473 665 C348 665 226 560 201 436 L157 219 C154 203 152 188 152 173 C152 72 225 -5 332 -5 C368 -5 501 19 501 69 C501 80 492 89 478 89 C470 89 463 86 454 81 C427 62 380 44 341 44 L341 44 Z " />
<glyph glyph-name="D" unicode="D" horiz-adv-x="600" d="M250 0 C402 0 549 125 581 278 L601 379 C605 398 607 417 607 435 C607 560 517 654 386 654 L241 654 C224 654 207 642 204 628 L81 22 C80 21 80 20 80 18 C81 8 90 0 104 0 L250 0 Z M147 48 L261 605 L373 605 C474 605 544 528 544 424 C544 409 542 392 539 375 L518 275 C493 150 378 48 263 48 L147 48 Z " />
<glyph glyph-name="E" unicode="E" horiz-adv-x="600" d="M609 654 L271 654 C256 654 236 644 233 628 L120 73 C119 68 119 63 119 58 C119 23 146 0 183 0 L472 0 C488 0 511 12 511 31 C511 43 498 48 486 48 L206 48 C190 48 182 54 182 69 C182 72 182 74 183 77 L239 354 L375 354 C391 354 414 365 414 383 C414 396 401 402 389 402 L249 402 L290 605 L595 605 C612 605 634 618 634 636 C634 648 622 654 609 654 L609 654 Z " />
<glyph glyph-name="F" unicode="F" horiz-adv-x="600" d="M329 605 L586 605 C603 605 625 618 625 636 C625 649 613 654 600 654 L310 654 C295 654 275 644 272 628 L149 22 L149 18 C149 6 160 0 173 0 C188 0 208 10 212 27 L278 353 L414 353 C430 353 453 365 453 383 C453 396 440 402 428 402 L288 402 L329 605 Z " />
<glyph glyph-name="G" unicode="G" horiz-adv-x="600" d="M538 353 L511 219 C491 123 403 44 315 44 C238 44 184 105 184 185 C184 197 185 210 188 223 L230 430 C248 519 348 605 433 605 L522 605 C537 605 561 617 561 635 C561 646 550 654 536 654 L439 654 C315 654 192 552 167 426 L124 219 C121 203 120 188 120 173 C120 71 193 -5 301 -5 C425 -5 548 97 573 223 L605 379 L605 383 C605 394 595 402 581 402 L388 402 C372 402 349 390 349 372 C349 361 360 353 374 353 L538 353 Z " />
<glyph glyph-name="H" unicode="H" horiz-adv-x="600" d="M143 27 L209 353 L534 353 L467 20 C467 20 466 19 466 18 C466 6 478 0 491 0 C505 0 526 10 529 27 L652 632 C653 634 653 635 653 637 C652 649 640 654 628 654 C613 654 593 644 590 628 L544 402 L219 402 L266 634 C267 635 267 635 267 636 C267 648 254 654 241 654 C227 654 207 644 204 628 L81 22 C80 21 80 19 80 17 C81 6 92 0 104 0 C119 0 140 10 143 27 L143 27 Z " />
<glyph glyph-name="I" unicode="I" horiz-adv-x="600" d="M178 0 L417 0 C434 0 456 12 456 31 C456 44 444 51 432 51 L342 51 L454 603 L540 603 C557 603 579 615 579 634 C579 647 567 654 554 654 L315 654 C298 654 275 641 275 622 C275 610 288 603 300 603 L392 603 L280 51 L192 51 C175 51 153 38 153 19 C153 7 165 0 178 0 L178 0 Z " />
<glyph glyph-name="J" unicode="J" horiz-adv-x="600" d="M268 -5 C352 -5 435 63 452 147 L549 623 C550 625 551 627 551 630 C552 631 552 633 552 634 C552 647 539 654 527 654 L310 654 C293 654 271 641 271 622 C271 610 283 603 296 603 L483 603 L390 145 C378 87 330 44 280 44 C254 44 234 55 220 78 C213 90 206 94 195 94 C176 94 156 80 156 59 C156 27 210 -5 268 -5 L268 -5 Z " />
<glyph glyph-name="K" unicode="K" horiz-adv-x="600" d="M157 27 L221 342 L336 415 L481 12 C483 4 495 0 503 0 C519 0 540 13 544 30 L394 451 L649 611 C657 617 667 626 667 636 C667 648 654 654 641 654 C634 654 627 651 621 648 L234 406 L280 632 L280 636 C280 648 267 654 255 654 C240 654 221 644 217 628 L94 22 L94 18 C94 6 106 0 118 0 C133 0 153 10 157 27 L157 27 Z " />
<glyph glyph-name="L" unicode="L" horiz-adv-x="600" d="M212 48 L331 632 L331 636 C331 648 318 654 306 654 C291 654 272 644 268 628 L145 22 L145 18 C145 6 157 0 169 0 L459 0 C476 0 498 13 498 31 C498 43 485 48 473 48 L212 48 Z " />
<glyph glyph-name="M" unicode="M" horiz-adv-x="600" d="M556 28 L680 636 L680 640 C680 653 669 659 657 659 C646 659 633 655 625 645 L374 358 L238 648 C235 655 226 659 217 659 C202 659 182 649 178 632 L54 24 L54 19 C54 7 66 0 77 0 C92 0 112 10 116 28 L219 536 L333 292 C336 285 345 281 354 281 C365 281 378 286 386 295 L600 540 L495 24 C494 22 494 20 494 18 C495 6 506 0 517 0 C532 0 552 10 556 28 L556 28 Z " />
<glyph glyph-name="N" unicode="N" horiz-adv-x="600" d="M242 654 C228 654 207 644 204 628 L81 22 C80 21 80 20 80 18 C80 7 92 0 104 0 C119 0 139 9 143 26 L252 563 L516 266 L467 22 L467 18 C467 7 478 0 491 0 C505 0 526 9 529 26 L652 632 C653 633 653 635 653 636 C653 648 641 654 629 654 C614 654 593 644 590 628 L532 344 L261 647 C258 652 250 654 242 654 L242 654 Z " />
<glyph glyph-name="O" unicode="O" horiz-adv-x="600" d="M569 223 L613 440 C617 455 618 470 618 485 C618 587 544 665 437 665 C313 665 190 561 165 437 L120 219 C117 203 116 188 116 174 C116 72 190 -5 297 -5 C421 -5 544 98 569 223 L569 223 Z M311 44 C234 44 179 107 179 186 C179 198 180 210 183 223 L227 440 C247 536 335 615 423 615 C501 615 555 555 555 475 C555 462 554 450 551 437 L507 219 C487 123 399 44 311 44 L311 44 Z " />
<glyph glyph-name="P" unicode="P" horiz-adv-x="600" d="M340 353 L436 353 C531 353 624 439 624 535 C624 603 574 654 503 654 L285 654 C268 654 250 642 247 628 L124 22 C123 21 123 20 123 18 C124 8 133 0 147 0 C165 0 183 11 186 26 L304 605 L488 605 C531 605 561 570 561 524 C561 448 498 402 426 402 L360 402 C343 402 315 394 315 372 C315 361 326 353 340 353 L340 353 Z " />
<glyph glyph-name="Q" unicode="Q" horiz-adv-x="600" d="M569 223 L613 440 C617 455 618 470 618 485 C618 587 544 665 437 665 C313 665 190 561 165 437 L120 219 C117 203 116 188 116 174 C116 72 190 -5 297 -5 C350 -5 402 13 447 44 L475 7 C478 2 487 0 495 0 C510 0 533 11 533 29 C533 33 532 38 529 41 L496 86 C532 124 559 172 569 223 L569 223 Z M357 250 C341 250 319 239 319 221 C319 217 321 213 323 210 L418 82 C386 58 348 44 311 44 C234 44 179 107 179 186 C179 198 180 210 183 223 L227 440 C247 536 335 615 423 615 C501 615 555 555 555 475 C555 462 554 450 551 437 L507 219 C500 185 485 154 464 127 L378 242 C374 247 365 250 357 250 L357 250 Z " />
<glyph glyph-name="R" unicode="R" horiz-adv-x="600" d="M110 22 L110 18 C110 8 119 0 134 0 C150 0 169 12 172 27 L290 605 L475 605 C518 605 547 571 547 524 C547 437 473 402 394 402 L363 402 C347 402 331 391 331 374 C331 370 331 366 333 362 L446 13 C450 3 457 0 464 0 C484 0 509 17 512 32 L401 353 L412 353 C513 353 611 429 611 534 C611 604 561 654 489 654 L271 654 C254 654 236 642 233 628 L110 22 Z " />
<glyph glyph-name="S" unicode="S" horiz-adv-x="600" d="M289 -5 C422 -5 550 83 550 224 C550 318 468 350 393 380 C308 414 277 440 277 478 C277 552 355 610 424 610 C467 610 496 604 527 587 C538 581 545 579 552 579 C567 579 590 589 590 607 C590 634 523 659 454 659 C345 659 213 584 213 463 C213 410 252 375 353 334 C419 308 485 283 485 208 C485 106 402 44 304 44 C256 44 210 47 172 97 L171 99 C160 112 151 113 146 113 C132 113 109 100 109 85 C109 78 114 71 122 59 L125 56 C157 13 219 -5 289 -5 L289 -5 Z " />
<glyph glyph-name="T" unicode="T" horiz-adv-x="600" d="M232 605 L395 605 L276 22 L276 18 C276 6 288 0 300 0 C315 0 335 10 339 27 L456 605 L610 605 C626 605 649 618 649 636 C649 648 636 654 624 654 L246 654 C230 654 207 642 207 624 C207 611 220 605 232 605 L232 605 Z " />
<glyph glyph-name="U" unicode="U" horiz-adv-x="600" d="M204 628 L120 219 C117 203 116 188 116 173 C116 71 189 -5 297 -5 C421 -5 544 97 569 223 L652 632 C653 633 653 635 653 636 C653 646 643 654 629 654 C611 654 593 642 590 628 L508 223 C488 124 399 44 310 44 C232 44 181 105 181 189 C181 204 182 219 185 234 L266 634 C266 634 267 635 267 636 C266 646 257 654 242 654 C225 654 207 642 204 628 L204 628 Z " />
<glyph glyph-name="V" unicode="V" horiz-adv-x="600" d="M324 120 L265 638 C264 649 253 654 243 654 C234 654 209 650 205 634 C201 618 264 38 273 7 C275 -1 283 -5 296 -5 C316 -5 328 5 343 35 L653 639 C653 650 636 654 627 654 C615 654 599 647 592 635 L324 120 Z " />
<glyph glyph-name="W" unicode="W" horiz-adv-x="600" d="M463 132 L412 418 C411 428 401 433 391 433 C378 433 364 426 357 414 L191 130 L213 632 C214 645 203 651 191 651 C176 651 156 641 153 625 L153 622 L127 14 C126 1 138 -5 149 -5 C162 -5 176 2 184 14 L366 328 L421 10 C423 0 433 -5 443 -5 C456 -5 473 3 479 18 L702 629 L702 633 C702 645 691 651 680 651 C666 651 649 643 644 628 L463 132 Z " />
<glyph glyph-name="X" unicode="X" horiz-adv-x="600" d="M104 14 C104 2 116 -5 129 -5 C141 -5 153 0 161 10 L354 266 L443 7 C446 -1 456 -5 466 -5 C481 -5 502 5 505 21 L505 30 C505 30 504 31 504 32 L401 329 L625 626 C628 630 630 635 630 641 C630 653 619 659 606 659 C595 659 581 654 573 644 L380 388 L291 647 C288 656 278 659 268 659 C253 659 232 649 229 633 C229 630 229 627 230 623 L333 325 L109 29 C106 24 104 19 104 14 L104 14 Z " />
<glyph glyph-name="Y" unicode="Y" horiz-adv-x="600" d="M383 404 L265 649 C261 656 252 659 243 659 C228 659 208 649 205 633 C204 631 204 629 204 628 C204 625 205 623 206 621 L339 345 L273 22 L273 18 C273 7 285 0 297 0 C312 0 332 9 336 26 L401 348 L645 623 C649 627 653 634 653 641 C653 653 641 659 629 659 C618 659 606 654 599 646 L383 404 Z " />
<glyph glyph-name="Z" unicode="Z" horiz-adv-x="600" d="M166 49 L646 619 C649 623 652 628 652 632 C653 633 653 634 653 636 C653 648 641 654 629 654 L242 654 C226 654 203 642 203 624 C203 612 216 605 228 605 L567 605 L88 35 C85 32 81 27 81 22 C80 21 80 20 80 19 C80 7 93 0 105 0 L491 0 C507 0 530 11 530 30 C530 42 518 49 506 49 L166 49 Z " />
<glyph glyph-name="bracketleft" unicode="&#x5b;" horiz-adv-x="600" d="M533 704 L413 704 C398 704 378 695 374 679 L231 -28 C228 -42 241 -51 254 -51 L376 -51 C392 -51 414 -39 414 -21 C414 -9 402 -2 390 -2 L298 -2 L431 655 L519 655 C535 655 557 668 557 686 C557 698 546 704 533 704 L533 704 Z " />
<glyph glyph-name="backslash" unicode="&#x5c;" horiz-adv-x="600" d="M406 -51 C423 -51 443 -41 447 -25 L349 689 C348 701 338 704 329 704 C310 704 289 689 286 676 L384 -35 C385 -47 394 -51 406 -51 L406 -51 Z " />
<glyph glyph-name="bracketright" unicode="&#x5d;" horiz-adv-x="600" d="M431 655 L298 -2 L210 -2 C194 -2 172 -13 172 -32 C172 -44 183 -51 196 -51 L316 -51 C331 -51 351 -41 355 -25 L498 682 C501 696 488 704 475 704 L353 704 C337 704 315 693 315 675 C315 663 327 655 339 655 L431 655 Z " />
<glyph glyph-name="asciicircum" unicode="&#x5e;" horiz-adv-x="600" d="M418 584 L485 471 C486 468 488 466 489 463 C491 459 496 456 502 455 C505 454 508 454 511 454 C531 454 549 466 549 487 C547 492 544 496 542 501 L457 645 C453 651 444 654 435 654 C424 654 413 650 405 643 C355 592 304 541 254 491 C249 486 245 480 245 472 C245 461 257 454 269 454 C272 454 274 454 277 455 C285 456 293 460 299 465 C301 468 304 470 306 473 L418 584 Z " />
<glyph glyph-name="underscore" unicode="&#x5f;" horiz-adv-x="600" d="M128 -128 L418 -128 C434 -128 456 -115 456 -97 C456 -85 444 -79 432 -79 L142 -79 C126 -79 103 -91 103 -109 C103 -121 116 -128 128 -128 L128 -128 Z " />
<glyph glyph-name="grave" unicode="&#x60;" horiz-adv-x="600" d="M414 528 C427 531 443 542 443 557 C443 561 442 564 440 567 L382 644 C377 651 366 652 356 650 C343 648 327 637 327 622 C327 618 328 614 330 611 L388 535 C394 528 405 526 414 528 L414 528 Z " />
<glyph glyph-name="a" unicode="a" horiz-adv-x="600" d="M206 204 L217 254 C234 332 308 400 386 400 L480 400 L401 29 L401 25 C401 13 415 7 426 7 C441 7 462 17 465 33 L548 425 C549 427 549 428 549 430 C548 442 536 447 524 447 L401 447 C290 447 178 361 154 250 L144 200 C140 185 139 171 139 158 L139 157 C139 63 215 7 315 7 C333 7 361 9 366 33 L366 37 C367 52 344 54 329 54 C255 54 203 99 203 170 C203 181 204 192 206 204 L206 204 Z " />
<glyph glyph-name="b" unicode="b" horiz-adv-x="600" d="M484 213 C464 116 396 48 316 48 L224 48 L342 629 L342 632 C343 643 333 650 318 650 C300 650 282 639 279 625 L157 19 C157 8 167 0 182 0 L302 0 C423 0 520 88 548 222 L549 230 C554 252 556 273 556 292 C556 392 495 450 385 450 C355 450 338 441 334 423 L334 418 C333 407 344 402 366 402 L375 402 C450 402 494 355 494 281 C494 268 493 254 490 239 L484 213 Z " />
<glyph glyph-name="c" unicode="c" horiz-adv-x="600" d="M420 460 C330 460 235 380 215 283 L191 168 C189 156 188 144 188 133 C188 54 245 -5 323 -5 C378 -5 447 24 452 48 L452 51 C452 61 443 68 429 68 C423 68 415 67 403 61 C388 54 360 43 335 43 C287 43 251 88 251 144 C251 153 252 162 254 172 L277 287 C291 355 352 412 407 412 C426 412 444 405 459 395 C472 387 480 384 489 384 C502 384 527 395 527 410 C527 433 472 460 420 460 L420 460 Z " />
<glyph glyph-name="d" unicode="d" horiz-adv-x="600" d="M512 625 L477 450 L390 450 C279 450 171 360 148 248 L138 198 C135 184 133 170 133 156 C133 65 199 0 301 0 C335 0 352 7 356 28 C357 29 357 30 357 30 C357 42 346 48 322 48 L318 48 C243 48 196 96 196 166 C196 178 198 189 200 201 L210 251 C225 326 301 402 391 402 L467 402 L390 22 C389 21 389 20 389 19 C390 8 400 0 414 0 C432 0 449 11 452 26 L574 628 C575 629 575 630 575 632 C574 642 565 651 551 651 C533 651 515 639 512 625 L512 625 Z " />
<glyph glyph-name="e" unicode="e" horiz-adv-x="600" d="M314 43 C257 43 220 86 220 140 C220 149 221 159 223 168 L247 281 C261 346 322 403 387 403 C436 403 459 381 459 336 C459 271 414 247 344 247 L299 247 C282 247 257 236 257 216 C257 199 280 199 294 199 L324 199 C431 199 525 237 525 348 C525 415 473 450 401 450 C304 450 205 375 184 278 L160 165 C158 154 156 142 156 130 C156 51 216 -5 300 -5 C331 -5 443 24 452 64 L452 68 C452 80 441 87 428 87 C417 87 408 81 399 75 C398 74 395 72 394 72 C394 72 393 72 392 71 C374 59 348 43 314 43 L314 43 Z " />
<glyph glyph-name="f" unicode="f" horiz-adv-x="600" d="M367 479 L361 450 L270 450 C255 450 231 438 231 420 C232 410 241 401 255 401 L351 401 L274 22 L274 19 C274 9 284 0 298 0 C316 0 334 11 336 26 L413 401 L576 401 C594 401 611 413 614 427 L614 430 C614 441 604 450 590 450 L423 450 L427 470 C444 552 498 607 567 607 C585 607 601 620 604 633 L604 636 C604 647 595 656 580 656 C483 656 387 577 367 479 L367 479 Z " />
<glyph glyph-name="g" unicode="g" horiz-adv-x="600" d="M204 -180 C204 -192 216 -199 229 -199 C327 -199 426 -119 446 -22 L540 418 L540 422 C540 434 529 440 517 440 L393 440 C282 440 168 354 145 243 L134 194 C131 179 130 166 130 153 C130 57 206 0 307 0 C325 0 353 1 358 25 C359 27 359 29 359 31 C359 42 347 47 321 47 C246 47 194 92 194 163 C194 174 195 185 198 197 L208 246 C223 317 297 392 360 392 L471 392 L385 -13 C369 -89 319 -146 242 -151 C227 -152 204 -162 204 -180 L204 -180 Z " />
<glyph glyph-name="h" unicode="h" horiz-adv-x="600" d="M481 27 L532 277 C535 289 536 301 536 312 C536 391 478 450 394 450 L279 450 L315 629 C316 630 316 631 316 632 C315 642 305 651 292 651 C274 651 256 639 253 625 L130 20 C130 9 141 0 155 0 C173 0 190 12 193 27 L269 402 L371 402 C436 402 470 365 470 298 C470 281 468 263 464 243 L419 22 L419 19 C418 9 428 0 443 0 C460 0 479 12 481 27 L481 27 Z " />
<glyph glyph-name="i" unicode="i" horiz-adv-x="600" d="M146 0 L451 0 C467 0 489 11 489 29 C489 41 477 49 465 49 L372 49 L449 427 L449 430 C449 444 437 451 424 451 L280 451 C264 451 241 439 241 421 C241 409 254 402 266 402 L382 402 L310 49 L160 49 C144 49 121 37 121 19 C121 7 134 0 146 0 L146 0 Z M478 578 L488 628 C489 629 489 630 489 632 C488 642 479 651 465 651 C447 651 429 639 426 625 L416 575 L416 571 C416 560 427 552 441 552 C458 552 475 563 478 578 L478 578 Z " />
<glyph glyph-name="j" unicode="j" horiz-adv-x="600" d="M154 -182 C154 -194 167 -201 178 -201 C271 -201 370 -125 391 -25 L483 427 L483 431 C483 444 469 451 457 451 L290 451 C274 451 251 439 251 420 C251 408 265 402 276 402 L417 402 L332 -15 C316 -95 269 -144 191 -152 C175 -154 154 -163 154 -182 L154 -182 Z M514 579 L524 629 L524 633 C524 645 511 652 500 652 C486 652 465 643 461 626 L451 576 L451 572 C451 560 465 553 476 553 C490 553 510 562 514 579 L514 579 Z " />
<glyph glyph-name="k" unicode="k" horiz-adv-x="600" d="M198 26 L246 263 L344 309 L423 15 C426 4 433 -1 443 -1 C461 -1 484 16 487 30 L487 37 C487 38 487 38 486 40 L403 336 L547 405 C556 409 568 419 568 431 C568 442 558 450 544 450 C538 450 532 448 527 446 L257 319 L320 628 L320 632 C320 642 310 650 296 650 C279 650 261 639 258 625 L135 20 C135 9 146 -1 160 -1 C178 -1 195 11 198 26 L198 26 Z " />
<glyph glyph-name="l" unicode="l" horiz-adv-x="600" d="M146 0 L451 0 C467 0 489 11 489 29 C489 41 477 49 465 49 L372 49 L489 629 C489 629 490 630 490 631 C490 644 478 651 465 651 L321 651 C305 651 282 639 282 621 C282 609 295 602 307 602 L422 602 L310 49 L160 49 C144 49 121 37 121 19 C121 7 134 0 146 0 L146 0 Z " />
<glyph glyph-name="m" unicode="m" horiz-adv-x="600" d="M199 402 L239 402 C296 402 329 361 329 297 C329 284 327 268 324 253 L277 22 L277 18 C277 7 285 0 300 0 C318 0 337 12 340 27 L391 277 C393 289 394 301 394 312 C394 391 336 450 253 450 L180 450 C163 450 144 438 142 423 L60 22 L60 19 C59 9 70 0 85 0 C102 0 120 12 122 27 L199 402 Z M607 277 C609 289 610 301 610 312 C610 391 553 450 469 450 L449 450 C432 450 414 437 411 423 C410 422 410 421 410 420 C411 409 420 402 436 402 L444 402 C508 402 545 360 545 296 C545 283 543 269 541 255 L493 22 L493 19 C493 9 502 0 517 0 C534 0 553 13 556 27 L607 277 Z " />
<glyph glyph-name="n" unicode="n" horiz-adv-x="600" d="M268 402 L380 402 C437 402 470 361 470 297 C470 284 468 268 465 253 L418 22 L418 18 C418 7 426 0 441 0 C458 0 478 12 480 27 L531 277 C534 289 535 301 535 312 C535 391 477 450 393 450 L250 450 C232 450 214 438 211 423 L129 20 C129 9 139 0 154 0 C172 0 189 12 192 27 L268 402 Z " />
<glyph glyph-name="o" unicode="o" horiz-adv-x="600" d="M160 168 C158 156 156 144 156 132 C156 53 213 -5 297 -5 C395 -5 490 75 510 172 L534 287 C536 299 537 311 537 323 C537 402 480 460 396 460 C299 460 203 380 183 283 L160 168 Z M246 287 C260 356 321 411 383 411 C437 411 474 368 474 311 C474 302 473 293 471 283 L448 168 C434 99 373 44 312 44 C258 44 220 89 220 145 C220 154 221 163 222 172 L246 287 Z " />
<glyph glyph-name="p" unicode="p" horiz-adv-x="600" d="M552 227 L553 233 C557 253 559 273 559 291 C559 388 500 450 400 450 L280 450 C262 450 244 438 241 423 L119 -181 C118 -182 118 -182 119 -183 C119 -193 129 -200 144 -200 C161 -200 178 -189 181 -175 L299 402 L386 402 C454 402 497 352 497 280 C497 266 495 253 492 238 L485 203 C465 105 396 48 297 48 C277 48 260 37 255 21 L255 18 C254 6 266 0 288 0 C422 0 523 86 552 227 L552 227 Z " />
<glyph glyph-name="q" unicode="q" horiz-adv-x="600" d="M412 -175 L535 427 L535 430 C535 441 526 450 511 450 L391 450 C271 450 171 359 144 226 L142 215 C138 195 136 176 136 158 C136 59 199 0 307 0 C328 0 358 6 358 32 C358 43 348 48 325 48 L315 48 C243 48 199 96 199 171 C199 186 201 201 204 217 L210 245 C228 335 299 402 377 402 L468 402 L350 -179 C349 -180 349 -182 349 -183 C350 -193 360 -200 375 -200 C392 -200 409 -189 412 -175 L412 -175 Z " />
<glyph glyph-name="r" unicode="r" horiz-adv-x="600" d="M279 284 L232 51 L168 51 C151 51 129 38 129 19 C129 7 141 0 154 0 L393 0 C410 0 433 12 433 31 C433 44 420 51 408 51 L293 51 L335 255 C353 344 408 409 467 409 C485 409 516 418 516 441 C516 452 506 460 492 460 C395 460 299 380 279 284 L279 284 Z " />
<glyph glyph-name="s" unicode="s" horiz-adv-x="600" d="M480 150 C480 196 444 232 332 288 C314 298 299 313 299 336 C299 379 342 408 382 408 C402 408 423 398 441 390 C448 386 457 382 467 382 C479 382 502 394 502 409 C502 432 441 456 392 456 C321 456 234 398 234 321 C234 271 279 249 286 246 C387 199 416 171 416 137 C416 72 358 43 300 43 C268 43 245 52 226 78 L224 80 C217 90 208 91 203 91 C188 91 165 79 165 62 C165 33 238 -5 306 -5 C391 -5 480 59 480 150 L480 150 Z " />
<glyph glyph-name="t" unicode="t" horiz-adv-x="600" d="M371 550 C353 550 335 539 332 524 L317 450 L253 450 C237 450 214 439 214 421 C214 410 224 401 238 401 L307 401 L260 168 C257 156 256 144 256 132 C256 53 313 -5 397 -5 C413 -5 436 6 436 25 C436 37 424 44 403 44 C354 44 320 88 320 145 C320 154 321 164 323 175 L369 401 L564 401 C580 401 603 413 603 431 C603 442 593 450 579 450 L379 450 L395 530 C395 541 385 550 371 550 L371 550 Z " />
<glyph glyph-name="u" unicode="u" horiz-adv-x="600" d="M212 424 L161 173 C159 161 157 149 157 137 C157 59 214 0 298 0 L443 0 C460 0 477 11 480 26 L562 427 L562 430 C563 441 553 450 538 450 C521 450 503 439 500 424 L423 49 L313 49 C257 49 223 91 223 155 C223 168 225 182 228 197 L274 427 C275 429 275 430 275 431 C274 442 266 450 252 450 C234 450 215 439 212 424 L212 424 Z " />
<glyph glyph-name="v" unicode="v" horiz-adv-x="600" d="M322 105 L271 445 C270 455 260 460 250 460 C236 460 215 450 212 433 C212 431 270 25 277 4 C278 0 283 -5 295 -5 C310 -5 322 3 328 11 C345 36 544 398 564 435 L565 438 L565 442 C565 454 555 460 543 460 C531 460 516 453 509 441 L322 105 Z " />
<glyph glyph-name="w" unicode="w" horiz-adv-x="600" d="M437 108 L391 317 C389 326 380 330 370 330 C358 330 344 324 337 313 C316 278 230 142 203 107 L203 443 C197 454 186 459 176 459 C163 459 146 451 146 437 L146 12 C153 1 164 -4 174 -4 C186 -4 200 2 207 13 L347 236 L398 9 C400 0 409 -4 419 -4 C431 -4 447 3 453 17 L637 438 C638 439 638 441 638 442 C638 453 627 459 616 459 C604 459 588 452 582 438 L437 108 Z " />
<glyph glyph-name="x" unicode="x" horiz-adv-x="600" d="M261 458 C247 458 228 449 225 432 C224 431 224 430 224 429 C224 426 225 423 226 421 L315 234 L135 29 C131 24 128 18 128 12 C128 1 139 -5 149 -5 C160 -5 171 -1 179 8 L337 187 L423 5 C427 -2 435 -5 443 -5 C459 -5 479 7 480 24 C479 25 479 27 479 28 C479 28 479 29 478 32 L381 237 L546 424 C550 429 553 435 553 441 C553 452 542 458 531 458 C520 458 509 454 501 445 L359 283 L281 448 C277 455 269 458 261 458 L261 458 Z " />
<glyph glyph-name="y" unicode="y" horiz-adv-x="600" d="M229 460 C215 460 193 453 189 434 L212 319 C233 211 255 102 281 -4 L266 -34 C237 -93 200 -170 137 -181 C121 -184 104 -190 104 -209 C104 -225 122 -228 135 -228 C226 -228 279 -120 320 -41 L334 -13 L339 -6 L339 -3 C365 46 562 424 567 449 C567 456 549 460 544 460 C532 460 517 454 510 441 L325 82 C303 195 279 306 253 417 L249 436 C248 436 248 438 248 440 C248 441 248 442 247 443 C247 445 247 447 246 450 C242 458 239 460 229 460 L229 460 Z " />
<glyph glyph-name="z" unicode="z" horiz-adv-x="600" d="M538 432 C538 443 527 450 515 450 L272 450 C255 450 233 437 233 418 C233 405 245 399 258 399 L455 399 L165 42 C158 37 152 28 152 18 C152 7 163 0 177 0 L416 0 C433 0 456 12 456 31 C456 44 443 51 431 51 L234 51 L525 408 C529 412 533 416 535 421 C537 424 538 428 538 432 L538 432 Z " />
<glyph glyph-name="braceleft" unicode="&#x7b;" horiz-adv-x="600" d="M388 434 L280 341 C275 337 269 330 269 322 C269 318 270 315 273 311 L344 217 L320 98 C318 88 317 78 317 68 C317 0 367 -51 439 -51 C456 -51 477 -39 477 -20 C477 -9 468 -3 451 -2 C405 2 372 47 381 90 L409 227 C410 234 407 238 405 241 L339 328 L438 413 C444 418 448 424 449 430 L469 529 C484 603 527 655 577 655 C595 655 621 665 621 686 C621 698 610 704 586 704 C512 704 430 639 415 566 L388 434 Z " />
<glyph glyph-name="bar" unicode="&#x7c;" horiz-adv-x="600" d="M408 679 L264 -28 C261 -42 274 -51 288 -51 C302 -51 323 -41 326 -25 L470 682 C473 696 460 704 446 704 C432 704 411 695 408 679 L408 679 Z " />
<glyph glyph-name="braceright" unicode="&#x7d;" horiz-adv-x="600" d="M393 326 L294 241 C290 237 284 229 283 224 L253 75 C244 34 200 -2 155 -2 C137 -2 110 -10 110 -32 C110 -43 120 -50 135 -50 C219 -50 301 9 316 82 L344 219 L451 312 C456 316 463 325 463 332 C463 336 462 341 459 345 C447 360 400 422 388 438 L417 581 C419 588 419 594 419 601 C419 659 366 704 293 704 C276 704 253 692 253 674 C253 662 264 656 281 656 C325 656 362 613 354 575 L324 426 C323 421 325 415 328 411 L393 326 Z " />
<glyph glyph-name="asciitilde" unicode="&#x7e;" horiz-adv-x="600" d="M405 256 C393 256 386 264 376 275 C366 287 354 303 324 305 C321 306 319 306 316 306 C274 306 234 280 224 244 C222 239 221 234 221 229 C221 209 236 208 252 208 C266 210 273 219 280 238 C286 251 290 258 300 258 C309 258 316 253 323 245 C343 222 356 208 388 208 C430 208 470 233 481 269 C481 271 482 273 482 275 C483 279 483 282 483 284 C483 301 472 306 459 306 C437 306 430 290 430 288 C421 261 416 256 405 256 L405 256 Z " />
<glyph glyph-name="uni00A0" unicode="&#xa0;" horiz-adv-x="600" />
<glyph glyph-name="exclamdown" unicode="&#xa1;" horiz-adv-x="600" d="M233 -182 C230 -196 243 -204 256 -204 C271 -204 291 -193 295 -178 L377 223 C380 237 367 245 353 245 C338 245 318 234 314 219 L233 -182 Z M354 419 L346 379 C343 365 357 357 371 357 C385 357 405 366 408 382 L416 423 C419 438 406 446 393 446 C378 446 357 436 354 419 L354 419 Z " />
<glyph glyph-name="cent" unicode="&#xa2;" horiz-adv-x="600" d="M406 540 L389 457 C309 442 231 370 214 283 L190 168 C188 156 187 144 187 133 C187 63 231 9 296 -3 L278 -91 C275 -106 287 -115 300 -115 C315 -115 335 -104 339 -87 L356 -2 C377 2 451 22 451 51 C451 61 442 68 428 68 C422 68 414 66 402 61 C387 54 359 43 334 43 C286 43 250 88 250 144 C250 153 251 162 253 172 L276 287 C290 355 351 412 406 412 C425 412 443 405 458 395 C471 387 479 384 488 384 C501 384 526 395 526 410 C526 428 490 449 449 457 L467 544 C470 559 458 567 445 567 C430 567 410 557 406 540 L406 540 Z " />
<glyph glyph-name="sterling" unicode="&#xa3;" horiz-adv-x="600" d="M443 553 C353 553 256 473 236 375 L232 352 L193 352 C177 352 153 339 153 322 C153 311 164 303 179 303 L222 303 L170 48 L131 48 C115 48 92 37 92 19 C92 8 102 0 117 0 L479 0 C495 0 518 12 518 30 C518 41 508 48 493 48 L232 48 L284 303 L396 303 C411 303 435 315 435 333 C435 343 425 352 410 352 L294 352 C295 354 295 356 296 359 C313 446 368 505 433 505 C453 505 483 495 497 481 C499 480 501 478 504 476 C511 470 517 466 527 466 C541 466 564 478 564 494 C564 520 500 553 443 553 L443 553 Z " />
<glyph glyph-name="currency" unicode="&#xa4;" horiz-adv-x="600" d="M380 378 C355 378 332 372 311 361 L265 421 C261 426 253 429 245 429 C230 429 207 417 207 400 C207 395 208 391 211 387 L261 321 C238 294 222 261 222 225 C222 209 226 194 232 181 L156 117 C151 112 145 104 145 96 C145 84 157 77 170 77 C180 77 189 81 196 87 L264 145 C280 134 302 128 325 128 C349 128 373 134 394 145 L439 85 C442 80 452 77 459 77 C475 77 497 89 497 106 C497 111 496 115 493 119 C485 130 453 174 444 185 C467 212 483 246 483 281 C483 297 479 312 473 325 L548 390 C554 395 559 402 559 410 C559 422 547 429 535 429 C525 429 515 425 508 419 L440 361 C424 372 403 378 380 378 L380 378 Z M339 177 C306 177 285 204 285 237 C285 279 322 329 366 329 C399 329 419 302 419 268 C419 226 384 177 339 177 L339 177 Z " />
<glyph glyph-name="yen" unicode="&#xa5;" horiz-adv-x="600" d="M336 26 L365 167 L429 167 C445 167 468 178 468 196 C468 208 455 216 443 216 L375 216 L391 292 L454 292 C470 292 493 303 493 322 C493 334 481 341 468 341 L401 341 L412 396 L548 514 C554 519 560 526 560 535 C560 546 548 553 536 553 C526 553 516 550 508 544 L392 443 L314 546 C310 551 302 553 294 553 C279 553 255 542 255 524 C255 520 257 515 259 512 C274 493 335 413 350 394 L339 341 L276 341 C260 341 236 329 236 311 C236 299 249 292 262 292 L329 292 L314 216 L250 216 C234 216 211 203 211 185 C211 173 224 167 236 167 L304 167 L274 22 C271 8 284 0 298 0 C313 0 333 9 336 26 L336 26 Z " />
<glyph glyph-name="brokenbar" unicode="&#xa6;" horiz-adv-x="600" d="M315 224 L274 22 C271 8 284 0 298 0 C313 0 333 9 336 26 L378 228 C381 242 368 250 354 250 C339 250 319 240 315 224 L315 224 Z M397 628 L356 426 C353 412 366 404 380 404 C395 404 415 413 419 429 L460 632 C463 646 450 654 436 654 C421 654 401 644 397 628 L397 628 Z " />
<glyph glyph-name="section" unicode="&#xa7;" horiz-adv-x="600" d="M452 605 L469 605 C513 605 528 611 532 629 C535 644 525 654 508 654 L436 654 C357 654 278 584 278 503 C278 473 289 446 312 427 C269 400 236 349 236 298 C236 246 271 208 325 202 C368 199 393 174 393 138 C393 95 357 44 312 44 C301 44 291 47 275 59 C267 65 262 68 253 68 C239 68 215 58 215 41 C215 19 260 -5 303 -5 C380 -5 456 70 456 148 C456 179 443 207 420 226 C463 253 498 304 498 356 C498 408 462 447 407 452 C364 455 341 478 341 515 C341 585 388 605 452 605 L452 605 Z M354 250 C322 250 300 278 300 312 C300 354 336 404 380 404 C412 404 434 377 434 343 C434 300 399 250 354 250 L354 250 Z " />
<glyph glyph-name="dieresis" unicode="&#xa8;" horiz-adv-x="600" d="M321 613 L313 574 C310 559 324 551 338 551 C352 551 372 560 375 577 L384 617 C386 632 373 640 360 640 C345 640 324 630 321 613 L321 613 Z M468 613 L460 574 C457 559 471 551 484 551 C499 551 519 560 522 577 L530 617 C533 632 520 640 506 640 C492 640 471 630 468 613 L468 613 Z " />
<glyph glyph-name="copyright" unicode="&#xa9;" horiz-adv-x="600" d="M370 359 C316 359 260 310 249 257 L234 181 C223 129 256 83 309 83 C335 83 413 106 413 138 C413 149 403 157 387 157 C377 157 369 153 360 146 C348 137 339 132 329 132 C306 132 291 155 297 185 L312 261 C318 288 340 310 363 310 C372 310 378 307 388 295 C394 289 400 284 410 284 C425 284 449 296 449 314 C449 336 407 359 370 359 L370 359 Z M574 268 C574 370 500 448 393 448 C253 448 116 315 116 174 C116 72 190 -5 297 -5 C438 -5 574 126 574 268 L574 268 Z M311 44 C233 44 179 105 179 185 C179 289 272 399 379 399 C457 399 511 337 511 257 C511 153 418 44 311 44 L311 44 Z " />
<glyph glyph-name="ordfeminine" unicode="&#xaa;" horiz-adv-x="600" d="M432 301 C449 301 467 312 470 326 L501 476 C509 517 481 550 438 550 L379 550 C360 550 339 536 339 516 C339 502 352 502 369 502 L422 502 C434 502 441 493 439 481 L433 450 L370 450 C320 450 272 412 272 360 C272 326 297 302 336 302 L359 302 C377 302 399 316 399 335 C399 347 389 350 366 350 C344 350 334 355 334 368 C334 397 357 402 382 402 L423 402 L407 323 C404 310 416 301 432 301 L432 301 Z " />
<glyph glyph-name="guillemotleft" unicode="&#xab;" horiz-adv-x="600" d="M166 249 C166 245 168 240 170 237 C186 216 250 132 266 111 C270 106 278 103 286 103 C301 103 325 115 325 133 C325 137 323 141 321 144 L237 256 L365 366 C370 371 376 378 376 386 C376 398 363 405 351 405 C341 405 331 401 324 395 L178 269 C172 264 166 257 166 249 L166 249 Z M353 249 C353 245 355 240 357 237 C373 216 437 132 453 111 C457 106 465 103 473 103 C488 103 512 115 512 133 C512 137 510 141 507 144 L423 256 L551 366 C557 371 563 378 563 386 C563 398 550 405 538 405 C528 405 517 401 510 395 L364 269 C359 264 353 257 353 249 L353 249 Z " />
<glyph glyph-name="logicalnot" unicode="&#xac;" horiz-adv-x="600" d="M419 260 L407 201 C405 187 418 179 431 179 C446 179 466 188 470 204 L486 285 C489 300 475 309 462 309 L269 309 C253 309 230 296 230 278 C230 266 243 260 255 260 L419 260 Z " />
<glyph glyph-name="registered" unicode="&#xae;" horiz-adv-x="600" d="M367 505 L429 505 C440 505 443 493 443 484 C443 470 439 457 423 453 C420 452 416 452 411 452 L399 452 C379 452 361 447 361 425 C361 419 362 413 365 408 L414 313 C418 305 429 303 437 303 C454 303 472 314 475 327 C476 329 476 331 475 334 C474 339 472 346 468 354 C466 356 465 359 464 361 L438 408 C474 421 508 454 508 495 C508 529 482 553 444 553 L347 553 C329 553 311 541 308 527 C308 523 307 520 306 516 L267 325 C265 313 275 303 292 303 C296 303 299 303 303 304 C316 308 328 318 331 329 C331 332 332 336 333 339 L367 505 Z M616 476 C616 578 542 654 435 654 C294 654 158 523 158 381 C158 279 232 201 339 201 C479 201 616 334 616 476 L616 476 Z M353 250 C275 250 222 312 222 392 C222 496 314 605 421 605 C499 605 553 545 553 465 C553 361 460 250 353 250 L353 250 Z " />
<glyph glyph-name="macron" unicode="&#xaf;" horiz-adv-x="600" d="M343 575 L487 575 C503 575 526 587 526 605 C526 617 513 623 501 623 L356 623 C341 623 318 610 318 593 C318 580 331 575 343 575 L343 575 Z " />
<glyph glyph-name="degree" unicode="&#xb0;" horiz-adv-x="600" d="M328 520 C328 487 354 462 392 462 C440 462 490 503 490 553 C490 587 464 611 426 611 C379 611 328 570 328 520 L328 520 Z M406 511 C397 511 391 520 391 531 C391 544 399 562 413 562 C423 561 428 550 425 535 C422 521 415 511 406 511 L406 511 Z " />
<glyph glyph-name="plusminus" unicode="&#xb1;" horiz-adv-x="600" d="M249 229 L316 229 L300 150 C297 136 310 128 324 128 C339 128 359 138 363 154 L378 229 L441 229 C457 229 480 240 480 258 C480 270 468 277 455 277 L388 277 L404 356 C407 370 394 378 380 378 C365 378 345 368 341 352 L326 277 L262 277 C247 277 224 266 224 248 C224 236 236 229 249 229 L249 229 Z M197 -26 L390 -26 C406 -26 429 -15 429 4 C429 16 416 24 404 24 L211 24 C195 24 172 11 172 -7 C172 -19 185 -26 197 -26 L197 -26 Z " />
<glyph glyph-name="twosuperior" unicode="&#xb2;" horiz-adv-x="600" d="M422 610 C446 610 461 587 456 559 C452 543 441 527 408 490 L271 338 C267 333 263 328 263 322 C263 311 273 303 287 303 L432 303 C447 303 471 315 471 332 C471 343 460 352 446 352 L350 352 L486 502 C505 523 520 551 520 580 C520 625 486 659 436 659 C410 659 338 640 338 605 C338 594 348 585 363 585 C374 585 380 588 400 602 C402 604 410 610 422 610 L422 610 Z " />
<glyph glyph-name="threesuperior" unicode="&#xb3;" horiz-adv-x="600" d="M421 605 L408 594 C402 589 397 585 393 581 C373 563 370 560 369 554 C366 541 371 534 391 531 C424 525 443 500 443 462 C443 415 414 347 361 347 C348 347 336 352 327 360 C313 374 306 376 296 376 C282 376 259 365 259 348 C259 325 306 298 353 298 C444 298 508 395 508 480 C508 521 489 551 453 568 L491 602 C493 604 496 606 498 608 C503 612 519 627 519 634 C519 649 507 654 494 654 L373 654 C356 654 338 642 335 628 C334 626 334 625 334 624 C334 613 346 605 363 605 L421 605 Z " />
<glyph glyph-name="acute" unicode="&#xb4;" horiz-adv-x="600" d="M383 546 C383 534 394 529 405 529 C413 529 424 532 431 538 L520 614 C526 619 530 627 530 635 C530 646 519 652 509 652 C500 652 490 649 483 643 L394 566 C388 561 383 554 383 546 L383 546 Z " />
<glyph glyph-name="paragraph" unicode="&#xb6;" horiz-adv-x="600" d="M506 26 L629 631 C632 644 621 654 605 654 L388 654 C293 654 199 568 199 471 C199 404 249 353 322 353 L332 353 C352 353 385 357 385 384 C385 395 377 402 361 402 L334 402 C293 402 264 438 264 484 C264 542 312 605 373 605 L465 605 L347 22 C344 10 355 0 371 0 C389 0 406 12 409 27 L527 605 L562 605 L443 22 C441 9 450 -1 467 -1 C485 -1 503 11 506 26 L506 26 Z " />
<glyph glyph-name="periodcentered" unicode="&#xb7;" horiz-adv-x="600" d="M367 326 C335 326 300 299 300 266 C300 242 320 227 344 227 C374 227 412 252 412 284 C412 307 393 326 367 326 L367 326 Z " />
<glyph glyph-name="cedilla" unicode="&#xb8;" horiz-adv-x="600" d="M260 -151 C322 -151 385 -92 385 -30 C385 15 351 48 302 48 L277 48 C261 48 238 36 238 17 C238 6 249 0 272 0 L280 0 C305 0 321 -17 321 -40 C321 -68 299 -103 269 -103 C261 -103 257 -100 252 -94 C240 -83 234 -81 226 -81 C210 -81 186 -92 186 -110 C186 -131 224 -151 260 -151 L260 -151 Z " />
<glyph glyph-name="onesuperior" unicode="&#xb9;" horiz-adv-x="600" d="M429 605 L372 325 C369 311 382 303 396 303 C410 303 431 313 434 329 L496 632 C499 646 485 654 471 654 L399 654 C383 654 361 642 361 624 C361 612 373 605 385 605 L429 605 Z " />
<glyph glyph-name="ordmasculine" unicode="&#xba;" horiz-adv-x="600" d="M516 558 C518 565 518 571 518 578 C518 623 485 656 436 656 C379 656 321 609 310 554 L277 394 C266 339 302 295 358 295 C416 295 472 342 484 398 L516 558 Z M422 394 C417 367 395 345 373 345 C350 345 334 369 340 398 L372 558 C378 585 400 607 422 607 C445 607 461 583 455 554 L422 394 Z " />
<glyph glyph-name="guillemotright" unicode="&#xbb;" horiz-adv-x="600" d="M278 256 L150 145 C144 140 138 133 138 125 C138 113 151 106 163 106 C173 106 183 110 190 117 L337 242 C342 247 348 254 348 262 C348 266 346 271 344 274 C328 295 264 379 248 400 C244 405 236 408 228 408 C213 408 189 396 189 378 C189 374 191 370 194 367 L278 256 Z M470 256 L342 145 C336 140 331 133 331 125 C331 113 343 106 356 106 C366 106 375 110 382 117 L529 242 C535 247 541 254 541 262 C541 266 539 271 537 274 C521 295 457 379 441 400 C437 405 429 408 421 408 C406 408 382 396 382 378 C382 374 384 370 386 367 L470 256 Z " />
<glyph glyph-name="onequarter" unicode="&#xbc;" horiz-adv-x="600" d="M300 -31 C300 -43 312 -50 324 -50 L440 -50 L437 -69 C436 -72 435 -76 435 -79 C432 -94 445 -101 458 -101 C473 -101 495 -91 498 -75 L519 27 C522 41 506 48 493 48 C478 48 459 39 455 22 C455 20 454 17 454 14 L450 -2 L374 -2 L475 201 C481 213 485 220 486 226 C489 243 475 250 460 250 C446 250 433 243 427 232 L318 15 C312 6 300 -22 300 -31 L300 -31 Z M282 605 L228 341 C227 335 226 330 225 325 C222 311 235 303 249 303 C264 303 284 313 288 329 L349 632 C352 646 338 654 324 654 L252 654 C236 654 214 642 214 624 C214 612 226 605 238 605 L282 605 Z M591 693 C592 699 577 707 564 707 C556 707 544 704 540 697 C499 625 141 -28 139 -36 C139 -39 153 -47 167 -47 C182 -47 192 -40 199 -31 L591 693 Z " />
<glyph glyph-name="onehalf" unicode="&#xbd;" horiz-adv-x="600" d="M566 693 C567 699 552 707 540 707 C532 707 520 704 515 697 C475 625 116 -28 115 -36 C115 -39 128 -47 143 -47 C157 -47 168 -40 174 -31 L566 693 Z M501 304 C524 304 540 280 534 253 C531 236 520 220 487 183 L349 32 C346 27 342 21 342 15 C342 4 352 -4 366 -4 L510 -4 C526 -4 549 8 549 26 C549 37 539 45 524 45 L428 45 L565 195 C584 217 598 244 598 274 C598 319 564 353 515 353 C488 353 417 333 417 298 C417 287 427 278 442 278 C452 278 459 281 478 295 C481 298 489 304 501 304 L501 304 Z M251 605 L194 325 C191 311 204 303 218 303 C232 303 253 313 256 329 L318 632 C321 646 307 654 293 654 L221 654 C205 654 183 642 183 624 C183 612 195 605 207 605 L251 605 Z " />
<glyph glyph-name="threequarters" unicode="&#xbe;" horiz-adv-x="600" d="M602 693 C604 699 589 707 576 707 C568 707 556 704 551 697 C511 625 153 -28 151 -36 C151 -39 165 -47 179 -47 C194 -47 204 -40 211 -31 L602 693 Z M334 71 C334 59 345 52 358 52 L474 52 L470 33 C469 30 469 27 468 24 C465 8 478 1 492 1 C507 1 528 11 532 28 L552 129 C555 143 540 150 526 150 C512 150 492 141 489 125 C488 122 488 119 487 117 L484 100 L407 100 L508 304 C515 315 518 322 519 328 C523 346 509 353 494 353 C479 353 466 346 461 334 L351 118 C350 114 348 111 346 107 C342 99 334 81 334 71 L334 71 Z M112 348 C112 325 159 298 206 298 C297 298 361 395 361 480 C361 521 342 551 306 568 L344 602 C346 604 349 606 351 608 C356 612 372 627 372 634 C372 649 360 654 347 654 L227 654 C209 654 191 642 188 628 C188 610 201 605 217 605 L274 605 L261 594 C227 564 223 561 222 554 C219 541 225 534 245 531 C278 525 296 500 296 462 C296 415 268 347 214 347 C201 347 190 352 180 360 C166 374 159 376 150 376 C135 376 112 365 112 348 L112 348 Z " />
<glyph glyph-name="questiondown" unicode="&#xbf;" horiz-adv-x="600" d="M260 -196 C226 -196 210 -182 202 -174 C186 -158 179 -155 170 -155 C155 -155 136 -165 136 -182 C136 -190 142 -196 147 -201 L148 -202 C174 -231 210 -245 251 -245 C356 -245 455 -151 455 -45 C455 -16 447 11 431 34 C399 80 373 119 373 178 C373 188 373 198 375 210 C376 218 377 226 377 233 C377 247 372 258 353 258 C337 258 320 250 317 235 C312 215 311 197 311 179 C311 122 330 76 359 35 C380 4 392 -24 392 -55 C392 -127 336 -196 260 -196 L260 -196 Z M341 352 C338 335 354 325 369 325 C383 325 399 333 402 348 L410 388 C414 405 398 414 383 414 C370 414 352 406 349 392 L341 352 Z " />
<glyph glyph-name="Agrave" unicode="&#xc0;" horiz-adv-x="600" d="M526 26 L514 147 C497 308 480 465 459 628 C457 644 449 652 435 652 C417 652 407 642 398 627 L73 7 C81 0 93 -6 106 -3 C131 2 147 39 159 64 L166 78 L459 78 L465 21 C467 3 469 -6 482 -6 C502 -6 526 3 526 26 L526 26 Z M446 692 C460 695 476 705 476 721 C476 724 474 728 472 731 L414 808 C409 815 398 816 389 814 C375 811 359 800 359 785 C359 782 360 778 363 775 L420 698 C426 691 437 690 446 692 L446 692 Z M192 127 L407 533 L453 127 L192 127 Z " />
<glyph glyph-name="Aacute" unicode="&#xc1;" horiz-adv-x="600" d="M486 -5 C503 -5 527 5 527 25 C527 31 526 43 523 68 L461 617 C461 618 461 618 461 619 C460 620 459 629 459 631 C460 646 447 652 435 652 C427 652 420 650 415 646 C408 643 401 638 400 633 L399 627 L74 7 C73 4 86 -4 101 -4 C112 -4 124 2 131 12 C137 19 145 36 153 52 L167 78 L460 78 L464 42 C464 41 464 41 464 39 C464 38 465 38 465 36 C465 35 465 35 465 33 C465 32 465 32 465 30 C469 3 473 -5 486 -5 L486 -5 Z M468 725 C468 713 479 707 490 707 L495 708 C503 709 510 712 516 717 L605 793 C608 796 615 805 615 810 C616 811 616 813 616 814 C616 825 605 831 594 831 L589 831 C581 830 574 827 568 822 L479 745 C473 740 468 733 468 725 L468 725 Z M193 127 L408 533 L454 127 L193 127 Z " />
<glyph glyph-name="Acircumflex" unicode="&#xc2;" horiz-adv-x="600" d="M74 7 C73 4 86 -4 101 -4 C114 -4 125 3 131 12 C137 19 145 36 153 52 L167 78 L460 78 L465 30 C469 3 473 -5 486 -5 C503 -5 527 5 527 25 C527 31 526 43 523 68 C513 160 471 526 461 617 C460 622 460 627 459 631 C460 642 453 649 444 651 C443 652 441 652 439 652 C438 652 437 652 437 652 C436 652 435 652 435 652 C427 652 420 650 415 646 C408 643 401 638 400 633 C400 631 400 629 399 627 L74 7 Z M193 127 L408 533 L454 127 L193 127 Z M454 769 L496 714 C500 708 507 706 514 706 C530 706 551 718 551 736 C551 740 550 743 548 746 L490 823 C486 828 479 830 472 830 C463 830 453 827 445 821 L356 744 C351 739 346 732 346 724 C346 712 357 706 367 706 C376 706 387 709 394 716 L454 769 Z " />
<glyph glyph-name="Atilde" unicode="&#xc3;" horiz-adv-x="600" d="M74 7 C73 4 86 -4 101 -4 C114 -4 125 3 131 12 C137 19 145 36 153 52 L167 78 L460 78 L465 30 C469 3 473 -5 486 -5 C503 -5 527 5 527 25 C527 31 526 43 523 68 L461 617 C460 622 460 627 459 631 C460 642 453 649 444 651 C443 652 441 652 439 652 C438 652 437 652 437 652 C436 652 435 652 435 652 C427 652 420 650 415 646 C408 643 401 638 400 633 C400 631 400 629 399 627 L74 7 Z M193 127 L408 533 L454 127 L193 127 Z M510 773 C498 773 491 781 482 792 C472 805 459 820 429 823 C387 823 342 804 329 761 C327 756 326 751 326 746 C326 726 341 725 357 725 C371 727 378 737 385 756 C391 769 395 775 405 775 C415 775 421 770 428 763 C449 740 462 727 488 725 C529 725 573 745 586 787 C586 788 587 790 587 792 C588 796 588 799 588 802 C588 818 578 823 564 823 C542 823 536 808 535 806 C526 778 521 773 510 773 L510 773 Z " />
<glyph glyph-name="Adieresis" unicode="&#xc4;" horiz-adv-x="600" d="M486 -5 C503 -5 527 5 527 25 C527 31 526 43 523 68 C523 74 522 79 522 84 C501 262 481 440 461 617 C460 622 460 627 459 631 C460 642 453 649 444 651 C441 652 438 652 435 652 C427 652 420 650 415 646 C408 643 401 638 400 633 C400 631 400 629 399 627 L74 7 C73 4 86 -4 101 -4 C105 -4 109 -3 113 -2 C121 1 127 6 131 12 C137 19 145 36 153 52 L167 78 L460 78 L464 42 C465 38 465 34 465 30 C469 3 473 -5 486 -5 L486 -5 Z M357 792 L350 758 C350 756 350 754 349 752 C346 738 360 730 374 730 C389 730 408 739 412 756 L419 791 C419 793 420 794 420 796 C423 811 410 819 396 819 C381 819 361 809 357 792 L357 792 Z M504 792 L497 758 C497 756 496 754 496 752 C493 738 507 730 521 730 C536 730 555 739 558 756 L565 791 C566 793 566 794 567 796 C570 811 557 819 543 819 C528 819 507 809 504 792 L504 792 Z M193 127 L408 533 L454 127 L193 127 Z " />
<glyph glyph-name="Aring" unicode="&#xc5;" horiz-adv-x="600" d="M554 750 C554 796 518 829 471 829 C407 829 343 772 343 707 C343 671 365 643 398 633 C398 631 398 629 397 627 L72 7 C71 4 84 -4 99 -4 C112 -4 123 3 129 12 C135 19 143 36 151 52 L165 78 L458 78 L464 30 C467 3 471 -5 484 -5 C501 -5 525 5 525 25 C525 31 524 43 521 68 C511 160 469 526 459 617 C458 622 458 627 457 631 C457 632 457 632 457 633 C509 647 554 696 554 750 L554 750 Z M191 127 L406 533 L452 127 L191 127 Z M440 677 C419 677 406 696 406 718 C406 746 428 780 458 780 C478 780 491 762 491 739 C491 712 469 677 440 677 L440 677 Z " />
<glyph glyph-name="AE" unicode="&#xc6;" horiz-adv-x="600" d="M440 -24 L512 -24 C528 -24 549 -12 549 6 C549 20 533 25 516 25 L472 25 C421 25 377 34 377 93 L376 106 C376 108 376 110 376 111 L377 113 L393 385 L498 385 C514 385 535 397 535 415 C535 427 524 432 513 432 L395 432 L405 590 L637 590 C653 590 674 602 674 620 C674 631 663 637 653 637 L385 637 C371 637 353 629 349 613 C317 548 54 7 50 -12 C50 -17 62 -24 73 -24 C86 -24 101 -16 108 -3 C114 11 141 65 147 79 L319 79 C328 10 371 -24 440 -24 L440 -24 Z M170 126 C198 185 312 421 341 479 L319 126 L170 126 Z " />
<glyph glyph-name="Ccedilla" unicode="&#xc7;" horiz-adv-x="600" d="M298 -154 C359 -154 422 -96 422 -33 C422 -18 419 -4 411 8 C456 20 501 40 501 69 C501 80 492 89 478 89 C470 89 463 86 454 81 C429 64 388 47 351 44 C347 45 343 45 339 45 L325 45 C262 53 216 109 216 184 C216 196 217 209 220 223 L264 440 C284 538 371 615 463 615 C496 615 520 605 546 584 C559 573 564 571 570 571 C587 571 610 583 610 602 C610 634 542 665 473 665 C348 665 226 560 201 436 L157 219 C154 203 152 188 152 173 C152 87 205 18 288 0 C291 -2 295 -2 300 -3 C310 -4 321 -5 332 -5 C348 -10 358 -25 358 -44 C358 -71 336 -106 307 -106 C299 -106 295 -103 289 -97 C278 -86 271 -84 263 -84 C248 -84 224 -95 224 -113 C224 -134 262 -154 298 -154 L298 -154 Z " />
<glyph glyph-name="Egrave" unicode="&#xc8;" horiz-adv-x="600" d="M609 654 L271 654 C256 654 236 644 233 628 L120 73 C111 30 142 0 183 0 L472 0 C488 0 511 12 511 31 C511 43 498 48 486 48 L206 48 C187 48 178 56 183 77 L239 354 L375 354 C391 354 414 365 414 383 C414 396 401 402 389 402 L249 402 L290 605 L595 605 C612 605 634 618 634 636 C634 648 622 654 609 654 L609 654 Z M417 706 C433 706 454 718 454 736 C454 740 453 743 451 746 L393 823 C389 828 382 830 375 830 C359 830 338 818 338 801 C338 797 339 793 341 790 L399 714 C403 708 410 706 417 706 L417 706 Z " />
<glyph glyph-name="Eacute" unicode="&#xc9;" horiz-adv-x="600" d="M609 654 L271 654 C256 654 236 644 233 628 L120 73 C111 30 142 0 183 0 L472 0 C488 0 511 12 511 31 C511 43 498 48 486 48 L206 48 C187 48 178 56 183 77 L239 354 L375 354 C391 354 414 365 414 383 C414 396 401 402 389 402 L249 402 L290 605 L595 605 C612 605 634 618 634 636 C634 648 622 654 609 654 L609 654 Z M468 725 C468 713 479 707 490 707 C499 707 509 711 516 717 L605 793 C611 798 616 806 616 814 C616 825 605 831 594 831 C585 831 575 828 568 822 L479 745 C473 740 468 733 468 725 L468 725 Z " />
<glyph glyph-name="Ecircumflex" unicode="&#xca;" horiz-adv-x="600" d="M609 654 L271 654 C256 654 236 644 233 628 L120 73 C111 30 142 0 183 0 L472 0 C488 0 511 12 511 31 C511 43 498 48 486 48 L206 48 C187 48 178 56 183 77 L239 354 L375 354 C391 354 414 365 414 383 C414 396 401 402 389 402 L249 402 L290 605 L595 605 C612 605 634 618 634 636 C634 648 622 654 609 654 L609 654 Z M454 769 L496 714 C500 708 507 706 514 706 C530 706 551 718 551 736 C551 740 550 743 548 746 L490 823 C486 828 479 830 472 830 C463 830 453 827 445 821 L356 744 C351 739 346 732 346 724 C346 712 357 706 367 706 C376 706 387 709 394 716 L454 769 Z " />
<glyph glyph-name="Edieresis" unicode="&#xcb;" horiz-adv-x="600" d="M609 654 L271 654 C256 654 236 644 233 628 L120 73 C111 30 142 0 183 0 L472 0 C488 0 511 12 511 31 C511 43 498 48 486 48 L206 48 C187 48 178 56 183 77 L239 354 L375 354 C391 354 414 365 414 383 C414 396 401 402 389 402 L249 402 L290 605 L595 605 C612 605 634 618 634 636 C634 648 622 654 609 654 L609 654 Z M357 792 L349 752 C346 738 360 730 374 730 C389 730 408 739 412 756 L420 796 C423 811 410 819 396 819 C381 819 361 809 357 792 L357 792 Z M504 792 L496 752 C493 738 507 730 521 730 C536 730 555 739 558 756 L567 796 C570 811 557 819 543 819 C528 819 507 809 504 792 L504 792 Z " />
<glyph glyph-name="Igrave" unicode="&#xcc;" horiz-adv-x="600" d="M178 0 L417 0 C434 0 456 12 456 31 C456 44 444 51 432 51 L342 51 L454 603 L540 603 C557 603 579 615 579 634 C579 647 567 654 554 654 L315 654 C298 654 275 641 275 622 C275 610 288 603 300 603 L392 603 L280 51 L192 51 C175 51 153 38 153 19 C153 7 165 0 178 0 L178 0 Z M394 706 C410 706 431 718 431 736 C431 740 430 743 427 746 L370 823 C366 828 358 830 351 830 C336 830 315 818 315 801 C315 797 316 793 318 790 L376 714 C380 708 387 706 394 706 L394 706 Z " />
<glyph glyph-name="Iacute" unicode="&#xcd;" horiz-adv-x="600" d="M178 0 L417 0 C434 0 456 12 456 31 C456 44 444 51 432 51 L342 51 L454 603 L540 603 C557 603 579 615 579 634 C579 647 567 654 554 654 L315 654 C298 654 275 641 275 622 C275 610 288 603 300 603 L392 603 L280 51 L192 51 C175 51 153 38 153 19 C153 7 165 0 178 0 L178 0 Z M468 725 C468 713 479 707 490 707 C499 707 509 711 516 717 L605 793 C611 798 616 806 616 814 C616 825 605 831 594 831 C585 831 575 828 568 822 L479 745 C473 740 468 733 468 725 L468 725 Z " />
<glyph glyph-name="Icircumflex" unicode="&#xce;" horiz-adv-x="600" d="M178 0 L417 0 C434 0 456 12 456 31 C456 44 444 51 432 51 L342 51 L454 603 L540 603 C557 603 579 615 579 634 C579 647 567 654 554 654 L315 654 C298 654 275 641 275 622 C275 610 288 603 300 603 L392 603 L280 51 L192 51 C175 51 153 38 153 19 C153 7 165 0 178 0 L178 0 Z M454 769 L496 714 C500 708 507 706 514 706 C530 706 551 718 551 736 C551 740 550 743 548 746 L490 823 C486 828 479 830 472 830 C463 830 453 827 445 821 L356 744 C351 739 346 732 346 724 C346 712 357 706 367 706 C376 706 387 709 394 716 L454 769 Z " />
<glyph glyph-name="Idieresis" unicode="&#xcf;" horiz-adv-x="600" d="M178 0 L417 0 C434 0 456 12 456 31 C456 44 444 51 432 51 L342 51 L454 603 L540 603 C557 603 579 615 579 634 C579 647 567 654 554 654 L315 654 C298 654 275 641 275 622 C275 610 288 603 300 603 L392 603 L280 51 L192 51 C175 51 153 38 153 19 C153 7 165 0 178 0 L178 0 Z M357 792 L349 752 C346 738 360 730 374 730 C389 730 408 739 412 756 L420 796 C423 811 410 819 396 819 C381 819 361 809 357 792 L357 792 Z M504 792 L496 752 C493 738 507 730 521 730 C536 730 555 739 558 756 L567 796 C570 811 557 819 543 819 C528 819 507 809 504 792 L504 792 Z " />
<glyph glyph-name="Eth" unicode="&#xd0;" horiz-adv-x="600" d="M159 383 L178 383 L105 22 C103 10 113 0 129 0 L275 0 C426 0 574 125 605 278 L626 379 C629 398 631 417 631 435 C631 560 541 654 411 654 L266 654 C248 654 231 642 228 628 L188 432 L173 432 C157 432 134 420 134 402 C134 390 146 383 159 383 L159 383 Z M172 48 L240 383 L352 383 C367 383 390 394 390 413 C390 425 378 432 365 432 L250 432 L285 605 L398 605 C499 605 568 528 568 424 C568 409 567 392 563 375 L543 275 C517 150 403 48 287 48 L172 48 Z " />
<glyph glyph-name="Ntilde" unicode="&#xd1;" horiz-adv-x="600" d="M242 654 C228 654 207 644 204 628 L81 22 C78 8 91 0 104 0 C119 0 139 9 143 26 L252 563 L516 266 L467 22 C464 8 477 0 491 0 C505 0 526 9 529 26 L652 632 C655 646 642 654 629 654 C614 654 593 644 590 628 L532 344 L261 647 C258 652 250 654 242 654 L242 654 Z M510 773 C498 773 491 781 482 792 C472 805 459 820 429 823 C387 823 342 804 329 761 C327 756 326 751 326 746 C326 726 341 725 357 725 C371 727 378 737 385 756 C391 769 395 775 405 775 C415 775 421 770 428 763 C449 740 462 727 488 725 C529 725 573 745 586 787 C586 788 587 790 587 792 C588 796 588 799 588 802 C588 818 578 823 564 823 C542 823 536 808 535 806 C526 778 521 773 510 773 L510 773 Z " />
<glyph glyph-name="Ograve" unicode="&#xd2;" horiz-adv-x="600" d="M569 223 L613 440 C617 455 618 470 618 485 C618 587 544 665 437 665 C313 665 190 561 165 437 L120 219 C117 203 116 188 116 174 C116 72 190 -5 297 -5 C421 -5 544 98 569 223 L569 223 Z M406 706 C422 706 443 718 443 736 C443 740 442 743 440 746 L382 823 C378 828 371 830 364 830 C348 830 327 818 327 801 C327 797 328 793 331 790 L388 714 C392 708 400 706 406 706 L406 706 Z M311 44 C234 44 179 107 179 186 C179 198 180 210 183 223 L227 440 C247 536 335 615 423 615 C501 615 555 555 555 475 C555 462 554 450 551 437 L507 219 C487 123 399 44 311 44 L311 44 Z " />
<glyph glyph-name="Oacute" unicode="&#xd3;" horiz-adv-x="600" d="M569 223 L613 440 C617 455 618 470 618 485 C618 587 544 665 437 665 C313 665 190 561 165 437 L120 219 C117 203 116 188 116 174 C116 72 190 -5 297 -5 C421 -5 544 98 569 223 L569 223 Z M468 725 C468 713 479 707 490 707 C499 707 509 711 516 717 L605 793 C611 798 616 806 616 814 C616 825 605 831 594 831 C585 831 575 828 568 822 L479 745 C473 740 468 733 468 725 L468 725 Z M311 44 C234 44 179 107 179 186 C179 198 180 210 183 223 L227 440 C247 536 335 615 423 615 C501 615 555 555 555 475 C555 462 554 450 551 437 L507 219 C487 123 399 44 311 44 L311 44 Z " />
<glyph glyph-name="Ocircumflex" unicode="&#xd4;" horiz-adv-x="600" d="M569 223 L613 440 C617 455 618 470 618 485 C618 587 544 665 437 665 C313 665 190 561 165 437 L120 219 C117 203 116 188 116 174 C116 72 190 -5 297 -5 C421 -5 544 98 569 223 L569 223 Z M454 769 L496 714 C500 708 507 706 514 706 C530 706 551 718 551 736 C551 740 550 743 548 746 L490 823 C486 828 479 830 472 830 C463 830 453 827 445 821 L356 744 C351 739 346 732 346 724 C346 712 357 706 367 706 C376 706 387 709 394 716 L454 769 Z M311 44 C234 44 179 107 179 186 C179 198 180 210 183 223 L227 440 C247 536 335 615 423 615 C501 615 555 555 555 475 C555 462 554 450 551 437 L507 219 C487 123 399 44 311 44 L311 44 Z " />
<glyph glyph-name="Otilde" unicode="&#xd5;" horiz-adv-x="600" d="M569 223 L613 440 C617 455 618 470 618 485 C618 587 544 665 437 665 C313 665 190 561 165 437 L120 219 C117 203 116 188 116 174 C116 72 190 -5 297 -5 C421 -5 544 98 569 223 L569 223 Z M510 773 C498 773 491 781 482 792 C472 805 459 820 429 823 C387 823 342 804 329 761 C327 756 326 751 326 746 C326 726 341 725 357 725 C371 727 378 737 385 756 C391 769 395 775 405 775 C415 775 421 770 428 763 C449 740 462 727 488 725 C529 725 573 745 586 787 C586 788 587 790 587 792 C588 796 588 799 588 802 C588 818 578 823 564 823 C542 823 536 808 535 806 C526 778 521 773 510 773 L510 773 Z M311 44 C234 44 179 107 179 186 C179 198 180 210 183 223 L227 440 C247 536 335 615 423 615 C501 615 555 555 555 475 C555 462 554 450 551 437 L507 219 C487 123 399 44 311 44 L311 44 Z " />
<glyph glyph-name="Odieresis" unicode="&#xd6;" horiz-adv-x="600" d="M569 223 L613 440 C617 455 618 470 618 485 C618 587 544 665 437 665 C313 665 190 561 165 437 L120 219 C117 203 116 188 116 174 C116 72 190 -5 297 -5 C421 -5 544 98 569 223 L569 223 Z M357 792 L349 752 C346 738 360 730 374 730 C389 730 408 739 412 756 L420 796 C423 811 410 819 396 819 C381 819 361 809 357 792 L357 792 Z M504 792 L496 752 C493 738 507 730 521 730 C536 730 555 739 558 756 L567 796 C570 811 557 819 543 819 C528 819 507 809 504 792 L504 792 Z M311 44 C234 44 179 107 179 186 C179 198 180 210 183 223 L227 440 C247 536 335 615 423 615 C501 615 555 555 555 475 C555 462 554 450 551 437 L507 219 C487 123 399 44 311 44 L311 44 Z " />
<glyph glyph-name="multiply" unicode="&#xd7;" horiz-adv-x="600" d="M506 383 C506 395 493 402 481 402 C471 402 461 399 454 393 L366 317 L308 395 C304 400 296 402 288 402 C273 402 249 390 249 372 C249 368 251 364 253 361 L318 275 L219 190 C214 185 208 178 208 170 C208 158 220 151 233 151 C243 151 252 155 259 162 C274 174 332 224 347 236 L406 158 C409 153 418 151 426 151 C441 151 465 163 465 181 C465 185 463 189 460 192 L396 278 L494 363 C500 368 506 375 506 383 L506 383 Z " />
<glyph glyph-name="Oslash" unicode="&#xd8;" horiz-adv-x="600" d="M569 223 L613 440 C617 455 618 470 618 485 C618 543 594 593 554 625 L591 693 C592 699 577 707 564 707 C556 707 544 704 540 697 C535 689 526 672 513 650 C491 659 465 665 437 665 C313 665 190 561 165 437 L120 219 C117 203 116 188 116 174 C116 117 139 68 177 36 C154 -7 139 -34 139 -36 C139 -39 153 -47 167 -47 C182 -47 192 -40 199 -31 L221 10 C243 0 269 -5 297 -5 C421 -5 544 98 569 223 L569 223 Z M183 223 L227 440 C247 536 335 615 423 615 C447 615 468 610 486 600 C413 468 288 239 209 94 C190 119 179 151 179 186 C179 198 180 210 183 223 L183 223 Z M311 44 C288 44 266 50 248 60 L524 569 C544 545 555 512 555 475 C555 462 554 450 551 437 L507 219 C487 123 399 44 311 44 L311 44 Z " />
<glyph glyph-name="Ugrave" unicode="&#xd9;" horiz-adv-x="600" d="M204 628 L120 219 C117 203 116 188 116 173 C116 71 189 -5 297 -5 C421 -5 544 97 569 223 L652 632 C655 644 645 654 629 654 C611 654 593 642 590 628 L508 223 C488 124 399 44 310 44 C232 44 181 105 181 189 C181 204 182 219 185 234 L266 632 C269 644 259 654 242 654 C225 654 207 642 204 628 L204 628 Z M406 706 C422 706 443 718 443 736 C443 740 442 743 440 746 L382 823 C378 828 371 830 364 830 C348 830 327 818 327 801 C327 797 328 793 331 790 L388 714 C392 708 400 706 406 706 L406 706 Z " />
<glyph glyph-name="Uacute" unicode="&#xda;" horiz-adv-x="600" d="M204 628 L120 219 C117 203 116 188 116 173 C116 71 189 -5 297 -5 C421 -5 544 97 569 223 L652 632 C655 644 645 654 629 654 C611 654 593 642 590 628 L508 223 C488 124 399 44 310 44 C232 44 181 105 181 189 C181 204 182 219 185 234 L266 632 C269 644 259 654 242 654 C225 654 207 642 204 628 L204 628 Z M456 725 C456 713 467 707 477 707 C486 707 496 711 503 717 L592 793 C598 798 603 806 603 814 C603 825 592 831 582 831 C573 831 562 828 555 822 L466 745 C460 740 456 733 456 725 L456 725 Z " />
<glyph glyph-name="Ucircumflex" unicode="&#xdb;" horiz-adv-x="600" d="M204 628 L120 219 C117 203 116 188 116 173 C116 71 189 -5 297 -5 C421 -5 544 97 569 223 L652 632 C655 644 645 654 629 654 C611 654 593 642 590 628 L508 223 C488 124 399 44 310 44 C232 44 181 105 181 189 C181 204 182 219 185 234 L266 632 C269 644 259 654 242 654 C225 654 207 642 204 628 L204 628 Z M454 769 L496 714 C500 708 507 706 514 706 C530 706 551 718 551 736 C551 740 550 743 548 746 L490 823 C486 828 479 830 472 830 C463 830 453 827 445 821 L356 744 C351 739 346 732 346 724 C346 712 357 706 367 706 C376 706 387 709 394 716 L454 769 Z " />
<glyph glyph-name="Udieresis" unicode="&#xdc;" horiz-adv-x="600" d="M204 628 L120 219 C117 203 116 188 116 173 C116 71 189 -5 297 -5 C421 -5 544 97 569 223 L652 632 C655 644 645 654 629 654 C611 654 593 642 590 628 L508 223 C488 124 399 44 310 44 C232 44 181 105 181 189 C181 204 182 219 185 234 L266 632 C269 644 259 654 242 654 C225 654 207 642 204 628 L204 628 Z M357 792 L349 752 C346 738 360 730 374 730 C389 730 408 739 412 756 L420 796 C423 811 410 819 396 819 C381 819 361 809 357 792 L357 792 Z M504 792 L496 752 C493 738 507 730 521 730 C536 730 555 739 558 756 L567 796 C570 811 557 819 543 819 C528 819 507 809 504 792 L504 792 Z " />
<glyph glyph-name="Yacute" unicode="&#xdd;" horiz-adv-x="600" d="M383 404 L265 649 C261 656 252 659 243 659 C228 659 208 649 205 633 C204 629 204 625 206 621 L339 345 L273 22 C270 8 283 0 297 0 C312 0 332 9 336 26 L401 348 L645 623 C649 627 653 634 653 641 C653 653 641 659 629 659 C618 659 606 654 599 646 L383 404 Z M468 725 C468 713 479 707 490 707 C499 707 509 711 516 717 L605 793 C611 798 616 806 616 814 C616 825 605 831 594 831 C585 831 575 828 568 822 L479 745 C473 740 468 733 468 725 L468 725 Z " />
<glyph glyph-name="Thorn" unicode="&#xde;" horiz-adv-x="600" d="M204 628 L81 22 C78 10 89 0 105 0 C123 0 140 11 143 26 L158 101 L324 101 C462 101 595 233 595 372 C595 475 521 553 414 553 L250 553 L266 632 C269 644 258 654 242 654 C225 654 207 642 204 628 L204 628 Z M240 504 L401 504 C478 504 532 442 532 362 C532 247 432 149 318 149 L168 149 L240 504 Z " />
<glyph glyph-name="germandbls" unicode="&#xdf;" horiz-adv-x="600" d="M384 602 L503 602 L361 448 C354 440 342 427 342 416 C342 405 354 402 383 402 L421 402 C512 402 555 370 555 304 C555 292 553 278 550 264 L540 215 C519 108 453 48 357 48 L252 48 C237 48 213 37 213 19 C213 8 223 0 238 0 L358 0 C472 0 577 87 600 202 L615 272 C617 285 619 298 619 311 C619 395 556 450 453 450 L431 450 L582 619 C586 624 590 629 591 633 C593 644 583 650 566 650 L398 650 C314 650 231 582 215 499 L205 450 L166 450 C150 450 127 438 127 420 C127 409 137 402 152 402 L195 402 L118 22 C115 10 125 0 142 0 C159 0 177 12 180 27 L274 490 C288 556 332 602 384 602 L384 602 Z " />
<glyph glyph-name="agrave" unicode="&#xe0;" horiz-adv-x="600" d="M206 204 L217 254 C234 332 308 400 386 400 L480 400 L401 29 L401 25 C401 13 415 7 426 7 C441 7 462 17 465 33 L548 425 C549 427 549 428 549 430 C548 442 536 447 524 447 L401 447 C290 447 178 361 154 250 L144 200 C140 185 139 171 139 158 L139 157 C139 63 215 7 315 7 C333 7 361 9 366 33 L366 37 C367 52 344 54 329 54 C255 54 203 99 203 170 C203 181 204 192 206 204 L206 204 Z M385 522 C398 525 414 536 414 551 C414 555 413 558 411 561 L353 638 C348 645 337 646 327 644 C314 641 298 631 298 616 C298 612 299 608 301 605 L359 529 C365 521 376 520 385 522 L385 522 Z " />
<glyph glyph-name="aacute" unicode="&#xe1;" horiz-adv-x="600" d="M206 204 L217 254 C234 332 308 400 386 400 L480 400 L401 29 L401 25 C401 13 415 7 426 7 C441 7 462 17 465 33 L548 425 C549 427 549 428 549 430 C548 442 536 447 524 447 L401 447 C290 447 178 361 154 250 L144 200 C140 185 139 171 139 158 L139 157 C139 63 215 7 315 7 C333 7 361 9 366 33 L366 37 C367 52 344 54 329 54 C255 54 203 99 203 170 C203 181 204 192 206 204 L206 204 Z M354 540 C354 528 365 522 376 522 C384 522 395 525 402 532 L491 608 C497 613 501 621 501 629 C501 640 490 646 480 646 C471 646 461 643 454 637 L365 560 C359 555 354 548 354 540 L354 540 Z " />
<glyph glyph-name="acircumflex" unicode="&#xe2;" horiz-adv-x="600" d="M206 204 L217 254 C234 332 308 400 386 400 L480 400 L401 29 L401 25 C401 13 415 7 426 7 C441 7 462 17 465 33 L548 425 C549 427 549 428 549 430 C548 442 536 447 524 447 L401 447 C290 447 178 361 154 250 L144 200 C140 185 139 171 139 158 L139 157 C139 63 215 7 315 7 C333 7 361 9 366 33 L366 37 C367 52 344 54 329 54 C255 54 203 99 203 170 C203 181 204 192 206 204 L206 204 Z M389 584 L431 529 C434 523 442 521 449 521 C465 521 486 533 486 551 C486 555 485 558 482 561 L424 638 C421 643 413 645 406 645 C398 645 387 642 380 636 L291 559 C285 554 280 547 280 539 C280 527 291 521 302 521 C311 521 321 524 328 531 L389 584 Z " />
<glyph glyph-name="atilde" unicode="&#xe3;" horiz-adv-x="600" d="M206 204 L217 254 C234 332 308 400 386 400 L480 400 L401 29 L401 25 C401 13 415 7 426 7 C441 7 462 17 465 33 L548 425 C549 427 549 428 549 430 C548 442 536 447 524 447 L401 447 C290 447 178 361 154 250 L144 200 C140 185 139 171 139 158 L139 157 C139 63 215 7 315 7 C333 7 361 9 366 33 L366 37 C367 52 344 54 329 54 C255 54 203 99 203 170 C203 181 204 192 206 204 L206 204 Z M445 588 C433 588 426 596 416 607 C406 620 393 635 364 638 C322 638 276 620 264 576 C263 574 262 572 262 570 C261 567 261 564 261 561 C261 541 276 540 292 540 C306 542 313 552 320 570 C325 584 330 590 339 590 C349 590 356 585 362 578 C383 555 397 542 422 540 C462 540 508 559 520 601 C521 603 522 605 522 607 C523 611 523 614 523 617 C523 633 512 638 499 638 C476 638 470 623 470 621 C460 593 455 588 445 588 L445 588 Z " />
<glyph glyph-name="adieresis" unicode="&#xe4;" horiz-adv-x="600" d="M206 204 L217 254 C234 332 308 400 386 400 L480 400 L401 29 L401 25 C401 13 415 7 426 7 C441 7 462 17 465 33 L548 425 C549 427 549 428 549 430 C548 442 536 447 524 447 L401 447 C290 447 178 361 154 250 L144 200 C140 185 139 171 139 158 L139 157 C139 63 215 7 315 7 C333 7 361 9 366 33 L366 37 C367 52 344 54 329 54 C255 54 203 99 203 170 C203 181 204 192 206 204 L206 204 Z M292 607 L284 567 C281 553 295 545 309 545 C323 545 343 554 346 570 L355 611 C357 626 344 634 331 634 C316 634 295 624 292 607 L292 607 Z M439 607 L431 567 C428 553 442 545 455 545 C470 545 490 554 493 570 L501 611 C504 626 491 634 477 634 C463 634 442 624 439 607 L439 607 Z " />
<glyph glyph-name="aring" unicode="&#xe5;" horiz-adv-x="600" d="M518 571 C518 618 482 650 434 650 C371 650 307 593 307 528 C307 482 342 450 390 450 L293 450 C276 450 255 438 255 420 C255 409 264 402 279 402 L352 402 C413 402 448 372 448 323 C448 315 448 308 446 300 L436 248 L276 248 C198 248 119 179 119 99 C119 43 162 0 222 0 L318 0 C334 0 356 11 356 30 C356 41 346 48 331 48 L253 48 C207 48 182 70 182 107 C182 170 225 200 286 200 L426 200 L390 22 C387 10 397 0 413 0 C431 0 449 12 452 27 L508 302 C510 312 511 322 511 332 C511 400 461 450 390 450 C453 450 518 506 518 571 L518 571 Z M403 498 C383 498 370 517 370 539 C370 567 392 601 421 601 C442 601 455 583 455 560 C455 533 433 498 403 498 L403 498 Z " />
<glyph glyph-name="ae" unicode="&#xe6;" horiz-adv-x="600" d="M258 204 L313 204 L299 137 C297 125 296 114 296 104 C296 39 339 0 407 0 L467 0 C486 0 506 15 506 35 C506 46 499 50 487 50 L434 50 C385 50 356 72 356 116 C356 123 357 132 359 141 L372 204 L559 204 C573 204 593 215 596 231 L617 330 C619 342 620 353 620 363 C620 425 578 458 514 458 C466 458 418 439 384 405 C364 440 323 458 275 458 L225 458 C208 458 187 445 187 426 C187 411 203 408 220 408 L249 408 C301 408 339 389 339 340 C339 333 338 325 336 316 L323 254 L233 254 C147 254 74 181 74 96 C74 37 115 0 176 0 L225 0 C242 0 263 13 263 32 C263 47 246 50 230 50 L206 50 C163 50 135 67 135 109 C135 192 187 204 258 204 L258 204 Z M382 255 L395 320 C406 373 446 409 498 409 C538 409 560 388 560 351 C560 343 559 335 557 326 L543 255 L382 255 Z " />
<glyph glyph-name="ccedilla" unicode="&#xe7;" horiz-adv-x="600" d="M302 -155 C357 -155 413 -107 424 -53 C426 -47 426 -40 426 -34 C426 -15 420 1 410 14 C423 20 451 34 451 51 C451 67 433 68 421 68 C416 67 410 65 402 61 C400 60 398 59 395 58 C383 53 365 46 347 44 L322 44 C280 51 250 93 250 144 C250 153 251 162 253 172 L276 287 C290 355 351 412 406 412 C422 412 437 407 450 399 C453 398 455 396 458 395 C467 389 475 386 481 385 C483 385 486 384 488 384 C501 384 526 395 526 410 C526 433 471 460 419 460 C329 460 234 380 214 283 L190 168 C188 156 187 144 187 133 C187 47 248 -5 331 -5 C350 -9 362 -24 362 -45 C362 -73 340 -107 310 -107 C305 -107 302 -106 298 -103 C296 -102 295 -100 293 -98 C281 -87 275 -85 267 -85 C252 -85 227 -96 227 -114 C227 -135 266 -155 302 -155 L302 -155 Z " />
<glyph glyph-name="egrave" unicode="&#xe8;" horiz-adv-x="600" d="M314 43 C257 43 220 86 220 140 C220 149 221 159 223 168 L247 281 C261 346 322 403 387 403 C436 403 459 381 459 336 C459 271 414 247 344 247 L299 247 C282 247 257 236 257 216 C257 199 280 199 294 199 L324 199 C431 199 525 237 525 348 C525 415 473 450 401 450 C304 450 205 375 184 278 L160 165 C158 154 156 142 156 130 C156 51 216 -5 300 -5 C331 -5 443 24 452 64 L452 68 C452 80 441 87 428 87 C417 87 408 81 399 75 C398 74 395 72 394 72 C394 72 393 72 392 71 C374 59 348 43 314 43 L314 43 Z M414 528 C427 531 443 542 443 557 C443 561 442 564 440 567 L382 644 C377 651 366 652 356 650 C343 648 327 637 327 622 C327 618 328 614 330 611 L388 535 C394 528 405 526 414 528 L414 528 Z " />
<glyph glyph-name="eacute" unicode="&#xe9;" horiz-adv-x="600" d="M307 48 C253 48 222 83 222 139 C222 151 224 164 226 177 L231 200 L486 200 C504 200 521 213 524 226 L536 286 C539 299 540 311 540 322 C540 402 482 460 394 460 C290 460 206 380 182 260 L164 174 C161 160 160 146 160 134 C160 53 215 0 303 0 L359 0 C376 0 413 2 413 27 C413 41 395 48 361 48 L307 48 Z M419 546 C419 534 430 529 441 529 C450 529 460 532 467 538 L556 614 C562 619 567 627 567 635 C567 646 556 652 545 652 C536 652 526 649 519 643 L430 566 C424 561 419 554 419 546 L419 546 Z M241 248 L248 281 C263 356 323 412 388 412 C442 412 476 371 476 310 C476 298 474 285 471 271 L467 248 L241 248 Z " />
<glyph glyph-name="ecircumflex" unicode="&#xea;" horiz-adv-x="600" d="M314 43 C257 43 220 86 220 140 C220 149 221 159 223 168 L247 281 C261 346 322 403 387 403 C436 403 459 381 459 336 C459 271 414 247 344 247 L299 247 C282 247 257 236 257 216 C257 199 280 199 294 199 L324 199 C431 199 525 237 525 348 C525 415 473 450 401 450 C304 450 205 375 184 278 L160 165 C158 154 156 142 156 130 C156 51 216 -5 300 -5 C331 -5 443 24 452 64 L452 68 C452 80 441 87 428 87 C417 87 408 81 399 75 C398 74 395 72 394 72 C394 72 393 72 392 71 C374 59 348 43 314 43 L314 43 Z M417 590 L459 534 C462 529 470 527 477 527 C493 527 514 539 514 557 C514 561 513 564 510 567 L452 644 C449 649 441 651 434 651 C426 651 415 648 408 642 L319 565 C313 560 308 553 308 545 C308 533 319 527 330 527 C339 527 349 530 356 537 L417 590 Z " />
<glyph glyph-name="edieresis" unicode="&#xeb;" horiz-adv-x="600" d="M314 43 C257 43 220 86 220 140 C220 149 221 159 223 168 L247 281 C261 346 322 403 387 403 C436 403 459 381 459 336 C459 271 414 247 344 247 L299 247 C282 247 257 236 257 216 C257 199 280 199 294 199 L324 199 C431 199 525 237 525 348 C525 415 473 450 401 450 C304 450 205 375 184 278 L160 165 C158 154 156 142 156 130 C156 51 216 -5 300 -5 C331 -5 443 24 452 64 L452 68 C452 80 441 87 428 87 C417 87 408 81 399 75 C398 74 395 72 394 72 C394 72 393 72 392 71 C374 59 348 43 314 43 L314 43 Z M321 613 L313 574 C310 559 324 551 338 551 C352 551 372 560 375 577 L384 617 C386 632 373 640 360 640 C345 640 324 630 321 613 L321 613 Z M468 613 L460 574 C457 559 471 551 484 551 C499 551 519 560 522 577 L530 617 C533 632 520 640 506 640 C492 640 471 630 468 613 L468 613 Z " />
<glyph glyph-name="igrave" unicode="&#xec;" horiz-adv-x="600" d="M146 0 L451 0 C467 0 489 11 489 29 C489 41 477 49 465 49 L372 49 L449 427 C451 443 437 451 424 451 L280 451 C264 451 241 439 241 421 C241 409 254 402 266 402 L382 402 L310 49 L160 49 C144 49 121 37 121 19 C121 7 134 0 146 0 L146 0 Z M423 528 C439 528 460 539 460 557 C460 561 459 564 456 567 L399 644 C395 649 387 651 381 651 C365 651 344 639 344 622 C344 618 345 614 347 611 L405 535 C409 530 416 528 423 528 L423 528 Z " />
<glyph glyph-name="iacute" unicode="&#xed;" horiz-adv-x="600" d="M146 0 L451 0 C467 0 489 11 489 29 C489 41 477 49 465 49 L372 49 L449 427 C451 443 437 451 424 451 L280 451 C264 451 241 439 241 421 C241 409 254 402 266 402 L382 402 L310 49 L160 49 C144 49 121 37 121 19 C121 7 134 0 146 0 L146 0 Z M420 546 C420 534 431 529 442 529 C451 529 461 532 468 538 L557 614 C563 619 568 627 568 635 C568 646 557 652 546 652 C537 652 527 649 520 643 L431 566 C425 561 420 554 420 546 L420 546 Z " />
<glyph glyph-name="icircumflex" unicode="&#xee;" horiz-adv-x="600" d="M146 0 L451 0 C467 0 489 11 489 29 C489 41 477 49 465 49 L372 49 L449 427 C451 443 437 451 424 451 L280 451 C264 451 241 439 241 421 C241 409 254 402 266 402 L382 402 L310 49 L160 49 C144 49 121 37 121 19 C121 7 134 0 146 0 L146 0 Z M449 590 L491 535 C495 530 502 528 509 528 C525 528 546 539 546 557 C546 561 545 564 543 567 L485 644 C481 649 474 651 467 651 C458 651 447 648 440 642 L351 565 C346 560 341 553 341 545 C341 533 352 528 362 528 C371 528 382 531 389 537 L449 590 Z " />
<glyph glyph-name="idieresis" unicode="&#xef;" horiz-adv-x="600" d="M146 0 L451 0 C467 0 489 11 489 29 C489 41 477 49 465 49 L372 49 L449 427 C451 443 437 451 424 451 L280 451 C264 451 241 439 241 421 C241 409 254 402 266 402 L382 402 L310 49 L160 49 C144 49 121 37 121 19 C121 7 134 0 146 0 L146 0 Z M350 613 L342 574 C339 559 353 551 367 551 C382 551 401 560 405 577 L413 617 C416 632 403 640 389 640 C374 640 354 630 350 613 L350 613 Z M497 613 L489 574 C486 559 500 551 514 551 C528 551 548 560 551 577 L560 617 C562 632 549 640 536 640 C521 640 500 630 497 613 L497 613 Z " />
<glyph glyph-name="eth" unicode="&#xf0;" horiz-adv-x="600" d="M484 349 L448 168 C434 99 373 44 312 44 C258 44 220 88 220 145 C220 153 221 162 222 172 L244 277 C260 356 319 401 404 401 C420 401 443 414 443 433 C443 444 432 450 401 450 C298 450 202 376 181 273 L160 168 C158 156 156 144 156 132 C156 53 213 -5 297 -5 C394 -5 490 75 510 172 L547 352 C552 378 555 403 555 426 C555 473 543 513 519 555 L557 571 C561 573 566 575 570 577 C583 582 598 592 598 607 C598 618 590 626 578 626 C575 626 572 625 569 624 C565 624 562 623 558 622 C554 620 549 618 545 616 C526 609 508 602 489 595 C461 627 423 652 403 652 C390 652 365 641 365 625 C365 618 372 610 383 605 C394 600 417 583 428 570 L388 554 C375 548 352 538 352 521 C352 510 361 502 374 502 C379 502 385 503 394 507 L458 531 C481 497 492 460 492 416 C492 395 489 373 484 349 L484 349 Z " />
<glyph glyph-name="ntilde" unicode="&#xf1;" horiz-adv-x="600" d="M267 402 L379 402 C436 402 469 361 469 297 C469 284 467 268 464 253 L417 22 C414 9 423 0 440 0 C457 0 477 12 480 27 L530 277 C533 289 534 301 534 312 C534 391 476 450 392 450 L249 450 C231 450 213 438 210 423 L129 22 C126 10 137 0 153 0 C171 0 188 12 191 27 L267 402 Z M474 594 C462 594 455 602 445 613 C435 626 422 641 393 644 C351 644 305 626 293 582 C292 580 291 579 291 577 C290 573 290 570 290 567 C290 547 305 546 321 546 C335 548 342 558 349 577 C350 579 351 582 352 584 C356 592 361 596 368 596 C378 596 385 591 391 584 C412 561 426 548 451 546 C492 546 537 565 549 608 C550 610 551 611 551 613 C552 617 552 620 552 623 C552 639 541 644 528 644 C505 644 499 629 499 627 C489 599 484 594 474 594 L474 594 Z " />
<glyph glyph-name="ograve" unicode="&#xf2;" horiz-adv-x="600" d="M160 168 C158 156 156 144 156 132 C156 53 213 -5 297 -5 C395 -5 490 75 510 172 L534 287 C536 299 537 311 537 323 C537 402 480 460 396 460 C299 460 203 380 183 283 L160 168 Z M382 528 C398 528 419 539 419 557 C419 561 418 564 415 567 L358 644 C354 649 346 651 340 651 C324 651 303 639 303 622 C303 618 304 614 306 611 L364 535 C368 530 375 528 382 528 L382 528 Z M246 287 C260 356 321 411 383 411 C437 411 474 368 474 311 C474 302 473 293 471 283 L448 168 C434 99 373 44 312 44 C258 44 220 89 220 145 C220 154 221 163 222 172 L246 287 Z " />
<glyph glyph-name="oacute" unicode="&#xf3;" horiz-adv-x="600" d="M159 168 C157 156 155 144 155 132 C155 53 212 -5 296 -5 C394 -5 489 75 509 172 L533 287 C535 299 536 311 536 323 C536 402 479 460 396 460 C298 460 202 380 183 283 L159 168 Z M419 546 C419 534 430 529 441 529 C450 529 460 532 467 538 L556 614 C562 619 567 627 567 635 C567 646 556 652 545 652 C536 652 526 649 519 643 L430 566 C424 561 419 554 419 546 L419 546 Z M245 287 C259 356 320 411 382 411 C436 411 473 368 473 311 C473 302 472 293 470 283 L447 168 C433 99 373 44 311 44 C257 44 219 89 219 145 C219 154 220 163 221 172 L245 287 Z " />
<glyph glyph-name="ocircumflex" unicode="&#xf4;" horiz-adv-x="600" d="M159 168 C157 156 155 144 155 132 C155 53 212 -5 296 -5 C394 -5 489 75 509 172 L533 287 C535 299 536 311 536 323 C536 402 479 460 396 460 C298 460 202 380 183 283 L159 168 Z M418 590 L460 535 C463 530 471 528 478 528 C494 528 515 539 515 557 C515 561 514 564 511 567 L453 644 C450 649 442 651 435 651 C427 651 416 648 409 642 L320 565 C314 560 309 553 309 545 C309 533 320 528 331 528 C340 528 350 531 357 537 L418 590 Z M245 287 C259 356 320 411 382 411 C436 411 473 368 473 311 C473 302 472 293 470 283 L447 168 C433 99 373 44 311 44 C257 44 219 89 219 145 C219 154 220 163 221 172 L245 287 Z " />
<glyph glyph-name="otilde" unicode="&#xf5;" horiz-adv-x="600" d="M157 168 C155 156 153 144 153 132 C153 53 210 -5 294 -5 C392 -5 487 75 507 172 L531 287 C533 299 534 311 534 323 C534 402 477 460 394 460 C296 460 200 380 181 283 L157 168 Z M472 594 C460 594 453 602 443 613 C433 626 420 641 391 644 C349 644 303 626 291 582 C289 577 288 572 288 567 C288 547 303 546 319 546 C333 548 340 558 347 577 C348 579 349 582 350 584 C354 592 359 596 366 596 C376 596 383 591 389 584 C410 561 424 548 449 546 C490 546 535 565 548 608 C548 610 549 611 549 613 C550 617 550 620 550 623 C550 639 539 644 526 644 C503 644 497 629 497 627 C487 599 482 594 472 594 L472 594 Z M243 287 C257 356 318 411 380 411 C434 411 471 368 471 311 C471 302 470 293 468 283 L445 168 C431 99 371 44 309 44 C255 44 217 89 217 145 C217 154 218 163 220 172 L243 287 Z " />
<glyph glyph-name="odieresis" unicode="&#xf6;" horiz-adv-x="600" d="M160 168 C158 156 156 144 156 132 C156 53 213 -5 297 -5 C395 -5 490 75 510 172 L534 287 C536 299 537 311 537 323 C537 402 480 460 396 460 C299 460 203 380 183 283 L160 168 Z M321 613 L313 574 C310 559 324 551 338 551 C352 551 372 560 375 577 L384 617 C386 632 373 640 360 640 C345 640 324 630 321 613 L321 613 Z M468 613 L460 574 C457 559 471 551 484 551 C499 551 519 560 522 577 L530 617 C533 632 520 640 506 640 C492 640 471 630 468 613 L468 613 Z M246 287 C260 356 321 411 383 411 C437 411 474 368 474 311 C474 302 473 293 471 283 L448 168 C434 99 373 44 312 44 C258 44 220 89 220 145 C220 154 221 163 222 172 L246 287 Z " />
<glyph glyph-name="divide" unicode="&#xf7;" horiz-adv-x="600" d="M351 104 L367 181 C370 196 357 205 344 205 C330 205 309 194 306 177 L290 100 C287 85 300 77 313 77 C327 77 348 87 351 104 L351 104 Z M249 230 L442 230 C458 230 481 241 481 259 C481 272 468 279 456 279 L263 279 C247 279 224 267 224 249 C224 237 237 230 249 230 L249 230 Z M353 407 L337 330 C334 315 347 307 360 307 C374 307 395 317 398 334 L414 411 C417 426 404 435 391 435 C376 435 356 424 353 407 L353 407 Z " />
<glyph glyph-name="oslash" unicode="&#xf8;" horiz-adv-x="600" d="M159 168 C157 156 155 144 155 132 C155 90 171 54 199 30 C191 16 182 2 174 -12 C171 -17 166 -28 166 -33 C166 -44 179 -50 193 -50 C196 -50 200 -50 203 -49 C213 -47 222 -41 227 -32 L247 2 C262 -2 278 -5 296 -5 C394 -5 489 75 509 172 L533 287 C535 299 536 311 536 323 C536 364 520 400 493 425 L523 477 C526 493 512 500 498 500 C484 500 472 494 464 482 C461 475 457 468 453 462 L447 452 C431 457 414 460 396 460 C298 460 202 380 183 283 L159 168 Z M245 287 C259 356 320 411 382 411 C395 411 408 408 419 404 L233 88 C222 110 219 129 219 153 C219 159 220 165 221 172 L245 287 Z M275 51 L459 367 C470 348 473 328 473 306 C473 299 472 291 470 283 L447 168 C433 99 373 44 311 44 C298 44 286 46 275 51 L275 51 Z " />
<glyph glyph-name="ugrave" unicode="&#xf9;" horiz-adv-x="600" d="M212 424 L161 173 C159 161 157 149 157 137 C157 59 214 0 298 0 L443 0 C460 0 477 11 480 26 L562 427 C564 440 554 450 538 450 C521 450 503 439 500 424 L423 49 L313 49 C257 49 223 91 223 155 C223 168 225 182 228 197 L274 427 C276 441 267 450 252 450 C234 450 215 439 212 424 L212 424 Z M382 528 C398 528 419 539 419 557 C419 561 418 564 415 567 L358 644 C354 649 346 651 340 651 C324 651 303 639 303 622 C303 618 304 614 306 611 L364 535 C368 530 375 528 382 528 L382 528 Z " />
<glyph glyph-name="uacute" unicode="&#xfa;" horiz-adv-x="600" d="M211 424 L160 173 C158 161 156 149 156 137 C156 59 213 0 297 0 L442 0 C459 0 476 11 479 26 L561 427 C564 440 553 450 537 450 C520 450 502 439 499 424 L422 49 L312 49 C256 49 222 91 222 155 C222 168 224 182 227 197 L273 427 C275 441 266 450 251 450 C233 450 214 439 211 424 L211 424 Z M419 546 C419 534 430 529 441 529 C450 529 460 532 467 538 L556 614 C562 619 567 627 567 635 C567 646 556 652 545 652 C536 652 526 649 519 643 L430 566 C424 561 419 554 419 546 L419 546 Z " />
<glyph glyph-name="ucircumflex" unicode="&#xfb;" horiz-adv-x="600" d="M211 424 L160 173 C158 161 156 149 156 137 C156 59 213 0 297 0 L442 0 C459 0 476 11 479 26 L561 427 C564 440 553 450 537 450 C520 450 502 439 499 424 L422 49 L312 49 C256 49 222 91 222 155 C222 168 224 182 227 197 L273 427 C275 441 266 450 251 450 C233 450 214 439 211 424 L211 424 Z M418 590 L460 535 C463 530 471 528 478 528 C494 528 515 539 515 557 C515 561 514 564 511 567 L453 644 C450 649 442 651 435 651 C427 651 416 648 409 642 L320 565 C314 560 309 553 309 545 C309 533 320 528 331 528 C340 528 350 531 357 537 L418 590 Z " />
<glyph glyph-name="udieresis" unicode="&#xfc;" horiz-adv-x="600" d="M211 424 L160 173 C158 161 156 149 156 137 C156 59 213 0 297 0 L442 0 C459 0 476 11 479 26 L561 427 C564 440 553 450 537 450 C520 450 502 439 499 424 L422 49 L312 49 C256 49 222 91 222 155 C222 168 224 182 227 197 L273 427 C275 441 266 450 251 450 C233 450 214 439 211 424 L211 424 Z M321 613 L313 574 C310 559 324 551 338 551 C352 551 372 560 375 577 L384 617 C386 632 373 640 360 640 C345 640 324 630 321 613 L321 613 Z M468 613 L460 574 C457 559 471 551 484 551 C499 551 519 560 522 577 L530 617 C533 632 520 640 506 640 C492 640 471 630 468 613 L468 613 Z " />
<glyph glyph-name="yacute" unicode="&#xfd;" horiz-adv-x="600" d="M567 448 C567 453 555 460 544 460 C532 460 517 454 510 441 L325 82 C303 196 261 383 249 436 C247 443 246 448 246 449 C243 458 237 460 229 460 C212 460 192 451 189 434 C188 433 261 77 281 -4 L250 -64 C207 -146 179 -175 137 -181 C121 -183 104 -191 104 -210 C104 -222 116 -228 135 -228 C189 -228 243 -181 272 -130 C280 -116 303 -71 334 -13 C337 -10 339 -7 339 -3 C427 165 565 435 567 448 L567 448 Z M432 546 C432 534 443 529 453 529 C462 529 473 532 480 538 L569 614 C575 619 579 627 579 635 C579 646 568 652 558 652 C549 652 539 649 532 643 L443 566 C437 561 432 554 432 546 L432 546 Z " />
<glyph glyph-name="thorn" unicode="&#xfe;" horiz-adv-x="600" d="M284 625 C257 491 146 -45 119 -179 C116 -191 127 -200 144 -200 C161 -200 178 -189 181 -175 L299 402 L386 402 C454 402 497 352 497 280 C497 266 495 253 492 238 L485 203 C465 105 396 48 297 48 C277 48 260 37 255 21 C253 7 265 0 288 0 C422 0 523 86 552 227 L553 233 C557 253 559 273 559 291 C559 388 500 450 400 450 L310 450 L346 628 C349 642 337 651 323 651 C308 651 288 641 284 625 L284 625 Z " />
<glyph glyph-name="ydieresis" unicode="&#xff;" horiz-adv-x="600" d="M229 460 C212 460 192 451 189 434 C188 433 261 77 281 -4 L250 -64 C207 -146 179 -175 137 -181 C121 -183 104 -191 104 -210 C104 -222 116 -228 135 -228 C189 -228 243 -181 272 -130 C280 -116 303 -71 334 -13 C337 -11 338 -8 339 -6 C339 -5 339 -4 339 -3 C427 165 565 435 567 448 C567 453 555 460 544 460 C532 460 517 454 510 441 L325 82 C303 196 261 383 249 436 C247 443 246 448 246 449 C243 458 237 460 229 460 L229 460 Z M321 613 L313 574 C310 559 324 551 338 551 C352 551 372 560 375 577 L384 617 C386 632 373 640 360 640 C345 640 324 630 321 613 L321 613 Z M468 613 L460 574 C457 559 471 551 484 551 C499 551 519 560 522 577 L530 617 C533 632 520 640 506 640 C492 640 471 630 468 613 L468 613 Z " />
<glyph glyph-name="Amacron" unicode="&#x100;" horiz-adv-x="600" d="M486 -5 C503 -5 527 5 527 25 C527 31 526 43 523 68 C523 74 522 79 522 84 C501 262 481 440 461 617 C460 622 460 627 459 631 C460 642 453 649 444 651 C441 652 438 652 435 652 C427 652 420 650 415 646 C408 643 401 638 400 633 C400 631 400 629 399 627 L74 7 C73 4 86 -4 101 -4 C105 -4 109 -3 113 -2 C121 1 127 6 131 12 C137 19 145 36 153 52 L167 78 L460 78 L464 42 C465 38 465 34 465 30 C469 3 473 -5 486 -5 L486 -5 Z M379 753 L524 753 C539 753 563 766 563 784 C563 796 550 802 537 802 L393 802 C377 802 355 789 355 772 C355 759 367 753 379 753 L379 753 Z M193 127 L408 533 L454 127 L193 127 Z " />
<glyph glyph-name="amacron" unicode="&#x101;" horiz-adv-x="600" d="M206 204 L217 254 C234 332 308 400 386 400 L480 400 L401 29 L401 25 C401 13 415 7 426 7 C441 7 462 17 465 33 L548 425 C549 427 549 428 549 430 C548 442 536 447 524 447 L401 447 C290 447 178 361 154 250 L144 200 C140 185 139 171 139 158 L139 157 C139 63 215 7 315 7 C333 7 361 9 366 33 L366 37 C367 52 344 54 329 54 C255 54 203 99 203 170 C203 181 204 192 206 204 L206 204 Z M314 568 L458 568 C474 568 497 581 497 599 C497 611 484 616 472 616 L327 616 C312 616 289 604 289 587 C289 574 302 568 314 568 L314 568 Z " />
<glyph glyph-name="Abreve" unicode="&#x102;" horiz-adv-x="600" d="M486 -5 C503 -5 527 5 527 25 C527 31 526 43 523 68 C523 74 522 79 522 84 C501 262 481 440 461 617 C460 622 460 627 459 631 C460 642 453 649 444 651 C441 652 438 652 435 652 C427 652 420 650 415 646 C408 643 401 638 400 633 C400 631 400 629 399 627 L74 7 C73 4 86 -4 101 -4 C105 -4 109 -3 113 -2 C121 1 127 6 131 12 C137 19 145 36 153 52 L167 78 L460 78 L464 42 C465 38 465 34 465 30 C469 3 473 -5 486 -5 L486 -5 Z M441 706 C495 706 549 744 564 801 C565 804 566 806 566 809 C569 823 557 830 543 830 C541 830 539 830 536 830 C523 827 511 817 508 802 C508 800 507 798 507 796 L506 791 C506 789 505 787 504 785 C498 770 482 757 463 755 C460 755 458 754 455 754 C435 754 419 767 417 787 C417 791 417 796 418 800 C422 820 418 828 407 830 C390 830 366 825 362 805 C361 802 361 799 361 797 C360 792 360 787 360 782 C360 736 393 706 441 706 L441 706 Z M193 127 L408 533 L454 127 L193 127 Z " />
<glyph glyph-name="abreve" unicode="&#x103;" horiz-adv-x="600" d="M206 204 L217 254 C234 332 308 400 386 400 L480 400 L401 29 L401 25 C401 13 415 7 426 7 C441 7 462 17 465 33 L548 425 C549 427 549 428 549 430 C548 442 536 447 524 447 L401 447 C290 447 178 361 154 250 L144 200 C140 185 139 171 139 158 L139 157 C139 63 215 7 315 7 C333 7 361 9 366 33 L366 37 C367 52 344 54 329 54 C255 54 203 99 203 170 C203 181 204 192 206 204 L206 204 Z M375 521 C430 521 484 559 499 616 C500 619 500 621 501 624 C504 638 491 645 478 645 C476 645 473 645 471 644 C458 642 446 632 443 616 C442 615 442 613 442 611 L441 606 C440 604 440 602 439 600 C432 583 412 569 390 569 C369 569 354 582 352 602 C351 604 351 606 351 608 C352 611 352 613 352 615 L353 617 L353 616 C354 622 354 627 354 631 C353 639 349 643 342 645 C325 645 301 640 297 620 C295 612 294 605 294 597 C294 551 328 521 375 521 L375 521 Z M353 620 L353 618 C353 619 353 619 353 620 L353 620 Z M353 618 L353 617 C353 618 353 618 353 618 L353 618 Z " />
<glyph glyph-name="Aogonek" unicode="&#x104;" horiz-adv-x="600" d="M486 -5 C497 -5 523 2 527 20 C527 21 527 22 528 22 C528 26 528 30 527 33 C526 40 525 51 523 68 C513 160 471 526 461 617 C460 622 460 627 459 631 C460 642 453 649 444 651 C441 652 438 652 435 652 C427 652 420 650 415 646 C408 643 401 638 400 633 C400 631 400 629 399 627 C379 588 140 133 74 7 C74 4 86 -4 101 -4 C114 -4 125 3 131 12 C137 19 145 36 153 52 L167 78 L460 78 C461 72 463 49 464 43 C407 35 351 -17 351 -76 C351 -120 383 -155 430 -155 C455 -155 529 -135 529 -103 C529 -92 520 -85 505 -85 C494 -85 486 -88 470 -99 C462 -104 456 -107 448 -107 C428 -107 414 -90 414 -67 C414 -42 432 -10 457 -5 C460 -4 463 -4 466 -4 L479 -4 C481 -5 483 -5 486 -5 L486 -5 Z M193 127 L408 533 L454 127 L193 127 Z " />
<glyph glyph-name="aogonek" unicode="&#x105;" horiz-adv-x="600" d="M206 204 L217 254 C234 332 308 400 386 400 L480 400 L401 29 L401 25 C401 13 415 7 426 7 C441 7 462 17 465 33 L548 425 C549 427 549 428 549 430 C548 442 536 447 524 447 L401 447 C290 447 178 361 154 250 L144 200 C140 185 139 171 139 158 L139 157 C139 83 186 33 254 15 C229 -8 211 -39 211 -72 C211 -116 243 -151 290 -151 C315 -151 389 -131 389 -99 C389 -88 380 -81 365 -81 C354 -81 346 -84 330 -95 C322 -100 316 -103 308 -103 C287 -103 274 -85 274 -63 C274 -37 292 -6 317 -1 C320 0 323 0 326 0 L348 0 C365 0 380 8 385 20 C387 24 388 27 388 31 C388 42 378 48 364 48 L360 48 C353 53 339 54 329 54 C255 54 203 99 203 170 C203 181 204 192 206 204 L206 204 Z " />
<glyph glyph-name="Cacute" unicode="&#x106;" horiz-adv-x="600" d="M341 44 C270 44 216 103 216 184 C216 196 217 209 220 223 L264 440 C284 538 371 615 463 615 C496 615 520 605 546 584 C559 573 564 571 570 571 C587 571 610 583 610 602 C610 634 542 665 473 665 C348 665 226 560 201 436 L157 219 C154 203 152 188 152 173 C152 72 225 -5 332 -5 C368 -5 501 19 501 69 C501 80 492 89 478 89 C470 89 463 86 454 81 C427 62 380 44 341 44 L341 44 Z M456 725 C456 713 467 707 477 707 C486 707 496 711 503 717 L592 793 C598 798 603 806 603 814 C603 825 592 831 582 831 C573 831 562 828 555 822 L466 745 C460 740 456 733 456 725 L456 725 Z " />
<glyph glyph-name="cacute" unicode="&#x107;" horiz-adv-x="600" d="M419 460 C329 460 234 380 214 283 L190 168 C188 156 187 144 187 133 C187 54 244 -5 322 -5 C349 -5 451 15 451 51 C451 61 442 68 428 68 C422 68 414 66 402 61 C387 54 359 43 334 43 C286 43 250 88 250 144 C250 153 251 162 253 172 L276 287 C290 355 351 412 406 412 C425 412 443 405 458 395 C471 387 479 384 488 384 C501 384 526 395 526 410 C526 433 471 460 419 460 L419 460 Z M419 546 C419 534 430 529 441 529 C450 529 460 532 467 538 L556 614 C562 619 567 627 567 635 C567 646 556 652 545 652 C536 652 526 649 519 643 L430 566 C424 561 419 554 419 546 L419 546 Z " />
<glyph glyph-name="Ccircumflex" unicode="&#x108;" horiz-adv-x="600" d="M341 44 C270 44 216 103 216 184 C216 196 217 209 220 223 L264 440 C284 538 371 615 463 615 C496 615 520 605 546 584 C559 573 564 571 570 571 C587 571 610 583 610 602 C610 634 542 665 473 665 C348 665 226 560 201 436 L157 219 C154 203 152 188 152 173 C152 72 225 -5 332 -5 C368 -5 501 19 501 69 C501 80 492 89 478 89 C470 89 463 86 454 81 C427 62 380 44 341 44 L341 44 Z M496 769 L538 714 C542 708 549 706 556 706 C572 706 593 718 593 736 C593 740 592 743 590 746 L532 823 C528 828 521 830 514 830 C505 830 495 827 487 821 L399 744 C393 739 388 732 388 724 C388 712 399 706 409 706 C418 706 429 709 436 716 L496 769 Z " />
<glyph glyph-name="ccircumflex" unicode="&#x109;" horiz-adv-x="600" d="M419 460 C329 460 234 380 214 283 L190 168 C188 156 187 144 187 133 C187 54 244 -5 322 -5 C349 -5 451 15 451 51 C451 61 442 68 428 68 C422 68 414 66 402 61 C387 54 359 43 334 43 C286 43 250 88 250 144 C250 153 251 162 253 172 L276 287 C290 355 351 412 406 412 C425 412 443 405 458 395 C471 387 479 384 488 384 C501 384 526 395 526 410 C526 433 471 460 419 460 L419 460 Z M418 590 L460 535 C463 530 471 528 478 528 C494 528 515 539 515 557 C515 561 514 564 511 567 L453 644 C450 649 442 651 435 651 C427 651 416 648 409 642 L320 565 C314 560 309 553 309 545 C309 533 320 528 331 528 C340 528 350 531 357 537 L418 590 Z " />
<glyph glyph-name="Cdotaccent" unicode="&#x10a;" horiz-adv-x="600" d="M341 44 C270 44 216 103 216 184 C216 196 217 209 220 223 L264 440 C284 538 371 615 463 615 C496 615 520 605 546 584 C559 573 564 571 570 571 C587 571 610 583 610 602 C610 634 542 665 473 665 C348 665 226 560 201 436 L157 219 C154 203 152 188 152 173 C152 72 225 -5 332 -5 C368 -5 501 19 501 69 C501 80 492 89 478 89 C470 89 463 86 454 81 C427 62 380 44 341 44 L341 44 Z M424 761 L416 721 C413 706 427 698 441 698 C456 698 475 707 479 724 L487 765 C490 779 477 787 463 787 C448 787 428 777 424 761 L424 761 Z " />
<glyph glyph-name="cdotaccent" unicode="&#x10b;" horiz-adv-x="600" d="M420 460 C330 460 235 380 215 283 L191 168 C189 156 188 144 188 133 C188 54 245 -5 323 -5 C350 -5 452 15 452 51 C452 61 443 68 429 68 C423 68 415 66 403 61 C388 54 360 43 335 43 C287 43 251 88 251 144 C251 153 252 162 254 172 L277 287 C291 355 352 412 407 412 C426 412 444 405 459 395 C472 387 480 384 489 384 C502 384 527 395 527 410 C527 433 472 460 420 460 L420 460 Z M393 607 L385 567 C382 553 396 545 410 545 C425 545 444 554 447 570 L456 611 C459 626 446 634 432 634 C417 634 397 624 393 607 L393 607 Z " />
<glyph glyph-name="Ccaron" unicode="&#x10c;" horiz-adv-x="600" d="M341 44 C270 44 216 103 216 184 C216 196 217 209 220 223 L264 440 C284 538 371 615 463 615 C496 615 520 605 546 584 C559 573 564 571 570 571 C587 571 610 583 610 602 C610 634 542 665 473 665 C348 665 226 560 201 436 L157 219 C154 203 152 188 152 173 C152 72 225 -5 332 -5 C368 -5 501 19 501 69 C501 80 492 89 478 89 C470 89 463 86 454 81 C427 62 380 44 341 44 L341 44 Z M441 706 C450 706 460 710 467 716 L556 792 C562 797 567 805 567 813 C567 824 556 830 545 830 C536 830 526 827 519 821 L458 768 L417 823 C413 828 405 830 398 830 C383 830 361 818 361 801 C361 797 363 793 365 790 L423 714 C426 708 434 706 441 706 L441 706 Z " />
<glyph glyph-name="ccaron" unicode="&#x10d;" horiz-adv-x="600" d="M420 460 C330 460 235 380 215 283 L191 168 C189 156 188 144 188 133 C188 54 245 -5 323 -5 C350 -5 452 15 452 51 C452 61 443 68 429 68 C423 68 415 66 403 61 C388 54 360 43 335 43 C287 43 251 88 251 144 C251 153 252 162 254 172 L277 287 C291 355 352 412 407 412 C426 412 444 405 459 395 C472 387 480 384 489 384 C502 384 527 395 527 410 C527 433 472 460 420 460 L420 460 Z M404 528 C413 528 424 531 431 537 L520 613 C525 618 530 626 530 634 C530 645 519 651 509 651 C500 651 489 648 482 642 L422 589 L380 644 C376 649 369 651 362 651 C346 651 325 639 325 622 C325 618 326 614 328 611 L386 535 C390 530 398 528 404 528 L404 528 Z " />
<glyph glyph-name="Dcaron" unicode="&#x10e;" horiz-adv-x="600" d="M250 0 C402 0 549 125 581 278 L601 379 C605 398 607 417 607 435 C607 560 517 654 386 654 L241 654 C224 654 207 642 204 628 L81 22 C78 10 89 0 104 0 L250 0 Z M441 706 C450 706 460 710 467 716 L556 792 C562 797 567 805 567 813 C567 824 556 830 545 830 C536 830 526 827 519 821 L458 768 L417 823 C413 828 405 830 398 830 C383 830 361 818 361 801 C361 797 363 793 365 790 L423 714 C426 708 434 706 441 706 L441 706 Z M147 48 L261 605 L373 605 C474 605 544 528 544 424 C544 409 542 392 539 375 L518 275 C493 150 378 48 263 48 L147 48 Z " />
<glyph glyph-name="dcaron" unicode="&#x10f;" horiz-adv-x="600" d="M462 625 L427 450 L340 450 C229 450 121 360 98 248 L88 198 C85 184 84 170 84 156 C84 64 150 0 251 0 C272 0 307 2 307 31 C307 42 296 48 273 48 L268 48 C194 48 147 96 147 166 C147 177 148 189 150 201 L160 251 C176 326 251 402 342 402 L417 402 L340 22 C337 10 349 0 365 0 C382 0 399 11 402 26 L524 628 C527 640 517 651 501 651 C483 651 465 639 462 625 L462 625 Z M681 639 C684 654 670 660 656 660 L608 660 C592 660 569 649 569 630 C569 612 594 612 609 612 L613 612 C605 573 590 537 572 501 C569 496 564 487 564 484 L563 481 C561 468 574 461 586 461 C639 461 675 607 681 639 L681 639 Z " />
<glyph glyph-name="Dcroat" unicode="&#x110;" horiz-adv-x="600" d="M250 0 C402 0 549 125 581 278 L601 379 C605 398 607 417 607 435 C607 560 517 654 386 654 L241 654 C224 654 207 642 204 628 L164 432 L130 432 C114 432 91 420 91 402 C91 390 103 383 116 383 L154 383 L81 22 C78 10 89 0 104 0 L250 0 Z M147 48 L216 383 L309 383 C324 383 347 394 347 413 C347 425 335 432 322 432 L226 432 L261 605 L373 605 C474 605 544 528 544 424 C544 409 542 392 539 375 L518 275 C493 150 378 48 263 48 L147 48 Z " />
<glyph glyph-name="dcroat" unicode="&#x111;" horiz-adv-x="600" d="M433 537 L494 537 L477 450 L390 450 C279 450 171 360 148 248 L138 198 C135 184 133 170 133 156 C133 64 200 0 301 0 C322 0 357 2 357 31 C357 42 346 48 322 48 L318 48 C243 48 196 96 196 166 C196 177 198 189 200 201 L210 251 C225 326 301 402 391 402 L467 402 L390 22 C387 10 399 0 414 0 C432 0 449 11 452 26 L556 537 L577 537 C593 537 616 549 616 567 C616 579 604 585 591 585 L566 585 L574 628 C577 640 566 651 551 651 C533 651 515 639 512 625 L504 585 L446 585 C431 585 408 573 408 555 C408 543 421 537 433 537 L433 537 Z " />
<glyph glyph-name="Emacron" unicode="&#x112;" horiz-adv-x="600" d="M609 654 L271 654 C256 654 236 644 233 628 L120 73 C111 30 142 0 183 0 L472 0 C488 0 511 12 511 31 C511 43 498 48 486 48 L206 48 C187 48 178 56 183 77 L239 354 L375 354 C391 354 414 365 414 383 C414 396 401 402 389 402 L249 402 L290 605 L595 605 C612 605 634 618 634 636 C634 648 622 654 609 654 L609 654 Z M379 753 L524 753 C539 753 563 766 563 784 C563 796 550 802 537 802 L393 802 C377 802 355 789 355 772 C355 759 367 753 379 753 L379 753 Z " />
<glyph glyph-name="emacron" unicode="&#x113;" horiz-adv-x="600" d="M314 43 C257 43 220 86 220 140 C220 149 221 159 223 168 L247 281 C261 346 322 403 387 403 C436 403 459 381 459 336 C459 271 414 247 344 247 L299 247 C282 247 257 236 257 216 C257 199 280 199 294 199 L324 199 C431 199 525 237 525 348 C525 415 473 450 401 450 C304 450 205 375 184 278 L160 165 C158 154 156 142 156 130 C156 51 216 -5 300 -5 C331 -5 443 24 452 64 L452 68 C452 80 441 87 428 87 C417 87 408 81 399 75 C398 74 395 72 394 72 C394 72 393 72 392 71 C374 59 348 43 314 43 L314 43 Z M343 575 L487 575 C503 575 526 587 526 605 C526 617 513 623 501 623 L356 623 C341 623 318 610 318 593 C318 580 331 575 343 575 L343 575 Z " />
<glyph glyph-name="Ebreve" unicode="&#x114;" horiz-adv-x="600" d="M609 654 L271 654 C256 654 236 644 233 628 L120 73 C111 30 142 0 183 0 L472 0 C488 0 511 12 511 31 C511 43 498 48 486 48 L206 48 C187 48 178 56 183 77 L239 354 L375 354 C391 354 414 365 414 383 C414 396 401 402 389 402 L249 402 L290 605 L595 605 C612 605 634 618 634 636 C634 648 622 654 609 654 L609 654 Z M441 706 C495 706 549 744 564 801 C565 804 566 806 566 809 C569 823 557 830 543 830 C541 830 539 830 536 830 C523 827 511 817 508 802 C508 800 507 798 507 796 L506 791 C506 789 505 787 504 785 C497 768 477 754 455 754 C435 754 419 767 417 787 C417 789 417 791 417 793 C417 796 417 798 418 801 L418 800 C418 801 418 801 418 802 C419 808 419 812 419 816 C418 824 414 828 407 830 C390 830 366 825 362 805 C361 802 361 799 361 797 C360 792 360 787 360 782 C360 736 393 706 441 706 L441 706 Z M419 804 L418 801 C418 802 418 803 419 804 L419 804 Z M419 805 L419 804 C419 804 419 804 419 805 L419 805 Z " />
<glyph glyph-name="ebreve" unicode="&#x115;" horiz-adv-x="600" d="M314 43 C257 43 220 86 220 140 C220 149 221 159 223 168 L247 281 C261 346 322 403 387 403 C436 403 459 381 459 336 C459 271 414 247 344 247 L299 247 C282 247 257 236 257 216 C257 199 280 199 294 199 L324 199 C431 199 525 237 525 348 C525 415 473 450 401 450 C304 450 205 375 184 278 L160 165 C158 154 156 142 156 130 C156 51 216 -5 300 -5 C331 -5 443 24 452 64 L452 68 C452 80 441 87 428 87 C417 87 408 81 399 75 C398 74 395 72 394 72 C394 72 393 72 392 71 C374 59 348 43 314 43 L314 43 Z M405 528 C460 528 514 565 529 622 C530 625 530 627 531 630 C534 644 521 651 508 651 C506 651 503 651 501 651 C488 648 476 639 473 623 C472 621 472 619 472 618 L471 613 C470 611 470 609 469 607 C462 589 442 576 420 576 C399 576 384 589 382 608 C381 610 381 612 381 615 C382 617 382 619 382 622 C383 622 383 623 383 624 L383 622 C384 629 384 634 384 638 C383 646 379 650 372 651 C355 651 331 646 327 626 C325 619 324 611 324 604 C324 557 358 528 405 528 L405 528 Z M383 626 L383 624 C383 625 383 625 383 626 L383 626 Z " />
<glyph glyph-name="Edotaccent" unicode="&#x116;" horiz-adv-x="600" d="M609 654 L271 654 C256 654 236 644 233 628 L120 73 C111 30 142 0 183 0 L472 0 C488 0 511 12 511 31 C511 43 498 48 486 48 L206 48 C187 48 178 56 183 77 L239 354 L375 354 C391 354 414 365 414 383 C414 396 401 402 389 402 L249 402 L290 605 L595 605 C612 605 634 618 634 636 C634 648 622 654 609 654 L609 654 Z M430 786 L421 746 C419 732 433 724 446 724 C461 724 480 733 484 749 L492 790 C495 805 482 813 468 813 C454 813 433 803 430 786 L430 786 Z " />
<glyph glyph-name="edotaccent" unicode="&#x117;" horiz-adv-x="600" d="M314 43 C257 43 220 86 220 140 C220 149 221 159 223 168 L247 281 C261 346 322 403 387 403 C436 403 459 381 459 336 C459 271 414 247 344 247 L299 247 C282 247 257 236 257 216 C257 199 280 199 294 199 L324 199 C431 199 525 237 525 348 C525 415 473 450 401 450 C304 450 205 375 184 278 L160 165 C158 154 156 142 156 130 C156 51 216 -5 300 -5 C331 -5 443 24 452 64 L452 68 C452 80 441 87 428 87 C417 87 408 81 399 75 C398 74 395 72 394 72 C394 72 393 72 392 71 C374 59 348 43 314 43 L314 43 Z M394 607 L386 568 C383 553 397 545 411 545 C426 545 445 554 448 571 L457 612 C460 626 447 634 433 634 C418 634 398 624 394 607 L394 607 Z " />
<glyph glyph-name="Eogonek" unicode="&#x118;" horiz-adv-x="600" d="M609 654 L271 654 C256 654 236 644 233 628 L120 73 C111 30 142 0 183 0 L370 0 C353 -20 341 -45 341 -72 C341 -116 373 -151 420 -151 C445 -151 519 -131 519 -99 C519 -88 510 -81 495 -81 C484 -81 476 -84 460 -95 C452 -100 446 -103 438 -103 C418 -103 404 -85 404 -63 C404 -37 422 -6 447 -1 C450 0 454 0 457 0 L478 0 C495 0 518 11 518 31 C518 42 508 48 494 48 L206 48 C187 48 178 56 183 77 L239 354 L375 354 C391 354 414 365 414 383 C414 396 401 402 389 402 L249 402 L290 605 L595 605 C612 605 634 618 634 636 C634 648 622 654 609 654 L609 654 Z " />
<glyph glyph-name="eogonek" unicode="&#x119;" horiz-adv-x="600" d="M220 140 C220 149 221 159 223 168 L247 281 C261 346 322 403 387 403 C436 403 459 381 459 336 C459 271 414 247 344 247 L299 247 C282 247 257 236 257 216 C257 199 280 199 294 199 L324 199 C431 199 525 237 525 348 C525 415 473 450 401 450 C304 450 205 375 184 278 L160 165 C158 154 156 142 156 130 C156 70 190 24 244 4 C224 -17 211 -44 211 -72 C211 -116 243 -151 290 -151 C315 -151 389 -131 389 -99 C389 -88 380 -81 365 -81 C354 -81 346 -84 330 -95 C322 -100 316 -103 308 -103 C287 -103 274 -85 274 -63 C274 -41 287 -15 307 -5 C315 -4 324 -2 335 0 L348 0 C361 0 373 5 380 13 C415 25 447 43 452 64 L452 68 C452 80 441 87 428 87 C417 87 408 81 399 75 C398 74 395 72 394 72 C394 72 393 72 392 71 C380 63 365 54 347 48 L339 48 C328 48 317 46 307 43 C254 47 220 88 220 140 L220 140 Z " />
<glyph glyph-name="Ecaron" unicode="&#x11a;" horiz-adv-x="600" d="M609 654 L271 654 C256 654 236 644 233 628 L120 73 C111 30 142 0 183 0 L472 0 C488 0 511 12 511 31 C511 43 498 48 486 48 L206 48 C187 48 178 56 183 77 L239 354 L375 354 C391 354 414 365 414 383 C414 396 401 402 389 402 L249 402 L290 605 L595 605 C612 605 634 618 634 636 C634 648 622 654 609 654 L609 654 Z M441 706 C450 706 460 710 467 716 L556 792 C562 797 567 805 567 813 C567 824 556 830 545 830 C536 830 526 827 519 821 L458 768 L417 823 C413 828 405 830 398 830 C383 830 361 818 361 801 C361 797 363 793 365 790 L423 714 C426 708 434 706 441 706 L441 706 Z " />
<glyph glyph-name="ecaron" unicode="&#x11b;" horiz-adv-x="600" d="M314 43 C257 43 220 86 220 140 C220 149 221 159 223 168 L247 281 C261 346 322 403 387 403 C436 403 459 381 459 336 C459 271 414 247 344 247 L299 247 C282 247 257 236 257 216 C257 199 280 199 294 199 L324 199 C431 199 525 237 525 348 C525 415 473 450 401 450 C304 450 205 375 184 278 L160 165 C158 154 156 142 156 130 C156 51 216 -5 300 -5 C331 -5 443 24 452 64 L452 68 C452 80 441 87 428 87 C417 87 408 81 399 75 C398 74 395 72 394 72 C394 72 393 72 392 71 C374 59 348 43 314 43 L314 43 Z M405 528 C414 528 425 531 432 537 L521 614 C526 619 531 626 531 634 C531 646 520 651 510 651 C501 651 490 648 483 642 L423 589 L381 644 C377 649 370 651 363 651 C347 651 326 640 326 622 C326 618 327 615 329 612 L387 535 C391 530 399 528 405 528 L405 528 Z " />
<glyph glyph-name="Gcircumflex" unicode="&#x11c;" horiz-adv-x="600" d="M538 353 L511 219 C491 123 403 44 315 44 C238 44 184 105 184 185 C184 197 185 210 188 223 L230 430 C248 519 348 605 433 605 L522 605 C537 605 561 617 561 635 C561 646 550 654 536 654 L439 654 C315 654 192 552 167 426 L124 219 C121 203 120 188 120 173 C120 71 193 -5 301 -5 C425 -5 548 97 573 223 L605 379 C608 392 597 402 581 402 L388 402 C372 402 349 390 349 372 C349 361 360 353 374 353 L538 353 Z M454 769 L496 714 C500 708 507 706 514 706 C530 706 551 718 551 736 C551 740 550 743 548 746 L490 823 C486 828 479 830 472 830 C463 830 453 827 445 821 L356 744 C351 739 346 732 346 724 C346 712 357 706 367 706 C376 706 387 709 394 716 L454 769 Z " />
<glyph glyph-name="gcircumflex" unicode="&#x11d;" horiz-adv-x="600" d="M396 450 C302 450 210 363 210 267 C210 241 217 217 232 197 C174 188 122 139 122 79 C122 47 138 20 166 7 C134 -21 109 -61 109 -104 C109 -159 151 -201 212 -201 L308 -201 C386 -201 465 -132 465 -52 C465 5 422 49 363 49 L227 49 C199 49 185 63 185 86 C185 122 206 150 244 150 L333 150 C426 150 518 236 518 331 C518 357 511 381 497 401 L603 401 C618 401 642 413 642 431 C642 442 632 450 617 450 L396 450 Z M418 590 L460 535 C463 530 471 528 478 528 C494 528 515 539 515 557 C515 561 514 564 511 567 L453 644 C450 649 442 651 435 651 C427 651 416 648 409 642 L320 565 C314 560 309 553 309 545 C309 533 320 528 331 528 C340 528 350 531 357 537 L418 590 Z M344 199 C302 199 273 233 273 278 C273 335 322 401 382 401 C425 401 455 367 455 321 C455 263 405 199 344 199 L344 199 Z M227 -152 C195 -152 172 -127 172 -93 C172 -53 211 0 253 0 L349 0 C380 0 402 -27 402 -62 C402 -104 366 -152 322 -152 L227 -152 Z " />
<glyph glyph-name="Gbreve" unicode="&#x11e;" horiz-adv-x="600" d="M538 353 L511 219 C491 123 403 44 315 44 C238 44 184 105 184 185 C184 197 185 210 188 223 L230 430 C248 519 348 605 433 605 L522 605 C537 605 561 617 561 635 C561 646 550 654 536 654 L439 654 C315 654 192 552 167 426 L124 219 C121 203 120 188 120 173 C120 71 193 -5 301 -5 C425 -5 548 97 573 223 L605 379 C608 392 597 402 581 402 L388 402 C372 402 349 390 349 372 C349 361 360 353 374 353 L538 353 Z M441 706 C495 706 549 744 564 801 C565 804 566 806 566 809 C569 823 557 830 543 830 C541 830 539 830 536 830 C523 827 511 817 508 802 C508 800 507 798 507 796 L506 791 C506 789 505 787 504 785 C497 768 477 754 455 754 C435 754 419 767 417 787 C417 789 417 791 417 793 C417 796 417 798 418 801 L418 800 C418 801 418 801 418 802 C419 808 419 812 419 816 C418 824 414 828 407 830 C390 830 366 825 362 805 C361 802 361 799 361 797 C360 792 360 787 360 782 C360 736 393 706 441 706 L441 706 Z M419 804 L418 801 C418 802 418 803 419 804 L419 804 Z M419 805 L419 804 C419 804 419 804 419 805 L419 805 Z " />
<glyph glyph-name="gbreve" unicode="&#x11f;" horiz-adv-x="600" d="M396 450 C302 450 210 363 210 267 C210 241 217 217 232 197 C174 188 122 139 122 79 C122 47 138 20 166 7 C134 -21 109 -61 109 -104 C109 -159 151 -201 212 -201 L308 -201 C386 -201 465 -132 465 -52 C465 5 422 49 363 49 L227 49 C199 49 185 63 185 86 C185 122 206 150 244 150 L333 150 C426 150 518 236 518 331 C518 357 511 381 497 401 L603 401 C618 401 642 413 642 431 C642 442 632 450 617 450 L396 450 Z M227 -152 C195 -152 172 -127 172 -93 C172 -53 210 0 253 0 L349 0 C380 0 402 -27 402 -62 C402 -105 367 -152 322 -152 L227 -152 Z M344 199 C302 199 273 233 273 278 C273 335 322 401 382 401 C425 401 455 367 455 321 C455 263 405 199 344 199 L344 199 Z M404 528 C459 528 513 565 528 622 C529 625 529 627 530 630 C533 644 520 651 507 651 C505 651 502 651 500 651 C487 648 475 638 472 623 C471 621 471 619 471 617 L470 612 C469 610 469 608 468 606 C461 589 441 576 419 576 C398 576 383 589 381 608 C380 610 380 612 380 615 C381 617 381 619 381 622 C382 622 382 623 382 624 L382 622 C383 628 383 633 383 637 C382 646 378 650 371 651 C354 651 330 646 326 626 C324 618 323 611 323 604 C323 557 357 528 404 528 L404 528 Z M382 625 L382 624 C382 625 382 625 382 625 L382 625 Z M382 626 L382 625 L382 626 Z " />
<glyph glyph-name="Gdotaccent" unicode="&#x120;" horiz-adv-x="600" d="M538 353 L511 219 C491 123 403 44 315 44 C238 44 184 105 184 185 C184 197 185 210 188 223 L230 430 C248 519 348 605 433 605 L522 605 C537 605 561 617 561 635 C561 646 550 654 536 654 L439 654 C315 654 192 552 167 426 L124 219 C121 203 120 188 120 173 C120 71 193 -5 301 -5 C425 -5 548 97 573 223 L605 379 C608 392 597 402 581 402 L388 402 C372 402 349 390 349 372 C349 361 360 353 374 353 L538 353 Z M430 786 L421 746 C419 732 433 724 446 724 C461 724 480 733 484 749 L492 790 C495 805 482 813 468 813 C454 813 433 803 430 786 L430 786 Z " />
<glyph glyph-name="gdotaccent" unicode="&#x121;" horiz-adv-x="600" d="M204 -180 C204 -192 216 -199 229 -199 C327 -199 426 -119 446 -22 L540 418 L540 422 C540 434 529 440 517 440 L393 440 C282 440 168 354 145 243 L134 194 C131 179 130 166 130 153 C130 57 206 0 307 0 C325 0 353 1 358 25 C359 27 359 29 359 31 C359 42 347 47 321 47 C246 47 194 92 194 163 C194 174 195 185 198 197 L208 246 C223 317 297 392 360 392 L471 392 L385 -13 C369 -89 319 -146 242 -151 C227 -152 204 -162 204 -180 L204 -180 Z M393 607 L385 567 C382 553 396 545 410 545 C425 545 444 554 447 570 L456 611 C459 626 446 634 432 634 C417 634 397 624 393 607 L393 607 Z " />
<glyph glyph-name="uni0122" unicode="&#x122;" horiz-adv-x="600" d="M538 353 L511 219 C491 123 403 44 315 44 C238 44 184 105 184 185 C184 197 185 210 188 223 L230 430 C248 519 348 605 433 605 L522 605 C537 605 561 617 561 635 C561 646 550 654 536 654 L439 654 C315 654 192 552 167 426 L124 219 C121 203 120 188 120 173 C120 75 189 0 291 -5 C298 -6 306 -6 312 -6 L316 -6 C308 -49 293 -84 275 -118 C272 -123 267 -132 267 -135 L266 -138 C264 -150 277 -157 290 -157 C337 -157 371 -37 382 9 C474 41 553 125 573 223 L605 379 C608 392 597 402 581 402 L388 402 C372 402 349 390 349 372 C349 361 360 353 374 353 L538 353 Z " />
<glyph glyph-name="uni0123" unicode="&#x123;" horiz-adv-x="600" d="M204 -180 C204 -192 216 -199 229 -199 C327 -199 426 -119 446 -22 L540 418 L540 422 C540 434 529 440 517 440 L393 440 C282 440 168 354 145 243 L134 194 C131 179 130 166 130 153 C130 57 206 0 307 0 C325 0 353 1 358 25 C359 27 359 29 359 31 C359 42 347 47 321 47 C246 47 194 92 194 163 C194 174 195 185 198 197 L208 246 C223 317 297 392 360 392 L471 392 L385 -13 C369 -89 319 -146 242 -151 C227 -152 204 -162 204 -180 L204 -180 Z M473 636 C476 652 461 658 448 658 L400 658 C383 658 361 646 361 627 C361 610 385 610 401 610 L405 610 C396 567 381 532 363 498 C360 493 356 484 355 481 L354 478 C352 465 365 458 378 458 C431 458 466 605 473 636 L473 636 Z " />
<glyph glyph-name="Hcircumflex" unicode="&#x124;" horiz-adv-x="600" d="M143 27 L209 353 L534 353 L467 22 C464 7 477 0 491 0 C505 0 526 10 529 27 L652 632 C656 647 641 654 628 654 C613 654 593 644 590 628 L544 402 L219 402 L266 632 C269 647 255 654 241 654 C227 654 207 644 204 628 L81 22 C77 7 91 0 104 0 C119 0 140 10 143 27 L143 27 Z M454 769 L496 714 C500 708 507 706 514 706 C530 706 551 718 551 736 C551 740 550 743 548 746 L490 823 C486 828 479 830 472 830 C463 830 453 827 445 821 L356 744 C351 739 346 732 346 724 C346 712 357 706 367 706 C376 706 387 709 394 716 L454 769 Z " />
<glyph glyph-name="hcircumflex" unicode="&#x125;" horiz-adv-x="600" d="M480 27 L531 277 C534 289 535 301 535 312 C535 391 477 450 393 450 L278 450 L314 628 C317 640 306 651 291 651 C273 651 255 639 252 625 L129 22 C127 10 139 0 154 0 C172 0 189 12 192 27 L268 402 L370 402 C435 402 469 365 469 298 C469 281 467 263 463 243 L418 22 C416 10 426 0 442 0 C459 0 478 12 480 27 L480 27 Z M449 743 L491 688 C495 683 502 681 509 681 C525 681 546 693 546 710 C546 714 545 718 542 721 L485 797 C481 803 473 805 467 805 C458 805 447 802 440 795 L351 719 C345 714 341 706 341 698 C341 687 352 681 362 681 C371 681 381 684 388 690 L449 743 Z " />
<glyph glyph-name="Hbar" unicode="&#x126;" horiz-adv-x="600" d="M143 27 L209 353 L534 353 L467 22 C464 7 477 0 491 0 C505 0 526 10 529 27 L652 632 C656 647 641 654 628 654 C613 654 593 644 590 628 L544 402 L219 402 L266 632 C269 647 255 654 241 654 C227 654 207 644 204 628 L81 22 C77 7 91 0 104 0 C119 0 140 10 143 27 L143 27 Z M379 753 L524 753 C539 753 563 766 563 784 C563 796 550 802 537 802 L393 802 C377 802 355 789 355 772 C355 759 367 753 379 753 L379 753 Z " />
<glyph glyph-name="hbar" unicode="&#x127;" horiz-adv-x="600" d="M220 575 L242 575 C222 480 150 122 129 22 C127 10 139 0 154 0 C172 0 189 12 192 27 L268 402 L370 402 C435 402 469 365 469 298 C469 281 467 263 463 243 L418 22 C416 10 426 0 442 0 C459 0 478 12 480 27 C490 73 524 239 531 277 C534 289 535 301 535 312 C535 391 477 450 393 450 L278 450 C282 468 299 553 303 575 L365 575 C381 575 404 587 404 605 C404 617 391 623 379 623 L313 623 C313 624 314 627 314 628 C317 640 306 651 291 651 C273 651 255 639 252 625 C252 624 252 623 252 623 L234 623 C218 623 196 610 196 593 C196 580 209 575 220 575 L220 575 Z " />
<glyph glyph-name="Itilde" unicode="&#x128;" horiz-adv-x="600" d="M178 0 L417 0 C434 0 456 12 456 31 C456 44 444 51 432 51 L342 51 L454 603 L540 603 C557 603 579 615 579 634 C579 647 567 654 554 654 L315 654 C298 654 275 641 275 622 C275 610 288 603 300 603 L392 603 L280 51 L192 51 C175 51 153 38 153 19 C153 7 165 0 178 0 L178 0 Z M510 773 C498 773 491 781 482 792 C471 806 457 823 421 823 C380 823 326 792 326 746 C326 730 337 725 351 725 C369 725 377 734 385 756 C391 769 395 775 405 775 C415 775 421 770 428 763 C450 738 464 725 493 725 C535 725 588 756 588 802 C588 818 578 823 564 823 C542 823 536 808 535 806 C526 778 521 773 510 773 L510 773 Z " />
<glyph glyph-name="itilde" unicode="&#x129;" horiz-adv-x="600" d="M146 0 L451 0 C467 0 489 11 489 29 C489 41 477 49 465 49 L372 49 L449 427 C451 443 437 451 424 451 L280 451 C264 451 241 439 241 421 C241 409 254 402 266 402 L382 402 L310 49 L160 49 C144 49 121 37 121 19 C121 7 134 0 146 0 L146 0 Z M474 594 C462 594 455 602 445 613 C434 627 420 644 385 644 C344 644 290 613 290 567 C290 551 301 546 314 546 C333 546 341 555 349 577 C354 590 359 596 368 596 C378 596 385 591 391 584 C414 559 428 546 457 546 C498 546 552 577 552 623 C552 639 541 644 528 644 C505 644 499 629 499 627 C489 599 484 594 474 594 L474 594 Z " />
<glyph glyph-name="Imacron" unicode="&#x12a;" horiz-adv-x="600" d="M178 0 L417 0 C434 0 456 12 456 31 C456 44 444 51 432 51 L342 51 L454 603 L540 603 C557 603 579 615 579 634 C579 647 567 654 554 654 L315 654 C298 654 275 641 275 622 C275 610 288 603 300 603 L392 603 L280 51 L192 51 C175 51 153 38 153 19 C153 7 165 0 178 0 L178 0 Z M379 753 L524 753 C539 753 563 766 563 784 C563 796 550 802 537 802 L393 802 C377 802 355 789 355 772 C355 759 367 753 379 753 L379 753 Z " />
<glyph glyph-name="imacron" unicode="&#x12b;" horiz-adv-x="600" d="M146 0 L451 0 C467 0 489 11 489 29 C489 41 477 49 465 49 L372 49 L449 427 C451 443 437 451 424 451 L280 451 C264 451 241 439 241 421 C241 409 254 402 266 402 L382 402 L310 49 L160 49 C144 49 121 37 121 19 C121 7 134 0 146 0 L146 0 Z M343 575 L487 575 C503 575 526 587 526 605 C526 617 513 623 501 623 L356 623 C341 623 318 610 318 593 C318 580 331 575 343 575 L343 575 Z " />
<glyph glyph-name="Ibreve" unicode="&#x12c;" horiz-adv-x="600" d="M178 0 L417 0 C434 0 456 12 456 31 C456 44 444 51 432 51 L342 51 L454 603 L540 603 C557 603 579 615 579 634 C579 647 567 654 554 654 L315 654 C298 654 275 641 275 622 C275 610 288 603 300 603 L392 603 L280 51 L192 51 C175 51 153 38 153 19 C153 7 165 0 178 0 L178 0 Z M441 706 C495 706 549 744 564 801 C565 804 566 806 566 809 C569 823 557 830 543 830 C541 830 539 830 536 830 C523 827 511 817 508 802 C508 800 507 798 507 796 L506 791 C506 789 505 787 504 785 C498 770 482 757 463 755 C460 755 458 754 455 754 C435 754 419 767 417 787 C417 791 417 796 418 800 C422 820 418 828 407 830 C390 830 366 825 362 805 C361 802 361 799 361 797 C360 792 360 787 360 782 C360 736 393 706 441 706 L441 706 Z " />
<glyph glyph-name="ibreve" unicode="&#x12d;" horiz-adv-x="600" d="M146 0 L451 0 C466 0 489 11 489 29 C489 40 479 49 465 49 L372 49 L449 427 C450 441 440 451 424 451 L280 451 C265 451 241 438 241 421 C241 410 252 402 266 402 L382 402 L310 49 L160 49 C145 49 121 37 121 19 C121 8 132 0 146 0 L146 0 Z M404 528 C458 528 507 563 525 612 C527 618 530 627 530 634 C530 651 511 651 499 651 C483 648 474 636 470 612 C466 595 448 580 428 576 C404 576 380 583 380 613 C381 616 381 619 381 622 C386 642 381 651 365 651 C346 651 328 640 326 626 C324 619 323 611 323 604 C323 559 355 528 404 528 L404 528 Z " />
<glyph glyph-name="Iogonek" unicode="&#x12e;" horiz-adv-x="600" d="M178 0 L223 0 C206 -20 194 -45 194 -72 C194 -116 226 -151 273 -151 C298 -151 373 -131 373 -99 C373 -88 363 -81 348 -81 C337 -81 329 -84 313 -95 C305 -100 300 -103 292 -103 C271 -103 257 -85 257 -63 C257 -37 275 -6 301 -1 C303 0 306 0 308 0 L417 0 C434 0 456 12 456 31 C456 44 444 51 432 51 L342 51 L454 603 L540 603 C557 603 579 615 579 634 C579 647 567 654 554 654 L315 654 C298 654 275 641 275 622 C275 610 288 603 300 603 L392 603 L280 51 L192 51 C175 51 153 38 153 19 C153 7 165 0 178 0 L178 0 Z " />
<glyph glyph-name="iogonek" unicode="&#x12f;" horiz-adv-x="600" d="M146 0 L199 0 C182 -20 170 -46 170 -72 C170 -116 202 -151 249 -151 C274 -151 348 -131 348 -99 C348 -88 339 -81 324 -81 C313 -81 304 -84 288 -95 C281 -100 275 -103 267 -103 C246 -103 233 -85 233 -63 C233 -37 251 -6 276 -1 C278 0 282 0 285 0 L451 0 C467 0 489 11 489 29 C489 41 477 49 465 49 L372 49 L449 427 C451 443 437 451 424 451 L280 451 C264 451 241 439 241 421 C241 409 254 402 266 402 L382 402 L310 49 L160 49 C144 49 121 37 121 19 C121 7 134 0 146 0 L146 0 Z M478 578 L487 622 C488 624 488 626 488 628 C491 640 480 651 465 651 C447 651 429 639 426 625 L417 580 C417 578 416 576 416 575 C413 562 425 552 441 552 C458 552 475 563 478 578 L478 578 Z " />
<glyph glyph-name="Idotaccent" unicode="&#x130;" horiz-adv-x="600" d="M178 0 L417 0 C434 0 456 12 456 31 C456 44 444 51 432 51 L342 51 L454 603 L540 603 C557 603 579 615 579 634 C579 647 567 654 554 654 L315 654 C298 654 275 641 275 622 C275 610 288 603 300 603 L392 603 L280 51 L192 51 C175 51 153 38 153 19 C153 7 165 0 178 0 L178 0 Z M430 786 L421 746 C419 732 433 724 446 724 C461 724 480 733 484 749 L492 790 C495 805 482 813 468 813 C454 813 433 803 430 786 L430 786 Z " />
<glyph glyph-name="dotlessi" unicode="&#x131;" horiz-adv-x="600" d="M146 0 L451 0 C467 0 489 11 489 29 C489 41 477 49 465 49 L372 49 L449 427 C451 443 437 451 424 451 L280 451 C264 451 241 439 241 421 C241 409 254 402 266 402 L382 402 L310 49 L160 49 C144 49 121 37 121 19 C121 7 134 0 146 0 L146 0 Z " />
<glyph glyph-name="IJ" unicode="&#x132;" horiz-adv-x="600" d="M211 424 L150 123 C147 110 159 100 175 100 C192 100 209 112 212 127 L273 427 C276 440 265 450 250 450 C232 450 214 439 211 424 L211 424 Z M275 -152 C244 -152 222 -137 204 -122 C194 -113 187 -107 176 -107 C162 -107 139 -121 139 -137 C139 -163 207 -201 266 -201 C354 -201 450 -122 470 -25 L562 427 C564 440 554 450 538 450 C532 450 527 448 521 446 C511 442 502 433 500 424 L410 -16 C394 -94 336 -152 275 -152 L275 -152 Z M252 625 L238 557 C238 554 237 552 237 549 C234 537 246 527 261 527 C279 527 296 539 299 553 C300 556 300 558 301 561 L313 620 C313 623 314 625 314 628 C317 640 306 651 291 651 C273 651 255 639 252 625 L252 625 Z M540 625 L527 557 C526 554 526 552 525 549 C523 537 533 527 549 527 C567 527 585 539 588 553 C588 556 589 558 589 561 L601 620 C602 623 602 625 603 628 C605 640 595 651 579 651 C562 651 543 639 540 625 L540 625 Z " />
<glyph glyph-name="ij" unicode="&#x133;" horiz-adv-x="600" d="M211 421 L149 120 C147 107 158 97 174 97 C192 97 209 109 212 124 L273 424 C275 437 265 447 249 447 C231 447 213 436 211 421 L211 421 Z M274 -155 C243 -155 222 -140 203 -125 C193 -117 187 -110 176 -110 C162 -110 139 -124 139 -140 C139 -167 206 -204 265 -204 C353 -204 450 -125 469 -28 L561 424 C564 437 553 447 538 447 C523 447 504 436 499 421 L410 -19 C394 -97 335 -155 274 -155 L274 -155 Z M251 622 L237 553 C237 551 236 548 236 546 C233 534 245 523 261 523 C278 523 295 536 298 550 L312 617 C313 620 313 622 314 625 C316 637 306 648 290 648 C272 648 254 636 251 622 L251 622 Z M540 622 L526 553 C526 551 525 548 524 546 C522 534 533 523 548 523 C566 523 584 536 587 550 C587 553 588 555 588 557 L601 617 C601 620 602 622 602 625 C605 637 594 648 579 648 C561 648 543 636 540 622 L540 622 Z " />
<glyph glyph-name="Jcircumflex" unicode="&#x134;" horiz-adv-x="600" d="M268 -5 C352 -5 435 63 452 147 L549 623 C550 625 551 627 551 630 C552 631 552 633 552 634 C552 647 539 654 527 654 L310 654 C293 654 271 641 271 622 C271 610 283 603 296 603 L483 603 L390 145 C378 87 330 44 280 44 C254 44 234 55 220 78 C213 90 206 94 195 94 C176 94 156 80 156 59 C156 27 210 -5 268 -5 L268 -5 Z M454 769 L496 714 C500 708 507 706 514 706 C530 706 551 718 551 736 C551 740 550 743 548 746 L490 823 C486 828 479 830 472 830 C463 830 453 827 445 821 L356 744 C351 739 346 732 346 724 C346 712 357 706 367 706 C376 706 387 709 394 716 L454 769 Z " />
<glyph glyph-name="jcircumflex" unicode="&#x135;" horiz-adv-x="600" d="M154 -182 C154 -192 164 -201 178 -201 C275 -201 371 -122 391 -25 L483 427 C484 436 480 443 472 447 C468 449 463 451 457 451 L290 451 C274 451 251 439 251 421 C251 409 264 402 276 402 L417 402 L332 -15 C315 -97 263 -147 191 -152 C176 -153 154 -164 154 -182 L154 -182 Z M491 590 L529 540 C530 538 532 536 533 535 C536 531 541 529 546 528 C563 528 583 534 588 553 C588 555 588 556 588 558 C588 561 587 565 585 567 C582 571 580 574 577 577 L527 644 C523 649 516 651 509 651 C500 651 490 648 482 642 L405 575 C401 572 397 569 393 565 C390 563 387 559 385 555 C384 552 383 548 383 545 C383 529 399 528 411 528 C418 529 425 532 431 537 C433 538 434 540 436 542 L491 590 Z " />
<glyph glyph-name="uni0136" unicode="&#x136;" horiz-adv-x="600" d="M157 27 L221 342 L336 415 L469 44 C457 39 447 30 447 16 C447 -1 471 -1 487 -1 L491 -1 C483 -39 468 -76 449 -112 C446 -118 441 -127 441 -130 L440 -133 C438 -145 451 -152 464 -152 C516 -152 552 -6 559 26 C561 39 550 46 538 47 L394 451 L649 611 C657 617 667 626 667 636 C667 648 654 654 641 654 C637 654 634 654 631 652 C627 651 624 650 621 648 C614 644 607 640 600 635 L234 406 L280 632 C283 647 269 654 255 654 C240 654 221 644 217 628 L94 22 C91 7 104 0 118 0 C133 0 153 10 157 27 L157 27 Z " />
<glyph glyph-name="uni0137" unicode="&#x137;" horiz-adv-x="600" d="M198 26 L246 263 L344 309 L416 42 C406 37 395 28 395 15 C395 -2 420 -2 436 -2 L439 -2 C431 -45 416 -80 398 -113 C395 -119 390 -128 390 -131 L389 -134 C387 -146 400 -153 413 -153 C465 -153 501 -7 507 25 C510 39 497 45 484 46 C471 95 416 288 403 336 L547 405 C556 409 568 419 568 431 C568 442 558 450 544 450 C538 450 532 448 527 446 L257 319 L320 628 C323 640 312 650 296 650 C279 650 261 639 258 625 L135 22 C133 10 144 -1 160 -1 C178 -1 195 11 198 26 L198 26 Z " />
<glyph glyph-name="kgreenlandic" unicode="&#x138;" horiz-adv-x="600" d="M192 26 L240 263 L320 301 L419 12 C422 4 432 0 442 0 C457 0 477 9 480 26 C481 29 481 33 480 37 C463 86 395 279 378 328 L541 405 C551 410 562 419 562 431 C562 443 551 450 538 450 C532 450 526 449 521 447 L251 319 L273 427 C276 442 263 450 250 450 C235 450 215 441 211 424 L129 22 C127 8 141 0 154 0 C169 0 188 9 192 26 L192 26 Z " />
<glyph glyph-name="Lacute" unicode="&#x139;" horiz-adv-x="600" d="M212 48 L331 632 C334 647 320 654 306 654 C291 654 272 644 268 628 L145 22 C142 7 155 0 169 0 L459 0 C476 0 498 13 498 31 C498 43 485 48 473 48 L212 48 Z M419 725 C419 713 430 707 441 707 C450 707 460 711 467 717 L556 793 C562 798 567 806 567 814 C567 825 556 831 545 831 C537 831 526 828 519 822 L430 745 C424 740 419 733 419 725 L419 725 Z " />
<glyph glyph-name="lacute" unicode="&#x13a;" horiz-adv-x="600" d="M146 0 L451 0 C467 0 489 11 489 29 C489 41 477 49 465 49 L372 49 L489 628 C491 643 479 651 465 651 L321 651 C305 651 282 639 282 621 C282 609 295 602 307 602 L422 602 L310 49 L160 49 C144 49 121 37 121 19 C121 7 134 0 146 0 L146 0 Z M451 699 C451 688 462 682 473 682 C482 682 492 685 499 691 L588 768 C594 773 599 780 599 788 C599 800 588 806 577 806 C568 806 558 803 551 796 L462 720 C456 715 451 707 451 699 L451 699 Z " />
<glyph glyph-name="uni013B" unicode="&#x13b;" horiz-adv-x="600" d="M212 48 L331 632 C334 647 320 654 306 654 C291 654 272 644 268 628 L145 22 C142 7 155 0 169 0 L405 0 C412 -1 419 -1 425 -1 L429 -1 C420 -44 405 -79 388 -112 C385 -118 380 -127 379 -130 C379 -130 379 -132 379 -133 C376 -145 389 -152 402 -152 C455 -152 490 -6 497 27 C500 42 487 48 473 48 L212 48 Z " />
<glyph glyph-name="uni013C" unicode="&#x13c;" horiz-adv-x="600" d="M146 0 L403 0 C410 -1 417 -1 423 -1 L427 -1 C418 -44 403 -79 386 -112 C383 -118 378 -127 377 -130 L377 -133 C374 -145 387 -152 400 -152 C453 -152 489 -6 495 26 C498 38 488 45 477 46 C473 48 469 49 465 49 L372 49 L489 628 C492 642 479 651 465 651 L321 651 C305 651 282 639 282 621 C282 609 295 602 307 602 L422 602 L310 49 L160 49 C144 49 121 37 121 19 C121 7 134 0 146 0 L146 0 Z " />
<glyph glyph-name="Lcaron" unicode="&#x13d;" horiz-adv-x="600" d="M212 48 L331 632 C334 647 320 654 306 654 C291 654 272 644 268 628 L145 22 C142 7 155 0 169 0 L459 0 C476 0 498 13 498 31 C498 43 485 48 473 48 L212 48 Z M608 639 C611 654 597 660 583 660 L535 660 C518 660 496 649 496 630 C496 612 521 612 536 612 L540 612 C539 607 538 602 536 597 C527 561 514 530 499 501 C496 496 491 487 490 484 L490 481 C487 468 500 461 513 461 C566 461 602 607 608 639 L608 639 Z " />
<glyph glyph-name="lcaron" unicode="&#x13e;" horiz-adv-x="600" d="M146 0 L451 0 C467 0 489 11 489 29 C489 41 477 49 465 49 L372 49 L489 628 C491 643 479 651 465 651 L321 651 C305 651 282 639 282 621 C282 609 295 602 307 602 L422 602 L310 49 L160 49 C144 49 121 37 121 19 C121 7 134 0 146 0 L146 0 Z M670 631 C673 646 659 652 645 652 L597 652 C580 652 558 640 558 621 C558 604 583 604 598 604 L602 604 C593 561 578 527 561 493 C558 488 553 478 552 475 L552 472 C549 460 562 453 575 453 C628 453 663 599 670 631 L670 631 Z " />
<glyph glyph-name="Ldot" unicode="&#x13f;" horiz-adv-x="600" d="M212 48 L331 632 C334 647 320 654 306 654 C291 654 272 644 268 628 L145 22 C142 7 155 0 169 0 L459 0 C476 0 498 13 498 31 C498 43 485 48 473 48 L212 48 Z M516 607 L508 567 C505 553 519 545 533 545 C548 545 567 554 571 570 L579 611 C582 626 569 634 555 634 C540 634 520 624 516 607 L516 607 Z " />
<glyph glyph-name="ldot" unicode="&#x140;" horiz-adv-x="600" d="M181 407 L166 330 C163 315 175 307 188 307 C203 307 223 317 227 334 L243 411 C246 426 233 435 220 435 C205 435 185 424 181 407 L181 407 Z M146 0 L451 0 C467 0 489 11 489 29 C489 41 477 49 465 49 L372 49 L489 628 C491 643 479 651 465 651 L321 651 C305 651 282 639 282 621 C282 609 295 602 307 602 L422 602 L310 49 L160 49 C144 49 121 37 121 19 C121 7 134 0 146 0 L146 0 Z " />
<glyph glyph-name="Lslash" unicode="&#x141;" horiz-adv-x="600" d="M212 48 L260 286 C297 308 334 332 347 340 C350 342 351 343 352 343 C358 349 363 356 363 364 C363 377 351 383 340 383 C334 383 328 382 322 379 C322 379 320 378 317 377 C309 372 293 362 274 351 L327 615 C328 621 330 626 331 632 C334 647 320 654 306 654 C291 654 272 644 268 628 L203 308 C180 293 159 280 150 274 C147 272 145 271 144 270 C138 265 133 257 133 249 C133 237 144 230 156 230 C162 230 168 231 173 234 C175 235 181 238 190 243 L149 39 C147 34 146 28 145 22 C142 7 155 0 169 0 L459 0 C476 0 498 13 498 31 C498 43 485 48 473 48 L212 48 Z " />
<glyph glyph-name="lslash" unicode="&#x142;" horiz-adv-x="600" d="M513 367 C513 379 501 386 490 386 C482 386 473 382 463 377 C454 372 444 365 435 359 L489 628 C491 643 479 651 465 651 L321 651 C305 651 282 639 282 621 C282 609 295 602 307 602 L422 602 L364 315 L300 275 C291 269 283 260 283 249 C283 237 294 230 306 230 C319 230 339 242 351 249 L310 49 L160 49 C144 49 121 37 121 19 C121 7 134 0 146 0 L451 0 C467 0 489 11 489 29 C489 41 477 49 465 49 L372 49 L422 295 L496 341 C505 346 513 356 513 367 L513 367 Z " />
<glyph glyph-name="Nacute" unicode="&#x143;" horiz-adv-x="600" d="M242 654 C228 654 207 644 204 628 L81 22 C78 8 91 0 104 0 C119 0 139 9 143 26 L252 563 L516 266 L467 22 C464 8 477 0 491 0 C505 0 526 9 529 26 L652 632 C655 646 642 654 629 654 C614 654 593 644 590 628 L532 344 L261 647 C258 652 250 654 242 654 L242 654 Z M456 725 C456 713 467 707 477 707 C479 707 481 708 483 708 C490 709 498 712 503 717 C505 718 507 720 508 721 L583 785 C586 788 589 790 592 793 C596 796 598 800 600 804 C602 807 603 810 603 814 C603 829 587 831 576 831 C569 830 561 827 555 822 C552 819 549 816 545 813 L471 750 C463 743 456 736 456 725 L456 725 Z " />
<glyph glyph-name="nacute" unicode="&#x144;" horiz-adv-x="600" d="M267 402 L379 402 C436 402 469 361 469 297 C469 284 467 268 464 253 L417 22 C414 9 423 0 440 0 C457 0 477 12 480 27 L530 277 C533 289 534 301 534 312 C534 391 476 450 392 450 L249 450 C231 450 213 438 210 423 L129 22 C126 10 137 0 153 0 C171 0 188 12 191 27 L267 402 Z M383 546 C383 534 394 529 405 529 C413 529 424 532 431 538 L520 614 C526 619 530 627 530 635 C530 646 519 652 509 652 C500 652 490 649 483 643 L394 566 C388 561 383 554 383 546 L383 546 Z " />
<glyph glyph-name="uni0145" unicode="&#x145;" horiz-adv-x="600" d="M242 654 C228 654 207 644 204 628 L81 22 C78 8 91 0 104 0 C119 0 139 9 143 26 L252 563 L516 266 L472 45 C466 43 460 41 455 36 C449 31 445 24 445 16 C445 -1 469 -1 485 -1 L489 -1 C480 -44 465 -79 447 -112 C444 -118 440 -127 439 -130 L438 -133 C436 -145 449 -152 462 -152 C515 -152 550 -6 557 26 C560 40 547 46 534 47 L652 632 C655 646 642 654 629 654 C614 654 593 644 590 628 L532 344 L261 647 C258 652 250 654 242 654 L242 654 Z " />
<glyph glyph-name="uni0146" unicode="&#x146;" horiz-adv-x="600" d="M268 402 L380 402 C437 402 470 361 470 297 C470 284 468 268 465 253 L422 44 C409 40 395 30 395 15 C395 -2 420 -2 436 -2 L439 -2 C431 -45 416 -80 398 -113 C395 -119 390 -128 390 -131 L389 -134 C387 -146 400 -153 413 -153 C465 -153 501 -7 507 25 C510 39 498 45 484 46 L531 277 C534 289 535 301 535 312 C535 391 477 450 393 450 L250 450 C232 450 214 438 211 423 L129 22 C127 10 138 0 154 0 C172 0 189 12 192 27 L268 402 Z " />
<glyph glyph-name="Ncaron" unicode="&#x147;" horiz-adv-x="600" d="M242 654 C228 654 207 644 204 628 L81 22 C78 8 91 0 104 0 C119 0 139 9 143 26 L252 563 L516 266 L467 22 C464 8 477 0 491 0 C505 0 526 9 529 26 L652 632 C655 646 642 654 629 654 C614 654 593 644 590 628 L532 344 L261 647 C258 652 250 654 242 654 L242 654 Z M441 706 C450 706 460 710 467 716 L545 783 C549 786 552 789 556 792 C561 797 567 806 567 813 C567 829 550 830 538 830 C531 828 524 826 519 821 L458 768 L420 818 C419 820 418 821 417 823 C414 827 409 829 404 830 C388 830 366 824 362 805 C362 803 361 801 362 800 C362 796 363 793 365 790 C367 787 370 784 372 781 L423 714 C426 708 434 706 441 706 L441 706 Z " />
<glyph glyph-name="ncaron" unicode="&#x148;" horiz-adv-x="600" d="M267 402 L379 402 C436 402 469 361 469 297 C469 284 467 268 464 253 L417 22 C414 9 423 0 440 0 C457 0 477 12 480 27 L530 277 C533 289 534 301 534 312 C534 391 476 450 392 450 L249 450 C231 450 213 438 210 423 L129 22 C126 10 137 0 153 0 C171 0 188 12 191 27 L267 402 Z M404 528 C413 528 424 531 431 537 L520 613 C525 618 530 626 530 634 C530 645 519 651 509 651 C500 651 489 648 482 642 L422 589 L380 644 C376 649 369 651 362 651 C346 651 325 639 325 622 C325 618 326 614 328 611 L386 535 C390 530 398 528 404 528 L404 528 Z " />
<glyph glyph-name="napostrophe" unicode="&#x149;" horiz-adv-x="600" d="M268 402 L380 402 C437 402 470 361 470 297 C470 284 468 268 465 253 L423 48 C422 40 420 31 418 22 C415 9 424 0 441 0 C458 0 478 12 480 27 L531 277 C534 289 535 301 535 312 C535 391 477 450 393 450 L250 450 C232 450 214 438 211 423 L129 22 C127 10 138 0 154 0 C172 0 189 12 192 27 L268 402 Z M486 639 C489 654 474 660 461 660 L413 660 C396 660 374 649 374 630 C374 612 398 612 414 612 L418 612 C410 574 395 535 376 501 C373 496 369 487 368 484 L367 481 C365 468 378 461 391 461 C444 461 479 607 486 639 L486 639 Z " />
<glyph glyph-name="Eng" unicode="&#x14a;" horiz-adv-x="600" d="M518 -27 L652 632 C654 646 641 654 628 654 C613 654 592 644 589 628 L531 344 L260 647 C257 652 249 654 241 654 C227 654 206 644 203 628 L80 22 C77 8 90 0 103 0 C118 0 139 9 142 26 L251 563 L515 266 L458 -15 C440 -107 393 -153 318 -153 C302 -153 280 -166 280 -183 C280 -194 290 -201 305 -201 C413 -201 496 -133 518 -27 L518 -27 Z " />
<glyph glyph-name="eng" unicode="&#x14b;" horiz-adv-x="600" d="M470 -26 L531 276 C534 288 535 299 535 311 C535 389 477 450 394 450 L250 450 C232 450 215 438 212 423 L130 22 C128 10 138 0 154 0 C172 0 190 12 193 27 L269 402 L379 402 C436 402 472 361 472 304 C472 294 471 284 469 273 L408 -29 C393 -100 338 -152 278 -152 L273 -152 C256 -152 233 -162 233 -182 C233 -193 244 -200 258 -200 C355 -200 450 -122 470 -26 L470 -26 Z " />
<glyph glyph-name="Omacron" unicode="&#x14c;" horiz-adv-x="600" d="M569 223 L613 440 C617 455 618 470 618 485 C618 587 544 665 437 665 C313 665 190 561 165 437 L120 219 C117 203 116 188 116 174 C116 72 190 -5 297 -5 C421 -5 544 98 569 223 L569 223 Z M379 753 L524 753 C539 753 563 766 563 784 C563 796 550 802 537 802 L393 802 C377 802 355 789 355 772 C355 759 367 753 379 753 L379 753 Z M311 44 C234 44 179 107 179 186 C179 198 180 210 183 223 L227 440 C247 536 335 615 423 615 C501 615 555 555 555 475 C555 462 554 450 551 437 L507 219 C487 123 399 44 311 44 L311 44 Z " />
<glyph glyph-name="omacron" unicode="&#x14d;" horiz-adv-x="600" d="M160 168 C158 156 156 144 156 132 C156 53 213 -5 297 -5 C395 -5 490 75 510 172 L534 287 C536 299 537 311 537 323 C537 402 480 460 396 460 C299 460 203 380 183 283 L160 168 Z M343 575 L487 575 C503 575 526 587 526 605 C526 617 513 623 501 623 L356 623 C341 623 318 610 318 593 C318 580 331 575 343 575 L343 575 Z M246 287 C260 356 321 411 383 411 C437 411 474 368 474 311 C474 302 473 293 471 283 L448 168 C434 99 373 44 312 44 C258 44 220 89 220 145 C220 154 221 163 222 172 L246 287 Z " />
<glyph glyph-name="Obreve" unicode="&#x14e;" horiz-adv-x="600" d="M569 223 L613 440 C617 455 618 470 618 485 C618 587 544 665 437 665 C313 665 190 561 165 437 L120 219 C117 203 116 188 116 174 C116 72 190 -5 297 -5 C421 -5 544 98 569 223 L569 223 Z M311 44 C234 44 179 107 179 186 C179 198 180 210 183 223 L227 440 C247 536 335 615 423 615 C501 615 555 555 555 475 C555 462 554 450 551 437 L507 219 C487 123 399 44 311 44 L311 44 Z M441 706 C495 706 549 744 564 801 C565 804 566 806 566 809 C569 823 557 830 543 830 C541 830 539 830 536 830 C523 827 511 817 508 802 C508 800 507 798 507 796 L506 791 C506 789 505 787 504 785 C497 768 477 754 455 754 C435 754 419 767 417 787 C417 789 417 791 417 793 C417 796 417 798 418 801 L418 800 C418 801 418 801 418 802 C419 808 419 812 419 816 C418 824 414 828 407 830 C390 830 366 825 362 805 C361 802 361 799 361 797 C360 792 360 787 360 782 C360 736 393 706 441 706 L441 706 Z M419 804 L418 801 C418 802 418 803 419 804 L419 804 Z M419 805 L419 804 C419 804 419 804 419 805 L419 805 Z " />
<glyph glyph-name="obreve" unicode="&#x14f;" horiz-adv-x="600" d="M159 168 C157 156 155 144 155 132 C155 53 212 -5 296 -5 C394 -5 489 75 509 172 L533 287 C535 299 536 311 536 323 C536 402 479 460 396 460 C298 460 202 380 183 283 L159 168 Z M403 528 C458 528 512 565 527 622 C528 625 528 627 529 630 C532 644 519 651 506 651 C504 651 501 651 499 651 C486 648 474 638 471 623 C470 621 470 619 470 617 L469 612 C468 610 468 608 467 606 C460 589 440 576 418 576 C397 576 382 589 380 608 C379 610 379 612 380 615 C380 617 380 619 380 622 C381 623 381 624 381 626 L381 622 C382 628 382 633 382 637 C381 646 377 650 370 651 C353 651 329 646 325 626 C323 618 322 611 322 604 C322 557 356 528 403 528 L403 528 Z M245 287 C259 356 320 411 382 411 C436 411 473 368 473 311 C473 302 472 293 470 283 L447 168 C433 99 373 44 311 44 C257 44 219 89 219 145 C219 154 220 163 221 172 L245 287 Z " />
<glyph glyph-name="Ohungarumlaut" unicode="&#x150;" horiz-adv-x="600" d="M569 223 L613 440 C617 455 618 470 618 485 C618 587 544 665 437 665 C313 665 190 561 165 437 L120 219 C117 203 116 188 116 174 C116 72 190 -5 297 -5 C421 -5 544 98 569 223 L569 223 Z M371 725 C371 713 381 707 392 707 C401 707 411 711 418 717 L507 793 C513 798 518 806 518 814 C518 825 507 831 496 831 C488 831 477 828 470 822 L381 745 C375 740 371 733 371 725 L371 725 Z M542 725 C542 713 553 707 563 707 C572 707 582 711 590 717 L678 793 C684 798 689 806 689 814 C689 825 678 831 668 831 C659 831 648 828 641 822 L552 745 C546 740 542 733 542 725 L542 725 Z M311 44 C234 44 179 107 179 186 C179 198 180 210 183 223 L227 440 C247 536 335 615 423 615 C501 615 555 555 555 475 C555 462 554 450 551 437 L507 219 C487 123 399 44 311 44 L311 44 Z " />
<glyph glyph-name="ohungarumlaut" unicode="&#x151;" horiz-adv-x="600" d="M160 168 C158 156 156 144 156 132 C156 53 213 -5 297 -5 C395 -5 490 75 510 172 L534 287 C536 299 537 311 537 323 C537 402 480 460 396 460 C299 460 203 380 183 283 L160 168 Z M334 546 C334 534 345 529 356 529 C364 529 375 532 382 538 L471 614 C477 619 482 627 482 635 C482 646 471 652 460 652 C451 652 441 649 434 643 L345 566 C339 561 334 554 334 546 L334 546 Z M505 546 C505 534 516 529 527 529 C536 529 546 532 553 538 L642 614 C648 619 653 627 653 635 C653 646 642 652 631 652 C622 652 612 649 605 643 L516 566 C510 561 505 554 505 546 L505 546 Z M246 287 C260 356 321 411 383 411 C437 411 474 368 474 311 C474 302 473 293 471 283 L448 168 C434 99 373 44 312 44 C258 44 220 89 220 145 C220 154 221 163 222 172 L246 287 Z " />
<glyph glyph-name="OE" unicode="&#x152;" horiz-adv-x="600" d="M656 637 L461 637 C444 637 427 627 424 608 C402 628 373 637 341 637 C262 637 172 577 154 490 L80 126 C78 114 76 102 76 92 C76 21 126 -25 199 -25 C240 -25 284 -10 319 21 C331 -9 361 -24 394 -24 L516 -24 C533 -24 553 -11 553 7 C553 25 530 26 515 26 C490 26 464 22 438 22 C419 22 400 24 387 32 C375 40 368 54 373 79 L435 385 L528 385 C545 385 565 398 565 416 C565 433 543 432 529 432 L445 432 L477 590 L626 590 C646 590 678 593 678 619 C678 631 667 637 656 637 L656 637 Z M324 590 C373 590 400 556 400 510 C400 502 399 493 397 484 L325 126 C313 68 268 22 211 22 C159 22 135 58 135 104 C135 114 136 124 139 135 L210 484 C223 548 259 590 324 590 L324 590 Z " />
<glyph glyph-name="oe" unicode="&#x153;" horiz-adv-x="600" d="M75 81 C84 22 128 -5 185 -5 C226 -5 271 8 305 40 C331 -3 373 -5 421 -5 C444 -5 481 -4 481 27 C481 46 456 46 437 45 C432 44 427 44 423 44 C381 44 352 62 352 102 C352 109 353 116 355 124 L370 199 L546 199 C563 199 590 202 595 226 L615 324 C618 336 619 346 619 356 C619 419 575 453 509 453 C466 453 419 437 383 401 C364 436 327 453 285 453 C217 453 132 403 117 325 L75 120 C72 106 77 94 75 81 L75 81 Z M270 404 C315 404 336 374 336 334 C336 325 335 315 333 306 L295 120 C285 70 247 44 201 44 C156 44 133 68 133 109 C133 117 134 125 136 135 C140 154 145 174 149 193 L173 315 C184 366 218 404 270 404 L270 404 Z M393 313 C404 366 442 404 495 404 C536 404 559 381 559 343 C559 336 558 328 557 320 L542 248 L380 248 L393 313 Z " />
<glyph glyph-name="Racute" unicode="&#x154;" horiz-adv-x="600" d="M401 353 L412 353 C513 353 611 429 611 534 C611 604 561 654 489 654 L271 654 C254 654 236 642 233 628 L110 22 C107 10 117 0 134 0 C150 0 169 12 172 27 L290 605 L475 605 C518 605 547 571 547 524 C547 437 473 402 394 402 L363 402 C346 402 334 392 331 378 C331 376 330 374 330 372 C330 369 331 366 333 362 L446 13 C449 3 457 0 464 0 C484 0 509 17 512 32 L401 353 Z M444 725 C444 713 455 707 465 707 C467 707 469 708 471 708 C478 709 486 712 492 717 L571 785 C574 788 577 790 581 793 C584 796 587 800 589 804 C590 807 591 810 591 814 C591 829 575 831 564 831 C557 830 549 827 543 822 C540 819 537 816 534 813 L459 750 C452 743 444 736 444 725 L444 725 Z " />
<glyph glyph-name="racute" unicode="&#x155;" horiz-adv-x="600" d="M252 284 L205 51 L141 51 C124 51 102 38 102 19 C102 7 114 0 127 0 L367 0 C383 0 406 12 406 31 C406 44 393 51 381 51 L266 51 L308 255 C326 344 381 409 440 409 C458 409 489 418 489 441 C489 452 479 460 465 460 C368 460 272 380 252 284 L252 284 Z M435 546 C435 534 446 529 456 529 C465 529 476 532 483 538 L572 614 C578 619 582 627 582 635 C582 646 571 652 561 652 C552 652 542 649 534 643 L446 566 C440 561 435 554 435 546 L435 546 Z " />
<glyph glyph-name="uni0156" unicode="&#x156;" horiz-adv-x="600" d="M401 353 L412 353 C513 353 611 429 611 534 C611 604 561 654 489 654 L271 654 C254 654 236 642 233 628 L110 22 C107 10 117 0 134 0 C150 0 169 12 172 27 C190 115 266 487 290 605 L475 605 C518 605 547 571 547 524 C547 437 473 402 394 402 L363 402 C346 402 330 390 330 372 C330 369 331 366 333 362 C355 294 422 89 439 36 C434 31 430 24 430 16 C430 -1 455 -1 470 -1 L474 -1 C465 -44 450 -79 433 -112 C430 -118 425 -127 424 -130 C424 -130 424 -132 424 -133 C421 -145 434 -152 447 -152 C500 -152 535 -6 542 26 C545 41 531 47 517 47 L507 47 C491 91 409 330 401 353 L401 353 Z " />
<glyph glyph-name="uni0157" unicode="&#x157;" horiz-adv-x="600" d="M284 284 L237 51 L173 51 C157 51 134 38 134 19 C134 7 147 0 159 0 L371 0 C363 -42 348 -76 331 -109 C328 -115 323 -124 322 -127 L322 -130 C319 -142 332 -149 345 -149 C394 -149 429 -21 438 21 C439 24 439 27 440 29 C440 41 436 46 424 49 C421 50 417 51 413 51 L299 51 L340 255 C357 338 407 401 461 408 C465 409 469 409 472 409 C490 409 521 418 521 441 C521 452 511 460 497 460 C400 460 304 380 284 284 L284 284 Z " />
<glyph glyph-name="Rcaron" unicode="&#x158;" horiz-adv-x="600" d="M401 353 L412 353 C513 353 611 429 611 534 C611 604 561 654 489 654 L271 654 C254 654 236 642 233 628 L110 22 C107 10 117 0 134 0 C150 0 169 12 172 27 L290 605 L475 605 C518 605 547 571 547 524 C547 437 473 402 394 402 L363 402 C346 402 334 392 331 378 C331 376 330 374 330 372 C330 369 331 366 333 362 L446 13 C449 3 457 0 464 0 C484 0 509 17 512 32 L401 353 Z M441 706 C450 706 460 710 467 716 L545 783 C549 786 552 789 556 792 C561 797 567 806 567 813 C567 829 550 830 538 830 C531 828 524 826 519 821 L458 768 L420 818 C419 820 418 821 417 823 C414 827 409 829 404 830 C388 830 366 824 362 805 C362 803 361 801 362 800 C362 796 363 793 365 790 C367 787 370 784 372 781 L423 714 C426 708 434 706 441 706 L441 706 Z " />
<glyph glyph-name="rcaron" unicode="&#x159;" horiz-adv-x="600" d="M279 284 L232 51 L168 51 C151 51 129 38 129 19 C129 7 141 0 154 0 L393 0 C410 0 433 12 433 31 C433 44 420 51 408 51 L293 51 L335 255 C353 344 408 409 467 409 C485 409 516 418 516 441 C516 452 506 460 492 460 C395 460 299 380 279 284 L279 284 Z M422 528 C431 528 442 531 449 537 L538 613 C544 618 548 626 548 634 C548 645 537 651 527 651 C518 651 508 648 501 642 L440 589 L398 644 C394 649 387 651 380 651 C364 651 343 639 343 622 C343 618 344 614 347 611 L404 535 C408 530 416 528 422 528 L422 528 Z " />
<glyph glyph-name="Sacute" unicode="&#x15a;" horiz-adv-x="600" d="M289 -5 C422 -5 550 83 550 224 C550 318 468 350 393 380 C308 414 277 440 277 478 C277 552 355 610 424 610 C467 610 496 604 527 587 C538 581 545 579 552 579 C567 579 590 589 590 607 C590 634 523 659 454 659 C345 659 213 584 213 463 C213 410 252 375 353 334 C419 308 485 283 485 208 C485 106 402 44 304 44 C256 44 210 47 172 97 L171 99 C160 112 151 113 146 113 C132 113 109 100 109 85 C109 78 114 71 122 59 L125 56 C157 13 219 -5 289 -5 L289 -5 Z M456 725 C456 713 467 707 477 707 C486 707 496 711 503 717 L592 793 C598 798 603 806 603 814 C603 825 592 831 582 831 C573 831 562 828 555 822 L466 745 C460 740 456 733 456 725 L456 725 Z " />
<glyph glyph-name="sacute" unicode="&#x15b;" horiz-adv-x="600" d="M480 150 C480 196 444 232 332 288 C314 298 299 314 299 336 C299 379 342 408 382 408 C396 408 408 404 428 395 C432 394 436 392 441 390 C448 386 457 382 467 382 C479 382 502 394 502 409 C502 432 441 456 392 456 C321 456 234 398 234 321 C234 271 279 249 286 246 C387 198 416 171 416 137 C416 72 358 43 300 43 C267 43 246 52 226 78 L224 80 C217 90 208 91 203 91 C188 91 165 79 165 62 C165 33 238 -5 306 -5 C391 -5 480 59 480 150 L480 150 Z M419 546 C419 531 434 529 446 529 C454 530 461 533 467 538 C470 541 474 543 477 546 L546 606 C549 609 553 612 556 614 C561 619 567 628 567 635 C567 650 551 652 540 652 C532 651 525 648 519 643 C516 640 512 637 509 635 L435 571 C427 564 419 557 419 546 L419 546 Z " />
<glyph glyph-name="Scircumflex" unicode="&#x15c;" horiz-adv-x="600" d="M289 -5 C422 -5 550 83 550 224 C550 318 468 350 393 380 C308 414 277 440 277 478 C277 552 355 610 424 610 C467 610 496 604 527 587 C538 581 545 579 552 579 C567 579 590 589 590 607 C590 634 523 659 454 659 C345 659 213 584 213 463 C213 410 252 375 353 334 C419 308 485 283 485 208 C485 106 402 44 304 44 C256 44 210 47 172 97 L171 99 C160 112 151 113 146 113 C132 113 109 100 109 85 C109 78 114 71 122 59 L125 56 C157 13 219 -5 289 -5 L289 -5 Z M454 769 L496 714 C500 708 507 706 514 706 C530 706 551 718 551 736 C551 740 550 743 548 746 L490 823 C486 828 479 830 472 830 C463 830 453 827 445 821 L356 744 C351 739 346 732 346 724 C346 712 357 706 367 706 C376 706 387 709 394 716 L454 769 Z " />
<glyph glyph-name="scircumflex" unicode="&#x15d;" horiz-adv-x="600" d="M480 150 C480 196 444 232 332 288 C314 298 299 314 299 336 C299 379 342 408 382 408 C396 408 408 404 428 395 C432 394 436 392 441 390 C448 386 457 382 467 382 C479 382 502 394 502 409 C502 432 441 456 392 456 C321 456 234 398 234 321 C234 271 279 249 286 246 C387 198 416 171 416 137 C416 72 358 43 300 43 C267 43 246 52 226 78 L224 80 C217 90 208 91 203 91 C188 91 165 79 165 62 C165 33 238 -5 306 -5 C391 -5 480 59 480 150 L480 150 Z M418 590 L456 540 C457 538 458 536 460 535 C462 531 467 529 473 528 C489 528 511 535 514 553 C515 555 515 556 515 558 C514 561 513 565 511 567 C509 571 506 574 504 577 L453 644 C450 649 442 651 435 651 C427 651 416 648 409 642 L331 575 C328 572 324 569 320 565 C315 562 309 551 309 545 C309 529 326 528 338 528 C345 529 352 532 357 537 C359 538 361 540 363 542 L418 590 Z " />
<glyph glyph-name="Scedilla" unicode="&#x15e;" horiz-adv-x="600" d="M271 -156 C332 -156 396 -98 396 -35 C396 -18 391 -3 383 9 C477 39 550 123 550 224 C550 318 468 350 393 380 C308 414 277 440 277 478 C277 552 355 610 424 610 C462 610 490 605 517 592 C520 591 524 589 527 587 C535 583 540 580 545 579 C562 579 590 585 590 607 C590 634 523 659 454 659 C345 659 213 584 213 463 C213 410 252 375 353 334 C419 308 485 283 485 208 C485 106 402 44 304 44 C260 44 218 47 182 86 C178 89 175 93 172 97 L171 99 C160 112 151 113 146 113 C132 113 109 100 109 85 C109 78 114 71 122 59 L125 56 C158 12 224 -5 282 -5 L291 -5 C315 -5 330 -21 332 -43 C332 -71 311 -108 280 -108 C272 -108 268 -105 262 -99 C251 -88 244 -86 237 -86 C221 -86 197 -97 197 -115 C197 -136 235 -156 271 -156 L271 -156 Z " />
<glyph glyph-name="scedilla" unicode="&#x15f;" horiz-adv-x="600" d="M285 -155 C341 -155 397 -107 408 -53 C408 -50 409 -46 409 -43 C409 -20 408 -3 392 16 C440 41 480 93 480 150 C480 196 444 232 332 288 C314 298 299 313 299 336 C299 379 342 408 382 408 C396 408 408 404 428 395 C430 395 432 394 434 393 L441 390 C448 386 457 382 467 382 C479 382 502 394 502 409 C502 432 441 456 392 456 C321 456 234 398 234 321 C234 271 279 249 286 246 C387 198 416 171 416 137 C416 81 372 49 320 44 L302 44 C299 44 296 44 293 43 C270 44 252 51 238 65 C233 68 229 73 226 78 C225 78 225 79 224 80 C219 87 214 89 209 90 C207 91 205 91 203 91 C188 91 165 79 165 62 C165 23 260 -3 295 -5 C298 -5 302 -5 306 -5 C307 -5 309 -5 310 -5 C311 -5 313 -5 314 -5 C334 -9 346 -24 346 -45 C346 -45 346 -46 345 -47 C345 -50 345 -53 344 -56 C338 -85 316 -107 294 -107 C288 -107 284 -106 281 -103 C279 -102 278 -100 276 -98 C269 -91 262 -85 250 -85 C235 -85 211 -96 211 -114 C211 -135 249 -155 285 -155 L285 -155 Z " />
<glyph glyph-name="Scaron" unicode="&#x160;" horiz-adv-x="600" d="M289 -5 C422 -5 550 83 550 224 C550 318 468 350 393 380 C308 414 277 440 277 478 C277 552 355 610 424 610 C467 610 496 604 527 587 C538 581 545 579 552 579 C567 579 590 589 590 607 C590 634 523 659 454 659 C345 659 213 584 213 463 C213 410 252 375 353 334 C419 308 485 283 485 208 C485 106 402 44 304 44 C256 44 210 47 172 97 L171 99 C160 112 151 113 146 113 C132 113 109 100 109 85 C109 78 114 71 122 59 L125 56 C157 13 219 -5 289 -5 L289 -5 Z M441 706 C450 706 460 710 467 716 L556 792 C562 797 567 805 567 813 C567 824 556 830 545 830 C536 830 526 827 519 821 L458 768 L417 823 C413 828 405 830 398 830 C383 830 361 818 361 801 C361 797 363 793 365 790 L423 714 C426 708 434 706 441 706 L441 706 Z " />
<glyph glyph-name="scaron" unicode="&#x161;" horiz-adv-x="600" d="M480 150 C480 196 444 232 332 288 C314 298 299 314 299 336 C299 379 342 408 382 408 C396 408 408 404 428 395 C432 394 436 392 441 390 C448 386 457 382 467 382 C479 382 502 394 502 409 C502 432 441 456 392 456 C321 456 234 398 234 321 C234 271 279 249 286 246 C387 198 416 171 416 137 C416 72 358 43 300 43 C267 43 246 52 226 78 L224 80 C217 90 208 91 203 91 C188 91 165 79 165 62 C165 33 238 -5 306 -5 C391 -5 480 59 480 150 L480 150 Z M404 528 C413 528 424 531 431 537 L509 604 C512 607 516 610 520 613 C523 616 526 620 528 624 C529 627 530 630 530 634 C530 649 513 651 502 651 C495 650 488 647 482 642 L422 589 L384 639 C383 641 381 642 380 644 C377 648 372 650 367 651 C351 651 330 645 326 626 C325 624 325 622 325 621 C325 617 326 614 328 611 C331 608 333 605 336 602 L386 535 C390 530 398 528 404 528 L404 528 Z " />
<glyph glyph-name="uni0162" unicode="&#x162;" horiz-adv-x="600" d="M232 605 L395 605 L278 30 C275 26 273 21 273 16 C273 -1 298 -1 313 -1 L317 -1 C309 -44 294 -79 276 -112 C273 -118 268 -127 268 -130 L267 -133 C265 -145 278 -152 291 -152 C343 -152 379 -6 385 26 C389 41 374 47 360 47 L343 47 L456 605 L610 605 C626 605 649 618 649 636 C649 648 636 654 624 654 L246 654 C230 654 207 642 207 624 C207 611 220 605 232 605 L232 605 Z " />
<glyph glyph-name="uni0163" unicode="&#x163;" horiz-adv-x="600" d="M371 550 C353 550 335 539 332 524 C331 520 331 516 330 512 L317 450 L253 450 C237 450 214 439 214 421 C214 410 224 401 238 401 L307 401 L260 168 C257 156 256 144 256 132 C256 53 313 -5 399 -5 C390 -47 375 -81 358 -115 C355 -120 350 -129 349 -132 L349 -135 C346 -147 360 -154 372 -154 C425 -154 461 -8 467 24 C470 39 456 45 442 45 L394 45 C393 45 392 45 391 45 C348 51 320 93 320 145 C320 154 321 164 323 175 L369 401 L564 401 C580 401 603 413 603 431 C603 442 593 450 579 450 L379 450 L392 515 C393 519 394 523 395 528 C397 540 386 550 371 550 L371 550 Z " />
<glyph glyph-name="Tcaron" unicode="&#x164;" horiz-adv-x="600" d="M232 605 L395 605 L276 22 C273 7 286 0 300 0 C315 0 335 10 339 27 L456 605 L610 605 C626 605 649 618 649 636 C649 648 636 654 624 654 L246 654 C230 654 207 642 207 624 C207 611 220 605 232 605 L232 605 Z M441 706 C450 706 460 710 467 716 L556 792 C562 797 567 805 567 813 C567 824 556 830 545 830 C536 830 526 827 519 821 L458 768 L417 823 C413 828 405 830 398 830 C383 830 361 818 361 801 C361 797 363 793 365 790 L423 714 C426 708 434 706 441 706 L441 706 Z " />
<glyph glyph-name="tcaron" unicode="&#x165;" horiz-adv-x="600" d="M371 550 C342 550 334 534 329 510 L317 450 L253 450 C237 450 214 439 214 421 C214 410 224 401 238 401 L307 401 L260 168 C257 156 256 144 256 132 C256 53 313 -5 397 -5 C413 -5 436 6 436 25 C436 37 424 44 403 44 C348 44 320 95 320 145 C320 154 321 164 323 175 L369 401 L564 401 C580 401 603 413 603 431 C603 442 593 450 579 450 L379 450 L391 512 C392 517 394 522 395 528 C397 540 386 550 371 550 L371 550 Z M681 639 C684 654 670 660 656 660 L608 660 C592 660 569 649 569 630 C569 612 594 612 609 612 L613 612 C605 573 590 537 572 501 C569 496 564 487 564 484 L563 481 C561 468 574 461 586 461 C639 461 675 607 681 639 L681 639 Z " />
<glyph glyph-name="Tbar" unicode="&#x166;" horiz-adv-x="600" d="M232 605 L395 605 L276 22 C273 7 286 0 300 0 C315 0 335 10 339 27 L456 605 L610 605 C626 605 649 618 649 636 C649 648 636 654 624 654 L246 654 C230 654 207 642 207 624 C207 611 220 605 232 605 L232 605 Z M379 753 L524 753 C539 753 563 766 563 784 C563 796 550 802 537 802 L393 802 C377 802 355 789 355 772 C355 759 367 753 379 753 L379 753 Z " />
<glyph glyph-name="tbar" unicode="&#x167;" horiz-adv-x="600" d="M291 525 L333 525 C332 525 332 525 332 524 L317 450 L253 450 C237 450 214 439 214 421 C214 410 224 401 238 401 L307 401 L260 168 C257 156 256 144 256 132 C256 53 313 -5 397 -5 C413 -5 436 6 436 25 C436 37 424 44 403 44 C354 44 320 88 320 145 C320 154 321 164 323 175 L369 401 L564 401 C580 401 603 413 603 431 C603 442 593 450 579 450 L379 450 L394 525 L436 525 C452 525 475 538 475 556 C475 568 462 574 450 574 L305 574 C290 574 267 561 267 544 C267 531 280 525 291 525 L291 525 Z " />
<glyph glyph-name="Utilde" unicode="&#x168;" horiz-adv-x="600" d="M204 628 L120 219 C117 203 116 188 116 173 C116 71 189 -5 297 -5 C421 -5 544 97 569 223 L652 632 C655 644 645 654 629 654 C611 654 593 642 590 628 L508 223 C488 124 399 44 310 44 C232 44 181 105 181 189 C181 204 182 219 185 234 L266 632 C269 644 259 654 242 654 C225 654 207 642 204 628 L204 628 Z M510 773 C498 773 491 781 482 792 C472 805 459 820 429 823 C387 823 342 804 329 761 C327 756 326 751 326 746 C326 726 341 725 357 725 C371 727 378 737 385 756 C391 769 395 775 405 775 C415 775 421 770 428 763 C449 740 462 727 488 725 C529 725 573 745 586 787 C586 788 587 790 587 792 C588 796 588 799 588 802 C588 818 578 823 564 823 C542 823 536 808 535 806 C526 778 521 773 510 773 L510 773 Z " />
<glyph glyph-name="utilde" unicode="&#x169;" horiz-adv-x="600" d="M211 424 L160 173 C158 161 156 149 156 137 C156 59 213 0 297 0 L442 0 C459 0 476 11 479 26 L561 427 C564 440 553 450 537 450 C520 450 502 439 499 424 L422 49 L312 49 C256 49 222 91 222 155 C222 168 224 182 227 197 L268 402 C270 410 272 419 273 427 C275 441 266 450 251 450 C233 450 214 439 211 424 L211 424 Z M473 594 C461 594 454 602 444 613 C434 626 421 641 392 644 C350 644 304 626 292 582 C291 580 290 579 290 577 C289 573 289 570 289 567 C289 547 304 546 320 546 C334 548 341 558 348 577 C349 579 350 582 351 584 C355 592 360 596 367 596 C377 596 384 591 390 584 C411 561 425 548 450 546 C491 546 536 565 549 608 C549 610 550 611 550 613 C551 617 551 620 551 623 C551 639 540 644 527 644 C504 644 498 629 498 627 C488 599 483 594 473 594 L473 594 Z " />
<glyph glyph-name="Umacron" unicode="&#x16a;" horiz-adv-x="600" d="M204 628 L120 219 C117 203 116 188 116 173 C116 71 189 -5 297 -5 C421 -5 544 97 569 223 L652 632 C655 644 645 654 629 654 C611 654 593 642 590 628 L508 223 C488 124 399 44 310 44 C232 44 181 105 181 189 C181 204 182 219 185 234 L266 632 C269 644 259 654 242 654 C225 654 207 642 204 628 L204 628 Z M379 753 L524 753 C539 753 563 766 563 784 C563 796 550 802 537 802 L393 802 C377 802 355 789 355 772 C355 759 367 753 379 753 L379 753 Z " />
<glyph glyph-name="umacron" unicode="&#x16b;" horiz-adv-x="600" d="M212 424 L161 173 C159 161 157 149 157 137 C157 59 214 0 298 0 L443 0 C460 0 477 11 480 26 L562 427 C564 440 554 450 538 450 C521 450 503 439 500 424 L423 49 L313 49 C257 49 223 91 223 155 C223 168 225 182 228 197 L274 427 C276 441 267 450 252 450 C234 450 215 439 212 424 L212 424 Z M343 575 L487 575 C503 575 526 587 526 605 C526 617 513 623 501 623 L356 623 C341 623 318 610 318 593 C318 580 331 575 343 575 L343 575 Z " />
<glyph glyph-name="Ubreve" unicode="&#x16c;" horiz-adv-x="600" d="M204 628 L120 219 C117 203 116 188 116 173 C116 71 189 -5 297 -5 C421 -5 544 97 569 223 L652 632 C655 644 645 654 629 654 C611 654 593 642 590 628 L508 223 C488 124 399 44 310 44 C232 44 181 105 181 189 C181 204 182 219 185 234 L266 632 C269 644 259 654 242 654 C225 654 207 642 204 628 L204 628 Z M441 706 C495 706 549 744 564 801 C565 804 566 806 566 809 C569 823 557 830 543 830 C541 830 539 830 536 830 C523 827 511 817 508 802 C508 800 507 798 507 796 L506 791 C506 789 505 787 504 785 C497 768 477 754 455 754 C435 754 419 767 417 787 C417 789 417 791 417 793 C417 796 417 798 418 801 L418 800 C418 801 418 801 418 802 C419 808 419 812 419 816 C418 824 414 828 407 830 C390 830 366 825 362 805 C361 802 361 799 361 797 C360 792 360 787 360 782 C360 736 393 706 441 706 L441 706 Z M419 804 L418 801 C418 802 418 803 419 804 L419 804 Z M419 805 L419 804 C419 804 419 804 419 805 L419 805 Z " />
<glyph glyph-name="ubreve" unicode="&#x16d;" horiz-adv-x="600" d="M211 424 L160 173 C158 161 156 149 156 137 C156 59 213 0 297 0 L442 0 C459 0 476 11 479 26 L561 427 C564 440 553 450 537 450 C520 450 502 439 499 424 L422 49 L312 49 C256 49 222 91 222 155 C222 168 224 182 227 197 L268 402 C270 410 272 419 273 427 C275 441 266 450 251 450 C233 450 214 439 211 424 L211 424 Z M403 528 C458 528 512 565 527 622 C528 625 528 627 529 630 C532 644 519 651 506 651 C504 651 501 651 499 651 C486 648 474 638 471 623 C470 621 470 619 470 617 L469 612 C468 610 468 608 467 606 C460 589 440 576 418 576 C397 576 382 589 380 608 C379 610 379 612 380 615 C380 617 380 619 380 622 C381 623 381 624 381 626 L381 622 C382 628 382 633 382 637 C381 646 377 650 370 651 C353 651 329 646 325 626 C323 618 322 611 322 604 C322 557 356 528 403 528 L403 528 Z " />
<glyph glyph-name="Uring" unicode="&#x16e;" horiz-adv-x="600" d="M204 628 L120 219 C117 203 116 188 116 173 C116 71 189 -5 297 -5 C421 -5 544 97 569 223 L652 632 C655 644 645 654 629 654 C611 654 593 642 590 628 L508 223 C488 124 399 44 310 44 C232 44 181 105 181 189 C181 204 182 219 185 234 L266 632 C269 644 259 654 242 654 C225 654 207 642 204 628 L204 628 Z M554 750 C554 796 518 829 471 829 C407 829 343 772 343 707 C343 661 379 629 426 629 C489 629 554 685 554 750 L554 750 Z M440 677 C419 677 406 696 406 718 C406 746 428 780 458 780 C478 780 491 762 491 739 C491 712 469 677 440 677 L440 677 Z " />
<glyph glyph-name="uring" unicode="&#x16f;" horiz-adv-x="600" d="M212 424 L161 173 C159 161 157 149 157 137 C157 59 214 0 298 0 L443 0 C460 0 477 11 480 26 L562 427 C564 440 554 450 538 450 C521 450 503 439 500 424 L423 49 L313 49 C257 49 223 91 223 155 C223 168 225 182 228 197 L274 427 C276 441 267 450 252 450 C234 450 215 439 212 424 L212 424 Z M518 571 C518 618 482 650 434 650 C371 650 307 593 307 528 C307 482 342 450 390 450 C453 450 518 506 518 571 L518 571 Z M403 498 C383 498 370 517 370 539 C370 567 392 601 421 601 C442 601 455 583 455 560 C455 533 433 498 403 498 L403 498 Z " />
<glyph glyph-name="Uhungarumlaut" unicode="&#x170;" horiz-adv-x="600" d="M204 628 L120 219 C117 203 116 188 116 173 C116 71 189 -5 297 -5 C421 -5 544 97 569 223 L652 632 C655 644 645 654 629 654 C611 654 593 642 590 628 L508 223 C488 124 399 44 310 44 C232 44 181 105 181 189 C181 204 182 219 185 234 L266 632 C269 644 259 654 242 654 C225 654 207 642 204 628 L204 628 Z M371 725 C371 713 381 707 392 707 C401 707 411 711 418 717 L507 793 C513 798 518 806 518 814 C518 825 507 831 496 831 C488 831 477 828 470 822 L381 745 C375 740 371 733 371 725 L371 725 Z M542 725 C542 713 553 707 563 707 C572 707 582 711 590 717 L678 793 C684 798 689 806 689 814 C689 825 678 831 668 831 C659 831 648 828 641 822 L552 745 C546 740 542 733 542 725 L542 725 Z " />
<glyph glyph-name="uhungarumlaut" unicode="&#x171;" horiz-adv-x="600" d="M212 424 L161 173 C159 161 157 149 157 137 C157 59 214 0 298 0 L443 0 C460 0 477 11 480 26 L562 427 C564 440 554 450 538 450 C521 450 503 439 500 424 L423 49 L313 49 C257 49 223 91 223 155 C223 168 225 182 228 197 L274 427 C276 441 267 450 252 450 C234 450 215 439 212 424 L212 424 Z M334 546 C334 534 345 529 356 529 C364 529 375 532 382 538 L471 614 C477 619 482 627 482 635 C482 646 471 652 460 652 C451 652 441 649 434 643 L345 566 C339 561 334 554 334 546 L334 546 Z M505 546 C505 534 516 529 527 529 C536 529 546 532 553 538 L642 614 C648 619 653 627 653 635 C653 646 642 652 631 652 C622 652 612 649 605 643 L516 566 C510 561 505 554 505 546 L505 546 Z " />
<glyph glyph-name="Uogonek" unicode="&#x172;" horiz-adv-x="600" d="M204 628 L120 219 C117 203 116 188 116 173 C116 94 159 32 228 7 C206 -15 190 -44 190 -75 C190 -119 221 -154 269 -154 C293 -154 368 -134 368 -102 C368 -91 359 -84 344 -84 C333 -84 324 -87 308 -98 C301 -103 295 -106 287 -106 C266 -106 253 -89 253 -66 C253 -41 269 -13 293 -5 C305 -5 316 -4 328 -3 C330 -3 333 -3 335 -2 C337 -2 340 -1 342 -1 C348 0 354 2 360 3 C460 30 548 118 569 223 L652 632 C655 644 645 654 629 654 C611 654 593 642 590 628 L508 223 C489 130 410 55 327 45 L318 45 C313 45 309 45 304 44 C230 47 181 107 181 189 C181 204 182 219 185 234 L262 614 C264 620 265 626 266 632 C269 644 259 654 242 654 C225 654 207 642 204 628 L204 628 Z " />
<glyph glyph-name="uogonek" unicode="&#x173;" horiz-adv-x="600" d="M211 424 L160 173 C158 161 156 149 156 137 C156 59 213 0 297 0 L320 0 C303 -20 291 -45 291 -72 C291 -116 323 -151 370 -151 C395 -151 469 -131 469 -99 C469 -88 460 -81 445 -81 C434 -81 426 -84 410 -95 C402 -100 396 -103 389 -103 C368 -103 354 -85 354 -63 C354 -37 372 -6 398 -1 C399 0 402 0 405 0 L442 0 C459 0 476 11 479 26 L561 427 C564 440 553 450 537 450 C520 450 502 439 499 424 L422 49 L312 49 C256 49 222 91 222 155 C222 163 223 171 224 179 C224 185 225 191 227 197 L273 427 C275 441 266 450 251 450 C233 450 214 439 211 424 L211 424 Z " />
<glyph glyph-name="Wcircumflex" unicode="&#x174;" horiz-adv-x="600" d="M464 132 L413 418 C412 428 402 433 392 433 C379 433 365 426 358 414 C331 367 220 177 192 130 L214 632 C215 645 204 651 192 651 C177 651 157 641 154 625 L154 622 L128 14 C127 1 139 -5 150 -5 C163 -5 177 2 185 14 C215 67 336 275 367 328 L422 10 C424 0 434 -5 444 -5 C457 -5 474 3 480 18 L703 629 C706 643 694 651 681 651 C667 651 651 643 645 628 L464 132 Z M454 769 L496 714 C500 708 507 706 514 706 C530 706 551 718 551 736 C551 740 550 743 548 746 L490 823 C486 828 479 830 472 830 C463 830 453 827 445 821 L356 744 C351 739 346 732 346 724 C346 712 357 706 367 706 C376 706 387 709 394 716 L454 769 Z " />
<glyph glyph-name="wcircumflex" unicode="&#x175;" horiz-adv-x="600" d="M437 108 L391 317 C389 326 380 330 370 330 C358 330 344 324 337 313 C316 278 230 142 208 107 L197 443 C197 454 186 459 176 459 C163 459 143 450 140 433 L153 12 C153 1 164 -4 174 -4 C186 -4 200 2 207 13 C230 51 324 199 347 236 L398 9 C400 0 409 -4 419 -4 C431 -4 447 3 453 17 L637 438 C640 452 628 459 616 459 C604 459 588 452 582 438 L437 108 Z M418 590 L460 535 C463 530 471 528 478 528 C494 528 515 539 515 557 C515 561 514 564 511 567 L453 644 C450 649 442 651 435 651 C427 651 416 648 409 642 L320 565 C314 560 309 553 309 545 C309 533 320 528 331 528 C340 528 350 531 357 537 L418 590 Z " />
<glyph glyph-name="Ycircumflex" unicode="&#x176;" horiz-adv-x="600" d="M383 404 L265 649 C261 656 252 659 243 659 C228 659 208 649 205 633 C204 629 204 625 206 621 L339 345 L273 22 C270 8 283 0 297 0 C312 0 332 9 336 26 L401 348 L645 623 C649 627 653 634 653 641 C653 653 641 659 629 659 C618 659 606 654 599 646 L383 404 Z M454 769 L496 714 C500 708 507 706 514 706 C530 706 551 718 551 736 C551 740 550 743 548 746 L490 823 C486 828 479 830 472 830 C463 830 453 827 445 821 L356 744 C351 739 346 732 346 724 C346 712 357 706 367 706 C376 706 387 709 394 716 L454 769 Z " />
<glyph glyph-name="ycircumflex" unicode="&#x177;" horiz-adv-x="600" d="M229 460 C212 460 192 451 189 434 C188 433 261 77 281 -4 L250 -64 C211 -138 185 -169 149 -178 C145 -180 141 -180 137 -181 C121 -183 104 -191 104 -210 C104 -222 116 -228 135 -228 C193 -228 245 -178 272 -130 C273 -128 274 -126 275 -123 C286 -104 307 -64 334 -13 C337 -11 338 -8 339 -6 C339 -5 339 -4 339 -3 C427 165 565 435 567 448 C567 453 555 460 544 460 C540 460 536 459 532 458 C523 455 514 449 510 441 C504 430 499 419 493 408 L325 82 C304 191 264 367 250 428 C250 431 249 433 249 436 C248 440 247 443 246 445 C246 448 246 449 246 450 C243 458 237 460 229 460 L229 460 Z M418 590 L455 541 C456 539 458 537 460 535 C460 534 460 534 461 533 L463 532 C464 531 466 530 469 529 C470 528 470 528 475 528 C477 528 480 528 484 528 C490 529 496 531 504 538 C507 538 510 544 511 546 C512 547 513 548 514 554 C515 555 515 556 514 559 C514 561 514 562 511 567 C510 570 508 572 506 574 L455 642 C455 643 454 643 453 644 C452 645 452 646 451 647 C449 648 447 649 442 651 L440 651 C433 651 428 650 422 649 L419 648 L418 648 C416 647 416 647 413 645 C412 645 411 644 409 642 L330 574 C327 571 323 568 320 565 C319 564 317 563 316 561 C314 559 312 556 311 552 C310 550 310 548 310 545 C310 538 314 532 323 529 C324 528 326 528 329 528 L335 528 C336 528 337 528 339 529 C342 530 346 532 355 535 C356 536 357 536 357 537 L418 590 Z " />
<glyph glyph-name="Ydieresis" unicode="&#x178;" horiz-adv-x="600" d="M383 404 L265 649 C261 656 252 659 243 659 C228 659 208 649 205 633 C204 629 204 625 206 621 L339 345 L273 22 C270 8 283 0 297 0 C312 0 332 9 336 26 L401 348 L645 623 C649 627 653 634 653 641 C653 653 641 659 629 659 C618 659 606 654 599 646 L383 404 Z M357 792 L349 752 C349 751 349 751 349 749 L349 748 C349 747 349 746 349 746 L349 745 C350 744 350 743 351 742 L351 741 C354 735 363 731 372 730 C373 730 373 730 374 730 C375 730 375 730 376 730 C379 730 381 731 383 731 C384 731 385 732 386 732 C387 732 388 732 388 732 C389 733 389 733 390 733 C391 734 393 734 396 736 C396 736 397 737 399 738 L400 738 C401 739 402 740 403 741 C404 742 406 744 407 745 L407 746 C408 746 408 746 408 747 L409 748 C409 748 409 748 409 749 L410 750 L410 751 C411 752 411 753 411 754 C411 754 411 755 412 756 L420 796 C420 797 420 798 420 799 L420 800 C420 801 420 803 420 804 L420 805 C419 806 419 806 419 808 L418 808 C418 809 418 809 417 811 L416 811 C415 812 415 813 413 814 L412 814 C410 816 410 816 409 816 C408 817 407 817 405 818 C404 818 404 818 403 818 L402 818 C401 819 400 819 399 819 L398 819 C397 819 397 819 395 819 L394 819 C393 819 392 819 391 818 L390 818 C389 818 388 818 387 818 L386 817 L385 817 C385 817 385 817 384 817 L383 817 C382 816 381 816 380 815 C378 815 368 810 368 808 C367 808 367 807 366 807 L365 806 C363 804 362 802 360 800 C359 798 358 795 357 792 L357 792 Z M504 792 L496 752 C496 752 496 751 496 750 L496 748 C496 747 496 747 496 746 L496 745 C497 743 497 742 498 741 L498 740 C499 739 501 737 502 736 C503 735 503 735 505 734 L506 733 L507 733 C509 732 509 732 511 731 C513 731 514 731 516 730 L517 730 C518 730 518 730 518 730 L519 730 C519 730 520 730 521 730 L522 730 C523 730 523 730 526 730 C527 730 527 730 528 731 C529 731 530 731 530 731 L531 731 C533 732 535 732 538 734 L539 734 C541 735 541 735 542 735 C542 736 543 736 547 739 L548 739 C548 740 549 740 549 741 C550 741 551 742 553 744 C553 745 554 746 555 747 C555 748 556 749 557 750 C557 751 557 751 558 753 L558 754 C558 754 558 755 558 756 L567 796 C567 798 567 799 567 800 L567 802 C567 804 567 804 566 805 C566 806 566 807 563 811 C563 811 562 812 555 816 C555 817 554 817 553 817 C553 817 552 818 551 818 L550 818 C548 818 547 819 546 819 C546 819 545 819 543 819 L542 819 C540 819 538 819 537 818 C536 818 536 818 535 818 C535 818 534 818 533 817 C532 817 531 817 528 816 C527 816 527 816 526 815 C525 815 524 814 521 813 C520 812 520 812 519 812 L519 811 C518 811 518 811 518 811 L517 810 C515 809 515 809 514 808 C514 808 513 807 511 805 C510 804 509 802 507 800 C507 799 506 799 506 798 L506 797 C505 795 505 795 504 793 L504 792 Z " />
<glyph glyph-name="Zacute" unicode="&#x179;" horiz-adv-x="600" d="M166 49 L646 619 C650 623 652 628 652 632 C653 633 653 634 653 636 C653 648 641 654 629 654 L242 654 C226 654 203 642 203 624 C203 612 216 605 228 605 L567 605 L88 35 C84 31 81 27 81 22 C80 21 80 20 80 19 C80 7 93 0 105 0 L491 0 C507 0 530 11 530 30 C530 42 518 49 506 49 L166 49 Z M456 725 C456 713 467 707 477 707 C479 707 481 708 483 708 C490 709 498 712 503 717 C505 718 507 720 508 721 L583 785 C586 788 589 790 592 793 C596 796 598 800 600 804 C602 807 603 810 603 814 C603 829 587 831 576 831 C569 830 561 827 555 822 C552 819 549 816 545 813 L471 750 C463 743 456 736 456 725 L456 725 Z " />
<glyph glyph-name="zacute" unicode="&#x17a;" horiz-adv-x="600" d="M538 432 C538 443 527 450 515 450 L272 450 C255 450 233 437 233 418 C233 405 245 399 258 399 L455 399 L165 42 C158 37 152 28 152 18 C152 7 163 0 177 0 L416 0 C433 0 456 12 456 31 C456 44 443 51 431 51 L234 51 L525 408 C529 412 533 416 535 421 C537 424 538 428 538 432 L538 432 Z M431 546 C431 530 446 529 458 529 C465 530 473 533 479 538 C482 541 485 543 489 546 L558 606 C561 609 564 612 568 614 C574 620 578 626 578 635 C578 650 562 652 551 652 C544 651 536 648 531 643 C527 640 524 637 521 635 L447 571 C439 564 431 557 431 546 L431 546 Z " />
<glyph glyph-name="Zdotaccent" unicode="&#x17b;" horiz-adv-x="600" d="M166 49 L646 619 C650 623 652 628 652 632 C653 633 653 634 653 636 C653 648 641 654 629 654 L242 654 C226 654 203 642 203 624 C203 612 216 605 228 605 L567 605 L88 35 C84 31 81 27 81 22 C80 21 80 20 80 19 C80 7 93 0 105 0 L491 0 C507 0 530 11 530 30 C530 42 518 49 506 49 L166 49 Z M430 786 L423 752 C422 750 422 748 421 746 C419 732 433 724 446 724 C461 724 480 733 484 749 L491 784 C491 786 492 788 492 790 C495 805 482 813 468 813 C454 813 433 803 430 786 L430 786 Z " />
<glyph glyph-name="zdotaccent" unicode="&#x17c;" horiz-adv-x="600" d="M538 432 C538 443 527 450 515 450 L272 450 C255 450 233 437 233 418 C233 405 245 399 258 399 L455 399 L165 42 C158 37 152 28 152 18 C152 7 163 0 177 0 L416 0 C433 0 456 12 456 31 C456 44 443 51 431 51 L234 51 L525 408 C529 412 533 416 535 421 C537 424 538 428 538 432 L538 432 Z M392 607 L385 573 C385 571 384 569 384 567 C381 553 395 545 409 545 C424 545 443 554 446 570 L453 606 C454 607 454 609 455 611 C458 626 445 634 431 634 C416 634 396 624 392 607 L392 607 Z " />
<glyph glyph-name="Zcaron" unicode="&#x17d;" horiz-adv-x="600" d="M166 49 L646 619 C650 623 652 628 652 632 C653 633 653 634 653 636 C653 648 641 654 629 654 L242 654 C226 654 203 642 203 624 C203 612 216 605 228 605 L567 605 L88 35 C84 31 81 27 81 22 C80 21 80 20 80 19 C80 7 93 0 105 0 L491 0 C507 0 530 11 530 30 C530 42 518 49 506 49 L166 49 Z M441 706 C450 706 460 710 467 716 L545 783 C549 786 552 789 556 792 C561 797 567 806 567 813 C567 829 550 830 538 830 C531 828 524 826 519 821 L458 768 L420 818 C419 820 418 821 417 823 C414 827 409 829 404 830 C388 830 366 824 362 805 C362 803 361 801 362 800 C362 796 363 793 365 790 C367 787 370 784 372 781 L423 714 C426 708 434 706 441 706 L441 706 Z " />
<glyph glyph-name="zcaron" unicode="&#x17e;" horiz-adv-x="600" d="M538 432 C538 443 527 450 515 450 L272 450 C255 450 233 437 233 418 C233 405 245 399 258 399 L455 399 L165 42 C158 37 152 28 152 18 C152 7 163 0 177 0 L416 0 C433 0 456 12 456 31 C456 44 443 51 431 51 L234 51 L525 408 C529 412 533 416 535 421 C537 424 538 428 538 432 L538 432 Z M403 528 C412 528 423 531 430 537 L508 604 C511 607 515 610 519 613 C522 616 525 620 527 624 C528 627 529 630 529 634 C529 649 512 651 501 651 C494 650 487 647 481 642 L421 589 L383 639 C382 641 380 642 379 644 C376 648 371 650 366 651 C350 651 329 645 325 626 C324 624 324 622 324 621 C324 617 325 614 327 611 C330 608 332 605 335 602 L385 535 C389 530 397 528 403 528 L403 528 Z " />
<glyph glyph-name="longs" unicode="&#x17f;" horiz-adv-x="600" d="M294 474 L202 22 C199 9 210 0 226 0 C243 0 261 12 264 27 L354 466 C370 546 429 603 494 603 C510 603 531 615 531 633 C531 644 521 651 507 651 C405 651 314 575 294 474 L294 474 Z " />
<glyph glyph-name="florin" unicode="&#x192;" horiz-adv-x="600" d="M161 -182 C161 -196 173 -202 192 -202 C240 -202 299 -158 311 -100 L413 401 L501 401 C517 401 540 412 540 430 C540 442 527 450 515 450 L423 450 L444 552 C451 591 480 605 496 605 C514 605 532 616 532 635 C532 648 521 654 502 654 C455 654 394 609 382 552 L361 450 L322 450 C306 450 283 438 283 420 C283 408 296 401 308 401 L351 401 L249 -100 C242 -135 198 -153 187 -153 C172 -153 161 -167 161 -182 L161 -182 Z " />
<glyph glyph-name="Aringacute" unicode="&#x1fa;" horiz-adv-x="600" d="M484 -5 C501 -5 525 5 525 25 C525 31 524 43 521 68 C501 246 481 424 461 602 L459 617 C458 622 458 627 457 631 L457 633 C508 647 554 695 554 750 C554 788 530 817 495 826 L577 898 C583 903 588 910 588 918 C588 930 577 935 567 935 C558 935 547 932 540 926 C536 923 532 919 528 915 L451 850 C447 845 442 839 441 833 C440 830 441 828 441 825 C389 811 343 763 343 707 C343 671 365 643 398 633 C398 631 398 629 397 627 L72 7 C71 4 84 -4 99 -4 C103 -4 107 -3 111 -2 C119 1 125 6 129 12 C131 15 133 18 136 22 C140 30 146 41 151 52 L165 78 L458 78 L462 42 C463 38 463 34 464 30 C467 3 471 -5 484 -5 L484 -5 Z M191 127 L406 533 L452 127 L191 127 Z M440 677 C419 677 406 696 406 718 C406 746 428 780 458 780 C478 780 491 762 491 739 C491 712 469 677 440 677 L440 677 Z " />
<glyph glyph-name="aringacute" unicode="&#x1fb;" horiz-adv-x="600" d="M518 571 C518 618 482 650 434 650 C371 650 307 593 307 528 C307 482 342 450 390 450 L293 450 C276 450 255 438 255 420 C255 409 264 402 279 402 L352 402 C413 402 448 372 448 323 C448 315 448 308 446 300 L436 248 L276 248 C198 248 119 179 119 99 C119 43 162 0 222 0 L318 0 C334 0 356 11 356 30 C356 41 346 48 331 48 L253 48 C207 48 182 70 182 107 C182 170 225 200 286 200 L426 200 L390 22 C387 10 397 0 413 0 C431 0 449 12 452 27 L508 302 C510 312 511 322 511 332 C511 400 461 450 390 450 C453 450 518 506 518 571 L518 571 Z M409 674 C409 662 420 656 431 656 C439 656 450 659 457 666 L546 742 C552 747 556 755 556 763 C556 774 545 780 535 780 C526 780 516 777 509 771 L420 694 C414 689 409 682 409 674 L409 674 Z M403 498 C383 498 370 517 370 539 C370 567 392 601 421 601 C442 601 455 583 455 560 C455 533 433 498 403 498 L403 498 Z " />
<glyph glyph-name="AEacute" unicode="&#x1fc;" horiz-adv-x="600" d="M440 -24 L512 -24 C528 -24 549 -12 549 6 C549 20 533 25 516 25 L472 25 C421 25 377 34 377 93 L376 106 C376 108 376 110 376 111 L377 113 L393 385 L498 385 C514 385 535 397 535 415 C535 427 524 432 513 432 L395 432 L405 590 L637 590 C653 590 674 602 674 620 C674 631 663 637 653 637 L385 637 C371 637 353 629 349 613 C317 548 54 7 50 -12 C50 -17 62 -24 73 -24 C86 -24 101 -16 108 -3 C114 11 141 65 147 79 L319 79 C328 10 371 -24 440 -24 L440 -24 Z M419 725 C419 713 430 707 441 707 C450 707 460 711 467 717 L556 793 C562 798 567 806 567 814 C567 825 556 831 545 831 C537 831 526 828 519 822 L430 745 C424 740 419 733 419 725 L419 725 Z M170 126 C198 185 312 421 341 479 L319 126 L170 126 Z " />
<glyph glyph-name="aeacute" unicode="&#x1fd;" horiz-adv-x="600" d="M258 204 L313 204 L299 137 C297 125 296 114 296 104 C296 39 339 0 407 0 L467 0 C486 0 506 15 506 35 C506 46 499 50 487 50 L434 50 C385 50 356 72 356 116 C356 123 357 132 359 141 L372 204 L559 204 C573 204 593 215 596 231 L617 330 C619 342 620 353 620 363 C620 425 578 458 514 458 C466 458 418 439 384 405 C364 440 323 458 275 458 L225 458 C208 458 187 445 187 426 C187 411 203 408 220 408 L249 408 C301 408 339 389 339 340 C339 333 338 325 336 316 L323 254 L233 254 C147 254 74 181 74 96 C74 37 115 0 176 0 L225 0 C242 0 263 13 263 32 C263 47 246 50 230 50 L206 50 C163 50 135 67 135 109 C135 192 187 204 258 204 L258 204 Z M383 546 C383 534 394 529 405 529 C413 529 424 532 431 538 L520 614 C526 619 530 627 530 635 C530 646 519 652 509 652 C500 652 490 649 483 643 L394 566 C388 561 383 554 383 546 L383 546 Z M382 255 L395 320 C406 373 446 409 498 409 C538 409 560 388 560 351 C560 343 559 335 557 326 L543 255 L382 255 Z " />
<glyph glyph-name="Oslashacute" unicode="&#x1fe;" horiz-adv-x="600" d="M569 223 L613 440 C617 455 618 470 618 485 C618 543 594 593 554 625 L591 693 C592 699 577 707 564 707 C556 707 544 704 540 697 C535 689 526 672 513 650 C491 659 465 665 437 665 C313 665 190 561 165 437 L120 219 C117 203 116 188 116 174 C116 117 139 68 177 36 C154 -7 139 -34 139 -36 C139 -39 153 -47 167 -47 C182 -47 192 -40 199 -31 L221 10 C243 0 269 -5 297 -5 C421 -5 544 98 569 223 L569 223 Z M468 725 C468 713 479 707 490 707 C499 707 509 711 516 717 L605 793 C611 798 616 806 616 814 C616 825 605 831 594 831 C585 831 575 828 568 822 L479 745 C473 740 468 733 468 725 L468 725 Z M183 223 L227 440 C247 536 335 615 423 615 C447 615 468 610 486 600 C413 468 288 239 209 94 C190 119 179 151 179 186 C179 198 180 210 183 223 L183 223 Z M311 44 C288 44 266 50 248 60 L524 569 C544 545 555 512 555 475 C555 462 554 450 551 437 L507 219 C487 123 399 44 311 44 L311 44 Z " />
<glyph glyph-name="oslashacute" unicode="&#x1ff;" horiz-adv-x="600" d="M159 168 C157 156 155 144 155 132 C155 90 171 54 199 30 C191 16 182 2 174 -12 C171 -17 166 -28 166 -33 C166 -44 179 -50 193 -50 C196 -50 200 -50 203 -49 C213 -47 222 -41 227 -32 L247 2 C262 -2 278 -5 296 -5 C394 -5 489 75 509 172 L533 287 C535 299 536 311 536 323 C536 364 520 400 493 425 L523 477 C526 493 512 500 498 500 C484 500 472 494 464 482 C461 475 457 468 453 462 L447 452 C431 457 414 460 396 460 C298 460 202 380 183 283 L159 168 Z M431 546 C431 530 446 529 458 529 C465 530 473 533 479 538 C482 541 485 543 489 546 L558 606 C561 609 564 612 568 614 C574 620 578 626 578 635 C578 650 562 652 551 652 C544 651 536 648 531 643 C527 640 524 637 521 635 L447 571 C439 564 431 557 431 546 L431 546 Z M245 287 C259 356 320 411 382 411 C395 411 408 408 419 404 L233 88 C222 110 219 129 219 153 C219 159 220 165 221 172 L245 287 Z M275 51 L459 367 C470 348 473 328 473 306 C473 299 472 291 470 283 L447 168 C433 99 373 44 311 44 C298 44 286 46 275 51 L275 51 Z " />
<glyph glyph-name="uni0218" unicode="&#x218;" horiz-adv-x="600" d="M291 -5 L295 -5 C286 -48 273 -84 254 -117 C251 -122 246 -131 245 -134 L245 -137 C242 -149 255 -156 268 -156 C317 -156 349 -36 359 2 C464 26 550 113 550 224 C550 318 468 350 393 380 C308 414 277 440 277 478 C277 552 355 610 424 610 C462 610 490 605 517 592 C520 591 524 589 527 587 C538 581 545 579 552 579 C567 579 590 589 590 607 C590 634 523 659 454 659 C345 659 213 584 213 463 C213 410 252 375 353 334 C419 308 485 283 485 208 C485 106 402 44 304 44 C260 44 218 47 182 86 C178 89 175 93 172 97 L171 99 C160 112 151 113 146 113 C132 113 109 100 109 85 C109 78 114 71 122 59 L125 56 C161 8 229 -5 291 -5 L291 -5 Z " />
<glyph glyph-name="uni0219" unicode="&#x219;" horiz-adv-x="600" d="M480 150 C480 196 444 232 332 288 C313 298 299 314 299 336 L299 337 C299 341 300 344 300 348 C307 382 343 408 382 408 C396 408 409 404 430 395 C433 393 437 391 441 390 C448 386 457 382 467 382 C479 382 502 394 502 409 C502 432 441 456 392 456 C321 456 234 398 234 321 C234 271 279 249 286 246 C387 198 416 171 416 137 C416 72 358 43 300 43 C274 43 239 53 226 78 C225 78 225 79 224 80 C219 87 214 89 209 90 C207 91 205 91 203 91 C188 91 165 79 165 62 C165 36 222 4 282 -4 C284 -4 287 -4 290 -5 C295 -5 300 -5 305 -5 L309 -5 C300 -48 285 -83 267 -117 C264 -122 260 -131 259 -134 L258 -137 C256 -149 269 -156 282 -156 C331 -156 365 -30 374 8 C431 30 480 86 480 150 L480 150 Z " />
<glyph glyph-name="uni021A" unicode="&#x21a;" horiz-adv-x="600" d="M232 605 L395 605 L276 22 C276 20 276 18 276 17 C276 -1 300 -1 315 -1 L319 -1 C311 -44 296 -79 278 -112 C275 -118 270 -127 270 -130 L269 -133 C267 -145 280 -152 292 -152 C345 -152 381 -6 387 26 C390 41 376 47 362 47 L343 47 L456 605 L610 605 C626 605 649 618 649 636 C649 648 636 654 624 654 L246 654 C230 654 207 642 207 624 C207 611 220 605 232 605 L232 605 Z " />
<glyph glyph-name="uni021B" unicode="&#x21b;" horiz-adv-x="600" d="M371 550 C353 550 335 539 332 524 L317 450 L253 450 C237 450 214 439 214 421 C214 410 224 401 238 401 L307 401 L260 168 C257 156 256 144 256 132 C256 44 321 -5 406 -5 L409 -5 C401 -48 386 -83 368 -117 C365 -122 360 -131 360 -134 L359 -137 C357 -149 370 -156 383 -156 C435 -156 471 -10 477 21 C481 37 466 43 453 43 L415 43 C412 44 407 44 403 44 C354 44 320 88 320 145 C320 154 321 164 323 175 L369 401 L564 401 C580 401 603 413 603 431 C603 442 593 450 579 450 L379 450 L395 528 C397 540 386 550 371 550 L371 550 Z " />
<glyph glyph-name="uni0237" unicode="&#x237;" horiz-adv-x="600" d="M154 -182 C154 -192 164 -201 178 -201 C275 -201 371 -122 391 -25 L483 427 C484 436 480 443 472 447 C468 449 463 451 457 451 L290 451 C274 451 251 439 251 421 C251 409 264 402 276 402 L417 402 L332 -15 C315 -97 263 -147 191 -152 C176 -153 154 -164 154 -182 L154 -182 Z " />
<glyph glyph-name="circumflex" unicode="&#x2c6;" horiz-adv-x="600" d="M418 590 L460 535 C463 530 471 528 478 528 C494 528 515 539 515 557 C515 561 514 564 511 567 L453 644 C450 649 442 651 435 651 C427 651 416 648 409 642 L320 565 C314 560 309 553 309 545 C309 533 320 528 331 528 C340 528 350 531 357 537 L418 590 Z " />
<glyph glyph-name="caron" unicode="&#x2c7;" horiz-adv-x="600" d="M404 528 C413 528 424 531 431 537 L520 613 C525 618 530 626 530 634 C530 645 519 651 509 651 C500 651 489 648 482 642 L422 589 L380 644 C376 649 369 651 362 651 C346 651 325 639 325 622 C325 618 326 614 328 611 L386 535 C390 530 398 528 404 528 L404 528 Z " />
<glyph glyph-name="uni02C9" unicode="&#x2c9;" horiz-adv-x="600" d="M352 571 L474 571 C490 571 511 583 511 601 C511 613 500 619 489 619 L367 619 C351 619 330 607 330 589 C330 577 341 571 352 571 L352 571 Z " />
<glyph glyph-name="breve" unicode="&#x2d8;" horiz-adv-x="600" d="M404 528 C459 528 513 565 528 622 C529 625 529 627 530 630 C533 644 520 651 507 651 C505 651 502 651 500 651 C487 648 475 638 472 623 C471 621 471 619 471 617 L470 612 C469 610 469 608 468 606 C461 589 441 576 419 576 C398 576 383 589 381 608 C380 610 380 612 380 615 C381 617 381 619 381 622 C382 622 382 623 382 624 L382 622 C383 628 383 633 383 637 C382 646 378 650 371 651 C354 651 330 646 326 626 C324 618 323 611 323 604 C323 557 357 528 404 528 L404 528 Z M382 625 L382 624 C382 625 382 625 382 625 L382 625 Z M382 626 L382 625 L382 626 Z " />
<glyph glyph-name="dotaccent" unicode="&#x2d9;" horiz-adv-x="600" d="M393 607 L385 567 C382 553 396 545 410 545 C425 545 444 554 447 570 L456 611 C459 626 446 634 432 634 C417 634 397 624 393 607 L393 607 Z " />
<glyph glyph-name="ring" unicode="&#x2da;" horiz-adv-x="600" d="M518 571 C518 618 482 650 434 650 C371 650 307 593 307 528 C307 482 342 450 390 450 C453 450 518 506 518 571 L518 571 Z M403 498 C383 498 370 517 370 539 C370 567 392 601 421 601 C442 601 455 583 455 560 C455 533 433 498 403 498 L403 498 Z " />
<glyph glyph-name="ogonek" unicode="&#x2db;" horiz-adv-x="600" d="M347 48 L322 48 C260 48 194 -7 194 -72 C194 -116 226 -151 273 -151 C298 -151 373 -131 373 -99 C373 -88 363 -81 348 -81 C337 -81 329 -84 313 -95 C305 -100 300 -103 292 -103 C271 -103 257 -85 257 -63 C257 -37 275 -6 301 -1 C303 0 307 0 310 0 L331 0 C348 0 363 8 369 20 C370 24 371 27 371 31 C371 42 362 48 347 48 L347 48 Z " />
<glyph glyph-name="tilde" unicode="&#x2dc;" horiz-adv-x="600" d="M474 594 C462 594 455 602 445 613 C435 626 422 641 393 644 C351 644 305 626 293 582 C292 580 291 579 291 577 C290 573 290 570 290 567 C290 547 305 546 321 546 C335 548 342 558 349 577 C354 590 359 596 368 596 C378 596 385 591 391 584 C412 561 426 548 451 546 C492 546 537 565 549 608 C550 610 551 611 551 613 C552 617 552 620 552 623 C552 639 541 644 528 644 C505 644 499 629 499 627 C489 599 484 594 474 594 L474 594 Z " />
<glyph glyph-name="hungarumlaut" unicode="&#x2dd;" horiz-adv-x="600" d="M298 546 C298 534 309 529 319 529 C328 529 339 532 346 538 L435 614 C441 619 445 627 445 635 C445 646 434 652 424 652 C415 652 405 649 398 643 L309 566 C303 561 298 554 298 546 L298 546 Z M469 546 C469 534 480 529 491 529 C499 529 510 532 517 538 L606 614 C612 619 617 627 617 635 C617 646 606 652 595 652 C586 652 576 649 569 643 L480 566 C474 561 469 554 469 546 L469 546 Z " />
<glyph glyph-name="gravecomb" unicode="&#x300;" horiz-adv-x="600" d="M406 528 C422 528 443 539 443 557 C443 561 442 564 440 567 L382 644 C378 649 371 651 364 651 C348 651 327 639 327 622 C327 618 328 614 330 611 L388 535 C392 530 399 528 406 528 L406 528 Z " />
<glyph glyph-name="acutecomb" unicode="&#x301;" horiz-adv-x="600" d="M383 546 C383 534 394 529 405 529 C413 529 424 532 431 538 L520 614 C526 619 530 627 530 635 C530 646 519 652 509 652 C500 652 490 649 483 643 L394 566 C388 561 383 554 383 546 L383 546 Z " />
<glyph glyph-name="uni0302" unicode="&#x302;" horiz-adv-x="600" d="M418 590 L460 535 C463 530 471 528 478 528 C494 528 515 539 515 557 C515 561 514 564 511 567 L453 644 C450 649 442 651 435 651 C427 651 416 648 409 642 L320 565 C314 560 309 553 309 545 C309 533 320 528 331 528 C340 528 350 531 357 537 L418 590 Z " />
<glyph glyph-name="tildecomb" unicode="&#x303;" horiz-adv-x="600" d="M474 594 C462 594 455 602 445 613 C435 626 422 641 393 644 C351 644 305 626 293 582 C292 580 291 579 291 577 C290 573 290 570 290 567 C290 547 305 546 321 546 C335 548 342 558 349 577 C354 590 359 596 368 596 C378 596 385 591 391 584 C412 561 426 548 451 546 C492 546 537 565 549 608 C550 610 551 611 551 613 C552 617 552 620 552 623 C552 639 541 644 528 644 C505 644 499 629 499 627 C489 599 484 594 474 594 L474 594 Z " />
<glyph glyph-name="uni0304" unicode="&#x304;" horiz-adv-x="600" d="M343 575 L487 575 C503 575 526 587 526 605 C526 617 513 623 501 623 L356 623 C341 623 318 610 318 593 C318 580 331 575 343 575 L343 575 Z " />
<glyph glyph-name="uni0306" unicode="&#x306;" horiz-adv-x="600" d="M404 528 C461 528 517 568 530 630 C533 644 520 651 507 651 C491 651 475 641 472 623 L470 612 C465 592 443 576 419 576 C394 576 376 595 381 622 C386 644 380 651 365 651 C333 651 323 631 323 604 C323 557 357 528 404 528 L404 528 Z " />
<glyph glyph-name="uni0307" unicode="&#x307;" horiz-adv-x="600" d="M393 607 L385 567 C382 553 396 545 410 545 C425 545 444 554 447 570 L456 611 C459 626 446 634 432 634 C417 634 397 624 393 607 L393 607 Z " />
<glyph glyph-name="uni0308" unicode="&#x308;" horiz-adv-x="600" d="M321 613 L313 574 C310 559 324 551 338 551 C352 551 372 560 375 577 L384 617 C386 632 373 640 360 640 C345 640 324 630 321 613 L321 613 Z M468 613 L460 574 C457 559 471 551 484 551 C499 551 519 560 522 577 L530 617 C533 632 520 640 506 640 C492 640 471 630 468 613 L468 613 Z " />
<glyph glyph-name="uni030A" unicode="&#x30a;" horiz-adv-x="600" d="M518 571 C518 618 482 650 434 650 C371 650 307 593 307 528 C307 482 342 450 390 450 C453 450 518 506 518 571 L518 571 Z M403 498 C383 498 370 517 370 539 C370 567 392 601 421 601 C442 601 455 583 455 560 C455 533 433 498 403 498 L403 498 Z " />
<glyph glyph-name="uni030B" unicode="&#x30b;" horiz-adv-x="600" d="M298 546 C298 534 309 529 319 529 C328 529 339 532 346 538 L435 614 C441 619 445 627 445 635 C445 646 434 652 424 652 C415 652 405 649 398 643 L309 566 C303 561 298 554 298 546 L298 546 Z M469 546 C469 534 480 529 491 529 C499 529 510 532 517 538 L606 614 C612 619 617 627 617 635 C617 646 606 652 595 652 C586 652 576 649 569 643 L480 566 C474 561 469 554 469 546 L469 546 Z " />
<glyph glyph-name="uni030C" unicode="&#x30c;" horiz-adv-x="600" d="M404 528 C413 528 424 531 431 537 L520 613 C525 618 530 626 530 634 C530 645 519 651 509 651 C500 651 489 648 482 642 L422 589 L380 644 C376 649 369 651 362 651 C346 651 325 639 325 622 C325 618 326 614 328 611 L386 535 C390 530 398 528 404 528 L404 528 Z " />
<glyph glyph-name="uni0312" unicode="&#x312;" horiz-adv-x="600" d="M486 639 C489 654 474 660 461 660 L413 660 C396 660 374 649 374 630 C374 612 398 612 414 612 L418 612 C409 569 394 535 376 501 C373 496 369 487 368 484 L367 481 C365 468 378 461 391 461 C444 461 479 607 486 639 L486 639 Z " />
<glyph glyph-name="uni0315" unicode="&#x315;" horiz-adv-x="600" d="M486 639 C489 654 474 660 461 660 L413 660 C398 660 378 651 374 634 C374 632 374 631 374 630 C374 612 398 612 414 612 L418 612 C410 574 395 535 376 501 C373 496 369 487 368 484 C368 483 368 482 367 481 C365 468 378 461 391 461 C444 461 479 607 486 639 L486 639 Z " />
<glyph glyph-name="uni0326" unicode="&#x326;" horiz-adv-x="600" d="M361 26 C364 41 350 47 336 47 L288 47 C271 47 249 35 249 16 C249 -1 274 -1 289 -1 L293 -1 C292 -6 291 -12 289 -17 C280 -53 267 -83 252 -112 C249 -118 244 -127 243 -130 L243 -133 C240 -145 253 -152 266 -152 C319 -152 355 -6 361 26 L361 26 Z " />
<glyph glyph-name="uni0327" unicode="&#x327;" horiz-adv-x="600" d="M260 -151 C322 -151 385 -92 385 -30 C385 15 351 48 302 48 L277 48 C261 48 238 36 238 17 C238 6 249 0 272 0 L280 0 C305 0 321 -17 321 -40 C321 -68 299 -103 269 -103 C261 -103 257 -100 252 -94 C240 -83 234 -81 226 -81 C210 -81 186 -92 186 -110 C186 -131 224 -151 260 -151 L260 -151 Z " />
<glyph glyph-name="uni0328" unicode="&#x328;" horiz-adv-x="600" d="M347 48 L322 48 C260 48 194 -7 194 -72 C194 -116 226 -151 273 -151 C298 -151 373 -131 373 -99 C373 -88 363 -81 348 -81 C337 -81 329 -84 313 -95 C305 -100 300 -103 292 -103 C271 -103 257 -85 257 -63 C257 -37 275 -6 301 -1 C303 0 307 0 310 0 L331 0 C348 0 371 11 371 31 C371 42 362 48 347 48 L347 48 Z " />
</font>
</svg>
