<?xml version="1.0" encoding="UTF-8"?>
<svg xmlns="http://www.w3.org/2000/svg" xmlns:xlink="http://www.w3.org/1999/xlink" version="1.2" >
<font id="GAPCode-Regular" horiz-adv-x="598">
<font-face  font-family="GAP Code" units-per-em="1000" ascent="642" descent="-223" font-style="normal" font-weight="400" font-stretch="normal" cap-height="640" x-height="440" underline-position="-100" underline-thickness="50" />
<missing-glyph horiz-adv-x="600" d="M184 48 L184 592 L417 592 L417 48 L184 48 Z M446 0 C461 0 480 9 480 25 L480 618 C480 632 465 640 451 640 L155 640 C140 640 121 630 121 614 L121 22 C121 8 136 0 150 0 L446 0 Z " />
<glyph glyph-name="NULL" horiz-adv-x="0" >
</glyph>
<glyph glyph-name="CR" unicode="&#xd;" horiz-adv-x="250" >
</glyph>
<glyph glyph-name="space" unicode="&#x20;" horiz-adv-x="600" />
<glyph glyph-name="uni0000" horiz-adv-x="0" />
<glyph glyph-name="uni000D" horiz-adv-x="250" />
<glyph glyph-name="exclam" unicode="&#x21;" horiz-adv-x="600" d="M269 222 C269 208 284 200 298 200 C313 200 331 211 332 226 L332 618 C332 632 317 640 303 640 C288 640 270 629 269 614 L269 222 Z M269 56 L269 17 C269 3 285 -5 299 -5 C314 -5 332 4 332 20 L332 60 C332 74 317 82 303 82 C288 82 269 72 269 56 L269 56 Z " />
<glyph glyph-name="quotedbl" unicode="&#x22;" horiz-adv-x="600" d="M195 614 L195 466 C195 452 211 444 225 444 C240 444 258 454 258 470 L258 618 C258 632 243 640 229 640 C214 640 195 630 195 614 L195 614 Z M343 614 L343 466 C343 452 359 444 373 444 C388 444 406 454 406 470 L406 618 C406 632 391 640 377 640 C362 640 343 630 343 614 L343 614 Z " />
<glyph glyph-name="numbersign" unicode="&#x23;" horiz-adv-x="600" d="M146 17 C146 3 161 -5 175 -5 C189 -5 205 2 208 15 L252 192 L312 192 L270 22 C270 4 278 -5 298 -5 C312 -5 328 2 331 15 L375 192 L446 192 C461 192 480 202 480 218 C480 232 465 240 451 240 L387 240 L400 291 L471 291 C486 291 505 301 505 317 C505 331 490 339 476 339 L412 339 L455 509 L455 514 C455 528 440 536 426 536 C412 536 396 529 393 516 L349 339 L289 339 L331 509 C331 527 323 536 303 536 C289 536 273 529 270 516 L226 339 L155 339 C140 339 121 329 121 313 C121 299 136 291 150 291 L214 291 L201 240 L130 240 C115 240 96 230 96 214 C96 200 112 192 126 192 L189 192 L146 22 L146 17 Z M264 240 L277 291 L337 291 L324 240 L264 240 Z " />
<glyph glyph-name="dollar" unicode="&#x24;" horiz-adv-x="600" d="M269 516 L269 443 C208 431 164 385 164 332 C164 270 226 244 234 241 C358 190 389 163 392 125 C392 61 349 42 291 42 C272 42 246 44 220 66 C215 70 210 74 206 78 C199 85 193 87 188 88 C186 89 184 89 182 89 C164 89 149 76 149 64 C149 40 208 8 269 -2 L269 -77 C269 -91 284 -99 298 -99 C313 -99 332 -89 332 -73 L332 -3 C403 6 455 54 455 124 C455 181 419 218 273 282 C252 291 234 307 229 329 C228 332 228 336 228 340 C228 374 259 399 299 399 C316 399 332 394 363 381 C371 378 381 374 391 374 C406 374 422 386 422 397 C422 416 377 436 332 443 L332 519 C332 533 317 541 303 541 C288 541 269 532 269 516 L269 516 Z " />
<glyph glyph-name="percent" unicode="&#x25;" horiz-adv-x="600" d="M145 10 C145 6 158 -5 175 -5 C189 -5 201 1 206 11 L212 22 C215 28 219 36 224 45 C284 160 455 513 455 524 C455 528 437 536 424 536 C408 536 395 526 390 511 C389 509 387 506 385 503 C340 418 145 19 145 10 L145 10 Z M600 169 C600 236 543 290 472 290 C399 290 340 233 340 165 L340 116 C340 49 397 -5 468 -5 C541 -5 600 52 600 120 L600 169 Z M261 416 C261 483 204 537 133 537 C60 537 0 480 0 412 L0 363 C0 296 57 242 128 242 C201 242 261 298 261 366 L261 416 Z M537 116 C537 76 508 43 472 43 C434 43 403 78 403 120 L403 169 C403 209 432 242 468 242 C506 242 537 207 537 165 L537 116 Z M198 363 C198 323 169 290 133 290 C95 290 63 325 63 367 L63 416 C63 456 92 489 128 489 C166 489 198 454 198 412 L198 363 Z " />
<glyph glyph-name="ampersand" unicode="&#x26;" horiz-adv-x="600" d="M267 43 C199 43 148 100 148 175 C148 242 189 288 259 297 L262 297 C283 300 295 308 295 321 C295 334 283 342 261 344 C220 349 197 376 197 418 C197 465 226 498 266 498 C276 498 285 496 303 484 C312 477 318 474 327 474 C345 474 361 486 361 498 C361 521 303 546 258 546 C188 546 133 488 133 419 C133 380 150 345 179 323 C120 294 84 235 84 168 C84 71 161 -5 261 -5 C353 -5 430 61 441 148 L483 148 C501 148 517 160 517 174 C517 187 504 196 487 196 L315 196 C296 196 281 185 281 171 C281 158 294 148 311 148 L378 148 C370 84 325 43 267 43 L267 43 Z " />
<glyph glyph-name="quotesingle" unicode="&#x27;" horiz-adv-x="600" d="M269 614 L269 466 C269 452 285 444 299 444 C314 444 332 454 332 470 L332 618 C332 632 317 640 303 640 C288 640 269 630 269 614 L269 614 Z " />
<glyph glyph-name="parenleft" unicode="&#x28;" horiz-adv-x="600" d="M235 322 C235 210 267 85 319 -9 C337 -42 346 -50 362 -50 C379 -50 396 -39 396 -29 C396 -14 367 36 354 58 C315 123 298 216 298 313 C298 429 322 514 392 655 C394 659 396 663 396 668 C396 680 383 689 367 689 C341 689 328 663 320 647 C263 533 235 426 235 322 L235 322 Z " />
<glyph glyph-name="parenright" unicode="&#x29;" horiz-adv-x="600" d="M300 316 C300 202 272 105 205 -16 C202 -21 202 -24 202 -24 C202 -39 215 -50 230 -50 C234 -50 238 -49 241 -48 C256 -42 270 -25 284 5 C334 105 363 212 363 324 C363 429 339 526 280 645 C277 652 273 658 270 665 C267 671 257 689 235 689 C217 689 202 677 202 663 L237 591 C278 507 300 417 300 316 L300 316 Z " />
<glyph glyph-name="asterisk" unicode="&#x2a;" horiz-adv-x="600" d="M299 455 L321 413 C325 404 336 400 347 400 C359 400 381 407 381 422 C379 433 363 467 339 514 L402 546 C404 547 406 548 408 549 C422 556 430 563 430 573 C430 587 415 596 404 596 C402 596 399 596 396 595 C380 591 354 578 332 566 L332 623 C332 637 316 645 302 645 C287 645 269 635 269 619 L269 568 C245 580 218 593 204 596 C189 596 170 587 170 570 C170 561 176 556 184 551 L262 512 C247 484 223 435 219 420 C219 402 242 400 255 400 C270 403 281 412 285 427 L299 455 Z " />
<glyph glyph-name="plus" unicode="&#x2b;" horiz-adv-x="600" d="M200 224 L269 224 L269 147 C269 133 284 125 298 125 C313 125 332 135 332 151 L332 224 L397 224 C412 224 431 233 431 249 C431 263 415 271 401 271 L332 271 L332 348 C332 362 317 370 303 370 C288 370 269 360 269 344 L269 271 L204 271 C189 271 170 262 170 246 C170 232 186 224 200 224 L200 224 Z " />
<glyph glyph-name="comma" unicode="&#x2c;" horiz-adv-x="600" d="M356 25 C356 40 340 46 326 46 L277 46 C262 46 243 37 243 20 C243 -1 271 -1 288 -1 L292 -1 C292 -43 284 -77 273 -110 C271 -115 268 -124 268 -127 L268 -130 C268 -142 283 -149 296 -149 C350 -149 356 -6 356 25 L356 25 Z " />
<glyph glyph-name="hyphen" unicode="&#x2d;" horiz-adv-x="600" d="M200 225 L397 225 C412 225 431 234 431 250 C431 264 415 273 401 273 L204 273 C189 273 170 263 170 247 C170 233 186 225 200 225 L200 225 Z " />
<glyph glyph-name="period" unicode="&#x2e;" horiz-adv-x="600" d="M269 56 L269 17 C269 3 285 -5 299 -5 C314 -5 332 4 332 20 L332 60 C332 74 317 82 303 82 C288 82 269 72 269 56 L269 56 Z " />
<glyph glyph-name="slash" unicode="&#x2f;" horiz-adv-x="600" d="M453 678 C453 684 436 692 423 692 C415 692 403 689 400 682 C374 611 143 -27 143 -35 C143 -38 159 -46 174 -46 C189 -46 198 -39 203 -30 L453 678 Z " />
<glyph glyph-name="zero" unicode="0" horiz-adv-x="600" d="M417 165 C417 97 366 43 303 43 C238 43 184 100 184 169 L184 381 C184 449 236 503 299 503 C364 503 417 446 417 377 L417 165 Z M480 381 C480 475 401 551 303 551 C203 551 121 473 121 377 L121 165 C121 71 201 -5 299 -5 C399 -5 480 73 480 169 L480 381 Z M269 393 L269 146 C269 132 284 123 298 123 C313 123 332 133 332 149 L332 396 C332 410 317 418 303 418 C288 418 269 409 269 393 L269 393 Z " />
<glyph glyph-name="one" unicode="1" horiz-adv-x="600" d="M393 25 L393 519 C393 533 378 541 364 541 L240 541 C225 541 207 532 207 516 C207 502 222 493 236 493 L330 493 L330 22 C330 8 345 0 359 0 C374 0 393 9 393 25 L393 25 Z " />
<glyph glyph-name="two" unicode="2" horiz-adv-x="600" d="M239 47 L415 320 C433 348 443 380 443 409 C443 487 374 551 290 551 C245 551 204 533 171 498 C167 494 158 485 158 476 C158 464 172 454 189 454 C200 454 207 458 225 476 C243 494 258 503 284 503 C335 503 380 460 380 411 C380 376 358 336 310 262 L162 33 C159 29 158 26 158 22 C158 10 172 -1 188 -1 L410 -1 C428 -1 443 11 443 25 C443 37 430 47 414 47 L239 47 Z " />
<glyph glyph-name="three" unicode="3" horiz-adv-x="600" d="M461 169 C461 263 389 338 297 343 L419 506 C422 510 425 515 425 520 C425 531 412 541 395 541 L173 541 C155 541 139 529 139 515 C139 503 152 494 169 494 L340 494 L218 331 C215 326 213 322 213 317 C213 303 226 296 250 296 L269 296 C345 296 399 244 399 170 C399 98 347 43 279 43 C252 43 234 52 196 83 C189 89 184 91 175 91 C156 91 140 79 140 65 C140 58 144 54 155 43 C188 12 231 -5 280 -5 C382 -5 461 71 461 169 L461 169 Z " />
<glyph glyph-name="four" unicode="4" horiz-adv-x="600" d="M121 121 C121 107 136 98 150 98 L417 98 L417 22 C417 8 432 0 446 0 C461 0 480 9 480 25 L480 223 C480 237 465 245 451 245 C436 245 417 235 417 219 L417 146 L197 146 L381 529 C381 543 366 551 350 551 C337 551 326 546 321 535 L121 121 Z " />
<glyph glyph-name="five" unicode="5" horiz-adv-x="600" d="M278 -5 C382 -5 461 73 461 174 C461 276 382 344 266 344 L218 344 L237 494 L378 494 C396 494 412 505 412 519 C412 532 400 541 383 541 L210 541 C192 541 179 531 177 518 L152 316 C152 301 164 296 197 296 L250 296 C346 296 398 250 398 175 C398 99 345 43 283 43 C258 43 236 52 204 76 C188 88 180 92 171 92 C155 92 139 79 139 66 C139 59 143 53 155 42 C191 10 232 -5 278 -5 L278 -5 Z " />
<glyph glyph-name="six" unicode="6" horiz-adv-x="600" d="M417 173 C417 100 367 43 303 43 C238 43 184 100 184 169 L184 322 C184 427 257 493 373 493 C391 493 406 505 406 520 C406 534 394 541 371 541 C226 541 121 448 121 318 L121 165 C121 70 201 -5 300 -5 C400 -5 480 73 480 171 C480 267 402 344 303 344 L254 344 C236 344 220 332 220 318 C220 303 234 296 265 296 L292 296 C366 296 417 246 417 173 L417 173 Z " />
<glyph glyph-name="seven" unicode="7" horiz-adv-x="600" d="M454 523 C454 537 433 541 426 541 L179 541 C164 541 146 532 146 516 C146 502 161 493 175 493 L382 493 L201 14 C201 5 225 0 238 0 C257 0 262 12 267 26 L454 523 Z " />
<glyph glyph-name="eight" unicode="8" horiz-adv-x="600" d="M480 170 C480 236 443 295 384 325 C413 350 431 387 431 426 C431 497 374 551 300 551 C225 551 171 495 171 422 C171 381 188 347 217 323 C159 292 121 232 121 167 C121 71 200 -5 300 -5 C401 -5 480 73 480 170 L480 170 Z M302 43 C237 43 184 101 184 171 C184 241 236 296 300 296 C365 296 417 238 417 167 C417 98 366 43 302 43 L302 43 Z M301 344 C262 344 234 378 234 424 C234 470 262 503 300 503 C339 503 368 468 368 422 C368 376 339 344 301 344 L301 344 Z " />
<glyph glyph-name="nine" unicode="9" horiz-adv-x="600" d="M184 367 C184 441 233 498 298 498 C362 498 416 441 416 372 L416 165 C416 98 365 42 302 42 C271 42 251 56 236 66 C220 76 212 80 202 80 C186 80 170 67 170 56 C170 31 247 -5 307 -5 C397 -5 480 73 480 169 L480 376 C480 471 400 546 299 546 C198 546 120 469 120 370 C120 270 199 192 298 192 L347 192 C365 192 381 204 381 219 C381 233 368 240 339 240 L313 240 C237 240 184 292 184 367 L184 367 Z " />
<glyph glyph-name="colon" unicode="&#x3a;" horiz-adv-x="600" d="M269 406 L269 367 C269 353 285 345 299 345 C314 345 332 354 332 370 L332 410 C332 424 317 432 303 432 C288 432 269 422 269 406 L269 406 Z M269 56 L269 17 C269 3 285 -5 299 -5 C314 -5 332 4 332 20 L332 60 C332 74 317 82 303 82 C288 82 269 72 269 56 L269 56 Z " />
<glyph glyph-name="semicolon" unicode="&#x3b;" horiz-adv-x="600" d="M294 406 L294 367 C294 353 310 345 324 345 C339 345 357 354 357 370 L357 410 C357 424 342 432 328 432 C313 432 294 422 294 406 L294 406 Z M357 25 C357 40 341 46 327 46 L278 46 C263 46 244 37 244 20 C244 -1 272 -1 289 -1 L293 -1 C293 -6 293 -11 293 -16 C291 -51 284 -81 274 -110 C272 -115 269 -124 269 -127 L269 -130 C269 -142 284 -149 297 -149 C351 -149 357 -6 357 25 L357 25 Z " />
<glyph glyph-name="less" unicode="&#x3c;" horiz-adv-x="600" d="M227 247 C227 242 230 236 234 232 C255 212 337 129 358 109 C363 104 372 101 380 101 C395 101 414 111 414 127 C414 132 411 137 407 141 L298 250 L406 358 C411 363 414 369 414 374 C414 388 398 396 384 396 C374 396 364 392 358 386 L235 263 C230 258 227 252 227 247 L227 247 Z " />
<glyph glyph-name="equal" unicode="&#x3d;" horiz-adv-x="600" d="M200 163 L397 163 C412 163 431 172 431 188 C431 202 415 211 401 211 L204 211 C189 211 170 201 170 185 C170 171 186 163 200 163 L200 163 Z M200 286 L397 286 C412 286 431 295 431 311 C431 325 415 334 401 334 L204 334 C189 334 170 324 170 308 C170 294 186 286 200 286 L200 286 Z " />
<glyph glyph-name="greater" unicode="&#x3e;" horiz-adv-x="600" d="M299 250 L191 142 C186 137 183 131 183 126 C183 112 199 104 213 104 C223 104 232 108 238 114 L362 237 C367 242 370 248 370 253 C370 258 367 264 363 268 C342 288 260 371 239 391 C234 396 225 399 217 399 C202 399 183 389 183 373 C183 368 186 363 190 359 L299 250 Z " />
<glyph glyph-name="question" unicode="&#x3f;" horiz-adv-x="600" d="M300 592 C359 592 408 550 408 481 C408 438 389 405 353 366 C303 313 268 252 268 170 C268 155 284 148 301 148 C330 148 332 170 333 195 C338 271 377 314 427 367 C456 398 471 437 471 478 C471 570 393 640 301 640 C259 640 219 626 187 598 L185 597 C178 591 170 584 170 574 C170 560 185 552 199 552 C209 552 216 555 236 570 C246 578 265 592 300 592 L300 592 Z M269 56 L269 17 C269 3 285 -5 299 -5 C314 -5 332 4 332 20 L332 60 C332 74 317 82 303 82 C288 82 269 72 269 56 L269 56 Z " />
<glyph glyph-name="at" unicode="&#x40;" horiz-adv-x="600" d="M529 174 L529 430 C529 553 427 650 303 650 C178 650 71 552 71 427 L71 219 C71 96 174 0 298 0 L397 0 C412 0 431 9 431 25 C431 38 416 47 403 47 L332 47 C225 47 134 103 134 223 L134 430 C134 523 206 602 298 602 C389 602 458 530 465 442 L327 442 C270 442 219 400 219 343 L219 244 C219 189 267 148 323 148 L397 148 C412 148 431 158 431 174 C431 187 417 195 401 195 L343 195 C309 195 283 209 283 248 L283 346 C283 380 302 395 333 395 L466 395 L466 170 C466 156 482 148 496 148 C511 148 529 158 529 174 L529 174 Z " />
<glyph glyph-name="A" unicode="A" horiz-adv-x="600" d="M490 -5 C503 -5 527 2 527 18 C527 30 513 68 508 82 C452 252 395 422 339 593 C336 600 334 608 332 614 C327 628 320 638 301 638 C287 638 279 634 270 613 L66 7 C75 1 85 -4 96 -4 C130 -4 139 51 147 76 L446 76 C453 57 465 -5 490 -5 L490 -5 Z M163 124 L298 521 L430 124 L163 124 Z " />
<glyph glyph-name="B" unicode="B" horiz-adv-x="600" d="M246 0 L321 0 C435 0 530 70 530 190 C530 280 476 340 401 364 C441 391 468 432 468 486 C468 590 367 637 277 637 L127 637 C112 637 93 627 93 610 L93 23 C93 8 108 0 121 0 C136 0 155 10 155 27 L155 326 L307 326 C394 326 468 285 468 186 C468 90 399 50 313 50 L257 50 C237 50 218 40 218 23 C218 8 233 0 246 0 L246 0 Z M155 376 L155 587 L271 587 C335 587 406 559 406 487 C406 391 328 376 248 376 L155 376 Z " />
<glyph glyph-name="C" unicode="C" horiz-adv-x="600" d="M333 43 C249 43 172 120 172 218 L172 430 C172 526 245 602 339 602 C372 602 399 592 430 571 C446 560 451 559 457 559 C477 559 492 571 492 585 C492 617 412 650 339 650 C211 650 108 548 108 426 L108 214 C108 94 208 -5 334 -5 C409 -5 492 30 492 63 C492 76 479 87 463 87 C455 87 449 84 441 79 C417 61 373 43 333 43 L333 43 Z " />
<glyph glyph-name="D" unicode="D" horiz-adv-x="600" d="M134 47 L134 592 L249 592 C368 592 466 491 466 367 L466 269 C466 147 370 47 252 47 L134 47 Z M249 0 C404 0 529 122 529 272 L529 371 C529 519 405 640 252 640 L104 640 C86 640 71 628 71 614 L71 22 C71 10 84 0 100 0 L249 0 Z " />
<glyph glyph-name="E" unicode="E" horiz-adv-x="600" d="M480 640 L134 640 C119 640 101 630 101 614 L101 71 C101 29 138 0 180 0 L476 0 C491 0 510 10 510 26 C510 41 494 47 480 47 L194 47 C174 47 164 55 164 75 L164 346 L303 346 C318 346 337 355 337 371 C337 386 321 393 307 393 L164 393 L164 592 L476 592 C491 592 510 602 510 618 C510 633 494 640 480 640 L480 640 Z " />
<glyph glyph-name="F" unicode="F" horiz-adv-x="600" d="M204 592 L467 592 C482 592 500 602 500 618 C500 633 485 640 471 640 L174 640 C159 640 141 630 141 614 L141 22 C141 7 156 0 170 0 C185 0 204 10 204 26 L204 345 L343 345 C358 345 377 355 377 371 C377 386 361 393 347 393 L204 393 L204 592 Z " />
<glyph glyph-name="G" unicode="G" horiz-adv-x="600" d="M470 345 L470 214 C470 120 396 43 306 43 C215 43 139 122 139 218 L139 421 C139 508 223 592 310 592 L401 592 C419 592 435 604 435 617 C435 630 421 640 405 640 L306 640 C179 640 75 540 75 417 L75 214 C75 93 176 -5 302 -5 C429 -5 533 95 533 218 L533 371 C533 383 520 393 504 393 L306 393 C288 393 272 381 272 368 C272 355 286 345 302 345 L470 345 Z " />
<glyph glyph-name="H" unicode="H" horiz-adv-x="600" d="M134 26 L134 345 L466 345 L466 22 C466 7 481 0 495 0 C510 0 529 10 529 26 L529 618 C529 633 513 640 499 640 C484 640 466 630 466 614 L466 393 L134 393 L134 618 C134 633 118 640 104 640 C89 640 71 630 71 614 L71 22 C71 7 86 0 100 0 C115 0 134 10 134 26 L134 26 Z " />
<glyph glyph-name="I" unicode="I" horiz-adv-x="600" d="M175 0 L420 0 C435 0 454 9 454 26 C454 41 438 50 424 50 L332 50 L332 590 L420 590 C435 590 454 599 454 616 C454 631 438 640 424 640 L179 640 C164 640 145 630 145 613 C145 598 161 590 175 590 L269 590 L269 50 L179 50 C164 50 145 40 145 23 C145 8 161 0 175 0 L175 0 Z " />
<glyph glyph-name="J" unicode="J" horiz-adv-x="600" d="M268 -5 C354 -5 425 62 425 144 L425 610 C426 612 426 614 426 616 C426 631 410 640 396 640 L174 640 C159 640 140 630 140 613 C140 598 156 590 170 590 L362 590 L362 142 C362 85 322 43 270 43 C244 43 221 54 202 76 C192 88 184 92 173 92 C154 92 140 80 140 64 C140 30 205 -5 268 -5 L268 -5 Z " />
<glyph glyph-name="K" unicode="K" horiz-adv-x="600" d="M148 26 L148 335 L251 406 L482 12 C487 4 499 0 508 0 C524 0 543 13 543 29 L302 441 L530 598 C536 603 543 610 543 619 C543 633 527 640 513 640 C505 640 499 637 493 634 L148 397 L148 618 C148 633 132 640 118 640 C103 640 85 630 85 614 L85 22 C85 7 100 0 114 0 C129 0 148 10 148 26 L148 26 Z " />
<glyph glyph-name="L" unicode="L" horiz-adv-x="600" d="M200 47 L200 618 C200 633 184 640 170 640 C155 640 137 630 137 614 L137 22 C137 7 152 0 166 0 L463 0 C478 0 496 10 496 26 C496 41 481 47 467 47 L200 47 Z " />
<glyph glyph-name="M" unicode="M" horiz-adv-x="600" d="M556 27 L556 622 C556 637 541 645 528 645 C517 645 505 640 498 631 L301 350 L102 634 C97 641 87 645 78 645 C63 645 44 635 44 618 L44 23 C44 8 59 0 72 0 C87 0 106 10 106 27 L106 524 L273 286 C278 279 288 275 297 275 C308 275 320 280 327 289 L494 528 L494 23 C494 8 509 0 522 0 C537 0 556 10 556 27 L556 27 Z " />
<glyph glyph-name="N" unicode="N" horiz-adv-x="600" d="M105 640 C90 640 71 630 71 614 L71 22 C71 8 86 0 100 0 C115 0 134 9 134 25 L134 551 L466 260 L466 22 C466 8 481 0 495 0 C510 0 529 9 529 25 L529 618 C529 632 514 640 500 640 C485 640 466 630 466 614 L466 336 L126 633 C121 638 113 640 105 640 L105 640 Z " />
<glyph glyph-name="O" unicode="O" horiz-adv-x="600" d="M529 218 L529 430 C529 551 427 650 302 650 C175 650 71 549 71 427 L71 214 C71 93 173 -5 298 -5 C425 -5 529 96 529 218 L529 218 Z M302 43 C212 43 134 124 134 218 L134 430 C134 524 208 602 298 602 C390 602 466 523 466 427 L466 214 C466 120 392 43 302 43 L302 43 Z " />
<glyph glyph-name="P" unicode="P" horiz-adv-x="600" d="M268 345 L366 345 C453 345 523 412 523 494 C523 575 455 640 371 640 L149 640 C131 640 115 628 115 614 L115 22 C115 10 127 0 144 0 C162 0 178 11 178 25 L178 592 L366 592 C417 592 460 546 460 489 C460 431 415 393 345 393 L278 393 C255 393 238 383 238 368 C238 355 252 345 268 345 L268 345 Z " />
<glyph glyph-name="Q" unicode="Q" horiz-adv-x="600" d="M529 218 L529 430 C529 551 427 650 302 650 C175 650 71 549 71 427 L71 214 C71 93 173 -5 298 -5 C352 -5 401 13 441 43 L477 7 C482 2 491 0 499 0 C514 0 533 9 533 25 C533 30 530 36 526 40 L482 84 C511 121 529 168 529 218 L529 218 Z M306 245 C291 245 273 235 273 220 C273 214 276 209 280 205 L404 80 C376 57 340 43 302 43 C212 43 134 124 134 218 L134 430 C134 524 208 602 298 602 C390 602 466 523 466 427 L466 214 C466 181 457 151 442 124 L329 237 C324 242 314 245 306 245 L306 245 Z " />
<glyph glyph-name="R" unicode="R" horiz-adv-x="600" d="M101 22 C101 10 113 0 130 0 C147 0 164 12 164 26 L164 592 L353 592 C405 592 446 546 446 488 C446 427 398 393 313 393 L281 393 C264 393 253 383 253 370 C253 365 254 360 258 354 L447 13 C452 3 460 0 468 0 C488 0 510 17 510 31 L330 345 L341 345 C439 345 510 407 510 492 C510 575 442 640 357 640 L134 640 C117 640 101 628 101 614 L101 22 Z " />
<glyph glyph-name="S" unicode="S" horiz-adv-x="600" d="M290 -5 C423 -5 513 68 513 181 C513 303 410 339 316 372 C209 410 175 437 175 485 C175 548 231 597 300 597 C344 597 375 591 410 574 C423 568 430 566 437 566 C456 566 471 577 471 590 C471 618 394 645 320 645 C200 645 112 574 112 479 C112 412 155 373 285 327 C367 298 449 270 449 173 C449 92 391 43 295 43 C246 43 198 46 149 95 L147 97 C134 110 124 111 119 111 C103 111 87 98 87 86 C87 78 93 71 106 58 L109 55 C151 13 218 -5 290 -5 L290 -5 Z " />
<glyph glyph-name="T" unicode="T" horiz-adv-x="600" d="M105 592 L271 592 L271 22 C271 7 286 0 300 0 C315 0 334 10 334 26 L334 592 L491 592 C506 592 525 602 525 618 C525 633 509 640 495 640 L109 640 C94 640 75 630 75 614 C75 599 91 592 105 592 L105 592 Z " />
<glyph glyph-name="U" unicode="U" horiz-adv-x="600" d="M71 614 L71 214 C71 92 172 -5 298 -5 C425 -5 529 95 529 218 L529 618 C529 630 517 640 500 640 C482 640 466 628 466 614 L466 218 C466 121 392 43 301 43 C208 43 134 125 134 229 L134 618 C134 630 122 640 105 640 C87 640 71 628 71 614 L71 614 Z " />
<glyph glyph-name="V" unicode="V" horiz-adv-x="600" d="M300 117 L132 624 C128 635 116 640 106 640 C96 640 72 636 71 620 C71 604 255 37 271 7 C275 -1 284 -5 297 -5 C317 -5 328 5 337 34 L528 623 C528 635 508 640 498 640 C486 640 471 633 467 621 L300 117 Z " />
<glyph glyph-name="W" unicode="W" horiz-adv-x="600" d="M439 129 L328 409 C324 419 313 424 303 424 C290 424 277 417 272 405 C254 359 180 173 162 127 L80 618 C78 631 65 637 53 637 C38 637 20 627 20 611 L20 608 L120 14 C122 1 135 -5 147 -5 C160 -5 173 2 178 14 C198 66 279 269 299 321 L422 10 C426 0 437 -5 447 -5 C461 -5 476 3 479 18 L580 615 C580 629 566 637 553 637 C539 637 524 629 521 614 L439 129 Z " />
<glyph glyph-name="X" unicode="X" horiz-adv-x="600" d="M96 17 C96 3 112 -5 126 -5 C138 -5 150 0 156 10 C180 51 276 219 300 260 L445 7 C450 -1 461 -5 471 -5 C486 -5 505 5 505 21 C505 24 504 27 502 31 C474 79 363 274 335 322 L502 612 C504 616 505 620 505 623 C505 637 490 645 476 645 C464 645 451 640 445 630 C421 589 325 421 301 380 L156 633 C151 641 140 645 130 645 C115 645 96 635 96 619 C96 616 97 613 99 609 C127 561 238 366 266 318 L99 28 C97 24 96 20 96 17 L96 17 Z " />
<glyph glyph-name="Y" unicode="Y" horiz-adv-x="600" d="M301 395 L129 635 C124 642 114 645 105 645 C89 645 71 635 71 619 C71 615 72 611 75 607 L268 337 L268 22 C268 8 283 0 297 0 C312 0 331 9 331 25 L331 340 L523 609 C526 613 528 619 528 623 C528 637 513 645 499 645 C488 645 477 640 471 632 L301 395 Z " />
<glyph glyph-name="Z" unicode="Z" horiz-adv-x="600" d="M153 48 L525 605 C528 609 529 614 529 618 C529 632 514 640 500 640 L105 640 C90 640 71 630 71 614 C71 600 87 592 101 592 L447 592 L76 34 C73 30 71 26 71 22 C71 8 87 0 101 0 L495 0 C510 0 529 9 529 25 C529 39 514 48 500 48 L153 48 Z " />
<glyph glyph-name="bracketleft" unicode="&#x5b;" horiz-adv-x="600" d="M392 689 L269 689 C254 689 235 680 235 664 L235 -27 C235 -41 250 -50 264 -50 L388 -50 C403 -50 421 -40 421 -24 C421 -10 406 -2 392 -2 L298 -2 L298 641 L388 641 C403 641 421 651 421 667 C421 681 406 689 392 689 L392 689 Z " />
<glyph glyph-name="backslash" unicode="&#x5c;" horiz-adv-x="600" d="M419 -50 C436 -50 455 -40 455 -24 L207 674 C203 686 192 689 183 689 C164 689 145 674 145 661 L393 -34 C397 -46 407 -50 419 -50 L419 -50 Z " />
<glyph glyph-name="bracketright" unicode="&#x5d;" horiz-adv-x="600" d="M298 641 L298 -2 L208 -2 C193 -2 175 -11 175 -27 C175 -41 190 -50 204 -50 L327 -50 C342 -50 361 -40 361 -24 L361 667 C361 681 346 689 332 689 L208 689 C193 689 175 680 175 664 C175 650 190 641 204 641 L298 641 Z " />
<glyph glyph-name="asciicircum" unicode="&#x5e;" horiz-adv-x="600" d="M299 571 L391 460 C393 458 395 455 397 453 C400 449 406 446 412 445 C415 444 418 444 421 444 C436 444 455 454 455 468 C455 471 454 474 453 476 C451 481 447 486 443 490 L326 631 C321 637 311 640 302 640 C291 640 280 636 274 629 C233 579 192 530 151 480 C147 476 145 471 145 466 C145 452 160 444 174 444 C177 444 180 444 182 445 C190 446 198 450 202 455 C204 457 206 460 208 462 L299 571 Z " />
<glyph glyph-name="underscore" unicode="&#x5f;" horiz-adv-x="600" d="M151 -125 L447 -125 C462 -125 480 -115 480 -99 C480 -85 465 -77 451 -77 L155 -77 C140 -77 121 -87 121 -103 C121 -117 137 -125 151 -125 L151 -125 Z " />
<glyph glyph-name="grave" unicode="&#x60;" horiz-adv-x="600" d="M299 516 C313 516 331 525 331 541 C331 546 329 551 325 555 L250 630 C245 635 237 637 230 637 C216 637 198 628 198 612 C198 607 200 602 204 598 L279 523 C284 518 292 516 299 516 L299 516 Z " />
<glyph glyph-name="a" unicode="a" horiz-adv-x="600" d="M224 243 C151 243 92 188 92 120 C92 54 150 0 220 0 L318 0 C336 0 352 11 352 25 C352 38 339 47 322 47 L242 47 C187 47 155 76 155 125 C155 173 185 196 244 196 L387 196 L387 22 C387 10 399 0 416 0 C434 0 450 12 450 26 L450 295 C450 376 382 440 298 440 L199 440 C181 440 166 429 166 415 C166 402 178 393 195 393 L270 393 C341 393 387 354 387 293 L387 243 L224 243 Z " />
<glyph glyph-name="b" unicode="b" horiz-adv-x="600" d="M444 208 C444 113 388 47 306 47 L212 47 L212 615 C212 627 200 636 183 636 C165 636 149 625 149 611 L149 22 C149 10 162 0 179 0 L302 0 C426 0 507 86 507 217 L507 225 C507 360 427 440 293 440 C263 440 247 431 247 414 C247 399 258 393 284 393 L293 393 C384 393 444 329 444 234 L444 208 Z " />
<glyph glyph-name="c" unicode="c" horiz-adv-x="600" d="M327 450 C235 450 154 372 154 277 L154 164 C154 70 233 -5 325 -5 C381 -5 445 23 445 47 C445 58 433 67 418 67 C411 67 404 65 393 60 C379 53 352 42 327 42 C270 42 217 101 217 168 L217 281 C217 347 267 403 324 403 C343 403 363 396 380 386 C395 379 404 376 413 376 C431 376 447 388 447 399 C447 421 382 450 327 450 L327 450 Z " />
<glyph glyph-name="d" unicode="d" horiz-adv-x="600" d="M387 611 L387 440 L298 440 C185 440 93 352 93 243 L93 194 C93 83 182 0 301 0 C336 0 352 7 352 25 C352 40 340 47 313 47 L308 47 C220 47 156 110 156 197 L156 246 C156 319 217 393 310 393 L387 393 L387 22 C387 10 401 0 417 0 C435 0 450 11 450 25 L450 614 C450 626 437 637 421 637 C403 637 387 625 387 611 L387 611 Z " />
<glyph glyph-name="e" unicode="e" horiz-adv-x="600" d="M297 47 C231 47 188 97 188 173 L188 196 L449 196 C467 196 482 208 482 221 L482 280 C482 376 403 450 300 450 C194 450 125 372 125 254 L125 170 C125 70 199 0 303 0 L360 0 C394 0 410 7 410 22 C410 39 391 47 352 47 L297 47 Z M188 243 L188 275 C188 348 238 403 304 403 C371 403 419 345 419 265 L419 243 L188 243 Z " />
<glyph glyph-name="f" unicode="f" horiz-adv-x="600" d="M269 469 L269 440 L176 440 C158 440 142 429 142 415 C142 403 155 392 171 392 L269 392 L269 22 C269 10 282 0 298 0 C316 0 332 11 332 25 L332 392 L499 392 C517 392 532 404 532 418 C532 430 519 440 503 440 L332 440 L332 460 C332 540 376 594 447 594 C465 594 479 606 479 619 C479 631 466 642 450 642 C351 642 269 564 269 469 L269 469 Z " />
<glyph glyph-name="g" unicode="g" horiz-adv-x="600" d="M305 440 C219 440 149 373 149 291 C149 254 163 220 189 193 C137 185 100 146 100 97 C100 58 124 22 162 7 C138 -17 124 -48 124 -79 C124 -144 181 -197 252 -197 L350 -197 C423 -197 482 -142 482 -74 C482 -8 423 48 354 48 L215 48 C181 48 163 67 163 100 C163 131 181 147 212 147 L302 147 C387 147 457 214 457 295 C457 331 443 365 418 392 L526 392 C544 392 560 404 560 418 C560 430 547 440 531 440 L305 440 Z M257 -149 C220 -149 187 -116 187 -76 C187 -37 218 0 252 0 L350 0 C387 0 419 -36 419 -77 C419 -117 390 -149 354 -149 L257 -149 Z M394 292 C394 238 354 195 304 195 C253 195 212 239 212 294 C212 348 252 392 301 392 C352 392 394 347 394 292 L394 292 Z " />
<glyph glyph-name="h" unicode="h" horiz-adv-x="600" d="M480 26 L480 271 C480 365 401 440 303 440 L185 440 L185 614 C185 626 172 637 156 637 C138 637 122 625 122 611 L122 22 C122 10 136 0 152 0 C170 0 185 12 185 26 L185 393 L289 393 C371 393 417 338 417 238 L417 22 C417 10 430 0 446 0 C464 0 480 12 480 26 L480 26 Z " />
<glyph glyph-name="i" unicode="i" horiz-adv-x="600" d="M143 0 L454 0 C469 0 488 9 488 25 C488 39 472 48 458 48 L363 48 L363 418 C362 433 347 441 333 441 L186 441 C171 441 152 431 152 415 C152 401 168 393 182 393 L300 393 L300 48 L147 48 C132 48 113 38 113 22 C113 8 129 0 143 0 L143 0 Z M362 565 L362 614 C362 626 349 637 333 637 C315 637 299 625 299 611 L299 562 C299 550 313 540 329 540 C347 540 362 551 362 565 L362 565 Z " />
<glyph glyph-name="j" unicode="j" horiz-adv-x="600" d="M188 -174 C188 -189 204 -197 217 -197 C313 -197 398 -122 398 -24 L398 418 C398 433 380 441 367 441 L196 441 C182 441 162 432 162 415 C162 400 179 393 192 393 L336 393 L336 -15 C336 -93 298 -141 220 -149 C206 -150 188 -157 188 -174 L188 -174 Z M398 566 L398 615 C398 630 382 638 369 638 C355 638 335 629 335 612 L335 563 C335 548 353 541 365 541 C379 541 398 549 398 566 L398 566 Z " />
<glyph glyph-name="k" unicode="k" horiz-adv-x="600" d="M190 25 L190 257 L281 302 L423 15 C428 4 436 -1 446 -1 C465 -1 485 16 485 29 C485 32 484 35 482 39 L335 329 L468 396 C478 401 485 410 485 418 C485 430 472 440 456 440 C450 440 444 438 439 436 L190 312 L190 614 C190 626 177 636 161 636 C143 636 127 625 127 611 L127 22 C127 10 141 -1 157 -1 C175 -1 190 11 190 25 L190 25 Z " />
<glyph glyph-name="l" unicode="l" horiz-adv-x="600" d="M143 0 L454 0 C469 0 488 9 488 25 C488 39 472 48 458 48 L363 48 L363 614 C362 629 348 637 333 637 L186 637 C171 637 152 627 152 611 C152 597 168 589 182 589 L300 589 L300 48 L147 48 C132 48 113 38 113 22 C113 8 129 0 143 0 L143 0 Z " />
<glyph glyph-name="m" unicode="m" horiz-adv-x="600" d="M113 393 L154 393 C225 393 272 334 272 247 L272 22 C272 9 283 0 300 0 C318 0 335 12 335 26 L335 271 C335 365 256 440 158 440 L84 440 C66 440 50 428 50 414 L50 22 C50 10 63 0 80 0 C98 0 113 12 113 26 L113 393 Z M556 271 C556 365 478 440 379 440 L359 440 C341 440 326 427 325 414 C326 401 337 393 356 393 L364 393 C442 393 493 335 493 249 L493 22 C493 10 506 0 522 0 C539 1 556 13 556 26 L556 271 Z " />
<glyph glyph-name="n" unicode="n" horiz-adv-x="600" d="M184 393 L298 393 C369 393 416 334 416 247 L416 22 C416 9 427 0 444 0 C462 0 479 12 479 26 L479 271 C479 365 400 440 302 440 L155 440 C137 440 121 428 121 414 L121 22 C121 10 134 0 151 0 C169 0 184 12 184 26 L184 393 Z " />
<glyph glyph-name="o" unicode="o" horiz-adv-x="600" d="M185 281 C185 348 236 402 299 402 C364 402 416 345 416 277 L416 164 C416 97 366 43 303 43 C239 43 185 101 185 168 L185 281 Z M122 164 C122 70 200 -5 298 -5 C398 -5 479 73 479 168 L479 281 C479 375 401 450 303 450 C203 450 122 372 122 277 L122 164 Z " />
<glyph glyph-name="p" unicode="p" horiz-adv-x="600" d="M510 222 L510 228 C510 355 430 440 309 440 L186 440 C168 440 152 428 152 414 L152 -175 C152 -187 165 -196 182 -196 C200 -196 215 -185 215 -171 L215 393 L304 393 C386 393 447 325 447 233 L447 199 C447 103 388 47 287 47 C267 47 251 36 250 21 C250 7 264 0 288 0 C425 0 510 84 510 222 L510 222 Z " />
<glyph glyph-name="q" unicode="q" horiz-adv-x="600" d="M451 -171 L451 418 C451 430 439 440 422 440 L299 440 C177 440 94 351 94 221 L94 210 C94 80 177 0 307 0 C337 0 353 9 353 26 C353 41 343 47 316 47 L305 47 C218 47 157 114 157 212 L157 240 C157 328 215 393 295 393 L388 393 L388 -175 C388 -187 401 -196 418 -196 C436 -196 451 -185 451 -171 L451 -171 Z " />
<glyph glyph-name="r" unicode="r" horiz-adv-x="600" d="M220 278 L220 50 L155 50 C140 50 121 40 121 23 C121 8 137 0 151 0 L396 0 C411 0 430 9 430 26 C430 41 414 50 400 50 L283 50 L283 249 C283 336 326 400 386 400 C413 400 430 412 430 427 C430 440 417 450 401 450 C302 450 220 372 220 278 L220 278 Z " />
<glyph glyph-name="s" unicode="s" horiz-adv-x="600" d="M455 124 C455 181 419 218 273 282 C249 292 228 313 228 340 C228 374 259 399 299 399 C313 399 327 396 349 387 C360 381 379 374 391 374 C406 374 422 386 422 397 C422 421 351 446 299 446 C223 446 164 393 164 332 C164 270 226 244 234 241 C365 187 392 160 392 118 C392 70 357 42 291 42 C272 42 246 44 220 66 C216 69 212 72 208 76 L206 78 C196 88 187 89 182 89 C164 89 149 76 149 64 C149 35 235 -5 307 -5 C390 -5 455 46 455 124 L455 124 Z " />
<glyph glyph-name="t" unicode="t" horiz-adv-x="600" d="M258 538 C240 538 224 527 224 513 L224 440 L158 440 C140 440 124 429 124 415 C124 403 137 392 153 392 L224 392 L224 164 C224 70 302 -5 400 -5 C418 -5 434 6 434 20 C434 34 420 43 396 43 C337 43 287 102 287 171 L287 392 L487 392 C505 392 521 404 521 418 C521 430 508 440 492 440 L287 440 L287 516 C287 528 274 538 258 538 L258 538 Z " />
<glyph glyph-name="u" unicode="u" horiz-adv-x="600" d="M122 415 L122 169 C122 75 200 0 298 0 L446 0 C464 0 479 11 479 25 L479 418 C479 430 466 440 450 440 C432 440 416 429 416 415 L416 48 L303 48 C234 48 185 108 185 193 L185 418 C184 431 173 440 157 440 C139 440 122 429 122 415 L122 415 Z " />
<glyph glyph-name="v" unicode="v" horiz-adv-x="600" d="M301 103 L178 435 C174 445 163 450 153 450 C139 450 120 440 120 424 C120 422 264 24 276 4 C278 0 284 -5 296 -5 C311 -5 322 3 326 11 C338 35 467 390 479 425 L480 428 C480 442 466 450 453 450 C441 450 426 443 422 431 C419 424 417 417 414 410 L301 103 Z " />
<glyph glyph-name="w" unicode="w" horiz-adv-x="600" d="M418 106 L327 310 C323 319 313 323 303 323 C291 323 278 317 273 306 C258 272 199 139 184 105 L103 433 C100 444 88 449 78 449 C64 449 46 440 46 424 L147 12 C150 1 162 -4 172 -4 C184 -4 197 2 202 13 C218 50 283 194 299 231 L398 9 C402 0 412 -4 422 -4 C435 -4 450 3 453 17 L554 428 C554 442 540 449 528 449 C515 449 500 442 497 428 L418 106 Z " />
<glyph glyph-name="x" unicode="x" horiz-adv-x="600" d="M165 448 C151 448 133 439 133 423 C133 419 135 415 137 412 L267 228 L125 28 C123 25 121 20 121 16 C121 2 135 -5 147 -5 C158 -5 169 -1 175 8 L299 183 L425 5 C430 -2 439 -5 447 -5 C461 -5 479 4 479 20 C479 24 477 28 475 31 L333 231 L463 415 C465 418 467 423 467 427 C467 441 453 448 441 448 C430 448 419 444 413 435 L301 277 L187 438 C182 445 173 448 165 448 L165 448 Z " />
<glyph glyph-name="y" unicode="y" horiz-adv-x="600" d="M132 450 C117 450 96 443 96 425 C157 282 215 137 281 -3 C263 -62 244 -164 171 -177 C158 -179 143 -183 143 -200 C143 -219 164 -223 179 -223 C284 -223 312 -90 337 -13 L341 -6 C341 -5 341 -4 341 -3 C356 45 480 415 480 438 C480 446 459 450 454 450 C441 450 427 444 423 431 C421 425 419 419 417 413 L309 81 C263 190 215 300 165 408 L157 426 C152 440 149 450 132 450 L132 450 Z " />
<glyph glyph-name="z" unicode="z" horiz-adv-x="600" d="M454 418 C454 432 440 440 427 440 L178 440 C163 440 144 430 144 413 C144 398 160 390 174 390 L376 390 L153 41 C148 37 144 31 144 22 C144 8 158 0 174 0 L419 0 C434 0 453 9 453 26 C453 41 437 50 423 50 L222 50 L445 399 C449 403 452 407 453 412 C453 414 454 416 454 418 L454 418 Z " />
<glyph glyph-name="braceleft" unicode="&#x7b;" horiz-adv-x="600" d="M300 425 L209 334 C204 329 201 323 201 318 C201 313 203 309 208 304 L300 212 L300 96 C300 15 369 -50 453 -50 C471 -50 486 -38 486 -24 C486 -11 475 -3 455 -2 C407 2 364 46 364 88 L364 222 C364 229 360 233 357 236 L272 321 L355 404 C360 409 363 415 363 421 L363 517 C363 590 396 641 447 641 C469 641 486 651 486 667 C486 681 473 689 446 689 C370 689 300 625 300 554 L300 425 Z " />
<glyph glyph-name="bar" unicode="&#x7c;" horiz-adv-x="600" d="M269 664 L269 -27 C269 -41 284 -50 298 -50 C313 -50 332 -40 332 -24 L332 667 C332 681 317 689 303 689 C288 689 269 680 269 664 L269 664 Z " />
<glyph glyph-name="braceright" unicode="&#x7d;" horiz-adv-x="600" d="M327 319 L244 236 C240 232 236 224 236 219 L236 73 C236 33 198 -2 152 -2 C128 -2 112 -12 112 -27 C112 -40 125 -49 142 -49 C228 -49 299 9 299 80 L299 214 L390 305 C394 309 398 317 398 322 C398 326 395 333 391 337 C376 352 314 413 299 428 L299 568 C299 634 230 689 146 689 C128 689 112 677 112 663 C112 649 125 642 144 642 C189 642 236 600 236 562 L236 417 C236 412 239 406 243 402 L327 319 Z " />
<glyph glyph-name="asciitilde" unicode="&#x7e;" horiz-adv-x="600" d="M354 250 C342 250 333 258 321 269 C308 281 292 296 261 299 C222 299 176 284 171 239 C171 210 180 203 208 203 C221 205 226 215 230 233 C233 246 236 252 246 252 C256 252 264 247 272 240 C298 218 315 205 341 203 C379 203 424 219 429 263 C429 285 424 299 399 299 C376 299 373 284 373 282 C369 255 365 250 354 250 L354 250 Z " />
<glyph glyph-name="uni00A0" unicode="&#xa0;" horiz-adv-x="600" />
<glyph glyph-name="exclamdown" unicode="&#xa1;" horiz-adv-x="600" d="M269 -178 C269 -192 284 -200 298 -200 C313 -200 331 -189 332 -174 L332 218 C332 232 317 240 303 240 C288 240 270 229 269 214 L269 -178 Z M268 410 L268 371 C268 357 284 349 298 349 C313 349 331 358 331 374 L331 414 C331 428 316 436 302 436 C287 436 268 426 268 410 L268 410 Z " />
<glyph glyph-name="cent" unicode="&#xa2;" horiz-adv-x="600" d="M296 528 L296 447 C217 433 153 362 153 277 L153 164 C153 80 217 11 296 -3 L296 -89 C296 -104 311 -112 324 -112 C339 -112 358 -102 358 -85 L358 -2 C403 6 444 28 444 47 C444 58 432 67 417 67 C410 67 403 65 392 60 C378 53 351 42 326 42 C269 42 216 101 216 168 L216 281 C216 347 266 403 323 403 C342 403 362 396 379 386 C394 379 403 376 412 376 C430 376 446 388 446 399 C446 417 403 439 358 447 L358 532 C358 547 343 555 330 555 C315 555 296 545 296 528 L296 528 Z " />
<glyph glyph-name="sterling" unicode="&#xa3;" horiz-adv-x="600" d="M331 541 C239 541 157 463 157 367 L157 344 L117 344 C99 344 83 332 83 318 C83 306 96 296 113 296 L157 296 L157 47 L117 47 C99 47 83 36 83 22 C83 10 96 0 113 0 L483 0 C501 0 517 12 517 26 C517 38 504 47 487 47 L221 47 L221 296 L335 296 C353 296 369 308 369 322 C369 334 356 344 339 344 L221 344 L221 351 C221 436 265 494 331 494 C351 494 370 488 394 475 C396 474 399 472 401 471 C404 469 406 468 409 466 C418 460 425 456 435 456 C452 456 468 468 468 480 C468 506 392 541 331 541 L331 541 Z " />
<glyph glyph-name="currency" unicode="&#xa4;" horiz-adv-x="600" d="M303 370 C278 370 255 364 236 353 L177 412 C172 417 163 420 155 420 C140 420 121 410 121 394 C121 389 124 383 128 379 L193 314 C179 293 171 269 171 244 C171 219 179 196 193 177 L129 114 C124 109 121 103 121 98 C121 84 137 75 151 75 C161 75 170 79 176 85 L233 142 C252 131 275 125 299 125 C324 125 347 131 366 142 L424 83 C429 78 439 75 447 75 C462 75 480 85 480 100 C480 106 477 112 473 116 C462 127 420 170 409 181 C423 202 431 226 431 251 C431 276 423 299 409 318 L473 381 C478 386 480 392 480 397 C480 411 465 420 451 420 C441 420 431 416 425 410 L368 353 C349 364 327 370 303 370 L303 370 Z M368 245 C368 207 340 173 303 173 C264 173 234 209 234 249 C234 287 262 322 299 322 C339 322 368 285 368 245 L368 245 Z " />
<glyph glyph-name="yen" unicode="&#xa5;" horiz-adv-x="600" d="M332 25 L332 163 L397 163 C412 163 431 172 431 188 C431 202 415 211 401 211 L332 211 L332 286 L397 286 C412 286 431 295 431 311 C431 325 415 334 401 334 L332 334 L332 387 L447 503 C452 508 455 514 455 519 C455 533 440 541 426 541 C416 541 406 538 400 532 L302 433 L201 534 C196 539 187 541 179 541 C164 541 145 532 145 516 C145 511 148 505 152 501 C171 482 250 404 269 385 L269 334 L204 334 C189 334 170 324 170 308 C170 294 186 286 200 286 L269 286 L269 211 L204 211 C189 211 170 201 170 185 C170 171 186 163 200 163 L269 163 L269 22 C269 8 284 0 298 0 C313 0 332 9 332 25 L332 25 Z " />
<glyph glyph-name="brokenbar" unicode="&#xa6;" horiz-adv-x="600" d="M269 614 L269 417 C269 403 284 395 298 395 C313 395 332 404 332 420 L332 618 C332 632 317 640 303 640 C288 640 269 630 269 614 L269 614 Z M269 219 L269 22 C269 8 284 0 298 0 C313 0 332 9 332 25 L332 223 C332 237 317 245 303 245 C288 245 269 235 269 219 L269 219 Z " />
<glyph glyph-name="section" unicode="&#xa7;" horiz-adv-x="600" d="M233 526 C233 573 262 592 330 592 L347 592 C392 592 406 598 406 615 C406 630 394 640 377 640 L303 640 C230 640 170 585 170 516 C170 477 189 441 223 418 C189 394 170 355 170 315 C170 253 219 204 283 198 C335 194 368 162 368 118 C368 76 339 43 303 43 C292 43 281 46 262 58 C253 64 247 67 238 67 C220 67 204 55 204 43 C204 21 258 -5 304 -5 C371 -5 431 51 431 120 C431 160 411 197 376 221 C410 245 431 284 431 325 C431 387 381 436 315 442 C262 446 233 477 233 526 L233 526 Z M368 318 C368 278 339 245 303 245 C265 245 233 281 233 322 C233 362 262 395 298 395 C336 395 368 360 368 318 L368 318 Z " />
<glyph glyph-name="dieresis" unicode="&#xa8;" horiz-adv-x="600" d="M194 600 L194 561 C194 547 210 539 224 539 C239 539 257 548 257 564 L257 604 C257 618 242 626 228 626 C213 626 194 616 194 600 L194 600 Z M344 600 L344 561 C344 547 360 539 374 539 C389 539 407 548 407 564 L407 604 C407 618 392 626 378 626 C363 626 344 616 344 600 L344 600 Z " />
<glyph glyph-name="copyright" unicode="&#xa9;" horiz-adv-x="600" d="M466 214 C466 120 392 43 302 43 C210 43 134 122 134 218 C134 312 208 390 298 390 C390 390 466 310 466 214 L466 214 Z M529 218 C529 339 427 438 302 438 C175 438 71 336 71 214 C71 93 173 -5 298 -5 C425 -5 529 96 529 218 L529 218 Z M297 351 C242 351 195 303 195 251 L195 177 C195 126 238 81 292 81 C333 81 387 108 387 132 C387 144 374 154 356 154 C346 154 339 150 331 143 C321 134 312 129 302 129 C279 129 258 152 258 181 L258 255 C258 282 277 303 300 303 C309 303 316 300 329 289 C336 283 343 278 353 278 C371 278 387 290 387 304 C387 326 337 351 297 351 L297 351 Z " />
<glyph glyph-name="ordfeminine" unicode="&#xaa;" horiz-adv-x="600" d="M372 294 C390 294 406 305 406 319 L406 466 C406 506 371 538 327 538 L266 538 C247 538 232 526 232 510 C232 491 247 491 266 491 L320 491 C333 491 342 482 342 470 L342 440 L278 440 C230 440 195 410 195 367 C195 326 229 295 274 295 L298 295 C316 295 332 308 332 323 C332 338 322 342 295 342 C268 342 258 349 258 367 C258 386 269 393 300 393 L342 393 L342 316 C342 303 356 294 372 294 L372 294 Z " />
<glyph glyph-name="guillemotleft" unicode="&#xab;" horiz-adv-x="600" d="M111 247 C111 242 114 236 118 232 C139 212 221 129 242 109 C247 104 256 101 264 101 C279 101 298 111 298 127 C298 132 295 137 291 141 L182 250 L290 358 C295 363 298 369 298 374 C298 388 282 396 268 396 C258 396 248 392 242 386 L119 263 C114 258 111 252 111 247 L111 247 Z M302 247 C302 242 305 236 309 232 C330 212 412 129 433 109 C438 104 447 101 455 101 C470 101 489 111 489 127 C489 132 486 137 482 141 L373 250 L481 358 C486 363 489 369 489 374 C489 388 473 396 459 396 C449 396 439 392 433 386 L310 263 C305 258 302 252 302 247 L302 247 Z " />
<glyph glyph-name="logicalnot" unicode="&#xac;" horiz-adv-x="600" d="M368 254 L368 197 C368 183 383 175 397 175 C412 175 431 184 431 200 L431 279 C431 293 415 302 401 302 L204 302 C189 302 170 292 170 276 C170 262 186 254 200 254 L368 254 Z " />
<glyph glyph-name="registered" unicode="&#xae;" horiz-adv-x="600" d="M529 421 C529 542 427 640 302 640 C175 640 71 539 71 417 C71 296 173 197 298 197 C425 197 529 299 529 421 L529 421 Z M263 494 L327 494 C342 494 347 475 347 463 C347 445 334 442 320 442 L307 442 C283 442 273 436 273 421 C273 414 276 406 282 399 L352 306 C358 298 368 296 377 296 C395 296 411 307 411 320 C411 322 411 324 410 327 C408 332 404 338 398 346 C396 349 394 351 392 354 L356 399 C389 411 411 439 411 470 C411 510 376 541 332 541 L233 541 C215 541 199 529 199 515 L199 318 C199 306 212 296 229 296 C244 296 263 305 263 322 L263 494 Z M466 417 C466 323 392 245 302 245 C210 245 135 325 135 421 C135 515 208 592 298 592 C390 592 466 513 466 417 L466 417 Z " />
<glyph glyph-name="macron" unicode="&#xaf;" horiz-adv-x="600" d="M224 562 L372 562 C387 562 406 572 406 588 C406 602 390 609 376 609 L228 609 C214 609 195 599 195 584 C195 569 211 562 224 562 L224 562 Z " />
<glyph glyph-name="degree" unicode="&#xb0;" horiz-adv-x="600" d="M219 523 C219 483 254 452 298 452 C344 452 381 486 381 527 C381 567 346 598 302 598 C256 598 219 564 219 523 L219 523 Z M302 500 C291 500 282 512 282 527 C282 540 289 550 299 550 C309 549 317 538 317 523 C316 510 311 500 302 500 L302 500 Z " />
<glyph glyph-name="plusminus" unicode="&#xb1;" horiz-adv-x="600" d="M200 224 L269 224 L269 147 C269 133 284 125 298 125 C313 125 332 135 332 151 L332 224 L397 224 C412 224 431 233 431 249 C431 263 415 271 401 271 L332 271 L332 348 C332 362 317 370 303 370 C288 370 269 360 269 344 L269 271 L204 271 C189 271 170 262 170 246 C170 232 186 224 200 224 L200 224 Z M200 -25 L397 -25 C412 -25 431 -16 431 0 C431 14 415 23 401 23 L204 23 C189 23 170 13 170 -3 C170 -17 186 -25 200 -25 L200 -25 Z " />
<glyph glyph-name="twosuperior" unicode="&#xb2;" horiz-adv-x="600" d="M298 597 C322 597 343 574 343 547 C343 531 335 515 309 479 L200 331 C197 326 195 322 195 318 C195 306 208 296 224 296 L372 296 C390 296 406 308 406 322 C406 334 392 344 376 344 L278 344 L386 491 C399 509 406 530 406 549 C406 602 360 645 302 645 C259 645 213 620 213 596 C213 583 226 572 243 572 C254 572 260 575 277 589 C279 591 286 597 298 597 L298 597 Z " />
<glyph glyph-name="threesuperior" unicode="&#xb3;" horiz-adv-x="600" d="M298 592 L287 581 C282 576 278 572 275 569 C257 551 255 548 255 542 C255 529 262 522 283 519 C326 512 353 477 353 425 C353 374 328 339 290 339 C277 339 264 344 253 352 C235 366 228 368 218 368 C200 368 185 356 185 344 C185 321 242 291 292 291 C363 291 416 349 416 435 C416 494 389 535 338 556 L370 589 C372 591 374 593 376 595 C384 603 389 610 391 615 C392 617 392 618 392 620 C392 631 378 640 362 640 L239 640 C221 640 205 628 205 614 C205 601 219 592 239 592 L298 592 Z " />
<glyph glyph-name="acute" unicode="&#xb4;" horiz-adv-x="600" d="M271 538 C271 524 285 517 297 517 C306 517 316 520 322 526 L397 601 C401 605 404 611 404 617 C404 631 390 638 378 638 C369 638 359 635 353 629 L278 554 C274 550 271 544 271 538 L271 538 Z " />
<glyph glyph-name="paragraph" unicode="&#xb6;" horiz-adv-x="600" d="M505 25 L505 617 C505 630 492 640 476 640 L254 640 C167 640 96 573 96 490 C96 410 164 345 249 345 L259 345 C291 345 308 354 308 371 C308 385 297 393 279 393 L251 393 C202 393 160 441 160 496 C160 549 199 592 249 592 L343 592 L343 22 C343 10 356 0 373 0 C391 0 406 12 406 26 L406 592 L442 592 L442 22 C442 9 454 -1 471 -1 C489 -1 505 11 505 25 L505 25 Z " />
<glyph glyph-name="periodcentered" unicode="&#xb7;" horiz-adv-x="600" d="M301 319 C273 319 244 299 244 269 C244 241 270 222 298 222 C327 222 356 243 356 270 C356 295 331 319 301 319 L301 319 Z " />
<glyph glyph-name="cedilla" unicode="&#xb8;" horiz-adv-x="600" d="M291 -148 C348 -148 395 -101 395 -48 C395 5 349 47 292 47 L267 47 C249 47 233 36 233 21 C233 7 245 0 271 0 L280 0 C309 0 331 -22 331 -51 C331 -79 313 -101 290 -101 C282 -101 277 -98 270 -92 C256 -81 249 -79 241 -79 C221 -79 206 -91 206 -104 C206 -126 252 -148 291 -148 L291 -148 Z " />
<glyph glyph-name="onesuperior" unicode="&#xb9;" horiz-adv-x="600" d="M306 592 L306 318 C306 304 321 296 335 296 C350 296 369 306 369 322 L369 618 C369 632 353 640 339 640 L265 640 C250 640 232 630 232 614 C232 600 247 592 261 592 L306 592 Z " />
<glyph glyph-name="ordmasculine" unicode="&#xba;" horiz-adv-x="600" d="M343 385 C343 359 325 337 303 337 C279 337 258 361 258 389 L258 546 C258 572 276 594 298 594 C322 594 343 570 343 542 L343 385 Z M405 546 C405 599 360 642 303 642 C244 642 195 596 195 542 L195 385 C195 332 241 289 298 289 C357 289 405 335 405 389 L405 546 Z " />
<glyph glyph-name="guillemotright" unicode="&#xbb;" horiz-adv-x="600" d="M224 250 L116 142 C111 137 108 131 108 126 C108 112 124 104 138 104 C148 104 157 108 163 114 L287 237 C292 242 295 248 295 253 C295 258 292 264 288 268 C267 288 185 371 164 391 C159 396 150 399 142 399 C127 399 108 389 108 373 C108 368 111 363 115 359 L224 250 Z M421 250 L313 142 C308 137 305 131 305 126 C305 112 321 104 335 104 C345 104 354 108 360 114 L484 237 C489 242 492 248 492 253 C492 258 489 264 485 268 C464 288 382 371 361 391 C356 396 347 399 339 399 C324 399 305 389 305 373 C305 368 308 363 312 359 L421 250 Z " />
<glyph glyph-name="onequarter" unicode="&#xbc;" horiz-adv-x="600" d="M306 -26 C306 -41 321 -49 335 -49 L454 -49 L454 -77 C454 -92 469 -99 483 -99 C498 -99 518 -89 518 -73 L518 26 C518 40 501 47 487 47 C472 47 454 38 454 22 L454 -2 L376 -2 L437 197 C441 208 443 215 443 221 C443 238 427 245 412 245 C397 245 385 238 382 227 L315 15 C311 2 306 -12 306 -26 L306 -26 Z M156 592 L156 318 C156 304 171 296 185 296 C200 296 219 306 219 322 L219 618 C219 632 203 640 189 640 L115 640 C100 640 82 630 82 614 C82 600 97 592 111 592 L156 592 Z M453 678 C453 684 436 692 423 692 C415 692 403 689 400 682 C374 611 143 -27 143 -35 C143 -38 159 -46 174 -46 C189 -46 198 -39 203 -30 L453 678 Z " />
<glyph glyph-name="onehalf" unicode="&#xbd;" horiz-adv-x="600" d="M428 678 C428 684 411 692 398 692 C390 692 378 689 375 682 C349 611 118 -27 118 -35 C118 -38 134 -46 149 -46 C164 -46 173 -39 178 -30 L428 678 Z M442 297 C466 297 487 274 487 247 C487 231 479 215 453 179 L344 31 C341 26 339 22 339 18 C339 6 352 -4 368 -4 L516 -4 C534 -4 550 8 550 22 C550 34 536 44 520 44 L422 44 L530 191 C543 209 550 230 550 249 C550 302 504 345 446 345 C403 345 357 320 357 296 C357 283 370 272 387 272 C398 272 404 275 421 289 C423 291 430 297 442 297 L442 297 Z M124 592 L124 318 C124 304 139 296 153 296 C168 296 187 306 187 322 L187 618 C187 632 171 640 157 640 L83 640 C68 640 50 630 50 614 C50 600 65 592 79 592 L124 592 Z " />
<glyph glyph-name="threequarters" unicode="&#xbe;" horiz-adv-x="600" d="M465 678 C465 684 448 692 435 692 C427 692 415 689 412 682 C386 611 155 -27 155 -35 C155 -38 171 -46 186 -46 C201 -46 210 -39 215 -30 L465 678 Z M319 74 C319 59 334 51 348 51 L467 51 L467 23 C467 8 482 1 496 1 C511 1 531 11 531 27 L531 126 C531 140 514 147 500 147 C485 147 467 138 467 122 L467 98 L389 98 L450 297 C454 308 456 315 456 321 C456 338 440 345 425 345 C410 345 398 338 395 327 L328 115 C324 102 319 88 319 74 L319 74 Z M35 344 C35 321 92 291 142 291 C213 291 266 349 266 435 C266 494 239 535 188 556 L220 589 C222 591 224 593 226 595 C234 603 239 610 241 615 C242 617 242 618 242 620 C242 631 228 640 212 640 L89 640 C71 640 55 628 55 614 C55 601 69 592 89 592 L148 592 L137 581 C108 552 105 549 105 542 C105 529 112 522 133 519 C176 512 203 477 203 425 C203 374 178 339 140 339 C127 339 114 344 103 352 C85 366 78 368 68 368 C50 368 35 356 35 344 L35 344 Z " />
<glyph glyph-name="questiondown" unicode="&#xbf;" horiz-adv-x="600" d="M300 -192 C265 -192 246 -178 236 -170 C216 -155 209 -152 199 -152 C185 -152 170 -160 170 -174 C170 -184 178 -191 185 -197 L187 -198 C219 -226 259 -240 301 -240 C393 -240 471 -170 471 -78 C471 -37 456 2 427 33 C377 86 338 129 333 205 C332 230 330 252 301 252 C284 252 268 245 268 230 C268 148 303 87 353 34 C389 -5 408 -38 408 -81 C408 -150 359 -192 300 -192 L300 -192 Z M269 344 C269 328 288 318 303 318 C317 318 332 326 332 340 L332 380 C332 396 314 405 299 405 C285 405 269 397 269 383 L269 344 Z " />
<glyph glyph-name="Agrave" unicode="&#xc0;" horiz-adv-x="600" d="M489 -5 C500 -5 526 2 526 18 C526 23 524 31 512 67 L507 82 C449 256 392 430 334 604 C333 609 331 613 329 617 C328 632 313 638 300 638 C292 638 286 636 281 632 C271 628 269 624 269 613 L65 7 C65 4 80 -4 95 -4 C106 -4 118 1 123 12 C127 19 132 35 137 51 L146 76 L445 76 L457 41 C458 37 460 33 461 29 C470 3 476 -5 489 -5 L489 -5 Z M262 691 C276 691 294 700 294 716 C294 718 294 719 293 721 C292 724 291 727 288 730 C285 733 282 736 280 738 L217 801 C210 808 207 810 198 812 C183 812 161 806 161 787 C161 785 161 784 162 782 C163 779 164 776 167 773 C170 770 173 767 175 765 L238 702 C246 694 251 691 262 691 L262 691 Z M162 124 L297 521 L429 124 L162 124 Z " />
<glyph glyph-name="Aacute" unicode="&#xc1;" horiz-adv-x="600" d="M491 -5 C502 -5 528 2 528 18 C528 23 526 31 514 67 L509 82 C451 256 394 430 336 604 C335 609 333 613 331 617 C330 632 315 638 302 638 C294 638 288 636 283 632 C273 628 271 624 271 613 L67 7 C67 4 82 -4 97 -4 C108 -4 120 1 125 12 C129 19 134 35 139 51 L148 76 L447 76 L459 41 C460 37 462 33 463 29 C472 3 478 -5 491 -5 L491 -5 Z M321 713 C321 696 338 692 352 692 C360 693 367 696 372 701 L447 776 C450 779 452 782 453 786 C454 788 454 790 454 792 C454 809 437 813 423 813 C415 812 408 809 403 804 L328 729 C324 725 321 719 321 713 L321 713 Z M164 124 L299 521 L431 124 L164 124 Z " />
<glyph glyph-name="Acircumflex" unicode="&#xc2;" horiz-adv-x="600" d="M67 7 C67 4 82 -4 97 -4 C111 -4 120 3 125 12 C129 19 134 35 139 51 L148 76 L447 76 L463 29 C472 3 478 -5 491 -5 C502 -5 528 2 528 18 C528 23 526 31 514 67 C484 157 366 515 336 604 C335 609 333 613 331 617 C330 628 322 634 312 637 C310 637 308 638 306 638 C305 638 305 638 304 638 C296 638 289 637 283 632 C273 628 271 624 271 613 L67 7 Z M164 124 L299 521 L431 124 L164 124 Z M298 752 L352 698 C357 693 365 691 372 691 C386 691 404 700 404 716 C404 721 402 726 398 730 L323 805 C318 810 310 812 303 812 C294 812 284 809 278 803 L203 728 C199 724 196 718 196 712 C196 698 210 691 222 691 C231 691 241 694 247 700 L298 752 Z " />
<glyph glyph-name="Atilde" unicode="&#xc3;" horiz-adv-x="600" d="M67 7 C67 4 82 -4 97 -4 C111 -4 120 3 125 12 C129 19 134 35 139 51 L148 76 L447 76 L463 29 C472 3 478 -5 491 -5 C502 -5 528 2 528 18 C528 23 526 31 514 67 C457 239 400 411 343 583 L336 604 C335 609 333 613 331 617 C330 628 322 634 312 637 C310 637 308 638 306 638 C305 638 305 638 304 638 C296 638 289 637 283 632 C273 628 271 624 271 613 L67 7 Z M164 124 L299 521 L431 124 L164 124 Z M354 756 C342 756 333 764 321 775 C308 787 292 802 261 805 C222 805 176 790 171 745 C171 716 180 709 208 709 C221 711 226 721 230 739 C233 752 236 758 246 758 C256 758 264 753 272 746 C298 724 315 711 341 709 C379 709 424 725 429 769 C429 791 424 805 399 805 C376 805 373 790 373 788 C369 761 365 756 354 756 L354 756 Z " />
<glyph glyph-name="Adieresis" unicode="&#xc4;" horiz-adv-x="600" d="M491 -5 C502 -5 528 2 528 18 C528 23 526 31 514 67 L509 82 C451 256 394 430 336 604 C335 609 333 613 331 617 C330 632 315 638 302 638 C294 638 288 636 283 632 C273 628 271 624 271 613 L67 7 C67 4 82 -4 97 -4 C108 -4 120 1 125 12 C129 19 134 35 139 51 L148 76 L447 76 L459 41 C460 37 462 33 463 29 C472 3 478 -5 491 -5 L491 -5 Z M194 775 L194 736 C194 722 210 714 224 714 C239 714 257 723 257 739 L257 779 C257 793 242 801 228 801 C213 801 194 791 194 775 L194 775 Z M344 775 L344 736 C344 722 360 714 374 714 C389 714 407 723 407 739 L407 779 C407 793 392 801 378 801 C363 801 344 791 344 775 L344 775 Z M164 124 L299 521 L431 124 L164 124 Z " />
<glyph glyph-name="Aring" unicode="&#xc5;" horiz-adv-x="600" d="M406 715 C406 770 357 811 302 811 C245 811 195 768 195 711 C195 666 227 630 269 619 C269 617 269 615 269 613 L65 7 C65 4 80 -4 95 -4 C109 -4 118 3 123 12 C127 19 132 35 137 51 L146 76 L445 76 L461 29 C470 3 476 -5 489 -5 C500 -5 526 2 526 18 C526 23 524 31 512 67 C482 157 364 515 334 604 C333 609 331 613 329 617 C329 618 329 619 329 619 C373 631 406 669 406 715 L406 715 Z M162 124 L297 521 L429 124 L162 124 Z M343 711 C343 686 326 662 302 662 C277 662 258 688 258 715 C258 739 275 763 299 763 C324 763 343 738 343 711 L343 711 Z " />
<glyph glyph-name="AE" unicode="&#xc6;" horiz-adv-x="600" d="M448 -23 L522 -23 C536 -23 554 -14 554 2 C554 19 535 24 516 24 L471 24 C419 24 372 33 359 91 L356 104 C356 106 355 107 355 109 L355 111 L315 377 L422 377 C436 377 454 386 454 402 C454 416 440 423 428 423 L308 423 L284 577 L522 577 C536 577 554 586 554 602 C554 616 540 623 528 623 L254 623 C241 623 223 615 222 600 C203 536 47 7 47 -11 C47 -16 61 -23 73 -23 C86 -23 100 -16 104 -3 C108 10 123 64 127 77 L303 77 C326 10 377 -23 448 -23 L448 -23 Z M141 123 C158 181 225 412 242 469 L294 123 L141 123 Z " />
<glyph glyph-name="Ccedilla" unicode="&#xc7;" horiz-adv-x="600" d="M330 -151 C387 -151 434 -104 434 -51 C434 -29 426 -9 413 7 C458 20 492 42 492 63 C492 76 479 87 463 87 C455 87 449 84 441 79 C419 63 380 46 343 43 C339 44 335 44 331 44 L316 44 C239 53 172 127 172 218 L172 430 C172 526 245 602 339 602 C372 602 399 592 430 571 C446 560 451 559 457 559 C477 559 492 571 492 585 C492 617 412 650 339 650 C211 650 108 548 108 426 L108 214 C108 109 184 20 288 0 C291 -2 296 -2 301 -3 C312 -4 323 -5 334 -5 C355 -11 370 -30 370 -54 C370 -82 352 -104 329 -104 C321 -104 316 -101 309 -95 C295 -84 288 -82 280 -82 C260 -82 245 -94 245 -107 C245 -129 291 -151 330 -151 L330 -151 Z " />
<glyph glyph-name="Egrave" unicode="&#xc8;" horiz-adv-x="600" d="M480 640 L134 640 C119 640 101 630 101 614 L101 71 C101 29 138 0 180 0 L476 0 C491 0 510 10 510 26 C510 41 494 47 480 47 L194 47 C174 47 164 55 164 75 L164 346 L303 346 C318 346 337 355 337 371 C337 386 321 393 307 393 L164 393 L164 592 L476 592 C491 592 510 602 510 618 C510 633 494 640 480 640 L480 640 Z M273 691 C287 691 305 700 305 716 C305 721 303 726 299 730 L224 805 C219 810 211 812 204 812 C190 812 172 803 172 787 C172 782 174 777 178 773 L253 698 C258 693 266 691 273 691 L273 691 Z " />
<glyph glyph-name="Eacute" unicode="&#xc9;" horiz-adv-x="600" d="M480 640 L134 640 C119 640 101 630 101 614 L101 71 C101 29 138 0 180 0 L476 0 C491 0 510 10 510 26 C510 41 494 47 480 47 L194 47 C174 47 164 55 164 75 L164 346 L303 346 C318 346 337 355 337 371 C337 386 321 393 307 393 L164 393 L164 592 L476 592 C491 592 510 602 510 618 C510 633 494 640 480 640 L480 640 Z M321 713 C321 699 335 692 347 692 C356 692 366 695 372 701 L447 776 C451 780 454 786 454 792 C454 806 440 813 428 813 C419 813 409 810 403 804 L328 729 C324 725 321 719 321 713 L321 713 Z " />
<glyph glyph-name="Ecircumflex" unicode="&#xca;" horiz-adv-x="600" d="M480 640 L134 640 C119 640 101 630 101 614 L101 71 C101 29 138 0 180 0 L476 0 C491 0 510 10 510 26 C510 41 494 47 480 47 L194 47 C174 47 164 55 164 75 L164 346 L303 346 C318 346 337 355 337 371 C337 386 321 393 307 393 L164 393 L164 592 L476 592 C491 592 510 602 510 618 C510 633 494 640 480 640 L480 640 Z M298 752 L352 698 C357 693 365 691 372 691 C386 691 404 700 404 716 C404 721 402 726 398 730 L323 805 C318 810 310 812 303 812 C294 812 284 809 278 803 L203 728 C199 724 196 718 196 712 C196 698 210 691 222 691 C231 691 241 694 247 700 L298 752 Z " />
<glyph glyph-name="Edieresis" unicode="&#xcb;" horiz-adv-x="600" d="M480 640 L134 640 C119 640 101 630 101 614 L101 71 C101 29 138 0 180 0 L476 0 C491 0 510 10 510 26 C510 41 494 47 480 47 L194 47 C174 47 164 55 164 75 L164 346 L303 346 C318 346 337 355 337 371 C337 386 321 393 307 393 L164 393 L164 592 L476 592 C491 592 510 602 510 618 C510 633 494 640 480 640 L480 640 Z M194 775 L194 736 C194 722 210 714 224 714 C239 714 257 723 257 739 L257 779 C257 793 242 801 228 801 C213 801 194 791 194 775 L194 775 Z M344 775 L344 736 C344 722 360 714 374 714 C389 714 407 723 407 739 L407 779 C407 793 392 801 378 801 C363 801 344 791 344 775 L344 775 Z " />
<glyph glyph-name="Igrave" unicode="&#xcc;" horiz-adv-x="600" d="M175 0 L420 0 C435 0 454 9 454 26 C454 41 438 50 424 50 L332 50 L332 590 L420 590 C435 590 454 599 454 616 C454 631 438 640 424 640 L179 640 C164 640 145 630 145 613 C145 598 161 590 175 590 L269 590 L269 50 L179 50 C164 50 145 40 145 23 C145 8 161 0 175 0 L175 0 Z M249 691 C263 691 281 700 281 716 C281 721 279 726 275 730 L200 805 C195 810 187 812 180 812 C166 812 148 803 148 787 C148 782 150 777 154 773 L229 698 C234 693 242 691 249 691 L249 691 Z " />
<glyph glyph-name="Iacute" unicode="&#xcd;" horiz-adv-x="600" d="M175 0 L420 0 C435 0 454 9 454 26 C454 41 438 50 424 50 L332 50 L332 590 L420 590 C435 590 454 599 454 616 C454 631 438 640 424 640 L179 640 C164 640 145 630 145 613 C145 598 161 590 175 590 L269 590 L269 50 L179 50 C164 50 145 40 145 23 C145 8 161 0 175 0 L175 0 Z M321 713 C321 699 335 692 347 692 C356 692 366 695 372 701 L447 776 C451 780 454 786 454 792 C454 806 440 813 428 813 C419 813 409 810 403 804 L328 729 C324 725 321 719 321 713 L321 713 Z " />
<glyph glyph-name="Icircumflex" unicode="&#xce;" horiz-adv-x="600" d="M175 0 L420 0 C435 0 454 9 454 26 C454 41 438 50 424 50 L332 50 L332 590 L420 590 C435 590 454 599 454 616 C454 631 438 640 424 640 L179 640 C164 640 145 630 145 613 C145 598 161 590 175 590 L269 590 L269 50 L179 50 C164 50 145 40 145 23 C145 8 161 0 175 0 L175 0 Z M298 752 L352 698 C357 693 365 691 372 691 C386 691 404 700 404 716 C404 721 402 726 398 730 L323 805 C318 810 310 812 303 812 C294 812 284 809 278 803 L203 728 C199 724 196 718 196 712 C196 698 210 691 222 691 C231 691 241 694 247 700 L298 752 Z " />
<glyph glyph-name="Idieresis" unicode="&#xcf;" horiz-adv-x="600" d="M175 0 L420 0 C435 0 454 9 454 26 C454 41 438 50 424 50 L332 50 L332 590 L420 590 C435 590 454 599 454 616 C454 631 438 640 424 640 L179 640 C164 640 145 630 145 613 C145 598 161 590 175 590 L269 590 L269 50 L179 50 C164 50 145 40 145 23 C145 8 161 0 175 0 L175 0 Z M344 775 L344 736 C344 722 360 714 374 714 C389 714 407 723 407 739 L407 779 C407 793 392 801 378 801 C363 801 344 791 344 775 L344 775 Z M194 775 L194 736 C194 722 210 714 224 714 C239 714 257 723 257 739 L257 779 C257 793 242 801 228 801 C213 801 194 791 194 775 L194 775 Z " />
<glyph glyph-name="Eth" unicode="&#xd0;" horiz-adv-x="600" d="M76 375 L96 375 L96 22 C96 10 109 0 125 0 L274 0 C429 0 554 122 554 272 L554 371 C554 519 430 640 277 640 L129 640 C111 640 96 628 96 614 L96 423 L80 423 C65 423 46 413 46 397 C46 383 62 375 76 375 L76 375 Z M159 47 L159 375 L273 375 C288 375 307 384 307 400 C307 414 291 423 277 423 L159 423 L159 592 L274 592 C393 592 491 491 491 367 L491 269 C491 147 395 47 277 47 L159 47 Z " />
<glyph glyph-name="Ntilde" unicode="&#xd1;" horiz-adv-x="600" d="M105 640 C90 640 71 630 71 614 L71 22 C71 8 86 0 100 0 C115 0 134 9 134 25 L134 551 L466 260 L466 22 C466 8 481 0 495 0 C510 0 529 9 529 25 L529 618 C529 632 514 640 500 640 C485 640 466 630 466 614 L466 336 L126 633 C121 638 113 640 105 640 L105 640 Z M354 756 C342 756 333 764 321 775 C308 787 292 802 261 805 C222 805 176 790 171 745 C171 716 180 709 208 709 C221 711 226 721 230 739 C233 752 236 758 246 758 C256 758 264 753 272 746 C298 724 315 711 341 709 C379 709 424 725 429 769 C429 791 424 805 399 805 C376 805 373 790 373 788 C369 761 365 756 354 756 L354 756 Z " />
<glyph glyph-name="Ograve" unicode="&#xd2;" horiz-adv-x="600" d="M529 218 L529 430 C529 551 427 650 302 650 C175 650 71 549 71 427 L71 214 C71 93 173 -5 298 -5 C425 -5 529 96 529 218 L529 218 Z M302 43 C212 43 134 124 134 218 L134 430 C134 524 208 602 298 602 C390 602 466 523 466 427 L466 214 C466 120 392 43 302 43 L302 43 Z M262 691 C276 691 294 700 294 716 C294 721 292 726 288 730 L213 805 C208 810 200 812 193 812 C179 812 161 803 161 787 C161 782 163 777 167 773 L242 698 C247 693 255 691 262 691 L262 691 Z " />
<glyph glyph-name="Oacute" unicode="&#xd3;" horiz-adv-x="600" d="M529 218 L529 430 C529 551 427 650 302 650 C175 650 71 549 71 427 L71 214 C71 93 173 -5 298 -5 C425 -5 529 96 529 218 L529 218 Z M302 43 C212 43 134 124 134 218 L134 430 C134 524 208 602 298 602 C390 602 466 523 466 427 L466 214 C466 120 392 43 302 43 L302 43 Z M321 713 C321 699 335 692 347 692 C356 692 366 695 372 701 L447 776 C451 780 454 786 454 792 C454 806 440 813 428 813 C419 813 409 810 403 804 L328 729 C324 725 321 719 321 713 L321 713 Z " />
<glyph glyph-name="Ocircumflex" unicode="&#xd4;" horiz-adv-x="600" d="M529 218 L529 430 C529 551 427 650 302 650 C175 650 71 549 71 427 L71 214 C71 93 173 -5 298 -5 C425 -5 529 96 529 218 L529 218 Z M298 752 L352 698 C357 693 365 691 372 691 C386 691 404 700 404 716 C404 721 402 726 398 730 L323 805 C318 810 310 812 303 812 C294 812 284 809 278 803 L203 728 C199 724 196 718 196 712 C196 698 210 691 222 691 C231 691 241 694 247 700 L298 752 Z M302 43 C212 43 134 124 134 218 L134 430 C134 524 208 602 298 602 C390 602 466 523 466 427 L466 214 C466 120 392 43 302 43 L302 43 Z " />
<glyph glyph-name="Otilde" unicode="&#xd5;" horiz-adv-x="600" d="M529 218 L529 430 C529 551 427 650 302 650 C175 650 71 549 71 427 L71 214 C71 93 173 -5 298 -5 C425 -5 529 96 529 218 L529 218 Z M354 756 C342 756 333 764 321 775 C308 787 292 802 261 805 C222 805 176 790 171 745 C171 716 180 709 208 709 C221 711 226 721 230 739 C233 752 236 758 246 758 C256 758 264 753 272 746 C298 724 315 711 341 709 C379 709 424 725 429 769 C429 791 424 805 399 805 C376 805 373 790 373 788 C369 761 365 756 354 756 L354 756 Z M302 43 C212 43 134 124 134 218 L134 430 C134 524 208 602 298 602 C390 602 466 523 466 427 L466 214 C466 120 392 43 302 43 L302 43 Z " />
<glyph glyph-name="Odieresis" unicode="&#xd6;" horiz-adv-x="600" d="M529 218 L529 430 C529 551 427 650 302 650 C175 650 71 549 71 427 L71 214 C71 93 173 -5 298 -5 C425 -5 529 96 529 218 L529 218 Z M302 43 C212 43 134 124 134 218 L134 430 C134 524 208 602 298 602 C390 602 466 523 466 427 L466 214 C466 120 392 43 302 43 L302 43 Z M194 775 L194 736 C194 722 210 714 224 714 C239 714 257 723 257 739 L257 779 C257 793 242 801 228 801 C213 801 194 791 194 775 L194 775 Z M344 775 L344 736 C344 722 360 714 374 714 C389 714 407 723 407 739 L407 779 C407 793 392 801 378 801 C363 801 344 791 344 775 L344 775 Z " />
<glyph glyph-name="multiply" unicode="&#xd7;" horiz-adv-x="600" d="M431 371 C431 385 415 393 401 393 C391 393 382 390 376 384 L302 310 L226 386 C221 391 212 393 204 393 C189 393 170 383 170 367 C170 362 173 357 177 353 L261 269 L178 186 C173 181 170 175 170 170 C170 156 186 148 200 148 C210 148 219 152 225 158 C237 170 287 219 299 231 L375 155 C380 150 389 148 397 148 C412 148 431 158 431 174 C431 179 428 184 424 188 L340 272 L423 355 C428 360 431 366 431 371 L431 371 Z " />
<glyph glyph-name="Oslash" unicode="&#xd8;" horiz-adv-x="600" d="M529 218 L529 430 C529 505 490 572 430 612 L453 678 C453 684 436 692 423 692 C415 692 403 689 400 682 C397 674 391 657 383 635 C358 645 331 650 302 650 C175 650 71 549 71 427 L71 214 C71 140 109 75 167 35 C152 -7 143 -33 143 -35 C143 -38 159 -46 174 -46 C189 -46 198 -39 203 -30 L217 9 C242 0 269 -5 298 -5 C425 -5 529 96 529 218 L529 218 Z M134 218 L134 430 C134 524 208 602 298 602 C322 602 345 597 366 587 C319 458 238 234 187 92 C155 124 134 169 134 218 L134 218 Z M302 43 C278 43 255 49 234 59 L410 557 C444 525 466 478 466 427 L466 214 C466 120 392 43 302 43 L302 43 Z " />
<glyph glyph-name="Ugrave" unicode="&#xd9;" horiz-adv-x="600" d="M71 614 L71 214 C71 92 172 -5 298 -5 C425 -5 529 95 529 218 L529 618 C529 630 517 640 500 640 C482 640 466 628 466 614 L466 218 C466 121 392 43 301 43 C208 43 134 125 134 229 L134 618 C134 630 122 640 105 640 C87 640 71 628 71 614 L71 614 Z M262 691 C276 691 294 700 294 716 C294 721 292 726 288 730 L213 805 C208 810 200 812 193 812 C179 812 161 803 161 787 C161 782 163 777 167 773 L242 698 C247 693 255 691 262 691 L262 691 Z " />
<glyph glyph-name="Uacute" unicode="&#xda;" horiz-adv-x="600" d="M71 614 L71 214 C71 92 172 -5 298 -5 C425 -5 529 95 529 218 L529 618 C529 630 517 640 500 640 C482 640 466 628 466 614 L466 218 C466 121 392 43 301 43 C208 43 134 125 134 229 L134 618 C134 630 122 640 105 640 C87 640 71 628 71 614 L71 614 Z M308 713 C308 699 322 692 334 692 C343 692 353 695 359 701 L434 776 C438 780 441 786 441 792 C441 806 427 813 415 813 C406 813 396 810 390 804 L315 729 C311 725 308 719 308 713 L308 713 Z " />
<glyph glyph-name="Ucircumflex" unicode="&#xdb;" horiz-adv-x="600" d="M71 614 L71 214 C71 92 172 -5 298 -5 C425 -5 529 95 529 218 L529 618 C529 630 517 640 500 640 C482 640 466 628 466 614 L466 218 C466 121 392 43 301 43 C208 43 134 125 134 229 L134 618 C134 630 122 640 105 640 C87 640 71 628 71 614 L71 614 Z M298 752 L352 698 C357 693 365 691 372 691 C386 691 404 700 404 716 C404 721 402 726 398 730 L323 805 C318 810 310 812 303 812 C294 812 284 809 278 803 L203 728 C199 724 196 718 196 712 C196 698 210 691 222 691 C231 691 241 694 247 700 L298 752 Z " />
<glyph glyph-name="Udieresis" unicode="&#xdc;" horiz-adv-x="600" d="M71 614 L71 214 C71 92 172 -5 298 -5 C425 -5 529 95 529 218 L529 618 C529 630 517 640 500 640 C482 640 466 628 466 614 L466 218 C466 121 392 43 301 43 C208 43 134 125 134 229 L134 618 C134 630 122 640 105 640 C87 640 71 628 71 614 L71 614 Z M194 775 L194 736 C194 722 210 714 224 714 C239 714 257 723 257 739 L257 779 C257 793 242 801 228 801 C213 801 194 791 194 775 L194 775 Z M344 775 L344 736 C344 722 360 714 374 714 C389 714 407 723 407 739 L407 779 C407 793 392 801 378 801 C363 801 344 791 344 775 L344 775 Z " />
<glyph glyph-name="Yacute" unicode="&#xdd;" horiz-adv-x="600" d="M301 395 L129 635 C124 642 114 645 105 645 C89 645 71 635 71 619 C71 615 72 611 75 607 L268 337 L268 22 C268 8 283 0 297 0 C312 0 331 9 331 25 L331 340 L523 609 C526 613 528 619 528 623 C528 637 513 645 499 645 C488 645 477 640 471 632 L301 395 Z M321 713 C321 699 335 692 347 692 C356 692 366 695 372 701 L447 776 C451 780 454 786 454 792 C454 806 440 813 428 813 C419 813 409 810 403 804 L328 729 C324 725 321 719 321 713 L321 713 Z " />
<glyph glyph-name="Thorn" unicode="&#xde;" horiz-adv-x="600" d="M71 614 L71 22 C71 10 84 0 101 0 C119 0 134 11 134 25 L134 99 L303 99 C427 99 529 200 529 320 C529 441 426 541 302 541 L134 541 L134 618 C134 630 121 640 105 640 C87 640 71 628 71 614 L71 614 Z M134 493 L298 493 C390 493 466 412 466 316 C466 219 389 146 287 146 L134 146 L134 493 Z " />
<glyph glyph-name="germandbls" unicode="&#xdf;" horiz-adv-x="600" d="M261 589 L382 589 L269 438 C260 426 256 417 256 410 C256 397 269 393 301 393 L340 393 C450 393 501 349 501 258 L501 210 C501 106 446 47 348 47 L241 47 C223 47 207 36 207 22 C207 10 220 0 237 0 L359 0 C476 0 565 85 565 198 L565 266 C565 370 483 440 363 440 L340 440 L460 605 C463 610 466 615 466 619 C466 630 454 636 437 636 L265 636 C179 636 109 569 109 488 L109 440 L69 440 C51 440 35 428 35 414 C35 402 48 393 65 393 L109 393 L109 22 C109 10 121 0 138 0 C156 0 172 12 172 26 L172 479 C172 544 208 589 261 589 L261 589 Z " />
<glyph glyph-name="agrave" unicode="&#xe0;" horiz-adv-x="600" d="M224 243 C151 243 92 188 92 120 C92 54 150 0 220 0 L318 0 C336 0 352 11 352 25 C352 38 339 47 322 47 L242 47 C187 47 155 76 155 125 C155 173 185 196 244 196 L387 196 L387 22 C387 10 399 0 416 0 C434 0 450 12 450 26 L450 295 C450 376 382 440 298 440 L199 440 C181 440 166 429 166 415 C166 402 178 393 195 393 L270 393 C341 393 387 354 387 293 L387 243 L224 243 Z M274 516 C288 516 306 525 306 541 C306 546 304 551 300 555 L225 630 C220 635 212 637 205 637 C191 637 173 628 173 612 C173 607 175 602 179 598 L254 523 C259 518 267 516 274 516 L274 516 Z " />
<glyph glyph-name="aacute" unicode="&#xe1;" horiz-adv-x="600" d="M224 243 C151 243 92 188 92 120 C92 54 150 0 220 0 L318 0 C336 0 352 11 352 25 C352 38 339 47 322 47 L242 47 C187 47 155 76 155 125 C155 173 185 196 244 196 L387 196 L387 22 C387 10 399 0 416 0 C434 0 450 12 450 26 L450 295 C450 376 382 440 298 440 L199 440 C181 440 166 429 166 415 C166 402 178 393 195 393 L270 393 C341 393 387 354 387 293 L387 243 L224 243 Z M261 538 C261 524 275 517 287 517 C296 517 306 520 312 526 L387 601 C391 605 394 611 394 617 C394 631 380 638 368 638 C359 638 349 635 343 629 L268 554 C264 550 261 544 261 538 L261 538 Z " />
<glyph glyph-name="acircumflex" unicode="&#xe2;" horiz-adv-x="600" d="M224 243 C151 243 92 188 92 120 C92 54 150 0 220 0 L318 0 C336 0 352 11 352 25 C352 38 339 47 322 47 L242 47 C187 47 155 76 155 125 C155 173 185 196 244 196 L387 196 L387 22 C387 10 399 0 416 0 C434 0 450 12 450 26 L450 295 C450 376 382 440 298 440 L199 440 C181 440 166 429 166 415 C166 402 178 393 195 393 L270 393 C341 393 387 354 387 293 L387 243 L224 243 Z M298 577 L352 523 C357 518 365 516 372 516 C386 516 404 525 404 541 C404 546 402 551 398 555 L323 630 C318 635 310 637 303 637 C294 637 284 634 278 628 L203 553 C199 549 196 543 196 537 C196 523 210 516 222 516 C231 516 241 519 247 525 L298 577 Z " />
<glyph glyph-name="atilde" unicode="&#xe3;" horiz-adv-x="600" d="M224 243 C151 243 92 188 92 120 C92 54 150 0 220 0 L318 0 C336 0 352 11 352 25 C352 38 339 47 322 47 L242 47 C187 47 155 76 155 125 C155 173 185 196 244 196 L387 196 L387 22 C387 10 399 0 416 0 C434 0 450 12 450 26 L450 295 C450 376 382 440 298 440 L199 440 C181 440 166 429 166 415 C166 402 178 393 195 393 L270 393 C341 393 387 354 387 293 L387 243 L224 243 Z M354 581 C342 581 333 589 321 600 C308 612 292 627 261 630 C222 630 176 615 171 570 C171 541 180 534 208 534 C221 536 226 546 230 564 C231 567 231 569 232 571 C234 579 238 583 246 583 C256 583 264 578 272 571 C298 549 315 536 341 534 C379 534 424 550 429 594 C429 616 424 630 399 630 C376 630 373 615 373 613 C369 586 365 581 354 581 L354 581 Z " />
<glyph glyph-name="adieresis" unicode="&#xe4;" horiz-adv-x="600" d="M224 243 C151 243 92 188 92 120 C92 54 150 0 220 0 L318 0 C336 0 352 11 352 25 C352 38 339 47 322 47 L242 47 C187 47 155 76 155 125 C155 173 185 196 244 196 L387 196 L387 22 C387 10 399 0 416 0 C434 0 450 12 450 26 L450 295 C450 376 382 440 298 440 L199 440 C181 440 166 429 166 415 C166 402 178 393 195 393 L270 393 C341 393 387 354 387 293 L387 243 L224 243 Z M194 600 L194 561 C194 547 210 539 224 539 C239 539 257 548 257 564 L257 604 C257 618 242 626 228 626 C213 626 194 616 194 600 L194 600 Z M344 600 L344 561 C344 547 360 539 374 539 C389 539 407 548 407 564 L407 604 C407 618 392 626 378 626 C363 626 344 616 344 600 L344 600 Z " />
<glyph glyph-name="aring" unicode="&#xe5;" horiz-adv-x="600" d="M406 540 C406 595 357 636 302 636 C245 636 195 593 195 536 C195 481 243 440 298 440 L199 440 C181 440 166 429 166 415 C166 402 178 393 195 393 L270 393 C341 393 387 354 387 293 L387 243 L224 243 C151 243 92 188 92 120 C92 54 150 0 220 0 L318 0 C336 0 352 11 352 25 C352 38 339 47 322 47 L242 47 C187 47 155 76 155 125 C155 173 185 196 244 196 L387 196 L387 22 C387 10 399 0 416 0 C434 0 450 12 450 26 L450 295 C450 376 382 440 298 440 C356 440 406 484 406 540 L406 540 Z M343 536 C343 511 326 487 302 487 C277 487 258 513 258 540 C258 564 275 588 299 588 C324 588 343 563 343 536 L343 536 Z " />
<glyph glyph-name="ae" unicode="&#xe6;" horiz-adv-x="600" d="M106 130 C106 199 157 200 215 200 L271 200 L271 134 C271 52 329 0 409 0 L471 0 C486 0 504 10 504 29 C504 43 495 49 481 49 L427 49 C368 49 331 78 331 138 L331 200 L522 200 C537 200 555 210 555 226 L555 323 C555 404 500 448 424 448 C374 448 330 429 302 397 C274 430 229 448 179 448 L128 448 C113 448 95 438 95 421 C95 403 114 399 133 399 L163 399 C224 399 271 375 271 309 L271 248 L179 248 C106 248 46 198 46 122 C46 48 101 0 173 0 L223 0 C238 0 256 10 256 27 C256 45 236 49 218 49 L193 49 C142 49 106 72 106 130 L106 130 Z M331 249 L331 313 C331 365 364 400 417 400 C467 400 495 370 495 319 L495 249 L331 249 Z " />
<glyph glyph-name="ccedilla" unicode="&#xe7;" horiz-adv-x="600" d="M334 -152 C391 -152 438 -105 438 -52 C438 -26 427 -3 409 14 C430 24 444 36 444 47 C444 58 432 67 417 67 C415 67 412 67 410 66 C405 65 399 63 392 60 C390 59 388 58 386 57 C374 52 357 45 339 43 L313 43 C261 51 216 106 216 168 L216 281 C216 347 266 403 323 403 C339 403 355 398 370 391 C373 389 376 388 379 386 C390 381 398 378 405 377 C408 376 410 376 412 376 C430 376 446 388 446 399 C446 421 381 450 326 450 C234 450 153 372 153 277 L153 164 C153 64 235 -5 332 -5 C357 -9 374 -30 374 -55 C374 -83 356 -105 333 -105 C328 -105 324 -104 320 -101 C317 -100 315 -98 313 -96 C299 -85 292 -83 284 -83 C264 -83 249 -95 249 -108 C249 -130 295 -152 334 -152 L334 -152 Z " />
<glyph glyph-name="egrave" unicode="&#xe8;" horiz-adv-x="600" d="M297 47 C231 47 188 97 188 173 L188 196 L449 196 C467 196 482 208 482 221 L482 280 C482 376 403 450 300 450 C194 450 125 372 125 254 L125 170 C125 70 199 0 303 0 L360 0 C394 0 410 7 410 22 C410 39 391 47 352 47 L297 47 Z M188 243 L188 275 C188 348 238 403 304 403 C371 403 419 345 419 265 L419 243 L188 243 Z M273 516 C287 516 305 525 305 541 C305 546 303 551 299 555 L224 630 C219 635 211 637 204 637 C190 637 172 628 172 612 C172 607 174 602 178 598 L253 523 C258 518 266 516 273 516 L273 516 Z " />
<glyph glyph-name="eacute" unicode="&#xe9;" horiz-adv-x="600" d="M297 47 C231 47 188 97 188 173 L188 196 L449 196 C467 196 482 208 482 221 L482 280 C482 376 403 450 300 450 C194 450 125 372 125 254 L125 170 C125 70 199 0 303 0 L360 0 C394 0 410 7 410 22 C410 39 391 47 352 47 L297 47 Z M188 243 L188 275 C188 348 238 403 304 403 C371 403 419 345 419 265 L419 243 L188 243 Z M308 538 C308 524 322 517 334 517 C343 517 353 520 359 526 L434 601 C438 605 441 611 441 617 C441 631 427 638 415 638 C406 638 396 635 390 629 L315 554 C311 550 308 544 308 538 L308 538 Z " />
<glyph glyph-name="ecircumflex" unicode="&#xea;" horiz-adv-x="600" d="M296 47 C230 47 187 97 187 173 L187 196 L448 196 C466 196 481 208 481 221 L481 280 C481 376 402 450 299 450 C193 450 124 372 124 254 L124 170 C124 70 198 0 302 0 L359 0 C393 0 409 7 409 22 C409 39 390 47 351 47 L296 47 Z M298 577 L352 523 C357 518 365 516 372 516 C386 516 404 525 404 541 C404 546 402 551 398 555 L323 630 C318 635 310 637 303 637 C294 637 284 634 278 628 L203 553 C199 549 196 543 196 537 C196 523 210 516 222 516 C231 516 241 519 247 525 L298 577 Z M187 243 L187 275 C187 348 237 403 303 403 C370 403 418 345 418 265 L418 243 L187 243 Z " />
<glyph glyph-name="edieresis" unicode="&#xeb;" horiz-adv-x="600" d="M297 47 C231 47 188 97 188 173 L188 196 L449 196 C467 196 482 208 482 221 L482 280 C482 376 403 450 300 450 C194 450 125 372 125 254 L125 170 C125 70 199 0 303 0 L360 0 C394 0 410 7 410 22 C410 39 391 47 352 47 L297 47 Z M188 243 L188 275 C188 348 238 403 304 403 C371 403 419 345 419 265 L419 243 L188 243 Z M194 600 L194 561 C194 547 210 539 224 539 C239 539 257 548 257 564 L257 604 C257 618 242 626 228 626 C213 626 194 616 194 600 L194 600 Z M344 600 L344 561 C344 547 360 539 374 539 C389 539 407 548 407 564 L407 604 C407 618 392 626 378 626 C363 626 344 616 344 600 L344 600 Z " />
<glyph glyph-name="igrave" unicode="&#xec;" horiz-adv-x="600" d="M143 0 L454 0 C469 0 488 9 488 25 C488 39 472 48 458 48 L363 48 L363 418 C362 433 347 441 333 441 L186 441 C171 441 152 431 152 415 C152 401 168 393 182 393 L300 393 L300 48 L147 48 C132 48 113 38 113 22 C113 8 129 0 143 0 L143 0 Z M316 516 C330 516 348 525 348 541 C348 546 346 551 342 555 L267 630 C262 635 254 637 247 637 C233 637 215 628 215 612 C215 607 217 602 221 598 L296 523 C301 518 309 516 316 516 L316 516 Z " />
<glyph glyph-name="iacute" unicode="&#xed;" horiz-adv-x="600" d="M143 0 L454 0 C469 0 488 9 488 25 C488 39 472 48 458 48 L363 48 L363 418 C362 433 347 441 333 441 L186 441 C171 441 152 431 152 415 C152 401 168 393 182 393 L300 393 L300 48 L147 48 C132 48 113 38 113 22 C113 8 129 0 143 0 L143 0 Z M309 538 C309 524 323 517 335 517 C344 517 354 520 360 526 L435 601 C439 605 442 611 442 617 C442 631 428 638 416 638 C407 638 397 635 391 629 L316 554 C312 550 309 544 309 538 L309 538 Z " />
<glyph glyph-name="icircumflex" unicode="&#xee;" horiz-adv-x="600" d="M143 0 L454 0 C469 0 488 9 488 25 C488 39 472 48 458 48 L363 48 L363 418 C362 433 347 441 333 441 L186 441 C171 441 152 431 152 415 C152 401 168 393 182 393 L300 393 L300 48 L147 48 C132 48 113 38 113 22 C113 8 129 0 143 0 L143 0 Z M330 577 L384 523 C389 518 397 516 404 516 C418 516 436 525 436 541 C436 546 434 551 430 555 L355 630 C350 635 342 637 335 637 C326 637 316 634 310 628 L235 553 C231 549 228 543 228 537 C228 523 242 516 254 516 C263 516 273 519 279 525 L330 577 Z " />
<glyph glyph-name="idieresis" unicode="&#xef;" horiz-adv-x="600" d="M143 0 L454 0 C469 0 488 9 488 25 C488 39 472 48 458 48 L363 48 L363 418 C362 433 347 441 333 441 L186 441 C171 441 152 431 152 415 C152 401 168 393 182 393 L300 393 L300 48 L147 48 C132 48 113 38 113 22 C113 8 129 0 143 0 L143 0 Z M224 600 L224 561 C224 547 240 539 254 539 C269 539 287 548 287 564 L287 604 C287 618 272 626 258 626 C243 626 224 616 224 600 L224 600 Z M374 600 L374 561 C374 547 390 539 404 539 C419 539 437 548 437 564 L437 604 C437 618 422 626 408 626 C393 626 374 616 374 600 L374 600 Z " />
<glyph glyph-name="eth" unicode="&#xf0;" horiz-adv-x="600" d="M416 341 L416 164 C416 97 365 43 303 43 C239 43 185 100 185 168 L185 271 C185 348 236 392 323 392 C341 392 357 405 357 419 C357 433 345 440 310 440 C204 440 122 368 122 267 L122 164 C122 70 200 -5 298 -5 C397 -5 479 73 479 168 L479 344 C479 423 459 482 408 543 L456 564 C472 571 479 580 479 590 C479 602 468 612 454 612 C447 612 441 610 435 608 C431 606 426 605 422 603 C405 596 387 589 370 582 C334 613 290 638 270 638 C254 638 236 626 236 614 C236 606 245 597 259 592 C271 587 298 570 312 558 L275 542 C254 533 245 524 245 513 C245 501 257 491 271 491 C276 491 282 492 291 496 L351 519 C396 470 416 415 416 341 L416 341 Z " />
<glyph glyph-name="ntilde" unicode="&#xf1;" horiz-adv-x="600" d="M183 393 L297 393 C368 393 415 334 415 247 L415 22 C415 9 426 0 443 0 C461 0 478 12 478 26 L478 271 C478 365 399 440 301 440 L154 440 C136 440 120 428 120 414 L120 22 C120 10 133 0 150 0 C168 0 183 12 183 26 L183 393 Z M354 581 C342 581 333 589 321 600 C308 612 292 627 261 630 C222 630 176 615 171 570 C171 541 180 534 208 534 C221 536 226 546 230 564 C231 567 231 569 232 571 C234 579 238 583 246 583 C256 583 264 578 272 571 C298 549 315 536 341 534 C379 534 424 550 429 594 C429 616 424 630 399 630 C376 630 373 615 373 613 C369 586 365 581 354 581 L354 581 Z " />
<glyph glyph-name="ograve" unicode="&#xf2;" horiz-adv-x="600" d="M185 281 C185 348 236 402 299 402 C364 402 416 345 416 277 L416 164 C416 97 366 43 303 43 C239 43 185 101 185 168 L185 281 Z M122 164 C122 70 200 -5 298 -5 C398 -5 479 73 479 168 L479 281 C479 375 401 450 303 450 C203 450 122 372 122 277 L122 164 Z M274 516 C288 516 306 525 306 541 C306 546 304 551 300 555 L225 630 C220 635 212 637 205 637 C191 637 173 628 173 612 C173 607 175 602 179 598 L254 523 C259 518 267 516 274 516 L274 516 Z " />
<glyph glyph-name="oacute" unicode="&#xf3;" horiz-adv-x="600" d="M184 281 C184 348 235 402 298 402 C363 402 415 345 415 277 L415 164 C415 97 365 43 302 43 C238 43 184 101 184 168 L184 281 Z M121 164 C121 70 199 -5 297 -5 C397 -5 478 73 478 168 L478 281 C478 375 400 450 302 450 C202 450 121 372 121 277 L121 164 Z M308 538 C308 524 322 517 334 517 C343 517 353 520 359 526 L434 601 C438 605 441 611 441 617 C441 631 427 638 415 638 C406 638 396 635 390 629 L315 554 C311 550 308 544 308 538 L308 538 Z " />
<glyph glyph-name="ocircumflex" unicode="&#xf4;" horiz-adv-x="600" d="M121 164 C121 70 199 -5 297 -5 C397 -5 478 73 478 168 L478 281 C478 375 400 450 302 450 C202 450 121 372 121 277 L121 164 Z M298 577 L352 523 C357 518 365 516 372 516 C386 516 404 525 404 541 C404 546 402 551 398 555 L323 630 C318 635 310 637 303 637 C294 637 284 634 278 628 L203 553 C199 549 196 543 196 537 C196 523 210 516 222 516 C231 516 241 519 247 525 L298 577 Z M184 281 C184 348 235 402 298 402 C363 402 415 345 415 277 L415 164 C415 97 365 43 302 43 C238 43 184 101 184 168 L184 281 Z " />
<glyph glyph-name="otilde" unicode="&#xf5;" horiz-adv-x="600" d="M119 164 C119 70 197 -5 295 -5 C395 -5 476 73 476 168 L476 281 C476 375 398 450 300 450 C200 450 119 372 119 277 L119 164 Z M352 581 C340 581 331 589 319 600 C306 612 290 627 259 630 C220 630 174 615 169 570 C169 541 178 534 206 534 C219 536 224 546 228 564 C229 567 229 569 230 571 C232 579 236 583 244 583 C254 583 262 578 270 571 C296 549 313 536 339 534 C377 534 422 550 427 594 C427 616 422 630 397 630 C374 630 371 615 371 613 C367 586 363 581 352 581 L352 581 Z M182 281 C182 348 233 402 296 402 C361 402 413 345 413 277 L413 164 C413 97 363 43 300 43 C236 43 182 101 182 168 L182 281 Z " />
<glyph glyph-name="odieresis" unicode="&#xf6;" horiz-adv-x="600" d="M185 281 C185 348 236 402 299 402 C364 402 416 345 416 277 L416 164 C416 97 366 43 303 43 C239 43 185 101 185 168 L185 281 Z M122 164 C122 70 200 -5 298 -5 C398 -5 479 73 479 168 L479 281 C479 375 401 450 303 450 C203 450 122 372 122 277 L122 164 Z M194 600 L194 561 C194 547 210 539 224 539 C239 539 257 548 257 564 L257 604 C257 618 242 626 228 626 C213 626 194 616 194 600 L194 600 Z M344 600 L344 561 C344 547 360 539 374 539 C389 539 407 548 407 564 L407 604 C407 618 392 626 378 626 C363 626 344 616 344 600 L344 600 Z " />
<glyph glyph-name="divide" unicode="&#xf7;" horiz-adv-x="600" d="M331 102 L331 177 C331 192 316 200 303 200 C288 200 269 190 269 173 L269 98 C269 83 284 75 297 75 C312 75 331 85 331 102 L331 102 Z M269 398 L269 323 C269 308 284 300 297 300 C312 300 331 310 331 327 L331 402 C331 417 316 425 303 425 C288 425 269 415 269 398 L269 398 Z M200 225 L397 225 C412 225 431 234 431 250 C431 264 415 273 401 273 L204 273 C189 273 170 263 170 247 C170 233 186 225 200 225 L200 225 Z " />
<glyph glyph-name="oslash" unicode="&#xf8;" horiz-adv-x="600" d="M121 164 C121 109 148 60 190 29 C185 15 179 2 174 -12 C172 -16 170 -25 170 -30 C170 -42 186 -49 201 -49 C205 -49 208 -49 211 -48 C221 -46 228 -40 232 -31 L245 2 C262 -2 279 -5 297 -5 C397 -5 478 73 478 168 L478 281 C478 336 451 385 409 416 L429 467 C429 482 413 489 398 489 C395 489 391 489 388 488 C379 486 372 480 368 471 C365 465 363 458 360 452 L356 442 C339 447 321 450 302 450 C202 450 121 372 121 277 L121 164 Z M184 281 C184 348 235 402 298 402 C312 402 325 399 337 395 C296 292 255 189 214 87 C194 109 184 138 184 168 L184 281 Z M264 50 L386 359 C400 342 409 322 413 300 C414 292 415 285 415 277 L415 164 C415 97 365 43 302 43 C289 43 276 45 264 50 L264 50 Z " />
<glyph glyph-name="ugrave" unicode="&#xf9;" horiz-adv-x="600" d="M122 415 L122 169 C122 75 200 0 298 0 L446 0 C464 0 479 11 479 25 L479 418 C479 430 466 440 450 440 C432 440 416 429 416 415 L416 48 L303 48 C234 48 185 108 185 193 L185 418 C184 431 173 440 157 440 C139 440 122 429 122 415 L122 415 Z M274 516 C288 516 306 525 306 541 C306 546 304 551 300 555 L225 630 C220 635 212 637 205 637 C191 637 173 628 173 612 C173 607 175 602 179 598 L254 523 C259 518 267 516 274 516 L274 516 Z " />
<glyph glyph-name="uacute" unicode="&#xfa;" horiz-adv-x="600" d="M121 415 L121 169 C121 75 199 0 297 0 L445 0 C463 0 478 11 478 25 L478 418 C478 430 465 440 449 440 C431 440 415 429 415 415 L415 48 L302 48 C233 48 184 108 184 193 L184 418 C183 431 172 440 156 440 C138 440 121 429 121 415 L121 415 Z M308 538 C308 524 322 517 334 517 C343 517 353 520 359 526 L434 601 C438 605 441 611 441 617 C441 631 427 638 415 638 C406 638 396 635 390 629 L315 554 C311 550 308 544 308 538 L308 538 Z " />
<glyph glyph-name="ucircumflex" unicode="&#xfb;" horiz-adv-x="600" d="M121 415 L121 169 C121 75 199 0 297 0 L445 0 C463 0 478 11 478 25 L478 418 C478 430 465 440 449 440 C431 440 415 429 415 415 L415 48 L302 48 C233 48 184 108 184 193 L184 418 C183 431 172 440 156 440 C138 440 121 429 121 415 L121 415 Z M298 577 L352 523 C357 518 365 516 372 516 C386 516 404 525 404 541 C404 546 402 551 398 555 L323 630 C318 635 310 637 303 637 C294 637 284 634 278 628 L203 553 C199 549 196 543 196 537 C196 523 210 516 222 516 C231 516 241 519 247 525 L298 577 Z " />
<glyph glyph-name="udieresis" unicode="&#xfc;" horiz-adv-x="600" d="M121 415 L121 169 C121 75 199 0 297 0 L445 0 C463 0 478 11 478 25 L478 418 C478 430 465 440 449 440 C431 440 415 429 415 415 L415 48 L302 48 C233 48 184 108 184 193 L184 418 C183 431 172 440 156 440 C138 440 121 429 121 415 L121 415 Z M194 600 L194 561 C194 547 210 539 224 539 C239 539 257 548 257 564 L257 604 C257 618 242 626 228 626 C213 626 194 616 194 600 L194 600 Z M344 600 L344 561 C344 547 360 539 374 539 C389 539 407 548 407 564 L407 604 C407 618 392 626 378 626 C363 626 344 616 344 600 L344 600 Z " />
<glyph glyph-name="yacute" unicode="&#xfd;" horiz-adv-x="600" d="M480 438 C480 443 466 450 454 450 C442 450 427 444 423 431 L309 81 C263 192 180 374 157 426 C153 434 151 439 151 440 C147 448 140 450 132 450 C114 450 96 441 96 425 C96 423 244 76 281 -3 L262 -63 C235 -143 213 -171 171 -177 C161 -178 143 -182 143 -200 C143 -216 157 -223 179 -223 C234 -223 279 -177 298 -127 C303 -113 318 -70 337 -13 C341 -9 341 -8 341 -3 C395 161 480 426 480 438 L480 438 Z M321 538 C321 524 335 517 347 517 C356 517 366 520 372 526 L447 601 C451 605 454 611 454 617 C454 631 440 638 428 638 C419 638 409 635 403 629 L328 554 C324 550 321 544 321 538 L321 538 Z " />
<glyph glyph-name="thorn" unicode="&#xfe;" horiz-adv-x="600" d="M154 611 C154 480 152 -44 152 -175 C152 -187 165 -196 182 -196 C200 -196 215 -185 215 -171 L215 393 L304 393 C386 393 447 325 447 233 L447 199 C447 103 388 47 287 47 C267 47 251 36 250 21 C250 7 264 0 288 0 C425 0 510 84 510 222 L510 228 C510 355 430 440 309 440 L217 440 L217 614 C217 628 202 637 188 637 C173 637 154 627 154 611 L154 611 Z " />
<glyph glyph-name="ydieresis" unicode="&#xff;" horiz-adv-x="600" d="M132 450 C114 450 96 441 96 425 C96 423 244 76 281 -3 L262 -63 C235 -143 213 -171 171 -177 C161 -178 143 -182 143 -200 C143 -216 157 -223 179 -223 C234 -223 279 -177 298 -127 C303 -113 318 -70 337 -13 C341 -9 341 -8 341 -3 C395 161 480 426 480 438 C480 443 466 450 454 450 C442 450 427 444 423 431 L309 81 C263 192 180 374 157 426 C153 434 151 439 151 440 C147 448 140 450 132 450 L132 450 Z M194 600 L194 561 C194 547 210 539 224 539 C239 539 257 548 257 564 L257 604 C257 618 242 626 228 626 C213 626 194 616 194 600 L194 600 Z M344 600 L344 561 C344 547 360 539 374 539 C389 539 407 548 407 564 L407 604 C407 618 392 626 378 626 C363 626 344 616 344 600 L344 600 Z " />
<glyph glyph-name="Amacron" unicode="&#x100;" horiz-adv-x="600" d="M491 -5 C502 -5 528 2 528 18 C528 23 526 31 514 67 L509 82 C451 256 394 430 336 604 C335 609 333 613 331 617 C330 632 315 638 302 638 C294 638 288 636 283 632 C273 628 271 624 271 613 L67 7 C67 4 82 -4 97 -4 C108 -4 120 1 125 12 C129 19 134 35 139 51 L148 76 L447 76 L459 41 C460 37 462 33 463 29 C472 3 478 -5 491 -5 L491 -5 Z M224 737 L372 737 C387 737 406 747 406 763 C406 777 390 784 376 784 L228 784 C214 784 195 774 195 759 C195 744 211 737 224 737 L224 737 Z M164 124 L299 521 L431 124 L164 124 Z " />
<glyph glyph-name="amacron" unicode="&#x101;" horiz-adv-x="600" d="M224 243 C151 243 92 188 92 120 C92 54 150 0 220 0 L318 0 C336 0 352 11 352 25 C352 38 339 47 322 47 L242 47 C187 47 155 76 155 125 C155 173 185 196 244 196 L387 196 L387 22 C387 10 399 0 416 0 C434 0 450 12 450 26 L450 295 C450 376 382 440 298 440 L199 440 C181 440 166 429 166 415 C166 402 178 393 195 393 L270 393 C341 393 387 354 387 293 L387 243 L224 243 Z M224 562 L372 562 C387 562 406 572 406 588 C406 602 390 609 376 609 L228 609 C214 609 195 599 195 584 C195 569 211 562 224 562 L224 562 Z " />
<glyph glyph-name="Abreve" unicode="&#x102;" horiz-adv-x="600" d="M491 -5 C502 -5 528 2 528 18 C528 23 526 31 514 67 L509 82 C451 256 394 430 336 604 C335 609 333 613 331 617 C330 632 315 638 302 638 C294 638 288 636 283 632 C273 628 271 624 271 613 L67 7 C67 4 82 -4 97 -4 C108 -4 120 1 125 12 C129 19 134 35 139 51 L148 76 L447 76 L459 41 C460 37 462 33 463 29 C472 3 478 -5 491 -5 L491 -5 Z M297 691 C353 691 400 728 404 784 C404 803 396 812 376 812 C374 812 371 812 369 811 C356 809 346 799 346 784 L346 774 C346 772 346 770 345 768 C343 753 328 741 309 738 C286 738 264 746 256 770 C255 774 254 778 254 783 C254 802 248 810 237 812 C213 812 196 807 196 780 C200 726 243 691 297 691 L297 691 Z M164 124 L299 521 L431 124 L164 124 Z " />
<glyph glyph-name="abreve" unicode="&#x103;" horiz-adv-x="600" d="M224 243 C151 243 92 188 92 120 C92 54 150 0 220 0 L318 0 C336 0 352 11 352 25 C352 38 339 47 322 47 L242 47 C187 47 155 76 155 125 C155 173 185 196 244 196 L387 196 L387 22 C387 10 399 0 416 0 C434 0 450 12 450 26 L450 295 C450 376 382 440 298 440 L199 440 C181 440 166 429 166 415 C166 402 178 393 195 393 L270 393 C341 393 387 354 387 293 L387 243 L224 243 Z M297 516 C353 516 400 553 404 609 C404 628 396 637 376 637 C374 637 371 637 369 636 C356 634 346 624 346 609 L346 599 C346 597 346 595 345 593 C342 576 325 563 302 563 C281 563 262 576 256 595 C255 597 255 599 255 601 C254 603 254 606 254 608 L254 609 C254 622 250 633 237 637 C213 637 196 632 196 605 C200 551 243 516 297 516 L297 516 Z " />
<glyph glyph-name="Aogonek" unicode="&#x104;" horiz-adv-x="600" d="M491 -5 C507 -5 528 4 528 22 C528 26 527 29 525 32 C523 39 520 50 514 67 C484 157 366 515 336 604 C335 609 333 613 331 617 C330 632 315 638 302 638 C294 638 288 636 283 632 C273 628 271 624 271 613 C258 575 109 131 67 7 C67 4 82 -4 97 -4 C111 -4 120 3 125 12 C129 19 134 35 139 51 L148 76 L447 76 C449 70 457 48 459 42 C407 35 366 -7 366 -56 C366 -107 410 -152 465 -152 C506 -152 556 -127 556 -104 C556 -92 544 -83 527 -83 C516 -83 508 -86 494 -97 C487 -102 482 -105 474 -105 C449 -105 429 -81 429 -53 C429 -30 443 -9 462 -5 C464 -4 468 -4 471 -4 L484 -4 C486 -5 488 -5 491 -5 L491 -5 Z M164 124 L299 521 L431 124 L164 124 Z " />
<glyph glyph-name="aogonek" unicode="&#x105;" horiz-adv-x="600" d="M322 47 L242 47 C187 47 155 76 155 125 C155 173 185 196 244 196 L387 196 L387 22 C387 10 397 3 408 1 C411 0 413 0 416 0 C428 0 444 7 448 18 C449 20 449 21 450 22 C450 23 450 25 450 26 L450 295 C450 376 382 440 298 440 L199 440 C181 440 166 429 166 415 C166 402 178 393 195 393 L270 393 C341 393 387 354 387 293 L387 243 L224 243 C151 243 92 188 92 120 C92 58 142 7 206 1 C198 -10 193 -23 190 -36 C190 -39 190 -41 189 -44 C189 -101 228 -148 288 -148 C329 -148 379 -123 379 -100 C379 -88 367 -79 350 -79 C339 -79 331 -82 317 -93 C310 -98 305 -101 297 -101 C272 -101 252 -77 252 -49 C252 -26 266 -5 285 -1 C286 -1 287 0 288 0 C289 0 291 0 292 0 L318 0 C321 0 324 0 327 1 C336 3 344 8 349 14 C351 17 352 21 352 25 C352 41 335 47 322 47 L322 47 Z " />
<glyph glyph-name="Cacute" unicode="&#x106;" horiz-adv-x="600" d="M333 43 C249 43 172 120 172 218 L172 430 C172 526 245 602 339 602 C372 602 399 592 430 571 C446 560 451 559 457 559 C477 559 492 571 492 585 C492 617 412 650 339 650 C211 650 108 548 108 426 L108 214 C108 94 208 -5 334 -5 C409 -5 492 30 492 63 C492 76 479 87 463 87 C455 87 449 84 441 79 C417 61 373 43 333 43 L333 43 Z M308 713 C308 699 322 692 334 692 C343 692 353 695 359 701 L434 776 C438 780 441 786 441 792 C441 806 427 813 415 813 C406 813 396 810 390 804 L315 729 C311 725 308 719 308 713 L308 713 Z " />
<glyph glyph-name="cacute" unicode="&#x107;" horiz-adv-x="600" d="M326 450 C234 450 153 372 153 277 L153 164 C153 70 232 -5 324 -5 C380 -5 444 23 444 47 C444 58 432 67 417 67 C410 67 403 65 392 60 C378 53 351 42 326 42 C269 42 216 101 216 168 L216 281 C216 347 266 403 323 403 C342 403 362 396 379 386 C394 379 403 376 412 376 C430 376 446 388 446 399 C446 421 381 450 326 450 L326 450 Z M308 538 C308 524 322 517 334 517 C343 517 353 520 359 526 L434 601 C438 605 441 611 441 617 C441 631 427 638 415 638 C406 638 396 635 390 629 L315 554 C311 550 308 544 308 538 L308 538 Z " />
<glyph glyph-name="Ccircumflex" unicode="&#x108;" horiz-adv-x="600" d="M333 43 C249 43 172 120 172 218 L172 430 C172 526 245 602 339 602 C372 602 399 592 430 571 C446 560 451 559 457 559 C477 559 492 571 492 585 C492 617 412 650 339 650 C211 650 108 548 108 426 L108 214 C108 94 208 -5 334 -5 C409 -5 492 30 492 63 C492 76 479 87 463 87 C455 87 449 84 441 79 C417 61 373 43 333 43 L333 43 Z M341 752 L395 698 C400 693 408 691 415 691 C429 691 447 700 447 716 C447 721 445 726 441 730 L366 805 C361 810 353 812 346 812 C337 812 327 809 321 803 L246 728 C242 724 239 718 239 712 C239 698 253 691 265 691 C274 691 284 694 290 700 L341 752 Z " />
<glyph glyph-name="ccircumflex" unicode="&#x109;" horiz-adv-x="600" d="M326 450 C234 450 153 372 153 277 L153 164 C153 70 232 -5 324 -5 C380 -5 444 23 444 47 C444 58 432 67 417 67 C410 67 403 65 392 60 C378 53 351 42 326 42 C269 42 216 101 216 168 L216 281 C216 347 266 403 323 403 C342 403 362 396 379 386 C394 379 403 376 412 376 C430 376 446 388 446 399 C446 421 381 450 326 450 L326 450 Z M298 577 L352 523 C357 518 365 516 372 516 C386 516 404 525 404 541 C404 546 402 551 398 555 L323 630 C318 635 310 637 303 637 C294 637 284 634 278 628 L203 553 C199 549 196 543 196 537 C196 523 210 516 222 516 C231 516 241 519 247 525 L298 577 Z " />
<glyph glyph-name="Cdotaccent" unicode="&#x10a;" horiz-adv-x="600" d="M333 43 C249 43 172 120 172 218 L172 430 C172 526 245 602 339 602 C372 602 399 592 430 571 C446 560 451 559 457 559 C477 559 492 571 492 585 C492 617 412 650 339 650 C211 650 108 548 108 426 L108 214 C108 94 208 -5 334 -5 C409 -5 492 30 492 63 C492 76 479 87 463 87 C455 87 449 84 441 79 C417 61 373 43 333 43 L333 43 Z M269 744 L269 705 C269 691 285 683 299 683 C314 683 332 692 332 708 L332 748 C332 762 317 770 303 770 C288 770 269 760 269 744 L269 744 Z " />
<glyph glyph-name="cdotaccent" unicode="&#x10b;" horiz-adv-x="600" d="M327 450 C235 450 154 372 154 277 L154 164 C154 70 233 -5 325 -5 C381 -5 445 23 445 47 C445 58 433 67 418 67 C411 67 404 65 393 60 C379 53 352 42 327 42 C270 42 217 101 217 168 L217 281 C217 347 267 403 324 403 C343 403 363 396 380 386 C395 379 404 376 413 376 C431 376 447 388 447 399 C447 421 382 450 327 450 L327 450 Z M269 594 L269 555 C269 541 285 533 299 533 C314 533 332 542 332 558 L332 598 C332 612 317 620 303 620 C288 620 269 610 269 594 L269 594 Z " />
<glyph glyph-name="Ccaron" unicode="&#x10c;" horiz-adv-x="600" d="M333 43 C249 43 172 120 172 218 L172 430 C172 526 245 602 339 602 C372 602 399 592 430 571 C446 560 451 559 457 559 C477 559 492 571 492 585 C492 617 412 650 339 650 C211 650 108 548 108 426 L108 214 C108 94 208 -5 334 -5 C409 -5 492 30 492 63 C492 76 479 87 463 87 C455 87 449 84 441 79 C417 61 373 43 333 43 L333 43 Z M297 691 C306 691 316 694 322 700 L397 775 C401 779 404 785 404 791 C404 805 390 812 378 812 C369 812 359 809 353 803 L302 751 L248 805 C243 810 235 812 228 812 C214 812 196 803 196 787 C196 782 198 777 202 773 L277 698 C282 693 290 691 297 691 L297 691 Z " />
<glyph glyph-name="ccaron" unicode="&#x10d;" horiz-adv-x="600" d="M327 450 C235 450 154 372 154 277 L154 164 C154 70 233 -5 325 -5 C381 -5 445 23 445 47 C445 58 433 67 418 67 C411 67 404 65 393 60 C379 53 352 42 327 42 C270 42 217 101 217 168 L217 281 C217 347 267 403 324 403 C343 403 363 396 380 386 C395 379 404 376 413 376 C431 376 447 388 447 399 C447 421 382 450 327 450 L327 450 Z M297 516 C306 516 316 519 322 525 L397 600 C401 604 404 610 404 616 C404 630 390 637 378 637 C369 637 359 634 353 628 L302 576 L248 630 C243 635 235 637 228 637 C214 637 196 628 196 612 C196 607 198 602 202 598 L277 523 C282 518 290 516 297 516 L297 516 Z " />
<glyph glyph-name="Dcaron" unicode="&#x10e;" horiz-adv-x="600" d="M249 0 C404 0 529 122 529 272 L529 371 C529 519 405 640 252 640 L104 640 C86 640 71 628 71 614 L71 22 C71 10 84 0 100 0 L249 0 Z M297 691 C306 691 316 694 322 700 L397 775 C401 779 404 785 404 791 C404 805 390 812 378 812 C369 812 359 809 353 803 L302 751 L248 805 C243 810 235 812 228 812 C214 812 196 803 196 787 C196 782 198 777 202 773 L277 698 C282 693 290 691 297 691 L297 691 Z M134 47 L134 592 L249 592 C368 592 466 491 466 367 L466 269 C466 147 370 47 252 47 L134 47 Z " />
<glyph glyph-name="dcaron" unicode="&#x10f;" horiz-adv-x="600" d="M336 611 L336 440 L247 440 C134 440 42 352 42 243 L42 194 C42 83 131 0 250 0 C285 0 301 7 301 25 C301 40 289 47 262 47 L257 47 C169 47 105 110 105 197 L105 246 C105 319 166 393 259 393 L336 393 L336 22 C336 10 350 0 366 0 C384 0 399 11 399 25 L399 614 C399 626 386 637 370 637 C352 637 336 625 336 611 L336 611 Z M557 625 C557 640 541 646 527 646 L478 646 C463 646 444 637 444 620 C444 599 472 599 489 599 L493 599 C493 594 493 589 493 584 C491 549 484 519 474 490 C472 485 469 476 469 473 L469 470 C469 458 484 451 497 451 C551 451 557 594 557 625 L557 625 Z " />
<glyph glyph-name="Dcroat" unicode="&#x110;" horiz-adv-x="600" d="M249 0 C404 0 529 122 529 272 L529 371 C529 519 405 640 252 640 L104 640 C86 640 71 628 71 614 L71 423 L36 423 C21 423 2 413 2 397 C2 383 18 375 32 375 L71 375 L71 22 C71 10 84 0 100 0 L249 0 Z M134 47 L134 375 L229 375 C244 375 263 384 263 400 C263 414 247 423 233 423 L134 423 L134 592 L249 592 C368 592 466 491 466 367 L466 269 C466 147 370 47 252 47 L134 47 Z " />
<glyph glyph-name="dcroat" unicode="&#x111;" horiz-adv-x="600" d="M324 525 L387 525 L387 440 L298 440 C185 440 93 352 93 243 L93 194 C93 83 182 0 301 0 C336 0 352 7 352 25 C352 40 340 47 313 47 L308 47 C220 47 156 110 156 197 L156 246 C156 319 217 393 310 393 L387 393 L387 22 C387 10 401 0 417 0 C435 0 450 11 450 25 L450 525 L472 525 C487 525 506 535 506 551 C506 565 490 572 476 572 L450 572 L450 614 C450 626 437 637 421 637 C403 637 387 625 387 611 L387 572 L328 572 C314 572 295 562 295 547 C295 532 311 525 324 525 L324 525 Z " />
<glyph glyph-name="Emacron" unicode="&#x112;" horiz-adv-x="600" d="M480 640 L134 640 C119 640 101 630 101 614 L101 71 C101 29 138 0 180 0 L476 0 C491 0 510 10 510 26 C510 41 494 47 480 47 L194 47 C174 47 164 55 164 75 L164 346 L303 346 C318 346 337 355 337 371 C337 386 321 393 307 393 L164 393 L164 592 L476 592 C491 592 510 602 510 618 C510 633 494 640 480 640 L480 640 Z M224 737 L372 737 C387 737 406 747 406 763 C406 777 390 784 376 784 L228 784 C214 784 195 774 195 759 C195 744 211 737 224 737 L224 737 Z " />
<glyph glyph-name="emacron" unicode="&#x113;" horiz-adv-x="600" d="M297 47 C231 47 188 97 188 173 L188 196 L449 196 C467 196 482 208 482 221 L482 280 C482 376 403 450 300 450 C194 450 125 372 125 254 L125 170 C125 70 199 0 303 0 L360 0 C394 0 410 7 410 22 C410 39 391 47 352 47 L297 47 Z M188 243 L188 275 C188 348 238 403 304 403 C371 403 419 345 419 265 L419 243 L188 243 Z M224 562 L372 562 C387 562 406 572 406 588 C406 602 390 609 376 609 L228 609 C214 609 195 599 195 584 C195 569 211 562 224 562 L224 562 Z " />
<glyph glyph-name="Ebreve" unicode="&#x114;" horiz-adv-x="600" d="M480 640 L134 640 C119 640 101 630 101 614 L101 71 C101 29 138 0 180 0 L476 0 C491 0 510 10 510 26 C510 41 494 47 480 47 L194 47 C174 47 164 55 164 75 L164 346 L303 346 C318 346 337 355 337 371 C337 386 321 393 307 393 L164 393 L164 592 L476 592 C491 592 510 602 510 618 C510 633 494 640 480 640 L480 640 Z M297 691 C353 691 400 728 404 784 C404 803 396 812 376 812 C374 812 371 812 369 811 C356 809 346 799 346 784 L346 774 C346 772 346 770 345 768 C342 751 325 738 302 738 C281 738 262 751 256 770 C255 772 255 774 255 776 C254 778 254 781 254 783 L254 784 C254 797 250 808 237 812 C213 812 196 807 196 780 C200 726 243 691 297 691 L297 691 Z " />
<glyph glyph-name="ebreve" unicode="&#x115;" horiz-adv-x="600" d="M298 47 C232 47 189 97 189 173 L189 196 L450 196 C468 196 483 208 483 221 L483 280 C483 376 404 450 301 450 C195 450 126 372 126 254 L126 170 C126 70 200 0 304 0 L361 0 C395 0 411 7 411 22 C411 26 410 30 407 33 C400 42 382 47 353 47 L298 47 Z M297 516 C353 516 400 553 404 609 C404 628 396 637 376 637 C374 637 371 637 369 636 C356 634 346 624 346 609 L346 599 C346 597 346 595 345 593 C342 576 325 563 302 563 C281 563 262 576 256 595 C255 597 255 599 255 601 C254 603 254 606 254 608 C254 614 253 619 252 623 C249 631 244 635 237 637 C213 637 196 632 196 605 C200 551 243 516 297 516 L297 516 Z M189 243 L189 275 C189 348 239 403 305 403 C372 403 420 345 420 265 L420 243 L189 243 Z " />
<glyph glyph-name="Edotaccent" unicode="&#x116;" horiz-adv-x="600" d="M480 640 L134 640 C119 640 101 630 101 614 L101 71 C101 29 138 0 180 0 L476 0 C491 0 510 10 510 26 C510 41 494 47 480 47 L194 47 C174 47 164 55 164 75 L164 346 L303 346 C318 346 337 355 337 371 C337 386 321 393 307 393 L164 393 L164 592 L476 592 C491 592 510 602 510 618 C510 633 494 640 480 640 L480 640 Z M269 769 L269 730 C269 716 285 708 299 708 C314 708 332 717 332 733 L332 773 C332 787 317 795 303 795 C288 795 269 785 269 769 L269 769 Z " />
<glyph glyph-name="edotaccent" unicode="&#x117;" horiz-adv-x="600" d="M298 47 C232 47 189 97 189 173 L189 196 L450 196 C468 196 483 208 483 221 L483 280 C483 376 404 450 301 450 C195 450 126 372 126 254 L126 170 C126 70 200 0 304 0 L361 0 C395 0 411 7 411 22 C411 39 392 47 353 47 L298 47 Z M189 243 L189 275 C189 348 239 403 305 403 C372 403 420 345 420 265 L420 243 L189 243 Z M269 594 L269 555 C269 541 285 533 299 533 C314 533 332 542 332 558 L332 598 C332 612 317 620 303 620 C288 620 269 610 269 594 L269 594 Z " />
<glyph glyph-name="Eogonek" unicode="&#x118;" horiz-adv-x="600" d="M480 640 L134 640 C119 640 101 630 101 614 L101 71 C101 29 138 0 180 0 L371 0 C364 -11 358 -24 356 -38 C355 -43 355 -47 355 -52 C355 -103 399 -148 454 -148 C495 -148 545 -123 545 -100 C545 -88 533 -79 516 -79 C505 -79 497 -82 483 -93 C476 -98 471 -101 463 -101 C438 -101 418 -77 418 -49 C418 -26 432 -5 451 -1 C453 0 457 0 460 0 L482 0 C502 0 517 11 517 26 C517 39 505 47 488 47 L194 47 C174 47 164 55 164 75 L164 346 L303 346 C318 346 337 355 337 371 C337 386 321 393 307 393 L164 393 L164 592 L476 592 C491 592 510 602 510 618 C510 633 494 640 480 640 L480 640 Z " />
<glyph glyph-name="eogonek" unicode="&#x119;" horiz-adv-x="600" d="M298 47 C232 47 189 97 189 173 L189 196 L450 196 C468 196 483 208 483 221 L483 280 C483 376 404 450 301 450 C195 450 126 372 126 254 L126 170 C126 80 186 15 273 2 C262 -13 255 -32 255 -52 C255 -103 299 -148 354 -148 C395 -148 445 -123 445 -100 C445 -88 433 -79 416 -79 C405 -79 397 -82 383 -93 C376 -98 371 -101 363 -101 C338 -101 318 -77 318 -49 C318 -26 332 -5 351 -1 C353 0 357 0 360 0 L382 0 C398 0 417 8 417 26 C417 39 405 47 388 47 L363 47 C362 47 360 47 359 47 C357 47 355 47 353 47 L298 47 Z M189 243 L189 275 C189 348 239 403 305 403 C372 403 420 345 420 265 L420 243 L189 243 Z " />
<glyph glyph-name="Ecaron" unicode="&#x11a;" horiz-adv-x="600" d="M480 640 L134 640 C119 640 101 630 101 614 L101 71 C101 29 138 0 180 0 L476 0 C491 0 510 10 510 26 C510 41 494 47 480 47 L194 47 C174 47 164 55 164 75 L164 346 L303 346 C318 346 337 355 337 371 C337 386 321 393 307 393 L164 393 L164 592 L476 592 C491 592 510 602 510 618 C510 633 494 640 480 640 L480 640 Z M297 691 C306 691 316 694 322 700 L397 775 C401 779 404 785 404 791 C404 805 390 812 378 812 C369 812 359 809 353 803 L302 751 L248 805 C243 810 235 812 228 812 C214 812 196 803 196 787 C196 782 198 777 202 773 L277 698 C282 693 290 691 297 691 L297 691 Z " />
<glyph glyph-name="ecaron" unicode="&#x11b;" horiz-adv-x="600" d="M298 47 C232 47 189 97 189 173 L189 196 L450 196 C468 196 483 208 483 221 L483 280 C483 376 404 450 301 450 C195 450 126 372 126 254 L126 170 C126 70 200 0 304 0 L361 0 C395 0 411 7 411 22 C411 39 392 47 353 47 L298 47 Z M297 516 C306 516 316 519 322 525 L397 600 C401 604 404 610 404 616 C404 630 390 637 378 637 C369 637 359 634 353 628 L302 576 L248 630 C243 635 235 637 228 637 C214 637 196 628 196 612 C196 607 198 602 202 598 L277 523 C282 518 290 516 297 516 L297 516 Z M189 243 L189 275 C189 348 239 403 305 403 C372 403 420 345 420 265 L420 243 L189 243 Z " />
<glyph glyph-name="Gcircumflex" unicode="&#x11c;" horiz-adv-x="600" d="M470 345 L470 214 C470 120 396 43 306 43 C215 43 139 122 139 218 L139 421 C139 508 223 592 310 592 L401 592 C419 592 435 604 435 617 C435 630 421 640 405 640 L306 640 C179 640 75 540 75 417 L75 214 C75 93 176 -5 302 -5 C429 -5 533 95 533 218 L533 371 C533 383 520 393 504 393 L306 393 C288 393 272 381 272 368 C272 355 286 345 302 345 L470 345 Z M298 752 L352 698 C357 693 365 691 372 691 C386 691 404 700 404 716 C404 721 402 726 398 730 L323 805 C318 810 310 812 303 812 C294 812 284 809 278 803 L203 728 C199 724 196 718 196 712 C196 698 210 691 222 691 C231 691 241 694 247 700 L298 752 Z " />
<glyph glyph-name="gcircumflex" unicode="&#x11d;" horiz-adv-x="600" d="M305 440 C219 440 149 373 149 291 C149 254 163 220 189 193 C137 185 100 146 100 97 C100 58 124 22 162 7 C138 -17 124 -48 124 -79 C124 -144 181 -197 252 -197 L350 -197 C423 -197 482 -142 482 -74 C482 -8 423 48 354 48 L215 48 C181 48 163 67 163 100 C163 131 181 147 212 147 L302 147 C387 147 457 214 457 295 C457 331 443 365 418 392 L526 392 C544 392 560 404 560 418 C560 430 547 440 531 440 L305 440 Z M298 577 L352 523 C357 518 365 516 372 516 C386 516 404 525 404 541 C404 546 402 551 398 555 L323 630 C318 635 310 637 303 637 C294 637 284 634 278 628 L203 553 C199 549 196 543 196 537 C196 523 210 516 222 516 C231 516 241 519 247 525 L298 577 Z M394 292 C394 238 354 195 304 195 C253 195 212 239 212 294 C212 348 252 392 301 392 C352 392 394 347 394 292 L394 292 Z M257 -149 C220 -149 187 -116 187 -76 C187 -37 218 0 252 0 L350 0 C387 0 419 -36 419 -77 C419 -117 390 -149 354 -149 L257 -149 Z " />
<glyph glyph-name="Gbreve" unicode="&#x11e;" horiz-adv-x="600" d="M470 345 L470 214 C470 120 396 43 306 43 C215 43 139 122 139 218 L139 421 C139 508 223 592 310 592 L401 592 C419 592 435 604 435 617 C435 630 421 640 405 640 L306 640 C179 640 75 540 75 417 L75 214 C75 93 176 -5 302 -5 C429 -5 533 95 533 218 L533 371 C533 383 520 393 504 393 L306 393 C288 393 272 381 272 368 C272 355 286 345 302 345 L470 345 Z M297 691 C353 691 400 728 404 784 C404 803 396 812 376 812 C374 812 371 812 369 811 C356 809 346 799 346 784 L346 774 C346 772 346 770 345 768 C342 751 325 738 302 738 C281 738 262 751 256 770 C255 772 255 774 255 776 C254 778 254 781 254 783 L254 784 C254 797 250 808 237 812 C213 812 196 807 196 780 C200 726 243 691 297 691 L297 691 Z " />
<glyph glyph-name="gbreve" unicode="&#x11f;" horiz-adv-x="600" d="M305 440 C219 440 149 373 149 291 C149 254 163 220 189 193 C137 185 100 146 100 97 C100 58 124 22 162 7 C138 -17 124 -48 124 -79 C124 -144 181 -197 252 -197 L350 -197 C423 -197 482 -142 482 -74 C482 -8 423 48 354 48 L215 48 C181 48 163 67 163 100 C163 131 181 147 212 147 L302 147 C387 147 457 214 457 295 C457 331 443 365 418 392 L526 392 C544 392 560 404 560 418 C560 430 547 440 531 440 L305 440 Z M297 516 C353 516 400 553 404 609 C404 628 396 637 376 637 C374 637 371 637 369 636 C356 634 346 624 346 609 L346 599 C346 597 346 595 345 593 C342 576 325 563 302 563 C281 563 262 576 256 595 C255 597 255 599 255 601 C254 603 254 606 254 608 L254 609 C254 622 250 633 237 637 C213 637 196 632 196 605 C200 551 243 516 297 516 L297 516 Z M394 292 C394 238 354 195 304 195 C253 195 212 239 212 294 C212 348 252 392 301 392 C352 392 394 347 394 292 L394 292 Z M257 -149 C220 -149 187 -116 187 -76 C187 -42 215 0 252 0 L350 0 C387 0 419 -36 419 -77 C419 -112 397 -141 367 -148 C363 -148 359 -149 354 -149 L257 -149 Z " />
<glyph glyph-name="Gdotaccent" unicode="&#x120;" horiz-adv-x="600" d="M470 345 L470 214 C470 120 396 43 306 43 C215 43 139 122 139 218 L139 421 C139 508 223 592 310 592 L401 592 C419 592 435 604 435 617 C435 630 421 640 405 640 L306 640 C179 640 75 540 75 417 L75 214 C75 93 176 -5 302 -5 C429 -5 533 95 533 218 L533 371 C533 383 520 393 504 393 L306 393 C288 393 272 381 272 368 C272 355 286 345 302 345 L470 345 Z M269 769 L269 730 C269 716 285 708 299 708 C314 708 332 717 332 733 L332 773 C332 787 317 795 303 795 C288 795 269 785 269 769 L269 769 Z " />
<glyph glyph-name="gdotaccent" unicode="&#x121;" horiz-adv-x="600" d="M305 440 C219 440 149 373 149 291 C149 254 163 220 189 193 C137 185 100 146 100 97 C100 58 124 22 162 7 C138 -17 124 -48 124 -79 C124 -144 181 -197 252 -197 L350 -197 C423 -197 482 -142 482 -74 C482 -8 423 48 354 48 L215 48 C181 48 163 67 163 100 C163 131 181 147 212 147 L302 147 C387 147 457 214 457 295 C457 331 443 365 418 392 L526 392 C544 392 560 404 560 418 C560 430 547 440 531 440 L305 440 Z M257 -149 C220 -149 187 -116 187 -76 C187 -37 218 0 252 0 L350 0 C387 0 419 -36 419 -77 C419 -117 390 -149 354 -149 L257 -149 Z M394 292 C394 238 354 195 304 195 C253 195 212 239 212 294 C212 348 252 392 301 392 C352 392 394 347 394 292 L394 292 Z M269 594 L269 555 C269 541 285 533 299 533 C314 533 332 542 332 558 L332 598 C332 612 317 620 303 620 C288 620 269 610 269 594 L269 594 Z " />
<glyph glyph-name="uni0122" unicode="&#x122;" horiz-adv-x="600" d="M470 345 L470 214 C470 120 396 43 306 43 C215 43 139 122 139 218 L139 421 C139 508 223 592 310 592 L401 592 C419 592 435 604 435 617 C435 630 421 640 405 640 L306 640 C179 640 75 540 75 417 L75 214 C75 96 170 1 291 -5 C299 -6 307 -6 314 -6 L318 -6 C318 -48 310 -82 299 -115 C297 -120 294 -129 294 -132 L294 -135 C294 -147 309 -154 322 -154 C371 -154 380 -36 382 9 C470 40 533 122 533 218 L533 371 C533 383 520 393 504 393 L306 393 C288 393 272 381 272 368 C272 355 286 345 302 345 L470 345 Z " />
<glyph glyph-name="uni0123" unicode="&#x123;" horiz-adv-x="600" d="M292 440 C206 440 136 373 136 291 C136 254 150 220 176 193 C124 185 87 146 87 97 C87 58 111 22 149 7 C125 -17 111 -48 111 -79 C111 -144 168 -197 239 -197 L337 -197 C410 -197 469 -142 469 -74 C469 -8 410 48 341 48 L202 48 C168 48 150 67 150 100 C150 131 168 147 199 147 L289 147 C374 147 444 214 444 295 C444 331 430 365 405 392 L513 392 C531 392 547 404 547 418 C547 430 534 440 518 440 L292 440 Z M310 636 C310 621 326 615 340 615 L389 615 C404 615 423 624 423 641 C423 662 395 662 378 662 L374 662 C374 704 382 738 393 771 C395 776 398 785 398 788 L398 791 C398 803 383 810 370 810 C316 810 310 667 310 636 L310 636 Z M381 292 C381 238 341 195 291 195 C240 195 199 239 199 294 C199 348 239 392 288 392 C339 392 381 347 381 292 L381 292 Z M244 -149 C207 -149 174 -116 174 -76 C174 -42 202 0 239 0 L337 0 C374 0 406 -36 406 -77 C406 -112 384 -141 354 -148 C350 -148 346 -149 341 -149 L244 -149 Z " />
<glyph glyph-name="Hcircumflex" unicode="&#x124;" horiz-adv-x="600" d="M134 26 L134 345 L466 345 L466 22 C466 7 481 0 495 0 C510 0 529 10 529 26 L529 618 C529 633 513 640 499 640 C484 640 466 630 466 614 L466 393 L134 393 L134 618 C134 633 118 640 104 640 C89 640 71 630 71 614 L71 22 C71 7 86 0 100 0 C115 0 134 10 134 26 L134 26 Z M298 752 L352 698 C357 693 365 691 372 691 C386 691 404 700 404 716 C404 721 402 726 398 730 L323 805 C318 810 310 812 303 812 C294 812 284 809 278 803 L203 728 C199 724 196 718 196 712 C196 698 210 691 222 691 C231 691 241 694 247 700 L298 752 Z " />
<glyph glyph-name="hcircumflex" unicode="&#x125;" horiz-adv-x="600" d="M479 26 L479 271 C479 365 400 440 302 440 L184 440 L184 614 C184 626 171 637 155 637 C137 637 121 625 121 611 L121 22 C121 10 135 0 151 0 C169 0 184 12 184 26 L184 393 L288 393 C370 393 416 338 416 238 L416 22 C416 10 429 0 445 0 C463 0 479 12 479 26 L479 26 Z M298 727 L352 673 C357 668 365 666 372 666 C386 666 404 675 404 691 C404 696 402 701 398 705 L323 780 C318 785 310 787 303 787 C294 787 284 784 278 778 L203 703 C199 699 196 693 196 687 C196 673 210 666 222 666 C231 666 241 669 247 675 L298 727 Z " />
<glyph glyph-name="Hbar" unicode="&#x126;" horiz-adv-x="600" d="M134 26 L134 345 L466 345 L466 22 C466 7 481 0 495 0 C510 0 529 10 529 26 L529 618 C529 633 513 640 499 640 C484 640 466 630 466 614 L466 393 L134 393 L134 618 C134 633 118 640 104 640 C89 640 71 630 71 614 L71 22 C71 7 86 0 100 0 C115 0 134 10 134 26 L134 26 Z M224 737 L372 737 C387 737 406 747 406 763 C406 777 390 784 376 784 L228 784 C214 784 195 774 195 759 C195 744 211 737 224 737 L224 737 Z " />
<glyph glyph-name="hbar" unicode="&#x127;" horiz-adv-x="600" d="M99 562 L121 562 L121 22 C121 10 135 0 151 0 C169 0 184 12 184 26 L184 393 L288 393 C370 393 416 338 416 238 L416 22 C416 10 429 0 445 0 C463 0 479 12 479 26 L479 271 C479 365 400 440 302 440 L184 440 L184 562 L247 562 C262 562 281 572 281 588 C281 602 265 609 251 609 L184 609 L184 614 C184 626 171 637 155 637 C137 637 121 625 121 611 L121 609 L103 609 C89 609 70 599 70 584 C70 569 86 562 99 562 L99 562 Z " />
<glyph glyph-name="Itilde" unicode="&#x128;" horiz-adv-x="600" d="M175 0 L420 0 C435 0 454 9 454 26 C454 41 438 50 424 50 L332 50 L332 590 L420 590 C435 590 454 599 454 616 C454 631 438 640 424 640 L179 640 C164 640 145 630 145 613 C145 598 161 590 175 590 L269 590 L269 50 L179 50 C164 50 145 40 145 23 C145 8 161 0 175 0 L175 0 Z M354 756 C342 756 333 764 321 775 C307 788 289 805 253 805 C208 805 171 777 171 739 C171 716 185 709 201 709 C220 709 226 718 230 739 C233 752 236 758 246 758 C256 758 264 753 272 746 C300 722 317 709 347 709 C392 709 429 737 429 775 C429 798 415 805 399 805 C376 805 373 790 373 788 C369 761 365 756 354 756 L354 756 Z " />
<glyph glyph-name="itilde" unicode="&#x129;" horiz-adv-x="600" d="M143 0 L454 0 C469 0 488 9 488 25 C488 39 472 48 458 48 L363 48 L363 418 C362 433 347 441 333 441 L186 441 C171 441 152 431 152 415 C152 401 168 393 182 393 L300 393 L300 48 L147 48 C132 48 113 38 113 22 C113 8 129 0 143 0 L143 0 Z M354 581 C342 581 333 589 321 600 C307 613 289 630 253 630 C208 630 171 602 171 564 C171 541 185 534 201 534 C220 534 226 543 230 564 C233 577 236 583 246 583 C256 583 264 578 272 571 C300 547 317 534 347 534 C392 534 429 562 429 600 C429 623 415 630 399 630 C376 630 373 615 373 613 C369 586 365 581 354 581 L354 581 Z " />
<glyph glyph-name="Imacron" unicode="&#x12a;" horiz-adv-x="600" d="M175 0 L420 0 C435 0 454 9 454 26 C454 41 438 50 424 50 L332 50 L332 590 L420 590 C435 590 454 599 454 616 C454 631 438 640 424 640 L179 640 C164 640 145 630 145 613 C145 598 161 590 175 590 L269 590 L269 50 L179 50 C164 50 145 40 145 23 C145 8 161 0 175 0 L175 0 Z M224 737 L372 737 C387 737 406 747 406 763 C406 777 390 784 376 784 L228 784 C214 784 195 774 195 759 C195 744 211 737 224 737 L224 737 Z " />
<glyph glyph-name="imacron" unicode="&#x12b;" horiz-adv-x="600" d="M143 0 L454 0 C469 0 488 9 488 25 C488 39 472 48 458 48 L363 48 L363 418 C362 433 347 441 333 441 L186 441 C171 441 152 431 152 415 C152 401 168 393 182 393 L300 393 L300 48 L147 48 C132 48 113 38 113 22 C113 8 129 0 143 0 L143 0 Z M224 562 L372 562 C387 562 406 572 406 588 C406 602 390 609 376 609 L228 609 C214 609 195 599 195 584 C195 569 211 562 224 562 L224 562 Z " />
<glyph glyph-name="Ibreve" unicode="&#x12c;" horiz-adv-x="600" d="M175 0 L420 0 C435 0 454 9 454 26 C454 41 438 50 424 50 L332 50 L332 590 L420 590 C435 590 454 599 454 616 C454 631 438 640 424 640 L179 640 C164 640 145 630 145 613 C145 598 161 590 175 590 L269 590 L269 50 L179 50 C164 50 145 40 145 23 C145 8 161 0 175 0 L175 0 Z M297 691 C353 691 400 728 404 784 C404 803 396 812 376 812 C374 812 371 812 369 811 C356 809 346 799 346 784 L346 774 C346 772 346 770 345 768 C343 753 328 741 309 738 C286 738 264 746 256 770 C255 774 254 778 254 783 C254 802 248 810 237 812 C213 812 196 807 196 780 C200 726 243 691 297 691 L297 691 Z " />
<glyph glyph-name="ibreve" unicode="&#x12d;" horiz-adv-x="600" d="M143 0 L454 0 C472 0 488 11 488 25 C488 37 474 48 458 48 L363 48 L363 418 C362 431 349 441 333 441 L186 441 C168 441 152 429 152 415 C152 403 165 393 182 393 L300 393 L300 48 L147 48 C129 48 113 36 113 22 C113 10 126 0 143 0 L143 0 Z M297 516 C352 516 394 550 403 599 C403 604 404 610 404 616 C404 628 392 637 376 637 C373 637 370 637 368 636 C353 633 346 622 346 599 C346 582 331 567 311 564 C308 563 305 563 302 563 C278 563 259 579 255 600 C254 602 254 605 254 608 C254 628 247 637 231 637 C211 637 196 626 196 612 C196 555 241 516 297 516 L297 516 Z " />
<glyph glyph-name="Iogonek" unicode="&#x12e;" horiz-adv-x="600" d="M175 0 L221 0 C214 -11 208 -24 206 -38 C205 -43 205 -47 205 -52 C205 -103 249 -148 304 -148 C345 -148 395 -123 395 -100 C395 -88 383 -79 366 -79 C355 -79 347 -82 333 -93 C326 -98 321 -101 313 -101 C288 -101 268 -77 268 -49 C268 -26 282 -5 301 -1 C303 0 306 0 308 0 L420 0 C435 0 454 9 454 26 C454 41 438 50 424 50 L332 50 L332 590 L420 590 C435 590 454 599 454 616 C454 631 438 640 424 640 L179 640 C164 640 145 630 145 613 C145 598 161 590 175 590 L269 590 L269 50 L179 50 C164 50 145 40 145 23 C145 8 161 0 175 0 L175 0 Z " />
<glyph glyph-name="iogonek" unicode="&#x12f;" horiz-adv-x="600" d="M143 0 L196 0 C186 -15 180 -33 180 -52 C180 -103 224 -148 279 -148 C320 -148 370 -123 370 -100 C370 -88 358 -79 341 -79 C330 -79 322 -82 308 -93 C301 -98 296 -101 288 -101 C263 -101 243 -77 243 -49 C243 -26 257 -5 276 -1 C278 0 282 0 285 0 L454 0 C469 0 488 9 488 25 C488 39 472 48 458 48 L363 48 L363 418 C362 433 347 441 333 441 L186 441 C171 441 152 431 152 415 C152 401 168 393 182 393 L300 393 L300 48 L147 48 C132 48 113 38 113 22 C113 8 129 0 143 0 L143 0 Z M362 565 L362 614 C362 626 349 637 333 637 C315 637 299 625 299 611 L299 562 C299 550 313 540 329 540 C347 540 362 551 362 565 L362 565 Z " />
<glyph glyph-name="Idotaccent" unicode="&#x130;" horiz-adv-x="600" d="M175 0 L420 0 C435 0 454 9 454 26 C454 41 438 50 424 50 L332 50 L332 590 L420 590 C435 590 454 599 454 616 C454 631 438 640 424 640 L179 640 C164 640 145 630 145 613 C145 598 161 590 175 590 L269 590 L269 50 L179 50 C164 50 145 40 145 23 C145 8 161 0 175 0 L175 0 Z M269 769 L269 730 C269 716 285 708 299 708 C314 708 332 717 332 733 L332 773 C332 787 317 795 303 795 C288 795 269 785 269 769 L269 769 Z " />
<glyph glyph-name="dotlessi" unicode="&#x131;" horiz-adv-x="600" d="M143 0 L454 0 C469 0 488 9 488 25 C488 39 472 48 458 48 L363 48 L363 418 C362 433 347 441 333 441 L186 441 C171 441 152 431 152 415 C152 401 168 393 182 393 L300 393 L300 48 L147 48 C132 48 113 38 113 22 C113 8 129 0 143 0 L143 0 Z " />
<glyph glyph-name="IJ" unicode="&#x132;" horiz-adv-x="600" d="M121 415 L121 120 C121 108 135 98 151 98 C169 98 184 110 184 124 L184 418 C184 430 171 440 155 440 C137 440 121 429 121 415 L121 415 Z M306 -149 C274 -149 249 -134 227 -119 C215 -111 207 -105 196 -105 C180 -105 164 -118 164 -131 C164 -157 244 -197 307 -197 C397 -197 479 -119 479 -24 L479 418 C479 430 466 440 450 440 C444 440 438 439 433 436 C424 432 417 424 416 415 L416 -16 C416 -92 368 -149 306 -149 L306 -149 Z M121 611 L121 537 C121 525 135 515 151 515 C169 515 184 527 184 541 L184 614 C184 626 171 637 155 637 C137 637 121 625 121 611 L121 611 Z M416 611 L416 537 C416 525 429 515 445 515 C463 515 479 527 479 541 L479 614 C479 626 466 637 450 637 C432 637 416 625 416 611 L416 611 Z " />
<glyph glyph-name="ij" unicode="&#x133;" horiz-adv-x="600" d="M121 412 L121 117 C121 105 135 95 151 95 C169 95 184 107 184 121 L184 415 C184 427 171 437 155 437 C137 437 121 426 121 412 L121 412 Z M306 -152 C274 -152 249 -137 227 -122 C215 -114 207 -108 196 -108 C180 -108 164 -121 164 -134 C164 -160 244 -200 307 -200 C397 -200 479 -122 479 -27 L479 415 C479 427 466 437 450 437 C444 437 438 436 433 433 C424 429 417 421 416 412 L416 -19 C416 -95 368 -152 306 -152 L306 -152 Z M121 608 L121 534 C121 522 135 512 151 512 C169 512 184 524 184 538 L184 611 C184 623 171 634 155 634 C137 634 121 622 121 608 L121 608 Z M416 608 L416 534 C416 522 429 512 445 512 C463 512 479 524 479 538 L479 611 C479 623 466 634 450 634 C432 634 416 622 416 608 L416 608 Z " />
<glyph glyph-name="Jcircumflex" unicode="&#x134;" horiz-adv-x="600" d="M268 -5 C354 -5 425 62 425 144 L425 610 C426 612 426 614 426 616 C426 631 410 640 396 640 L174 640 C159 640 140 630 140 613 C140 598 156 590 170 590 L362 590 L362 142 C362 85 322 43 270 43 C244 43 221 54 202 76 C192 88 184 92 173 92 C154 92 140 80 140 64 C140 30 205 -5 268 -5 L268 -5 Z M298 752 L352 698 C357 693 365 691 372 691 C386 691 404 700 404 716 C404 721 402 726 398 730 L323 805 C318 810 310 812 303 812 C294 812 284 809 278 803 L203 728 C199 724 196 718 196 712 C196 698 210 691 222 691 C231 691 241 694 247 700 L298 752 Z " />
<glyph glyph-name="jcircumflex" unicode="&#x135;" horiz-adv-x="600" d="M188 -174 C188 -186 201 -197 217 -197 C316 -197 398 -119 398 -24 L398 418 C398 426 392 433 383 437 C378 440 372 441 367 441 L196 441 C181 441 162 431 162 415 C162 401 178 393 192 393 L336 393 L336 -15 C336 -95 293 -144 220 -149 C202 -150 188 -161 188 -174 L188 -174 Z M373 577 L422 528 C424 526 425 525 427 523 C431 519 436 517 442 516 C457 516 479 522 479 541 C479 543 479 544 478 546 C477 549 476 552 473 555 C470 558 467 561 464 564 L398 630 C393 635 385 637 378 637 C369 637 359 634 353 628 L278 553 C275 550 273 547 272 543 C271 541 271 539 271 537 C271 523 285 516 297 516 C299 516 302 516 304 517 C311 518 318 520 322 525 C324 527 325 528 327 530 L373 577 Z " />
<glyph glyph-name="uni0136" unicode="&#x136;" horiz-adv-x="600" d="M148 26 L148 335 L251 406 L464 43 C459 41 455 38 451 34 C448 30 446 26 446 20 C446 -1 474 -1 491 -1 L495 -1 C495 -38 488 -75 476 -110 C474 -115 471 -124 471 -127 L471 -130 C471 -142 486 -149 499 -149 C553 -149 559 -6 559 25 C559 39 546 45 533 46 L302 441 L530 598 C536 603 543 610 543 619 C543 633 527 640 513 640 C509 640 506 639 502 638 C499 637 496 636 493 634 C487 630 481 626 475 622 L148 397 L148 618 C148 633 132 640 118 640 C103 640 85 630 85 614 L85 22 C85 7 100 0 114 0 C129 0 148 10 148 26 L148 26 Z " />
<glyph glyph-name="uni0137" unicode="&#x137;" horiz-adv-x="600" d="M190 25 L190 257 L281 302 L410 41 C401 37 394 29 394 19 C394 -2 422 -2 439 -2 L443 -2 C443 -44 435 -78 424 -111 C422 -116 419 -125 419 -128 L419 -131 C419 -143 434 -150 447 -150 C501 -150 507 -7 507 24 C507 38 492 44 479 45 C455 92 359 281 335 329 L468 396 C478 401 485 410 485 418 C485 430 472 440 456 440 C450 440 444 438 439 436 L190 312 L190 614 C190 626 177 636 161 636 C143 636 127 625 127 611 L127 22 C127 10 141 -1 157 -1 C175 -1 190 11 190 25 L190 25 Z " />
<glyph glyph-name="kgreenlandic" unicode="&#x138;" horiz-adv-x="600" d="M184 25 L184 257 L258 294 L419 12 C424 4 435 0 445 0 C460 0 479 9 479 25 C479 28 478 32 476 36 C449 84 339 273 312 321 L462 396 C471 401 479 409 479 418 C479 432 464 440 450 440 C444 440 438 439 433 437 L184 312 L184 418 C184 432 169 440 155 440 C140 440 121 431 121 415 L121 22 C121 8 137 0 151 0 C166 0 184 9 184 25 L184 25 Z " />
<glyph glyph-name="Lacute" unicode="&#x139;" horiz-adv-x="600" d="M200 47 L200 618 C200 633 184 640 170 640 C155 640 137 630 137 614 L137 22 C137 7 152 0 166 0 L463 0 C478 0 496 10 496 26 C496 41 481 47 467 47 L200 47 Z M271 713 C271 699 285 692 297 692 C306 692 316 695 322 701 L397 776 C401 780 404 786 404 792 C404 806 390 813 378 813 C369 813 359 810 353 804 L278 729 C274 725 271 719 271 713 L271 713 Z " />
<glyph glyph-name="lacute" unicode="&#x13a;" horiz-adv-x="600" d="M143 0 L454 0 C469 0 488 9 488 25 C488 39 472 48 458 48 L363 48 L363 614 C362 629 348 637 333 637 L186 637 C171 637 152 627 152 611 C152 597 168 589 182 589 L300 589 L300 48 L147 48 C132 48 113 38 113 22 C113 8 129 0 143 0 L143 0 Z M309 688 C309 674 323 667 335 667 C344 667 354 670 360 676 L435 751 C439 755 442 761 442 767 C442 781 428 788 416 788 C407 788 397 785 391 779 L316 704 C312 700 309 694 309 688 L309 688 Z " />
<glyph glyph-name="uni013B" unicode="&#x13b;" horiz-adv-x="600" d="M200 47 L200 618 C200 633 184 640 170 640 C155 640 137 630 137 614 L137 22 C137 7 152 0 166 0 L407 0 C414 -1 422 -1 428 -1 L432 -1 C432 -43 424 -77 413 -110 C411 -115 408 -124 408 -127 L408 -130 C408 -142 423 -149 436 -149 C490 -149 496 -6 496 26 C496 41 481 47 467 47 L200 47 Z " />
<glyph glyph-name="uni013C" unicode="&#x13c;" horiz-adv-x="600" d="M143 0 L405 0 C412 -1 420 -1 426 -1 L430 -1 C430 -43 422 -77 411 -110 C409 -115 406 -124 406 -127 L406 -130 C406 -142 421 -149 434 -149 C488 -149 494 -6 494 25 C494 37 483 44 471 45 C467 47 462 48 458 48 L363 48 L363 614 C363 628 348 637 333 637 L186 637 C171 637 152 627 152 611 C152 597 168 589 182 589 L300 589 L300 48 L147 48 C132 48 113 38 113 22 C113 8 129 0 143 0 L143 0 Z " />
<glyph glyph-name="Lcaron" unicode="&#x13d;" horiz-adv-x="600" d="M200 47 L200 618 C200 633 184 640 170 640 C155 640 137 630 137 614 L137 22 C137 7 152 0 166 0 L463 0 C478 0 496 10 496 26 C496 41 481 47 467 47 L200 47 Z M482 625 C482 640 466 646 452 646 L403 646 C388 646 369 637 369 620 C369 599 397 599 414 599 L418 599 C418 594 418 589 418 584 C416 549 409 519 399 490 C397 485 394 476 394 473 L394 470 C394 458 409 451 422 451 C476 451 482 594 482 625 L482 625 Z " />
<glyph glyph-name="lcaron" unicode="&#x13e;" horiz-adv-x="600" d="M143 0 L454 0 C469 0 488 9 488 25 C488 39 472 48 458 48 L363 48 L363 614 C362 629 348 637 333 637 L186 637 C171 637 152 627 152 611 C152 597 168 589 182 589 L300 589 L300 48 L147 48 C132 48 113 38 113 22 C113 8 129 0 143 0 L143 0 Z M547 617 C547 632 531 638 517 638 L468 638 C453 638 434 629 434 612 C434 591 462 591 479 591 L483 591 C483 549 475 515 464 482 C462 477 459 468 459 465 L459 462 C459 450 474 443 487 443 C541 443 547 586 547 617 L547 617 Z " />
<glyph glyph-name="Ldot" unicode="&#x13f;" horiz-adv-x="600" d="M200 47 L200 618 C200 633 184 640 170 640 C155 640 137 630 137 614 L137 22 C137 7 152 0 166 0 L463 0 C478 0 496 10 496 26 C496 41 481 47 467 47 L200 47 Z M395 594 L395 555 C395 541 411 533 425 533 C440 533 458 542 458 558 L458 598 C458 612 443 620 429 620 C414 620 395 610 395 594 L395 594 Z " />
<glyph glyph-name="ldot" unicode="&#x140;" horiz-adv-x="600" d="M94 398 L94 323 C94 308 109 300 122 300 C137 300 156 310 156 327 L156 402 C156 417 141 425 128 425 C113 425 94 415 94 398 L94 398 Z M143 0 L454 0 C469 0 488 9 488 25 C488 39 472 48 458 48 L363 48 L363 614 C362 629 348 637 333 637 L186 637 C171 637 152 627 152 611 C152 597 168 589 182 589 L300 589 L300 48 L147 48 C132 48 113 38 113 22 C113 8 129 0 143 0 L143 0 Z " />
<glyph glyph-name="Lslash" unicode="&#x141;" horiz-adv-x="600" d="M200 47 L200 280 C233 302 266 324 278 333 C280 334 281 335 281 336 C286 340 289 346 289 352 C289 367 274 375 261 375 C255 375 249 374 244 371 C243 371 241 370 239 368 C232 364 217 354 200 343 L200 618 C200 633 184 640 170 640 C155 640 137 630 137 614 L137 301 C116 287 98 274 89 268 C87 266 85 265 85 264 C80 260 77 254 77 248 C77 233 92 225 105 225 C111 225 117 226 122 229 C124 230 129 233 137 238 L137 22 C137 7 152 0 166 0 L463 0 C478 0 496 10 496 26 C496 41 481 47 467 47 L200 47 Z " />
<glyph glyph-name="lslash" unicode="&#x142;" horiz-adv-x="600" d="M442 354 C442 369 427 377 414 377 C406 377 397 374 389 369 C380 364 371 357 363 351 L363 614 C362 629 348 637 333 637 L186 637 C171 637 152 627 152 611 C152 597 168 589 182 589 L300 589 L300 308 L242 269 C236 264 230 256 230 248 C230 233 245 225 258 225 C267 225 276 229 286 235 C291 237 295 241 300 244 L300 48 L147 48 C132 48 113 38 113 22 C113 8 129 0 143 0 L454 0 C469 0 488 9 488 25 C488 39 472 48 458 48 L363 48 L363 288 L418 326 L430 333 C436 338 442 346 442 354 L442 354 Z " />
<glyph glyph-name="Nacute" unicode="&#x143;" horiz-adv-x="600" d="M105 640 C90 640 71 630 71 614 L71 22 C71 8 86 0 100 0 C115 0 134 9 134 25 L134 551 L466 260 L466 22 C466 8 481 0 495 0 C510 0 529 9 529 25 L529 618 C529 632 514 640 500 640 C485 640 466 630 466 614 L466 336 L126 633 C121 638 113 640 105 640 L105 640 Z M308 713 C308 696 325 692 339 692 C347 693 354 696 359 701 L434 776 C437 779 439 782 440 786 C441 788 441 790 441 792 C441 809 424 813 410 813 C402 812 395 809 390 804 L315 729 C311 725 308 719 308 713 L308 713 Z " />
<glyph glyph-name="nacute" unicode="&#x144;" horiz-adv-x="600" d="M183 393 L297 393 C368 393 415 334 415 247 L415 22 C415 9 426 0 443 0 C461 0 478 12 478 26 L478 271 C478 365 399 440 301 440 L154 440 C136 440 120 428 120 414 L120 22 C120 10 133 0 150 0 C168 0 183 12 183 26 L183 393 Z M271 538 C271 524 285 517 297 517 C306 517 316 520 322 526 L397 601 C401 605 404 611 404 617 C404 631 390 638 378 638 C369 638 359 635 353 629 L278 554 C274 550 271 544 271 538 L271 538 Z " />
<glyph glyph-name="uni0145" unicode="&#x145;" horiz-adv-x="600" d="M105 640 C90 640 71 630 71 614 L71 22 C71 8 86 0 100 0 C115 0 134 9 134 25 L134 551 L466 260 L466 44 C455 42 444 32 444 20 C444 -1 472 -1 489 -1 L493 -1 C493 -43 485 -77 474 -110 C472 -115 469 -124 469 -127 L469 -130 C469 -142 484 -149 497 -149 C551 -149 557 -6 557 25 C557 39 542 45 529 46 L529 618 C529 632 514 640 500 640 C485 640 466 630 466 614 L466 336 L126 633 C121 638 113 640 105 640 L105 640 Z " />
<glyph glyph-name="uni0146" unicode="&#x146;" horiz-adv-x="600" d="M184 393 L298 393 C369 393 416 334 416 247 L416 43 C404 40 394 32 394 19 C394 -2 422 -2 439 -2 L443 -2 C443 -44 435 -78 424 -111 C422 -116 419 -125 419 -128 L419 -131 C419 -143 434 -150 447 -150 C501 -150 507 -7 507 24 C507 38 492 44 479 45 L479 271 C479 365 400 440 302 440 L155 440 C137 440 121 428 121 414 L121 22 C121 10 134 0 151 0 C169 0 184 12 184 26 L184 393 Z " />
<glyph glyph-name="Ncaron" unicode="&#x147;" horiz-adv-x="600" d="M105 640 C90 640 71 630 71 614 L71 22 C71 8 86 0 100 0 C115 0 134 9 134 25 L134 551 L466 260 L466 22 C466 8 481 0 495 0 C510 0 529 9 529 25 L529 618 C529 632 514 640 500 640 C485 640 466 630 466 614 L466 336 L126 633 C121 638 113 640 105 640 L105 640 Z M297 691 C306 691 316 694 322 700 L397 775 C400 778 402 781 403 785 C404 787 404 789 404 791 C404 805 390 812 378 812 C376 812 373 812 371 811 C364 810 357 808 353 803 C351 801 350 800 348 798 L302 751 L253 800 C251 802 250 803 248 805 C244 809 239 811 233 812 C218 812 196 806 196 787 C196 785 196 784 197 782 C198 779 199 776 202 773 C205 770 208 767 211 764 L277 698 C282 693 290 691 297 691 L297 691 Z " />
<glyph glyph-name="ncaron" unicode="&#x148;" horiz-adv-x="600" d="M183 393 L297 393 C368 393 415 334 415 247 L415 22 C415 9 426 0 443 0 C461 0 478 12 478 26 L478 271 C478 365 399 440 301 440 L154 440 C136 440 120 428 120 414 L120 22 C120 10 133 0 150 0 C168 0 183 12 183 26 L183 393 Z M297 516 C306 516 316 519 322 525 L397 600 C401 604 404 610 404 616 C404 630 390 637 378 637 C369 637 359 634 353 628 L302 576 L248 630 C243 635 235 637 228 637 C214 637 196 628 196 612 C196 607 198 602 202 598 L277 523 C282 518 290 516 297 516 L297 516 Z " />
<glyph glyph-name="napostrophe" unicode="&#x149;" horiz-adv-x="600" d="M184 393 L298 393 C369 393 416 334 416 247 L416 22 C416 9 427 0 444 0 C462 0 479 12 479 26 L479 271 C479 365 400 440 302 440 L155 440 C137 440 121 428 121 414 L121 22 C121 10 134 0 151 0 C169 0 184 12 184 26 L184 393 Z M357 625 C357 640 341 646 327 646 L278 646 C263 646 244 637 244 620 C244 599 272 599 289 599 L293 599 C293 594 293 589 293 584 C291 549 284 519 274 490 C272 485 269 476 269 473 L269 470 C269 458 284 451 297 451 C351 451 357 594 357 625 L357 625 Z " />
<glyph glyph-name="Eng" unicode="&#x14a;" horiz-adv-x="600" d="M528 -26 L528 618 C528 632 513 640 499 640 C484 640 465 630 465 614 L465 336 L125 633 C120 638 112 640 104 640 C89 640 70 630 70 614 L70 22 C70 8 85 0 99 0 C114 0 133 9 133 25 L133 551 L465 260 L465 -15 C465 -105 427 -150 350 -150 C332 -150 317 -162 317 -176 C317 -188 330 -197 347 -197 C457 -197 528 -130 528 -26 L528 -26 Z " />
<glyph glyph-name="eng" unicode="&#x14b;" horiz-adv-x="600" d="M479 -25 L479 270 C479 363 400 440 303 440 L155 440 C137 440 122 428 122 414 L122 22 C122 10 134 0 151 0 C169 0 185 12 185 26 L185 393 L297 393 C365 393 416 339 416 267 L416 -28 C416 -98 371 -149 309 -149 L304 -149 C283 -149 269 -159 269 -174 C269 -187 283 -196 299 -196 C398 -196 479 -119 479 -25 L479 -25 Z " />
<glyph glyph-name="Omacron" unicode="&#x14c;" horiz-adv-x="600" d="M529 218 L529 430 C529 551 427 650 302 650 C175 650 71 549 71 427 L71 214 C71 93 173 -5 298 -5 C425 -5 529 96 529 218 L529 218 Z M302 43 C212 43 134 124 134 218 L134 430 C134 524 208 602 298 602 C390 602 466 523 466 427 L466 214 C466 120 392 43 302 43 L302 43 Z M224 737 L372 737 C387 737 406 747 406 763 C406 777 390 784 376 784 L228 784 C214 784 195 774 195 759 C195 744 211 737 224 737 L224 737 Z " />
<glyph glyph-name="omacron" unicode="&#x14d;" horiz-adv-x="600" d="M185 281 C185 348 236 402 299 402 C364 402 416 345 416 277 L416 164 C416 97 366 43 303 43 C239 43 185 101 185 168 L185 281 Z M122 164 C122 70 200 -5 298 -5 C398 -5 479 73 479 168 L479 281 C479 375 401 450 303 450 C203 450 122 372 122 277 L122 164 Z M224 562 L372 562 C387 562 406 572 406 588 C406 602 390 609 376 609 L228 609 C214 609 195 599 195 584 C195 569 211 562 224 562 L224 562 Z " />
<glyph glyph-name="Obreve" unicode="&#x14e;" horiz-adv-x="600" d="M529 218 L529 430 C529 551 427 650 302 650 C175 650 71 549 71 427 L71 214 C71 93 173 -5 298 -5 C425 -5 529 96 529 218 L529 218 Z M297 691 C353 691 400 728 404 784 C404 803 396 812 376 812 C374 812 371 812 369 811 C356 809 346 799 346 784 L346 774 C346 772 346 770 345 768 C342 751 325 738 302 738 C281 738 262 751 256 770 C255 772 255 774 255 776 C254 778 254 781 254 783 C254 789 253 794 252 798 C249 806 244 810 237 812 C213 812 196 807 196 780 C200 726 243 691 297 691 L297 691 Z M302 43 C212 43 134 124 134 218 L134 430 C134 524 208 602 298 602 C390 602 466 523 466 427 L466 214 C466 120 392 43 302 43 L302 43 Z " />
<glyph glyph-name="obreve" unicode="&#x14f;" horiz-adv-x="600" d="M121 164 C121 70 199 -5 297 -5 C397 -5 478 73 478 168 L478 281 C478 375 400 450 302 450 C202 450 121 372 121 277 L121 164 Z M296 516 C352 516 399 553 403 609 C403 628 395 637 375 637 C373 637 370 637 368 636 C355 634 345 624 345 609 L345 599 C345 597 345 595 344 593 C341 576 324 563 301 563 C280 563 261 576 255 595 C254 597 254 599 254 601 C253 603 253 606 253 608 L253 609 C253 622 249 633 236 637 C212 637 195 632 195 605 C199 551 242 516 296 516 L296 516 Z M184 281 C184 348 235 402 298 402 C363 402 415 345 415 277 L415 164 C415 97 365 43 302 43 C238 43 184 101 184 168 L184 281 Z " />
<glyph glyph-name="Ohungarumlaut" unicode="&#x150;" horiz-adv-x="600" d="M529 218 L529 430 C529 551 427 650 302 650 C175 650 71 549 71 427 L71 214 C71 93 173 -5 298 -5 C425 -5 529 96 529 218 L529 218 Z M302 43 C212 43 134 124 134 218 L134 430 C134 524 208 602 298 602 C390 602 466 523 466 427 L466 214 C466 120 392 43 302 43 L302 43 Z M221 713 C221 699 235 692 247 692 C256 692 266 695 272 701 L347 776 C351 780 354 786 354 792 C354 806 340 813 328 813 C319 813 309 810 303 804 L228 729 C224 725 221 719 221 713 L221 713 Z M396 713 C396 699 410 692 422 692 C431 692 441 695 447 701 L522 776 C526 780 529 786 529 792 C529 806 515 813 503 813 C494 813 484 810 478 804 L403 729 C399 725 396 719 396 713 L396 713 Z " />
<glyph glyph-name="ohungarumlaut" unicode="&#x151;" horiz-adv-x="600" d="M185 281 C185 348 236 402 299 402 C364 402 416 345 416 277 L416 164 C416 97 366 43 303 43 C239 43 185 101 185 168 L185 281 Z M122 164 C122 70 200 -5 298 -5 C398 -5 479 73 479 168 L479 281 C479 375 401 450 303 450 C203 450 122 372 122 277 L122 164 Z M221 538 C221 524 235 517 247 517 C256 517 266 520 272 526 L347 601 C351 605 354 611 354 617 C354 631 340 638 328 638 C319 638 309 635 303 629 L228 554 C224 550 221 544 221 538 L221 538 Z M396 538 C396 524 410 517 422 517 C431 517 441 520 447 526 L522 601 C526 605 529 611 529 617 C529 631 515 638 503 638 C494 638 484 635 478 629 L403 554 C399 550 396 544 396 538 L396 538 Z " />
<glyph glyph-name="OE" unicode="&#x152;" horiz-adv-x="600" d="M532 623 L332 623 C315 623 300 613 300 595 C274 614 242 623 210 623 C129 623 49 565 49 479 L49 123 C49 35 116 -24 202 -24 C243 -24 285 -10 315 20 C333 -8 367 -23 401 -23 L526 -23 C540 -23 558 -14 558 2 C558 24 531 25 515 25 C489 25 463 22 437 22 C398 22 358 28 358 77 L358 377 L453 377 C467 377 485 386 485 402 C485 424 460 423 445 423 L358 423 L358 577 L511 577 C528 577 558 577 558 602 C558 616 544 623 532 623 L532 623 Z M202 577 C262 577 299 531 299 473 L299 123 C299 66 263 22 204 22 C140 22 107 73 107 132 L107 473 C107 536 135 577 202 577 L202 577 Z " />
<glyph glyph-name="oe" unicode="&#x153;" horiz-adv-x="600" d="M53 79 C74 22 125 -5 184 -5 C225 -5 268 8 297 39 C335 -7 383 -5 437 -5 C455 -5 480 -1 480 22 C480 45 451 45 431 44 C425 43 421 43 417 43 C367 43 330 67 330 121 L330 195 L510 195 C527 195 555 197 555 221 L555 317 C555 398 498 443 420 443 C376 443 331 427 302 393 C275 426 233 443 191 443 C121 443 45 394 45 318 L45 117 C45 103 52 92 53 79 L53 79 Z M185 395 C242 395 270 352 270 299 L270 117 C270 68 237 43 190 43 C135 43 104 77 104 132 C104 151 105 170 105 189 L105 308 C105 358 132 395 185 395 L185 395 Z M330 306 C330 358 361 395 415 395 C466 395 496 364 496 313 L496 243 L330 243 L330 306 Z " />
<glyph glyph-name="Racute" unicode="&#x154;" horiz-adv-x="600" d="M330 345 L341 345 C439 345 510 407 510 492 C510 575 442 640 357 640 L134 640 C117 640 101 628 101 614 L101 22 C101 10 113 0 130 0 C147 0 164 12 164 26 L164 592 L353 592 C405 592 446 546 446 488 C446 427 398 393 313 393 L281 393 C264 393 253 383 253 370 C253 365 254 360 258 354 L447 13 C452 3 460 0 468 0 C488 0 510 17 510 31 L330 345 Z M296 713 C296 696 313 692 327 692 C335 693 342 696 347 701 L422 776 C425 779 427 782 428 786 C429 788 429 790 429 792 C429 809 412 813 398 813 C390 812 383 809 378 804 L303 729 C299 725 296 719 296 713 L296 713 Z " />
<glyph glyph-name="racute" unicode="&#x155;" horiz-adv-x="600" d="M192 278 L192 50 L127 50 C112 50 93 40 93 23 C93 8 109 0 123 0 L368 0 C383 0 402 9 402 26 C402 41 386 50 372 50 L255 50 L255 249 C255 336 298 400 358 400 C385 400 402 412 402 427 C402 440 389 450 373 450 C274 450 192 372 192 278 L192 278 Z M324 538 C324 524 338 517 350 517 C359 517 369 520 375 526 L450 601 C454 605 457 611 457 617 C457 631 443 638 431 638 C422 638 412 635 406 629 L331 554 C327 550 324 544 324 538 L324 538 Z " />
<glyph glyph-name="uni0156" unicode="&#x156;" horiz-adv-x="600" d="M330 345 L341 345 C439 345 510 407 510 492 C510 575 442 640 357 640 L134 640 C117 640 101 628 101 614 L101 22 C101 10 113 0 130 0 C147 0 164 12 164 26 L164 592 L353 592 C405 592 446 546 446 488 C446 427 398 393 313 393 L281 393 C264 393 253 383 253 370 C253 365 254 360 258 354 C295 288 406 87 435 35 C431 31 429 26 429 20 C429 -1 457 -1 474 -1 L478 -1 C478 -43 470 -77 459 -110 C457 -115 454 -124 454 -127 L454 -130 C454 -142 469 -149 482 -149 C536 -149 542 -6 542 25 C542 40 526 46 512 46 L501 46 C477 89 343 323 330 345 L330 345 Z " />
<glyph glyph-name="uni0157" unicode="&#x157;" horiz-adv-x="600" d="M225 278 L225 50 L160 50 C145 50 126 40 126 23 C126 8 142 0 156 0 L373 0 C373 -41 365 -75 354 -107 C352 -112 349 -121 349 -124 L349 -127 C349 -139 364 -146 377 -146 C430 -146 437 -10 437 28 C437 44 418 50 405 50 L288 50 L288 249 C288 331 326 392 380 399 C384 400 387 400 391 400 C418 400 435 412 435 427 C435 440 422 450 406 450 C307 450 225 372 225 278 L225 278 Z " />
<glyph glyph-name="Rcaron" unicode="&#x158;" horiz-adv-x="600" d="M330 345 L341 345 C439 345 510 407 510 492 C510 575 442 640 357 640 L134 640 C117 640 101 628 101 614 L101 22 C101 10 113 0 130 0 C147 0 164 12 164 26 L164 592 L353 592 C405 592 446 546 446 488 C446 427 398 393 313 393 L281 393 C264 393 253 383 253 370 C253 365 254 360 258 354 L447 13 C452 3 460 0 468 0 C488 0 510 17 510 31 L330 345 Z M297 691 C306 691 316 694 322 700 L397 775 C400 778 402 781 403 785 C404 787 404 789 404 791 C404 805 390 812 378 812 C376 812 373 812 371 811 C364 810 357 808 353 803 C351 801 350 800 348 798 L302 751 L253 800 C251 802 250 803 248 805 C244 809 239 811 233 812 C218 812 196 806 196 787 C196 785 196 784 197 782 C198 779 199 776 202 773 C205 770 208 767 211 764 L277 698 C282 693 290 691 297 691 L297 691 Z " />
<glyph glyph-name="rcaron" unicode="&#x159;" horiz-adv-x="600" d="M220 278 L220 50 L155 50 C140 50 121 40 121 23 C121 8 137 0 151 0 L396 0 C411 0 430 9 430 26 C430 41 414 50 400 50 L283 50 L283 249 C283 336 326 400 386 400 C413 400 430 412 430 427 C430 440 417 450 401 450 C302 450 220 372 220 278 L220 278 Z M316 516 C325 516 335 519 341 525 L416 600 C420 604 423 610 423 616 C423 630 409 637 397 637 C388 637 377 634 371 628 L320 576 L266 630 C261 635 253 637 246 637 C232 637 214 628 214 612 C214 607 216 602 220 598 L295 523 C300 518 308 516 316 516 L316 516 Z " />
<glyph glyph-name="Sacute" unicode="&#x15a;" horiz-adv-x="600" d="M290 -5 C423 -5 513 68 513 181 C513 303 410 339 316 372 C209 410 175 437 175 485 C175 548 231 597 300 597 C344 597 375 591 410 574 C423 568 430 566 437 566 C456 566 471 577 471 590 C471 618 394 645 320 645 C200 645 112 574 112 479 C112 412 155 373 285 327 C367 298 449 270 449 173 C449 92 391 43 295 43 C246 43 198 46 149 95 L147 97 C134 110 124 111 119 111 C103 111 87 98 87 86 C87 78 93 71 106 58 L109 55 C151 13 218 -5 290 -5 L290 -5 Z M308 713 C308 699 322 692 334 692 C343 692 353 695 359 701 L434 776 C438 780 441 786 441 792 C441 806 427 813 415 813 C406 813 396 810 390 804 L315 729 C311 725 308 719 308 713 L308 713 Z " />
<glyph glyph-name="sacute" unicode="&#x15b;" horiz-adv-x="600" d="M455 124 C455 181 419 218 273 282 C249 292 228 313 228 340 C228 374 259 399 299 399 C313 399 327 396 349 387 C360 381 379 374 391 374 C406 374 422 386 422 397 C422 421 351 446 299 446 C223 446 164 393 164 332 C164 270 226 244 234 241 C365 187 392 160 392 118 C392 70 357 42 291 42 C272 42 246 44 220 66 C216 69 212 72 208 76 L206 78 C196 88 187 89 182 89 C164 89 149 76 149 64 C149 35 235 -5 307 -5 C390 -5 455 46 455 124 L455 124 Z M308 538 C308 521 325 517 339 517 C347 518 354 521 359 526 L434 601 C437 604 439 607 440 611 C441 613 441 615 441 617 C441 634 424 638 410 638 C402 637 395 634 390 629 L315 554 C311 550 308 544 308 538 L308 538 Z " />
<glyph glyph-name="Scircumflex" unicode="&#x15c;" horiz-adv-x="600" d="M290 -5 C423 -5 513 68 513 181 C513 303 410 339 316 372 C209 410 175 437 175 485 C175 548 231 597 300 597 C344 597 375 591 410 574 C423 568 430 566 437 566 C456 566 471 577 471 590 C471 618 394 645 320 645 C200 645 112 574 112 479 C112 412 155 373 285 327 C367 298 449 270 449 173 C449 92 391 43 295 43 C246 43 198 46 149 95 L147 97 C134 110 124 111 119 111 C103 111 87 98 87 86 C87 78 93 71 106 58 L109 55 C151 13 218 -5 290 -5 L290 -5 Z M298 752 L352 698 C357 693 365 691 372 691 C386 691 404 700 404 716 C404 721 402 726 398 730 L323 805 C318 810 310 812 303 812 C294 812 284 809 278 803 L203 728 C199 724 196 718 196 712 C196 698 210 691 222 691 C231 691 241 694 247 700 L298 752 Z " />
<glyph glyph-name="scircumflex" unicode="&#x15d;" horiz-adv-x="600" d="M455 124 C455 181 419 218 273 282 C249 292 228 313 228 340 C228 374 259 399 299 399 C313 399 327 396 349 387 C360 381 379 374 391 374 C406 374 422 386 422 397 C422 421 351 446 299 446 C223 446 164 393 164 332 C164 270 226 244 234 241 C365 187 392 160 392 118 C392 70 357 42 291 42 C272 42 246 44 220 66 C216 69 212 72 208 76 L206 78 C196 88 187 89 182 89 C164 89 149 76 149 64 C149 35 235 -5 307 -5 C390 -5 455 46 455 124 L455 124 Z M298 577 L347 528 C349 526 350 525 352 523 C356 519 361 517 367 516 C382 516 404 522 404 541 C404 543 404 544 403 546 C402 549 401 552 398 555 C395 558 392 561 389 564 L323 630 C318 635 310 637 303 637 C294 637 284 634 278 628 L203 553 C200 550 198 547 197 543 C196 541 196 539 196 537 C196 523 210 516 222 516 C224 516 227 516 229 517 C236 518 243 520 247 525 C249 527 250 528 252 530 L298 577 Z " />
<glyph glyph-name="Scedilla" unicode="&#x15e;" horiz-adv-x="600" d="M303 -153 C360 -153 407 -106 407 -53 C407 -29 398 -8 383 9 C463 35 513 97 513 181 C513 303 410 339 316 372 C209 410 175 437 175 485 C175 548 231 597 300 597 C339 597 368 592 398 579 C402 578 406 576 410 574 C419 570 425 568 430 567 C432 566 435 566 437 566 C456 566 471 577 471 590 C471 618 394 645 320 645 C200 645 112 574 112 479 C112 412 155 373 285 327 C367 298 449 270 449 173 C449 92 391 43 295 43 C250 43 206 46 161 84 C157 87 153 91 149 95 L147 97 C134 110 124 111 119 111 C103 111 87 98 87 86 C87 78 93 71 106 58 L109 55 C152 12 223 -5 283 -5 L292 -5 C316 -5 335 -20 341 -42 C342 -47 343 -51 343 -56 C343 -84 325 -106 302 -106 C294 -106 289 -103 282 -97 C268 -86 261 -84 253 -84 C233 -84 218 -96 218 -109 C218 -131 264 -153 303 -153 L303 -153 Z " />
<glyph glyph-name="scedilla" unicode="&#x15f;" horiz-adv-x="600" d="M317 -152 C374 -152 421 -105 421 -52 C421 -49 421 -45 420 -42 C418 -20 407 1 391 16 C430 37 455 75 455 124 C455 181 419 218 273 282 C248 293 228 312 228 340 C228 374 259 399 299 399 C313 399 327 396 349 387 C351 386 353 385 356 384 L363 381 C371 378 381 374 391 374 C406 374 422 386 422 397 C422 421 351 446 299 446 C223 446 164 393 164 332 C164 270 226 244 234 241 C365 187 392 160 392 118 C392 75 364 48 312 43 L293 43 C290 43 287 43 284 42 C251 43 229 55 206 78 C199 85 193 87 188 88 C186 89 184 89 182 89 C164 89 149 76 149 64 C149 40 210 7 272 -2 C280 -3 288 -4 296 -5 C299 -5 303 -5 307 -5 C308 -5 310 -5 311 -5 C313 -5 314 -5 316 -5 C337 -9 353 -25 356 -46 C357 -49 357 -52 357 -55 C357 -83 339 -105 316 -105 C310 -105 306 -103 302 -101 C300 -99 298 -98 296 -96 C287 -89 279 -83 267 -83 C247 -83 232 -95 232 -108 C232 -130 278 -152 317 -152 L317 -152 Z " />
<glyph glyph-name="Scaron" unicode="&#x160;" horiz-adv-x="600" d="M290 -5 C423 -5 513 68 513 181 C513 303 410 339 316 372 C209 410 175 437 175 485 C175 548 231 597 300 597 C344 597 375 591 410 574 C423 568 430 566 437 566 C456 566 471 577 471 590 C471 618 394 645 320 645 C200 645 112 574 112 479 C112 412 155 373 285 327 C367 298 449 270 449 173 C449 92 391 43 295 43 C246 43 198 46 149 95 L147 97 C134 110 124 111 119 111 C103 111 87 98 87 86 C87 78 93 71 106 58 L109 55 C151 13 218 -5 290 -5 L290 -5 Z M297 691 C306 691 316 694 322 700 L397 775 C401 779 404 785 404 791 C404 805 390 812 378 812 C369 812 359 809 353 803 L302 751 L248 805 C243 810 235 812 228 812 C214 812 196 803 196 787 C196 782 198 777 202 773 L277 698 C282 693 290 691 297 691 L297 691 Z " />
<glyph glyph-name="scaron" unicode="&#x161;" horiz-adv-x="600" d="M455 124 C455 181 419 218 273 282 C249 292 228 313 228 340 C228 374 259 399 299 399 C313 399 327 396 349 387 C360 381 379 374 391 374 C406 374 422 386 422 397 C422 421 351 446 299 446 C223 446 164 393 164 332 C164 270 226 244 234 241 C365 187 392 160 392 118 C392 70 357 42 291 42 C272 42 246 44 220 66 C216 69 212 72 208 76 L206 78 C196 88 187 89 182 89 C164 89 149 76 149 64 C149 35 235 -5 307 -5 C390 -5 455 46 455 124 L455 124 Z M297 516 C306 516 316 519 322 525 L397 600 C400 603 402 606 403 610 C404 612 404 614 404 616 C404 630 390 637 378 637 C376 637 373 637 371 636 C364 635 357 633 353 628 C351 626 350 625 348 623 L302 576 L253 625 C251 627 250 628 248 630 C244 634 239 636 233 637 C218 637 196 631 196 612 C196 610 196 609 197 607 C198 604 199 601 202 598 C205 595 208 592 211 589 L277 523 C282 518 290 516 297 516 L297 516 Z " />
<glyph glyph-name="uni0162" unicode="&#x162;" horiz-adv-x="600" d="M105 592 L271 592 L271 29 C270 26 269 23 269 20 C269 -1 297 -1 314 -1 L318 -1 C318 -43 310 -77 299 -110 C297 -115 294 -124 294 -127 L294 -130 C294 -142 309 -149 322 -149 C376 -149 382 -6 382 25 C382 40 366 46 352 46 L334 46 L334 592 L491 592 C506 592 525 602 525 618 C525 633 509 640 495 640 L109 640 C94 640 75 630 75 614 C75 599 91 592 105 592 L105 592 Z " />
<glyph glyph-name="uni0163" unicode="&#x163;" horiz-adv-x="600" d="M258 538 C240 538 224 527 224 513 L224 440 L158 440 C140 440 124 429 124 415 C124 403 137 392 153 392 L224 392 L224 164 C224 70 302 -5 402 -5 C402 -46 394 -80 383 -112 C381 -117 378 -126 378 -129 L378 -132 C378 -144 393 -151 406 -151 C460 -151 466 -8 466 23 C466 38 450 44 436 44 L387 44 C386 44 385 44 384 44 C330 51 287 107 287 171 L287 392 L487 392 C505 392 521 404 521 418 C521 430 508 440 492 440 L287 440 L287 516 C287 528 274 538 258 538 L258 538 Z " />
<glyph glyph-name="Tcaron" unicode="&#x164;" horiz-adv-x="600" d="M105 592 L271 592 L271 22 C271 7 286 0 300 0 C315 0 334 10 334 26 L334 592 L491 592 C506 592 525 602 525 618 C525 633 509 640 495 640 L109 640 C94 640 75 630 75 614 C75 599 91 592 105 592 L105 592 Z M297 691 C306 691 316 694 322 700 L397 775 C401 779 404 785 404 791 C404 805 390 812 378 812 C369 812 359 809 353 803 L302 751 L248 805 C243 810 235 812 228 812 C214 812 196 803 196 787 C196 782 198 777 202 773 L277 698 C282 693 290 691 297 691 L297 691 Z " />
<glyph glyph-name="tcaron" unicode="&#x165;" horiz-adv-x="600" d="M258 538 C240 538 224 527 224 513 L224 440 L158 440 C140 440 124 429 124 415 C124 403 137 392 153 392 L224 392 L224 164 C224 70 302 -5 400 -5 C418 -5 434 6 434 20 C434 34 420 43 396 43 C330 43 287 110 287 171 L287 392 L487 392 C505 392 521 404 521 418 C521 430 508 440 492 440 L287 440 L287 516 C287 528 274 538 258 538 L258 538 Z M557 625 C557 640 541 646 527 646 L478 646 C463 646 444 637 444 620 C444 599 472 599 489 599 L493 599 C493 594 493 589 493 584 C491 549 484 519 474 490 C472 485 469 476 469 473 L469 470 C469 458 484 451 497 451 C551 451 557 594 557 625 L557 625 Z " />
<glyph glyph-name="Tbar" unicode="&#x166;" horiz-adv-x="600" d="M105 592 L271 592 L271 22 C271 7 286 0 300 0 C315 0 334 10 334 26 L334 592 L491 592 C506 592 525 602 525 618 C525 633 509 640 495 640 L109 640 C94 640 75 630 75 614 C75 599 91 592 105 592 L105 592 Z M224 737 L372 737 C387 737 406 747 406 763 C406 777 390 784 376 784 L228 784 C214 784 195 774 195 759 C195 744 211 737 224 737 L224 737 Z " />
<glyph glyph-name="tbar" unicode="&#x167;" horiz-adv-x="600" d="M182 514 L224 514 C224 513 224 513 224 513 L224 440 L158 440 C140 440 124 429 124 415 C124 403 137 392 153 392 L224 392 L224 164 C224 70 302 -5 400 -5 C418 -5 434 6 434 20 C434 34 420 43 396 43 C337 43 287 102 287 171 L287 392 L487 392 C505 392 521 404 521 418 C521 430 508 440 492 440 L287 440 L287 514 L330 514 C345 514 364 524 364 540 C364 554 348 561 334 561 L186 561 C172 561 153 551 153 536 C153 521 169 514 182 514 L182 514 Z " />
<glyph glyph-name="Utilde" unicode="&#x168;" horiz-adv-x="600" d="M71 614 L71 214 C71 92 172 -5 298 -5 C425 -5 529 95 529 218 L529 618 C529 630 517 640 500 640 C482 640 466 628 466 614 L466 218 C466 121 392 43 301 43 C208 43 134 125 134 229 L134 618 C134 630 122 640 105 640 C87 640 71 628 71 614 L71 614 Z M354 756 C342 756 333 764 321 775 C308 787 292 802 261 805 C222 805 176 790 171 745 C171 716 180 709 208 709 C221 711 226 721 230 739 C233 752 236 758 246 758 C256 758 264 753 272 746 C298 724 315 711 341 709 C379 709 424 725 429 769 C429 791 424 805 399 805 C376 805 373 790 373 788 C369 761 365 756 354 756 L354 756 Z " />
<glyph glyph-name="utilde" unicode="&#x169;" horiz-adv-x="600" d="M121 415 L121 169 C121 75 199 0 297 0 L445 0 C463 0 478 11 478 25 L478 418 C478 430 465 440 449 440 C431 440 415 429 415 415 L415 48 L302 48 C233 48 184 108 184 193 L184 418 C183 431 172 440 156 440 C138 440 121 429 121 415 L121 415 Z M353 581 C341 581 332 589 320 600 C307 612 291 627 260 630 C221 630 175 615 170 570 C170 541 179 534 207 534 C220 536 225 546 229 564 C230 567 230 569 231 571 C233 579 237 583 245 583 C255 583 263 578 271 571 C297 549 314 536 340 534 C378 534 423 550 428 594 C428 616 423 630 398 630 C375 630 372 615 372 613 C368 586 364 581 353 581 L353 581 Z " />
<glyph glyph-name="Umacron" unicode="&#x16a;" horiz-adv-x="600" d="M71 614 L71 214 C71 92 172 -5 298 -5 C425 -5 529 95 529 218 L529 618 C529 630 517 640 500 640 C482 640 466 628 466 614 L466 218 C466 121 392 43 301 43 C208 43 134 125 134 229 L134 618 C134 630 122 640 105 640 C87 640 71 628 71 614 L71 614 Z M224 737 L372 737 C387 737 406 747 406 763 C406 777 390 784 376 784 L228 784 C214 784 195 774 195 759 C195 744 211 737 224 737 L224 737 Z " />
<glyph glyph-name="umacron" unicode="&#x16b;" horiz-adv-x="600" d="M122 415 L122 169 C122 75 200 0 298 0 L446 0 C464 0 479 11 479 25 L479 418 C479 430 466 440 450 440 C432 440 416 429 416 415 L416 48 L303 48 C234 48 185 108 185 193 L185 418 C184 431 173 440 157 440 C139 440 122 429 122 415 L122 415 Z M224 562 L372 562 C387 562 406 572 406 588 C406 602 390 609 376 609 L228 609 C214 609 195 599 195 584 C195 569 211 562 224 562 L224 562 Z " />
<glyph glyph-name="Ubreve" unicode="&#x16c;" horiz-adv-x="600" d="M71 614 L71 214 C71 92 172 -5 298 -5 C425 -5 529 95 529 218 L529 618 C529 630 517 640 500 640 C482 640 466 628 466 614 L466 218 C466 121 392 43 301 43 C208 43 134 125 134 229 L134 618 C134 630 122 640 105 640 C87 640 71 628 71 614 L71 614 Z M297 691 C353 691 400 728 404 784 C404 803 396 812 376 812 C374 812 371 812 369 811 C356 809 346 799 346 784 L346 774 C346 772 346 770 345 768 C342 751 325 738 302 738 C281 738 262 751 256 770 C255 772 255 774 255 776 C254 778 254 781 254 783 C254 789 253 794 252 798 C249 806 244 810 237 812 C213 812 196 807 196 780 C200 726 243 691 297 691 L297 691 Z " />
<glyph glyph-name="ubreve" unicode="&#x16d;" horiz-adv-x="600" d="M121 415 L121 169 C121 75 199 0 297 0 L445 0 C463 0 478 11 478 25 L478 418 C478 430 465 440 449 440 C431 440 415 429 415 415 L415 48 L302 48 C233 48 184 108 184 193 L184 418 C183 431 172 440 156 440 C138 440 121 429 121 415 L121 415 Z M296 516 C352 516 399 553 403 609 C403 628 395 637 375 637 C373 637 370 637 368 636 C355 634 345 624 345 609 L345 599 C345 597 345 595 344 593 C341 576 324 563 301 563 C280 563 261 576 255 595 C254 597 254 599 254 601 C253 603 253 606 253 608 L253 609 C253 622 249 633 236 637 C212 637 195 632 195 605 C199 551 242 516 296 516 L296 516 Z " />
<glyph glyph-name="Uring" unicode="&#x16e;" horiz-adv-x="600" d="M71 614 L71 214 C71 92 172 -5 298 -5 C425 -5 529 95 529 218 L529 618 C529 630 517 640 500 640 C482 640 466 628 466 614 L466 218 C466 121 392 43 301 43 C208 43 134 125 134 229 L134 618 C134 630 122 640 105 640 C87 640 71 628 71 614 L71 614 Z M343 711 C343 686 326 662 302 662 C277 662 258 688 258 715 C258 739 275 763 299 763 C324 763 343 738 343 711 L343 711 Z M406 715 C406 770 357 811 302 811 C245 811 195 768 195 711 C195 656 243 615 298 615 C356 615 406 659 406 715 L406 715 Z " />
<glyph glyph-name="uring" unicode="&#x16f;" horiz-adv-x="600" d="M122 415 L122 169 C122 75 200 0 298 0 L446 0 C464 0 479 11 479 25 L479 418 C479 430 466 440 450 440 C432 440 416 429 416 415 L416 48 L303 48 C234 48 185 108 185 193 L185 418 C184 431 173 440 157 440 C139 440 122 429 122 415 L122 415 Z M343 536 C343 511 326 487 302 487 C277 487 258 513 258 540 C258 564 275 588 299 588 C324 588 343 563 343 536 L343 536 Z M406 540 C406 595 357 636 302 636 C245 636 195 593 195 536 C195 481 243 440 298 440 C356 440 406 484 406 540 L406 540 Z " />
<glyph glyph-name="Uhungarumlaut" unicode="&#x170;" horiz-adv-x="600" d="M71 614 L71 214 C71 92 172 -5 298 -5 C425 -5 529 95 529 218 L529 618 C529 630 517 640 500 640 C482 640 466 628 466 614 L466 218 C466 121 392 43 301 43 C208 43 134 125 134 229 L134 618 C134 630 122 640 105 640 C87 640 71 628 71 614 L71 614 Z M221 713 C221 699 235 692 247 692 C256 692 266 695 272 701 L347 776 C351 780 354 786 354 792 C354 806 340 813 328 813 C319 813 309 810 303 804 L228 729 C224 725 221 719 221 713 L221 713 Z M396 713 C396 699 410 692 422 692 C431 692 441 695 447 701 L522 776 C526 780 529 786 529 792 C529 806 515 813 503 813 C494 813 484 810 478 804 L403 729 C399 725 396 719 396 713 L396 713 Z " />
<glyph glyph-name="uhungarumlaut" unicode="&#x171;" horiz-adv-x="600" d="M122 415 L122 169 C122 75 200 0 298 0 L446 0 C464 0 479 11 479 25 L479 418 C479 430 466 440 450 440 C432 440 416 429 416 415 L416 48 L303 48 C234 48 185 108 185 193 L185 418 C184 431 173 440 157 440 C139 440 122 429 122 415 L122 415 Z M221 538 C221 524 235 517 247 517 C256 517 266 520 272 526 L347 601 C351 605 354 611 354 617 C354 631 340 638 328 638 C319 638 309 635 303 629 L228 554 C224 550 221 544 221 538 L221 538 Z M396 538 C396 524 410 517 422 517 C431 517 441 520 447 526 L522 601 C526 605 529 611 529 617 C529 631 515 638 503 638 C494 638 484 635 478 629 L403 554 C399 550 396 544 396 538 L396 538 Z " />
<glyph glyph-name="Uogonek" unicode="&#x172;" horiz-adv-x="600" d="M71 614 L71 214 C71 117 135 36 225 6 C210 -11 201 -32 201 -55 C201 -106 245 -151 300 -151 C341 -151 391 -126 391 -103 C391 -91 379 -82 362 -82 C351 -82 343 -85 329 -96 C322 -101 317 -104 309 -104 C284 -104 264 -80 264 -52 C264 -30 276 -11 294 -5 C306 -5 317 -4 329 -3 C331 -3 334 -3 336 -2 C339 -2 341 -1 343 -1 C349 0 355 2 360 3 C457 30 529 116 529 218 L529 618 C529 630 517 640 500 640 C482 640 466 628 466 614 L466 218 C466 127 401 53 319 44 L309 44 C304 44 300 44 295 43 C205 47 134 127 134 229 L134 618 C134 630 122 640 105 640 C87 640 71 628 71 614 L71 614 Z " />
<glyph glyph-name="uogonek" unicode="&#x173;" horiz-adv-x="600" d="M121 415 L121 169 C121 75 199 0 297 0 L320 0 C313 -11 307 -24 305 -38 C304 -43 304 -47 304 -52 C304 -103 348 -148 403 -148 C444 -148 494 -123 494 -100 C494 -88 482 -79 465 -79 C454 -79 446 -82 432 -93 C425 -98 420 -101 412 -101 C387 -101 367 -77 367 -49 C367 -26 381 -5 400 -1 C402 0 405 0 407 0 L445 0 C463 0 478 11 478 25 L478 418 C478 430 465 440 449 440 C431 440 415 429 415 415 L415 48 L302 48 C238 48 191 100 185 175 C184 181 184 187 184 193 L184 418 C183 431 172 440 156 440 C138 440 121 429 121 415 L121 415 Z " />
<glyph glyph-name="Wcircumflex" unicode="&#x174;" horiz-adv-x="600" d="M440 129 L329 409 C325 419 314 424 304 424 C291 424 278 417 273 405 C255 359 181 173 163 127 L81 618 C79 631 66 637 54 637 C39 637 21 627 21 611 L21 608 L121 14 C123 1 136 -5 148 -5 C161 -5 174 2 179 14 C199 66 280 269 300 321 L423 10 C427 0 438 -5 448 -5 C462 -5 477 3 480 18 L581 615 C581 629 567 637 554 637 C540 637 525 629 522 614 L440 129 Z M298 752 L352 698 C357 693 365 691 372 691 C386 691 404 700 404 716 C404 721 402 726 398 730 L323 805 C318 810 310 812 303 812 C294 812 284 809 278 803 L203 728 C199 724 196 718 196 712 C196 698 210 691 222 691 C231 691 241 694 247 700 L298 752 Z " />
<glyph glyph-name="wcircumflex" unicode="&#x175;" horiz-adv-x="600" d="M418 106 L327 310 C323 319 313 323 303 323 C291 323 278 317 273 306 C258 272 199 139 184 105 L103 433 C100 444 88 449 78 449 C64 449 46 440 46 424 L147 12 C150 1 162 -4 172 -4 C184 -4 197 2 202 13 C218 50 283 194 299 231 L398 9 C402 0 412 -4 422 -4 C435 -4 450 3 453 17 L554 428 C554 442 540 449 528 449 C515 449 500 442 497 428 L418 106 Z M298 577 L352 523 C357 518 365 516 372 516 C386 516 404 525 404 541 C404 546 402 551 398 555 L323 630 C318 635 310 637 303 637 C294 637 284 634 278 628 L203 553 C199 549 196 543 196 537 C196 523 210 516 222 516 C231 516 241 519 247 525 L298 577 Z " />
<glyph glyph-name="Ycircumflex" unicode="&#x176;" horiz-adv-x="600" d="M301 395 L129 635 C124 642 114 645 105 645 C89 645 71 635 71 619 C71 615 72 611 75 607 L268 337 L268 22 C268 8 283 0 297 0 C312 0 331 9 331 25 L331 340 L523 609 C526 613 528 619 528 623 C528 637 513 645 499 645 C488 645 477 640 471 632 L301 395 Z M298 752 L352 698 C357 693 365 691 372 691 C386 691 404 700 404 716 C404 721 402 726 398 730 L323 805 C318 810 310 812 303 812 C294 812 284 809 278 803 L203 728 C199 724 196 718 196 712 C196 698 210 691 222 691 C231 691 241 694 247 700 L298 752 Z " />
<glyph glyph-name="ycircumflex" unicode="&#x177;" horiz-adv-x="600" d="M132 450 C114 450 96 441 96 425 C96 423 244 76 281 -3 L262 -63 C238 -135 217 -165 183 -175 C179 -176 175 -176 171 -177 C161 -178 143 -182 143 -200 C143 -216 157 -223 179 -223 C235 -223 279 -177 298 -127 C299 -125 300 -123 300 -120 C307 -102 321 -63 337 -13 C341 -9 341 -8 341 -3 C395 161 480 426 480 438 C480 443 466 450 454 450 C450 450 446 449 442 448 C433 445 426 440 423 431 C420 420 416 410 413 399 L309 81 C265 187 187 359 160 419 C157 424 155 430 153 436 C152 438 151 440 151 440 C147 448 140 450 132 450 L132 450 Z M298 577 L346 529 C348 527 350 525 352 523 C353 522 353 522 354 521 L356 520 C358 519 360 518 363 517 C364 517 364 517 369 517 C371 517 374 517 378 517 C384 518 390 520 397 526 C398 526 399 527 399 528 L400 529 C401 530 401 531 403 534 C403 535 403 536 404 542 C404 543 404 544 403 547 C402 549 402 550 398 555 C396 557 394 559 392 561 L325 628 C324 629 324 629 323 630 C319 634 315 635 310 636 L308 637 C301 637 296 636 290 635 L287 634 L286 634 C284 633 280 630 278 628 L203 553 C202 552 201 550 200 549 C198 546 197 544 196 540 C196 527 201 521 213 517 C215 517 217 516 220 516 L226 516 C227 516 228 517 230 517 C232 518 237 520 245 523 C246 524 246 524 247 525 L298 577 Z " />
<glyph glyph-name="Ydieresis" unicode="&#x178;" horiz-adv-x="600" d="M301 395 L129 635 C124 642 114 645 105 645 C89 645 71 635 71 619 C71 615 72 611 75 607 L268 337 L268 22 C268 8 283 0 297 0 C312 0 331 9 331 25 L331 340 L523 609 C526 613 528 619 528 623 C528 637 513 645 499 645 C488 645 477 640 471 632 L301 395 Z M344 736 C344 734 344 734 344 733 C344 732 345 731 345 730 C345 730 346 729 346 727 C347 726 347 726 348 725 C349 724 350 723 353 720 C354 719 355 719 356 718 L357 718 C358 717 358 717 359 717 L360 717 C362 716 362 716 363 715 C364 715 365 715 366 715 C366 715 367 715 369 714 L370 714 C370 714 371 714 372 714 C373 714 373 714 374 714 L375 714 C376 714 376 714 377 714 C378 714 378 714 379 714 C381 715 383 715 386 716 L387 716 C390 717 391 718 392 718 C393 719 394 719 395 720 C396 720 396 721 397 721 L398 722 C399 723 399 723 402 725 C403 726 403 727 404 729 C405 730 405 731 406 732 C406 733 406 733 406 734 C407 736 407 737 407 738 L407 779 C407 781 407 781 407 782 C407 783 407 783 406 784 C406 785 406 785 405 787 L405 788 C403 790 403 791 402 792 C401 792 401 793 398 795 L397 796 C396 796 396 797 395 797 L394 797 C393 798 392 798 390 799 L389 799 C388 800 388 800 387 800 L386 800 C385 800 385 800 383 801 L381 801 C380 801 380 801 379 801 L378 801 C378 801 377 801 375 801 C374 801 373 801 372 800 L371 800 C371 800 371 800 370 800 L369 800 C367 799 367 799 366 799 L365 799 C365 799 364 799 364 798 L363 798 C362 798 361 797 359 796 C358 796 358 796 354 793 L353 793 C352 791 352 791 349 789 L349 788 L348 787 C347 786 347 786 347 786 L347 785 C346 784 346 783 345 782 C345 781 345 780 344 779 L344 778 C344 776 344 776 344 776 L344 736 Z M194 736 C194 728 199 722 206 718 L207 718 C209 717 211 716 213 715 C217 715 221 714 224 714 C226 714 229 714 231 715 C234 715 236 715 238 717 C239 717 239 717 241 718 L242 718 C244 719 244 719 244 719 L245 720 C245 720 246 720 247 721 C247 721 248 722 249 722 L249 723 L250 723 C251 724 251 725 253 727 L254 728 C254 729 255 729 255 730 C255 730 255 731 256 734 C257 734 257 735 257 737 L257 779 C257 781 257 781 257 781 L257 782 C257 783 257 783 256 784 L256 785 C256 786 255 786 255 787 C255 787 255 788 253 790 L253 791 C251 793 249 794 247 796 L246 796 C240 800 234 801 228 801 C226 801 223 801 220 800 L219 800 C218 800 218 800 217 799 L216 799 C215 799 214 798 213 798 C212 797 211 797 209 796 C208 796 207 795 206 794 C200 791 196 785 194 779 L194 778 C194 777 194 777 194 776 L194 736 Z " />
<glyph glyph-name="Zacute" unicode="&#x179;" horiz-adv-x="600" d="M153 48 L525 605 C528 609 529 614 529 618 C529 632 514 640 500 640 L105 640 C90 640 71 630 71 614 C71 600 87 592 101 592 L447 592 L76 34 C73 30 71 26 71 22 C71 8 87 0 101 0 L495 0 C510 0 529 9 529 25 C529 39 514 48 500 48 L153 48 Z M308 713 C308 696 325 692 339 692 C347 693 354 696 359 701 L434 776 C437 779 439 782 440 786 C441 788 441 790 441 792 C441 809 424 813 410 813 C402 812 395 809 390 804 L315 729 C311 725 308 719 308 713 L308 713 Z " />
<glyph glyph-name="zacute" unicode="&#x17a;" horiz-adv-x="600" d="M454 418 C454 432 440 440 427 440 L178 440 C163 440 144 430 144 413 C144 398 160 390 174 390 L376 390 L153 41 C148 37 144 31 144 22 C144 8 158 0 174 0 L419 0 C434 0 453 9 453 26 C453 41 437 50 423 50 L222 50 L445 399 C449 403 452 407 453 412 C453 414 454 416 454 418 L454 418 Z M320 538 C320 521 337 517 351 517 C359 518 366 521 371 526 L446 601 C449 604 451 607 452 611 C453 613 453 615 453 617 C453 634 436 638 422 638 C414 637 407 634 402 629 L327 554 C323 550 320 544 320 538 L320 538 Z " />
<glyph glyph-name="Zdotaccent" unicode="&#x17b;" horiz-adv-x="600" d="M153 48 L525 605 C528 609 529 614 529 618 C529 632 514 640 500 640 L105 640 C90 640 71 630 71 614 C71 600 87 592 101 592 L447 592 L76 34 C73 30 71 26 71 22 C71 8 87 0 101 0 L495 0 C510 0 529 9 529 25 C529 39 514 48 500 48 L153 48 Z M269 769 L269 730 C269 716 285 708 299 708 C314 708 332 717 332 733 L332 773 C332 787 317 795 303 795 C288 795 269 785 269 769 L269 769 Z " />
<glyph glyph-name="zdotaccent" unicode="&#x17c;" horiz-adv-x="600" d="M454 418 C454 432 440 440 427 440 L178 440 C163 440 144 430 144 413 C144 398 160 390 174 390 L376 390 L153 41 C148 37 144 31 144 22 C144 8 158 0 174 0 L419 0 C434 0 453 9 453 26 C453 41 437 50 423 50 L222 50 L445 399 C449 403 452 407 453 412 C453 414 454 416 454 418 L454 418 Z M268 594 L268 555 C268 541 284 533 298 533 C313 533 331 542 331 558 L331 598 C331 612 316 620 302 620 C287 620 268 610 268 594 L268 594 Z " />
<glyph glyph-name="Zcaron" unicode="&#x17d;" horiz-adv-x="600" d="M153 48 L525 605 C528 609 529 614 529 618 C529 632 514 640 500 640 L105 640 C90 640 71 630 71 614 C71 600 87 592 101 592 L447 592 L76 34 C73 30 71 26 71 22 C71 8 87 0 101 0 L495 0 C510 0 529 9 529 25 C529 39 514 48 500 48 L153 48 Z M297 691 C306 691 316 694 322 700 L397 775 C400 778 402 781 403 785 C404 787 404 789 404 791 C404 805 390 812 378 812 C376 812 373 812 371 811 C364 810 357 808 353 803 C351 801 350 800 348 798 L302 751 L253 800 C251 802 250 803 248 805 C244 809 239 811 233 812 C218 812 196 806 196 787 C196 785 196 784 197 782 C198 779 199 776 202 773 C205 770 208 767 211 764 L277 698 C282 693 290 691 297 691 L297 691 Z " />
<glyph glyph-name="zcaron" unicode="&#x17e;" horiz-adv-x="600" d="M454 418 C454 432 440 440 427 440 L178 440 C163 440 144 430 144 413 C144 398 160 390 174 390 L376 390 L153 41 C148 37 144 31 144 22 C144 8 158 0 174 0 L419 0 C434 0 453 9 453 26 C453 41 437 50 423 50 L222 50 L445 399 C449 403 452 407 453 412 C453 414 454 416 454 418 L454 418 Z M296 516 C305 516 315 519 321 525 L396 600 C399 603 401 606 402 610 C403 612 403 614 403 616 C403 630 389 637 377 637 C375 637 372 637 370 636 C363 635 356 633 352 628 C350 626 349 625 347 623 L301 576 L252 625 C250 627 249 628 247 630 C243 634 238 636 232 637 C217 637 195 631 195 612 C195 610 195 609 196 607 C197 604 198 601 201 598 C204 595 207 592 210 589 L276 523 C281 518 289 516 296 516 L296 516 Z " />
<glyph glyph-name="longs" unicode="&#x17f;" horiz-adv-x="600" d="M195 464 L195 22 C195 9 208 0 224 0 C242 0 258 12 258 26 L258 456 C258 534 306 590 373 590 C390 590 405 601 405 615 C405 628 392 637 376 637 C272 637 195 562 195 464 L195 464 Z " />
<glyph glyph-name="florin" unicode="&#x192;" horiz-adv-x="600" d="M195 -172 C195 -190 210 -198 232 -198 C281 -198 332 -155 332 -98 L332 392 L422 392 C437 392 456 401 456 417 C456 431 440 440 426 440 L332 440 L332 540 C332 578 358 592 375 592 C397 592 406 604 406 616 C406 632 392 640 370 640 C322 640 269 596 269 540 L269 440 L229 440 C214 440 195 430 195 414 C195 400 211 392 225 392 L269 392 L269 -98 C269 -132 228 -150 216 -150 C201 -150 195 -162 195 -172 L195 -172 Z " />
<glyph glyph-name="Aringacute" unicode="&#x1fa;" horiz-adv-x="600" d="M489 -5 C500 -5 526 2 526 18 C526 23 524 31 512 67 C454 241 397 415 339 589 L334 604 C333 609 331 613 329 617 L329 619 C372 631 406 669 406 715 C406 761 371 798 327 808 L397 878 C401 882 404 888 404 894 C404 908 390 915 378 915 C369 915 359 912 353 906 L278 831 C274 827 271 821 271 815 C271 812 272 809 273 807 C229 795 195 758 195 711 C195 705 196 700 196 695 C203 657 232 629 269 619 C269 617 269 615 269 613 L65 7 C65 4 80 -4 95 -4 C112 -4 123 6 127 22 C130 30 134 40 137 51 L146 76 L445 76 L457 41 C458 37 460 33 461 29 C470 3 476 -5 489 -5 L489 -5 Z M162 124 L297 521 L429 124 L162 124 Z M343 711 C343 686 326 662 302 662 C277 662 258 688 258 715 C258 739 275 763 299 763 C324 763 343 738 343 711 L343 711 Z " />
<glyph glyph-name="aringacute" unicode="&#x1fb;" horiz-adv-x="600" d="M406 540 C406 595 357 636 302 636 C245 636 195 593 195 536 C195 481 243 440 298 440 L199 440 C181 440 166 429 166 415 C166 402 178 393 195 393 L270 393 C341 393 387 354 387 293 L387 243 L224 243 C151 243 92 188 92 120 C92 54 150 0 220 0 L318 0 C336 0 352 11 352 25 C352 38 339 47 322 47 L242 47 C187 47 155 76 155 125 C155 173 185 196 244 196 L387 196 L387 22 C387 10 399 0 416 0 C434 0 450 12 450 26 L450 295 C450 376 382 440 298 440 C356 440 406 484 406 540 L406 540 Z M271 663 C271 649 285 642 297 642 C306 642 316 645 322 651 L397 726 C401 730 404 736 404 742 C404 756 390 763 378 763 C369 763 359 760 353 754 L278 679 C274 675 271 669 271 663 L271 663 Z M343 536 C343 511 326 487 302 487 C277 487 258 513 258 540 C258 564 275 588 299 588 C324 588 343 563 343 536 L343 536 Z " />
<glyph glyph-name="AEacute" unicode="&#x1fc;" horiz-adv-x="600" d="M448 -23 L522 -23 C536 -23 554 -14 554 2 C554 19 535 24 516 24 L471 24 C419 24 372 33 359 91 L356 104 C356 106 355 107 355 109 L355 111 L315 377 L422 377 C436 377 454 386 454 402 C454 416 440 423 428 423 L308 423 L284 577 L522 577 C536 577 554 586 554 602 C554 616 540 623 528 623 L254 623 C241 623 223 615 222 600 C203 536 47 7 47 -11 C47 -16 61 -23 73 -23 C86 -23 100 -16 104 -3 C108 10 123 64 127 77 L303 77 C326 10 377 -23 448 -23 L448 -23 Z M271 713 C271 699 285 692 297 692 C306 692 316 695 322 701 L397 776 C401 780 404 786 404 792 C404 806 390 813 378 813 C369 813 359 810 353 804 L278 729 C274 725 271 719 271 713 L271 713 Z M141 123 C158 181 225 412 242 469 L294 123 L141 123 Z " />
<glyph glyph-name="aeacute" unicode="&#x1fd;" horiz-adv-x="600" d="M106 130 C106 199 157 200 215 200 L271 200 L271 134 C271 52 329 0 409 0 L471 0 C486 0 504 10 504 29 C504 43 495 49 481 49 L427 49 C368 49 331 78 331 138 L331 200 L522 200 C537 200 555 210 555 226 L555 323 C555 404 500 448 424 448 C374 448 330 429 302 397 C274 430 229 448 179 448 L128 448 C113 448 95 438 95 421 C95 403 114 399 133 399 L163 399 C224 399 271 375 271 309 L271 248 L179 248 C106 248 46 198 46 122 C46 48 101 0 173 0 L223 0 C238 0 256 10 256 27 C256 45 236 49 218 49 L193 49 C142 49 106 72 106 130 L106 130 Z M271 538 C271 524 285 517 297 517 C306 517 316 520 322 526 L397 601 C401 605 404 611 404 617 C404 631 390 638 378 638 C369 638 359 635 353 629 L278 554 C274 550 271 544 271 538 L271 538 Z M331 249 L331 313 C331 365 364 400 417 400 C467 400 495 370 495 319 L495 249 L331 249 Z " />
<glyph glyph-name="Oslashacute" unicode="&#x1fe;" horiz-adv-x="600" d="M529 218 L529 430 C529 505 490 572 430 612 L453 678 C453 684 436 692 423 692 C415 692 403 689 400 682 C397 674 391 657 383 635 C358 645 331 650 302 650 C175 650 71 549 71 427 L71 214 C71 140 109 75 167 35 C152 -7 143 -33 143 -35 C143 -38 159 -46 174 -46 C189 -46 198 -39 203 -30 L217 9 C242 0 269 -5 298 -5 C425 -5 529 96 529 218 L529 218 Z M321 713 C321 699 335 692 347 692 C356 692 366 695 372 701 L447 776 C451 780 454 786 454 792 C454 806 440 813 428 813 C419 813 409 810 403 804 L328 729 C324 725 321 719 321 713 L321 713 Z M134 218 L134 430 C134 524 208 602 298 602 C322 602 345 597 366 587 C319 458 238 234 187 92 C155 124 134 169 134 218 L134 218 Z M302 43 C278 43 255 49 234 59 L410 557 C444 525 466 478 466 427 L466 214 C466 120 392 43 302 43 L302 43 Z " />
<glyph glyph-name="oslashacute" unicode="&#x1ff;" horiz-adv-x="600" d="M121 164 C121 109 148 60 190 29 C185 15 179 2 174 -12 C172 -16 170 -25 170 -30 C170 -42 186 -49 201 -49 C205 -49 208 -49 211 -48 C221 -46 228 -40 232 -31 L245 2 C262 -2 279 -5 297 -5 C397 -5 478 73 478 168 L478 281 C478 336 451 385 409 416 L429 467 C429 482 413 489 398 489 C395 489 391 489 388 488 C379 486 372 480 368 471 C365 465 363 458 360 452 L356 442 C339 447 321 450 302 450 C202 450 121 372 121 277 L121 164 Z M320 538 C320 521 337 517 351 517 C359 518 366 521 371 526 L446 601 C449 604 451 607 452 611 C453 613 453 615 453 617 C453 634 436 638 422 638 C414 637 407 634 402 629 L327 554 C323 550 320 544 320 538 L320 538 Z M184 281 C184 348 235 402 298 402 C312 402 325 399 337 395 C296 292 255 189 214 87 C194 109 184 138 184 168 L184 281 Z M264 50 L386 359 C400 342 409 322 413 300 C414 292 415 285 415 277 L415 164 C415 97 365 43 302 43 C289 43 276 45 264 50 L264 50 Z " />
<glyph glyph-name="uni0218" unicode="&#x218;" horiz-adv-x="600" d="M292 -5 L296 -5 C296 -47 290 -82 277 -114 C275 -119 272 -128 272 -131 L272 -134 C272 -146 287 -153 300 -153 C349 -153 358 -32 360 2 C453 24 513 89 513 181 C513 303 410 339 316 372 C209 410 175 437 175 485 C175 548 231 597 300 597 C339 597 368 592 398 579 C402 578 406 576 410 574 C423 568 430 566 437 566 C456 566 471 577 471 590 C471 618 394 645 320 645 C200 645 112 574 112 479 C112 412 155 373 285 327 C367 298 449 270 449 173 C449 92 391 43 295 43 C250 43 206 46 161 84 C157 87 153 91 149 95 L147 97 C134 110 124 111 119 111 C103 111 87 98 87 86 C87 78 93 71 106 58 L109 55 C156 8 228 -5 292 -5 L292 -5 Z " />
<glyph glyph-name="uni0219" unicode="&#x219;" horiz-adv-x="600" d="M455 124 C455 181 419 218 273 282 C251 292 233 307 229 330 C228 333 228 336 228 340 C228 374 259 399 299 399 C318 399 345 390 363 381 C371 378 381 374 391 374 C406 374 422 386 422 397 C422 421 351 446 299 446 C223 446 164 393 164 332 C164 270 226 244 234 241 C365 187 392 160 392 118 C392 70 357 42 291 42 C271 42 246 44 218 67 C215 69 211 73 208 76 C202 82 197 86 188 88 C186 89 184 89 182 89 C164 89 149 76 149 64 C149 38 217 4 282 -4 C285 -4 288 -4 290 -5 C296 -5 301 -5 306 -5 L310 -5 C310 -47 302 -81 291 -114 C289 -119 286 -128 286 -131 L286 -134 C286 -146 301 -153 314 -153 C317 -153 320 -153 322 -152 C363 -140 372 -36 374 7 C422 27 455 69 455 124 L455 124 Z " />
<glyph glyph-name="uni021A" unicode="&#x21a;" horiz-adv-x="600" d="M105 592 L271 592 L271 21 C271 -1 299 -1 316 -1 L320 -1 C320 -43 312 -77 301 -110 C299 -115 296 -124 296 -127 L296 -130 C296 -142 311 -149 324 -149 C378 -149 384 -6 384 25 C384 40 368 46 354 46 L334 46 L334 592 L491 592 C506 592 525 602 525 618 C525 633 509 640 495 640 L109 640 C94 640 75 630 75 614 C75 599 91 592 105 592 L105 592 Z " />
<glyph glyph-name="uni021B" unicode="&#x21b;" horiz-adv-x="600" d="M258 538 C240 538 224 527 224 513 L224 440 L158 440 C140 440 124 429 124 415 C124 403 137 392 153 392 L224 392 L224 164 C224 60 310 -5 409 -5 L413 -5 C413 -47 405 -81 394 -114 C392 -119 389 -128 389 -131 L389 -134 C389 -146 404 -153 417 -153 C471 -153 477 -10 477 21 C477 36 461 42 447 42 L409 42 C405 43 401 43 396 43 C337 43 287 102 287 171 L287 392 L487 392 C505 392 521 404 521 418 C521 430 508 440 492 440 L287 440 L287 516 C287 528 274 538 258 538 L258 538 Z " />
<glyph glyph-name="uni0237" unicode="&#x237;" horiz-adv-x="600" d="M188 -174 C188 -186 201 -197 217 -197 C316 -197 398 -119 398 -24 L398 418 C398 426 392 433 383 437 C378 440 372 441 367 441 L196 441 C181 441 162 431 162 415 C162 401 178 393 192 393 L336 393 L336 -15 C336 -95 293 -144 220 -149 C202 -150 188 -161 188 -174 L188 -174 Z " />
<glyph glyph-name="circumflex" unicode="&#x2c6;" horiz-adv-x="600" d="M298 577 L352 523 C357 518 365 516 372 516 C386 516 404 525 404 541 C404 546 402 551 398 555 L323 630 C318 635 310 637 303 637 C294 637 284 634 278 628 L203 553 C199 549 196 543 196 537 C196 523 210 516 222 516 C231 516 241 519 247 525 L298 577 Z " />
<glyph glyph-name="caron" unicode="&#x2c7;" horiz-adv-x="600" d="M297 516 C306 516 316 519 322 525 L397 600 C401 604 404 610 404 616 C404 630 390 637 378 637 C369 637 359 634 353 628 L302 576 L248 630 C243 635 235 637 228 637 C214 637 196 628 196 612 C196 607 198 602 202 598 L277 523 C282 518 290 516 297 516 L297 516 Z " />
<glyph glyph-name="uni02C9" unicode="&#x2c9;" horiz-adv-x="600" d="M234 559 L359 559 C373 559 391 568 391 584 C391 598 377 605 365 605 L240 605 C226 605 208 596 208 580 C208 566 222 559 234 559 L234 559 Z " />
<glyph glyph-name="breve" unicode="&#x2d8;" horiz-adv-x="600" d="M297 516 C353 516 400 553 404 609 C404 628 396 637 376 637 C374 637 371 637 369 636 C356 634 346 624 346 609 L346 599 C346 597 346 595 345 593 C342 576 325 563 302 563 C281 563 262 576 256 595 C255 597 255 599 255 601 C254 603 254 606 254 608 L254 609 C254 622 250 633 237 637 C213 637 196 632 196 605 C200 551 243 516 297 516 L297 516 Z " />
<glyph glyph-name="dotaccent" unicode="&#x2d9;" horiz-adv-x="600" d="M269 594 L269 555 C269 541 285 533 299 533 C314 533 332 542 332 558 L332 598 C332 612 317 620 303 620 C288 620 269 610 269 594 L269 594 Z " />
<glyph glyph-name="ring" unicode="&#x2da;" horiz-adv-x="600" d="M343 536 C343 511 326 487 302 487 C277 487 258 513 258 540 C258 564 275 588 299 588 C324 588 343 563 343 536 L343 536 Z M406 540 C406 595 357 636 302 636 C245 636 195 593 195 536 C195 481 243 440 298 440 C356 440 406 484 406 540 L406 540 Z " />
<glyph glyph-name="ogonek" unicode="&#x2db;" horiz-adv-x="600" d="M338 47 L313 47 C254 47 205 2 205 -52 C205 -103 249 -148 304 -148 C345 -148 395 -123 395 -100 C395 -88 383 -79 366 -79 C355 -79 347 -82 333 -93 C326 -98 321 -101 313 -101 C288 -101 268 -77 268 -49 C268 -26 282 -5 301 -1 C303 0 307 0 310 0 L332 0 C349 0 363 8 366 20 C367 22 367 24 367 26 C367 39 355 47 338 47 L338 47 Z " />
<glyph glyph-name="tilde" unicode="&#x2dc;" horiz-adv-x="600" d="M354 581 C342 581 333 589 321 600 C308 612 292 627 261 630 C222 630 176 615 171 570 C171 541 180 534 208 534 C221 536 226 546 230 564 C233 577 236 583 246 583 C256 583 264 578 272 571 C298 549 315 536 341 534 C379 534 424 550 429 594 C429 616 424 630 399 630 C376 630 373 615 373 613 C369 586 365 581 354 581 L354 581 Z " />
<glyph glyph-name="hungarumlaut" unicode="&#x2dd;" horiz-adv-x="600" d="M184 538 C184 524 198 517 210 517 C219 517 229 520 235 526 L310 601 C314 605 317 611 317 617 C317 631 303 638 291 638 C282 638 272 635 266 629 L191 554 C187 550 184 544 184 538 L184 538 Z M359 538 C359 524 373 517 385 517 C394 517 404 520 410 526 L485 601 C489 605 492 611 492 617 C492 631 478 638 466 638 C457 638 447 635 441 629 L366 554 C362 550 359 544 359 538 L359 538 Z " />
<glyph glyph-name="gravecomb" unicode="&#x300;" horiz-adv-x="600" d="M299 516 C313 516 331 525 331 541 C331 546 329 551 325 555 L250 630 C245 635 237 637 230 637 C216 637 198 628 198 612 C198 607 200 602 204 598 L279 523 C284 518 292 516 299 516 L299 516 Z " />
<glyph glyph-name="acutecomb" unicode="&#x301;" horiz-adv-x="600" d="M271 538 C271 524 285 517 297 517 C306 517 316 520 322 526 L397 601 C401 605 404 611 404 617 C404 631 390 638 378 638 C369 638 359 635 353 629 L278 554 C274 550 271 544 271 538 L271 538 Z " />
<glyph glyph-name="uni0302" unicode="&#x302;" horiz-adv-x="600" d="M298 577 L352 523 C357 518 365 516 372 516 C386 516 404 525 404 541 C404 546 402 551 398 555 L323 630 C318 635 310 637 303 637 C294 637 284 634 278 628 L203 553 C199 549 196 543 196 537 C196 523 210 516 222 516 C231 516 241 519 247 525 L298 577 Z " />
<glyph glyph-name="tildecomb" unicode="&#x303;" horiz-adv-x="600" d="M354 581 C342 581 333 589 321 600 C308 612 292 627 261 630 C222 630 176 615 171 570 C171 541 180 534 208 534 C221 536 226 546 230 564 C233 577 236 583 246 583 C256 583 264 578 272 571 C298 549 315 536 341 534 C379 534 424 550 429 594 C429 616 424 630 399 630 C376 630 373 615 373 613 C369 586 365 581 354 581 L354 581 Z " />
<glyph glyph-name="uni0304" unicode="&#x304;" horiz-adv-x="600" d="M224 562 L372 562 C387 562 406 572 406 588 C406 602 390 609 376 609 L228 609 C214 609 195 599 195 584 C195 569 211 562 224 562 L224 562 Z " />
<glyph glyph-name="uni0306" unicode="&#x306;" horiz-adv-x="600" d="M297 516 C355 516 404 556 404 616 C404 630 390 637 376 637 C360 637 346 627 346 609 L346 599 C346 579 327 563 302 563 C276 563 254 582 254 608 C254 630 246 637 231 637 C214 637 196 628 196 612 C196 554 241 516 297 516 L297 516 Z " />
<glyph glyph-name="uni0307" unicode="&#x307;" horiz-adv-x="600" d="M269 594 L269 555 C269 541 285 533 299 533 C314 533 332 542 332 558 L332 598 C332 612 317 620 303 620 C288 620 269 610 269 594 L269 594 Z " />
<glyph glyph-name="uni0308" unicode="&#x308;" horiz-adv-x="600" d="M194 600 L194 561 C194 547 210 539 224 539 C239 539 257 548 257 564 L257 604 C257 618 242 626 228 626 C213 626 194 616 194 600 L194 600 Z M344 600 L344 561 C344 547 360 539 374 539 C389 539 407 548 407 564 L407 604 C407 618 392 626 378 626 C363 626 344 616 344 600 L344 600 Z " />
<glyph glyph-name="uni030A" unicode="&#x30a;" horiz-adv-x="600" d="M343 536 C343 511 326 487 302 487 C277 487 258 513 258 540 C258 564 275 588 299 588 C324 588 343 563 343 536 L343 536 Z M406 540 C406 595 357 636 302 636 C245 636 195 593 195 536 C195 481 243 440 298 440 C356 440 406 484 406 540 L406 540 Z " />
<glyph glyph-name="uni030B" unicode="&#x30b;" horiz-adv-x="600" d="M184 538 C184 524 198 517 210 517 C219 517 229 520 235 526 L310 601 C314 605 317 611 317 617 C317 631 303 638 291 638 C282 638 272 635 266 629 L191 554 C187 550 184 544 184 538 L184 538 Z M359 538 C359 524 373 517 385 517 C394 517 404 520 410 526 L485 601 C489 605 492 611 492 617 C492 631 478 638 466 638 C457 638 447 635 441 629 L366 554 C362 550 359 544 359 538 L359 538 Z " />
<glyph glyph-name="uni030C" unicode="&#x30c;" horiz-adv-x="600" d="M297 516 C306 516 316 519 322 525 L397 600 C401 604 404 610 404 616 C404 630 390 637 378 637 C369 637 359 634 353 628 L302 576 L248 630 C243 635 235 637 228 637 C214 637 196 628 196 612 C196 607 198 602 202 598 L277 523 C282 518 290 516 297 516 L297 516 Z " />
<glyph glyph-name="uni0312" unicode="&#x312;" horiz-adv-x="600" d="M357 625 C357 640 341 646 327 646 L278 646 C263 646 244 637 244 620 C244 599 272 599 289 599 L293 599 C293 557 285 523 274 490 C272 485 269 476 269 473 L269 470 C269 458 284 451 297 451 C351 451 357 594 357 625 L357 625 Z " />
<glyph glyph-name="uni0315" unicode="&#x315;" horiz-adv-x="600" d="M357 625 C357 640 341 646 327 646 L278 646 C263 646 244 637 244 620 C244 599 272 599 289 599 L293 599 C293 594 293 589 293 584 C291 549 284 519 274 490 C272 485 269 476 269 473 L269 470 C269 458 284 451 297 451 C351 451 357 594 357 625 L357 625 Z " />
<glyph glyph-name="uni0326" unicode="&#x326;" horiz-adv-x="600" d="M357 25 C357 40 341 46 327 46 L278 46 C263 46 244 37 244 20 C244 -1 272 -1 289 -1 L293 -1 C293 -6 293 -11 293 -16 C291 -51 284 -81 274 -110 C272 -115 269 -124 269 -127 L269 -130 C269 -142 284 -149 297 -149 C351 -149 357 -6 357 25 L357 25 Z " />
<glyph glyph-name="uni0327" unicode="&#x327;" horiz-adv-x="600" d="M291 -148 C348 -148 395 -101 395 -48 C395 5 349 47 292 47 L267 47 C249 47 233 36 233 21 C233 7 245 0 271 0 L280 0 C309 0 331 -22 331 -51 C331 -79 313 -101 290 -101 C282 -101 277 -98 270 -92 C256 -81 249 -79 241 -79 C221 -79 206 -91 206 -104 C206 -126 252 -148 291 -148 L291 -148 Z " />
<glyph glyph-name="uni0328" unicode="&#x328;" horiz-adv-x="600" d="M338 47 L313 47 C254 47 205 2 205 -52 C205 -103 249 -148 304 -148 C345 -148 395 -123 395 -100 C395 -88 383 -79 366 -79 C355 -79 347 -82 333 -93 C326 -98 321 -101 313 -101 C288 -101 268 -77 268 -49 C268 -26 282 -5 301 -1 C303 0 307 0 310 0 L332 0 C352 0 367 11 367 26 C367 39 355 47 338 47 L338 47 Z " />
<glyph glyph-name="uni0344" unicode="&#x344;" horiz-adv-x="600" d="M271 673 C271 659 285 652 297 652 C306 652 316 655 322 661 L397 736 C401 740 404 746 404 752 C404 766 390 773 378 773 C369 773 359 770 353 764 L278 689 C274 685 271 679 271 673 L271 673 Z M193 600 L193 561 C193 547 209 539 223 539 C238 539 256 548 256 564 L256 604 C256 618 241 626 227 626 C212 626 193 616 193 600 L193 600 Z M343 600 L343 561 C343 547 359 539 373 539 C388 539 406 548 406 564 L406 604 C406 618 391 626 377 626 C362 626 343 616 343 600 L343 600 Z " />
<glyph glyph-name="uni0374" unicode="&#x374;" horiz-adv-x="600" d="M274 546 C274 532 288 525 300 525 C309 525 319 528 325 534 L400 609 C404 613 407 619 407 625 C407 639 393 646 381 646 C372 646 362 643 356 637 L281 562 C277 558 274 552 274 546 L274 546 Z " />
<glyph glyph-name="uni0375" unicode="&#x375;" horiz-adv-x="600" d="M357 25 C357 40 341 46 327 46 L278 46 C263 46 244 37 244 20 C244 -1 272 -1 289 -1 L293 -1 C293 -43 285 -77 274 -110 C272 -115 269 -124 269 -127 L269 -130 C269 -142 284 -149 297 -149 C351 -149 357 -6 357 25 L357 25 Z " />
<glyph glyph-name="uni037E" unicode="&#x37e;" horiz-adv-x="600" d="M294 406 L294 367 C294 353 310 345 324 345 C339 345 357 354 357 370 L357 410 C357 424 342 432 328 432 C313 432 294 422 294 406 L294 406 Z M357 25 C357 40 341 46 327 46 L278 46 C263 46 244 37 244 20 C244 -1 272 -1 289 -1 L293 -1 C293 -6 293 -11 293 -16 C291 -51 284 -81 274 -110 C272 -115 269 -124 269 -127 L269 -130 C269 -142 284 -149 297 -149 C351 -149 357 -6 357 25 L357 25 Z " />
<glyph glyph-name="tonos" unicode="&#x384;" horiz-adv-x="600" d="M271 538 C271 524 285 517 297 517 C306 517 316 520 322 526 L397 601 C401 605 404 611 404 617 C404 631 390 638 378 638 C369 638 359 635 353 629 L278 554 C274 550 271 544 271 538 L271 538 Z " />
<glyph glyph-name="dieresistonos" unicode="&#x385;" horiz-adv-x="600" d="M271 649 C271 635 285 628 297 628 C306 628 316 631 322 637 L397 712 C401 716 404 722 404 728 C404 742 390 749 378 749 C369 749 359 746 353 740 L278 665 C274 661 271 655 271 649 L271 649 Z M194 600 L194 561 C194 547 210 539 224 539 C239 539 257 548 257 564 L257 604 C257 618 242 626 228 626 C213 626 194 616 194 600 L194 600 Z M344 600 L344 561 C344 547 360 539 374 539 C389 539 407 548 407 564 L407 604 C407 618 392 626 378 626 C363 626 344 616 344 600 L344 600 Z " />
<glyph glyph-name="Alphatonos" unicode="&#x386;" horiz-adv-x="600" d="M489 -5 C500 -5 526 2 526 18 C526 23 524 31 512 67 L507 82 C449 256 392 430 334 604 C333 609 331 613 329 617 C328 632 313 638 300 638 C292 638 286 636 281 632 C271 628 269 624 269 613 L65 7 C65 4 80 -4 95 -4 C106 -4 118 1 123 12 C127 19 132 35 137 51 L146 76 L445 76 L457 41 C458 37 460 33 461 29 C470 3 476 -5 489 -5 L489 -5 Z M321 713 C321 696 338 692 352 692 C360 693 367 696 372 701 L447 776 C450 779 452 782 453 786 C454 788 454 790 454 792 C454 809 437 813 423 813 C415 812 408 809 403 804 L328 729 C324 725 321 719 321 713 L321 713 Z M162 124 L297 521 L429 124 L162 124 Z " />
<glyph glyph-name="anoteleia" unicode="&#x387;" horiz-adv-x="600" d="M301 319 C273 319 244 299 244 269 C244 241 270 222 298 222 C327 222 356 243 356 270 C356 295 331 319 301 319 L301 319 Z " />
<glyph glyph-name="Epsilontonos" unicode="&#x388;" horiz-adv-x="600" d="M480 640 L134 640 C119 640 101 630 101 614 L101 71 C101 29 138 0 180 0 L476 0 C491 0 510 10 510 26 C510 41 494 47 480 47 L194 47 C174 47 164 55 164 75 L164 346 L303 346 C318 346 337 355 337 371 C337 386 321 393 307 393 L164 393 L164 592 L476 592 C491 592 510 602 510 618 C510 633 494 640 480 640 L480 640 Z M321 713 C321 699 335 692 347 692 C356 692 366 695 372 701 L447 776 C451 780 454 786 454 792 C454 806 440 813 428 813 C419 813 409 810 403 804 L328 729 C324 725 321 719 321 713 L321 713 Z " />
<glyph glyph-name="Etatonos" unicode="&#x389;" horiz-adv-x="600" d="M134 26 L134 345 L466 345 L466 22 C466 7 481 0 495 0 C510 0 529 10 529 26 L529 618 C529 633 513 640 499 640 C484 640 466 630 466 614 L466 393 L134 393 L134 618 C134 633 118 640 104 640 C89 640 71 630 71 614 L71 22 C71 7 86 0 100 0 C115 0 134 10 134 26 L134 26 Z M321 713 C321 699 335 692 347 692 C356 692 366 695 372 701 L447 776 C451 780 454 786 454 792 C454 806 440 813 428 813 C419 813 409 810 403 804 L328 729 C324 725 321 719 321 713 L321 713 Z " />
<glyph glyph-name="Iotatonos" unicode="&#x38a;" horiz-adv-x="600" d="M175 0 L420 0 C435 0 454 9 454 26 C454 41 438 50 424 50 L332 50 L332 590 L420 590 C435 590 454 599 454 616 C454 631 438 640 424 640 L179 640 C164 640 145 630 145 613 C145 598 161 590 175 590 L269 590 L269 50 L179 50 C164 50 145 40 145 23 C145 8 161 0 175 0 L175 0 Z M321 713 C321 699 335 692 347 692 C356 692 366 695 372 701 L447 776 C451 780 454 786 454 792 C454 806 440 813 428 813 C419 813 409 810 403 804 L328 729 C324 725 321 719 321 713 L321 713 Z " />
<glyph glyph-name="Omicrontonos" unicode="&#x38c;" horiz-adv-x="600" d="M529 218 L529 430 C529 551 427 650 302 650 C175 650 71 549 71 427 L71 214 C71 93 173 -5 298 -5 C425 -5 529 96 529 218 L529 218 Z M302 43 C212 43 134 124 134 218 L134 430 C134 524 208 602 298 602 C390 602 466 523 466 427 L466 214 C466 120 392 43 302 43 L302 43 Z M321 713 C321 699 335 692 347 692 C356 692 366 695 372 701 L447 776 C451 780 454 786 454 792 C454 806 440 813 428 813 C419 813 409 810 403 804 L328 729 C324 725 321 719 321 713 L321 713 Z " />
<glyph glyph-name="Upsilontonos" unicode="&#x38e;" horiz-adv-x="600" d="M301 395 L129 635 C124 642 114 645 105 645 C89 645 71 635 71 619 C71 615 72 611 75 607 L268 337 L268 22 C268 8 283 0 297 0 C312 0 331 9 331 25 L331 340 L523 609 C526 613 528 619 528 623 C528 637 513 645 499 645 C488 645 477 640 471 632 L301 395 Z M321 713 C321 699 335 692 347 692 C356 692 366 695 372 701 L447 776 C451 780 454 786 454 792 C454 806 440 813 428 813 C419 813 409 810 403 804 L328 729 C324 725 321 719 321 713 L321 713 Z " />
<glyph glyph-name="Omegatonos" unicode="&#x38f;" horiz-adv-x="600" d="M101 0 L200 0 C218 0 233 12 233 26 L233 29 L224 55 C164 227 135 345 135 410 C135 514 210 602 299 602 C392 602 466 509 466 391 C466 331 448 262 370 29 C369 26 367 24 367 21 C367 10 381 0 397 0 L496 0 C514 0 529 12 529 25 C529 37 516 47 500 47 L440 47 C504 221 529 319 529 393 C529 536 429 650 302 650 C174 650 71 534 71 389 C71 318 95 225 159 47 L105 47 C87 47 71 35 71 22 C71 10 84 0 101 0 L101 0 Z M321 713 C321 696 338 692 352 692 C360 693 367 696 372 701 L447 776 C450 779 452 782 453 786 C454 788 454 790 454 792 C454 809 437 813 423 813 C415 812 408 809 403 804 L328 729 C324 725 321 719 321 713 L321 713 Z " />
<glyph glyph-name="iotadieresistonos" unicode="&#x390;" horiz-adv-x="600" d="M234 649 C234 635 248 628 260 628 C269 628 279 631 285 637 L360 712 C364 716 367 722 367 728 C367 742 353 749 341 749 C332 749 322 746 316 740 L241 665 C237 661 234 655 234 649 L234 649 Z M157 600 L157 561 C157 547 173 539 187 539 C202 539 220 548 220 564 L220 604 C220 618 205 626 191 626 C176 626 157 616 157 600 L157 600 Z M307 600 L307 561 C307 547 323 539 337 539 C352 539 370 548 370 564 L370 604 C370 618 355 626 341 626 C326 626 307 616 307 600 L307 600 Z M254 441 C236 441 220 429 220 415 L220 116 C220 49 276 -5 347 -5 C365 -5 381 7 381 22 C381 37 366 44 350 44 C318 44 283 76 283 104 L283 419 C283 431 270 441 254 441 L254 441 Z " />
<glyph glyph-name="Alpha" unicode="&#x391;" horiz-adv-x="600" d="M491 -5 C502 -5 528 2 528 18 C528 23 526 31 514 67 L509 82 C451 256 394 430 336 604 C335 609 333 613 331 617 C330 632 315 638 302 638 C294 638 288 636 283 632 C273 628 271 624 271 613 L67 7 C67 4 82 -4 97 -4 C108 -4 120 1 125 12 C129 19 134 35 139 51 L148 76 L447 76 L459 41 C460 37 462 33 463 29 C472 3 478 -5 491 -5 L491 -5 Z M164 124 L299 521 L431 124 L164 124 Z " />
<glyph glyph-name="Beta" unicode="&#x392;" horiz-adv-x="600" d="M246 0 L321 0 C435 0 530 70 530 190 C530 280 476 340 401 364 C441 391 468 432 468 486 C468 590 367 637 277 637 L127 637 C112 637 93 627 93 610 L93 23 C93 8 108 0 121 0 C136 0 155 10 155 27 L155 326 L307 326 C394 326 468 285 468 186 C468 90 399 50 313 50 L257 50 C237 50 218 40 218 23 C218 8 233 0 246 0 L246 0 Z M155 376 L155 587 L271 587 C335 587 406 559 406 487 C406 391 328 376 248 376 L155 376 Z " />
<glyph glyph-name="Gamma" unicode="&#x393;" horiz-adv-x="600" d="M196 592 L434 592 C449 592 467 602 467 618 C467 632 452 640 438 640 L167 640 C152 640 133 630 133 614 L133 22 C133 8 148 0 162 0 C177 0 195 10 196 25 L196 592 Z " />
<glyph glyph-name="uni0394" unicode="&#x394;" horiz-adv-x="600" d="M496 0 C515 0 529 13 529 28 C529 35 527 47 522 61 L331 634 C328 644 317 650 301 650 C281 650 272 640 263 612 L74 38 C72 31 71 26 71 22 C71 10 85 0 101 0 L496 0 Z M457 47 L143 47 L299 527 L457 47 Z " />
<glyph glyph-name="Epsilon" unicode="&#x395;" horiz-adv-x="600" d="M480 640 L134 640 C119 640 101 630 101 614 L101 71 C101 29 138 0 180 0 L476 0 C491 0 510 10 510 26 C510 41 494 47 480 47 L194 47 C174 47 164 55 164 75 L164 346 L303 346 C318 346 337 355 337 371 C337 386 321 393 307 393 L164 393 L164 592 L476 592 C491 592 510 602 510 618 C510 633 494 640 480 640 L480 640 Z " />
<glyph glyph-name="Zeta" unicode="&#x396;" horiz-adv-x="600" d="M153 48 L525 605 C528 609 529 614 529 618 C529 632 514 640 500 640 L105 640 C90 640 71 630 71 614 C71 600 87 592 101 592 L447 592 L76 34 C73 30 71 26 71 22 C71 8 87 0 101 0 L495 0 C510 0 529 9 529 25 C529 39 514 48 500 48 L153 48 Z " />
<glyph glyph-name="Eta" unicode="&#x397;" horiz-adv-x="600" d="M134 26 L134 345 L466 345 L466 22 C466 7 481 0 495 0 C510 0 529 10 529 26 L529 618 C529 633 513 640 499 640 C484 640 466 630 466 614 L466 393 L134 393 L134 618 C134 633 118 640 104 640 C89 640 71 630 71 614 L71 22 C71 7 86 0 100 0 C115 0 134 10 134 26 L134 26 Z " />
<glyph glyph-name="Theta" unicode="&#x398;" horiz-adv-x="600" d="M529 218 L529 430 C529 551 427 650 302 650 C175 650 71 549 71 427 L71 214 C71 93 173 -5 298 -5 C425 -5 529 96 529 218 L529 218 Z M302 43 C212 43 134 124 134 218 L134 430 C134 524 208 602 298 602 C390 602 466 523 466 427 L466 214 C466 120 392 43 302 43 L302 43 Z M200 300 L397 300 C412 300 431 309 431 325 C431 339 415 348 401 348 L204 348 C189 348 170 338 170 322 C170 308 186 300 200 300 L200 300 Z " />
<glyph glyph-name="Iota" unicode="&#x399;" horiz-adv-x="600" d="M175 590 L269 590 L269 50 L179 50 C164 50 145 40 145 23 C145 8 161 0 175 0 L420 0 C435 0 454 9 454 26 C454 41 438 50 424 50 L332 50 L332 590 L420 590 C435 590 454 599 454 616 C454 631 438 640 424 640 L179 640 C164 640 145 630 145 613 C145 598 161 590 175 590 L175 590 Z " />
<glyph glyph-name="Kappa" unicode="&#x39a;" horiz-adv-x="600" d="M148 26 L148 335 L251 406 L482 12 C487 4 499 0 508 0 C524 0 543 13 543 29 L302 441 L530 598 C536 603 543 610 543 619 C543 633 527 640 513 640 C505 640 499 637 493 634 L148 397 L148 618 C148 633 132 640 118 640 C103 640 85 630 85 614 L85 22 C85 7 100 0 114 0 C129 0 148 10 148 26 L148 26 Z " />
<glyph glyph-name="Lambda" unicode="&#x39b;" horiz-adv-x="600" d="M302 650 C281 650 272 639 263 612 C201 422 138 232 76 42 C73 34 71 24 71 20 C71 9 85 0 101 0 C117 0 129 8 133 19 C136 27 138 34 141 42 C193 204 246 365 299 527 L459 39 C462 31 464 24 467 16 C470 7 482 0 496 0 C515 0 529 12 529 27 C529 34 526 45 522 57 C458 249 395 442 331 634 C328 644 316 650 302 650 L302 650 Z " />
<glyph glyph-name="Mu" unicode="&#x39c;" horiz-adv-x="600" d="M556 27 L556 622 C556 637 541 645 528 645 C517 645 505 640 498 631 L301 350 L102 634 C97 641 87 645 78 645 C63 645 44 635 44 618 L44 23 C44 8 59 0 72 0 C87 0 106 10 106 27 L106 524 L273 286 C278 279 288 275 297 275 C308 275 320 280 327 289 L494 528 L494 23 C494 8 509 0 522 0 C537 0 556 10 556 27 L556 27 Z " />
<glyph glyph-name="Nu" unicode="&#x39d;" horiz-adv-x="600" d="M105 640 C90 640 71 630 71 614 L71 22 C71 8 86 0 100 0 C115 0 134 9 134 25 L134 551 L466 260 L466 22 C466 8 481 0 495 0 C510 0 529 9 529 25 L529 618 C529 632 514 640 500 640 C485 640 466 630 466 614 L466 336 L126 633 C121 638 113 640 105 640 L105 640 Z " />
<glyph glyph-name="Xi" unicode="&#x39e;" horiz-adv-x="600" d="M188 345 L397 345 C412 345 431 355 431 371 C431 385 415 393 401 393 L192 393 C177 393 158 383 158 367 C158 353 174 345 188 345 L188 345 Z M126 592 L471 592 C486 592 505 602 505 618 C505 632 490 640 476 640 L130 640 C115 640 96 630 96 614 C96 600 112 592 126 592 L126 592 Z M126 0 L471 0 C486 0 505 9 505 25 C505 39 490 48 476 48 L130 48 C115 48 96 38 96 22 C96 8 112 0 126 0 L126 0 Z " />
<glyph glyph-name="Omicron" unicode="&#x39f;" horiz-adv-x="600" d="M529 218 L529 430 C529 551 427 650 302 650 C175 650 71 549 71 427 L71 214 C71 93 173 -5 298 -5 C425 -5 529 96 529 218 L529 218 Z M302 43 C212 43 134 124 134 218 L134 430 C134 524 208 602 298 602 C390 602 466 523 466 427 L466 214 C466 120 392 43 302 43 L302 43 Z " />
<glyph glyph-name="Pi" unicode="&#x3a0;" horiz-adv-x="600" d="M134 592 L466 592 L466 22 C466 8 481 0 495 0 C510 0 529 9 529 25 L529 618 C529 632 514 640 500 640 L105 640 C90 640 71 630 71 614 L71 22 C71 8 86 0 100 0 C115 0 134 9 134 25 L134 592 Z " />
<glyph glyph-name="Rho" unicode="&#x3a1;" horiz-adv-x="600" d="M268 345 L366 345 C453 345 523 412 523 494 C523 575 455 640 371 640 L149 640 C131 640 115 628 115 614 L115 22 C115 10 127 0 144 0 C162 0 178 11 178 25 L178 592 L366 592 C417 592 460 546 460 489 C460 431 415 393 345 393 L278 393 C255 393 238 383 238 368 C238 355 252 345 268 345 L268 345 Z " />
<glyph glyph-name="Sigma" unicode="&#x3a3;" horiz-adv-x="600" d="M488 640 L118 640 C100 640 84 628 84 614 C84 611 85 608 87 604 L230 366 L89 45 C88 42 86 38 85 34 C85 31 84 27 84 24 C84 8 94 0 114 0 L484 0 C502 0 517 11 517 25 C517 37 504 48 488 48 L158 48 L293 358 C294 361 296 366 296 370 C296 374 295 378 293 381 L166 592 L484 592 C502 592 517 604 517 618 C517 630 504 640 488 640 L488 640 Z " />
<glyph glyph-name="Tau" unicode="&#x3a4;" horiz-adv-x="600" d="M105 592 L271 592 L271 22 C271 7 286 0 300 0 C315 0 334 10 334 26 L334 592 L491 592 C506 592 525 602 525 618 C525 633 509 640 495 640 L109 640 C94 640 75 630 75 614 C75 599 91 592 105 592 L105 592 Z " />
<glyph glyph-name="Upsilon" unicode="&#x3a5;" horiz-adv-x="600" d="M301 395 L129 635 C124 642 114 645 105 645 C89 645 71 635 71 619 C71 615 72 611 75 607 L268 337 L268 22 C268 8 283 0 297 0 C312 0 331 9 331 25 L331 340 L523 609 C526 613 528 619 528 623 C528 637 513 645 499 645 C488 645 477 640 471 632 L301 395 Z " />
<glyph glyph-name="Phi" unicode="&#x3a6;" horiz-adv-x="600" d="M268 614 L268 573 C155 557 71 463 71 353 L71 293 C71 182 155 90 268 76 L268 22 C268 10 281 0 298 0 C316 0 332 12 332 26 L332 76 C445 92 529 187 529 297 L529 356 C529 467 445 560 332 574 L332 618 C332 630 319 640 302 640 C284 640 268 628 268 614 L268 614 Z M134 297 L134 356 C134 439 191 511 268 525 L268 125 C191 141 134 214 134 297 L134 297 Z M332 124 L332 524 C409 508 466 436 466 353 L466 293 C466 208 417 138 332 124 L332 124 Z " />
<glyph glyph-name="Chi" unicode="&#x3a7;" horiz-adv-x="600" d="M96 17 C96 3 112 -5 126 -5 C138 -5 150 0 156 10 C180 51 276 219 300 260 L445 7 C450 -1 461 -5 471 -5 C486 -5 505 5 505 21 C505 24 504 27 502 31 C474 79 363 274 335 322 L502 612 C504 616 505 620 505 623 C505 637 490 645 476 645 C464 645 451 640 445 630 C421 589 325 421 301 380 L156 633 C151 641 140 645 130 645 C115 645 96 635 96 619 C96 616 97 613 99 609 C127 561 238 366 266 318 L99 28 C97 24 96 20 96 17 L96 17 Z " />
</font>
</svg>
