<?xml version="1.0" encoding="UTF-8"?>
<svg id="Background_copy_Afbeelding" xmlns="http://www.w3.org/2000/svg" version="1.1" viewBox="0 0 120 48">
  <!-- Generator: Adobe Illustrator 29.7.1, SVG Export Plug-In . SVG Version: 2.1.1 Build 8)  -->
  <defs>
    <style>
      .st0 {
        fill: #e0866c;
      }

      .st1 {
        fill: #a5e0fd;
      }

      .st2 {
        fill: #c57050;
      }

      .st3 {
        fill: #7aaad0;
      }

      .st4 {
        fill: #fff;
      }

      .st5 {
        fill: #e0dedf;
      }

      .st6 {
        fill: #b2b2b4;
      }

      .st7 {
        fill: #f8f7f7;
      }

      .st8 {
        fill: #96d1f4;
      }
    </style>
  </defs>
  <path class="st1" d="M4.9,35.2c1.2.5,2.8.4,4.1.6,2,.2,4.2.7,6.2.8.3,0,.5-.1.9,0,2.2.2,4.5.5,6.8.7.8,0,1.7,0,2.5.3v-.3c.2,0,.1,0,.2,0,0,0,0,0,0,0,.1.5.4,0,.4,0,.3,0,.3,0,.3.3h-.2c-.1,0,0,.2,0,.2,0,0-.2,0-.2,0,0,0,0,.3,0,.3,0,0,.2,0,.2,0,0,0-.1.3-.1.5,0,.4.2.9.3,1.2-.2,0-.1,0,0,.2,0,.2.2.5.3.8,0,.1,0,.2.2.2.1.5.3,1,.5,1.4,0,0,.1,1.3.3.7,0-.1,0-.2.1-.2-.1.2.2.4.3.4,0,0,0,.2,0,.2,0,0,.3.2.2.4h-.4c0,.1.2.3.2.4,0,.2-.2.2.1.2,0,.3.1.7.2,1h-.2c0,.1.2.2.2.2-.2.3,0,.5.1.7,0,.4.2.8.1,1.2h0c-.2.1-.6.2-.3.4,0,0-.3,0-.3,0h-.1c0-.2-.1-.1-.2-.1-7.6-.8-15.2-1.6-22.8-2.4l-.4-.3v-.3c.2,0,.1,0,.1-.2,0-.3,0-.7,0-1v-1.1c0-.1,0-.5,0-.7v-.2c0-.3,0-.6,0-.9,0,0,0-.2,0-.3,0-.3,0-.6,0-.9v-.3c0-.3,0-.7,0-1v-.3c0-.3,0-.7,0-1h0s0,0,0,0c0-.3,0-.6,0-.9,0,0,0-.2,0-.3,0-.1,0-.3,0-.5h0,0ZM27.6,43.1v.2c-.1,0,0,.4,0,.4v-.6Z"/>
  <path class="st3" d="M28.4,47.5s.1,0,.2,0c.1,0,.2-.1.3-.1,0,0-.1.2.1.2.1-.2.2-.4.2,0,0,0-.1,0-.2,0,0,0,0,0,0,.1-.2.1-.5,0-.5.2h-.1c0-.2-.1,0-.3,0-.3-.2.1-.3.3-.3Z"/>
  <path class="st4" d="M28.1,47.8c.2,0,.4-.1.3,0h-.6c0-.1.2,0,.3,0h0Z"/>
  <path class="st7" d="M40,9.8s.1.2.1.2c0,.3.1.7.2,1,1.1,3.6,2.3,7.3,3.4,10.9,0,.1,0,.6.1.7,0,0,0,0,0,0-.5.6-1.1,1.1-1.8,1.7-2.4,2-5,3.8-7.5,5.8-.5.4-.9.6-1.3,1.1-.1.1-.3,0-.3,0,0,0,0,.2,0,.2,0,0-.1,0-.2,0-1.6,1.4-3.7,3.1-5.5,4.3,0,0-.1,0-.1.1,0,0,0,0,0,0-.4.1-.7.4-1,.8,0,0,0,0-.1.1-.2,0-.2,0-.3.1,0,0,0,0-.1.1,0,0,0,0,0,0,0,0,0,.2-.2,0v.3c-.8-.2-1.6-.2-2.5-.3-2.3-.2-4.6-.5-6.8-.7-.4,0-.6,0-.9,0-2-.1-4.2-.6-6.2-.8-1.3-.1-2.9,0-4.1-.6.1-1.3.1-2.6.2-3.9.1-2,.2-4.1.4-6.1,0-.1,0-.3-.1-.2,0-.2,0-.6,0-.7v-1.1c0-.1.1-.5.1-.7.4,0,.9,0,1.3,0,1.6.1,3.4.4,5,.6s3,.4,4.6.5c1.3,0,2.8,0,4.1.2.3,0,1.1.3,1.2.3.2,0,.2-.3.3-.3.5-.4,1-.8,1.5-1.2.7-.7,1.4-1.4,2.1-2,1.6-1.4,3.4-2.6,5-3.9,2.6-2.1,5.4-4.1,8.1-6.2l1.3-.7h0Z"/>
  <path class="st2" d="M109.4,3c0,0,.1.6.3.5,0,0,0,0,0,0,0,.2.2.6.4.6,0,0,0,0,0,0,0,.2.2.6.4.6,0,0,0,0,0,0,0,.2.2.6.4.6,0,0,0,.1,0,.2,0,.2.1.5.3.5,0,0,0,.1,0,.2,0,.2.1.5.3.5,0,0,0,.1,0,.2.2.4.4.9.6,1.3,0,0,0,.2.2.2,0,0,0,0,0,0,0,.1,0,.4.3.4,0,.1,0,.2.1.3,0,.2.1.5.3.5,0,0,0,.1,0,.2,0,.2.2.6.4.6,0,0,0,0,0,0,0,.2.2.4.3.6,0,0,0,.2.2.2,0,0,0,0,0,0,.2.4.4.8.6,1.2,0,0,0,.2.2.2,0,0,0,0,0,0,0,.2.2.5.4.7,0,0,0,0,0,.1,0,.1,0,.4.3.4,0,.3,0,.6,0,1-.2,2.6-.9,5.7-1.3,8.4h0s0,0,0,0c0,0,0,.1,0,.2l-7.9.2-2.4-5.3s0,0,0,0c0-.3,0-.3-.3-.5,0,0-.1-.1-.2-.3h0c0-.2-.2-.3-.2-.4-.4-.5-.5-1.1-.9-1.7l-2.7.9c-.9.6-2.1.8-3.2,1.2s-1.9,1-2.9,1.4c-1.5.6-2.9,1.1-4.4,1.7,0,0,0,0-.1,0-.2,0-.3.1-.4.2-.1-.1-.3,0-.4,0,0,0-.1-.1-.2-.1,0,.4-.1.2-.3.1-.3,0-.3,0-.6-.2,0,0-.2,0-.3,0,0,0,0-.2,0-.2,0,0-.5.1-.5.2-.1.2,0,.7,0,1-.1,0-.2.1-.2.1,0,0,0,0-.1,0-.2-.2-.5-.3-.8-.4,0,0,0,0-.1,0,0-.2,0-.2-.2-.2-.6-.3-1.2-.5-1.8-.7,0,0,0,0,0,0l-2.4-1c-.9-.3-1.7-.6-2.6-1-.4-.2-.9-.4-1.3-.6-.2-.2-.5-.3-.8-.4-.5-.2-1-.5-1.6-.7-1.6-.7-3.3-1.2-4.9-1.8,0,0-.5-.2-.5-.3,0-.1.7-2.1.8-2.4.7-2,1.4-4,2.2-6,0-.1.2-.6.2-.6,0,0,.3,0,.3,0,0,0,.1,0,.2,0,0,0,0,0,.1,0,0,0,.2.1.3.1,0,0,.1,0,.2,0,0,.1,0,.1.1.1,0,0,.1,0,.2,0,0,.1,0,.1.1.1,0,0,.1,0,.2,0,0,.1,0,.1.1.1,0,0,.1,0,.2,0,0,.1,0,.1.1.1,0,0,.8.3.9.3,0,.1,0,.1.1.1,0,0,.1,0,.2,0,0,.1,0,.1.1.1,0,0,.1,0,.2,0,0,.2.1.2.3.2,0,0,.1,0,.2,0,0,.1,0,.1.1.1,0,0,.1,0,.2,0,0,.1,0,.1.1.1,0,0,.1,0,.2,0,0,.1,0,.1.1.1,0,0,.1,0,.2,0,0,.1,0,.1.1.1,0,0,.1,0,.2,0,0,.1,0,.1.1.1,0,0,.6.2.8.3,0,.2-.1.5-.2.6,0,.1-.2,0-.2.1-.1.1.1.1.2.2s0,.3.2.1c.1-.2.2-.6.3-.8l5,1.9c0,0,.1,0,.2,0,0,.1,0,.1.1.1,0,0,.1,0,.2,0,0,.2,0,.1.2.2.4.2,1.2.6,1.7.7.4.1.5-.1.9-.3,2.8-1.2,5.7-2.5,8.5-3.5.1,0,.5-.4.8-.5,1.5-.7,3.5-1.6,5.1-2.2,2.1-.8,4.4-1.3,6.6-1.9.1,0,.2,0,.2-.2,0,0,0,0,.1,0,0,0,0,0,.1,0,.2,0,.7-.3.9-.1h0ZM73.3,7.1l-.5.2c-.2.8-.6,1.4-.7,2.2.1,0,.1-.1.1-.2.2-.4.5-1.6.7-1.8,0,0,.4,0,.4-.4h0ZM72,9.7l-.2.3v.3c0,0,.1-.3.2-.3,0,0,0-.2,0-.3h0ZM71.8,10.5l-.3.4c.1.1.3-.3.3-.4ZM88.9,13.3c0,0-.2,0-.4,0-.2,0-.8.3-.9.2-.1,0,0-.6-.2-.9,0,0-.2,0-.2-.2-.2-.4.3-.7-.7-.5.2.5,0,1.1,0,1.6,0,0,.2,0,.2,0,0,.2-.2.4-.2.6,0,.1.2.2.2.4,0,0-.1,0-.2.1-.1.3,0,.5,0,.7,0,.5-.2,1-.1,1.5,0,.1.1.3.1.4,0,.1-.4.3,0,.4,0,0,.6,0,.7,0,0-.1.1-.3.1-.4s-.2-.1-.2-.3c0-.1.1-.2.1-.3,0-.4,0-.9.4-.9,0-.1-.8-.6-.2-.9.4-.2.8-.2,1-.6,0-.1,0-.3.1-.4.2-.2,1-.1.9-.7-.1-.1-.3-.1-.5,0-.1,0-.1.2-.2.2h0ZM107.4,13.9c0,0-.3-.4-.3-.3v.4c0,0,.3,0,.3,0h0ZM108.6,14.4c-.4-.2-1.1-.2-1,.4,0,0,.8-.2.9-.3,0,0,.1,0,0-.1h0ZM114,15.3h-.2c0,0-.8,0-.8,0h1ZM86.5,19.2c-.2-.2-.5.6,0,.4,0,0,0-.4,0-.4Z"/>
  <path class="st3" d="M64.7,27.2c.7.3,1.4.6,2.1.8,2.1.7,3.9,1.4,6,2.2,4.2,1.7,8.5,3,12.7,4.7.4,0,.8,0,1.2,0,.1,0,0-.1.2-.1,1.2-.4,2.3-.8,3.4-1.3,1.6-.7,3.4-1.1,5-1.7,1.5-.6,3.1-1.1,4.6-1.7.8-.3,1.5-.6,2.2-1l2.8,5.9c0,0,0-.1.1-.1.2,0,.5,0,.7,0,1.5,0,3-.1,4.5-.1.5,0,1.1.1,1.6.1.3,0,.6,0,.9,0-.4,2.8-.9,5.6-1.3,8.4,0,.1-.4.3-.6.3-1.3.2-2.7.1-3.9.1-1,0-1.9,0-2.9,0l-.4-.3-1.3-3.2h-.1c0,0-14.8,5-14.8,5-.8.2-2.9-.7-3.8-1-5.2-1.8-10.3-3.8-15.5-5.6l.2-.7c0,0-.3,0-.4,0,0,0,0-.3-.1-.1s.1.1.1.1c0,0,0,.5,0,.6-2.2-.8-4.3-1.6-6.5-2.2.1-.2,0-.4.1-.5.4-1.2.9-2.4,1.4-3.5,0,0,.1,0,.1,0,0-.2-.1-.4.2-.3,0-.1-.1,0-.1,0s.2-.6.2-.7c.5-1.3,1-2.6,1.5-3.9h0Z"/>
  <path class="st0" d="M6.2,13c0,0-.1-.4.2-.4.4,0,.9.1,1.3.1,3.5.2,7.1.4,10.6.6L35.9.2c.4-.2.6-.5,1.1-.4,0,0,0,.1,0,.1-.2,0-.1.4-.1.5,0,.2.2.3.3.5.2.5.2,1.2.4,1.7.2.7.5,1.4.8,2.1.4,1.4,1,3.9,1.6,5.1l-1.3.7c-2.7,2.1-5.5,4.1-8.1,6.2-1.6,1.3-3.4,2.5-5,3.9-.7.6-1.4,1.3-2.1,2-.5.4-1,.8-1.5,1.2,0,0,0,.3-.3.3,0,0-.9-.3-1.2-.3-1.3-.2-2.8-.1-4.1-.2-1.6,0-3-.3-4.6-.5s-3.4-.5-5-.6c-.4,0-.9,0-1.3,0,0-.3,0-.8,0-1.1v-1.1c0-.5.2-1,.1-1.6h0c0-.2,0-.9,0-1.1,0,0,0-.2,0-.3,0-.3,0-.7,0-1,0,0,0-.2,0-.2,0-.3,0-.6,0-.9,0,0,0-.2,0-.2,0-.4.2-.9.1-1.3h0c0-.1,0-.5,0-.6h0c0-.1,0-.1,0-.1ZM9.1,17.7h-.4c-.1.4.5.1.4,0Z"/>
  <path class="st8" d="M43.9,22.7c.1,0,.1.1.1.2.7,1.9,1.3,4.1,1.9,6.1.2.5,1.1,3.1,1,3.5,0,.1-.3.2-.2.4-2.5,2.3-5.3,4.5-8,6.7-3.2,2.7-6.3,5.4-9.5,8,0-.4,0-.2-.2,0-.2,0,0-.1-.1-.2-.1,0-.2,0-.3.1,0,0-.2,0-.2,0h0c.2,0,.2-.4.2-.4,0-.3-.2-.7-.2-1,0,0,0-.1,0-.2,0,0-.2-.2-.3-.5,0-.3-.1-.7-.2-1-.3,0-.1,0-.1-.2,0-.1-.2-.2-.2-.4h.4c0-.2-.2-.3-.2-.4,0,0,0-.2,0-.2,0,0-.4-.2-.3-.4-.2,0,0,0-.1.2-.2.6-.3-.6-.3-.7-.1-.5-.3-1-.5-1.4-.1-.4-.2-.8-.3-1.1,0-.4-.3-.9-.3-1.2,0-.2.2-.4.1-.5,0,0-.2,0-.2,0,0,0,0-.3,0-.3,0,0,.2,0,.2,0,0,0,0-.2,0-.3h.2c0-.1,0-.3-.3-.2,0,0-.3.5-.4,0,0,0,0,0,.1-.1.3,0,.2,0,.3-.1,0,0,0,0,.1-.1.1,0,.2,0,.3.1,0,0,0,.1.1.1,0-.2.1-.2.1-.2,0-.1-.1-.2,0-.3,0,0,.4-.3.4-.3,0,0,.1.4.3,0,0-.1-.1,0-.2-.3,0,0,0,0,0,0,.1,0,.1,0,.1-.1,1.8-1.2,3.9-2.9,5.5-4.3,0,0,.1,0,.2,0,0,0,0-.2,0-.2,0,0,.2,0,.3,0,.4-.4.8-.7,1.3-1.1,2.5-1.9,5.1-3.8,7.5-5.8.6-.5,1.2-1,1.8-1.7h0ZM38.6,27.3c-.1,0-.1,0-.1.1h.1ZM40.7,36.6h0s0,0,0,0ZM40.5,36.7h0s0,0,0,0ZM40.4,36.9c-.2,0-.4.2-.4.4,0,0,.4-.3.4-.4ZM39.9,37.2c0,0-.4.3-.3.4,0,0,.4-.3.3-.4ZM39.3,37.7c0,0-.3.3-.4.3-.4.6.5-.2.4-.3ZM38.6,38.2h0s0,0,0,0ZM27.4,42.2c-.2-.2,0,.4,0,.4.2,0,0-.4,0-.4ZM28.8,46.9v-.3h0v.3h0Z"/>
  <path class="st0" d="M63.9,4.9s0,0,0,.1c0,0-.3,0-.4.2,0,.2.2,0,.3,0,0,0-.1.6-.2.7-.5,2.4-1,4.9-1.6,7.3-.1.5.4.4.7.5.8.1,1.2.2,2,.2.6,0,1.3.4,1.9.5.8.2,1.6.2,2.3.5.8-1.7,1.3-3.5,1.9-5.2.5-1.3,1.1-2.6,1.4-3.9h-.2c.2-.1.5,0,.7,0,.1,0,.2,0,.2.2,0,0,0,0-.2,0,0,0-.3,0-.3,0,0,0-.1.5-.2.6-.8,2-1.5,4-2.2,6-.1.3-.9,2.3-.8,2.4,0,0,.4.2.5.3,1.6.6,3.3,1.1,4.9,1.8.5.2,1,.5,1.6.7.3.1.6.1.8.4-2.6-1-5.2-2.1-7.8-3,0,0-.1,0-.2,0-1.5-.5-3.1-.9-4.7-1-.6,0-2-.5-2.5-.3,0,0,0,.1-.1.1-.3,0-.7,0-1.1.2-.8.2-1.7.5-2.5.7-.2,0,0,0-.1.1,0,0-.4,0-.6.1,0,0-.1,0-.1,0-.2,0-.3,0-.5.1-.2,0-.5,0-.5.3-.1,0-.3,0-.5,0,0,0-.1,0-.1,0,0,0,0,0-.1,0-.2,0-.4,0-.5.2,0,0-.2,0-.3,0-.2,0-.6,0-.5.3-.4.1-.9.2-1.3.3-.2,0,0,0-.1.1,0,0-.2,0-.3,0,0,0-.1,0-.1,0-.2,0-.5.1-.8.2,0,0-.1,0-.1,0,0,0,0,0-.1,0,0,0-.1,0-.1,0-.2,0-.5.1-.7.2,0,0-.1,0-.1,0-.4.1-.9.3-1.3.4-.2,0,0,0-.1.1,0,0-.1,0-.2,0-.6.1-1.2.4-1.8.6,0,0,0,0,0,0,0,0-.1,0-.2-.1,0,0-.2-.7-.2-.7,0-.3,0-.5,0-.8,0-.4,0-1.1,0-1.5,0-.2-.3-.3-.3-.5,0-.2,0-.4,0-.6,0-.5-.3-1.3-.4-1.8,0-.3,0-.6,0-.8,0-.1-.2-.1-.2-.2,0,0,0-.3-.1-.4s-.3,0-.4,0l18.9-6h0Z"/>
  <path class="st6" d="M104.1,18.6l2.4,5.3,7.9-.2c-.5,3.8-1.1,7.6-1.7,11.3-.3,0-.6,0-.9,0-.5,0-1.1-.1-1.6-.1-1.5,0-3,.2-4.5.1-.2,0-.5-.1-.7,0,.2-1.1.2-2.2.4-3.2.2-1.7.5-3.5.7-5.2,0-.5,0-1.3.2-1.7,0-.1.2,0,.2-.2h-.2c.2-.2.2-.6,0-.8-.3-1-1.1-2.3-1.5-3.3-.3-.6-.6-1.3-.8-2h0ZM109.4,26.1c-.1,0-.3,0-.2.2,0,0,.3-.1.2-.2Z"/>
  <path class="st2" d="M65.7,4.9c0,.2,0,0,.1,0,0,0,.2,0,.3,0,0,.1,0,.2.1,0,.1,0,.2,0,.3,0,0,.1,0,.2.1,0,.1,0,.2,0,.3,0h0c0,0,0,0,0,0,.1,0,.2,0,.3,0h0c0,0,0,0,0,0,.2,0,.5,0,.7,0,0,.1,0,.2.1,0,0,0,.2,0,.3,0,0,.1,0,.2.1,0,0,0,.2,0,.3,0,0,.3.1,0,.2,0,.1,0,.2,0,.3,0,0,.1,0,.2.1,0,0,0,.2,0,.3,0,0,.3.1,0,.2,0,0,0,.2,0,.3,0,0,.1,0,.2.1,0,.1,0,.2,0,.3,0,0,.1,0,.2.1,0,0,0,.2,0,.3,0,0,.1,0,.2.1,0,0,0,.1,0,.2,0,0,.3.2,0,.3,0,0,0,.1,0,.2,0h.2c-.4,1.5-1,2.7-1.4,4-.6,1.7-1.2,3.5-1.9,5.2-.7-.3-1.5-.3-2.3-.5-.6-.1-1.3-.5-1.9-.5-.8,0-1.2-.1-2-.2-.3,0-.8,0-.7-.5.6-2.4,1.1-4.9,1.6-7.3,0-.1.3-.7.2-.7,0,0-.3,0-.3,0,0-.1.3-.1.4-.2,0,0,0,0,0-.1,0,0,0-.2,0-.2,0,0,1.5.2,1.7.2h0Z"/>
  <path class="st1" d="M59.5,25.7c0,0-.2.4-.2.4,0,0-.1,0-.2,0-.2.4,0,.7-.4,1.2,0,0,0,.2,0,.2,0,0-.3,0-.4,0-.1.1.3.2.3.3,0,.2,0,.3-.1.4,0,0,.1.2.1.4,0,.1-.1.3-.2.5-.1.7-.1,1.6-.3,2.3-.3.9-.6,2.6-.6,3.5,0,.2,0,.3-.1.4h0c-2,.6-3.9,1.3-5.9,1.7l.3-.3c.7-.3-.2-.4-.2-.5,0-.5.2-.3.4-.5h-.7s.1,0,.1-.2c0-.2-.2-.3-.2-.4,0-.1,0-.2.1-.3,0-.1,0-.9,0-.9,0,0-.3,0-.2-.3.4-.1.2-.3.2-.6.1,0,.2.1.3.2.4.2-.2-.5-.3-.5s-.2-.5-.2-.5c0-.2.2,0,.2,0,0,0,0-.2,0-.2,0-.2.2-.2-.2-.3-.1-.4-.3-.7-.2-1.1-.4,0-.2-.3-.3-.3,0,0-.3,0-.3-.2,0-.1.2-.3.2-.4,0-.1,0-.2,0-.4,0-.1.1-.3,0-.3h-.3s.3-.4.3-.4c.5-.1,1.1-.4,1.7-.5,2.1-.7,4.6-1.8,6.8-2,0,0,.2,0,.2,0,0,0,0,0,0-.1,0,0,0,0,0-.1,0,0,0,0,.1,0h0Z"/>
  <path class="st8" d="M64.5,27.1c0,0,.1,0,.2,0,0,0,0,0,0,.1-.5,1.3-1,2.6-1.5,3.9,0,0-.2.6-.2.7,0,0,.2,0,.1,0-.3,0-.1.1-.2.3,0,0,0,0-.1,0-.5,1.1-1,2.4-1.4,3.5,0,.2,0,.4-.1.5-.6-.2-1.5-.5-2.1-.8-.4-.2-.9-.5-1.4-.6-.1,0-.2-.1-.3,0,0-.9.3-2.6.6-3.5.2-.7.2-1.6.3-2.3,0-.2.2-.3.2-.5,0-.2-.1-.3-.1-.4,0-.1.2-.2.1-.4,0-.1-.4-.1-.3-.3,0,0,.3,0,.4,0,0,0,0-.1,0-.2.4-.5.2-.8.4-1.2,0,0,.1,0,.2,0,0,0,.2-.3.2-.4.2,0,.3-.1.6-.1,1.2,0,2.8.7,3.8,1.3.3.2,0,.3.5.2h0ZM59.8,30c-.1-.1-.1,0-.1,0,0,.2-.3.7,0,.8.3,0,.2,0,.3-.2,0,0,.4-.4.2-.4-.4,0-.1-.1-.3-.3h0Z"/>
  <path class="st2" d="M37.1,0c0,0,.2,0,.3.1l7.2,10.6c.1.1.3,0,.5,0s.3-.1.4,0,0,.3.1.4c0,0,.1,0,.2.2,0,.2,0,.5,0,.8,0,.5.3,1.3.4,1.8,0,.2,0,.4,0,.6,0,.2.3.4.3.5.1.3,0,1.1,0,1.5,0,.3,0,.6,0,.8,0,0,.2.7.2.7,0,0,.1,0,.2.1h0c0,0,0,0,0,0-.2,0,0,0-.1.1,0,0,0,0-.1,0,0,0-.2,0-.3,0-.1,0-.6-.8-.7-1-1.8-2.5-3.5-5-5.3-7.5,0,0-.1,0-.1,0,0,0-.1-.2-.1-.2-.6-1.2-1.2-3.7-1.6-5.1-.2-.7-.6-1.4-.8-2.1-.1-.5-.2-1.2-.4-1.7,0-.1-.2-.3-.3-.5,0,0-.1-.5.1-.5h0Z"/>
  <path class="st3" d="M44.4,23c.8.9,1.5,2.3,2.3,3.3,0,0,0,.2.2.2,0,0,0,0,0,0,0,.2.1.3.3.4,0,.3.2.4.4.6.3.5.6,1,.9,1.4,0,0,0,0,.1,0,.1,0,.2,0,.3-.1,0,0,.2,0,.2,0-.2.3,0,.5.1.7,0,.4,0,.9.2,1.3,0,.1.2.2.2.3,0,.1,0,.4,0,.6h.4c0,0-.2.1-.2.3,0,0,.5.6,0,.5,0,.2.1.3.2.5.1.5.1,1.1.2,1.6s.3.9.3,1.4h.8c0-.1-.6.2-.6.2v.8c0,0,0,0,0,0-.3,0-.2,0-.5,0,0-.1,0-.1-.1-.1,0-.2,0-.3-.2-.4l-2.9-4.1c-.2-.3-.2.2-.5.2,0-.2.2-.3.2-.4,0-.3-.9-2.9-1-3.5-.6-2-1.2-4.1-1.9-6.1,0,0,0-.2-.1-.2,0,0,0,0,0,0,0,0,.4.3.5.4h0Z"/>
  <path class="st8" d="M50.6,28.5l-.3.3h.3c.2.1,0,.2,0,.4s0,.3,0,.4c0,.1-.2.3-.2.4,0,.3.3.1.3.2,0,0-.2.4.3.3-.1.5,0,.7.2,1.1.3.1.2,0,.2.3s0,.2,0,.2c0,0-.2,0-.2,0,0,0,.2.5.2.5,0,0,.7.7.3.5-.1,0-.1-.2-.3-.2,0,.3.2.4-.2.6,0,.2.2.2.2.3,0,0,0,.8,0,.9,0,.1-.1.2-.1.3,0,.2.2.3.2.4,0,.1-.2.2-.1.3h.7c-.2.1-.4,0-.4.4,0,0,.9.2.2.5l-.3.3s0,0,0,0h-.1c-.1,0-.2.1-.4.1,0,0-.1,0-.2,0v-.8c0,0,.6-.4.6-.4h-.8c0-.4-.2-.8-.3-1.3,0-.5-.1-1.1-.2-1.6,0-.2-.1-.3-.2-.5.5,0,0-.5,0-.5,0-.2.2-.3.2-.5h-.4c0,0,0-.3,0-.4,0-.1-.2-.2-.2-.3-.2-.4-.1-.9-.2-1.3,0-.2-.3-.4-.1-.7.3,0,.5-.2.8-.3.2,0,.5,0,.7-.1h0Z"/>
  <path class="st0" d="M108.3,3c0,.2,0,.1-.2.2-2.2.7-4.5,1.1-6.6,1.9-1.6.6-3.6,1.4-5.1,2.2-.2.1-.6.4-.8.5-2.9,1-5.7,2.3-8.5,3.5-.4.2-.5.4-.9.3-.4-.1-1.2-.5-1.7-.7,0,0-.2,0-.2-.2.4.1,1.8.8,2.1.7.1,0,.4-.2.6-.3,4.6-2,9.4-4.2,14.1-6.1,2-.8,5-1.7,7.1-2.1h0Z"/>
  <path class="st5" d="M5.4,25c.2,0,.1.1.1.2-.2,2-.3,4.1-.4,6.1,0,1.3,0,2.6-.2,3.9h0c.2-3.3.3-6.8.5-10.2h0Z"/>
  <path class="st0" d="M78.7,8.4c1.6.7,3.2,1.3,4.8,1.9.1,0,.5.1.4.3l-5-1.9c0,.2-.1.6-.3.8-.1.2-.1,0-.2-.1s-.3,0-.2-.2c0,0,.1,0,.2-.1,0-.1.2-.5.2-.6h0Z"/>
  <path class="st3" d="M59.2,35.5c-.3,0-.7-.3-1-.3,0,0-.5,0-.7.1h0c.1-.1.1-.3.1-.4.1,0,.2,0,.3,0,.5.2.9.4,1.4.6h0Z"/>
  <path class="st8" d="M67.8,37.9s-.3,0-.1-.1.1.1.1.1c0,0,.3,0,.4,0l-.2.7c0,0-.1,0-.2,0,0-.1,0-.6,0-.6Z"/>
  <path class="st0" d="M111.7,7.1c.2,0,.1,0,.2.2.2.4.5.8.6,1.3-.2,0-.1,0-.2-.2-.2-.4-.4-.8-.6-1.3Z"/>
  <path class="st0" d="M108.4,3c.2-.1.7-.3,1-.2,0,0,0,.1,0,.1,0,0,0,0,.1,0,0,.1.1.3.2.5-.2,0-.2-.4-.3-.5-.2-.2-.7,0-.9.1,0,0-.1,0-.1,0h0Z"/>
  <path class="st0" d="M113.6,10.7c.2,0,.1,0,.2.2.1.2.2.4.3.6-.2,0-.1,0-.2-.2-.1-.2-.2-.4-.3-.6Z"/>
  <path class="st0" d="M114.1,11.5c.2,0,.1,0,.2.2.2.4.4.8.6,1.2-.2,0-.1,0-.2-.2-.2-.4-.4-.8-.6-1.2Z"/>
  <path class="st0" d="M114.8,12.9c.2,0,.3.5.4.7-.2-.2-.3-.5-.4-.7Z"/>
  <path class="st0" d="M113.3,10c.2,0,.3.4.4.6-.2,0-.3-.4-.4-.6Z"/>
  <path class="st0" d="M110.5,4.9c.2,0,.3.4.4.6-.2,0-.3-.4-.4-.6Z"/>
  <path class="st0" d="M110.1,4.2c.2,0,.3.4.4.6-.2,0-.3-.4-.4-.6Z"/>
  <path class="st0" d="M109.8,3.5c.2,0,.3.4.4.6-.2,0-.3-.4-.4-.6Z"/>
  <path class="st0" d="M112.9,9.3c.2,0,.2.3.3.5-.2,0-.2-.3-.3-.5Z"/>
  <path class="st0" d="M111.3,6.4c.2,0,.2.3.3.5-.2,0-.3-.3-.3-.5Z"/>
  <path class="st0" d="M110.9,5.7c.2,0,.3.3.3.5-.2,0-.2-.3-.3-.5Z"/>
  <path class="st0" d="M112.5,8.6c.2,0,.2.2.3.4-.2,0-.2-.2-.3-.4Z"/>
  <path class="st0" d="M115.3,13.7c.2,0,.2.2.3.4-.2,0-.2-.2-.3-.4Z"/>
  <path class="st5" d="M5.9,17.4c0,0,0,.2,0,.3,0,0-.2-.3,0-.3Z"/>
  <path class="st0" d="M71.9,5.8c0,0-.3.2-.3,0,0,0,.2,0,.3,0Z"/>
  <path class="st0" d="M73.1,6.1c0,0,.3-.1.3.1-.1,0-.2,0-.3-.1Z"/>
  <path class="st0" d="M76.2,7.3c.1,0,.3,0,.3.2-.1,0-.3,0-.3-.2Z"/>
  <path class="st0" d="M70.2,5.6c0,0-.2.2-.2,0,0,0,.2,0,.2,0Z"/>
  <path class="st5" d="M5.9,16.4s0-.1,0-.2c0,0,0,.2,0,.2Z"/>
  <path class="st0" d="M69.3,5.5c0,0-.2.2-.2,0,0,0,.2,0,.2,0Z"/>
  <path class="st5" d="M5.9,15.3s0,0,0-.2c0,0,0,.2,0,.2Z"/>
  <path class="st0" d="M84.1,10.6c.2,0,0,0,.1.1-.1,0-.1,0-.1-.1Z"/>
  <path class="st0" d="M68.4,5.3c-.1.1-.1,0-.1,0,.1,0,.1,0,.1,0Z"/>
  <path class="st0" d="M67.6,5.2h0c0,0,0,0,0,0,0,0,0,0,.1,0h0Z"/>
  <path class="st5" d="M4.6,40.6c0,0,0-.2,0-.3,0,0,0,.2,0,.3Z"/>
  <path class="st5" d="M5.8,18.6h0c0,.1,0,0,0,0,0,0,.1,0,.1,0Z"/>
  <path class="st5" d="M6.1,13.7h0c0,.1,0,0,0,0,0,0,.1,0,.1,0Z"/>
  <path class="st5" d="M6.2,13h0c0,.1,0,0,0,0,0,0,.1,0,.1,0Z"/>
  <path class="st0" d="M68.9,5.4c-.1.1-.1,0-.1,0,.1,0,.1,0,.1,0Z"/>
  <path class="st5" d="M4.6,39.4c0-.1,0-.2,0-.3v.3Z"/>
  <path class="st0" d="M67.2,5.1h0c0,0,0,0,0,0,0,0,0,0,.1,0h0Z"/>
  <path class="st6" d="M50.3,37.1c.1,0,.1,0,.1.1,0,0,0,0-.1,0s0,0,0-.1h0Z"/>
  <path class="st0" d="M66.8,5.1c-.1.1-.1,0-.1,0,.1,0,.1,0,.1,0Z"/>
  <path class="st0" d="M77.8,8c.2,0,0,0,.1.1-.1,0-.1,0-.1-.1Z"/>
  <path class="st0" d="M77.5,7.9c.2,0,0,0,.1.1-.1,0-.1,0-.1-.1Z"/>
  <path class="st0" d="M77.2,7.8c.2,0,0,0,.1.1-.1,0-.1,0-.1-.1Z"/>
  <path class="st0" d="M76.9,7.7c.2,0,0,0,.1.1-.1,0-.1,0-.1-.1Z"/>
  <path class="st0" d="M69.8,5.5c-.1.1-.1,0-.1,0,.1,0,.1,0,.1,0Z"/>
  <path class="st0" d="M76.6,7.5c.2,0,0,0,.1.1-.1,0-.1,0-.1-.1Z"/>
  <path class="st0" d="M75.8,7.2c.2,0,0,0,.1.1-.1,0-.1,0-.1-.1Z"/>
  <path class="st5" d="M4.7,38.2c0-.1,0-.2,0-.3v.3Z"/>
  <path class="st0" d="M75.5,7.1c.2,0,0,0,.1.1-.1,0-.1,0-.1-.1Z"/>
  <path class="st0" d="M66.3,5c-.1.1-.1,0-.1,0,.1,0,.1,0,.1,0Z"/>
  <path class="st0" d="M65.9,5s-.2.2-.1,0c0,0,.1,0,.1,0Z"/>
  <path class="st0" d="M74.5,6.6c.2,0,0,0,.1.1-.1,0-.1,0-.1-.1Z"/>
  <path class="st0" d="M70.6,5.6c-.1.1-.1,0-.1,0,.1,0,.1,0,.1,0Z"/>
  <path class="st0" d="M74.1,6.5c.2,0,0,0,.1.1-.1,0-.1,0-.1-.1Z"/>
  <path class="st0" d="M73.8,6.4c.2,0,0,0,.1.1-.1,0-.1,0-.1-.1Z"/>
  <path class="st0" d="M73.5,6.3c.2,0,0,0,.1.1-.1,0-.1,0-.1-.1Z"/>
  <path class="st5" d="M4.8,35.9c0,0,0-.2,0-.3,0,0,0,.2,0,.3Z"/>
  <path class="st0" d="M71.5,5.8c0,.1-.1,0-.1,0,.1,0,.1,0,.1,0Z"/>
  <path class="st0" d="M71,5.7c-.1.1-.1,0-.1,0,.1,0,.1,0,.1,0Z"/>
  <path class="st6" d="M51.1,37.2c0,0-.1,0-.2,0h0c0,0,.1,0,.2,0Z"/>
  <path class="st5" d="M4.5,41.8c0-.1,0-.2,0-.2v.2Z"/>
  <path class="st1" d="M51.6,37.1s0,0-.1,0h.1Z"/>
  <path class="st5" d="M4.8,36.9h0c0,0,0,0,0,0h0Z"/>
  <path class="st6" d="M114.3,23.5h0s0,0,0,0c0,0,0,0,0,0h0Z"/>
  <path class="st5" d="M28.1,45.4c0,.2.3.4.3.5,0,0,0,.1,0,.2,0,.2.2.7.2,1,0,0,0,.4-.2.4,0-.4,0-.8-.1-1.2,0-.2-.3-.4-.1-.7h-.2s.2-.2.2-.2h0Z"/>
  <path class="st5" d="M26.4,39.7c0,.4.2.8.3,1.1-.2,0-.1,0-.2-.2,0-.2-.2-.5-.3-.8,0-.1,0-.2,0-.2h0Z"/>
  <polygon class="st8" points="27.6 43.1 27.6 43.7 27.4 43.3 27.6 43.1"/>
  <path class="st6" d="M40.2,10s0,0,.1,0c1.8,2.5,3.5,5.1,5.3,7.5.1.2.6,1,.7,1,0,0,.2,0,.3,0,0,.1-.1.1-.1.2,0,.1,0,.4,0,.6.3,2.2,1.2,4.7,1.5,6.9.3.9.4,1.9.7,2.9,0,0,0,0-.1,0-.3-.5-.6-.9-.9-1.4.2,0,.2,0,.2-.1-.2-1.3-.4-2.5-.7-3.8-.1-.7-1.1-2.1-1.5-2.7s-.3.2-.3.3c0,0-.3.2-.2.4-.2,0,0,0-.2-.1,0,0-.1,0-.2,0,0,0,0-.4-.3-.3,0,0-.2.4-.2.5,0,.2.2.3.2.4,0,0-.1.2-.1.4,0,.2.2.3.1.5-.1-.1-.5-.4-.5-.4,0,0-.1-.6-.1-.7-1.1-3.6-2.3-7.3-3.4-10.9,0-.3-.2-.7-.2-1h0ZM45.9,18.9c0,0-.6.1-.6.1,0,0,0,.1,0,.2,0,0-.4,0-.3.3,0,0,.2.3.2.4.3.7.8,1.7,1.3,2.3,0,0,0,.2.2.1,0-.4-.2-.6-.2-.9-.1-.5-.2-1-.3-1.5,0-.3-.3-.7-.4-1h0Z"/>
  <path class="st1" d="M27.3,36c0,.2.2.2.2.3-.1.3-.2,0-.3,0,0,0-.4.2-.4.3,0,.1,0,.2,0,.3,0,0-.2,0-.1.2,0,0,0,0-.1-.1,0,0-.2,0-.3-.1.3-.3.6-.6,1-.8h0Z"/>
  <path class="st1" d="M26.1,36.9c0,0,0,.2-.3.1,0,0,0-.2.3-.1Z"/>
  <path class="st1" d="M27.4,35.8c0,.1,0,.1-.1.1,0-.2,0,0,.1-.1Z"/>
  <path class="st5" d="M68.9,15.2l-3,8c.1,0,.2-.1.2-.2.7-1.6,1.2-3.1,1.8-4.7.2-.6.4-1.2.6-1.8.2-.4.5-.8.5-1.3,2.6.9,5.3,2,7.8,3,.4.2.9.4,1.3.6.2.3.4.2.7.3,1.4.6,2.8,1.2,4.3,1.7,0,0,0,0,0,0,0,.1,0,.1.2.2.6.3,1.2.5,1.8.8,0,0,0,0,.1,0l.6.4c.1,0,.1,0,.2,0,0,0,0,0,.1,0,0,.3,0,.7,0,1,0,.1,0,.1.1,0v-1.1c.2,0,.6.1.6-.1.5-.1.9-.5,1.2-.6.2,0,.4,0,.6-.2.2,0,.3-.1.4-.2h.1c1.5-.7,2.9-1.1,4.4-1.8,1-.4,1.9-1,2.9-1.4s2.2-.6,3.2-1.2l2.7-.9c.3.6.5,1.1.9,1.7,0,.2.1.3.2.4,0,.1.1.2.2.3,0,.2.1.4.3.5,0,0,0,0,0,0,.2.7.5,1.3.8,2,.4,1,1.2,2.3,1.5,3.3,0,.2,0,.6,0,.8h.2c0,.1-.1,0-.2.2-.1.4-.1,1.2-.2,1.7-.2,1.7-.5,3.4-.7,5.2-.1,1.1-.2,2.2-.4,3.2,0,0,0,.2-.1.1l-2.8-5.9c-.7.4-1.5.7-2.2,1-1.5.6-3.1,1.1-4.6,1.7-1.7.6-3.4,1-5,1.7-1.2.5-2.2.9-3.4,1.3,0,0,0,.1-.2.1-.3,0-.8-.1-1.2,0-4.2-1.7-8.5-3-12.7-4.7-2-.8-3.9-1.5-6-2.2-.7-.2-1.4-.5-2.1-.8,0,0,0,0,0-.1.4-1.1.8-2.2,1.1-3.3,0-.2.2-.5,0-.4l-1.3,3.7c-.4.1-.3,0-.5-.2-1-.7-2.6-1.2-3.8-1.3-.3,0-.4,0-.6.1,0,0,0,0-.1,0,.2-.8.3-2,.5-2.8.2-1.1.4-2.3.7-3.4.1-.6.5-1.2.5-1.8,0-.7.1-.7.3-1.3,0-.1,0-.3,0-.4,0-.2.3-.5.2-.7,0,0-.4-.3-.4-.4.3,0,.5-.5.4-.8,0,0,0,0,.1-.1.5-.1,1.9.3,2.5.3,1.6.1,3.1.5,4.7,1h0Z"/>
  <path class="st0" d="M88.9,13.3s0-.1.2-.2c.1,0,.4,0,.5,0,0,.6-.7.5-.9.7-.1.1,0,.3-.1.4-.2.5-.6.4-1,.6-.6.3.3.8.2.9-.5,0-.4.6-.4.9,0,.1-.1.2-.1.3,0,.2.2.2.2.3s-.1.3-.1.4c-.1,0-.6,0-.7,0-.3-.1,0-.3,0-.4,0-.1-.1-.2-.1-.4,0-.5,0-1,.1-1.5,0-.2,0-.5,0-.7,0,0,.2,0,.2-.1,0-.2-.2-.2-.2-.4,0-.2.1-.4.2-.6,0,0-.2,0-.2,0,0-.5.1-1.1,0-1.6.9-.2.5.1.7.5,0,0,.2.1.2.2.2.3,0,.8.2.9.1,0,.7-.2.9-.2.1,0,.3,0,.4,0h0Z"/>
  <path class="st0" d="M86.4,22c0-.3,0-.7,0-1,0,0,.5-.2.5-.2,0,0,0,.2,0,.2,0,0,.2,0,.3,0,.3.1.3.1.6.2.2,0,.2.3.3-.1.1,0,.2,0,.2.1.1,0,.3-.2.4,0-.2,0-.4,0-.6.2-.3.1-.7.5-1.2.6-.4.1-.3,0-.6,0h0Z"/>
  <path class="st6" d="M83.2,20.8c-1.5-.5-2.9-1.1-4.3-1.7-.3-.1-.5,0-.7-.3.8.3,1.7.7,2.6,1l2.4,1h0Z"/>
  <path class="st0" d="M73.3,7.1c0,.3-.3.3-.4.4-.2.2-.6,1.5-.7,1.8,0,0,0,.2-.1.2.1-.8.5-1.4.7-2.2l.5-.2h0Z"/>
  <path class="st6" d="M108.6,14.4c0,.1,0,0,0,.1-.1,0-.9.4-.9.3,0-.6.6-.7,1-.4h0Z"/>
  <path class="st6" d="M85.2,21.8c-.6-.2-1.2-.5-1.8-.8,0,0-.2,0-.2-.2.6.2,1.2.4,1.8.7.1,0,.2,0,.2.2Z"/>
  <path class="st6" d="M86.4,22c.3,0,.1.1.6,0,0,.2-.4.2-.6.1v1.1c-.1,0-.1,0-.1,0,0-.3,0-.7,0-1,0,0,0-.1.2-.1Z"/>
  <path class="st6" d="M86.1,22.1s0,0-.2,0l-.6-.4c.3,0,.6.1.8.4Z"/>
  <path class="st0" d="M86.5,19.2s0,.3,0,.4c-.5.2-.2-.6,0-.4Z"/>
  <path class="st6" d="M107.4,13.9s-.2,0-.2,0v-.4c0,0,.3.2.3.3h0Z"/>
  <path class="st0" d="M72,9.7c0,.1,0,.2,0,.3,0,0,0,.3-.2.3v-.3s.2-.3.2-.3h0Z"/>
  <polygon class="st6" points="114 15.3 113 15.3 113.8 15.2 114 15.3"/>
  <path class="st0" d="M71.8,10.5c0,0-.1.5-.3.4l.3-.4Z"/>
  <path class="st6" d="M104.1,18.6c-.1-.1-.3-.3-.3-.5.2.2.2.2.3.5Z"/>
  <path class="st6" d="M103.6,17.8c0-.1-.2-.2-.2-.4,0,0,.2.2.2.3h0Z"/>
  <path class="st0" d="M89.4,20.9h-.1s0,0,.1,0Z"/>
  <path class="st6" d="M9.1,17.7c.1.1-.5.4-.4,0h.4Z"/>
  <path class="st3" d="M40.4,36.9c0,0-.4.4-.4.4,0-.2.2-.4.4-.4Z"/>
  <path class="st1" d="M27.4,42.2s.2.5,0,.4c0,0-.1-.6,0-.4Z"/>
  <path class="st3" d="M39.3,37.7c0,0-.9.8-.4.3.1,0,.4-.3.4-.3Z"/>
  <path class="st3" d="M39.9,37.2c0,0-.3.3-.3.4,0-.1.3-.5.3-.4Z"/>
  <rect class="st1" x="28.7" y="46.6" width="0" height=".3"/>
  <path class="st1" d="M38.6,27.3h-.1s0,0,.1,0Z"/>
  <path class="st3" d="M40.5,36.7s0,0,0,0h0Z"/>
  <path class="st3" d="M40.7,36.6s0,0,0,0h0Z"/>
  <path class="st3" d="M38.6,38.2s0,0,0,0h0Z"/>
  <path class="st7" d="M61.6,14c.2.3,0,.8-.4.8,0,0,.3.3.4.4.1.3-.1.5-.2.7,0,.1,0,.3,0,.4-.2.6-.3.7-.3,1.3,0,.6-.3,1.3-.5,1.8-.3,1.1-.5,2.2-.7,3.4-.2.8-.3,2.1-.5,2.8,0,0,0,0,0,.1-.2,0-.3,0-.3.1-2.2.2-4.7,1.3-6.8,2-.5.2-1.2.4-1.7.5-.2,0-.5,0-.7.1,0-.2-.2-.5-.2-.7,0-.1.1-.2.1-.3,0,0-.2-.1-.2-.2,0-.1,0-.2,0-.4,0-.1-.2-.4-.2-.5,0-.2.4-.4.4-.5-.4,0-.2-.2-.2-.4,0,0-.1-.1-.1-.2-.1-.4-.1-.6.4-.6.2-.4-.3-.3-.3-.3,0,0,0-.4,0-.4,0,0,.1-.2.2-.3,0-.5-.2-.4-.3-.5-.1-.2.1-.4.1-.5,0-.2-.1,0-.2-.2,0-.1,0-.4-.1-.4,0,0-.4,0-.4-.4,0-.2.2-.1.3-.2.2-.1,0-.3,0-.5,0-.1.1-.2.1-.4,0-.2-.1-.6-.1-.8,0,0,.4,0,.3-.3h-.3c0-.1.1-.2.1-.3,0-.2-.5-.7-.3-1,0,0-.6.2-.7-.1-.1-.4.4-.1.4-.4,0,0,.2,0,.2,0,.1,0,.1,0,.1-.1.5,0,.9-.3,1.3-.4.1.1.1,0,.1,0,.2,0,.5-.1.7-.2.1.1.1,0,.1,0,0,0,0,0,.1,0,0,.1.1,0,.1,0,.2,0,.5-.1.8-.2.1.1.1,0,.1,0,0,0,.3,0,.3,0,.1,0,.1,0,.1-.1.4,0,.9-.2,1.3-.3.2,0,.6,0,.5-.3,0,0,.2,0,.3,0,0,0,0,0,0,0,.1,0,.5-.1.4-.2,0,0,0,0,.1,0,0,.1.1,0,.1,0,.2,0,.4,0,.5,0,.2,0,.6,0,.5-.3.2,0,.3,0,.5-.1.1.1.1,0,.1,0,.1,0,.5-.1.6-.1.1,0,.1,0,.1-.1.8-.2,1.7-.5,2.5-.7.3,0,.8,0,1.1-.2h0ZM50,24c-.1,0-.3.3-.2.4h.4c0,0-.1-.4-.1-.4Z"/>
  <path class="st5" d="M48.8,17.8c0,.3-.5,0-.4.4,0,.3.6,0,.7.1-.2.4.3.8.3,1s-.2.2-.1.3h.3c0,.3-.2.2-.3.3,0,.2.1.6.1.8,0,.1-.1.2-.1.4,0,.2.2.3,0,.5,0,0-.3,0-.3.2,0,.4.3.4.4.4,0,0,0,.3.1.4.1.1.3,0,.2.2,0,.2-.3.3-.1.5,0,.1.4,0,.3.5,0,.1-.1.2-.2.3,0,0,0,.4,0,.4,0,0,.5,0,.3.3-.5,0-.5.2-.4.6,0,0,.1.2.1.2,0,.2-.2.4.2.4,0,0-.4.3-.4.5,0,.2.2.4.2.5,0,.1,0,.2,0,.4,0,0,.2.1.2.2,0,0-.1.1-.1.3,0,.2,0,.5.2.7-.3,0-.5.2-.8.3,0,0-.1,0-.2,0-.1,0-.2.1-.3.1-.3-.9-.4-1.9-.7-2.9-.3-2.2-1.2-4.7-1.5-6.9,0-.2,0-.5,0-.6,0,0,.2,0,.1-.2,0,0,.1,0,.1,0,.1,0,.1,0,.1-.1,0,0,0,0,0,0s0,0,0,0c.6-.2,1.2-.4,1.8-.6h0Z"/>
  <path class="st7" d="M69.1,15.2c0,.5-.4.9-.5,1.3-.2.6-.4,1.2-.6,1.8-.6,1.6-1.1,3.2-1.8,4.7,0,0,0,.2-.2.2l3-8s.1,0,.2,0h0Z"/>
  <path class="st5" d="M56.7,15.3c0,.2-.3.2-.5.3,0-.2.3-.2.5-.3Z"/>
  <path class="st5" d="M55.5,15.7c0,.1-.3.2-.4.2,0,0,0,0,0,0,.1-.1.3-.1.5-.2Z"/>
  <path class="st5" d="M54.7,15.9c0,.2-.3.2-.5.3,0-.2.3-.2.5-.3Z"/>
  <path class="st5" d="M57.3,15.1c0,.1,0,.2-.1,0,0,0,0,0,.1,0Z"/>
  <path class="st5" d="M58,14.9c0,.1,0,.1-.1.1,0,0-.1,0,.1-.1Z"/>
  <path class="st5" d="M55.7,15.6c0,.1,0,.2-.1,0,0,0,0,0,.1,0Z"/>
  <path class="st5" d="M52.5,16.6c0,.1,0,.2-.1,0,0,0,0,0,.1,0Z"/>
  <path class="st5" d="M52.9,16.5c0,.1,0,.1-.1.1,0,0-.1,0,.1-.1Z"/>
  <path class="st5" d="M49.1,17.7c0,.1,0,.1-.1.1,0,0-.1,0,.1-.1Z"/>
  <path class="st5" d="M50.5,17.2c0,.1,0,.2-.1,0,0,0,0,0,.1,0Z"/>
  <path class="st5" d="M51.3,16.9c0,.1,0,.2-.1,0,0,0,0,0,.1,0Z"/>
  <path class="st5" d="M51.6,16.9c0,.1,0,.2-.1,0,0,0,0,0,.1,0Z"/>
  <path class="st6" d="M46.9,18.4s0,0,0,0h0s0,0,0,0Z"/>
  <path class="st2" d="M109.4,26.1c0,0-.1.3-.2.2,0-.1,0-.3.2-.2Z"/>
  <path class="st5" d="M59.4,25.8s0,0,0,.1c0,0-.2,0-.2,0,0-.2,0-.1.3-.1h0Z"/>
  <path class="st7" d="M64.5,27.1l1.3-3.7c.3,0,.1.3,0,.4-.4,1.1-.8,2.2-1.1,3.3,0,0-.1,0-.2,0h0Z"/>
  <path class="st3" d="M59.8,30c.1.1-.1.2.3.3.2,0-.2.4-.2.4,0,.1,0,.3-.3.2-.2,0,0-.6,0-.8,0,0,0-.2.1,0h0Z"/>
  <path class="st6" d="M46.8,18.4c0,.1,0,.1-.1.1,0,0-.1,0,.1-.1Z"/>
  <path class="st5" d="M44.4,23c0-.2-.1-.3-.1-.5,0-.2.1-.3.1-.4,0-.1-.2-.2-.2-.4,0,0,.1-.5.2-.5.2-.1.3.3.3.3,0,0,.1,0,.2,0,0,0,0,.2.2.1,0-.2.2-.3.2-.4,0,0-.2-.9.3-.3s1.4,2,1.5,2.7c.3,1.3.5,2.5.7,3.8,0,.2,0,.1-.2.1-.1-.2-.3-.4-.4-.6,0,0,0,0,0-.1,0,0-.2,0-.2-.1,0,0,0-.2-.1-.2,0,0,0,0,0,0,0-.2,0-.2-.2-.2-.8-1-1.5-2.3-2.3-3.3h0Z"/>
  <path class="st6" d="M46.9,26.5c.2,0,0,.1.1.2,0,0,.2,0,.2.1,0,0,0,.1,0,.1-.2,0-.3-.3-.3-.4Z"/>
  <path class="st6" d="M46.8,26.3c.3,0,.2,0,.2.2-.2,0-.1-.1-.2-.2Z"/>
  <path class="st5" d="M45.9,18.9c0,.3.3.7.4,1,.1.5.1,1,.3,1.5,0,.3.3.6.2.9-.1,0-.2,0-.2-.1-.5-.6-1.1-1.5-1.3-2.3,0-.1-.2-.3-.2-.4,0-.3.3-.2.3-.3,0,0,0-.1,0-.2,0,0,.5,0,.6-.1h0Z"/>
  <path class="st5" d="M50,24s.1.3.1.3h-.4s.1-.4.2-.3Z"/>
</svg>